<svg width="195" height="49" viewBox="0 0 195 49" fill="none" xmlns="http://www.w3.org/2000/svg">
<path d="M181.536 25.6224C181.272 25.6623 181.005 25.6898 180.747 25.7496C180.579 25.787 180.507 25.6773 180.395 25.62C180.357 25.6 180.317 25.5601 180.283 25.5651C180.021 25.605 179.76 25.6499 179.499 25.6948C179.419 25.792 179.368 25.9216 179.246 25.969C179.126 26.0139 178.984 26.0139 178.851 26.0363C178.675 26.0637 178.499 26.0912 178.323 26.1161C178.235 26.1286 178.163 26.1759 178.134 26.2657C178.128 26.2806 178.187 26.318 178.219 26.3405C178.326 26.4152 178.43 26.5 178.547 26.5574C178.659 26.6122 178.798 26.5225 178.918 26.5923C179.187 26.7493 179.19 26.7468 179.395 26.7169C179.571 26.6895 179.747 26.6596 179.923 26.6396C179.958 26.6347 179.997 26.672 180.035 26.692C180.147 26.7468 180.219 26.8715 180.384 26.8241C180.509 26.7867 180.648 26.7793 180.779 26.7593C180.888 26.8316 180.989 26.9139 181.107 26.9712C181.216 27.0261 181.248 27.0685 181.189 27.1408C181.136 27.2081 181.061 27.2355 180.963 27.2405C180.875 27.243 180.787 27.2654 180.699 27.2779C180.653 27.2853 180.611 27.2903 180.568 27.2978C180.4 27.3252 180.4 27.3252 180.093 27.1657C179.973 27.1034 179.838 27.1906 179.723 27.1308C179.646 27.0909 179.579 27.0311 179.504 26.9887C179.472 26.9712 179.422 26.9687 179.382 26.9737C179.248 26.9912 179.115 27.0036 178.987 27.036C178.896 27.0585 178.843 27.1283 178.854 27.1981C178.856 27.2255 178.92 27.2654 178.958 27.2679C179.043 27.2729 179.134 27.238 179.216 27.2554C179.296 27.2729 179.379 27.3227 179.438 27.3776C179.558 27.4923 179.693 27.3901 179.808 27.42C179.928 27.4524 180.027 27.5521 180.141 27.612C180.171 27.6269 180.227 27.602 180.272 27.5945C180.403 27.577 180.533 27.5621 180.664 27.5446C180.773 27.6169 180.891 27.6818 180.989 27.764C181.168 27.9136 181.36 27.9709 181.592 27.8986C181.723 27.8587 181.851 27.8737 181.955 27.9709C182.061 28.0707 182.184 28.0607 182.32 28.0408C182.445 28.0208 182.573 27.966 182.701 28.0358C182.979 28.1903 182.981 28.1978 183.309 28.138C183.408 28.1205 183.483 28.1156 183.557 28.1729C183.627 28.2253 183.701 28.2701 183.773 28.32C183.904 28.3025 184.037 28.2851 184.168 28.2651C184.336 28.2377 184.429 28.2726 184.469 28.4122C184.493 28.497 184.504 28.5743 184.562 28.6316C184.632 28.7014 184.706 28.6989 184.808 28.679C184.904 28.6615 184.973 28.6341 185.013 28.5444C185.029 28.507 185.061 28.4721 185.09 28.4421C185.114 28.4197 185.152 28.3848 185.173 28.3898C185.213 28.3998 185.266 28.4272 185.28 28.4596C185.41 28.7612 185.41 28.7638 185.544 28.851C185.69 28.9482 185.842 29.0355 185.976 29.1452C186.096 29.2424 186.216 29.2001 186.346 29.2001C186.445 29.2001 186.509 29.2649 186.501 29.3297C186.496 29.3671 186.458 29.4219 186.426 29.4269C186.165 29.4768 185.901 29.5192 185.637 29.5541C185.605 29.559 185.565 29.5142 185.528 29.4917C185.453 29.4469 185.386 29.377 185.306 29.3621C185.226 29.3471 185.133 29.3845 185.045 29.397C184.957 29.4095 184.864 29.4419 184.784 29.4219C184.704 29.402 184.64 29.3297 184.565 29.2823C184.531 29.2599 184.483 29.2275 184.453 29.235C184.259 29.2948 184.115 29.2125 183.976 29.1028C183.947 29.0804 183.896 29.0654 183.859 29.0704C183.549 29.1128 183.243 29.1626 182.933 29.21C182.808 29.23 182.707 29.1427 182.68 28.9956C182.667 28.9133 182.64 28.8311 182.64 28.7488C182.64 28.5992 182.493 28.5169 182.387 28.5344C182.211 28.5593 182.032 28.5793 181.859 28.6166C181.717 28.6466 181.597 28.6167 181.501 28.5269C181.389 28.4247 181.261 28.4446 181.133 28.4721C181.037 28.492 181.011 28.5743 181.016 28.7812C181.021 28.9482 180.976 29.0006 180.803 29.028C180.584 29.0629 180.363 29.0978 180.141 29.1252C180.107 29.1302 180.067 29.0879 180.032 29.0654C179.958 29.0205 179.891 28.9482 179.811 28.9333C179.731 28.9158 179.638 28.9532 179.55 28.9682C179.462 28.9806 179.368 29.0156 179.288 28.9981C179.208 28.9806 179.142 28.9059 179.07 28.8585C179.035 28.8361 178.992 28.8036 178.958 28.8086C178.782 28.8286 178.606 28.8585 178.43 28.8859C178.232 28.9158 178.232 28.9158 177.952 28.7613C177.824 28.6915 177.696 28.7463 177.571 28.7663C177.438 28.7862 177.312 28.7962 177.208 28.6964C177.139 28.6316 177.062 28.5917 176.979 28.6042C176.758 28.6341 176.539 28.6715 176.318 28.7014C176.28 28.7064 176.23 28.694 176.2 28.6715C176.059 28.5668 175.92 28.4845 175.723 28.5369C175.553 28.5818 175.369 28.5842 175.198 28.6266C175.105 28.6491 175.062 28.7289 175.08 28.7912C175.091 28.8236 175.147 28.861 175.185 28.861C175.27 28.8635 175.363 28.8261 175.443 28.841C175.608 28.871 175.691 29.0804 175.907 29.023C176.035 28.9881 176.168 28.9757 176.302 28.9657C176.336 28.9632 176.374 29.0106 176.411 29.0355C176.518 29.1028 176.611 29.1901 176.766 29.1452C176.894 29.1103 177.03 29.1003 177.16 29.0804C177.368 29.048 177.368 29.0505 177.638 29.2026C177.766 29.2749 177.894 29.2175 178.019 29.2001C178.112 29.1876 178.2 29.1627 178.275 29.1976C178.39 29.2499 178.472 29.3696 178.614 29.3621C178.747 29.3546 178.878 29.3197 179.011 29.3072C179.094 29.2998 179.171 29.3397 179.238 29.407C179.307 29.4743 179.382 29.5042 179.472 29.4892C179.603 29.4693 179.736 29.4444 179.869 29.4319C179.907 29.4294 179.95 29.4518 179.984 29.4718C180.059 29.5167 180.131 29.569 180.203 29.6164C180.333 29.6014 180.467 29.5965 180.595 29.5665C180.693 29.5441 180.763 29.5541 180.843 29.6039C180.944 29.6712 181.027 29.7909 181.192 29.7336C181.275 29.7062 181.371 29.7136 181.453 29.6887C181.555 29.6563 181.624 29.6687 181.696 29.7435C181.832 29.8856 182.003 29.8881 182.179 29.8333C182.371 29.7734 182.515 29.8433 182.659 29.953C182.811 30.0677 182.811 30.0651 182.928 30.3419C182.963 30.4217 183.061 30.4591 183.144 30.4441C183.283 30.4192 183.403 30.4316 183.504 30.5264C183.611 30.6286 183.739 30.6161 183.869 30.5887C184.043 30.5513 184.216 30.5189 184.357 30.6635C184.427 30.7333 184.501 30.7507 184.595 30.7333C184.859 30.6884 185.125 30.661 185.384 30.6062C185.541 30.5713 185.632 30.651 185.738 30.7183C185.882 30.8106 186.04 30.8929 186.04 31.0898C186.04 31.1222 186.077 31.1596 186.109 31.1845C186.178 31.2369 186.253 31.2818 186.325 31.3316C186.432 31.4064 186.536 31.4688 186.682 31.4289C186.81 31.3965 186.946 31.3865 187.077 31.364C187.208 31.3416 187.328 31.3291 187.445 31.4239C187.581 31.5311 187.725 31.6333 187.88 31.7131C187.989 31.7704 188.133 31.6732 188.25 31.7505C188.322 31.7979 188.392 31.8527 188.469 31.8926C188.501 31.91 188.552 31.8976 188.594 31.8926C188.682 31.8826 188.773 31.8751 188.858 31.8502C188.957 31.8228 189.032 31.8278 189.106 31.8851C189.176 31.9375 189.245 32.0098 189.325 32.0247C189.445 32.0472 189.578 31.9474 189.698 32.0621C189.759 32.1195 189.837 32.1743 189.917 32.1918C189.997 32.2092 190.09 32.1718 190.175 32.1743C190.213 32.1743 190.258 32.2142 190.279 32.2466C190.293 32.2641 190.274 32.3114 190.255 32.3364C190.231 32.3663 190.197 32.4062 190.162 32.4112C189.898 32.456 189.634 32.4934 189.37 32.5358C189.213 32.5607 189.213 32.5607 188.896 32.4037C188.821 32.3663 188.738 32.3737 188.645 32.3912C188.52 32.4136 188.392 32.456 188.261 32.4112C188.09 32.2416 187.88 32.2266 187.656 32.2915C187.562 32.3189 187.477 32.3189 187.408 32.2715C187.261 32.1768 187.106 32.0896 186.976 31.9774C186.874 31.8901 186.826 31.8826 186.784 32.0023C186.77 32.0397 186.757 32.0796 186.76 32.1145C186.776 32.2391 186.805 32.3613 186.821 32.4859C186.826 32.5208 186.805 32.5607 186.792 32.5981C186.749 32.7029 186.693 32.6954 186.6 32.6081C186.506 32.5208 186.394 32.4635 186.245 32.5034C186.117 32.5383 185.978 32.5333 185.85 32.5707C185.653 32.6256 185.514 32.5458 185.373 32.4386C185.344 32.4161 185.293 32.4037 185.256 32.4087C184.859 32.466 184.464 32.5308 184.067 32.5882C183.981 32.6006 183.904 32.5632 183.837 32.4959C183.768 32.4286 183.691 32.3937 183.605 32.4062C183.253 32.4585 182.901 32.5059 182.549 32.5707C182.405 32.5981 182.291 32.5657 182.192 32.4785C182.117 32.4136 182.048 32.3937 181.955 32.4012C181.853 32.4087 181.781 32.4336 181.731 32.5059C181.683 32.5757 181.717 32.6181 181.824 32.6729C181.939 32.7328 182.045 32.8101 182.155 32.8799C182.243 32.8699 182.331 32.8499 182.416 32.8524C182.453 32.8524 182.488 32.8973 182.525 32.9222C182.632 32.9945 182.731 33.0668 182.883 33.0269C183.011 32.992 183.147 32.9846 183.277 32.9621C183.459 32.9347 183.459 32.9347 183.752 33.0918C183.827 33.1317 183.907 33.1292 184.003 33.1067C184.085 33.0893 184.171 33.1242 184.229 33.199C184.253 33.2289 184.245 33.2788 184.195 33.4433C184.195 33.5655 184.251 33.5106 184.269 33.4308C184.298 33.3161 184.243 33.2788 184.136 33.3411C184.061 33.386 184.024 33.4508 184.043 33.5031C184.053 33.5306 184.104 33.5655 184.195 33.4433C184.429 33.2937 184.608 33.2762 184.779 33.2364C184.88 33.2139 184.944 33.2239 185.024 33.2887C185.12 33.366 185.216 33.4483 185.373 33.4084C185.544 33.3635 185.725 33.3585 185.898 33.3211C186.058 33.2862 186.141 33.3959 186.242 33.4607C186.365 33.538 186.501 33.4508 186.613 33.4957C186.73 33.5405 186.813 33.6502 186.949 33.6702C187.146 33.6028 187.272 33.7275 187.421 33.8098C187.538 33.8721 187.677 33.8172 187.802 33.7898C187.944 33.7599 188.061 33.7873 188.16 33.8771C188.272 33.9793 188.397 33.9569 188.525 33.9344C188.824 33.8846 188.834 33.8771 189.008 34.0142C189.133 34.1139 189.253 34.0691 189.378 34.0566C189.488 34.1239 189.594 34.1962 189.709 34.256C189.738 34.271 189.794 34.2461 189.839 34.2386C189.97 34.2186 190.103 34.1987 190.234 34.1788C190.322 34.1663 190.415 34.1289 190.495 34.1438C190.575 34.1613 190.642 34.2336 190.714 34.281C190.786 34.3284 190.861 34.3757 190.93 34.4256C191.037 34.5004 191.138 34.5627 191.287 34.5253C191.415 34.4929 191.549 34.4829 191.682 34.4605C191.85 34.4331 191.845 34.4405 192.157 34.5901C192.325 34.6724 192.498 34.5727 192.669 34.5627C192.754 34.5577 192.837 34.5851 192.895 34.6574C192.919 34.6874 192.911 34.7372 192.919 34.7796C192.479 34.8469 192.037 34.9042 191.602 34.9865C191.434 35.0189 191.346 34.9292 191.255 34.8544C191.106 34.7347 190.909 34.9092 190.767 34.7546C190.682 34.6624 190.559 34.6101 190.413 34.6549C190.327 34.6799 190.237 34.6774 190.149 34.6998C189.925 34.7547 189.719 34.7572 189.541 34.5851C189.479 34.5253 189.392 34.4929 189.328 34.4356C189.253 34.3732 189.181 34.3383 189.093 34.3508C188.696 34.4106 188.301 34.4704 187.906 34.5353C187.872 34.5402 187.837 34.5776 187.808 34.6051C187.733 34.6749 187.757 34.7297 187.877 34.7746C187.917 34.7896 187.949 34.822 187.986 34.8469C188.058 34.8943 188.125 34.9691 188.205 34.9865C188.285 35.004 188.378 34.9691 188.466 34.9566C188.554 34.9441 188.648 34.9067 188.728 34.9217C188.808 34.9391 188.874 35.0115 188.949 35.0563C188.984 35.0788 189.026 35.1162 189.061 35.1137C189.237 35.0987 189.41 35.0713 189.586 35.0488C189.695 35.1162 189.789 35.2134 189.919 35.2358C190.002 35.2508 190.09 35.2234 190.175 35.2283C190.213 35.2308 190.261 35.2682 190.279 35.3006C190.29 35.3206 190.255 35.3705 190.229 35.3954C190.127 35.4901 189.989 35.4727 189.863 35.5026C189.728 35.535 189.605 35.525 189.501 35.4278C189.432 35.363 189.354 35.3281 189.269 35.3405C189.048 35.373 188.829 35.4104 188.608 35.4378C188.57 35.4428 188.525 35.4203 188.49 35.4029C188.21 35.2508 188.21 35.2458 188.013 35.2782C187.722 35.3256 187.722 35.3256 187.528 35.1934C187.49 35.1685 187.45 35.1212 187.418 35.1236C187.109 35.1635 186.802 35.2034 186.496 35.2607C186.394 35.2782 186.325 35.2782 186.25 35.2134C186.186 35.1586 186.112 35.0962 186.032 35.0813C185.949 35.0663 185.858 35.1037 185.77 35.1162C185.682 35.1286 185.589 35.161 185.512 35.1411C185.432 35.1211 185.362 35.0513 185.293 35.0015C185.221 34.9491 185.144 34.9516 185.045 34.9715C184.741 35.0289 184.738 35.0214 184.437 34.8669C184.403 34.8494 184.357 34.8295 184.32 34.8344C184.099 34.8644 183.88 34.9018 183.659 34.9317C183.573 34.9441 183.491 34.9117 183.432 34.8394C183.408 34.8095 183.416 34.7596 183.4 34.6624C183.381 34.64 183.403 34.6799 183.408 34.7173C183.448 34.7123 183.496 34.7173 183.525 34.6973C183.6 34.6499 183.637 34.5876 183.619 34.5353C183.608 34.5078 183.557 34.4729 183.525 34.4729C183.467 34.4729 183.416 34.5278 183.4 34.6624C183.232 34.7447 183.053 34.7621 182.88 34.802C182.779 34.827 182.715 34.8145 182.635 34.7497C182.539 34.6699 182.44 34.5926 182.283 34.6325C182.112 34.6774 181.931 34.6849 181.755 34.7198C181.552 34.7597 181.464 34.5353 181.293 34.5402C181.117 34.5452 180.941 34.5876 180.765 34.6175C180.611 34.6425 180.611 34.6425 180.291 34.4804C180.173 34.4206 180.035 34.5078 179.92 34.4455C179.843 34.4056 179.776 34.3458 179.702 34.3034C179.67 34.286 179.619 34.2859 179.579 34.2909C179.358 34.3209 179.134 34.3408 178.92 34.3957C178.678 34.4605 178.494 34.3907 178.32 34.2436C178.102 34.271 177.88 34.286 177.664 34.3333C177.507 34.3682 177.416 34.286 177.31 34.2187C177.272 34.1962 177.24 34.1588 177.2 34.1488C177.16 34.1389 177.112 34.1588 177.07 34.1663C176.894 34.1937 176.712 34.2062 176.542 34.2511C176.331 34.3084 176.251 34.104 176.088 34.079C175.979 34.2012 175.92 34.3682 175.704 34.3807C175.528 34.3907 175.353 34.4306 175.177 34.458C175.089 34.4704 175.001 34.4854 174.913 34.4979C174.771 34.5203 174.705 34.6175 174.734 34.7671C174.75 34.8494 174.763 34.9317 174.777 35.0139C174.803 35.161 174.737 35.2857 174.625 35.3031C174.315 35.3505 174.009 35.4004 173.699 35.4427C173.617 35.4552 173.537 35.4128 173.47 35.3455C173.401 35.2782 173.323 35.2483 173.238 35.2607C172.929 35.3081 172.622 35.358 172.313 35.4004C172.278 35.4054 172.233 35.3804 172.198 35.3605C172.123 35.3156 172.051 35.2633 171.979 35.2159C171.803 35.2383 171.63 35.2533 171.457 35.2832C171.177 35.3281 171.177 35.3306 170.971 35.1934C170.934 35.1685 170.897 35.1212 170.862 35.1236C170.729 35.1336 170.598 35.1585 170.465 35.181C170.073 35.2458 170.073 35.2458 169.958 35.171C169.854 35.1012 169.761 35.0164 169.604 35.0563C169.433 35.1012 169.252 35.1162 169.076 35.1411C168.945 35.1585 168.814 35.1785 168.684 35.1835C168.649 35.186 168.612 35.1386 168.574 35.1137C168.468 35.0364 168.364 34.974 168.217 35.0164C168.132 35.0414 168.041 35.0464 167.953 35.0588C167.724 35.0937 167.724 35.0937 167.348 34.9441C167.31 34.9292 167.265 34.9117 167.228 34.9192C166.918 34.9641 166.612 35.0139 166.302 35.0563C166.265 35.0613 166.22 35.0463 166.182 35.0339C165.761 34.8893 165.761 34.8893 165.313 34.9591C165.143 34.984 165.137 34.994 164.959 34.8619C164.879 34.8045 164.812 34.7771 164.719 34.7945C164.367 34.8544 164.012 34.8943 163.663 34.9641C163.505 34.994 163.415 34.9192 163.308 34.8519C163.271 34.8294 163.231 34.7796 163.199 34.7821C162.847 34.8295 162.495 34.8868 162.143 34.9342C162.111 34.9392 162.071 34.8893 162.033 34.8669C161.961 34.822 161.892 34.7547 161.812 34.7397C161.729 34.7247 161.639 34.7621 161.548 34.7746C161.327 34.807 161.327 34.8045 161.071 34.6574C161.036 34.6375 160.991 34.6101 160.956 34.615C160.604 34.6649 160.25 34.7073 159.9 34.7796C159.7 34.8195 159.564 34.7472 159.423 34.6425C159.394 34.62 159.343 34.6101 159.306 34.615C158.908 34.6724 158.514 34.7372 158.116 34.7945C158.034 34.807 157.954 34.7646 157.887 34.6998C157.78 34.5976 157.655 34.6101 157.522 34.6325C157.215 34.6848 157.212 34.6824 157.031 34.5627C156.994 34.5378 156.962 34.5054 156.922 34.4929C156.884 34.4804 156.837 34.4879 156.796 34.4929C156.621 34.5178 156.445 34.5452 156.269 34.5727C156.093 34.6001 155.914 34.6151 155.741 34.6574C155.527 34.7098 155.426 34.5477 155.277 34.4729C155.058 34.5053 154.834 34.5253 154.618 34.5776C154.453 34.6175 154.375 34.5078 154.266 34.4505C154.229 34.4305 154.189 34.3882 154.154 34.3932C153.757 34.448 153.359 34.5078 152.965 34.5751C152.869 34.5901 152.805 34.5702 152.725 34.5103C152.546 34.3757 152.538 34.3807 152.239 34.4306C152.109 34.453 151.983 34.4729 151.871 34.3707C151.773 34.2785 151.653 34.256 151.512 34.2859C151.338 34.3233 151.16 34.3433 150.984 34.3682C150.808 34.3957 150.632 34.433 150.456 34.4455C150.314 34.458 150.229 34.3408 150.117 34.281C150.082 34.2635 150.034 34.261 149.994 34.266C149.818 34.2884 149.637 34.3059 149.466 34.3483C149.258 34.4006 149.144 34.2635 148.997 34.1837C148.965 34.1663 148.912 34.1763 148.872 34.1837C148.562 34.2286 148.256 34.2785 147.946 34.3258C147.837 34.2585 147.725 34.1937 147.616 34.1264C147.44 34.1513 147.264 34.1787 147.088 34.2037C146.954 34.2236 146.818 34.2311 146.693 34.2685C146.531 34.3184 146.451 34.2012 146.341 34.1438C146.304 34.1239 146.264 34.0815 146.229 34.0865C146.008 34.1139 145.787 34.1439 145.568 34.1862C145.36 34.2286 145.277 34.0042 145.107 34.0067C144.931 34.0092 144.749 34.0416 144.579 34.0865C144.381 34.1389 144.243 34.0591 144.101 33.9519C144.072 33.9294 144.021 33.917 143.984 33.922C143.763 33.9519 143.544 33.9893 143.323 34.0192C143.285 34.0242 143.24 34.0117 143.203 33.9968C142.781 33.8497 142.781 33.8472 142.598 33.8771C142.467 33.897 142.334 33.922 142.2 33.9344C142.163 33.9394 142.117 33.917 142.083 33.897C141.806 33.745 141.805 33.7425 141.606 33.7724C141.43 33.7998 141.254 33.8272 141.078 33.8546C140.968 33.7873 140.856 33.7225 140.747 33.6552C140.528 33.6876 140.304 33.7125 140.088 33.7574C139.987 33.7774 139.92 33.7699 139.843 33.7076C139.747 33.6328 139.651 33.5455 139.491 33.5879C139.32 33.6328 139.139 33.6377 138.966 33.6751C138.758 33.72 138.672 33.4932 138.504 33.4957C138.328 33.4981 138.147 33.5305 137.976 33.5754C137.779 33.6278 137.64 33.548 137.499 33.4408C137.47 33.4184 137.419 33.4059 137.382 33.4109C136.897 33.4832 136.414 33.5555 135.929 33.6328C135.63 33.6801 135.63 33.6826 135.062 33.5455C135.022 33.5355 134.979 33.5256 134.939 33.5306C134.763 33.553 134.582 33.5704 134.411 33.6128C134.203 33.6652 134.089 33.5305 133.942 33.4483C133.91 33.4308 133.859 33.4408 133.817 33.4458C133.683 33.4632 133.553 33.4857 133.419 33.5056C133.243 33.5331 133.067 33.5605 132.891 33.5879C132.782 33.5231 132.67 33.4557 132.561 33.3909C132.342 33.4233 132.118 33.4408 131.902 33.4932C131.737 33.533 131.66 33.4283 131.55 33.3685C131.513 33.3486 131.473 33.3062 131.438 33.3087C131.041 33.3635 130.644 33.4209 130.249 33.4907C130.086 33.5206 130.012 33.4084 129.902 33.351C129.865 33.3336 129.822 33.3012 129.788 33.3062C129.524 33.3411 129.26 33.3835 128.996 33.4258C128.846 33.4508 128.846 33.4508 128.521 33.2962C128.484 33.2787 128.441 33.2613 128.404 33.2663C127.567 33.3909 126.732 33.5231 125.895 33.6477C125.809 33.6602 125.732 33.6228 125.665 33.5555C125.596 33.4882 125.519 33.4533 125.433 33.4657C125.081 33.5181 124.727 33.5655 124.377 33.6303C124.233 33.6577 124.119 33.6253 124.02 33.538C123.945 33.4732 123.876 33.4483 123.783 33.4632C123.607 33.4932 123.431 33.5181 123.255 33.5455C123.079 33.5729 122.903 33.6004 122.727 33.6278C122.551 33.6552 122.372 33.6702 122.199 33.7125C121.986 33.7649 121.882 33.6103 121.735 33.5331C121.471 33.5704 121.207 33.6078 120.946 33.6477C120.594 33.7001 120.242 33.7574 119.89 33.8073C119.858 33.8123 119.818 33.7674 119.78 33.745C119.671 33.6826 119.591 33.5954 119.428 33.6228C118.639 33.7549 117.845 33.8671 117.053 33.9968C116.887 34.0242 116.815 33.917 116.703 33.8596C116.666 33.8422 116.623 33.8073 116.589 33.8123C116.149 33.8746 115.709 33.9444 115.269 34.0117C115.09 34.0391 115.09 34.0391 114.791 33.8846C114.757 33.8671 114.711 33.8447 114.674 33.8497C114.101 33.9344 113.53 34.0242 112.957 34.1114C112.872 34.1239 112.794 34.089 112.725 34.0217C112.658 33.9544 112.578 33.917 112.496 33.9294C111.968 34.0092 111.437 34.0865 110.912 34.1738C110.77 34.1987 110.653 34.1763 110.552 34.0865C110.48 34.0217 110.408 33.9943 110.317 34.0092C109.525 34.1314 108.733 34.2486 107.941 34.3782C107.789 34.4031 107.683 34.3558 107.587 34.2735C107.509 34.2087 107.443 34.1962 107.347 34.2062C107.245 34.2186 107.184 34.2461 107.128 34.3209C107.056 34.4181 107.011 34.5402 106.84 34.5477C106.664 34.5552 106.485 34.5851 106.312 34.6275C106.147 34.6699 106.069 34.5577 105.965 34.4904C105.888 34.443 105.816 34.4355 105.717 34.458C105.627 34.4779 105.571 34.5203 105.517 34.6001C105.4 34.7696 105.389 34.7696 105.245 34.6624C105.168 34.6051 105.099 34.5602 105.013 34.5702C104.661 34.62 104.31 34.6749 103.958 34.7322C103.755 34.7646 103.752 34.7696 103.6 34.645C103.526 34.5826 103.454 34.5527 103.366 34.5677C102.398 34.7173 101.43 34.8619 100.462 35.0189C100.312 35.0439 100.211 34.9915 100.104 34.9167C100.07 34.8918 100.035 34.8569 99.9952 34.8469C99.9552 34.8369 99.9099 34.8469 99.8672 34.8519C99.1632 34.9591 98.4566 35.0613 97.7553 35.181C97.5953 35.2084 97.51 35.1286 97.4007 35.0638C97.3634 35.0414 97.3313 35.0065 97.2913 34.9965C97.2513 34.989 97.2033 35.0065 97.1607 35.0139C96.4567 35.1211 95.7501 35.2234 95.0488 35.343C94.8809 35.3705 94.8088 35.2658 94.6995 35.2109C94.6622 35.191 94.6222 35.1535 94.5875 35.1585C94.3662 35.186 94.1476 35.2234 93.9263 35.2558C93.3983 35.338 92.8703 35.4153 92.3423 35.5001C92.1397 35.5325 92.0517 35.3106 91.881 35.3206C91.6597 35.333 91.4411 35.3829 91.2198 35.4178C91.0438 35.4452 90.8678 35.4702 90.6918 35.5001C90.5185 35.5275 90.5185 35.5275 90.0865 35.3829C90.0492 35.3704 90.0039 35.353 89.9665 35.358C89.3506 35.4502 88.732 35.5425 88.1187 35.6422C87.9773 35.6646 87.86 35.6522 87.7587 35.5599C87.6867 35.4951 87.612 35.4627 87.5241 35.4776C86.5988 35.6198 85.6761 35.7619 84.7509 35.9015C84.7162 35.9065 84.6709 35.8815 84.6362 35.8616C84.5616 35.8167 84.4896 35.7644 84.4176 35.717C84.3642 35.7743 84.295 35.8267 84.2603 35.8915C84.2123 35.9788 84.1483 36.0037 84.047 36.0187C83.9456 36.0336 83.8817 36.0286 83.8017 35.9638C83.7057 35.884 83.607 35.8217 83.4497 35.8466C82.4817 36.0037 81.5138 36.1458 80.5458 36.3004C80.3858 36.3253 80.3112 36.2156 80.1992 36.1583C80.1619 36.1408 80.1192 36.1134 80.0845 36.1184C79.6872 36.1757 79.2926 36.2381 78.8953 36.2979C77.794 36.4674 76.6928 36.6295 75.5942 36.809C75.3942 36.8414 75.2582 36.7791 75.1169 36.6719C75.0876 36.6494 75.0369 36.6369 74.9996 36.6419C73.4584 36.8763 71.9171 37.1131 70.3786 37.35C70.2959 37.3624 70.2159 37.3225 70.1492 37.2577C70.0799 37.1904 70.0026 37.158 69.9173 37.1705C69.2133 37.2777 68.5094 37.3849 67.8055 37.4946C67.6295 37.522 67.6268 37.5245 67.4455 37.4048C67.4081 37.3799 67.3682 37.3325 67.3388 37.3375C67.2775 37.35 67.2188 37.4123 67.1761 37.497C67.1335 37.5868 67.0668 37.6117 66.9681 37.6292C66.8668 37.6466 66.8002 37.6392 66.7229 37.5793C66.6242 37.5045 66.5335 37.4323 66.3735 37.4572C64.3497 37.7763 62.3258 38.0829 60.302 38.3995C60.1393 38.4245 60.0646 38.3198 59.9526 38.2624C59.9153 38.245 59.878 38.22 59.838 38.2151C59.7953 38.2101 59.75 38.2251 59.7073 38.2325C56.4062 38.7386 53.1052 39.2472 49.8041 39.7533C49.6067 39.7832 49.6094 39.7832 49.3934 40.0126C49.3667 40.04 49.3321 40.0774 49.2947 40.0824C48.2841 40.2419 47.2709 40.3965 46.2576 40.5511C45.8177 40.6184 45.3777 40.6882 44.9377 40.753C44.7804 40.7755 44.7804 40.7755 44.4044 41.0447C44.3724 41.0672 44.3351 41.0971 44.2977 41.1021C42.5379 41.3738 40.778 41.6456 39.0154 41.9123C38.8768 41.9323 38.7648 41.9772 38.7008 42.0968C38.6555 42.1816 38.5968 42.2314 38.5088 42.2464C37.2769 42.4359 36.045 42.6279 34.8105 42.8123C34.6638 42.8348 34.5758 42.9046 34.5038 43.0093C34.4798 43.0442 34.4584 43.0841 34.4238 43.109C34.3918 43.1314 34.3438 43.1389 34.3038 43.1464C33.2479 43.3085 32.192 43.4755 31.1334 43.6301C30.9761 43.6525 30.912 43.7448 30.8347 43.842C30.808 43.8744 30.7894 43.9193 30.7547 43.9417C30.72 43.9617 30.6694 43.9617 30.6267 43.9666C29.7468 44.1013 28.8669 44.2384 27.9869 44.373C27.8163 44.3606 27.7789 44.5052 27.6963 44.5924C27.6669 44.6223 27.6456 44.6622 27.611 44.6822C27.5736 44.7021 27.5256 44.6996 27.4803 44.7046C26.7763 44.8118 26.0724 44.9265 25.3658 45.0262C25.2031 45.0486 25.1711 45.1758 25.0831 45.263C25.0538 45.2905 25.0245 45.3329 24.9898 45.3403C24.5498 45.4126 24.1099 45.4799 23.6699 45.5448C23.5233 45.5672 23.5232 45.5647 23.2646 45.8115C23.2353 45.839 23.2006 45.8689 23.1632 45.8764C22.5046 45.9811 21.8433 46.0808 21.1821 46.183C21.0967 46.1955 21.0381 46.2553 20.9954 46.3401C20.9528 46.4248 20.8914 46.4797 20.8061 46.4921C20.2782 46.5744 19.7501 46.6592 19.2222 46.734C19.0755 46.7539 18.9796 46.8163 18.9156 46.9284C18.8676 47.0132 18.8089 47.0556 18.7156 47.0705C18.1876 47.1503 17.6597 47.2376 17.129 47.3074C16.9744 47.3273 16.8943 47.4121 16.8304 47.5168C16.7797 47.6016 16.721 47.6315 16.6224 47.6465C15.6544 47.7911 14.6839 47.9356 13.7186 48.0952C13.5559 48.1226 13.4733 48.0354 13.3666 47.973C13.2146 47.8858 13.0733 47.791 13.0733 47.5966C13.0733 47.5667 13.028 47.5318 12.996 47.5068C12.7587 47.3198 12.7587 47.3199 12.7213 47.1204C12.7 46.9983 12.676 46.8736 12.6573 46.7489C12.6227 46.5445 12.5373 46.4922 12.292 46.5296C12.204 46.542 12.116 46.5594 12.028 46.5694C11.8974 46.5869 11.7987 46.5046 11.7747 46.355C11.7614 46.2727 11.7454 46.1905 11.7321 46.1082C11.8654 46.0883 11.8627 46.0858 12.0974 45.7841C12.196 45.657 12.1961 45.657 12.0067 45.5298C11.9347 45.4825 11.8654 45.4301 11.7881 45.3852C11.7534 45.3653 11.7081 45.3528 11.6708 45.3578C11.4494 45.3877 11.2308 45.4226 11.0121 45.4575C10.6602 45.5124 10.6601 45.5123 10.3028 45.258C10.2735 45.2381 10.2282 45.2007 10.2335 45.1808C10.2628 45.0885 10.3348 45.0486 10.4255 45.0387C10.5588 45.0237 10.6894 44.9988 10.8201 44.9788C10.9081 44.9664 10.9961 44.9514 11.0841 44.939C11.1667 44.8442 11.2521 44.752 11.3294 44.6547C11.4521 44.5052 11.4521 44.5002 11.2841 44.3955C11.1774 44.3256 11.0627 44.2633 10.9534 44.1985C10.8228 44.2184 10.6894 44.2409 10.5588 44.2583C10.3935 44.2808 10.3268 44.2334 10.2841 44.0713C10.2468 43.9292 10.2921 43.8071 10.4201 43.7772C10.5508 43.7472 10.6735 43.7273 10.7402 43.6002C10.8042 43.478 10.9161 43.4306 11.0548 43.4206C11.1428 43.4132 11.2308 43.3957 11.3188 43.3808C11.4334 43.3608 11.4948 43.2337 11.4708 43.0916C11.4574 42.9993 11.4308 42.922 11.3268 42.9021C10.8655 42.8148 10.8601 42.8173 10.6308 42.6478C10.6095 42.6328 10.5935 42.588 10.6015 42.5655C10.6148 42.5281 10.6442 42.4733 10.6762 42.4658C10.9828 42.4109 11.2894 42.3611 11.5961 42.3237C11.6974 42.3112 11.7721 42.2938 11.8067 42.2015C11.8547 42.0744 11.8334 41.9572 11.7401 41.8699C11.7108 41.8425 11.6627 41.8076 11.6307 41.8101C11.2787 41.855 10.9294 41.9123 10.5775 41.9572C10.5455 41.9622 10.4868 41.9198 10.4735 41.8874C10.4468 41.8276 10.4868 41.7478 10.5801 41.7204C10.7028 41.683 10.8281 41.6805 10.9108 41.5558C11.0254 41.3788 11.1667 41.2168 11.2947 41.0472C11.3161 41.0173 11.3508 40.96 11.3428 40.955C11.2761 40.9001 11.1988 40.8577 11.1295 40.8054C11.0121 40.7181 11.0121 40.596 11.0388 40.4788C11.0601 40.3841 11.1401 40.3467 11.2388 40.3467C11.2814 40.3467 11.3347 40.3467 11.3694 40.3242C11.4601 40.2694 11.4894 40.1996 11.4441 40.1472C11.4174 40.1173 11.3694 40.0749 11.3374 40.0799C10.7668 40.1622 10.1935 40.242 9.62552 40.3442C9.45753 40.3741 9.38026 40.2793 9.27893 40.212C9.2016 40.1597 9.12957 40.1397 9.03357 40.1771C8.94291 40.212 8.85495 40.1921 8.79895 40.1098C8.75362 40.0425 8.8336 39.9852 9.04959 39.9204C9.08958 39.9079 9.1349 39.9004 9.16423 39.8755C9.47354 39.6062 9.47353 39.6037 9.68685 39.5688C9.89483 39.5364 9.89488 39.5339 10.0042 39.3893C10.0549 39.322 10.1108 39.2547 10.1588 39.1849C10.1775 39.1575 10.2095 39.1076 10.1989 39.0926C10.1402 39.0154 10.0602 38.9979 9.96684 39.0154C9.75885 39.0577 9.51358 39.0228 9.40425 39.2597C9.36159 39.3494 9.29492 39.3744 9.19893 39.3893C8.23366 39.5339 7.26836 39.6885 6.30043 39.8281C6.14311 39.8506 6.07116 39.9428 6.00983 40.045C5.9565 40.1298 5.89782 40.1547 5.7965 40.1697C5.69517 40.1846 5.61514 40.1921 5.55648 40.1098C5.52181 40.06 5.55115 39.9902 5.63114 39.9204C5.7458 39.8206 5.72446 39.696 5.68713 39.5788C5.66046 39.5015 5.57781 39.4467 5.48981 39.4517C5.35916 39.4616 5.23386 39.4891 5.12454 39.3893C5.06054 39.332 4.98053 39.2921 4.90854 39.2422C4.76988 39.14 4.63122 39.0353 4.43657 39.1026C4.30324 39.0777 4.20992 38.9879 4.10326 38.9181C3.9246 38.8034 3.9086 38.786 4.0366 38.6638C4.18059 38.5267 4.06857 38.3472 4.14857 38.2126C4.23389 38.068 4.35126 37.9408 4.45525 37.8062C4.48192 37.7713 4.50592 37.7389 4.53259 37.704C4.47126 37.6541 4.41527 37.5918 4.34328 37.5569C4.24995 37.512 4.20195 37.4572 4.20729 37.3026C4.18862 37.2802 4.19657 37.3375 4.2179 37.3525C4.2419 37.3674 4.3006 37.355 4.32993 37.3375C4.4046 37.2901 4.44189 37.2278 4.42322 37.1755C4.41256 37.148 4.36193 37.1131 4.32993 37.1131C4.27127 37.1131 4.22062 37.168 4.20462 37.3026C3.90597 37.4048 3.59661 37.4547 3.2873 37.4946C3.2553 37.4996 3.21533 37.4497 3.178 37.4248C3.05534 37.34 3.05532 37.3425 2.69535 37.3176C2.65802 37.3151 2.60738 37.2802 2.58872 37.2453C2.51139 37.0932 2.51408 36.9261 2.47674 36.7641C2.54607 36.6594 2.61535 36.5572 2.68734 36.455C2.83133 36.248 3.01803 36.066 3.13002 35.8392C3.10602 35.717 3.07402 35.5948 3.19134 35.4951C3.52465 35.3705 3.52201 35.3705 3.61267 35.2508C3.87132 34.9117 4.12728 34.5702 4.3966 34.2361C4.46859 34.1488 4.4686 34.1015 4.34061 34.0641C4.30061 34.0541 4.25789 34.0516 4.21523 34.0566C4.0819 34.074 3.94858 34.1189 3.81793 34.1089C3.68727 34.1015 3.59128 33.9918 3.48462 33.9245C3.37529 33.8546 3.26597 33.7824 3.15664 33.7101C3.03132 33.7175 2.90602 33.7873 2.78069 33.6751C2.6847 33.5879 2.56472 33.5256 2.45539 33.4533C2.53805 33.2638 2.69273 33.1192 2.81272 32.9521C2.92205 32.8001 2.92466 32.8026 3.21797 32.6854C3.35663 32.6305 3.40462 32.3488 3.2873 32.2665C3.14598 32.1668 2.99668 32.0746 2.85269 31.9798C2.72737 31.9873 2.59941 32.0546 2.47941 31.9425C2.38609 31.8577 2.27941 31.8003 2.12475 31.8327C1.86344 31.8876 1.5968 31.915 1.33282 31.9599C1.24215 31.9749 1.14347 31.9649 1.10347 31.8801C1.0768 31.8203 1.15414 31.738 1.24213 31.7206C1.37546 31.6956 1.49543 31.6657 1.5621 31.5411C1.62609 31.4164 1.7434 31.379 1.88206 31.3615C1.91939 31.3566 1.96209 31.3266 1.98075 31.2967C2.07674 31.1521 2.18341 31.0275 2.38873 31.0325C2.47406 30.9826 2.51936 30.9203 2.49269 30.8604C2.4767 30.828 2.42073 30.7857 2.38873 30.7907C2.16741 30.8156 1.9461 30.8405 1.73012 30.8854C1.62879 30.9053 1.55142 30.9103 1.48743 30.8355C1.4421 30.7856 1.46609 30.7183 1.55142 30.646C1.62608 30.5837 1.64744 30.5114 1.6421 30.4266C1.62877 30.2297 1.54876 30.1723 1.29278 30.1848C1.10879 30.1948 1.06346 30.1624 1.02346 29.9928C1.0128 29.953 0.986178 29.8981 1.00484 29.8707C1.1195 29.7012 1.19417 29.4917 1.41015 29.412C1.49548 29.382 1.5861 29.382 1.63943 29.3172C1.69276 29.2524 1.74078 29.1776 1.79678 29.1153C1.86611 29.0405 1.91406 28.9707 1.88206 28.9233C1.82873 28.8386 1.74343 28.8311 1.64477 28.861C1.55945 28.8859 1.46879 28.8884 1.38079 28.9034C1.22347 28.9308 1.09551 28.866 1.07684 28.7563C1.02618 28.4671 0.972835 28.1804 0.927505 27.8912C0.922172 27.8563 0.935468 27.8114 0.9568 27.7815C1.03146 27.6768 1.11149 27.577 1.18881 27.4748C1.27948 27.3576 1.42349 27.3801 1.54615 27.3577C1.71947 27.3252 1.71941 27.3277 1.95139 27.0884C2.04205 26.9936 2.19938 27.0311 2.29271 26.9463C2.32204 26.9189 2.36737 26.874 2.35937 26.8491C2.3487 26.8166 2.2954 26.7917 2.25541 26.7767C2.21808 26.7618 2.17276 26.7543 2.13276 26.7618C1.64746 26.8341 1.16484 26.9114 0.679541 26.9812C0.59688 26.9937 0.506217 26.9388 0.476886 26.8615C0.447555 26.7892 0.455528 26.702 0.450195 26.6197C0.527523 26.5175 0.615483 26.4227 0.682145 26.313C0.732808 26.2283 0.791481 26.1909 0.892807 26.1859C1.02613 26.1784 1.1568 26.1485 1.30612 26.1261C1.58344 25.7621 1.8554 25.3806 2.15405 25.0166C2.27404 24.8695 2.24475 24.7199 2.26875 24.5629C2.29275 24.4183 2.47139 24.4407 2.59139 24.3984C2.68738 24.3635 2.71933 24.2837 2.682 24.2288C2.66067 24.1964 2.6127 24.159 2.57537 24.159C2.48738 24.159 2.39939 24.1814 2.31139 24.1939C2.2234 24.2064 2.12208 24.1989 2.05008 24.2413C1.98075 24.2812 1.9354 24.3659 1.89007 24.4382C1.8394 24.518 1.77279 24.5454 1.67146 24.5504C1.54081 24.5554 1.41016 24.5778 1.2795 24.5953C1.13551 24.4981 0.986155 24.4033 0.847498 24.3011C0.820833 24.2812 0.815472 24.2238 0.818138 24.1864C0.823471 24.0892 0.783484 24.0294 0.69549 23.982C0.620829 23.9421 0.559495 23.8848 0.490166 23.8349C0.543496 23.7676 0.602179 23.7028 0.644843 23.6305C0.73817 23.4784 0.855508 23.3687 1.05816 23.3737C1.13815 23.2765 1.20213 23.1568 1.30612 23.0895C1.40478 23.0247 1.57278 23.0895 1.64744 22.9424C1.68477 22.8701 1.7408 22.7878 1.81279 22.7579C1.92745 22.7105 2.07677 22.7355 2.14344 22.5959C2.18343 22.5161 2.24207 22.4438 2.3194 22.4238C2.40739 22.4014 2.49803 22.3964 2.56203 22.349C2.59669 22.3241 2.63403 22.2842 2.63403 22.2493C2.63403 22.2269 2.58074 22.192 2.54341 22.177C2.50874 22.1595 2.46336 22.1471 2.42336 22.1521C2.29004 22.167 2.15938 22.1945 2.02606 22.2094C1.98873 22.2144 1.94608 22.1969 1.90608 22.182C1.78876 22.1421 1.79674 22.0922 1.89007 22.0025C1.98339 21.9152 2.05009 21.803 2.12742 21.7008C2.21275 21.6834 2.31939 21.6908 2.37805 21.6435C2.47671 21.5662 2.54602 21.454 2.62602 21.3568C2.71401 21.3418 2.80467 21.3368 2.88733 21.3094C2.92199 21.2994 2.938 21.2446 2.96733 21.2122C3.02066 21.1498 3.06603 21.0601 3.13803 21.0302C3.25535 20.9853 3.39934 21.0028 3.46867 20.8656C3.50866 20.7859 3.56997 20.7011 3.64463 20.6961C3.85262 20.6861 3.94061 20.549 4.04727 20.4194C4.12727 20.3221 4.29793 20.372 4.38592 20.2748C4.44458 20.2124 4.48727 20.1351 4.54593 20.0753C4.56993 20.0504 4.62058 20.0379 4.66057 20.0304C4.87923 19.9931 5.10054 19.9656 5.31919 19.9257C5.35385 19.9182 5.38588 19.8809 5.41254 19.851C5.46854 19.7861 5.50316 19.6964 5.57249 19.654C5.64182 19.6116 5.74046 19.6116 5.82579 19.5991C6.10044 19.5618 6.12179 19.5717 6.24712 19.3598C6.34844 19.1878 6.59646 19.3099 6.67912 19.1205C6.72711 19.0108 6.81507 18.921 6.97239 18.9086C7.19371 18.8911 7.41235 18.8437 7.63367 18.8113C7.83099 18.7814 7.82833 18.7814 8.04165 18.5495C8.13764 18.4448 8.279 18.4598 8.40432 18.4399C8.53764 18.4199 8.66029 18.39 8.72429 18.2654C8.78828 18.1432 8.90559 18.1033 9.04158 18.0858C9.1669 18.0684 9.30826 18.0809 9.40692 17.9811C9.6469 17.7418 9.64424 17.7393 9.81223 17.7144C10.0762 17.6745 10.3402 17.6346 10.6042 17.5922C10.7802 17.5648 10.9641 17.5598 11.1295 17.5049C11.2494 17.4651 11.3028 17.3254 11.3801 17.2282C11.5987 17.1908 11.8174 17.1534 12.036 17.1185C12.3427 17.0686 12.652 17.0238 12.9613 16.9764C13.0946 16.8817 13.1133 16.6722 13.3373 16.6623C13.4706 16.6573 13.6013 16.6249 13.7346 16.6049C13.9559 16.57 14.1746 16.5252 14.3959 16.5077C14.5639 16.4952 14.5932 16.3606 14.6812 16.2758C14.7105 16.2459 14.7372 16.2036 14.7718 16.1961C15.1185 16.1263 15.4758 16.1113 15.8144 16.0091C15.8491 15.9991 15.8811 15.9468 15.8891 15.9094C15.8944 15.8894 15.8491 15.852 15.8197 15.8346C15.7851 15.8146 15.7398 15.7947 15.7024 15.7997C14.6012 15.9667 13.5 16.1363 12.3987 16.3033C12.244 16.3282 12.244 16.3257 11.8681 16.6C11.8361 16.6224 11.7987 16.6473 11.7587 16.6548C11.5827 16.6847 11.4041 16.7022 11.2307 16.7396C11.0894 16.7695 10.9721 16.7396 10.8708 16.6498C10.7988 16.585 10.7241 16.565 10.6335 16.57C10.5321 16.5775 10.4655 16.6049 10.4068 16.6723C10.3295 16.7645 10.2895 16.8842 10.1269 16.9091C9.37757 17.0163 8.62825 17.136 7.88164 17.2506C7.77764 17.2157 7.72699 17.1634 7.75365 17.1011C7.76965 17.0637 7.80166 17.0138 7.83366 17.0088C8.1403 16.9565 8.4496 16.9116 8.75625 16.8617C8.79891 16.8543 8.85757 16.8592 8.88157 16.8343C8.99889 16.7221 9.0416 16.5401 9.26292 16.5276C9.39091 16.5202 9.52155 16.4828 9.64421 16.4479C9.67887 16.4379 9.71088 16.3855 9.71888 16.3481C9.72154 16.3282 9.67887 16.2908 9.64688 16.2733C9.52955 16.201 9.39359 16.2883 9.27626 16.2385C9.23627 16.221 9.18023 16.1961 9.17223 16.1662C9.1669 16.1387 9.21224 16.0938 9.24424 16.0664C9.27357 16.0415 9.31354 16.0191 9.35354 16.0116C9.70551 15.9542 10.0575 15.8944 10.4095 15.8495C10.5535 15.8321 10.6548 15.7697 10.7188 15.6551C10.7668 15.5703 10.8255 15.5254 10.9161 15.513C11.5321 15.4207 12.148 15.3185 12.7666 15.2337C12.9213 15.2138 13.0013 15.1315 13.0653 15.0243C13.116 14.9396 13.1747 14.9096 13.2733 14.8947C14.1559 14.765 15.0332 14.6204 15.9158 14.4958C16.0784 14.4734 16.1264 14.3661 16.2091 14.2739C16.2384 14.2415 16.2571 14.2016 16.2944 14.1817C16.3317 14.1617 16.3797 14.1642 16.425 14.1592C17.129 14.052 17.833 13.9373 18.5396 13.8376C18.7049 13.8152 18.7369 13.6905 18.8222 13.6032C18.8515 13.5758 18.8782 13.531 18.9129 13.5235C19.4408 13.4387 19.9688 13.3589 20.4968 13.2767C20.8487 13.2218 21.2007 13.167 21.5527 13.1146C21.726 13.0897 21.726 13.0872 21.9607 12.8503C21.9873 12.8229 22.0247 12.7905 22.0593 12.783C23.0726 12.6235 24.0832 12.4714 25.0964 12.3143C25.1818 12.3019 25.2431 12.2445 25.2857 12.1597C25.3284 12.075 25.3898 12.0176 25.4725 12.0052C26.2644 11.8805 27.0563 11.7584 27.8509 11.6412C27.9949 11.6212 28.0962 11.5614 28.1602 11.4492C28.2082 11.3644 28.2669 11.3196 28.3575 11.3071C29.1495 11.1874 29.9415 11.0603 30.7361 10.9456C30.8881 10.9232 30.9627 10.8384 31.0374 10.7387C31.064 10.7038 31.0854 10.6464 31.1174 10.6415C31.512 10.5716 31.904 10.4993 32.3013 10.452C32.4666 10.432 32.5226 10.3273 32.5893 10.2276C32.6426 10.1478 32.7039 10.1204 32.8053 10.1104C33.0266 10.088 33.2452 10.0456 33.4612 10.0032C33.4932 9.99576 33.5332 9.9409 33.5359 9.906C33.5412 9.84118 33.4799 9.7963 33.3785 9.77386C32.3226 9.93591 31.264 10.0979 30.2081 10.26C30.0348 10.2874 30.0348 10.2874 29.8001 10.5243C29.7735 10.5517 29.7361 10.5841 29.6988 10.5916C28.6855 10.7487 27.6749 10.9032 26.6617 11.0603C26.5764 11.0728 26.515 11.1301 26.4724 11.2149C26.4297 11.2996 26.3683 11.357 26.2857 11.3694C25.3177 11.519 24.3498 11.6711 23.3792 11.8132C23.2352 11.8332 23.1339 11.8905 23.07 12.0052C23.022 12.0899 22.9633 12.1348 22.8726 12.1473C21.9474 12.2869 21.0247 12.434 20.0968 12.5686C20.0035 12.5811 19.9342 12.5088 19.9395 12.4415C19.9422 12.4066 19.9821 12.3492 20.0141 12.3443C20.4967 12.262 20.9768 12.1772 21.4621 12.1149C21.6247 12.0949 21.6727 11.9852 21.7553 11.893C21.782 11.8606 21.8033 11.8182 21.838 11.8007C21.8753 11.7808 21.9233 11.7833 21.9687 11.7783C23.1126 11.6013 24.2565 11.4218 25.4031 11.2548C25.5684 11.2298 25.6004 11.1077 25.6857 11.0204C25.715 10.9905 25.7417 10.9456 25.7764 10.9406C26.1284 10.8808 26.4803 10.8284 26.8323 10.7761C27.4483 10.6813 28.0642 10.5866 28.6828 10.4919C28.8615 10.4644 28.8615 10.4644 29.0908 10.2301C29.1175 10.2027 29.1548 10.1678 29.1895 10.1628C30.8187 9.91099 32.448 9.65919 34.0772 9.40988C34.1625 9.39741 34.2238 9.34007 34.2665 9.25531C34.3092 9.17303 34.3705 9.1132 34.4531 9.09824C36.6556 8.75918 38.8555 8.4201 41.058 8.08603C41.202 8.06359 41.3033 8.01123 41.3673 7.89406C41.4126 7.80929 41.4739 7.76443 41.5646 7.74947C43.9858 7.378 46.4069 7.00653 48.8308 6.63257C50.46 6.38326 52.0892 6.12896 53.7184 5.88464C53.8678 5.8622 53.9477 5.7849 54.0224 5.68268C54.0464 5.64778 54.0704 5.59044 54.1024 5.58545C54.4517 5.52312 54.801 5.46579 55.1503 5.40845C55.2596 5.47576 55.3689 5.5406 55.4783 5.60791C55.5609 5.51317 55.641 5.41593 55.7236 5.3212C56.2516 5.2489 56.7715 5.13671 57.3048 5.1018C57.3395 5.09931 57.3768 5.14669 57.4141 5.17162C57.6621 5.32868 57.8035 5.31621 57.9608 5.10679C58.0168 5.032 58.0648 4.96469 58.1501 4.95222C58.4141 4.90735 58.6808 4.87743 58.9421 4.82507C59.0834 4.79765 59.2007 4.82257 59.302 4.91233C59.374 4.97715 59.4487 5.00459 59.5367 4.98963C60.022 4.91483 60.5046 4.84253 60.9899 4.76275C61.0246 4.75776 61.0565 4.71536 61.0832 4.68545C61.1392 4.62063 61.1872 4.55083 61.2406 4.48352C61.3126 4.5259 61.3926 4.55832 61.4512 4.61317C61.5259 4.67799 61.5952 4.67797 61.6965 4.66052C63.6324 4.35886 65.5709 4.06468 67.5068 3.76052C67.6721 3.73559 67.7441 3.84031 67.8561 3.89515C67.8934 3.9151 67.9307 3.94002 67.9707 3.945C68.0134 3.94999 68.0587 3.93505 68.1014 3.92757C69.5546 3.70319 71.0079 3.48129 72.4611 3.25691C72.6531 3.22699 72.6531 3.22699 72.9384 3.38156C72.9731 3.40151 73.0184 3.42395 73.0557 3.41647C73.717 3.31924 74.3783 3.21454 75.0369 3.11482C75.1222 3.10235 75.1943 3.14223 75.2716 3.19957C75.4236 3.31176 75.4342 3.31177 75.5462 3.14723C75.5995 3.06994 75.6555 3.02255 75.7435 3.00011C75.8395 2.97518 75.9169 2.98269 75.9915 3.02756C76.0982 3.08989 76.1755 3.19458 76.3382 3.16716C77.0421 3.04999 77.7487 2.95276 78.45 2.83309C78.61 2.80567 78.6954 2.89043 78.802 2.95276C78.8393 2.9752 78.874 3.0101 78.914 3.01758C78.954 3.02506 79.002 3.00759 79.0446 3.00011C79.9246 2.86549 80.8072 2.73338 81.6844 2.58878C81.8497 2.56135 81.9218 2.66853 82.0338 2.72338C82.0711 2.74333 82.1137 2.77825 82.1484 2.77326C82.6764 2.69598 83.207 2.61368 83.735 2.53141C83.9243 2.50149 83.9243 2.50399 84.2122 2.65606C84.2469 2.67601 84.2923 2.69596 84.3296 2.69097C84.9456 2.59873 85.5642 2.50399 86.1801 2.40925C86.3695 2.37933 86.3695 2.37934 86.9161 2.50898C86.9561 2.51895 86.9987 2.53393 87.0387 2.52894C87.7427 2.42174 88.4493 2.31702 89.1532 2.20233C89.2946 2.1799 89.4119 2.19984 89.5132 2.28959C89.5852 2.35441 89.6599 2.38185 89.7479 2.36689C90.5398 2.24473 91.3344 2.12756 92.1237 1.99791C92.2757 1.97298 92.3743 2.02781 92.481 2.10011C92.5157 2.12504 92.5504 2.15995 92.5904 2.16992C92.6304 2.1799 92.6757 2.16992 92.7183 2.16244C93.5103 2.04027 94.3049 1.9256 95.0942 1.79346C95.2541 1.76604 95.3395 1.8508 95.4462 1.91313C95.4835 1.93556 95.5235 1.98044 95.5555 1.97795C95.8648 1.93557 96.1741 1.89818 96.4807 1.83586C96.646 1.80095 96.718 1.91562 96.83 1.97046C96.8674 1.98792 96.91 2.02533 96.9447 2.02034C97.606 1.92311 98.2673 1.8209 98.9259 1.71619C99.0192 1.70123 99.0885 1.72365 99.1632 1.78847C99.2619 1.87573 99.3765 1.91064 99.5205 1.88321C99.8272 1.82587 100.136 1.78599 100.446 1.73862C100.627 1.7112 100.627 1.71121 101.182 1.84085C101.222 1.85082 101.264 1.86577 101.304 1.86078C101.832 1.781 102.363 1.70372 102.888 1.61646C103.03 1.59153 103.147 1.61396 103.248 1.70372C103.32 1.76854 103.392 1.79597 103.483 1.78102C103.968 1.70622 104.451 1.63142 104.936 1.55663C105.112 1.52921 105.288 1.48183 105.464 1.48183C105.592 1.48432 105.685 1.60398 105.8 1.66382C105.832 1.68127 105.885 1.66135 105.928 1.65636C106.544 1.56162 107.163 1.47436 107.776 1.36715C107.936 1.33973 108.021 1.42449 108.128 1.48682C108.165 1.50926 108.205 1.55413 108.237 1.55164C108.459 1.52422 108.677 1.48682 108.899 1.45441C109.162 1.41452 109.429 1.3846 109.69 1.32975C109.904 1.28488 109.984 1.50177 110.154 1.50925C110.285 1.51673 110.418 1.47435 110.549 1.45441C110.813 1.41452 111.077 1.36965 111.341 1.33474C111.434 1.32228 111.506 1.28237 111.536 1.19262C111.541 1.17517 111.496 1.13779 111.466 1.11535C111.112 0.861054 111.112 0.861041 110.754 0.91589C110.533 0.950793 110.314 0.985702 110.093 1.01562C110.056 1.02061 110.013 1.00066 109.976 0.985703C109.869 0.943321 109.88 0.893464 109.97 0.803712C110.061 0.713961 110.13 0.604275 110.208 0.502058C110.317 0.566878 110.424 0.631676 110.533 0.696496C110.621 0.684031 110.709 0.669094 110.797 0.656628C111.237 0.591808 111.677 0.52449 112.117 0.464655C112.149 0.459669 112.189 0.509538 112.226 0.534469C112.333 0.606769 112.429 0.669079 112.584 0.641655C112.978 0.569356 113.376 0.517001 113.77 0.454673C113.943 0.427249 113.944 0.427252 114.247 0.581823C114.282 0.599275 114.327 0.619221 114.365 0.614235C114.762 0.556894 115.157 0.494574 115.554 0.434739C115.639 0.422274 115.722 0.454683 115.783 0.526983C115.807 0.5569 115.802 0.606752 115.903 1.01562C116.218 1.3472 116.434 1.31231 116.653 1.2824C116.746 1.26993 116.829 1.25745 116.89 1.20759C116.922 1.18017 116.962 1.14027 116.962 1.10786C116.962 1.08293 116.903 1.04303 116.866 1.03805C116.602 0.988187 116.351 1.09291 116.093 1.11535C115.973 1.12532 115.869 1.03806 115.847 0.895956C115.842 0.856066 115.834 0.813686 115.826 0.773797C115.818 0.733907 115.813 0.691527 115.805 0.651637C115.701 0.639172 115.639 0.68404 115.594 0.768806C115.557 0.838612 115.503 0.918391 115.431 0.955788C115.359 0.995677 115.261 0.988211 115.173 1.00068C115.087 1.01314 114.994 1.04555 114.914 1.0281C114.834 1.00815 114.77 0.93584 114.695 0.890965C114.661 0.868527 114.618 0.836129 114.583 0.841115C114.277 0.883498 113.973 0.925864 113.669 0.980712C113.509 1.01063 113.429 0.905935 113.328 0.841115C113.248 0.791253 113.168 0.803703 113.154 0.918385C113.12 1.19263 113.242 1.3073 113.514 1.25495C113.738 1.21007 113.941 1.20261 114.117 1.37215C114.141 1.39458 114.197 1.40455 114.231 1.39957C114.45 1.36965 114.666 1.33225 114.885 1.30233C114.925 1.29735 114.967 1.3073 115.005 1.31727C115.549 1.4519 115.549 1.45441 115.733 1.42449C115.821 1.40953 115.906 1.39707 115.898 1.01811C116.066 0.611741 116.333 0.584321 116.591 0.524487C116.759 0.487091 116.831 0.596792 116.941 0.654133C116.978 0.674078 117.018 0.71396 117.053 0.708974C117.626 0.626702 118.197 0.539431 118.767 0.447187C118.863 0.432228 118.932 0.447189 119.007 0.51201C119.103 0.594282 119.21 0.646648 119.362 0.61673C119.666 0.556896 119.975 0.519508 120.284 0.469646C120.442 0.444715 120.442 0.44469 120.759 0.599262C120.794 0.616713 120.839 0.636659 120.876 0.631673C121.186 0.589291 121.492 0.536951 121.799 0.492076C121.884 0.47961 121.962 0.51451 122.028 0.581823C122.095 0.649137 122.175 0.684037 122.258 0.671571C122.567 0.626696 122.874 0.576849 123.18 0.531974C123.218 0.526988 123.263 0.544438 123.298 0.56189C123.623 0.716462 123.623 0.716436 123.772 0.691505C123.991 0.654109 124.215 0.636676 124.431 0.586815C124.641 0.536953 124.751 0.68154 124.895 0.761319C125.289 0.703978 125.687 0.656621 126.079 0.586815C126.239 0.556897 126.324 0.639162 126.431 0.703983C126.468 0.72642 126.505 0.773794 126.54 0.771301C126.673 0.761329 126.804 0.733909 126.935 0.713965C127.065 0.69402 127.199 0.674078 127.329 0.654133C127.479 0.726433 127.577 0.895961 127.791 0.838619C127.919 0.803716 128.055 0.796237 128.185 0.776292C128.316 0.756347 128.449 0.736405 128.58 0.71646C128.668 0.703995 128.758 0.696505 128.844 0.674067C129.001 0.63667 129.078 0.758847 129.19 0.813695C129.228 0.831146 129.27 0.861044 129.305 0.856058C129.569 0.821154 129.836 0.79124 130.094 0.733899C130.294 0.689023 130.43 0.763825 130.572 0.868535C130.601 0.890973 130.652 0.903437 130.689 0.898451C130.998 0.856069 131.305 0.803699 131.612 0.758823C131.694 0.746358 131.774 0.786246 131.841 0.851067C131.91 0.91838 131.988 0.950815 132.073 0.938349C132.38 0.893474 132.689 0.843597 132.996 0.798721C133.033 0.793735 133.078 0.813684 133.113 0.833628C133.411 0.9882 133.411 0.990696 133.587 0.960779C133.63 0.953299 133.675 0.948294 133.718 0.940814C133.937 0.905911 134.163 0.893463 134.377 0.833628C134.622 0.766315 134.801 0.851084 134.974 0.99319C135.193 0.963273 135.417 0.945818 135.63 0.895956C135.79 0.858559 135.875 0.953292 135.982 1.01562C136.019 1.03806 136.059 1.08293 136.091 1.07795C136.401 1.03556 136.71 0.998181 137.014 0.935854C137.179 0.90095 137.251 1.01312 137.363 1.07046C137.4 1.0904 137.44 1.12533 137.475 1.12034C137.651 1.1004 137.827 1.07046 138.003 1.04304C138.208 1.01063 138.208 1.01312 138.48 1.1652C138.608 1.2375 138.736 1.18015 138.862 1.1627C138.995 1.14276 139.12 1.1278 139.227 1.23002C139.294 1.29484 139.374 1.33473 139.456 1.32476C139.632 1.30232 139.811 1.2799 139.984 1.2425C140.123 1.21258 140.243 1.23252 140.344 1.32476C140.416 1.38958 140.491 1.42201 140.579 1.40705C140.974 1.34722 141.371 1.28487 141.766 1.22753C141.8 1.22254 141.848 1.24499 141.88 1.26742C141.955 1.3123 142.027 1.36215 142.099 1.41201C142.272 1.38957 142.451 1.37963 142.621 1.34472C142.803 1.30982 142.968 1.29735 143.109 1.43447C143.139 1.46439 143.181 1.50675 143.216 1.50426C143.349 1.49428 143.48 1.46936 143.611 1.44942C143.741 1.42947 143.875 1.40953 144.005 1.38958C144.157 1.45191 144.253 1.63141 144.467 1.57407C144.595 1.53917 144.731 1.53169 144.861 1.51174C144.992 1.4918 145.125 1.46936 145.256 1.45191C145.299 1.44692 145.347 1.43445 145.384 1.44442C145.424 1.4544 145.459 1.48931 145.493 1.51424C145.6 1.58654 145.699 1.65885 145.851 1.61646C145.979 1.58156 146.115 1.57408 146.245 1.55164C146.424 1.52422 146.424 1.52422 146.72 1.68129C146.84 1.74611 146.976 1.66135 147.09 1.71619C147.168 1.75359 147.234 1.8159 147.309 1.85829C147.341 1.87574 147.392 1.88321 147.429 1.87822C147.605 1.85578 147.784 1.83336 147.957 1.79596C148.098 1.76604 148.216 1.79596 148.314 1.88571C148.386 1.95053 148.458 1.97797 148.549 1.96301C148.989 1.8932 149.429 1.83335 149.866 1.75606C150.016 1.72864 150.136 1.77103 150.218 1.86078C150.36 2.01535 150.56 1.83336 150.706 1.95802C150.797 2.0353 150.888 2.12506 151.053 2.08766C151.357 2.02284 151.666 1.98792 151.973 1.94304C152.082 2.01036 152.191 2.07768 152.303 2.145C152.479 2.11757 152.655 2.09013 152.831 2.0652C152.962 2.04526 153.095 2.02282 153.226 2.00537C153.269 2.00038 153.314 1.99041 153.354 2.00287C153.394 2.01534 153.426 2.04776 153.463 2.07269C153.647 2.19485 153.647 2.19736 153.951 2.14749C154.082 2.12506 154.207 2.1101 154.317 2.20982C154.418 2.30207 154.538 2.31951 154.677 2.29208C154.938 2.24222 155.202 2.20483 155.469 2.16992C155.551 2.15746 155.629 2.19984 155.698 2.26466C155.802 2.36688 155.93 2.35691 156.061 2.32948C156.234 2.29458 156.404 2.25969 156.551 2.3993C156.58 2.42922 156.626 2.47158 156.658 2.46908C156.876 2.44914 157.098 2.43419 157.311 2.38682C157.524 2.33945 157.628 2.49402 157.775 2.56881C157.994 2.5364 158.215 2.50399 158.434 2.47158C158.476 2.4641 158.527 2.44167 158.564 2.45414C158.722 2.50649 158.812 2.69347 159.028 2.63613C159.154 2.60372 159.29 2.59376 159.42 2.58628C159.455 2.58379 159.5 2.62615 159.524 2.65856C159.538 2.67601 159.524 2.72338 159.508 2.74831C159.46 2.81811 159.402 2.88295 159.359 2.95525C159.354 2.96523 159.404 3.01008 159.434 3.03003C159.506 3.0749 159.588 3.06744 159.684 3.0475C159.767 3.03005 159.852 3.06495 159.911 3.13974C159.935 3.16966 159.927 3.21951 159.876 3.38406C159.876 3.50622 159.932 3.45136 159.951 3.37158C159.98 3.2569 159.924 3.21951 159.818 3.28183C159.743 3.32671 159.706 3.39154 159.724 3.44389C159.735 3.47131 159.786 3.50622 159.876 3.38406C160.111 3.23447 160.287 3.20706 160.463 3.17964C160.508 3.17216 160.562 3.14721 160.594 3.16217C160.708 3.222 160.815 3.29432 160.927 3.36163C161.055 3.34667 161.175 3.30926 161.3 3.40649C161.476 3.54361 161.484 3.53115 161.655 3.50372C161.743 3.48876 161.831 3.47632 161.919 3.46385C162.007 3.45139 162.076 3.48877 162.153 3.54612C162.311 3.66329 162.324 3.66328 162.428 3.50372C162.489 3.40649 162.532 3.37409 162.609 3.41897C162.865 3.57104 162.868 3.58101 163.087 3.53613C163.268 3.49874 163.439 3.48877 163.572 3.63087C163.663 3.7306 163.692 3.70816 163.764 3.60345C163.956 3.32672 164.044 3.3317 164.404 3.53114C164.572 3.62588 164.745 3.52367 164.916 3.51121C165.06 3.50124 165.161 3.56106 165.172 3.71812C165.18 3.81536 165.204 3.88517 165.3 3.91758C165.337 3.93005 165.383 3.9475 165.42 3.94251C165.641 3.91259 165.86 3.87768 166.081 3.84278C166.193 3.82533 166.254 3.70817 166.233 3.5536C166.209 3.38906 166.252 3.3292 166.412 3.28183C166.508 3.25441 166.585 3.25942 166.662 3.30429C166.748 3.35415 166.724 3.39903 166.649 3.48878C166.47 3.70817 166.492 3.84278 166.721 3.99485C166.801 4.04721 166.865 4.0946 166.884 4.17188C166.894 4.21177 166.884 4.26413 166.908 4.29404C167.038 4.46108 167.22 4.5683 167.422 4.64807C167.617 4.58076 167.75 4.69293 167.9 4.78268C168.017 4.85249 168.156 4.79267 168.281 4.76774C168.422 4.74031 168.54 4.76025 168.641 4.85249C168.713 4.91732 168.788 4.94722 168.876 4.93476C169.052 4.90733 169.23 4.88989 169.404 4.85C169.553 4.8151 169.665 4.86496 169.758 4.94973C169.876 5.05693 170.006 4.98462 170.129 4.99958C170.294 5.01703 170.377 5.23891 170.593 5.17907C170.721 5.14417 170.854 5.13171 170.987 5.12174C171.022 5.11924 171.065 5.16163 171.094 5.19155C171.235 5.32867 171.401 5.32119 171.582 5.2813C171.707 5.25388 171.83 5.22896 171.953 5.32369C172.155 5.48325 172.379 5.62287 172.593 5.76997C172.622 5.88465 172.601 6.01925 172.753 6.08656C172.833 6.12147 172.907 6.17384 172.969 6.23118C173.043 6.2985 173.113 6.31595 173.209 6.2985C173.382 6.2636 173.563 6.25609 173.734 6.21122C173.891 6.17133 173.99 6.25363 174.086 6.33091C174.163 6.39324 174.235 6.42314 174.329 6.37827C174.425 6.33588 174.494 6.3633 174.571 6.43061C174.681 6.52286 174.689 6.5129 175.051 6.54032C175.089 6.54282 175.134 6.58019 175.155 6.6126C175.166 6.63005 175.142 6.67995 175.123 6.70488C175.099 6.73479 175.062 6.76968 175.027 6.77716C174.633 6.84198 174.235 6.89932 173.841 6.96414C173.801 6.97162 173.758 6.98909 173.729 7.01402C173.697 7.04144 173.657 7.07881 173.657 7.11372C173.657 7.13865 173.71 7.16857 173.747 7.18603C173.865 7.24337 174.003 7.15611 174.118 7.22093C174.195 7.26332 174.259 7.32314 174.337 7.36303C174.369 7.38048 174.419 7.37799 174.459 7.37301C174.593 7.35556 174.723 7.33063 174.857 7.31567C174.894 7.31318 174.937 7.33812 174.971 7.35807C175.227 7.50765 175.227 7.50764 175.449 7.47523C175.536 7.46277 175.63 7.42537 175.712 7.44033C175.792 7.45529 175.862 7.5226 175.934 7.56498C176.083 7.65473 176.224 7.74199 176.235 7.93645C176.24 8.01124 176.328 8.07605 176.416 8.08104C176.502 8.08602 176.592 8.05863 176.68 8.04367C176.888 8.01375 176.888 8.01375 177.158 8.16583C177.232 8.20821 177.312 8.21319 177.408 8.18825C177.446 8.17828 177.491 8.18827 177.531 8.20073C177.662 8.23813 177.662 8.28549 177.576 8.37524C177.456 8.50737 177.467 8.51984 177.803 8.63203C177.931 8.67442 178.03 8.7542 178.136 8.82401C178.31 8.9362 178.307 8.93617 178.192 9.08327C178.166 9.11568 178.142 9.15059 178.115 9.18549C178.038 9.28272 177.976 9.38743 177.816 9.3974C177.64 9.40737 177.464 9.44728 177.288 9.4747C177.118 9.50212 177.072 9.56194 177.088 9.73147C177.107 9.9359 177.142 9.95834 177.448 9.95585C177.536 9.95585 177.614 9.97579 177.68 10.0431C177.648 10.1229 177.59 10.1852 177.504 10.2002C177.286 10.2376 177.064 10.27 176.846 10.3024C176.67 10.3298 176.494 10.3572 176.318 10.3847C176.208 10.4021 176.139 10.5318 176.168 10.6764C176.184 10.7586 176.198 10.8409 176.211 10.9232C176.24 11.0877 176.296 11.1301 176.475 11.1226C176.52 11.1201 176.563 11.1002 176.606 11.1052C176.779 11.1226 176.862 11.3295 177.07 11.2872C177.243 11.2523 177.424 11.2448 177.595 11.1999C177.752 11.16 177.84 11.2498 177.95 11.3171C177.987 11.3395 178.027 11.3869 178.059 11.3844C178.28 11.357 178.502 11.3296 178.718 11.2822C178.819 11.2622 178.88 11.2772 178.96 11.337C179.152 11.4816 179.158 11.4742 179.443 11.4293C179.651 11.3944 179.654 11.3994 179.92 11.5514C179.995 11.5938 180.075 11.5938 180.171 11.5739C180.296 11.5489 180.427 11.509 180.557 11.5464C180.597 11.5564 180.648 11.5863 180.661 11.6188C180.669 11.6412 180.632 11.696 180.6 11.7135C180.366 11.8431 180.091 11.8207 179.835 11.8731C179.755 11.888 179.675 11.8406 179.608 11.7733C179.539 11.706 179.464 11.6786 179.374 11.6911C179.198 11.7185 179.019 11.7359 178.846 11.7758C178.696 11.8107 178.592 11.7534 178.488 11.6761C178.454 11.6512 178.414 11.6038 178.379 11.6063C177.984 11.6561 177.587 11.706 177.195 11.7758C177.038 11.8057 176.947 11.726 176.84 11.6587C176.803 11.6362 176.766 11.5888 176.731 11.5913C176.598 11.6013 176.467 11.6287 176.334 11.6487C175.848 11.7235 175.366 11.7983 174.881 11.8681C174.849 11.873 174.809 11.8207 174.771 11.7983C174.699 11.7534 174.625 11.711 174.55 11.6686C174.417 11.6885 174.286 11.7135 174.153 11.7284C174.057 11.7384 173.971 11.7733 173.958 11.8681C173.95 11.9304 174.038 11.9877 174.131 11.9827C174.222 11.9777 174.313 11.9478 174.387 11.9802C174.758 12.1398 174.758 12.1423 174.99 12.1099C175.193 12.08 175.171 12.055 175.35 12.1921C175.427 12.252 175.497 12.2869 175.584 12.2719C175.803 12.237 176.024 12.2021 176.246 12.1722C176.28 12.1672 176.326 12.1922 176.36 12.2121C176.622 12.3617 176.622 12.3667 176.838 12.3293C177.12 12.2844 177.131 12.2719 177.32 12.424C177.451 12.5287 177.571 12.4564 177.696 12.4514C177.84 12.5487 177.998 12.6359 178.128 12.7456C178.283 12.8753 178.446 12.8528 178.622 12.8154C178.752 12.788 178.88 12.778 178.987 12.8802C179.088 12.975 179.211 12.985 179.35 12.96C179.475 12.9376 179.603 12.8902 179.734 12.9451C179.768 12.96 179.822 12.9974 179.819 13.0199C179.816 13.0548 179.781 13.1046 179.747 13.1196C179.502 13.2218 179.232 13.2193 178.974 13.2667C178.939 13.2742 178.894 13.2467 178.859 13.2268C178.784 13.1819 178.712 13.1296 178.64 13.0822C178.51 13.0972 178.376 13.1021 178.248 13.132C178.15 13.1545 178.075 13.152 178.003 13.0922C177.936 13.0373 177.864 12.97 177.784 12.9526C177.704 12.9351 177.611 12.9725 177.523 12.9875C177.435 13.0024 177.334 12.9949 177.264 13.0348C177.195 13.0747 177.152 13.162 177.107 13.2318C177.056 13.3091 176.987 13.334 176.886 13.3415C176.792 13.349 176.718 13.339 176.648 13.2692C176.619 13.2393 176.579 13.2168 176.539 13.1969C176.502 13.1794 176.459 13.152 176.424 13.157C176.027 13.2143 175.632 13.2767 175.235 13.3365C175.038 13.3664 175.041 13.3664 174.63 13.2193C174.593 13.2068 174.547 13.1894 174.51 13.1944C174.289 13.2243 174.07 13.2592 173.849 13.2941C173.625 13.329 173.627 13.324 173.246 13.167C173.177 13.137 173.075 13.1769 172.993 13.1719C172.819 13.1595 172.734 12.9501 172.531 12.99C172.358 13.0249 172.177 13.0323 172.003 13.0772C171.846 13.1171 171.755 13.0298 171.649 12.9625C171.611 12.9401 171.571 12.8902 171.539 12.8952C171.142 12.9501 170.747 13.0124 170.22 13.0199C170.089 13.0199 170.148 13.0722 170.233 13.0897C170.356 13.1171 170.396 13.0648 170.329 12.965C170.281 12.8952 170.212 12.8603 170.156 12.8777C170.126 12.8877 170.089 12.9351 170.22 13.0199C170.358 13.1146 170.35 13.167 170.374 13.1969C170.433 13.2692 170.516 13.2991 170.601 13.2891C170.734 13.2717 170.865 13.2467 170.998 13.2318C171.035 13.2268 171.081 13.2442 171.115 13.2642C171.409 13.4188 171.411 13.4287 171.723 13.3689C171.822 13.3515 171.894 13.3515 171.971 13.3988C172.078 13.4636 172.155 13.5733 172.318 13.5384C172.534 13.4911 172.755 13.4637 172.977 13.4362C173.011 13.4312 173.049 13.4761 173.089 13.4961C173.198 13.5559 173.278 13.6681 173.441 13.6207C173.566 13.5833 173.702 13.5733 173.835 13.5658C173.87 13.5634 173.923 13.6032 173.939 13.6357C173.971 13.693 173.931 13.7603 173.841 13.8077C173.803 13.8276 173.753 13.8226 173.71 13.8301C173.534 13.8576 173.358 13.8875 173.182 13.9099C173.089 13.9224 173.001 13.9598 172.99 14.052C172.982 14.1143 173.078 14.1692 173.169 14.1642C173.302 14.1567 173.435 14.1368 173.563 14.1044C173.79 14.0495 173.987 14.0645 174.171 14.2215C174.302 14.3312 174.294 14.2914 174.433 14.6155C174.467 14.6977 174.571 14.7052 174.662 14.7002C174.881 14.6877 174.982 14.7252 174.963 14.8024C174.939 14.8972 174.862 14.9271 174.763 14.9395C174.587 14.9595 174.411 14.9919 174.235 15.0193C174.193 15.0268 174.145 15.0418 174.105 15.0368C174.065 15.0318 174.027 15.0019 173.993 14.9794C173.918 14.9321 173.854 14.8598 173.774 14.8423C173.694 14.8249 173.601 14.8623 173.513 14.8772C173.425 14.8897 173.331 14.9271 173.251 14.9096C173.171 14.8922 173.105 14.8174 173.033 14.7725C172.998 14.7501 172.955 14.7152 172.921 14.7177C172.745 14.7376 172.569 14.77 172.393 14.795C172.177 14.8274 172.177 14.8274 171.915 14.6728C171.841 14.6279 171.763 14.6304 171.665 14.6504C171.451 14.6903 171.449 14.6828 171.059 14.5382C171.022 14.5232 170.977 14.5058 170.939 14.5132C170.542 14.5706 170.148 14.6329 169.753 14.6927C169.414 14.7451 169.414 14.7451 169.228 14.9944C169.089 15.1789 169.086 15.1789 169.222 15.2637C169.332 15.3335 169.43 15.4357 169.55 15.4731C169.662 15.508 169.801 15.3958 169.924 15.5105C169.985 15.5678 170.065 15.6301 170.142 15.6401C170.265 15.6526 170.396 15.5803 170.513 15.69C170.572 15.7448 170.66 15.8022 170.734 15.8047C170.865 15.8097 170.998 15.7697 171.129 15.7523C171.169 15.7473 171.214 15.7473 171.251 15.7598C171.291 15.7747 171.326 15.8047 171.361 15.8296C171.467 15.9144 171.582 15.9542 171.721 15.9119C171.947 15.842 172.15 15.877 172.326 16.0365C172.35 16.0589 172.409 16.0615 172.446 16.0515C172.542 16.0266 172.625 16.024 172.697 16.0714C172.726 16.0914 172.769 16.1262 172.763 16.1487C172.755 16.1861 172.723 16.236 172.689 16.2484C172.438 16.3332 172.169 16.3432 171.91 16.388C171.875 16.393 171.833 16.3606 171.798 16.3382C171.723 16.2933 171.659 16.2185 171.579 16.2011C171.499 16.1836 171.406 16.216 171.318 16.2285C171.23 16.2409 171.137 16.2783 171.057 16.2634C170.977 16.2459 170.902 16.1836 170.838 16.1288C170.763 16.0664 170.692 16.059 170.593 16.0839C170.465 16.1163 170.332 16.1213 170.201 16.1387C170.129 16.0914 170.057 16.039 169.982 15.9941C169.948 15.9717 169.905 15.9443 169.868 15.9468C169.692 15.9667 169.516 15.9966 169.34 16.024C169.164 16.0515 169.164 16.0515 168.865 15.8969C168.83 15.8795 168.785 15.8595 168.748 15.8645C168.526 15.8944 168.308 15.9318 168.086 15.9617C168.001 15.9742 167.924 15.9393 167.854 15.872C167.788 15.8046 167.708 15.7672 167.625 15.7797C167.273 15.8321 166.921 15.8819 166.569 15.9443C166.428 15.9692 166.308 15.9468 166.212 15.857C166.1 15.7548 165.975 15.7797 165.844 15.7997C165.548 15.8495 165.545 15.847 165.356 15.7199C165.319 15.695 165.281 15.6476 165.247 15.6501C164.94 15.6875 164.631 15.7224 164.327 15.7822C164.167 15.8146 164.081 15.7274 163.975 15.6625C163.937 15.6401 163.897 15.5927 163.865 15.5977C163.644 15.6251 163.423 15.6501 163.207 15.6999C162.991 15.7498 162.908 15.518 162.745 15.5205C162.524 15.5229 162.305 15.5803 162.087 15.6152C161.911 15.6426 161.735 15.67 161.559 15.6975C161.383 15.7249 161.207 15.7473 161.031 15.7797C160.938 15.7972 160.868 15.7747 160.791 15.7124C160.692 15.6301 160.575 15.5653 160.468 15.4905C160.306 15.3833 160.306 15.3833 160.108 15.4132C160.066 15.4207 160.02 15.4257 159.978 15.4332C159.655 15.488 159.655 15.483 159.244 15.326C159.226 15.3185 159.178 15.3459 159.159 15.3659C159.103 15.4307 159.052 15.5005 159.002 15.5678C158.93 15.5279 158.842 15.5055 158.794 15.4481C158.658 15.2861 158.444 15.508 158.306 15.3484C158.255 15.2886 158.167 15.2362 158.087 15.2213C158.004 15.2063 157.911 15.2412 157.826 15.2562C157.604 15.2936 157.604 15.2911 157.415 15.513C157.319 15.6227 157.18 15.6027 157.055 15.6276C156.924 15.6551 156.799 15.67 156.69 15.5678C156.591 15.4756 156.471 15.4531 156.33 15.483C156.157 15.5204 155.978 15.5429 155.802 15.5653C155.765 15.5703 155.719 15.5578 155.682 15.5429C155.274 15.3958 155.274 15.3933 155.077 15.4257C154.989 15.4407 154.898 15.4456 154.813 15.4681C154.669 15.508 154.559 15.4556 154.455 15.3758C154.421 15.3509 154.381 15.3036 154.346 15.3061C154.17 15.3185 153.997 15.3409 153.823 15.3634C153.69 15.3808 153.557 15.3908 153.429 15.4257C153.215 15.4831 153.111 15.321 152.965 15.2462C152.746 15.2786 152.525 15.301 152.306 15.3459C152.205 15.3659 152.138 15.3584 152.061 15.2986C151.962 15.2238 151.871 15.139 151.712 15.1764C151.498 15.2263 151.274 15.2437 151.056 15.2736C150.909 15.1964 150.802 15.0393 150.592 15.0966C150.464 15.1315 150.328 15.139 150.197 15.1589C150.021 15.1864 149.845 15.2113 149.669 15.2412C149.48 15.2711 149.482 15.2637 149.192 15.1166C149.024 15.0293 148.85 15.1265 148.68 15.1415C148.546 15.154 148.48 15.2686 148.512 15.4157C148.544 15.5628 148.472 15.6775 148.349 15.6975C148.042 15.7448 147.733 15.7947 147.426 15.837C147.389 15.842 147.344 15.8246 147.309 15.8071C146.981 15.6501 146.981 15.6526 146.835 15.675C146.616 15.7124 146.392 15.7323 146.176 15.7797C146.027 15.8121 145.917 15.7598 145.821 15.675C145.747 15.6102 145.677 15.5952 145.581 15.6102C144.525 15.7772 143.469 15.9318 142.416 16.1038C142.259 16.1288 142.168 16.0565 142.062 15.9892C142.024 15.9667 141.99 15.9193 141.952 15.9193C141.864 15.9193 141.776 15.9418 141.688 15.9567C141.294 16.0166 140.899 16.0889 140.502 16.1337C140.334 16.1537 140.288 16.2684 140.216 16.3631C140.16 16.4354 140.096 16.4653 139.998 16.4753C139.902 16.4853 139.832 16.4728 139.758 16.408C139.662 16.3232 139.552 16.2708 139.403 16.3058C139.23 16.3456 139.054 16.3631 138.875 16.3905C138.784 16.403 138.715 16.4479 138.686 16.5376C138.68 16.5526 138.736 16.59 138.768 16.6124C138.875 16.6872 138.976 16.7745 139.096 16.8268C139.219 16.8792 139.352 16.8193 139.48 16.8044C139.526 16.7994 139.568 16.7844 139.611 16.7869C139.651 16.7894 139.699 16.8019 139.728 16.8243C139.867 16.9365 140.014 17.0138 140.206 16.9465C140.371 16.9789 140.456 17.1858 140.667 17.131C140.795 17.0986 140.928 17.0836 141.062 17.0711C141.096 17.0687 141.134 17.1135 141.171 17.136C141.278 17.1983 141.363 17.298 141.523 17.2556C141.694 17.2108 141.875 17.2033 142.048 17.1684C142.144 17.1484 142.213 17.1659 142.288 17.2307C142.384 17.313 142.493 17.3753 142.643 17.3354C142.771 17.3005 142.907 17.293 143.037 17.2706C143.208 17.2432 143.208 17.2457 143.512 17.4002C143.547 17.4177 143.592 17.4376 143.629 17.4326C143.851 17.4027 144.069 17.3653 144.291 17.3354C144.376 17.3229 144.459 17.3553 144.517 17.4276C144.541 17.4576 144.533 17.5075 144.541 17.5498C144.101 17.6171 143.661 17.6745 143.224 17.7567C143.059 17.7892 142.984 17.6869 142.875 17.6296C142.837 17.6097 142.797 17.5673 142.763 17.5723C142.453 17.6146 142.147 17.6595 141.84 17.7144C141.744 17.7318 141.672 17.7218 141.6 17.6495C141.416 17.4576 141.192 17.5623 140.984 17.5897C140.824 17.6096 140.774 17.6869 140.792 17.8515C140.816 18.0459 140.912 18.1058 141.158 18.0709C141.246 18.0584 141.334 18.041 141.422 18.031C141.507 18.021 141.584 18.0534 141.654 18.1207C141.72 18.188 141.8 18.2229 141.883 18.213C142.059 18.1905 142.237 18.1681 142.408 18.1307C142.549 18.1008 142.667 18.1257 142.765 18.218C142.875 18.3202 143.003 18.2977 143.131 18.2753C143.429 18.2254 143.432 18.2279 143.619 18.3526C143.656 18.3775 143.693 18.4249 143.728 18.4224C144.035 18.385 144.344 18.3526 144.645 18.2928C144.803 18.2629 144.893 18.3426 144.997 18.4074C145.035 18.4299 145.072 18.4797 145.107 18.4748C145.328 18.4473 145.549 18.4199 145.765 18.3725C145.867 18.3501 145.928 18.365 146.011 18.4249C146.208 18.572 146.213 18.567 146.493 18.5196C146.579 18.5047 146.672 18.4772 146.752 18.4972C146.832 18.5171 146.896 18.5894 146.971 18.6343C147.005 18.6543 147.048 18.6817 147.085 18.6767C147.261 18.6567 147.437 18.6268 147.613 18.5994C147.778 18.572 147.778 18.5745 148.088 18.7291C148.213 18.7939 148.344 18.739 148.469 18.7191C148.605 18.6966 148.728 18.6967 148.832 18.7939C148.936 18.8911 149.061 18.8861 149.194 18.8662C149.32 18.8462 149.448 18.7914 149.576 18.8587C149.869 19.0133 149.869 19.0157 150.05 18.9858C150.314 18.9434 150.576 18.9036 150.842 18.8662C150.877 18.8612 150.922 18.8911 150.957 18.9111C151.032 18.9559 151.096 19.0307 151.176 19.0482C151.256 19.0681 151.349 19.0382 151.434 19.0232C151.709 18.9759 151.728 18.9584 151.911 19.123C152.066 19.2576 152.258 19.0631 152.402 19.2177C152.485 19.305 152.597 19.3748 152.751 19.3324C152.879 19.2975 153.013 19.2875 153.146 19.2675C153.357 19.2351 153.357 19.2377 153.623 19.3872C153.658 19.4072 153.703 19.4321 153.738 19.4271C153.914 19.4072 154.093 19.3897 154.263 19.3448C154.463 19.2925 154.591 19.3872 154.741 19.4795C154.858 19.5518 154.997 19.4919 155.122 19.467C155.258 19.4421 155.381 19.4495 155.482 19.5468C155.589 19.6465 155.714 19.634 155.847 19.6141C155.973 19.5966 156.101 19.5393 156.229 19.6091C156.503 19.7637 156.503 19.7637 156.703 19.7338C156.879 19.7063 157.055 19.6764 157.231 19.6565C157.266 19.6515 157.308 19.6839 157.343 19.7063C157.418 19.7512 157.482 19.826 157.562 19.8435C157.642 19.8609 157.735 19.8285 157.823 19.816C157.911 19.8036 158.004 19.7662 158.084 19.7811C158.164 19.7961 158.239 19.8584 158.303 19.9133C158.378 19.9781 158.447 19.9856 158.548 19.9606C158.676 19.9282 158.81 19.9208 158.94 19.9033C159.012 19.9507 159.087 19.998 159.156 20.0504C159.228 20.1052 159.306 20.1002 159.404 20.0828C159.732 20.023 159.735 20.0304 160.01 20.185C160.135 20.2548 160.266 20.1975 160.391 20.18C160.524 20.1601 160.65 20.1501 160.754 20.2498C160.855 20.3446 160.98 20.357 161.114 20.3271C161.199 20.3072 161.289 20.2947 161.377 20.2872C161.417 20.2848 161.465 20.2947 161.495 20.3147C161.636 20.4194 161.775 20.5141 161.969 20.4468C162.14 20.4668 162.225 20.6712 162.431 20.6313C162.604 20.5964 162.785 20.5889 162.956 20.544C163.113 20.5041 163.225 20.574 163.305 20.6612C163.449 20.8158 163.652 20.6064 163.796 20.7584C163.879 20.8457 163.985 20.9155 164.145 20.8781C164.321 20.8382 164.377 20.8906 164.428 21.0476C164.457 21.1374 164.452 21.2097 164.399 21.2795C164.345 21.3518 164.287 21.3393 164.201 21.2571C164.103 21.1648 163.985 21.1473 163.844 21.1673C163.705 21.1872 163.62 21.0576 163.505 21.0078C163.391 20.9554 163.255 21.0427 163.135 20.9753C162.852 20.8183 162.852 20.8183 162.66 20.8482C162.529 20.8681 162.393 20.8781 162.265 20.913C162.113 20.9554 162.015 20.8781 161.911 20.8083C161.873 20.7834 161.836 20.736 161.804 20.7385C161.497 20.7759 161.188 20.8108 160.884 20.8731C160.724 20.9055 160.639 20.8158 160.532 20.7535C160.495 20.731 160.455 20.6861 160.423 20.6911C160.159 20.726 159.898 20.7709 159.634 20.8133C159.583 20.8806 159.527 20.9454 159.479 21.0177C159.428 21.0925 159.359 21.1249 159.258 21.1224C159.09 21.1224 158.924 21.2271 158.756 21.095C158.583 20.9604 158.57 20.9679 158.402 21.0003C158.188 21.0426 157.962 21.0327 157.762 21.1299C157.727 21.1474 157.69 21.1947 157.69 21.2296C157.687 21.2521 157.743 21.2845 157.778 21.3044C157.895 21.3643 158.031 21.277 158.148 21.3393C158.226 21.3792 158.29 21.439 158.367 21.4814C158.399 21.4989 158.447 21.4964 158.49 21.4939C158.535 21.4914 158.578 21.474 158.62 21.4765C158.66 21.4789 158.703 21.4939 158.735 21.5163C158.882 21.6111 159.036 21.6983 159.167 21.8105C159.295 21.9202 159.415 21.8454 159.543 21.8404C160.055 22.015 160.055 22.0174 160.399 21.9626C160.484 21.9501 160.572 21.9352 160.66 21.9377C160.698 21.9377 160.732 21.9825 160.77 22.0075C160.876 22.0822 160.978 22.1496 161.127 22.1097C161.255 22.0748 161.391 22.0673 161.521 22.0449C161.697 22.0174 161.697 22.0174 161.996 22.1745C162.071 22.2144 162.151 22.2094 162.247 22.1895C162.329 22.172 162.415 22.2094 162.473 22.2817C162.497 22.3116 162.489 22.3615 162.497 22.4039C162.233 22.4438 161.967 22.4712 161.711 22.531C161.545 22.5684 161.471 22.4612 161.361 22.4039C161.324 22.3839 161.284 22.3416 161.25 22.3465C160.988 22.3839 160.727 22.4263 160.466 22.4762C160.434 22.4811 160.394 22.5385 160.391 22.5734C160.386 22.6382 160.452 22.7005 160.548 22.698C160.676 22.6956 160.802 22.6532 160.916 22.7554C161.012 22.8451 161.132 22.8851 161.273 22.8452C161.359 22.8227 161.45 22.8227 161.535 22.8028C161.761 22.7429 161.967 22.7554 162.137 22.9249C162.268 22.9698 162.396 22.9274 162.521 22.905C162.615 22.8875 162.705 22.8701 162.772 22.9174C162.913 23.0172 163.052 23.1169 163.247 23.0496C163.457 23.1194 163.617 23.2665 163.793 23.3861C163.876 23.4435 163.94 23.4759 164.036 23.4385C164.076 23.4236 164.124 23.4235 164.167 23.4161C164.255 23.4036 164.348 23.3662 164.428 23.3812C164.508 23.3986 164.575 23.4709 164.647 23.5158C164.681 23.5382 164.721 23.5756 164.756 23.5731C164.889 23.5607 165.02 23.5357 165.151 23.5158C165.281 23.4983 165.412 23.4809 165.542 23.4634C165.652 23.5283 165.764 23.5931 165.873 23.6579C166.049 23.6305 166.225 23.603 166.398 23.5781C166.593 23.5482 166.593 23.5507 166.873 23.7053C166.998 23.7751 167.132 23.7302 167.252 23.6978C167.452 23.6454 167.585 23.7402 167.726 23.8399C167.756 23.8598 167.809 23.8723 167.844 23.8623C167.982 23.8274 168.102 23.8548 168.204 23.9471C168.276 24.0119 168.348 24.0418 168.436 24.0294C168.742 23.982 169.049 23.9321 169.356 23.8898C169.393 23.8848 169.436 23.9072 169.47 23.9272C169.742 24.0792 169.745 24.0867 169.945 24.0468C170.124 24.0119 170.289 23.997 170.43 24.1341C170.46 24.164 170.505 24.2064 170.537 24.2039C170.755 24.179 170.977 24.1515 171.193 24.1091C171.291 24.0892 171.361 24.0967 171.438 24.154C171.537 24.2263 171.625 24.3136 171.787 24.2812C172.238 24.1889 172.241 24.2039 172.774 24.3759C172.811 24.3884 172.862 24.3684 172.905 24.3585C172.995 24.3335 173.062 24.3684 173.142 24.4258C173.321 24.5554 173.326 24.5479 173.497 24.5205C173.627 24.4981 173.763 24.4931 173.891 24.4557C174.089 24.4008 174.219 24.4981 174.366 24.5903C174.483 24.6626 174.619 24.6028 174.745 24.5803C174.881 24.5554 175.003 24.5629 175.105 24.6576C175.174 24.7224 175.248 24.7574 175.336 24.7449C175.643 24.7 175.95 24.6501 176.256 24.6053C176.294 24.6003 176.339 24.6202 176.374 24.6377C176.678 24.7923 176.678 24.7997 176.979 24.7424C177.075 24.725 177.155 24.72 177.227 24.7723C177.296 24.8222 177.371 24.8695 177.443 24.9169C177.574 24.8995 177.707 24.8945 177.835 24.8646C177.934 24.8421 178.003 24.8521 178.08 24.9045C178.182 24.9718 178.267 25.0889 178.427 25.0316C178.51 25.0042 178.606 25.0117 178.688 24.9867C178.787 24.9543 178.854 24.9742 178.931 25.0391C179.027 25.1164 179.126 25.1961 179.28 25.1562C179.451 25.1114 179.632 25.1039 179.805 25.069C179.901 25.049 179.968 25.069 180.046 25.1338C180.141 25.2161 180.251 25.2684 180.4 25.236C180.704 25.1737 180.707 25.1862 181.003 25.3432C181.077 25.3831 181.157 25.3781 181.253 25.3582C181.336 25.3407 181.421 25.3781 181.48 25.4504C181.536 25.5302 181.531 25.5801 181.536 25.6224ZM157.775 3.13724C157.687 3.14971 157.599 3.16467 157.471 2.94777C157.463 2.91037 157.468 2.8655 157.45 2.83309C157.407 2.76578 157.34 2.71841 157.26 2.71094C157.116 2.70096 156.943 2.78571 156.946 2.85053C156.948 2.90538 156.994 2.95274 157.082 2.99762C157.119 3.01507 157.148 3.04499 157.183 3.06494C157.284 3.12228 157.364 3.23448 157.511 3.17714C157.484 3.02257 157.498 3.09986 157.511 3.17714C157.498 3.27188 157.538 3.3392 157.634 3.36662C157.66 3.3741 157.7 3.3691 157.722 3.35414C157.804 3.29929 157.818 3.22452 157.756 3.02756C157.746 3.05997 157.754 3.1173 157.778 3.13225C157.802 3.14721 157.86 3.13476 157.89 3.11731C157.964 3.06994 158.002 3.00761 157.983 2.95525C157.972 2.92783 157.922 2.89293 157.89 2.89293C157.834 2.89293 157.783 2.94777 157.775 3.13724ZM179.336 32.0496C179.142 32.097 178.918 32.0796 178.723 32.1768C178.688 32.1942 178.654 32.2391 178.651 32.274C178.648 32.2965 178.702 32.3289 178.734 32.3463C178.806 32.3862 178.886 32.3737 178.979 32.3613C179.12 32.3438 179.203 32.4585 179.312 32.5159C179.347 32.5333 179.392 32.5458 179.43 32.5408C179.646 32.5109 179.859 32.4785 180.075 32.4436C180.112 32.4361 180.152 32.4186 180.184 32.3962C180.291 32.3239 180.28 32.2765 180.176 32.2217C180.062 32.1618 179.971 32.0621 179.854 32.0147C179.686 31.9474 179.515 32.0372 179.336 32.0496ZM164.193 33.8696C164.063 33.8896 163.935 33.9095 163.804 33.9294C163.761 33.9369 163.716 33.9394 163.676 33.9494C163.593 33.9668 163.532 34.0192 163.492 34.1015C163.553 34.1663 163.628 34.2037 163.711 34.1962C163.841 34.1812 163.969 34.1488 164.1 34.1414C164.241 34.1314 164.324 34.2436 164.433 34.3009C164.468 34.3184 164.511 34.3209 164.551 34.3233C164.748 34.3333 164.868 34.2037 164.831 34.0217C164.804 33.8796 164.703 33.7948 164.58 33.8123C164.452 33.8297 164.321 33.8497 164.193 33.8696ZM180.248 28.3648C180.28 28.3225 180.315 28.2926 180.331 28.2552C180.379 28.128 180.36 28.0333 180.272 27.9335C180.165 27.8114 180.035 27.8937 179.915 27.9061C179.886 27.9086 179.854 27.961 179.838 27.9934C179.827 28.0158 179.827 28.0632 179.843 28.0757C179.974 28.1754 180.112 28.2676 180.248 28.3648ZM157.116 21.0003C156.988 21.0202 156.858 21.0352 156.73 21.0626C156.698 21.0701 156.668 21.1174 156.65 21.1498C156.615 21.2097 156.652 21.2919 156.762 21.2994C156.887 21.3094 157.018 21.267 157.148 21.2471C157.314 21.2221 157.412 21.1299 157.351 21.0501C157.292 20.9728 157.212 20.9579 157.116 21.0003ZM16.7557 15.6725C16.841 15.6601 16.929 15.6501 17.0143 15.6326C17.0943 15.6152 17.1557 15.5603 17.1957 15.4781C17.129 15.4132 17.0543 15.3783 16.9717 15.3858C16.841 15.4008 16.713 15.4207 16.5851 15.4456C16.5051 15.4606 16.4278 15.5155 16.4091 15.6002C16.3904 15.665 16.569 15.7024 16.7557 15.6725ZM145.84 15.2886C145.875 15.311 145.909 15.3559 145.944 15.3559C146.029 15.3559 146.117 15.3409 146.197 15.316C146.232 15.306 146.259 15.2612 146.275 15.2263C146.285 15.2038 146.283 15.1639 146.267 15.144C146.189 15.0243 145.88 15.0667 145.829 15.2038C145.824 15.2288 145.837 15.2612 145.84 15.2886ZM137.427 1.6364C137.435 1.67629 137.438 1.71617 137.449 1.75606C137.47 1.83085 137.528 1.88571 137.614 1.92311C137.68 1.86078 137.715 1.79099 137.712 1.71619C137.71 1.6763 137.702 1.63639 137.691 1.5965C137.67 1.52171 137.611 1.46688 137.526 1.42948C137.459 1.48932 137.427 1.55911 137.427 1.6364ZM186.41 34.3034C186.386 34.3358 186.362 34.3682 186.336 34.3982C186.408 34.4705 186.474 34.4929 186.525 34.453C186.557 34.4281 186.576 34.3907 186.6 34.3583C186.528 34.286 186.464 34.266 186.41 34.3034ZM184.752 34.6425C184.786 34.6649 184.819 34.6948 184.856 34.7098C184.917 34.7347 184.973 34.6923 185.016 34.6026C184.981 34.5801 184.949 34.5502 184.912 34.5353C184.85 34.5103 184.794 34.5527 184.752 34.6425ZM185.802 34.1862C185.784 34.2461 185.821 34.2959 185.92 34.3383C185.944 34.3059 185.976 34.276 185.992 34.2411C186.018 34.1837 185.973 34.1314 185.877 34.0915C185.85 34.1214 185.826 34.1538 185.802 34.1862ZM180.173 31.4987C180.155 31.5585 180.192 31.6084 180.291 31.6508C180.315 31.6183 180.347 31.5884 180.363 31.5535C180.389 31.4962 180.344 31.4438 180.248 31.4039C180.221 31.4339 180.197 31.4663 180.173 31.4987ZM172.505 13.8575C172.481 13.89 172.457 13.9224 172.43 13.9523C172.502 14.0246 172.569 14.047 172.619 14.0071C172.651 13.9822 172.67 13.9448 172.694 13.9124C172.622 13.8401 172.558 13.8202 172.505 13.8575ZM165.159 4.49846C165.223 4.51592 165.276 4.48103 165.321 4.38878C165.287 4.36634 165.255 4.33642 165.217 4.32146C165.156 4.29653 165.1 4.33893 165.057 4.42868C165.092 4.45361 165.127 4.47603 165.159 4.49846ZM161.258 3.91259C161.234 3.945 161.21 3.97741 161.183 4.00733C161.255 4.07963 161.321 4.10206 161.372 4.06217C161.404 4.03724 161.423 3.99984 161.447 3.96743C161.375 3.89513 161.311 3.87769 161.258 3.91259ZM134.803 1.6339C134.779 1.66631 134.755 1.69872 134.729 1.72864C134.801 1.80094 134.867 1.82337 134.918 1.78348C134.95 1.75855 134.969 1.72115 134.993 1.68874C134.921 1.61644 134.857 1.599 134.803 1.6339ZM3.08198 21.9177C3.04731 21.8953 3.01268 21.8729 2.98068 21.8479C2.90335 21.9152 2.87936 21.9776 2.92203 22.0249C2.94869 22.0548 2.98866 22.0723 3.02332 22.0947C3.10332 22.0274 3.12197 21.9676 3.08198 21.9177Z" fill="#FFE492"/>
<path d="M18.5473 13.1141C18.2406 13.1614 17.9367 13.2212 17.63 13.2511C17.4674 13.2661 17.4087 13.3732 17.3421 13.4729C17.2888 13.5526 17.2274 13.5775 17.1288 13.5925C16.2968 13.7146 15.4675 13.8442 14.6382 13.9713C14.5342 13.9389 14.4836 13.8865 14.5076 13.8243C14.5209 13.7869 14.5529 13.7345 14.5849 13.7296C15.1529 13.6374 15.7181 13.5427 16.2888 13.4704C16.4514 13.4505 16.4968 13.3408 16.5794 13.2511C16.6061 13.2212 16.6275 13.1764 16.6621 13.1589C16.6968 13.139 16.7474 13.1415 16.7928 13.1365C17.71 12.9945 18.6273 12.8549 19.5446 12.7129C19.6486 12.7453 19.6993 12.7976 19.6753 12.8599C19.6619 12.8973 19.6299 12.9496 19.5979 12.9546C19.2459 13.0069 18.8966 13.0593 18.5473 13.1141Z" fill="#FFE492"/>
<path d="M186.445 26.39C186.307 26.4199 186.131 26.4623 185.987 26.3177C185.917 26.248 185.843 26.2255 185.752 26.2405C185.621 26.2654 185.488 26.2853 185.355 26.3003C185.32 26.3028 185.275 26.2754 185.24 26.2529C185.165 26.2081 185.101 26.1333 185.021 26.1134C184.941 26.0935 184.845 26.1483 184.763 26.1358C184.653 26.1184 184.608 26.0511 184.637 25.9888C184.653 25.9539 184.685 25.9041 184.72 25.8966C185.213 25.8044 185.216 25.8044 185.355 25.8941C185.461 25.9639 185.56 26.0411 185.712 25.9988C185.84 25.9639 185.976 25.9564 186.107 25.934C186.288 25.9041 186.288 25.9066 186.581 26.0635C186.656 26.1034 186.736 26.1009 186.832 26.0785C186.915 26.0611 186.995 26.1009 187.061 26.1682C187.019 26.2529 186.957 26.3078 186.875 26.3227C186.741 26.3476 186.611 26.3651 186.445 26.39Z" fill="#FFE492"/>
<path d="M181.536 25.6223C181.872 25.57 182.211 25.5252 182.547 25.4654C182.686 25.4405 182.795 25.4679 182.891 25.5526C182.995 25.6448 183.112 25.6373 183.24 25.6199C183.32 25.6099 183.398 25.6497 183.451 25.7195C183.472 25.7469 183.467 25.7968 183.475 25.8367C183.182 25.8815 182.886 25.9288 182.59 25.9687C182.555 25.9737 182.512 25.9488 182.48 25.9289C182.408 25.8865 182.347 25.8117 182.27 25.7968C182.104 25.7619 181.939 25.8292 181.771 25.8416C181.691 25.8466 181.614 25.8093 181.56 25.742C181.539 25.7096 181.544 25.6622 181.536 25.6223Z" fill="#FFE492"/>
<path d="M60.1185 4.18636C60.4678 4.13154 60.8171 4.07924 61.1664 4.02441C61.2704 4.0593 61.3184 4.10913 61.2971 4.17143C61.2837 4.2088 61.2517 4.26113 61.2197 4.26612C60.5211 4.37825 59.8225 4.48539 59.1266 4.59254C59.0226 4.55765 58.9746 4.50782 58.9959 4.44552C59.0093 4.40815 59.0413 4.35582 59.0733 4.35083C59.4199 4.29352 59.7692 4.24118 60.1185 4.18636Z" fill="#FFE492"/>
<path d="M6.29217 18.0404C6.13496 18.0454 5.96979 18.1376 5.79392 18.0678C5.75928 18.0553 5.71131 18.0155 5.71397 17.993C5.7193 17.9556 5.75128 17.9083 5.78592 17.8933C5.9378 17.831 6.12701 17.8236 6.20428 17.6491C6.24158 17.5594 6.31086 17.5296 6.40412 17.5121C6.50271 17.4922 6.57197 17.4996 6.64924 17.552C6.7505 17.6192 6.83577 17.7438 6.99565 17.679C7.00364 17.7189 7.02225 17.7638 7.01425 17.8011C7.00626 17.8385 6.97168 17.8734 6.9397 17.9008C6.91039 17.9257 6.87039 17.9482 6.83308 17.9556C6.65722 17.9855 6.48135 18.0105 6.29217 18.0404Z" fill="#FFE492"/>
<path d="M144.971 17.5393C145.102 17.5194 145.238 17.5094 145.366 17.4746C145.467 17.4471 145.531 17.4646 145.611 17.5244C145.747 17.629 145.755 17.6191 146.088 17.634C146.125 17.6365 146.171 17.6739 146.192 17.7063C146.206 17.7237 146.187 17.7711 146.171 17.796C146.147 17.8284 146.112 17.8707 146.08 17.8707C145.869 17.8782 145.656 18.0253 145.451 17.8558C145.347 17.7711 145.232 17.7312 145.091 17.7686C145.006 17.791 144.915 17.801 144.827 17.8109C144.742 17.8209 144.654 17.7935 144.6 17.7187C144.523 17.6091 144.568 17.5668 144.707 17.5742C144.795 17.5792 144.883 17.5518 144.971 17.5393Z" fill="#FFE492"/>
<path d="M193.297 34.7252C193.465 34.7003 193.633 34.6704 193.804 34.6505C193.838 34.6455 193.881 34.6729 193.913 34.6904C194.041 34.7651 194.022 34.8922 194.027 35.0043C194.03 35.1214 193.734 35.2161 193.609 35.1364C193.471 35.0467 193.345 34.9445 193.153 34.9994C193.079 35.0193 192.991 34.9744 192.943 34.9022C192.871 34.7975 192.911 34.7551 193.047 34.7626C193.127 34.7676 193.212 34.7402 193.297 34.7252Z" fill="#FFE492"/>
<path d="M108.642 0.791537C108.815 0.764126 108.989 0.721785 109.162 0.719294C109.263 0.716802 109.314 0.799017 109.29 0.858822C109.276 0.8962 109.244 0.94853 109.212 0.953514C108.866 1.01332 108.52 1.06316 108.173 1.11799C108.072 1.0831 108.021 1.03078 108.045 0.970974C108.059 0.933596 108.091 0.883758 108.123 0.876282C108.296 0.841396 108.469 0.818947 108.642 0.791537Z" fill="#FFE492"/>
<path d="M189.972 26.6093C190.14 26.5843 190.31 26.5469 190.478 26.5345C190.566 26.5295 190.636 26.5868 190.646 26.6516C190.652 26.6815 190.609 26.7338 190.574 26.7463C190.335 26.831 190.076 26.841 189.826 26.8833C189.746 26.8958 189.66 26.8559 189.612 26.7862C189.54 26.679 189.58 26.6392 189.716 26.6466C189.802 26.6491 189.887 26.6217 189.972 26.6093Z" fill="#FFE492"/>
<path d="M149.376 17.8766C149.461 17.8642 149.549 17.8318 149.631 17.8417C149.719 17.8542 149.775 17.9264 149.802 17.9987C149.831 18.0809 149.829 18.1582 149.802 18.228C149.759 18.3476 149.717 18.3426 149.618 18.2629C149.466 18.1383 149.455 18.1532 149.154 18.1582C149.12 18.1582 149.077 18.1208 149.05 18.0884C149.01 18.0386 149.032 17.9613 149.125 17.9165C149.194 17.8841 149.29 17.8891 149.376 17.8766Z" fill="#FFE492"/>
<path d="M183.725 25.7917C183.851 25.7717 183.976 25.7393 184.101 25.7393C184.189 25.7368 184.258 25.7941 184.266 25.8564C184.269 25.8863 184.229 25.9362 184.197 25.9511C184.045 26.0184 183.875 26.0234 183.709 26.0458C183.632 26.0558 183.547 26.0159 183.499 25.9461C183.427 25.8415 183.47 25.7941 183.6 25.8091C183.64 25.8141 183.683 25.7991 183.725 25.7917Z" fill="#FFE492"/>
<path d="M164.001 22.733C163.815 22.7629 163.639 22.7255 163.652 22.6607C163.671 22.576 163.748 22.5212 163.828 22.5062C163.956 22.4813 164.084 22.4614 164.214 22.4464C164.297 22.4365 164.372 22.4738 164.438 22.5386C164.398 22.6184 164.337 22.6757 164.257 22.6931C164.174 22.7106 164.086 22.7205 164.001 22.733Z" fill="#FFE492"/>
<path d="M162.777 22.4142C162.903 22.3943 163.028 22.3619 163.153 22.3619C163.241 22.3594 163.31 22.4167 163.318 22.479C163.321 22.5089 163.281 22.5587 163.249 22.5737C163.097 22.641 162.927 22.646 162.761 22.6684C162.684 22.6784 162.599 22.6385 162.551 22.5687C162.479 22.4641 162.522 22.4167 162.652 22.4317C162.692 22.4367 162.735 22.4217 162.777 22.4142Z" fill="#FFE492"/>
<path d="M147.864 17.8562C147.989 17.8363 148.114 17.8038 148.239 17.8013C148.327 17.7989 148.396 17.8562 148.404 17.9185C148.407 17.9484 148.367 17.9957 148.335 18.0132C148.183 18.0805 148.013 18.0854 147.848 18.1079C147.77 18.1178 147.685 18.078 147.637 18.0082C147.565 17.9035 147.608 17.8562 147.738 17.8711C147.778 17.8761 147.821 17.8612 147.864 17.8562Z" fill="#FFE492"/>
<path d="M147.162 17.7096C147.295 17.6897 147.338 17.6772 147.381 17.6772C147.46 17.6772 147.543 17.7072 147.591 17.7794C147.663 17.8841 147.62 17.914 147.49 17.919C147.322 17.924 147.157 17.9763 146.989 17.9863C146.901 17.9912 146.832 17.9314 146.826 17.8691C146.824 17.8392 146.864 17.7869 146.896 17.7769C147.007 17.7395 147.13 17.7171 147.162 17.7096Z" fill="#FFE492"/>
<path d="M161.692 3.04243C161.606 3.05489 161.516 3.08978 161.436 3.07732C161.329 3.05988 161.287 2.9926 161.313 2.93031C161.329 2.89542 161.359 2.84559 161.391 2.83811C161.561 2.80322 161.734 2.78078 161.905 2.75586C162.006 2.79324 162.051 2.84556 162.025 2.90786C162.009 2.94275 161.98 2.99009 161.948 3.00006C161.865 3.02498 161.777 3.02997 161.692 3.04243Z" fill="#FFE492"/>
<path d="M58.2054 4.48109C58.288 4.4786 58.3626 4.51099 58.4265 4.57329C58.3865 4.65303 58.3279 4.70536 58.248 4.72778C58.208 4.73775 58.1627 4.74521 58.1201 4.74771C58.0375 4.75269 57.9629 4.71781 57.8989 4.65551C57.9389 4.57577 58.0002 4.52344 58.0774 4.50101C58.1174 4.49105 58.1628 4.48857 58.2054 4.48109Z" fill="#FFE492"/>
<path d="M189.061 26.5993C189.059 26.5271 189.221 26.4448 189.368 26.4473C189.445 26.4498 189.525 26.4847 189.57 26.552C189.64 26.6542 189.599 26.694 189.469 26.6865C189.389 26.6815 189.304 26.7239 189.224 26.7164C189.133 26.7139 189.08 26.6591 189.061 26.5993Z" fill="#FFE492"/>
<path d="M150.148 18.1775C150.146 18.1501 150.132 18.1177 150.14 18.0928C150.191 17.9557 150.498 17.9134 150.577 18.033C150.591 18.0554 150.596 18.0928 150.585 18.1152C150.57 18.1501 150.54 18.1949 150.508 18.2049C150.426 18.2298 150.34 18.2423 150.255 18.2448C150.218 18.2448 150.183 18.2024 150.148 18.1775Z" fill="#FFE492"/>
<path d="M7.24116 17.6417C6.92674 17.694 6.92142 17.689 6.97737 17.5644C7.028 17.4523 7.12127 17.385 7.25717 17.385C7.29713 17.385 7.33975 17.3801 7.37439 17.39C7.4117 17.4025 7.46502 17.4274 7.47301 17.4573C7.489 17.5146 7.44366 17.5769 7.36372 17.6193C7.32908 17.6392 7.2838 17.6342 7.24116 17.6417Z" fill="#FFE492"/>
<path d="M62.1444 4.12967C62.0512 4.17203 61.9713 4.15709 61.9126 4.07735C61.854 3.99761 61.9473 3.90291 62.1098 3.88048C62.1524 3.8755 62.1977 3.85558 62.2377 3.86555C62.2777 3.87302 62.3177 3.9029 62.3417 3.9328C62.3843 3.98264 62.3576 4.04994 62.2724 4.10725C62.2377 4.12968 62.1871 4.12468 62.1444 4.12967Z" fill="#FFE492"/>
<path d="M188.506 26.4121C188.53 26.3797 188.554 26.3473 188.58 26.3174C188.679 26.3597 188.721 26.4096 188.695 26.4669C188.679 26.5018 188.647 26.5317 188.623 26.5641C188.524 26.5217 188.484 26.4694 188.506 26.4121Z" fill="#FFE492"/>
<path d="M11.4656 46.0233C11.4656 45.9934 11.5029 45.9461 11.5322 45.9361C11.5881 45.9186 11.6574 45.9535 11.7054 46.0233C11.772 46.123 11.732 46.1753 11.6095 46.1479C11.5242 46.128 11.4656 46.0781 11.4656 46.0233Z" fill="#FFE492"/>
<path d="M151.234 15.8569C151.268 15.8793 151.303 15.9017 151.335 15.9267C151.29 16.0189 151.234 16.0587 151.175 16.0338C151.138 16.0188 151.106 15.9889 151.071 15.9665C151.117 15.8743 151.17 15.8394 151.234 15.8569Z" fill="#FFE492"/>
<path d="M150.312 15.745C150.365 15.7076 150.429 15.7276 150.504 15.7999C150.48 15.8323 150.458 15.8696 150.429 15.8946C150.378 15.9344 150.312 15.9145 150.24 15.8397C150.261 15.8098 150.285 15.7774 150.312 15.745Z" fill="#FFE492"/>
<path d="M149.605 15.8548C149.64 15.8773 149.674 15.8997 149.706 15.9246C149.661 16.0168 149.608 16.0567 149.546 16.0317C149.509 16.0168 149.477 15.9869 149.442 15.9645C149.488 15.8723 149.541 15.8349 149.605 15.8548Z" fill="#FFE492"/>
<path d="M149.084 15.7226C149.124 15.7724 149.103 15.8322 149.026 15.8995C148.991 15.8771 148.951 15.8597 148.925 15.8298C148.882 15.7824 148.903 15.7201 148.983 15.6528C149.015 15.6778 149.05 15.7002 149.084 15.7226Z" fill="#FFE492"/>
</svg>
