<svg width="120" height="27" viewBox="0 0 120 27" fill="none" xmlns="http://www.w3.org/2000/svg">
<path d="M111.943 14.5931C111.78 14.6147 111.615 14.6296 111.455 14.662C111.351 14.6823 111.307 14.6229 111.238 14.5918C111.215 14.581 111.19 14.5593 111.168 14.562C111.007 14.5837 110.845 14.608 110.684 14.6323C110.634 14.685 110.603 14.7553 110.527 14.7809C110.453 14.8052 110.366 14.8052 110.283 14.8174C110.174 14.8323 110.066 14.8471 109.957 14.8607C109.903 14.8674 109.858 14.8931 109.84 14.9417C109.837 14.9498 109.873 14.9701 109.893 14.9822C109.959 15.0228 110.023 15.0687 110.095 15.0998C110.165 15.1295 110.25 15.0809 110.324 15.1187C110.491 15.2038 110.493 15.2025 110.62 15.1863C110.728 15.1714 110.837 15.1552 110.946 15.1444C110.967 15.1417 110.992 15.1619 111.015 15.1727C111.084 15.2025 111.129 15.27 111.231 15.2444C111.309 15.2241 111.394 15.22 111.475 15.2092C111.543 15.2484 111.605 15.293 111.678 15.3241C111.745 15.3538 111.765 15.3768 111.729 15.416C111.696 15.4524 111.65 15.4673 111.589 15.47C111.534 15.4714 111.48 15.4835 111.426 15.4903C111.398 15.4943 111.371 15.497 111.345 15.5011C111.241 15.5159 111.241 15.5159 111.051 15.4295C110.977 15.3957 110.893 15.443 110.822 15.4105C110.774 15.3889 110.733 15.3565 110.687 15.3335C110.667 15.3241 110.636 15.3227 110.611 15.3254C110.529 15.3349 110.446 15.3416 110.367 15.3592C110.311 15.3714 110.278 15.4092 110.285 15.447C110.287 15.4619 110.326 15.4835 110.349 15.4849C110.402 15.4876 110.458 15.4686 110.509 15.4781C110.559 15.4876 110.61 15.5146 110.646 15.5443C110.72 15.6065 110.804 15.5511 110.875 15.5673C110.949 15.5848 111.01 15.6389 111.081 15.6713C111.099 15.6794 111.134 15.6659 111.162 15.6619C111.243 15.6524 111.323 15.6443 111.404 15.6348C111.472 15.674 111.544 15.7091 111.605 15.7537C111.716 15.8348 111.834 15.8659 111.978 15.8267C112.059 15.8051 112.138 15.8132 112.202 15.8659C112.268 15.9199 112.344 15.9145 112.428 15.9037C112.505 15.8929 112.584 15.8632 112.663 15.901C112.835 15.9848 112.837 15.9888 113.039 15.9564C113.1 15.9469 113.146 15.9442 113.193 15.9753C113.235 16.0037 113.282 16.028 113.326 16.055C113.407 16.0456 113.489 16.0361 113.57 16.0253C113.674 16.0104 113.732 16.0294 113.756 16.105C113.771 16.151 113.778 16.1928 113.814 16.2239C113.857 16.2618 113.903 16.2604 113.966 16.2496C114.025 16.2401 114.068 16.2253 114.093 16.1766C114.102 16.1564 114.122 16.1374 114.14 16.1212C114.155 16.1091 114.178 16.0902 114.192 16.0929C114.216 16.0983 114.249 16.1131 114.257 16.1307C114.338 16.2942 114.338 16.2955 114.421 16.3428C114.511 16.3955 114.605 16.4428 114.688 16.5022C114.762 16.5549 114.836 16.532 114.917 16.532C114.978 16.532 115.017 16.5671 115.012 16.6022C115.009 16.6225 114.986 16.6522 114.966 16.6549C114.805 16.6819 114.642 16.7049 114.478 16.7238C114.459 16.7265 114.434 16.7022 114.411 16.69C114.365 16.6657 114.323 16.6279 114.274 16.6198C114.224 16.6117 114.167 16.632 114.112 16.6387C114.058 16.6455 114 16.663 113.951 16.6522C113.901 16.6414 113.862 16.6022 113.816 16.5766C113.794 16.5644 113.765 16.5468 113.746 16.5509C113.626 16.5833 113.537 16.5387 113.451 16.4793C113.433 16.4671 113.402 16.459 113.379 16.4617C113.188 16.4847 112.998 16.5117 112.807 16.5374C112.729 16.5482 112.667 16.5009 112.65 16.4212C112.642 16.3766 112.626 16.332 112.626 16.2874C112.626 16.2064 112.535 16.1618 112.469 16.1712C112.36 16.1847 112.25 16.1955 112.143 16.2158C112.055 16.232 111.981 16.2158 111.922 16.1672C111.852 16.1118 111.773 16.1226 111.694 16.1374C111.635 16.1483 111.618 16.1928 111.622 16.305C111.625 16.3955 111.597 16.4239 111.49 16.4387C111.355 16.4577 111.218 16.4766 111.081 16.4914C111.06 16.4941 111.035 16.4712 111.013 16.459C110.967 16.4347 110.926 16.3955 110.877 16.3874C110.827 16.3779 110.77 16.3982 110.715 16.4063C110.661 16.4131 110.603 16.432 110.554 16.4225C110.504 16.4131 110.463 16.3725 110.418 16.3469C110.397 16.3347 110.371 16.3171 110.349 16.3198C110.24 16.3307 110.132 16.3469 110.023 16.3617C109.901 16.378 109.901 16.378 109.728 16.2942C109.649 16.2564 109.57 16.2861 109.492 16.2969C109.41 16.3077 109.332 16.3131 109.268 16.2591C109.225 16.2239 109.177 16.2023 109.126 16.2091C108.989 16.2253 108.854 16.2455 108.717 16.2618C108.694 16.2645 108.663 16.2577 108.645 16.2455C108.557 16.1888 108.472 16.1442 108.35 16.1726C108.244 16.1969 108.131 16.1982 108.025 16.2212C107.967 16.2334 107.941 16.2766 107.952 16.3104C107.959 16.328 107.994 16.3482 108.017 16.3482C108.07 16.3496 108.127 16.3293 108.177 16.3374C108.279 16.3536 108.33 16.4671 108.463 16.436C108.543 16.4171 108.625 16.4104 108.707 16.405C108.729 16.4036 108.752 16.4293 108.775 16.4428C108.841 16.4793 108.899 16.5266 108.994 16.5022C109.073 16.4833 109.157 16.4779 109.238 16.4671C109.367 16.4496 109.367 16.4509 109.533 16.5333C109.612 16.5725 109.691 16.5414 109.769 16.532C109.827 16.5252 109.881 16.5117 109.927 16.5306C109.998 16.559 110.049 16.6238 110.137 16.6198C110.219 16.6157 110.3 16.5968 110.382 16.5901C110.433 16.586 110.481 16.6076 110.522 16.6441C110.565 16.6806 110.611 16.6968 110.667 16.6887C110.748 16.6779 110.83 16.6644 110.913 16.6576C110.936 16.6563 110.962 16.6684 110.984 16.6792C111.03 16.7036 111.074 16.7319 111.119 16.7576C111.2 16.7495 111.282 16.7468 111.361 16.7306C111.422 16.7184 111.465 16.7238 111.515 16.7509C111.577 16.7873 111.628 16.8522 111.731 16.8211C111.782 16.8063 111.841 16.8103 111.892 16.7968C111.955 16.7792 111.998 16.786 112.042 16.8265C112.126 16.9035 112.232 16.9049 112.34 16.8752C112.459 16.8427 112.548 16.8806 112.637 16.94C112.731 17.0022 112.731 17.0008 112.804 17.1508C112.825 17.194 112.886 17.2143 112.937 17.2062C113.023 17.1927 113.097 17.1994 113.16 17.2508C113.226 17.3062 113.305 17.2994 113.385 17.2845C113.493 17.2643 113.6 17.2467 113.687 17.3251C113.73 17.3629 113.776 17.3724 113.834 17.3629C113.997 17.3386 114.162 17.3237 114.322 17.294C114.419 17.2751 114.475 17.3183 114.541 17.3548C114.63 17.4048 114.727 17.4494 114.727 17.5561C114.727 17.5737 114.75 17.5939 114.77 17.6075C114.813 17.6358 114.859 17.6601 114.904 17.6872C114.97 17.7277 115.034 17.7615 115.124 17.7399C115.204 17.7223 115.288 17.7169 115.368 17.7047C115.449 17.6926 115.523 17.6858 115.596 17.7372C115.68 17.7953 115.769 17.8507 115.865 17.8939C115.932 17.925 116.021 17.8723 116.094 17.9142C116.138 17.9398 116.181 17.9696 116.229 17.9912C116.249 18.0006 116.28 17.9939 116.306 17.9912C116.361 17.9858 116.417 17.9817 116.47 17.9682C116.531 17.9534 116.577 17.9561 116.623 17.9871C116.666 18.0155 116.709 18.0547 116.758 18.0628C116.832 18.0749 116.915 18.0209 116.989 18.0831C117.027 18.1141 117.074 18.1439 117.124 18.1533C117.173 18.1628 117.231 18.1425 117.284 18.1438C117.307 18.1438 117.335 18.1655 117.348 18.183C117.356 18.1925 117.345 18.2182 117.333 18.2317C117.318 18.2479 117.297 18.2695 117.276 18.2722C117.112 18.2965 116.949 18.3168 116.786 18.3398C116.689 18.3533 116.689 18.3533 116.493 18.2682C116.446 18.2479 116.395 18.2519 116.338 18.2614C116.26 18.2736 116.181 18.2965 116.1 18.2722C115.995 18.1803 115.865 18.1722 115.726 18.2073C115.668 18.2222 115.616 18.2222 115.573 18.1965C115.482 18.1452 115.387 18.0979 115.306 18.0371C115.243 17.9898 115.214 17.9858 115.187 18.0506C115.179 18.0709 115.171 18.0925 115.172 18.1114C115.182 18.179 115.2 18.2452 115.21 18.3127C115.213 18.3317 115.2 18.3533 115.192 18.3735C115.166 18.4303 115.131 18.4262 115.073 18.3789C115.016 18.3317 114.946 18.3006 114.854 18.3222C114.775 18.3411 114.689 18.3384 114.61 18.3587C114.488 18.3884 114.403 18.3452 114.315 18.2871C114.297 18.2749 114.266 18.2682 114.243 18.2709C113.997 18.3019 113.753 18.3371 113.507 18.3681C113.455 18.3749 113.407 18.3546 113.366 18.3181C113.323 18.2817 113.275 18.2628 113.222 18.2695C113.005 18.2979 112.787 18.3236 112.57 18.3587C112.481 18.3736 112.41 18.356 112.349 18.3087C112.303 18.2736 112.26 18.2628 112.202 18.2668C112.139 18.2709 112.095 18.2844 112.063 18.3236C112.034 18.3614 112.055 18.3843 112.121 18.4141C112.192 18.4465 112.258 18.4884 112.326 18.5262C112.38 18.5208 112.434 18.51 112.487 18.5113C112.51 18.5113 112.532 18.5357 112.555 18.5492C112.621 18.5884 112.682 18.6276 112.776 18.6059C112.855 18.587 112.939 18.583 113.02 18.5708C113.132 18.5559 113.132 18.5559 113.313 18.6411C113.359 18.6627 113.409 18.6613 113.468 18.6492C113.519 18.6397 113.572 18.6586 113.608 18.6992C113.623 18.7154 113.618 18.7424 113.587 18.8316C113.587 18.8978 113.621 18.8681 113.633 18.8248C113.651 18.7627 113.616 18.7424 113.55 18.7762C113.504 18.8005 113.481 18.8356 113.493 18.864C113.499 18.8789 113.531 18.8978 113.587 18.8316C113.732 18.7505 113.842 18.741 113.948 18.7194C114.01 18.7073 114.05 18.7127 114.099 18.7478C114.159 18.7897 114.218 18.8343 114.315 18.8127C114.421 18.7883 114.533 18.7856 114.64 18.7654C114.739 18.7464 114.79 18.8059 114.853 18.841C114.928 18.8829 115.012 18.8356 115.082 18.8599C115.154 18.8843 115.205 18.9437 115.289 18.9545C115.411 18.918 115.489 18.9856 115.581 19.0302C115.654 19.064 115.739 19.0342 115.817 19.0194C115.904 19.0032 115.977 19.018 116.038 19.0667C116.107 19.1221 116.184 19.1099 116.264 19.0977C116.448 19.0707 116.455 19.0667 116.562 19.141C116.639 19.195 116.714 19.1707 116.791 19.1639C116.859 19.2004 116.924 19.2396 116.995 19.272C117.014 19.2801 117.048 19.2666 117.076 19.2626C117.157 19.2518 117.239 19.241 117.32 19.2302C117.374 19.2234 117.432 19.2031 117.482 19.2112C117.531 19.2207 117.572 19.2599 117.617 19.2856C117.661 19.3112 117.707 19.3369 117.75 19.3639C117.816 19.4044 117.879 19.4382 117.971 19.418C118.05 19.4004 118.133 19.395 118.215 19.3828C118.319 19.368 118.316 19.372 118.509 19.4531C118.612 19.4977 118.72 19.4436 118.825 19.4382C118.878 19.4355 118.929 19.4504 118.965 19.4896C118.98 19.5058 118.975 19.5328 118.98 19.5558C118.708 19.5923 118.434 19.6233 118.166 19.6679C118.062 19.6855 118.007 19.6368 117.951 19.5963C117.859 19.5314 117.737 19.626 117.65 19.5422C117.597 19.4923 117.521 19.4639 117.431 19.4882C117.378 19.5017 117.322 19.5004 117.267 19.5125C117.129 19.5423 117.002 19.5436 116.892 19.4504C116.854 19.418 116.799 19.4004 116.76 19.3693C116.714 19.3355 116.669 19.3166 116.615 19.3234C116.369 19.3558 116.125 19.3882 115.881 19.4233C115.86 19.4261 115.838 19.4463 115.82 19.4612C115.774 19.499 115.789 19.5287 115.863 19.5531C115.888 19.5612 115.907 19.5787 115.931 19.5922C115.975 19.6179 116.016 19.6585 116.066 19.6679C116.115 19.6774 116.173 19.6585 116.227 19.6517C116.282 19.6449 116.339 19.6247 116.389 19.6328C116.438 19.6422 116.479 19.6814 116.526 19.7057C116.547 19.7179 116.573 19.7382 116.595 19.7368C116.704 19.7287 116.811 19.7138 116.92 19.7017C116.987 19.7382 117.045 19.7909 117.126 19.803C117.177 19.8111 117.231 19.7963 117.284 19.799C117.307 19.8003 117.337 19.8206 117.348 19.8382C117.355 19.849 117.333 19.876 117.317 19.8895C117.254 19.9408 117.168 19.9314 117.091 19.9476C117.007 19.9651 116.931 19.9598 116.867 19.9071C116.824 19.8719 116.776 19.853 116.723 19.8598C116.587 19.8773 116.451 19.8976 116.315 19.9125C116.291 19.9152 116.263 19.903 116.242 19.8936C116.069 19.8111 116.069 19.8084 115.947 19.826C115.767 19.8517 115.767 19.8517 115.647 19.78C115.624 19.7665 115.599 19.7409 115.579 19.7422C115.388 19.7638 115.199 19.7855 115.009 19.8165C114.946 19.826 114.904 19.826 114.857 19.7909C114.818 19.7611 114.772 19.7274 114.722 19.7193C114.671 19.7111 114.615 19.7314 114.561 19.7382C114.506 19.7449 114.449 19.7625 114.401 19.7517C114.351 19.7409 114.309 19.703 114.266 19.676C114.221 19.6477 114.173 19.649 114.112 19.6598C113.924 19.6909 113.923 19.6868 113.737 19.6031C113.715 19.5936 113.687 19.5828 113.664 19.5855C113.527 19.6017 113.392 19.622 113.255 19.6382C113.203 19.6449 113.151 19.6274 113.115 19.5882C113.1 19.572 113.105 19.545 113.095 19.4923C113.084 19.4801 113.097 19.5017 113.1 19.522C113.125 19.5193 113.155 19.522 113.173 19.5112C113.219 19.4855 113.242 19.4517 113.231 19.4233C113.224 19.4085 113.193 19.3896 113.173 19.3896C113.137 19.3896 113.105 19.4193 113.095 19.4923C112.992 19.5368 112.881 19.5463 112.774 19.5679C112.711 19.5814 112.672 19.5747 112.622 19.5396C112.563 19.4963 112.502 19.4544 112.405 19.476C112.299 19.5004 112.187 19.5044 112.078 19.5233C111.953 19.545 111.899 19.4234 111.793 19.4261C111.684 19.4288 111.576 19.4517 111.467 19.4679C111.371 19.4815 111.371 19.4815 111.173 19.3936C111.101 19.3612 111.015 19.4085 110.944 19.3747C110.896 19.3531 110.855 19.3207 110.809 19.2977C110.789 19.2882 110.758 19.2882 110.733 19.2909C110.596 19.3072 110.458 19.318 110.326 19.3477C110.176 19.3828 110.062 19.345 109.955 19.2653C109.82 19.2801 109.683 19.2882 109.55 19.3139C109.453 19.3328 109.396 19.2883 109.331 19.2518C109.307 19.2396 109.288 19.2193 109.263 19.2139C109.238 19.2085 109.209 19.2193 109.182 19.2234C109.073 19.2383 108.961 19.245 108.856 19.2693C108.726 19.3004 108.676 19.1896 108.576 19.1761C108.508 19.2423 108.472 19.3328 108.338 19.3396C108.229 19.345 108.121 19.3666 108.012 19.3815C107.957 19.3882 107.903 19.3963 107.849 19.4031C107.761 19.4153 107.72 19.4679 107.738 19.549C107.748 19.5936 107.756 19.6382 107.765 19.6828C107.781 19.7625 107.74 19.83 107.671 19.8395C107.479 19.8652 107.29 19.8922 107.099 19.9152C107.048 19.9219 106.998 19.8989 106.957 19.8625C106.914 19.826 106.866 19.8098 106.813 19.8165C106.622 19.8422 106.433 19.8692 106.241 19.8922C106.22 19.8949 106.192 19.8814 106.171 19.8706C106.124 19.8463 106.08 19.8179 106.035 19.7922C105.927 19.8044 105.82 19.8125 105.712 19.8287C105.539 19.853 105.539 19.8544 105.412 19.78C105.389 19.7665 105.366 19.7409 105.345 19.7422C105.262 19.7476 105.182 19.7611 105.099 19.7733C104.857 19.8084 104.857 19.8084 104.786 19.7679C104.722 19.7301 104.664 19.6841 104.567 19.7057C104.461 19.7301 104.349 19.7382 104.24 19.7517C104.16 19.7611 104.079 19.772 103.998 19.7747C103.977 19.776 103.954 19.7503 103.93 19.7368C103.865 19.6949 103.8 19.6612 103.71 19.6841C103.657 19.6976 103.601 19.7003 103.546 19.7071C103.405 19.726 103.405 19.726 103.172 19.6449C103.149 19.6368 103.121 19.6274 103.098 19.6314C102.907 19.6557 102.717 19.6828 102.526 19.7057C102.503 19.7084 102.475 19.7003 102.452 19.6936C102.191 19.6152 102.191 19.6152 101.915 19.653C101.809 19.6666 101.806 19.672 101.695 19.6004C101.646 19.5693 101.605 19.5544 101.547 19.5639C101.329 19.5963 101.11 19.6179 100.894 19.6558C100.797 19.672 100.741 19.6314 100.675 19.5949C100.652 19.5828 100.627 19.5558 100.607 19.5571C100.39 19.5828 100.172 19.6139 99.9546 19.6395C99.9349 19.6422 99.9101 19.6152 99.8871 19.6031C99.8426 19.5787 99.7997 19.5423 99.7503 19.5342C99.6992 19.526 99.6431 19.5463 99.5871 19.5531C99.4502 19.5706 99.4502 19.5693 99.292 19.4896C99.2706 19.4788 99.2426 19.4639 99.2211 19.4666C99.0035 19.4936 98.7843 19.5166 98.5684 19.5558C98.4448 19.5774 98.3607 19.5382 98.2733 19.4815C98.2552 19.4693 98.2239 19.4639 98.2008 19.4666C97.9552 19.4977 97.7113 19.5328 97.4657 19.5639C97.4146 19.5706 97.3651 19.5477 97.3239 19.5125C97.2579 19.4571 97.1805 19.4639 97.0981 19.476C96.9085 19.5044 96.9068 19.5031 96.7948 19.4382C96.7717 19.4247 96.7519 19.4071 96.7272 19.4004C96.7041 19.3936 96.6744 19.3977 96.6497 19.4004C96.5409 19.4139 96.4321 19.4288 96.3233 19.4436C96.2146 19.4585 96.1041 19.4666 95.9969 19.4896C95.8651 19.5179 95.8024 19.4301 95.7101 19.3896C95.575 19.4071 95.4365 19.418 95.303 19.4463C95.2008 19.4679 95.153 19.4085 95.0854 19.3774C95.0624 19.3666 95.0376 19.3436 95.0162 19.3463C94.7706 19.3761 94.525 19.4085 94.281 19.445C94.2217 19.4531 94.1821 19.4423 94.1327 19.4098C94.0222 19.3369 94.0173 19.3396 93.8327 19.3666C93.7519 19.3788 93.6744 19.3896 93.6052 19.3342C93.5442 19.2842 93.47 19.272 93.3827 19.2882C93.2755 19.3085 93.1651 19.3193 93.0563 19.3328C92.9475 19.3477 92.8387 19.368 92.7299 19.3747C92.6426 19.3815 92.5898 19.318 92.5206 19.2856C92.4992 19.2761 92.4695 19.2747 92.4448 19.2774C92.336 19.2896 92.2239 19.299 92.1184 19.322C91.9898 19.3504 91.9189 19.2761 91.8283 19.2329C91.8085 19.2234 91.7755 19.2288 91.7508 19.2329C91.5596 19.2572 91.37 19.2842 91.1788 19.3099C91.1112 19.2734 91.042 19.2383 90.9744 19.2018C90.8656 19.2153 90.7568 19.2301 90.648 19.2437C90.5656 19.2545 90.4816 19.2585 90.4041 19.2788C90.3035 19.3058 90.2541 19.2423 90.1865 19.2112C90.1634 19.2004 90.1387 19.1775 90.1173 19.1802C89.9805 19.195 89.8436 19.2112 89.7085 19.2342C89.5799 19.2572 89.5288 19.1356 89.4233 19.1369C89.3145 19.1383 89.2024 19.1558 89.0969 19.1802C88.975 19.2085 88.8892 19.1653 88.8019 19.1072C88.7838 19.095 88.7524 19.0883 88.7294 19.091C88.5926 19.1072 88.4574 19.1275 88.3206 19.1437C88.2975 19.1464 88.2695 19.1396 88.2464 19.1315C87.986 19.0518 87.986 19.0505 87.8722 19.0667C87.7915 19.0775 87.709 19.091 87.6266 19.0977C87.6035 19.1004 87.5755 19.0883 87.5541 19.0775C87.3826 18.9951 87.3826 18.9937 87.259 19.0099C87.1502 19.0248 87.0414 19.0396 86.9326 19.0545C86.8651 19.018 86.7958 18.9829 86.7282 18.9464C86.5931 18.964 86.4546 18.9775 86.3211 19.0018C86.2585 19.0126 86.2173 19.0086 86.1695 18.9748C86.1101 18.9343 86.0508 18.887 85.9519 18.9099C85.8464 18.9343 85.7343 18.937 85.6271 18.9572C85.4986 18.9815 85.4458 18.8586 85.342 18.8599C85.2332 18.8613 85.1211 18.8789 85.0156 18.9032C84.8936 18.9315 84.8079 18.8883 84.7206 18.8302C84.7024 18.8181 84.6711 18.8113 84.648 18.814C84.348 18.8532 84.0497 18.8924 83.7497 18.9342C83.5651 18.9599 83.5651 18.9613 83.214 18.887C83.1892 18.8816 83.1628 18.8762 83.1381 18.8789C83.0293 18.891 82.9172 18.9005 82.8117 18.9234C82.6832 18.9518 82.6123 18.8789 82.5216 18.8343C82.5018 18.8248 82.4705 18.8302 82.4442 18.8329C82.3617 18.8424 82.281 18.8545 82.1986 18.8654C82.0898 18.8802 81.981 18.8951 81.8722 18.9099C81.8046 18.8748 81.7354 18.8383 81.6678 18.8032C81.5326 18.8208 81.3942 18.8302 81.2607 18.8586C81.1585 18.8802 81.1106 18.8235 81.0431 18.791C81.02 18.7802 80.9953 18.7573 80.9738 18.7586C80.7282 18.7883 80.4826 18.8194 80.2387 18.8572C80.1381 18.8735 80.092 18.8126 80.0244 18.7816C80.0013 18.7721 79.9749 18.7546 79.9535 18.7573C79.7903 18.7762 79.6271 18.7991 79.464 18.8221C79.3717 18.8356 79.3717 18.8356 79.1705 18.7519C79.1475 18.7424 79.1211 18.7329 79.098 18.7356C78.5804 18.8032 78.0645 18.8748 77.5469 18.9424C77.4942 18.9491 77.4464 18.9289 77.4052 18.8924C77.3623 18.8559 77.3145 18.837 77.2617 18.8437C77.0442 18.8721 76.8249 18.8978 76.609 18.9329C76.52 18.9478 76.4491 18.9302 76.3881 18.8829C76.3419 18.8478 76.2991 18.8343 76.2414 18.8424C76.1326 18.8586 76.0238 18.8721 75.915 18.887C75.8063 18.9018 75.6975 18.9167 75.5887 18.9316C75.4799 18.9464 75.3694 18.9545 75.2623 18.9775C75.1304 19.0059 75.0661 18.9221 74.9755 18.8802C74.8123 18.9005 74.6491 18.9207 74.4875 18.9424C74.27 18.9707 74.0524 19.0018 73.8348 19.0288C73.815 19.0315 73.7903 19.0072 73.7672 18.9951C73.6996 18.9613 73.6502 18.914 73.5496 18.9289C73.0617 19.0005 72.5705 19.0613 72.081 19.1315C71.9788 19.1464 71.9342 19.0883 71.865 19.0572C71.8419 19.0477 71.8156 19.0288 71.7942 19.0315C71.5222 19.0653 71.2502 19.1031 70.9782 19.1396C70.8678 19.1545 70.8678 19.1545 70.6832 19.0707C70.6617 19.0613 70.6337 19.0491 70.6106 19.0518C70.2562 19.0977 69.9035 19.1464 69.5491 19.1937C69.4963 19.2004 69.4485 19.1815 69.4057 19.145C69.3645 19.1085 69.315 19.0883 69.2639 19.095C68.9375 19.1383 68.6095 19.1802 68.2848 19.2274C68.1974 19.241 68.1249 19.2288 68.0623 19.1802C68.0177 19.145 67.9733 19.1302 67.9172 19.1383C67.4277 19.2045 66.9381 19.268 66.4485 19.3382C66.3546 19.3518 66.2886 19.3261 66.2293 19.2815C66.1815 19.2464 66.1403 19.2396 66.0809 19.245C66.0183 19.2518 65.9804 19.2666 65.9458 19.3072C65.9013 19.3598 65.8733 19.4261 65.7678 19.4301C65.659 19.4342 65.5485 19.4504 65.4414 19.4734C65.3392 19.4963 65.2914 19.4355 65.2271 19.399C65.1793 19.3734 65.1348 19.3693 65.0738 19.3815C65.0178 19.3923 64.9831 19.4152 64.9502 19.4585C64.8776 19.5504 64.8711 19.5504 64.782 19.4923C64.7342 19.4612 64.6914 19.4369 64.6386 19.4423C64.421 19.4693 64.2035 19.499 63.9859 19.5301C63.8606 19.5477 63.859 19.5504 63.765 19.4828C63.7189 19.449 63.6743 19.4328 63.6199 19.4409C63.0216 19.522 62.4233 19.6004 61.8249 19.6855C61.7326 19.699 61.6699 19.6706 61.604 19.6301C61.5826 19.6166 61.5612 19.5976 61.5364 19.5922C61.5117 19.5868 61.4837 19.5922 61.4573 19.5949C61.0222 19.653 60.5853 19.7084 60.1518 19.7733C60.0529 19.7882 60.0002 19.7449 59.9326 19.7098C59.9095 19.6976 59.8897 19.6787 59.865 19.6733C59.8403 19.6693 59.8106 19.6787 59.7842 19.6828C59.349 19.7409 58.9122 19.7963 58.4787 19.8611C58.3749 19.876 58.3304 19.8192 58.2628 19.7895C58.2397 19.7787 58.215 19.7584 58.1936 19.7611C58.0568 19.776 57.9216 19.7963 57.7848 19.8138C57.4584 19.8584 57.132 19.9003 56.8056 19.9462C56.6803 19.9638 56.626 19.8435 56.5205 19.849C56.3836 19.8557 56.2485 19.8827 56.1117 19.9016C56.0029 19.9165 55.8941 19.93 55.7853 19.9462C55.6782 19.9611 55.6782 19.9611 55.4111 19.8827C55.388 19.876 55.36 19.8665 55.337 19.8692C54.9562 19.9192 54.5738 19.9692 54.1947 20.0233C54.1073 20.0354 54.0347 20.0287 53.9721 19.9787C53.9276 19.9435 53.8815 19.926 53.8271 19.9341C53.2551 20.0111 52.6847 20.0881 52.1128 20.1638C52.0913 20.1665 52.0633 20.153 52.0419 20.1422C51.9957 20.1178 51.9512 20.0895 51.9067 20.0638C51.8737 20.0949 51.8309 20.1232 51.8095 20.1584C51.7798 20.2057 51.7402 20.2192 51.6776 20.2273C51.615 20.2354 51.5754 20.2327 51.526 20.1976C51.4666 20.1543 51.4056 20.1205 51.3084 20.134C50.71 20.2192 50.1117 20.2962 49.5133 20.3799C49.4144 20.3935 49.3683 20.334 49.299 20.3029C49.276 20.2935 49.2496 20.2786 49.2281 20.2813C48.9825 20.3124 48.7386 20.3462 48.493 20.3786C47.8122 20.4705 47.1315 20.5583 46.4523 20.6556C46.3287 20.6731 46.2446 20.6394 46.1573 20.5813C46.1391 20.5691 46.1078 20.5623 46.0848 20.5651C45.132 20.6921 44.1792 20.8204 43.2281 20.9488C43.177 20.9555 43.1276 20.9339 43.0864 20.8988C43.0435 20.8623 42.9957 20.8447 42.943 20.8515C42.5078 20.9096 42.0727 20.9677 41.6375 21.0271C41.5287 21.042 41.527 21.0433 41.4149 20.9785C41.3919 20.965 41.3672 20.9393 41.349 20.942C41.3111 20.9488 41.2748 20.9825 41.2485 21.0285C41.2221 21.0771 41.1809 21.0906 41.1199 21.1001C41.0572 21.1095 41.016 21.1055 40.9682 21.0731C40.9073 21.0325 40.8512 20.9934 40.7523 21.0069C39.5012 21.1798 38.2501 21.346 36.999 21.5176C36.8984 21.5311 36.8523 21.4744 36.783 21.4433C36.76 21.4338 36.7369 21.4203 36.7122 21.4176C36.6858 21.4149 36.6578 21.423 36.6314 21.4271C34.5907 21.7013 32.5501 21.977 30.5094 22.2512C30.3875 22.2675 30.3891 22.2675 30.2556 22.3918C30.2391 22.4066 30.2177 22.4269 30.1946 22.4296C29.5698 22.5161 28.9435 22.5998 28.3171 22.6836C28.0451 22.7201 27.7732 22.7579 27.5012 22.793C27.4039 22.8052 27.4039 22.8052 27.1715 22.9511C27.1517 22.9633 27.1286 22.9795 27.1056 22.9822C26.0176 23.1295 24.9297 23.2767 23.8402 23.4213C23.7544 23.4321 23.6852 23.4564 23.6457 23.5213C23.6176 23.5672 23.5814 23.5942 23.527 23.6024C22.7654 23.705 22.0039 23.8091 21.2407 23.9091C21.1501 23.9212 21.0957 23.9591 21.0511 24.0158C21.0363 24.0347 21.0231 24.0563 21.0017 24.0698C20.9819 24.082 20.9522 24.0861 20.9275 24.0901C20.2748 24.1779 19.622 24.2685 18.9676 24.3522C18.8704 24.3644 18.8308 24.4144 18.783 24.4671C18.7665 24.4846 18.755 24.509 18.7336 24.5211C18.7121 24.5319 18.6808 24.5319 18.6544 24.5346C18.1105 24.6076 17.5665 24.6819 17.0226 24.7549C16.9171 24.7481 16.894 24.8265 16.8429 24.8738C16.8248 24.89 16.8116 24.9116 16.7902 24.9224C16.7671 24.9332 16.7374 24.9318 16.7094 24.9346C16.2742 24.9926 15.839 25.0548 15.4022 25.1089C15.3017 25.121 15.2819 25.1899 15.2275 25.2372C15.2094 25.2521 15.1913 25.275 15.1698 25.2791C14.8978 25.3183 14.6259 25.3547 14.3539 25.3899C14.2632 25.402 14.2632 25.4007 14.1033 25.5345C14.0852 25.5493 14.0638 25.5655 14.0407 25.5696C13.6335 25.6263 13.2248 25.6804 12.816 25.7358C12.7632 25.7425 12.727 25.775 12.7006 25.8209C12.6742 25.8668 12.6363 25.8966 12.5836 25.9033C12.2572 25.9479 11.9308 25.9938 11.6044 26.0344C11.5138 26.0452 11.4544 26.079 11.4149 26.1398C11.3852 26.1857 11.3489 26.2087 11.2912 26.2168C10.9649 26.26 10.6385 26.3073 10.3105 26.3451C10.2149 26.3559 10.1654 26.4019 10.1258 26.4586C10.0945 26.5045 10.0583 26.5208 9.99726 26.5289C9.39891 26.6072 8.79893 26.6856 8.20222 26.7721C8.10167 26.7869 8.05056 26.7396 7.98463 26.7059C7.89067 26.6586 7.80333 26.6072 7.80333 26.5018C7.80333 26.4856 7.7753 26.4667 7.75552 26.4532C7.60882 26.3519 7.60881 26.3519 7.58574 26.2438C7.57255 26.1776 7.55772 26.11 7.54618 26.0425C7.52475 25.9317 7.47198 25.9033 7.32033 25.9236C7.26594 25.9303 7.21154 25.9398 7.15715 25.9452C7.07638 25.9546 7.0154 25.9101 7.00056 25.829C6.99232 25.7844 6.98245 25.7398 6.9742 25.6952C7.05662 25.6844 7.05495 25.6831 7.20001 25.5196C7.261 25.4507 7.26102 25.4507 7.14399 25.3818C7.09948 25.3561 7.05662 25.3277 7.00881 25.3034C6.98738 25.2926 6.95937 25.2858 6.9363 25.2885C6.79948 25.3048 6.66432 25.3237 6.52916 25.3426C6.31157 25.3723 6.31155 25.3723 6.09067 25.2345C6.07254 25.2237 6.04451 25.2034 6.04781 25.1926C6.06594 25.1426 6.11044 25.121 6.16649 25.1156C6.2489 25.1075 6.32967 25.094 6.41044 25.0832C6.46483 25.0764 6.51923 25.0683 6.57362 25.0616C6.62472 25.0102 6.6775 24.9602 6.7253 24.9075C6.80113 24.8265 6.8011 24.8238 6.69725 24.767C6.63132 24.7292 6.56044 24.6954 6.49286 24.6603C6.41209 24.6711 6.32967 24.6832 6.2489 24.6927C6.14671 24.7049 6.10549 24.6792 6.07912 24.5914C6.05604 24.5143 6.08406 24.4482 6.16319 24.4319C6.24396 24.4157 6.31981 24.4049 6.36102 24.336C6.40058 24.2698 6.4698 24.2441 6.55552 24.2387C6.60991 24.2347 6.66431 24.2252 6.7187 24.2171C6.78958 24.2063 6.8275 24.1374 6.81267 24.0604C6.80443 24.0104 6.78794 23.9685 6.72365 23.9577C6.43849 23.9104 6.43517 23.9118 6.29341 23.8199C6.28023 23.8118 6.27036 23.7875 6.2753 23.7753C6.28354 23.755 6.30168 23.7253 6.32146 23.7213C6.51102 23.6915 6.70058 23.6645 6.89014 23.6442C6.95277 23.6375 6.99893 23.628 7.02036 23.578C7.05003 23.5091 7.03685 23.4456 6.97915 23.3983C6.96102 23.3835 6.93133 23.3646 6.91155 23.3659C6.69396 23.3902 6.47804 23.4213 6.26045 23.4456C6.24067 23.4483 6.20443 23.4254 6.19618 23.4078C6.1797 23.3754 6.20441 23.3321 6.2621 23.3173C6.33793 23.297 6.4154 23.2956 6.4665 23.2281C6.53738 23.1322 6.62473 23.0444 6.70385 22.9525C6.71704 22.9363 6.7385 22.9052 6.73355 22.9025C6.69234 22.8727 6.64453 22.8498 6.60167 22.8214C6.52915 22.7741 6.52913 22.7079 6.54562 22.6444C6.5588 22.5931 6.60825 22.5728 6.66924 22.5728C6.69562 22.5728 6.72858 22.5728 6.75001 22.5606C6.80605 22.5309 6.82419 22.4931 6.79617 22.4647C6.77969 22.4485 6.75003 22.4255 6.73025 22.4282C6.3775 22.4728 6.02308 22.5161 5.67198 22.5715C5.56813 22.5877 5.52036 22.5363 5.45772 22.4998C5.40992 22.4715 5.36539 22.4607 5.30605 22.4809C5.25 22.4998 5.19563 22.489 5.16101 22.4445C5.13299 22.408 5.18243 22.3769 5.31595 22.3418C5.34067 22.335 5.36868 22.331 5.38682 22.3174C5.57803 22.1715 5.57802 22.1702 5.70989 22.1513C5.83846 22.1337 5.83849 22.1323 5.90607 22.054C5.93739 22.0175 5.97198 21.981 6.00165 21.9432C6.01319 21.9283 6.03299 21.9013 6.0264 21.8932C5.99014 21.8513 5.94067 21.8419 5.88297 21.8513C5.7544 21.8743 5.60278 21.8554 5.53519 21.9837C5.50882 22.0324 5.46761 22.0459 5.40827 22.054C4.81156 22.1323 4.21484 22.2161 3.61648 22.2918C3.51923 22.3039 3.47475 22.3539 3.43684 22.4093C3.40387 22.4553 3.3676 22.4688 3.30496 22.4769C3.24232 22.485 3.19285 22.489 3.15659 22.4445C3.13516 22.4174 3.15329 22.3796 3.20274 22.3418C3.27362 22.2877 3.26043 22.2202 3.23735 22.1567C3.22087 22.1148 3.16977 22.0851 3.11538 22.0878C3.03461 22.0932 2.95716 22.108 2.88957 22.054C2.85001 22.0229 2.80055 22.0013 2.75605 21.9743C2.67033 21.9189 2.58461 21.8621 2.46428 21.8986C2.38187 21.8851 2.32417 21.8365 2.25824 21.7986C2.1478 21.7365 2.13791 21.727 2.21703 21.6608C2.30604 21.5865 2.2368 21.4892 2.28625 21.4162C2.339 21.3379 2.41155 21.269 2.47583 21.196C2.49232 21.1771 2.50716 21.1595 2.52364 21.1406C2.48573 21.1136 2.45112 21.0798 2.40662 21.0609C2.34892 21.0366 2.31925 21.0069 2.32255 20.9231C2.31101 20.9109 2.31592 20.942 2.32911 20.9501C2.34394 20.9582 2.38023 20.9515 2.39837 20.942C2.44452 20.9163 2.46757 20.8826 2.45603 20.8542C2.44944 20.8393 2.41815 20.8204 2.39837 20.8204C2.3621 20.8204 2.33079 20.8501 2.3209 20.9231C2.13628 20.9785 1.94504 21.0055 1.75383 21.0271C1.73405 21.0298 1.70934 21.0028 1.68626 20.9893C1.61044 20.9434 1.61043 20.9447 1.3879 20.9312C1.36483 20.9298 1.33352 20.9109 1.32198 20.892C1.27418 20.8096 1.27584 20.7191 1.25277 20.6313C1.29562 20.5745 1.33845 20.5191 1.38295 20.4637C1.47196 20.3516 1.58737 20.2529 1.65661 20.13C1.64177 20.0638 1.62199 19.9976 1.69451 19.9435C1.90056 19.876 1.89892 19.876 1.95497 19.8111C2.11486 19.6274 2.27309 19.4423 2.43957 19.2612C2.48408 19.2139 2.48409 19.1883 2.40497 19.168C2.38024 19.1626 2.35383 19.1612 2.32746 19.1639C2.24504 19.1734 2.16262 19.1977 2.08185 19.1923C2.00108 19.1883 1.94174 19.1288 1.87581 19.0923C1.80823 19.0545 1.74065 19.0153 1.67307 18.9761C1.59559 18.9802 1.51813 19.018 1.44066 18.9572C1.38132 18.9099 1.30715 18.8762 1.23957 18.837C1.29067 18.7343 1.38629 18.6559 1.46046 18.5654C1.52804 18.483 1.52966 18.4843 1.71097 18.4208C1.79669 18.3911 1.82636 18.2384 1.75383 18.1938C1.66647 18.1398 1.57418 18.0898 1.48517 18.0385C1.4077 18.0425 1.32859 18.079 1.25442 18.0182C1.19672 17.9723 1.13078 17.9412 1.03517 17.9587C0.873634 17.9885 0.708803 18.0033 0.545615 18.0277C0.489571 18.0358 0.428565 18.0304 0.403839 17.9844C0.387356 17.952 0.435161 17.9074 0.489557 17.898C0.571975 17.8844 0.646143 17.8682 0.687352 17.8007C0.726912 17.7331 0.799432 17.7128 0.885146 17.7034C0.908223 17.7007 0.934616 17.6845 0.946155 17.6683C1.0055 17.5899 1.07143 17.5223 1.19836 17.525C1.25111 17.498 1.27911 17.4642 1.26263 17.4318C1.25274 17.4142 1.21814 17.3913 1.19836 17.394C1.06154 17.4075 0.924736 17.421 0.791219 17.4453C0.728581 17.4561 0.680753 17.4588 0.641193 17.4183C0.613171 17.3913 0.628004 17.3548 0.680752 17.3156C0.726906 17.2818 0.740107 17.2427 0.73681 17.1967C0.728569 17.09 0.679108 17.0589 0.520866 17.0657C0.407129 17.0711 0.379106 17.0535 0.35438 16.9616C0.347787 16.94 0.331332 16.9103 0.342871 16.8954C0.41375 16.8035 0.459907 16.6901 0.593424 16.6468C0.646172 16.6306 0.702193 16.6306 0.73516 16.5955C0.768127 16.5603 0.797812 16.5198 0.832428 16.486C0.875285 16.4455 0.904927 16.4077 0.885146 16.382C0.852179 16.3361 0.799449 16.332 0.73846 16.3482C0.685713 16.3617 0.62967 16.3631 0.575275 16.3712C0.478022 16.3861 0.398918 16.3509 0.38738 16.2915C0.356061 16.1347 0.323084 15.9794 0.295062 15.8226C0.291765 15.8037 0.299985 15.7794 0.313172 15.7632C0.359326 15.7064 0.408796 15.6524 0.456598 15.597C0.512642 15.5335 0.601668 15.5457 0.677492 15.5335C0.784635 15.5159 0.784598 15.5173 0.928005 15.3876C0.984049 15.3362 1.08131 15.3565 1.139 15.3106C1.15713 15.2957 1.18515 15.2714 1.18021 15.2579C1.17361 15.2403 1.14067 15.2268 1.11594 15.2187C1.09286 15.2106 1.06485 15.2065 1.04012 15.2106C0.740121 15.2498 0.441777 15.2917 0.141776 15.3295C0.0906773 15.3362 0.0346316 15.3065 0.0164997 15.2646C-0.00163226 15.2255 0.00329671 15.1781 0 15.1336C0.0478023 15.0782 0.102177 15.0268 0.143386 14.9674C0.174705 14.9214 0.210975 14.9012 0.273613 14.8985C0.35603 14.8944 0.436808 14.8782 0.529116 14.866C0.700545 14.6688 0.868666 14.4621 1.05328 14.2648C1.12746 14.1851 1.10935 14.104 1.12419 14.0189C1.13903 13.9405 1.24946 13.9527 1.32363 13.9297C1.38298 13.9108 1.40273 13.8676 1.37965 13.8378C1.36647 13.8203 1.33681 13.8 1.31373 13.8C1.25934 13.8 1.20495 13.8122 1.15055 13.8189C1.09615 13.8257 1.03352 13.8216 0.989014 13.8446C0.946156 13.8662 0.918118 13.9122 0.890096 13.9513C0.858777 13.9946 0.817597 14.0094 0.75496 14.0121C0.67419 14.0148 0.593426 14.027 0.512656 14.0365C0.423645 13.9838 0.331318 13.9324 0.245603 13.877C0.22912 13.8662 0.225805 13.8352 0.227454 13.8149C0.230751 13.7622 0.206032 13.7298 0.151636 13.7041C0.105482 13.6825 0.0675665 13.6514 0.0247092 13.6244C0.0576764 13.5879 0.0939531 13.5528 0.120327 13.5136C0.178019 13.4312 0.250555 13.3717 0.37583 13.3744C0.425281 13.3217 0.46483 13.2569 0.529116 13.2204C0.590105 13.1853 0.693956 13.2204 0.74011 13.1407C0.763187 13.1015 0.797822 13.0569 0.842328 13.0407C0.913207 13.015 1.00551 13.0285 1.04672 12.9529C1.07145 12.9096 1.1077 12.8705 1.1555 12.8596C1.20989 12.8475 1.26592 12.8448 1.30549 12.8191C1.32691 12.8056 1.34999 12.784 1.34999 12.7651C1.34999 12.7529 1.31705 12.734 1.29398 12.7259C1.27255 12.7164 1.24449 12.7097 1.21977 12.7124C1.13735 12.7205 1.05658 12.7353 0.974164 12.7434C0.951087 12.7462 0.924721 12.7367 0.899996 12.7286C0.827468 12.707 0.832404 12.68 0.890096 12.6313C0.947789 12.584 0.98902 12.5232 1.03682 12.4678C1.08957 12.4584 1.15549 12.4624 1.19176 12.4367C1.25275 12.3949 1.29559 12.3341 1.34504 12.2814C1.39944 12.2733 1.45548 12.2706 1.50658 12.2557C1.52801 12.2503 1.53791 12.2206 1.55604 12.203C1.58901 12.1692 1.61705 12.1206 1.66156 12.1044C1.73408 12.0801 1.82309 12.0895 1.86595 12.0152C1.89068 11.972 1.92857 11.926 1.97473 11.9233C2.1033 11.9179 2.1577 11.8436 2.22363 11.7733C2.27308 11.7206 2.37858 11.7477 2.43298 11.695C2.46924 11.6612 2.49563 11.6193 2.53189 11.5869C2.54673 11.5734 2.57804 11.5666 2.60276 11.5626C2.73793 11.5423 2.87473 11.5274 3.0099 11.5058C3.03133 11.5018 3.05112 11.4815 3.06761 11.4653C3.10222 11.4302 3.12363 11.3815 3.16649 11.3586C3.20934 11.3356 3.27032 11.3356 3.32307 11.3288C3.49285 11.3086 3.50605 11.314 3.58352 11.1991C3.64616 11.1059 3.79948 11.1721 3.85058 11.0694C3.88025 11.01 3.93462 10.9613 4.03187 10.9546C4.16869 10.9451 4.30385 10.9194 4.44066 10.9019C4.56264 10.8857 4.561 10.8857 4.69286 10.76C4.75221 10.7033 4.83959 10.7114 4.91706 10.7006C4.99948 10.6898 5.07529 10.6735 5.11485 10.606C5.15441 10.5398 5.22693 10.5182 5.311 10.5087C5.38847 10.4992 5.47585 10.506 5.53684 10.452C5.68519 10.3223 5.68355 10.3209 5.7874 10.3074C5.95058 10.2858 6.11377 10.2642 6.27695 10.2412C6.38574 10.2263 6.49948 10.2236 6.60167 10.1939C6.67585 10.1723 6.70881 10.0966 6.75661 10.0439C6.89178 10.0237 7.02693 10.0034 7.1621 9.98447C7.35166 9.95745 7.54286 9.93313 7.73407 9.90746C7.81649 9.85612 7.82806 9.74262 7.96652 9.73722C8.04893 9.73452 8.1297 9.71696 8.21212 9.70615C8.34893 9.68723 8.4841 9.66291 8.62091 9.65345C8.72476 9.6467 8.74286 9.57373 8.79726 9.52779C8.81539 9.51158 8.83189 9.48862 8.85331 9.48456C9.0676 9.44673 9.28847 9.43862 9.49781 9.38323C9.51923 9.37782 9.53902 9.34945 9.54397 9.32918C9.54726 9.31837 9.51924 9.29811 9.50111 9.28866C9.47968 9.27785 9.45166 9.26704 9.42859 9.26974C8.74782 9.36026 8.06706 9.45214 7.38629 9.54267C7.29069 9.55618 7.29069 9.55482 7.05827 9.70344C7.03849 9.7156 7.01539 9.72911 6.99066 9.73316C6.88187 9.74938 6.77144 9.75885 6.66429 9.77911C6.57693 9.79533 6.50443 9.7791 6.44179 9.73046C6.39728 9.69533 6.35111 9.68453 6.29506 9.68723C6.23242 9.69128 6.19124 9.70615 6.15498 9.74263C6.10717 9.79262 6.08244 9.85747 5.98189 9.87098C5.5187 9.92908 5.05549 9.99393 4.59395 10.0561C4.52966 10.0372 4.49835 10.0088 4.51483 9.97502C4.52472 9.95475 4.54451 9.92773 4.56429 9.92503C4.75385 9.89665 4.94505 9.87234 5.13461 9.84531C5.16099 9.84126 5.19725 9.84395 5.21208 9.83044C5.28461 9.76964 5.31101 9.67101 5.44782 9.66425C5.52695 9.6602 5.6077 9.63994 5.68353 9.62103C5.70496 9.61562 5.72474 9.58724 5.72969 9.56698C5.73134 9.55617 5.70496 9.5359 5.68518 9.52644C5.61265 9.48726 5.5286 9.53456 5.45607 9.50754C5.43135 9.49808 5.39671 9.48456 5.39177 9.46835C5.38847 9.45349 5.41649 9.42916 5.43628 9.4143C5.45441 9.40079 5.47912 9.38863 5.50384 9.38458C5.72143 9.35351 5.93904 9.32108 6.15663 9.29675C6.24564 9.2873 6.30826 9.25352 6.34782 9.19136C6.37749 9.14543 6.41375 9.12111 6.4698 9.11436C6.85057 9.06437 7.23133 9.00897 7.61375 8.96303C7.70935 8.95222 7.75882 8.90764 7.79838 8.84955C7.8297 8.80361 7.86597 8.78739 7.92696 8.77928C8.47256 8.70903 9.01486 8.63067 9.56046 8.56311C9.66101 8.55095 9.6907 8.49285 9.7418 8.44286C9.75993 8.42529 9.77144 8.40368 9.79452 8.39287C9.8176 8.38206 9.84726 8.3834 9.87529 8.3807C10.3105 8.3226 10.7456 8.26046 11.1825 8.20641C11.2847 8.19425 11.3044 8.12669 11.3572 8.0794C11.3753 8.06454 11.3918 8.04023 11.4132 8.03617C11.7396 7.99023 12.066 7.947 12.3923 7.90241C12.6099 7.87269 12.8275 7.84296 13.0451 7.81459C13.1522 7.80108 13.1522 7.79972 13.2973 7.67136C13.3138 7.6565 13.3369 7.63893 13.3583 7.63488C13.9847 7.54841 14.6094 7.466 15.2357 7.38088C15.2885 7.37413 15.3264 7.34304 15.3528 7.2971C15.3791 7.25116 15.4171 7.22009 15.4682 7.21333C15.9577 7.14578 16.4473 7.07958 16.9385 7.01607C17.0275 7.00526 17.0901 6.97284 17.1297 6.91203C17.1594 6.8661 17.1956 6.84178 17.2517 6.83503C17.7412 6.77018 18.2308 6.70126 18.722 6.63911C18.816 6.62695 18.8621 6.58102 18.9083 6.52697C18.9248 6.50806 18.938 6.47698 18.9577 6.47428C19.2017 6.43644 19.444 6.39726 19.6896 6.37159C19.7918 6.36078 19.8264 6.30403 19.8676 6.24999C19.9006 6.20675 19.9385 6.19189 20.0012 6.18649C20.138 6.17433 20.2731 6.15137 20.4067 6.1284C20.4264 6.12435 20.4512 6.09462 20.4528 6.0757C20.4561 6.04057 20.4182 6.01625 20.3555 6.00409C19.7028 6.09191 19.0484 6.17973 18.3957 6.26755C18.2885 6.28241 18.2885 6.28242 18.1435 6.41078C18.127 6.42564 18.1039 6.44321 18.0808 6.44726C17.4544 6.53238 16.8297 6.61615 16.2033 6.70127C16.1506 6.70803 16.1127 6.7391 16.0863 6.78504C16.0599 6.83098 16.022 6.86205 15.9709 6.86881C15.3726 6.94987 14.7742 7.0323 14.1742 7.10931C14.0852 7.12012 14.0226 7.15118 13.983 7.21333C13.9533 7.25927 13.9171 7.2836 13.861 7.29035C13.2891 7.36602 12.7187 7.44572 12.1451 7.51868C12.0874 7.52544 12.0446 7.48626 12.0478 7.44978C12.0495 7.43086 12.0742 7.3998 12.094 7.3971C12.3923 7.35251 12.6891 7.30657 12.9891 7.27279C13.0896 7.26198 13.1192 7.20253 13.1703 7.15254C13.1868 7.13497 13.2 7.112 13.2215 7.10255C13.2445 7.09174 13.2742 7.09309 13.3022 7.09039C14.0094 6.99446 14.7165 6.89719 15.4253 6.80666C15.5275 6.79315 15.5473 6.72694 15.6 6.67965C15.6182 6.66343 15.6347 6.63912 15.6561 6.63642C15.8737 6.60399 16.0912 6.57561 16.3088 6.54724C16.6896 6.4959 17.0704 6.44455 17.4528 6.39321C17.5632 6.37835 17.5632 6.37834 17.705 6.25134C17.7215 6.23648 17.7446 6.21757 17.766 6.21487C18.7731 6.07841 19.7803 5.94194 20.7874 5.80683C20.8402 5.80008 20.8781 5.769 20.9045 5.72306C20.9308 5.67848 20.9687 5.64605 21.0198 5.63794C22.3814 5.45419 23.7413 5.27043 25.1028 5.08938C25.1918 5.07722 25.2545 5.04885 25.294 4.98534C25.322 4.93941 25.3599 4.91509 25.416 4.90699C26.9127 4.70567 28.4094 4.50436 29.9078 4.30169C30.9149 4.16658 31.9221 4.02876 32.9292 3.89636C33.0215 3.8842 33.071 3.8423 33.1171 3.78691C33.1319 3.76799 33.1468 3.73691 33.1666 3.73421C33.3825 3.70043 33.5984 3.66936 33.8144 3.63829C33.8819 3.67477 33.9495 3.7099 34.0171 3.74638C34.0682 3.69504 34.1177 3.64234 34.1688 3.591C34.4952 3.55182 34.8166 3.49102 35.1462 3.4721C35.1677 3.47075 35.1907 3.49643 35.2138 3.50994C35.3671 3.59506 35.4545 3.5883 35.5517 3.47481C35.5863 3.43427 35.616 3.3978 35.6688 3.39104C35.8319 3.36672 35.9968 3.3505 36.1584 3.32213C36.2457 3.30727 36.3182 3.32078 36.3809 3.36942C36.4254 3.40455 36.4715 3.41942 36.5259 3.41131C36.8259 3.37078 37.1243 3.33159 37.4243 3.28835C37.4457 3.28565 37.4655 3.26267 37.4819 3.24646C37.5166 3.21133 37.5462 3.17351 37.5792 3.13703C37.6237 3.16 37.6732 3.17757 37.7094 3.20729C37.7556 3.24242 37.7984 3.24241 37.8611 3.23295C39.0578 3.06947 40.2561 2.91004 41.4529 2.7452C41.5551 2.73169 41.5996 2.78844 41.6688 2.81817C41.6919 2.82898 41.7149 2.84248 41.7397 2.84518C41.766 2.84789 41.7941 2.83979 41.8204 2.83573C42.7188 2.71413 43.6172 2.59388 44.5155 2.47228C44.6342 2.45606 44.6342 2.45606 44.8106 2.53983C44.832 2.55064 44.86 2.5628 44.8831 2.55875C45.2919 2.50606 45.7007 2.44931 46.1078 2.39527C46.1606 2.38851 46.2051 2.41013 46.2529 2.4412C46.3468 2.502 46.3534 2.50201 46.4226 2.41283C46.4556 2.37095 46.4902 2.34527 46.5446 2.33311C46.604 2.3196 46.6518 2.32366 46.6979 2.34798C46.7639 2.38176 46.8117 2.4385 46.9122 2.42364C47.3474 2.36013 47.7842 2.30745 48.2177 2.24259C48.3166 2.22773 48.3694 2.27367 48.4353 2.30744C48.4584 2.3196 48.4798 2.33852 48.5045 2.34257C48.5293 2.34663 48.5589 2.33716 48.5853 2.33311C49.1292 2.26015 49.6748 2.18855 50.2172 2.11019C50.3193 2.09532 50.3639 2.15341 50.4331 2.18313C50.4562 2.19394 50.4825 2.21287 50.504 2.21017C50.8303 2.16828 51.1584 2.12368 51.4848 2.0791C51.6018 2.06288 51.6018 2.06423 51.7798 2.14665C51.8012 2.15746 51.8293 2.16827 51.8523 2.16557C52.2331 2.11558 52.6155 2.06424 52.9963 2.01289C53.1133 1.99668 53.1133 1.99668 53.4512 2.06694C53.476 2.07235 53.5023 2.08046 53.5271 2.07776C53.9622 2.01966 54.399 1.96291 54.8342 1.90076C54.9216 1.8886 54.9941 1.8994 55.0567 1.94804C55.1012 1.98317 55.1474 1.99804 55.2018 1.98993C55.6913 1.92373 56.1826 1.86023 56.6705 1.78997C56.7644 1.77646 56.8254 1.80617 56.8913 1.84536C56.9128 1.85887 56.9342 1.87779 56.959 1.88319C56.9837 1.8886 57.0117 1.88319 57.0381 1.87913C57.5276 1.81293 58.0188 1.75078 58.5067 1.67917C58.6056 1.66431 58.6584 1.71024 58.7243 1.74402C58.7474 1.75618 58.7721 1.7805 58.7919 1.77915C58.9831 1.75618 59.1743 1.73592 59.3639 1.70215C59.4661 1.68323 59.5106 1.74537 59.5798 1.7751C59.6029 1.78455 59.6293 1.80483 59.6507 1.80213C60.0595 1.74943 60.4683 1.69404 60.8754 1.6373C60.9331 1.62919 60.976 1.64134 61.0221 1.67647C61.0831 1.72376 61.154 1.74267 61.243 1.72781C61.4326 1.69673 61.6238 1.67512 61.815 1.64945C61.9271 1.63459 61.9271 1.63459 62.2699 1.70485C62.2947 1.71026 62.321 1.71836 62.3458 1.71565C62.6721 1.67242 63.0002 1.63054 63.3249 1.58325C63.4122 1.56974 63.4848 1.58189 63.5474 1.63053C63.5919 1.66566 63.6364 1.68053 63.6925 1.67243C63.9925 1.63189 64.2908 1.59136 64.5908 1.55082C64.6996 1.53596 64.8084 1.51028 64.9172 1.51028C64.9963 1.51163 65.054 1.57648 65.1249 1.60891C65.1447 1.61837 65.1777 1.60757 65.204 1.60487C65.5848 1.55353 65.9672 1.50623 66.3463 1.44814C66.4452 1.43327 66.498 1.47921 66.5639 1.51299C66.587 1.52515 66.6117 1.54947 66.6315 1.54812C66.7683 1.53326 66.9035 1.51299 67.0403 1.49542C67.2035 1.4738 67.3683 1.45759 67.5298 1.42787C67.6617 1.40355 67.7112 1.52109 67.8167 1.52514C67.8974 1.5292 67.9798 1.50623 68.0606 1.49542C68.2238 1.4738 68.387 1.44949 68.5502 1.43057C68.6079 1.42382 68.6524 1.40219 68.6705 1.35355C68.6738 1.34409 68.6458 1.32383 68.6277 1.31167C68.4084 1.17386 68.4084 1.17385 68.1875 1.20358C68.0507 1.22249 67.9156 1.24141 67.7787 1.25762C67.7557 1.26033 67.7293 1.24952 67.7062 1.24141C67.6403 1.21844 67.6469 1.19142 67.7029 1.14278C67.759 1.09414 67.8018 1.0347 67.8496 0.979304C67.9172 1.01443 67.9832 1.04955 68.0507 1.08468C68.1051 1.07792 68.1595 1.06983 68.2139 1.06307C68.4859 1.02794 68.7579 0.99146 69.0299 0.959034C69.0496 0.956332 69.0743 0.983358 69.0974 0.996869C69.1634 1.03605 69.2227 1.06982 69.3183 1.05496C69.5623 1.01578 69.8079 0.987402 70.0518 0.953624C70.159 0.938762 70.159 0.938763 70.3469 1.02253C70.3683 1.03199 70.3963 1.0428 70.4194 1.0401C70.665 1.00902 70.909 0.975248 71.1546 0.942821C71.2073 0.936065 71.2584 0.953629 71.2963 0.992812C71.3112 1.00902 71.3079 1.03604 71.3705 1.25762C71.565 1.43732 71.6985 1.41842 71.8337 1.4022C71.8914 1.39545 71.9425 1.38869 71.9804 1.36166C72.0002 1.3468 72.0249 1.32518 72.0249 1.30762C72.0249 1.2941 71.9887 1.27248 71.9656 1.26978C71.8024 1.24276 71.6474 1.29951 71.4875 1.31167C71.4134 1.31708 71.3491 1.26979 71.3359 1.19277C71.3326 1.17116 71.3277 1.14819 71.3227 1.12657C71.3178 1.10495 71.3145 1.08199 71.3095 1.06037C71.2453 1.05361 71.2073 1.07793 71.1793 1.12387C71.1562 1.1617 71.1233 1.20493 71.0788 1.2252C71.0342 1.24682 70.9733 1.24277 70.9189 1.24953C70.8661 1.25628 70.8084 1.27384 70.759 1.26439C70.7095 1.25358 70.67 1.21439 70.6238 1.19007C70.6024 1.17791 70.576 1.16035 70.5546 1.16305C70.365 1.18602 70.1771 1.20898 69.9892 1.23871C69.8903 1.25492 69.8409 1.19818 69.7782 1.16305C69.7288 1.13603 69.6793 1.14278 69.6711 1.20493C69.6496 1.35355 69.7255 1.4157 69.8936 1.38733C70.0321 1.36301 70.1573 1.35897 70.2661 1.45084C70.281 1.463 70.3156 1.4684 70.337 1.4657C70.4722 1.44949 70.6057 1.42922 70.7408 1.41301C70.7656 1.4103 70.792 1.4157 70.815 1.4211C71.1513 1.49406 71.1513 1.49542 71.265 1.47921C71.3194 1.4711 71.3722 1.46435 71.3672 1.25898C71.4711 1.03875 71.6359 1.02389 71.7958 0.991459C71.8997 0.971192 71.9441 1.03064 72.0117 1.06172C72.0348 1.07253 72.0595 1.09414 72.081 1.09144C72.4354 1.04685 72.7881 0.999558 73.1408 0.949567C73.2002 0.94146 73.243 0.949568 73.2892 0.984697C73.3485 1.02928 73.4145 1.05766 73.5084 1.04145C73.6963 1.00902 73.8875 0.988761 74.0788 0.961739C74.176 0.948227 74.176 0.948214 74.3722 1.03198C74.3936 1.04144 74.4216 1.05225 74.4447 1.04955C74.6359 1.02658 74.8255 0.998214 75.015 0.973894C75.0678 0.967138 75.1156 0.986052 75.1568 1.02253C75.198 1.05901 75.2475 1.07793 75.2986 1.07117C75.4898 1.04685 75.6793 1.01984 75.8689 0.995516C75.892 0.992814 75.92 1.00227 75.9414 1.01173C76.1425 1.0955 76.1425 1.09548 76.2348 1.08197C76.37 1.06171 76.5084 1.05226 76.642 1.02524C76.7722 0.998215 76.8398 1.07657 76.9288 1.11981C77.1727 1.08873 77.4183 1.06307 77.6606 1.02524C77.7595 1.00902 77.8123 1.05361 77.8782 1.08874C77.9013 1.1009 77.9244 1.12657 77.9458 1.12522C78.0282 1.11981 78.109 1.10495 78.1898 1.09415C78.2706 1.08334 78.353 1.07253 78.4337 1.06172C78.526 1.1009 78.587 1.19278 78.7189 1.1617C78.798 1.14279 78.8821 1.13873 78.9629 1.12792C79.0436 1.11711 79.126 1.10631 79.2068 1.0955C79.2612 1.08874 79.3172 1.08468 79.37 1.07252C79.4672 1.05226 79.5151 1.11847 79.5843 1.14819C79.6074 1.15765 79.6337 1.17385 79.6552 1.17115C79.8183 1.15224 79.9832 1.13602 80.1431 1.10495C80.2667 1.08063 80.3508 1.12117 80.4381 1.17791C80.4563 1.19007 80.4876 1.19683 80.5106 1.19413C80.7019 1.17116 80.8914 1.14278 81.081 1.11846C81.1321 1.1117 81.1815 1.13332 81.2227 1.16845C81.2656 1.20493 81.3134 1.2225 81.3661 1.21575C81.5557 1.19143 81.7469 1.1644 81.9365 1.14008C81.9596 1.13738 81.9876 1.14819 82.009 1.159C82.1936 1.24277 82.1936 1.24412 82.3024 1.2279C82.3288 1.22385 82.3568 1.22114 82.3832 1.21708C82.5184 1.19817 82.6585 1.19142 82.7903 1.159C82.942 1.12252 83.0524 1.16846 83.1596 1.24547C83.2947 1.22926 83.4332 1.2198 83.565 1.19277C83.6639 1.17251 83.7167 1.22385 83.7826 1.25762C83.8057 1.26978 83.8304 1.2941 83.8502 1.2914C84.0414 1.26843 84.2326 1.24817 84.4205 1.2144C84.5227 1.19548 84.5673 1.25627 84.6365 1.28735C84.6596 1.29815 84.6843 1.31708 84.7057 1.31438C84.8145 1.30357 84.9233 1.28735 85.0321 1.27249C85.159 1.25492 85.159 1.25627 85.3271 1.33869C85.4063 1.37787 85.4854 1.34679 85.5629 1.33734C85.6453 1.32653 85.7227 1.31842 85.7887 1.37382C85.8299 1.40895 85.8794 1.43057 85.9305 1.42516C86.0392 1.413 86.1497 1.40085 86.2568 1.38058C86.3425 1.36437 86.4167 1.37517 86.4793 1.42516C86.5238 1.46029 86.57 1.47787 86.6244 1.46976C86.8684 1.43733 87.114 1.40354 87.3579 1.37247C87.3793 1.36976 87.409 1.38193 87.4288 1.39409C87.4749 1.41841 87.5195 1.44542 87.564 1.47245C87.6711 1.46029 87.7815 1.4549 87.887 1.43598C87.9991 1.41707 88.1013 1.41031 88.1887 1.48462C88.2068 1.50083 88.2332 1.52379 88.2546 1.52244C88.337 1.51703 88.4178 1.50353 88.4986 1.49272C88.5793 1.48191 88.6618 1.4711 88.7425 1.46029C88.8365 1.49407 88.8959 1.59135 89.0277 1.56027C89.1068 1.54136 89.1909 1.5373 89.2717 1.5265C89.3524 1.51569 89.4349 1.50353 89.5156 1.49407C89.542 1.49137 89.5717 1.48461 89.5947 1.49001C89.6195 1.49542 89.6409 1.51434 89.6623 1.52785C89.7282 1.56703 89.7893 1.60622 89.8832 1.58325C89.9623 1.56433 90.0464 1.56028 90.1272 1.54812C90.2376 1.53326 90.2376 1.53326 90.4206 1.61838C90.4948 1.65351 90.5788 1.60757 90.6497 1.6373C90.6975 1.65756 90.7387 1.69133 90.7849 1.7143C90.8046 1.72376 90.8359 1.72781 90.859 1.72511C90.9678 1.71295 91.0783 1.70079 91.1854 1.68052C91.2728 1.66431 91.3453 1.68052 91.4063 1.72916C91.4508 1.76429 91.4953 1.77916 91.5513 1.77105C91.8233 1.73322 92.0953 1.70079 92.3656 1.6589C92.458 1.64404 92.5321 1.66701 92.5832 1.71565C92.6706 1.79942 92.7942 1.70079 92.8849 1.76835C92.9409 1.81023 92.997 1.85888 93.0992 1.83861C93.2871 1.80348 93.4783 1.78456 93.6678 1.76024C93.7354 1.79672 93.803 1.8332 93.8722 1.86968C93.981 1.85482 94.0898 1.83995 94.1986 1.82644C94.2794 1.81563 94.3618 1.80347 94.4426 1.79401C94.4689 1.79131 94.4969 1.78591 94.5217 1.79266C94.5464 1.79942 94.5662 1.81698 94.5893 1.8305C94.703 1.8967 94.703 1.89806 94.8909 1.87104C94.9717 1.85888 95.0492 1.85077 95.1167 1.90481C95.1794 1.95481 95.2535 1.96426 95.3392 1.94939C95.5008 1.92237 95.664 1.90211 95.8288 1.88319C95.8799 1.87644 95.9277 1.89941 95.9706 1.93453C96.0349 1.98993 96.114 1.98453 96.1948 1.96966C96.3019 1.95075 96.4074 1.93184 96.498 2.0075C96.5162 2.02371 96.5442 2.04667 96.564 2.04532C96.6992 2.03451 96.836 2.02641 96.9678 2.00074C97.0997 1.97507 97.164 2.05883 97.2547 2.09937C97.3898 2.0818 97.5266 2.06424 97.6618 2.04667C97.6882 2.04262 97.7195 2.03046 97.7426 2.03722C97.8398 2.06559 97.8959 2.16692 98.0294 2.13585C98.1068 2.11828 98.1909 2.11289 98.2717 2.10883C98.2931 2.10748 98.3212 2.13044 98.336 2.148C98.3442 2.15746 98.336 2.18313 98.3261 2.19664C98.2964 2.23447 98.2601 2.26961 98.2338 2.3088C98.2305 2.3142 98.2618 2.33851 98.2799 2.34932C98.3244 2.37364 98.3755 2.3696 98.4349 2.35879C98.486 2.34933 98.5387 2.36824 98.575 2.40878C98.5898 2.42499 98.5849 2.45201 98.5535 2.54118C98.5535 2.60739 98.5882 2.57766 98.5997 2.53442C98.6178 2.47227 98.5832 2.45201 98.5173 2.48578C98.4711 2.5101 98.4481 2.54524 98.4596 2.57361C98.4662 2.58847 98.4975 2.60739 98.5535 2.54118C98.6986 2.46012 98.8074 2.44526 98.9162 2.4304C98.9442 2.42635 98.9772 2.41283 98.997 2.42093C99.0679 2.45336 99.1338 2.49255 99.203 2.52903C99.2821 2.52092 99.3563 2.50065 99.4338 2.55334C99.5426 2.62765 99.5475 2.6209 99.653 2.60603C99.7074 2.59793 99.7618 2.59118 99.8162 2.58443C99.8706 2.57767 99.9134 2.59793 99.9612 2.62901C100.058 2.69251 100.067 2.69251 100.131 2.60603C100.169 2.55334 100.195 2.53578 100.243 2.5601C100.401 2.64252 100.403 2.64792 100.538 2.6236C100.65 2.60333 100.756 2.59793 100.838 2.67494C100.894 2.72899 100.912 2.71683 100.957 2.66008C101.076 2.51011 101.13 2.51281 101.352 2.62089C101.456 2.67224 101.563 2.61685 101.669 2.61009C101.758 2.60469 101.821 2.63711 101.827 2.72223C101.832 2.77492 101.847 2.81276 101.906 2.83032C101.929 2.83708 101.957 2.84653 101.98 2.84383C102.117 2.82762 102.252 2.8087 102.389 2.78978C102.458 2.78033 102.496 2.71684 102.483 2.63307C102.468 2.54389 102.495 2.51145 102.594 2.48578C102.653 2.47092 102.701 2.47363 102.749 2.49795C102.801 2.52498 102.787 2.5493 102.74 2.59794C102.63 2.71683 102.643 2.78978 102.785 2.8722C102.834 2.90057 102.874 2.92626 102.885 2.96814C102.892 2.98976 102.885 3.01813 102.9 3.03434C102.981 3.12487 103.093 3.18297 103.218 3.22621C103.339 3.18973 103.421 3.25052 103.513 3.29916C103.586 3.33699 103.672 3.30457 103.749 3.29106C103.837 3.2762 103.909 3.287 103.972 3.33699C104.016 3.37212 104.062 3.38833 104.117 3.38157C104.226 3.36671 104.336 3.35726 104.443 3.33564C104.535 3.31672 104.605 3.34375 104.662 3.38969C104.735 3.44779 104.816 3.4086 104.892 3.4167C104.994 3.42616 105.045 3.54641 105.178 3.51398C105.257 3.49506 105.34 3.48831 105.422 3.48291C105.444 3.48155 105.47 3.50453 105.488 3.52074C105.576 3.59505 105.678 3.591 105.79 3.56938C105.867 3.55452 105.943 3.54101 106.019 3.59235C106.144 3.67883 106.283 3.75449 106.415 3.83421C106.433 3.89636 106.42 3.96931 106.513 4.00579C106.563 4.0247 106.609 4.05309 106.647 4.08416C106.693 4.12064 106.736 4.1301 106.795 4.12064C106.902 4.10173 107.015 4.09766 107.12 4.07334C107.217 4.05172 107.278 4.09633 107.338 4.13821C107.385 4.17199 107.43 4.18819 107.488 4.16387C107.547 4.1409 107.59 4.15576 107.638 4.19224C107.705 4.24223 107.71 4.23684 107.934 4.2517C107.957 4.25305 107.985 4.27331 107.999 4.29087C108.005 4.30033 107.99 4.32737 107.979 4.34088C107.964 4.35709 107.941 4.37599 107.92 4.38005C107.676 4.41518 107.43 4.44625 107.186 4.48138C107.161 4.48544 107.135 4.4949 107.117 4.50841C107.097 4.52328 107.072 4.54353 107.072 4.56245C107.072 4.57596 107.105 4.59218 107.128 4.60163C107.201 4.63271 107.287 4.58542 107.357 4.62055C107.405 4.64352 107.445 4.67594 107.493 4.69756C107.512 4.70701 107.544 4.70567 107.568 4.70297C107.651 4.69351 107.732 4.68 107.814 4.67189C107.837 4.67054 107.863 4.68406 107.885 4.69487C108.043 4.77594 108.043 4.77593 108.18 4.75837C108.234 4.75161 108.292 4.73134 108.343 4.73945C108.393 4.74756 108.435 4.78404 108.48 4.807C108.572 4.85564 108.66 4.90293 108.666 5.00832C108.67 5.04885 108.724 5.08398 108.778 5.08668C108.831 5.08938 108.887 5.07453 108.941 5.06642C109.07 5.05021 109.07 5.05021 109.237 5.13263C109.283 5.1556 109.332 5.15829 109.391 5.14478C109.415 5.13938 109.443 5.14479 109.467 5.15155C109.548 5.17181 109.548 5.19748 109.495 5.24612C109.421 5.31773 109.428 5.32449 109.635 5.38529C109.715 5.40825 109.776 5.45149 109.841 5.48932C109.949 5.55012 109.947 5.55011 109.876 5.62983C109.86 5.64739 109.845 5.66631 109.828 5.68523C109.781 5.73792 109.743 5.79467 109.644 5.80007C109.535 5.80548 109.426 5.8271 109.317 5.84196C109.212 5.85683 109.184 5.88924 109.194 5.98112C109.205 6.09191 109.227 6.10407 109.416 6.10272C109.471 6.10272 109.518 6.11352 109.56 6.15C109.54 6.19324 109.504 6.22702 109.451 6.23513C109.316 6.25539 109.179 6.27296 109.044 6.29053C108.935 6.30539 108.826 6.32024 108.717 6.33511C108.65 6.34456 108.607 6.41483 108.625 6.49319C108.635 6.53778 108.643 6.58237 108.651 6.62695C108.67 6.71613 108.704 6.7391 108.815 6.73505C108.843 6.7337 108.869 6.72288 108.895 6.72558C109.002 6.73504 109.054 6.84718 109.182 6.82421C109.289 6.80529 109.401 6.80124 109.507 6.77692C109.604 6.75531 109.659 6.80396 109.726 6.84044C109.749 6.8526 109.774 6.87826 109.794 6.8769C109.931 6.86204 110.067 6.84719 110.201 6.82152C110.263 6.81071 110.301 6.81881 110.351 6.85124C110.47 6.92961 110.473 6.92555 110.649 6.90123C110.778 6.88232 110.779 6.88502 110.944 6.96744C110.99 6.9904 111.04 6.9904 111.099 6.97959C111.177 6.96608 111.257 6.94446 111.338 6.96473C111.363 6.97013 111.394 6.98635 111.403 7.00392C111.407 7.01608 111.384 7.0458 111.365 7.05526C111.22 7.12552 111.05 7.11336 110.892 7.14173C110.842 7.14984 110.793 7.12417 110.751 7.08769C110.709 7.05121 110.662 7.03635 110.606 7.04311C110.498 7.05797 110.387 7.06742 110.28 7.08904C110.188 7.10795 110.123 7.07688 110.059 7.03499C110.038 7.02148 110.013 6.9958 109.992 6.99716C109.748 7.02418 109.502 7.05121 109.26 7.08904C109.162 7.10525 109.106 7.06202 109.04 7.02554C109.017 7.01338 108.994 6.98771 108.973 6.98906C108.89 6.99446 108.81 7.00932 108.727 7.02013C108.427 7.06066 108.129 7.1012 107.829 7.13903C107.809 7.14173 107.784 7.11335 107.761 7.10119C107.717 7.07687 107.671 7.0539 107.624 7.03093C107.542 7.04174 107.461 7.05525 107.379 7.06336C107.32 7.06876 107.267 7.08769 107.259 7.13903C107.254 7.17281 107.308 7.20388 107.366 7.20118C107.422 7.19847 107.478 7.18226 107.524 7.19982C107.753 7.28629 107.753 7.28765 107.896 7.27008C108.022 7.25387 108.009 7.24035 108.119 7.31466C108.167 7.34709 108.21 7.36602 108.264 7.35791C108.399 7.33899 108.536 7.32008 108.673 7.30386C108.694 7.30116 108.722 7.31467 108.744 7.32548C108.905 7.40655 108.905 7.40925 109.039 7.38898C109.213 7.36466 109.22 7.35791 109.337 7.44033C109.418 7.49707 109.492 7.45789 109.57 7.45519C109.659 7.50788 109.756 7.55518 109.837 7.61462C109.932 7.68488 110.033 7.67271 110.141 7.65244C110.222 7.63758 110.301 7.63218 110.367 7.68757C110.43 7.73892 110.506 7.74433 110.591 7.73082C110.669 7.71866 110.748 7.69298 110.829 7.7227C110.85 7.73081 110.883 7.75108 110.882 7.76324C110.88 7.78216 110.859 7.80919 110.837 7.81729C110.685 7.87269 110.519 7.87133 110.359 7.897C110.338 7.90106 110.31 7.88619 110.288 7.87538C110.242 7.85106 110.198 7.82269 110.153 7.79702C110.072 7.80513 109.99 7.80782 109.911 7.82404C109.85 7.8362 109.804 7.83486 109.759 7.80243C109.718 7.77271 109.673 7.73622 109.624 7.72676C109.574 7.7173 109.517 7.73757 109.462 7.74568C109.408 7.75379 109.345 7.74972 109.303 7.77134C109.26 7.79296 109.233 7.84025 109.205 7.87809C109.174 7.91997 109.131 7.93349 109.068 7.93754C109.011 7.9416 108.965 7.93619 108.922 7.89836C108.904 7.88214 108.879 7.86998 108.854 7.85917C108.831 7.84971 108.805 7.83484 108.783 7.83754C108.538 7.86862 108.294 7.90241 108.048 7.93484C107.926 7.95105 107.928 7.95104 107.674 7.87132C107.651 7.86457 107.623 7.85511 107.6 7.85782C107.463 7.87403 107.328 7.89295 107.191 7.91186C107.052 7.93078 107.054 7.92807 106.818 7.84295C106.776 7.82674 106.713 7.84836 106.662 7.84566C106.555 7.8389 106.502 7.72541 106.377 7.74703C106.27 7.76595 106.157 7.77 106.05 7.79432C105.953 7.81593 105.897 7.76865 105.831 7.73217C105.808 7.72001 105.783 7.69299 105.763 7.69569C105.518 7.72541 105.274 7.75919 104.948 7.76324C104.867 7.76324 104.903 7.79162 104.956 7.80108C105.032 7.81594 105.056 7.78757 105.015 7.73352C104.985 7.69569 104.943 7.67676 104.908 7.68622C104.89 7.69163 104.867 7.71731 104.948 7.76324C105.033 7.81459 105.028 7.84295 105.043 7.85917C105.079 7.89835 105.131 7.91456 105.183 7.90916C105.266 7.8997 105.346 7.88619 105.429 7.87809C105.452 7.87538 105.48 7.88484 105.501 7.89565C105.683 7.97942 105.684 7.98483 105.877 7.9524C105.938 7.94295 105.983 7.94294 106.031 7.96862C106.096 8.00374 106.144 8.06319 106.245 8.04427C106.378 8.0186 106.515 8.00375 106.652 7.98889C106.673 7.98618 106.696 8.0105 106.721 8.02131C106.789 8.05374 106.838 8.11454 106.939 8.08887C107.016 8.0686 107.1 8.06318 107.183 8.05913C107.204 8.05778 107.237 8.0794 107.247 8.09696C107.267 8.12804 107.242 8.16453 107.186 8.1902C107.163 8.20101 107.132 8.1983 107.105 8.20236C106.996 8.21722 106.888 8.23342 106.779 8.24558C106.721 8.25234 106.667 8.27262 106.66 8.32261C106.655 8.35638 106.715 8.3861 106.771 8.3834C106.853 8.37935 106.935 8.36854 107.015 8.35098C107.155 8.32125 107.277 8.32935 107.39 8.41447C107.471 8.47392 107.466 8.45232 107.552 8.62796C107.573 8.67255 107.638 8.6766 107.694 8.67389C107.829 8.66714 107.891 8.68741 107.88 8.72929C107.865 8.78064 107.817 8.79684 107.756 8.8036C107.648 8.8144 107.539 8.83198 107.43 8.84684C107.404 8.85089 107.374 8.85899 107.349 8.85629C107.324 8.85359 107.301 8.83738 107.28 8.82522C107.234 8.79955 107.194 8.76036 107.145 8.7509C107.095 8.74144 107.038 8.76171 106.983 8.76982C106.929 8.77657 106.871 8.79684 106.822 8.78738C106.772 8.77792 106.731 8.7374 106.687 8.71308C106.665 8.70092 106.639 8.68199 106.617 8.68334C106.509 8.69415 106.4 8.71173 106.291 8.72524C106.157 8.7428 106.157 8.7428 105.996 8.65903C105.95 8.63471 105.902 8.63607 105.841 8.64688C105.709 8.6685 105.707 8.66443 105.467 8.58607C105.444 8.57796 105.416 8.56851 105.393 8.57256C105.147 8.60364 104.903 8.63741 104.659 8.66984C104.45 8.69821 104.45 8.69822 104.334 8.83333C104.249 8.93331 104.247 8.93331 104.331 8.97925C104.399 9.01708 104.46 9.07247 104.534 9.09274C104.603 9.11165 104.689 9.05085 104.765 9.11301C104.802 9.14408 104.852 9.17786 104.9 9.18327C104.976 9.19002 105.056 9.15083 105.129 9.21028C105.165 9.24001 105.22 9.27109 105.266 9.27244C105.346 9.27515 105.429 9.25352 105.51 9.24406C105.534 9.24136 105.562 9.24136 105.585 9.24812C105.61 9.25622 105.632 9.27244 105.653 9.28595C105.719 9.33189 105.79 9.3535 105.876 9.33053C106.016 9.2927 106.141 9.31162 106.25 9.39809C106.265 9.41025 106.301 9.41161 106.324 9.4062C106.383 9.39269 106.434 9.39134 106.479 9.41701C106.497 9.42782 106.523 9.44672 106.52 9.45888C106.515 9.47915 106.495 9.50618 106.474 9.51293C106.319 9.55887 106.152 9.56428 105.993 9.5886C105.971 9.5913 105.945 9.57373 105.923 9.56157C105.877 9.53725 105.838 9.49673 105.788 9.48727C105.739 9.47781 105.681 9.49537 105.627 9.50213C105.572 9.50888 105.515 9.52915 105.465 9.52104C105.416 9.51159 105.37 9.4778 105.33 9.44808C105.284 9.4143 105.239 9.41026 105.178 9.42377C105.099 9.44133 105.017 9.44403 104.936 9.45349C104.892 9.42782 104.847 9.39943 104.801 9.37511C104.779 9.36295 104.753 9.3481 104.73 9.34945C104.621 9.36026 104.512 9.37646 104.404 9.39133C104.295 9.40619 104.295 9.4062 104.11 9.32244C104.089 9.31298 104.061 9.30217 104.038 9.30487C103.901 9.32108 103.766 9.34134 103.629 9.35755C103.576 9.3643 103.528 9.34539 103.485 9.30891C103.444 9.27243 103.395 9.25216 103.344 9.25892C103.126 9.28729 102.909 9.31432 102.691 9.3481C102.604 9.36161 102.529 9.34945 102.47 9.30081C102.401 9.24542 102.323 9.25893 102.243 9.26974C102.06 9.29676 102.058 9.2954 101.941 9.22649C101.918 9.21298 101.895 9.18731 101.873 9.18866C101.684 9.20893 101.493 9.22785 101.305 9.26027C101.206 9.27784 101.153 9.23055 101.087 9.19542C101.064 9.18326 101.039 9.15759 101.02 9.16029C100.883 9.17515 100.746 9.18867 100.612 9.21569C100.479 9.24271 100.428 9.11706 100.327 9.11842C100.19 9.11977 100.055 9.15084 99.92 9.16976C99.8112 9.18462 99.7025 9.19948 99.5937 9.21434C99.4849 9.2292 99.3761 9.24136 99.2673 9.25892C99.2096 9.26838 99.1668 9.25622 99.119 9.22244C99.058 9.17785 98.9854 9.14274 98.9195 9.1022C98.819 9.0441 98.8189 9.0441 98.697 9.06031C98.6706 9.06436 98.6426 9.06706 98.6162 9.07111C98.4167 9.10084 98.4167 9.09814 98.1629 9.01302C98.1514 9.00897 98.1217 9.02384 98.1101 9.03465C98.0755 9.06978 98.0442 9.1076 98.0129 9.14408C97.9684 9.12246 97.914 9.1103 97.8843 9.07923C97.8003 8.99141 97.6684 9.11165 97.5827 9.02518C97.5514 8.99275 97.4969 8.96438 97.4475 8.95627C97.3964 8.94816 97.3387 8.96708 97.286 8.97519C97.1491 8.99546 97.1491 8.99411 97.0321 9.11436C96.9728 9.17381 96.8871 9.16299 96.8096 9.1765C96.7288 9.19137 96.6513 9.19947 96.5838 9.14408C96.5228 9.09409 96.4486 9.08193 96.3613 9.09815C96.2541 9.11841 96.1437 9.13057 96.0349 9.14273C96.0118 9.14543 95.9838 9.13868 95.9607 9.13057C95.7085 9.05085 95.7085 9.04951 95.5865 9.06707C95.5321 9.07518 95.4761 9.07787 95.4233 9.09003C95.3343 9.11165 95.2667 9.08328 95.2025 9.04004C95.181 9.02653 95.1563 9.00087 95.1348 9.00222C95.0261 9.00898 94.9189 9.02113 94.8118 9.03329C94.7294 9.04275 94.6469 9.04816 94.5678 9.06707C94.436 9.09815 94.3717 9.01031 94.281 8.96978C94.1459 8.98734 94.009 8.99951 93.8739 9.02383C93.8112 9.03464 93.77 9.03059 93.7222 8.99816C93.6612 8.95763 93.6052 8.91169 93.5063 8.93196C93.3744 8.95898 93.236 8.96844 93.1008 8.98466C93.0101 8.94277 92.9442 8.85764 92.814 8.88872C92.7349 8.90763 92.6508 8.91168 92.57 8.92249C92.4613 8.93736 92.3525 8.95088 92.2437 8.96709C92.1266 8.9833 92.1283 8.97925 91.9486 8.89954C91.8448 8.85225 91.7376 8.90494 91.6321 8.91304C91.5497 8.9198 91.5085 8.98195 91.5283 9.06166C91.548 9.14138 91.5035 9.20353 91.4277 9.21434C91.2381 9.24001 91.0469 9.26702 90.8574 9.28999C90.8343 9.2927 90.8063 9.28324 90.7849 9.27378C90.5821 9.18866 90.5821 9.19002 90.4914 9.20218C90.3563 9.22245 90.2178 9.23325 90.0843 9.25892C89.992 9.27648 89.9244 9.24812 89.8651 9.20218C89.8189 9.16706 89.7761 9.15895 89.7167 9.16705C89.064 9.25758 88.4112 9.34134 87.7601 9.43457C87.6629 9.44808 87.6068 9.40891 87.5409 9.37243C87.5178 9.36027 87.4964 9.33459 87.4733 9.33459C87.4189 9.33459 87.3645 9.34675 87.3101 9.35486C87.0662 9.38729 86.8222 9.42646 86.5766 9.45078C86.4728 9.46159 86.4447 9.52375 86.4002 9.57509C86.3656 9.61427 86.3261 9.63048 86.2651 9.63589C86.2057 9.64129 86.1629 9.63453 86.1167 9.5994C86.0574 9.55346 85.9898 9.52509 85.8975 9.544C85.7904 9.56562 85.6815 9.57509 85.5711 9.58995C85.515 9.59671 85.4722 9.62102 85.4541 9.66966C85.4508 9.67777 85.4854 9.69804 85.5052 9.7102C85.5711 9.75074 85.6337 9.79802 85.7079 9.8264C85.7837 9.85477 85.8661 9.82233 85.9453 9.81423C85.9733 9.81152 85.9997 9.80342 86.026 9.80478C86.0508 9.80613 86.0805 9.81289 86.0986 9.82504C86.1843 9.88585 86.2749 9.92773 86.3936 9.89125C86.4958 9.90881 86.5486 10.021 86.6788 9.99123C86.7579 9.97367 86.8404 9.96556 86.9228 9.9588C86.9442 9.95745 86.9673 9.98177 86.9903 9.99393C87.0563 10.0277 87.109 10.0818 87.2079 10.0588C87.3134 10.0345 87.4255 10.0304 87.5327 10.0115C87.592 10.0007 87.6348 10.0101 87.681 10.0453C87.7403 10.0899 87.8079 10.1236 87.9002 10.102C87.9794 10.0831 88.0634 10.079 88.1442 10.0669C88.2497 10.052 88.2497 10.0534 88.4376 10.1371C88.459 10.1466 88.487 10.1574 88.5101 10.1547C88.6469 10.1385 88.7821 10.1182 88.9189 10.102C88.9717 10.0953 89.0228 10.1128 89.059 10.152C89.0739 10.1682 89.0689 10.1953 89.0738 10.2182C88.8019 10.2547 88.5299 10.2858 88.2596 10.3304C88.1574 10.3479 88.1112 10.2925 88.0436 10.2615C88.0205 10.2506 87.9958 10.2277 87.9744 10.2304C87.7832 10.2533 87.5936 10.2777 87.4041 10.3074C87.3447 10.3168 87.3002 10.3114 87.2557 10.2723C87.142 10.1682 87.0035 10.225 86.875 10.2398C86.7761 10.2506 86.7447 10.2925 86.7563 10.3817C86.7711 10.4871 86.8304 10.5195 86.9821 10.5006C87.0365 10.4938 87.0909 10.4844 87.1453 10.479C87.198 10.4736 87.2458 10.4911 87.2887 10.5276C87.3299 10.5641 87.3793 10.583 87.4304 10.5776C87.5392 10.5654 87.6497 10.5533 87.7552 10.533C87.8425 10.5168 87.9151 10.5303 87.9761 10.5803C88.0436 10.6357 88.1228 10.6235 88.2019 10.6114C88.3865 10.5844 88.3881 10.5857 88.5035 10.6533C88.5266 10.6668 88.5497 10.6925 88.5711 10.6911C88.7607 10.6708 88.9519 10.6533 89.1382 10.6209C89.2354 10.6046 89.2915 10.6479 89.3557 10.683C89.3788 10.6952 89.4019 10.7222 89.4233 10.7195C89.5601 10.7046 89.6969 10.6898 89.8305 10.6641C89.8931 10.6519 89.931 10.66 89.9821 10.6924C90.1041 10.7722 90.1074 10.7695 90.2804 10.7438C90.3332 10.7357 90.3909 10.7208 90.4403 10.7316C90.4898 10.7424 90.5294 10.7816 90.5755 10.806C90.5969 10.8168 90.6233 10.8316 90.6464 10.8289C90.7552 10.8181 90.864 10.8019 90.9728 10.787C91.075 10.7722 91.075 10.7735 91.2662 10.8573C91.3436 10.8924 91.4244 10.8627 91.5019 10.8519C91.586 10.8397 91.6618 10.8397 91.7261 10.8924C91.7904 10.9451 91.8678 10.9424 91.9503 10.9316C92.0277 10.9208 92.1068 10.8911 92.186 10.9276C92.3673 11.0113 92.3673 11.0127 92.4794 10.9965C92.6426 10.9735 92.8041 10.9519 92.9689 10.9316C92.9904 10.9289 93.0184 10.9451 93.0398 10.9559C93.086 10.9802 93.1255 11.0208 93.175 11.0302C93.2244 11.041 93.2821 11.0248 93.3349 11.0167C93.5046 10.991 93.5162 10.9816 93.6299 11.0708C93.7255 11.1437 93.8442 11.0383 93.9332 11.1221C93.9843 11.1694 94.0535 11.2072 94.1491 11.1843C94.2283 11.1653 94.3107 11.1599 94.3931 11.1491C94.5233 11.1316 94.5233 11.1329 94.6882 11.214C94.7096 11.2248 94.7376 11.2383 94.759 11.2356C94.8678 11.2248 94.9783 11.2153 95.0838 11.191C95.2074 11.1626 95.2865 11.214 95.3788 11.264C95.4513 11.3032 95.5371 11.2707 95.6145 11.2572C95.6986 11.2437 95.7744 11.2478 95.8371 11.3005C95.903 11.3545 95.9805 11.3477 96.0629 11.3369C96.1404 11.3275 96.2195 11.2964 96.2986 11.3342C96.4684 11.418 96.4684 11.418 96.592 11.4018C96.7008 11.3869 96.8096 11.3707 96.9184 11.3599C96.9398 11.3572 96.9662 11.3748 96.9876 11.3869C97.0338 11.4112 97.0733 11.4518 97.1228 11.4612C97.1722 11.4707 97.2299 11.4531 97.2843 11.4464C97.3387 11.4396 97.3964 11.4194 97.4458 11.4275C97.4953 11.4356 97.5415 11.4694 97.581 11.4991C97.6272 11.5342 97.67 11.5383 97.7327 11.5247C97.8118 11.5072 97.8942 11.5031 97.975 11.4937C98.0195 11.5193 98.0656 11.545 98.1085 11.5734C98.153 11.6031 98.2008 11.6004 98.2618 11.5909C98.4645 11.5585 98.4662 11.5626 98.636 11.6463C98.7134 11.6842 98.7942 11.6531 98.8717 11.6436C98.9541 11.6328 99.0316 11.6274 99.0959 11.6815C99.1585 11.7328 99.236 11.7396 99.3184 11.7234C99.3711 11.7125 99.4272 11.7058 99.4816 11.7017C99.5063 11.7004 99.536 11.7058 99.5541 11.7166C99.6415 11.7734 99.7272 11.8247 99.8475 11.7882C99.953 11.799 100.006 11.9098 100.133 11.8882C100.24 11.8693 100.352 11.8652 100.457 11.8409C100.555 11.8193 100.624 11.8571 100.673 11.9044C100.762 11.9882 100.888 11.8747 100.977 11.9571C101.028 12.0044 101.094 12.0422 101.193 12.022C101.301 12.0003 101.336 12.0287 101.367 12.1138C101.385 12.1625 101.382 12.2017 101.349 12.2395C101.316 12.2787 101.28 12.2719 101.227 12.2273C101.166 12.1773 101.094 12.1679 101.006 12.1787C100.921 12.1895 100.868 12.1192 100.797 12.0922C100.726 12.0638 100.642 12.1111 100.568 12.0747C100.393 11.9895 100.393 11.9895 100.274 12.0057C100.194 12.0166 100.11 12.022 100.031 12.0409C99.9365 12.0638 99.8755 12.022 99.8113 11.9841C99.7882 11.9706 99.7651 11.9449 99.7453 11.9463C99.5557 11.9666 99.3645 11.9855 99.1766 12.0193C99.0777 12.0368 99.025 11.9882 98.9591 11.9544C98.936 11.9422 98.9112 11.9179 98.8915 11.9206C98.7283 11.9395 98.5667 11.9639 98.4036 11.9868C98.3722 12.0233 98.3376 12.0584 98.3079 12.0976C98.2766 12.1381 98.2338 12.1557 98.1712 12.1544C98.0673 12.1544 97.9651 12.2111 97.8612 12.1395C97.7541 12.0665 97.7459 12.0706 97.642 12.0882C97.5102 12.1111 97.37 12.1057 97.2464 12.1584C97.225 12.1679 97.2019 12.1935 97.2019 12.2125C97.2002 12.2246 97.2349 12.2422 97.2563 12.253C97.3288 12.2854 97.4129 12.2381 97.4854 12.2719C97.5332 12.2935 97.5728 12.3259 97.6206 12.3489C97.6404 12.3584 97.67 12.357 97.6964 12.3557C97.7244 12.3543 97.7508 12.3449 97.7772 12.3462C97.8019 12.3476 97.8283 12.3557 97.8481 12.3678C97.9387 12.4192 98.0343 12.4665 98.1151 12.5273C98.1942 12.5867 98.2684 12.5462 98.3475 12.5435C98.664 12.6381 98.664 12.6394 98.8767 12.6097C98.9294 12.6029 98.9838 12.5948 99.0382 12.5962C99.0613 12.5962 99.0827 12.6205 99.1058 12.634C99.1717 12.6745 99.2343 12.711 99.3267 12.6894C99.4058 12.6705 99.4898 12.6664 99.5706 12.6543C99.6794 12.6394 99.6794 12.6394 99.864 12.7245C99.9102 12.7461 99.9596 12.7435 100.019 12.7326C100.07 12.7232 100.123 12.7435 100.159 12.7826C100.174 12.7989 100.169 12.8259 100.174 12.8488C100.011 12.8705 99.8459 12.8853 99.6876 12.9177C99.5854 12.938 99.5393 12.8799 99.4717 12.8488C99.4486 12.838 99.4239 12.8151 99.4025 12.8178C99.2409 12.838 99.0794 12.861 98.9179 12.888C98.8981 12.8907 98.8734 12.9218 98.8717 12.9407C98.8684 12.9758 98.9096 13.0096 98.9689 13.0083C99.048 13.0069 99.1255 12.9839 99.1964 13.0393C99.2558 13.088 99.3299 13.1096 99.4173 13.088C99.47 13.0758 99.5261 13.0758 99.5788 13.065C99.719 13.0326 99.8458 13.0393 99.9513 13.1312C100.032 13.1555 100.111 13.1326 100.189 13.1204C100.246 13.111 100.302 13.1015 100.344 13.1272C100.431 13.1812 100.517 13.2353 100.637 13.1988C100.767 13.2366 100.866 13.3163 100.975 13.3812C101.026 13.4122 101.066 13.4298 101.125 13.4096C101.15 13.4014 101.179 13.4014 101.206 13.3974C101.26 13.3906 101.318 13.3704 101.367 13.3785C101.417 13.3879 101.458 13.4271 101.502 13.4514C101.524 13.4636 101.549 13.4839 101.57 13.4825C101.652 13.4757 101.733 13.4622 101.814 13.4514C101.895 13.442 101.976 13.4325 102.056 13.4231C102.124 13.4582 102.193 13.4933 102.261 13.5285C102.369 13.5136 102.478 13.4987 102.585 13.4852C102.706 13.469 102.706 13.4703 102.879 13.5541C102.956 13.5919 103.039 13.5676 103.113 13.5501C103.237 13.5217 103.319 13.573 103.406 13.6271C103.424 13.6379 103.457 13.6446 103.479 13.6392C103.565 13.6203 103.639 13.6352 103.701 13.6852C103.746 13.7203 103.79 13.7365 103.845 13.7298C104.034 13.7041 104.224 13.6771 104.413 13.6541C104.437 13.6514 104.463 13.6636 104.484 13.6744C104.652 13.7568 104.654 13.7608 104.778 13.7392C104.888 13.7203 104.99 13.7122 105.078 13.7865C105.096 13.8027 105.124 13.8257 105.144 13.8243C105.279 13.8108 105.416 13.796 105.549 13.773C105.61 13.7622 105.653 13.7662 105.701 13.7973C105.762 13.8365 105.816 13.8838 105.917 13.8662C106.195 13.8162 106.197 13.8243 106.527 13.9176C106.55 13.9243 106.581 13.9135 106.607 13.9081C106.663 13.8946 106.705 13.9135 106.754 13.9446C106.865 14.0148 106.868 14.0108 106.973 13.9959C107.054 13.9838 107.138 13.9811 107.217 13.9608C107.339 13.9311 107.42 13.9838 107.511 14.0338C107.583 14.073 107.667 14.0405 107.745 14.0284C107.829 14.0148 107.905 14.0189 107.967 14.0702C108.01 14.1054 108.056 14.1243 108.111 14.1175C108.3 14.0932 108.49 14.0662 108.679 14.0419C108.702 14.0392 108.731 14.05 108.752 14.0594C108.94 14.1432 108.94 14.1473 109.126 14.1162C109.185 14.1067 109.235 14.104 109.279 14.1324C109.322 14.1594 109.368 14.1851 109.413 14.2108C109.494 14.2013 109.576 14.1986 109.655 14.1824C109.716 14.1702 109.759 14.1756 109.807 14.204C109.87 14.2405 109.922 14.304 110.021 14.2729C110.072 14.258 110.132 14.2621 110.183 14.2486C110.244 14.231 110.285 14.2418 110.333 14.277C110.392 14.3188 110.453 14.3621 110.549 14.3405C110.654 14.3161 110.766 14.3121 110.873 14.2932C110.933 14.2824 110.974 14.2932 111.022 14.3283C111.081 14.3729 111.149 14.4013 111.241 14.3837C111.429 14.3499 111.43 14.3567 111.613 14.4418C111.66 14.4634 111.709 14.4607 111.768 14.4499C111.82 14.4404 111.872 14.4607 111.909 14.4999C111.943 14.5431 111.94 14.5701 111.943 14.5931ZM97.2547 2.40742C97.2003 2.41418 97.1458 2.42229 97.0667 2.30474C97.0618 2.28447 97.0651 2.26016 97.0536 2.24259C97.0272 2.20611 96.986 2.18044 96.9365 2.17639C96.8475 2.17098 96.7403 2.21691 96.742 2.25204C96.7436 2.28177 96.7717 2.30743 96.8261 2.33175C96.8491 2.34121 96.8673 2.35743 96.8887 2.36824C96.9514 2.39931 97.0008 2.46012 97.0915 2.42905C97.075 2.34528 97.0832 2.38716 97.0915 2.42905C97.0832 2.48039 97.1079 2.51687 97.1673 2.53173C97.1838 2.53579 97.2085 2.53308 97.2217 2.52497C97.2728 2.49525 97.281 2.45472 97.2431 2.34798C97.2365 2.36555 97.2415 2.39661 97.2563 2.40472C97.2711 2.41283 97.3074 2.40608 97.3255 2.39662C97.3717 2.37095 97.3948 2.33717 97.3832 2.3088C97.3766 2.29393 97.3453 2.27502 97.3255 2.27502C97.2909 2.27502 97.2596 2.30474 97.2547 2.40742ZM110.583 18.0763C110.463 18.102 110.324 18.0925 110.204 18.1452C110.183 18.1547 110.161 18.179 110.16 18.1979C110.158 18.2101 110.191 18.2276 110.211 18.2371C110.255 18.2587 110.305 18.2519 110.362 18.2452C110.45 18.2357 110.501 18.2979 110.568 18.329C110.59 18.3384 110.618 18.3452 110.641 18.3425C110.774 18.3262 110.906 18.3087 111.04 18.2898C111.063 18.2857 111.088 18.2763 111.107 18.2641C111.173 18.2249 111.167 18.1993 111.102 18.1695C111.032 18.1371 110.976 18.083 110.903 18.0574C110.799 18.0209 110.694 18.0695 110.583 18.0763ZM101.222 19.0626C101.141 19.0734 101.062 19.0842 100.982 19.095C100.955 19.0991 100.927 19.1004 100.902 19.1058C100.851 19.1153 100.813 19.1437 100.789 19.1883C100.827 19.2234 100.873 19.2437 100.924 19.2396C101.005 19.2315 101.084 19.2139 101.165 19.2099C101.252 19.2045 101.303 19.2653 101.371 19.2964C101.392 19.3058 101.418 19.3072 101.443 19.3085C101.565 19.3139 101.639 19.2437 101.616 19.145C101.6 19.068 101.537 19.0221 101.461 19.0315C101.382 19.041 101.301 19.0518 101.222 19.0626ZM111.147 16.0793C111.167 16.0564 111.188 16.0402 111.198 16.0199C111.228 15.951 111.216 15.8996 111.162 15.8456C111.096 15.7794 111.015 15.824 110.941 15.8307C110.923 15.8321 110.903 15.8605 110.893 15.878C110.887 15.8902 110.887 15.9159 110.896 15.9226C110.977 15.9767 111.063 16.0266 111.147 16.0793ZM96.8475 12.0882C96.7684 12.099 96.6876 12.1071 96.6085 12.1219C96.5887 12.126 96.5706 12.1517 96.5591 12.1692C96.5376 12.2017 96.5607 12.2462 96.6283 12.2503C96.7057 12.2557 96.7865 12.2327 96.8673 12.2219C96.9695 12.2084 97.0305 12.1584 96.9926 12.1152C96.9563 12.0733 96.9069 12.0652 96.8475 12.0882ZM10.0797 9.20083C10.1324 9.19408 10.1868 9.18867 10.2396 9.17921C10.289 9.16975 10.327 9.14003 10.3517 9.09544C10.3105 9.06031 10.2643 9.0414 10.2132 9.04545C10.1324 9.05356 10.0533 9.06436 9.9742 9.07788C9.92475 9.08598 9.87697 9.11571 9.86543 9.16164C9.85389 9.19677 9.9643 9.21704 10.0797 9.20083ZM89.8766 8.99275C89.898 9.00491 89.9194 9.02924 89.9409 9.02924C89.9936 9.02924 90.0481 9.02113 90.0975 9.00762C90.1189 9.00221 90.1354 8.97789 90.1453 8.95898C90.1519 8.94682 90.1503 8.9252 90.1404 8.9144C90.0926 8.84954 89.9013 8.87251 89.87 8.94682C89.8667 8.96033 89.875 8.97789 89.8766 8.99275ZM84.676 1.59405C84.681 1.61567 84.6826 1.63728 84.6892 1.6589C84.7024 1.69944 84.7387 1.72917 84.7914 1.74943C84.8326 1.71565 84.8541 1.67783 84.8524 1.6373C84.8508 1.61568 84.8458 1.59405 84.8392 1.57243C84.826 1.5319 84.7898 1.50218 84.7371 1.48191C84.6958 1.51434 84.676 1.55217 84.676 1.59405ZM114.956 19.2977C114.941 19.3153 114.927 19.3328 114.91 19.349C114.955 19.3882 114.996 19.4004 115.027 19.3788C115.047 19.3653 115.059 19.345 115.073 19.3274C115.029 19.2882 114.989 19.2774 114.956 19.2977ZM113.931 19.4815C113.952 19.4936 113.972 19.5098 113.995 19.5179C114.033 19.5314 114.068 19.5085 114.094 19.4598C114.073 19.4477 114.053 19.4315 114.03 19.4233C113.992 19.4098 113.957 19.4328 113.931 19.4815ZM114.581 19.2342C114.569 19.2666 114.592 19.2937 114.653 19.3166C114.668 19.2991 114.688 19.2828 114.698 19.2639C114.714 19.2329 114.686 19.2045 114.627 19.1829C114.61 19.1991 114.595 19.2166 114.581 19.2342ZM111.101 17.7777C111.089 17.8101 111.112 17.8371 111.173 17.8601C111.188 17.8426 111.208 17.8263 111.218 17.8074C111.234 17.7763 111.206 17.748 111.147 17.7264C111.131 17.7426 111.116 17.7601 111.101 17.7777ZM106.36 8.21722C106.345 8.23478 106.33 8.25235 106.314 8.26856C106.359 8.30774 106.4 8.3199 106.431 8.29828C106.451 8.28477 106.462 8.2645 106.477 8.24694C106.433 8.20775 106.393 8.19695 106.36 8.21722ZM101.819 3.14513C101.859 3.15459 101.891 3.13568 101.92 3.08569C101.898 3.07353 101.878 3.05731 101.855 3.0492C101.817 3.03569 101.783 3.05867 101.756 3.10731C101.778 3.12082 101.799 3.13297 101.819 3.14513ZM99.4074 2.82762C99.3926 2.84518 99.3777 2.86275 99.3613 2.87896C99.4058 2.91814 99.447 2.9303 99.4783 2.90868C99.4981 2.89517 99.5096 2.8749 99.5244 2.85734C99.4799 2.81816 99.4404 2.8087 99.4074 2.82762ZM83.0541 1.5927C83.0392 1.61026 83.0244 1.62783 83.0079 1.64404C83.0524 1.68322 83.0936 1.69538 83.125 1.67376C83.1447 1.66025 83.1563 1.63998 83.1711 1.62242C83.1266 1.58324 83.0871 1.57378 83.0541 1.5927ZM1.62691 12.5854C1.60548 12.5732 1.58407 12.5611 1.56429 12.5475C1.51649 12.584 1.50166 12.6178 1.52803 12.6435C1.54451 12.6597 1.56922 12.6691 1.59065 12.6813C1.6401 12.6448 1.65163 12.6124 1.62691 12.5854Z" fill="#FFE492"/>
<path d="M11.1903 7.81507C11.0008 7.84073 10.8129 7.87313 10.6233 7.88933C10.5228 7.89743 10.4865 7.9555 10.4453 8.00952C10.4123 8.05273 10.3744 8.06623 10.3134 8.07433C9.79915 8.1405 9.28649 8.21073 8.77385 8.2796C8.70957 8.26204 8.67825 8.23369 8.69309 8.19993C8.70133 8.17967 8.72111 8.15131 8.7409 8.14861C9.09199 8.09865 9.44143 8.04733 9.79418 8.00817C9.89473 7.99736 9.92276 7.93794 9.97386 7.88933C9.99035 7.87313 10.0035 7.84882 10.025 7.83937C10.0464 7.82856 10.0777 7.82992 10.1057 7.82722C10.6728 7.75024 11.2398 7.67463 11.8069 7.59766C11.8711 7.61521 11.9025 7.64357 11.8876 7.67733C11.8794 7.69758 11.8596 7.72594 11.8398 7.72864C11.6222 7.757 11.4063 7.78536 11.1903 7.81507Z" fill="#FFE492"/>
<path d="M114.978 15.0091C114.893 15.0253 114.784 15.0483 114.695 14.97C114.652 14.9321 114.606 14.92 114.55 14.9281C114.469 14.9416 114.387 14.9524 114.304 14.9605C114.283 14.9619 114.255 14.947 114.233 14.9348C114.187 14.9105 114.148 14.87 114.098 14.8592C114.049 14.8484 113.989 14.8781 113.938 14.8714C113.871 14.8619 113.843 14.8255 113.861 14.7917C113.871 14.7728 113.891 14.7458 113.912 14.7417C114.217 14.6918 114.219 14.6918 114.304 14.7404C114.37 14.7782 114.431 14.8201 114.525 14.7971C114.604 14.7782 114.688 14.7741 114.769 14.762C114.881 14.7458 114.881 14.7471 115.063 14.8322C115.109 14.8538 115.158 14.8525 115.217 14.8403C115.269 14.8309 115.318 14.8525 115.359 14.8889C115.333 14.9348 115.295 14.9646 115.244 14.9727C115.161 14.9862 115.081 14.9956 114.978 15.0091Z" fill="#FFE492"/>
<path d="M111.943 14.5928C112.151 14.5644 112.36 14.5401 112.568 14.5077C112.654 14.4942 112.721 14.5091 112.781 14.555C112.845 14.6049 112.918 14.6009 112.997 14.5914C113.046 14.586 113.094 14.6076 113.127 14.6454C113.14 14.6603 113.137 14.6873 113.142 14.7089C112.96 14.7332 112.777 14.7589 112.594 14.7805C112.573 14.7832 112.547 14.7697 112.527 14.7589C112.482 14.7359 112.444 14.6954 112.397 14.6873C112.294 14.6684 112.192 14.7049 112.088 14.7116C112.039 14.7143 111.991 14.6941 111.958 14.6576C111.945 14.6401 111.948 14.6144 111.943 14.5928Z" fill="#FFE492"/>
<path d="M36.8865 2.97448C37.1024 2.94477 37.3183 2.91643 37.5343 2.88672C37.5986 2.90562 37.6282 2.93263 37.615 2.96639C37.6068 2.98664 37.587 3.015 37.5672 3.0177C37.1354 3.07847 36.7035 3.13653 36.2733 3.1946C36.209 3.17569 36.1793 3.14869 36.1925 3.11493C36.2008 3.09467 36.2206 3.06631 36.2403 3.06361C36.4546 3.03255 36.6705 3.00419 36.8865 2.97448Z" fill="#FFE492"/>
<path d="M3.6097 10.4851C3.51245 10.4878 3.41027 10.5378 3.30148 10.5C3.28005 10.4932 3.25037 10.4716 3.25202 10.4595C3.25532 10.4392 3.2751 10.4136 3.29653 10.4055C3.39048 10.3717 3.50753 10.3677 3.55533 10.2731C3.57841 10.2245 3.62127 10.2083 3.67896 10.1989C3.73995 10.1881 3.78279 10.1921 3.83059 10.2205C3.89323 10.2569 3.94599 10.3244 4.04489 10.2893C4.04983 10.3109 4.06134 10.3352 4.0564 10.3555C4.05145 10.3758 4.03006 10.3947 4.01028 10.4095C3.99215 10.423 3.9674 10.4352 3.94432 10.4392C3.83553 10.4554 3.72673 10.4689 3.6097 10.4851Z" fill="#FFE492"/>
<path d="M89.3383 10.2119C89.419 10.2011 89.5031 10.1957 89.5822 10.1768C89.6448 10.1619 89.6844 10.1714 89.7338 10.2038C89.8179 10.2605 89.8229 10.2551 90.0289 10.2632C90.052 10.2645 90.08 10.2848 90.0932 10.3023C90.1015 10.3118 90.0899 10.3375 90.08 10.351C90.0652 10.3685 90.0437 10.3915 90.024 10.3915C89.8937 10.3955 89.7619 10.4752 89.635 10.3834C89.5707 10.3375 89.4998 10.3159 89.4124 10.3361C89.3597 10.3483 89.3036 10.3537 89.2492 10.3591C89.1965 10.3645 89.1421 10.3496 89.1091 10.3091C89.0613 10.2497 89.0894 10.2267 89.1751 10.2308C89.2295 10.2335 89.2839 10.2186 89.3383 10.2119Z" fill="#FFE492"/>
<path d="M119.216 19.5252C119.319 19.5117 119.423 19.4955 119.529 19.4847C119.55 19.482 119.577 19.4969 119.596 19.5063C119.676 19.5468 119.664 19.6157 119.667 19.6764C119.669 19.7399 119.486 19.7912 119.408 19.748C119.323 19.6994 119.245 19.644 119.127 19.6738C119.08 19.6846 119.026 19.6603 118.996 19.6211C118.952 19.5644 118.977 19.5414 119.061 19.5455C119.11 19.5482 119.163 19.5333 119.216 19.5252Z" fill="#FFE492"/>
<path d="M66.8826 1.13781C66.9898 1.12296 67.0969 1.10001 67.2041 1.09866C67.2667 1.09731 67.298 1.14187 67.2832 1.17428C67.2749 1.19453 67.2551 1.22289 67.2354 1.22559C67.0211 1.258 66.8068 1.28501 66.5925 1.31472C66.5299 1.29582 66.4986 1.26746 66.5134 1.23505C66.5216 1.2148 66.5414 1.18779 66.5612 1.18374C66.6684 1.16483 66.7755 1.15267 66.8826 1.13781Z" fill="#FFE492"/>
<path d="M117.158 15.1286C117.262 15.1151 117.368 15.0948 117.472 15.0881C117.526 15.0854 117.569 15.1164 117.575 15.1515C117.579 15.1677 117.552 15.1961 117.531 15.2028C117.383 15.2487 117.223 15.2542 117.068 15.2771C117.018 15.2839 116.966 15.2623 116.936 15.2244C116.891 15.1664 116.916 15.1448 117 15.1488C117.053 15.1502 117.106 15.1353 117.158 15.1286Z" fill="#FFE492"/>
<path d="M92.0606 10.3959C92.1134 10.3891 92.1678 10.3716 92.2189 10.377C92.2733 10.3837 92.3079 10.4229 92.3244 10.4621C92.3425 10.5066 92.3409 10.5485 92.3244 10.5863C92.298 10.6511 92.2716 10.6484 92.2106 10.6052C92.1167 10.5377 92.1101 10.5458 91.9238 10.5485C91.9024 10.5485 91.876 10.5282 91.8595 10.5107C91.8348 10.4837 91.848 10.4418 91.9057 10.4175C91.9485 10.4 92.0079 10.4027 92.0606 10.3959Z" fill="#FFE492"/>
<path d="M113.294 14.6856C113.372 14.6748 113.449 14.6573 113.527 14.6573C113.581 14.6559 113.624 14.687 113.629 14.7207C113.631 14.7369 113.606 14.7639 113.586 14.772C113.492 14.8085 113.387 14.8112 113.285 14.8234C113.237 14.8288 113.184 14.8072 113.154 14.7693C113.11 14.7126 113.136 14.687 113.217 14.6951C113.242 14.6978 113.268 14.6897 113.294 14.6856Z" fill="#FFE492"/>
<path d="M101.103 13.0263C100.988 13.0425 100.879 13.0222 100.887 12.9871C100.899 12.9412 100.946 12.9115 100.996 12.9034C101.075 12.8899 101.154 12.8791 101.235 12.871C101.286 12.8656 101.332 12.8858 101.373 12.9209C101.349 12.9642 101.311 12.9952 101.261 13.0047C101.21 13.0141 101.156 13.0195 101.103 13.0263Z" fill="#FFE492"/>
<path d="M100.347 12.8546C100.425 12.8438 100.502 12.8262 100.58 12.8262C100.634 12.8249 100.677 12.8559 100.682 12.8897C100.683 12.9059 100.659 12.9329 100.639 12.941C100.545 12.9775 100.439 12.9802 100.337 12.9923C100.289 12.9977 100.237 12.9761 100.207 12.9383C100.163 12.8816 100.189 12.8559 100.27 12.864C100.294 12.8667 100.321 12.8586 100.347 12.8546Z" fill="#FFE492"/>
<path d="M91.1284 10.3843C91.2059 10.3735 91.2834 10.3559 91.3608 10.3545C91.4152 10.3532 91.4581 10.3843 91.463 10.418C91.4647 10.4342 91.44 10.4599 91.4202 10.4693C91.3262 10.5058 91.2207 10.5085 91.1185 10.5206C91.0707 10.526 91.018 10.5044 90.9883 10.4666C90.9438 10.4099 90.9701 10.3842 91.0509 10.3923C91.0756 10.3951 91.1021 10.387 91.1284 10.3843Z" fill="#FFE492"/>
<path d="M90.6941 10.3047C90.7765 10.2939 90.8029 10.2871 90.8293 10.2871C90.8787 10.2871 90.9298 10.3033 90.9595 10.3425C91.004 10.3992 90.9776 10.4154 90.8968 10.4181C90.793 10.4208 90.6908 10.4492 90.587 10.4546C90.5326 10.4573 90.4897 10.4249 90.4864 10.3911C90.4848 10.3749 90.5095 10.3465 90.5293 10.3411C90.5985 10.3209 90.6743 10.3087 90.6941 10.3047Z" fill="#FFE492"/>
<path d="M99.6763 2.35452C99.6236 2.36127 99.5675 2.38018 99.5181 2.37343C99.4522 2.36397 99.4258 2.32752 99.4423 2.29376C99.4522 2.27485 99.4703 2.24784 99.4901 2.24379C99.5956 2.22489 99.7027 2.21272 99.8082 2.19922C99.8708 2.21947 99.8989 2.24783 99.8824 2.28159C99.8725 2.3005 99.8543 2.32615 99.8346 2.33156C99.7835 2.34506 99.7291 2.34777 99.6763 2.35452Z" fill="#FFE492"/>
<path d="M35.7033 3.13581C35.7544 3.13446 35.8005 3.15202 35.84 3.18578C35.8153 3.22899 35.7791 3.25735 35.7296 3.2695C35.7049 3.2749 35.6769 3.27895 35.6505 3.2803C35.5994 3.283 35.5532 3.2641 35.5137 3.23034C35.5384 3.18712 35.5763 3.15877 35.6241 3.14661C35.6488 3.14121 35.6769 3.13987 35.7033 3.13581Z" fill="#FFE492"/>
<path d="M116.596 15.1244C116.594 15.0852 116.695 15.0407 116.785 15.042C116.833 15.0434 116.883 15.0623 116.911 15.0987C116.953 15.1541 116.929 15.1757 116.848 15.1717C116.798 15.169 116.746 15.1919 116.696 15.1879C116.64 15.1865 116.607 15.1568 116.596 15.1244Z" fill="#FFE492"/>
<path d="M92.5397 10.5597C92.5381 10.5448 92.5298 10.5273 92.5348 10.5138C92.5661 10.4395 92.7557 10.4165 92.8051 10.4813C92.8134 10.4935 92.8167 10.5137 92.8101 10.5259C92.8002 10.5448 92.782 10.5691 92.7623 10.5745C92.7112 10.588 92.6584 10.5948 92.6057 10.5961C92.5826 10.5961 92.5611 10.5732 92.5397 10.5597Z" fill="#FFE492"/>
<path d="M4.19758 10.2677C4.00307 10.2961 3.99978 10.2933 4.03439 10.2258C4.06571 10.1651 4.12341 10.1286 4.20748 10.1286C4.2322 10.1286 4.25857 10.1259 4.27999 10.1313C4.30307 10.1381 4.33606 10.1515 4.341 10.1678C4.35089 10.1988 4.32284 10.2326 4.27339 10.2555C4.25197 10.2663 4.22395 10.2636 4.19758 10.2677Z" fill="#FFE492"/>
<path d="M38.1387 2.94541C38.081 2.96836 38.0315 2.96027 37.9953 2.91705C37.959 2.87384 38.0167 2.82252 38.1172 2.81037C38.1436 2.80767 38.1716 2.79687 38.1964 2.80227C38.2211 2.80632 38.2458 2.82252 38.2607 2.83872C38.287 2.86573 38.2706 2.9022 38.2178 2.93326C38.1964 2.94541 38.165 2.94271 38.1387 2.94541Z" fill="#FFE492"/>
<path d="M116.253 15.022C116.268 15.0045 116.283 14.9869 116.3 14.9707C116.361 14.9937 116.387 15.0207 116.371 15.0517C116.361 15.0706 116.341 15.0868 116.326 15.1044C116.265 15.0814 116.24 15.0531 116.253 15.022Z" fill="#FFE492"/>
<path d="M6.81055 25.6493C6.81055 25.6331 6.83368 25.6074 6.85186 25.602C6.88657 25.5926 6.92952 25.6115 6.95927 25.6493C7.00058 25.7033 6.97581 25.7317 6.89979 25.7168C6.84691 25.706 6.81055 25.679 6.81055 25.6493Z" fill="#FFE492"/>
<path d="M93.2122 9.30118C93.2336 9.31333 93.2551 9.32549 93.275 9.33899C93.2469 9.38896 93.2122 9.41056 93.1758 9.39705C93.1527 9.38895 93.1328 9.37274 93.1113 9.36059C93.1394 9.31062 93.1725 9.29173 93.2122 9.30118Z" fill="#FFE492"/>
<path d="M92.6403 9.24047C92.6734 9.22021 92.713 9.23103 92.7593 9.27019C92.7444 9.28775 92.7312 9.308 92.713 9.32151C92.6816 9.34311 92.6403 9.3323 92.5957 9.29178C92.6089 9.27558 92.6238 9.25802 92.6403 9.24047Z" fill="#FFE492"/>
<path d="M92.2043 9.2997C92.2258 9.31185 92.2473 9.32401 92.2671 9.33752C92.239 9.38748 92.206 9.40908 92.1679 9.39557C92.1448 9.38747 92.125 9.37126 92.1035 9.35911C92.1316 9.30915 92.1646 9.2889 92.2043 9.2997Z" fill="#FFE492"/>
<path d="M91.882 9.22727C91.9068 9.25428 91.8936 9.28668 91.8457 9.32314C91.8242 9.31099 91.7994 9.30155 91.7829 9.28534C91.7564 9.25969 91.7697 9.22591 91.8192 9.18945C91.8391 9.20296 91.8605 9.21511 91.882 9.22727Z" fill="#FFE492"/>
</svg>
