<svg width="234" height="47" viewBox="0 0 234 47" fill="none" xmlns="http://www.w3.org/2000/svg">
<path d="M218.898 24.559C218.579 24.5972 218.256 24.6235 217.944 24.6808C217.741 24.7166 217.654 24.6116 217.518 24.5567C217.473 24.5376 217.425 24.4993 217.383 24.5041C217.067 24.5423 216.751 24.5853 216.435 24.6283C216.338 24.7213 216.277 24.8455 216.129 24.8908C215.984 24.9338 215.813 24.9338 215.652 24.9553C215.439 24.9815 215.226 25.0078 215.014 25.0317C214.907 25.0436 214.82 25.089 214.785 25.1749C214.778 25.1892 214.849 25.225 214.888 25.2465C215.017 25.3181 215.143 25.3993 215.284 25.4542C215.42 25.5067 215.587 25.4207 215.732 25.4876C216.058 25.638 216.061 25.6356 216.309 25.6069C216.522 25.5807 216.735 25.552 216.948 25.5329C216.99 25.5282 217.038 25.564 217.083 25.5831C217.218 25.6356 217.305 25.7549 217.505 25.7096C217.657 25.6738 217.824 25.6666 217.982 25.6475C218.114 25.7167 218.237 25.7955 218.379 25.8504C218.511 25.9029 218.55 25.9435 218.479 26.0127C218.414 26.0772 218.324 26.1034 218.205 26.1082C218.098 26.1106 217.992 26.1321 217.886 26.144C217.831 26.1512 217.779 26.156 217.728 26.1631C217.525 26.1894 217.525 26.1894 217.154 26.0366C217.009 25.9769 216.844 26.0605 216.706 26.0032C216.612 25.965 216.532 25.9077 216.442 25.8671C216.403 25.8504 216.342 25.848 216.293 25.8528C216.132 25.8695 215.971 25.8814 215.816 25.9125C215.707 25.934 215.642 26.0008 215.655 26.0676C215.658 26.0939 215.736 26.1321 215.781 26.1345C215.884 26.1393 215.994 26.1058 216.093 26.1225C216.19 26.1392 216.29 26.187 216.361 26.2395C216.506 26.3493 216.67 26.2514 216.809 26.2801C216.954 26.3111 217.073 26.4066 217.212 26.4639C217.247 26.4782 217.315 26.4543 217.37 26.4472C217.528 26.4305 217.686 26.4161 217.844 26.3994C217.976 26.4687 218.118 26.5307 218.237 26.6095C218.453 26.7527 218.685 26.8076 218.965 26.7384C219.123 26.7002 219.278 26.7145 219.404 26.8076C219.533 26.9031 219.681 26.8935 219.845 26.8744C219.997 26.8554 220.152 26.8028 220.306 26.8697C220.641 27.0177 220.645 27.0248 221.041 26.9675C221.16 26.9508 221.251 26.9461 221.341 27.001C221.425 27.0511 221.515 27.0941 221.602 27.1418C221.76 27.1251 221.921 27.1084 222.079 27.0893C222.282 27.063 222.395 27.0964 222.443 27.2301C222.472 27.3113 222.485 27.3853 222.556 27.4402C222.64 27.507 222.73 27.5046 222.853 27.4855C222.969 27.4688 223.052 27.4426 223.101 27.3566C223.12 27.3208 223.159 27.2874 223.194 27.2588C223.223 27.2373 223.268 27.2039 223.294 27.2086C223.343 27.2182 223.407 27.2444 223.423 27.2755C223.581 27.5643 223.581 27.5667 223.742 27.6502C223.919 27.7433 224.103 27.8269 224.264 27.9319C224.409 28.025 224.554 27.9844 224.712 27.9844C224.832 27.9844 224.909 28.0465 224.899 28.1086C224.893 28.1444 224.848 28.1968 224.809 28.2016C224.493 28.2494 224.174 28.2899 223.855 28.3234C223.816 28.3281 223.768 28.2852 223.723 28.2637C223.633 28.2207 223.552 28.1539 223.455 28.1396C223.359 28.1252 223.246 28.161 223.14 28.173C223.033 28.1849 222.92 28.216 222.824 28.1969C222.727 28.1778 222.65 28.1085 222.559 28.0632C222.517 28.0417 222.459 28.0107 222.424 28.0178C222.189 28.0751 222.015 27.9964 221.847 27.8913C221.812 27.8698 221.75 27.8555 221.705 27.8603C221.331 27.9009 220.961 27.9486 220.587 27.9939C220.435 28.013 220.313 27.9295 220.28 27.7887C220.264 27.7099 220.232 27.6311 220.232 27.5524C220.232 27.4091 220.055 27.3304 219.926 27.3471C219.713 27.3709 219.497 27.39 219.288 27.4258C219.117 27.4545 218.972 27.4258 218.856 27.3399C218.72 27.242 218.566 27.2611 218.411 27.2874C218.295 27.3065 218.263 27.3853 218.269 27.5834C218.276 27.7433 218.221 27.7934 218.011 27.8197C217.747 27.8531 217.479 27.8865 217.212 27.9128C217.17 27.9176 217.122 27.877 217.08 27.8555C216.99 27.8125 216.909 27.7433 216.812 27.729C216.716 27.7123 216.603 27.7481 216.496 27.7624C216.39 27.7743 216.277 27.8078 216.18 27.7911C216.084 27.7743 216.003 27.7028 215.916 27.6574C215.874 27.6359 215.823 27.6049 215.781 27.6096C215.568 27.6287 215.355 27.6574 215.143 27.6837C214.904 27.7123 214.904 27.7123 214.566 27.5643C214.411 27.4975 214.256 27.55 214.105 27.5691C213.944 27.5882 213.792 27.5977 213.666 27.5022C213.583 27.4402 213.489 27.402 213.389 27.4139C213.122 27.4426 212.857 27.4784 212.59 27.507C212.545 27.5118 212.483 27.4999 212.448 27.4784C212.277 27.3781 212.11 27.2993 211.871 27.3495C211.665 27.3924 211.442 27.3948 211.236 27.4354C211.123 27.4569 211.072 27.5333 211.094 27.5929C211.107 27.624 211.175 27.6598 211.22 27.6598C211.323 27.6622 211.436 27.6264 211.533 27.6407C211.732 27.6693 211.832 27.8698 212.093 27.8149C212.248 27.7815 212.409 27.7696 212.57 27.76C212.612 27.7576 212.657 27.803 212.703 27.8269C212.831 27.8913 212.944 27.9749 213.131 27.9319C213.286 27.8985 213.45 27.8889 213.608 27.8698C213.86 27.8388 213.86 27.8412 214.185 27.9868C214.34 28.056 214.495 28.0011 214.646 27.9844C214.759 27.9725 214.865 27.9486 214.956 27.982C215.094 28.0322 215.194 28.1467 215.365 28.1396C215.526 28.1324 215.684 28.099 215.845 28.087C215.945 28.0799 216.039 28.1181 216.119 28.1825C216.203 28.247 216.293 28.2756 216.403 28.2613C216.561 28.2422 216.722 28.2183 216.883 28.2064C216.928 28.204 216.98 28.2255 217.022 28.2446C217.112 28.2876 217.199 28.3377 217.286 28.383C217.444 28.3687 217.605 28.364 217.76 28.3353C217.879 28.3138 217.963 28.3234 218.06 28.3711C218.182 28.4356 218.282 28.5501 218.482 28.4952C218.582 28.469 218.698 28.4761 218.798 28.4523C218.92 28.4212 219.004 28.4332 219.091 28.5048C219.255 28.6408 219.462 28.6432 219.674 28.5907C219.907 28.5334 220.081 28.6003 220.255 28.7053C220.438 28.8151 220.438 28.8127 220.58 29.0777C220.622 29.1541 220.741 29.1899 220.841 29.1755C221.009 29.1517 221.154 29.1636 221.276 29.2543C221.405 29.3522 221.56 29.3402 221.718 29.314C221.928 29.2782 222.137 29.2472 222.308 29.3856C222.392 29.4524 222.482 29.4691 222.595 29.4524C222.914 29.4095 223.236 29.3832 223.549 29.3307C223.739 29.2973 223.849 29.3737 223.978 29.4381C224.152 29.5264 224.342 29.6052 224.342 29.7938C224.342 29.8248 224.387 29.8606 224.426 29.8845C224.509 29.9346 224.6 29.9776 224.687 30.0253C224.816 30.0969 224.941 30.1566 225.119 30.1184C225.273 30.0874 225.438 30.0778 225.596 30.0563C225.754 30.0349 225.899 30.0229 226.04 30.1136C226.205 30.2163 226.379 30.3141 226.566 30.3905C226.698 30.4454 226.872 30.3523 227.014 30.4263C227.101 30.4717 227.185 30.5242 227.278 30.5624C227.317 30.5791 227.378 30.5672 227.43 30.5624C227.536 30.5528 227.646 30.5457 227.749 30.5218C227.868 30.4956 227.958 30.5003 228.049 30.5553C228.132 30.6054 228.216 30.6746 228.313 30.6889C228.458 30.7104 228.619 30.6149 228.764 30.7247C228.838 30.7796 228.932 30.8321 229.028 30.8489C229.125 30.8656 229.238 30.8297 229.341 30.8321C229.386 30.8321 229.441 30.8703 229.467 30.9014C229.483 30.9181 229.46 30.9634 229.438 30.9873C229.409 31.0159 229.367 31.0541 229.325 31.0589C229.006 31.1019 228.687 31.1377 228.368 31.1783C228.177 31.2021 228.177 31.2021 227.794 31.0517C227.704 31.0159 227.604 31.0231 227.491 31.0398C227.339 31.0613 227.185 31.1019 227.027 31.0589C226.82 30.8966 226.566 30.8822 226.295 30.9443C226.182 30.9706 226.079 30.9706 225.995 30.9252C225.818 30.8345 225.631 30.751 225.473 30.6436C225.351 30.56 225.293 30.5529 225.241 30.6674C225.225 30.7032 225.209 30.7414 225.212 30.7748C225.231 30.8942 225.267 31.0112 225.286 31.1305C225.293 31.1639 225.267 31.2021 225.251 31.2379C225.199 31.3382 225.132 31.331 225.019 31.2475C224.906 31.1639 224.77 31.109 224.59 31.1472C224.435 31.1806 224.268 31.1759 224.113 31.2117C223.874 31.2642 223.707 31.1878 223.536 31.0852C223.501 31.0637 223.439 31.0517 223.394 31.0565C222.914 31.1114 222.437 31.1735 221.957 31.2284C221.853 31.2403 221.76 31.2045 221.679 31.1401C221.596 31.0756 221.502 31.0422 221.399 31.0541C220.973 31.1043 220.548 31.1496 220.122 31.2117C219.948 31.2379 219.81 31.2069 219.691 31.1233C219.6 31.0613 219.517 31.0422 219.404 31.0494C219.281 31.0565 219.194 31.0804 219.133 31.1496C219.075 31.2165 219.117 31.257 219.246 31.3095C219.384 31.3668 219.513 31.4408 219.645 31.5077C219.752 31.4981 219.858 31.479 219.961 31.4814C220.006 31.4814 220.048 31.5244 220.094 31.5482C220.222 31.6175 220.342 31.6867 220.525 31.6485C220.68 31.6151 220.845 31.6079 221.002 31.5864C221.222 31.5602 221.222 31.5602 221.576 31.7106C221.666 31.7488 221.763 31.7464 221.879 31.7249C221.979 31.7082 222.082 31.7416 222.153 31.8132C222.182 31.8418 222.173 31.8896 222.111 32.0471C222.111 32.1641 222.179 32.1116 222.201 32.0352C222.237 31.9254 222.169 31.8896 222.04 31.9493C221.95 31.9922 221.905 32.0543 221.928 32.1044C221.94 32.1307 222.002 32.1641 222.111 32.0471C222.395 31.9039 222.611 31.8872 222.817 31.849C222.94 31.8275 223.017 31.8371 223.114 31.8991C223.23 31.9731 223.346 32.0519 223.536 32.0137C223.742 31.9708 223.961 31.966 224.171 31.9302C224.364 31.8967 224.464 32.0018 224.587 32.0638C224.735 32.1378 224.899 32.0543 225.035 32.0973C225.177 32.1402 225.276 32.2452 225.441 32.2643C225.679 32.1999 225.831 32.3193 226.011 32.398C226.153 32.4577 226.321 32.4052 226.472 32.3789C226.643 32.3503 226.785 32.3765 226.904 32.4625C227.04 32.5603 227.191 32.5389 227.346 32.5174C227.707 32.4696 227.72 32.4625 227.929 32.5938C228.081 32.6892 228.226 32.6463 228.377 32.6343C228.509 32.6988 228.638 32.768 228.777 32.8253C228.812 32.8396 228.88 32.8158 228.935 32.8086C229.093 32.7895 229.254 32.7704 229.412 32.7513C229.518 32.7394 229.631 32.7036 229.728 32.7179C229.825 32.7346 229.905 32.8038 229.992 32.8492C230.079 32.8945 230.169 32.9399 230.253 32.9876C230.382 33.0592 230.505 33.1189 230.685 33.0831C230.84 33.0521 231.001 33.0425 231.162 33.021C231.365 32.9948 231.359 33.0019 231.736 33.1452C231.939 33.2239 232.148 33.1285 232.355 33.1189C232.458 33.1141 232.558 33.1404 232.629 33.2096C232.658 33.2383 232.648 33.286 232.658 33.3266C232.126 33.391 231.591 33.4459 231.065 33.5247C230.862 33.5557 230.756 33.4698 230.646 33.3982C230.466 33.2836 230.227 33.4507 230.057 33.3027C229.953 33.2144 229.805 33.1643 229.628 33.2072C229.525 33.2311 229.415 33.2287 229.309 33.2502C229.038 33.3027 228.79 33.3051 228.574 33.1404C228.5 33.0831 228.393 33.0521 228.316 32.9972C228.226 32.9375 228.139 32.9041 228.032 32.916C227.552 32.9733 227.075 33.0306 226.598 33.0926C226.556 33.0974 226.514 33.1332 226.479 33.1595C226.389 33.2263 226.418 33.2788 226.563 33.3218C226.611 33.3361 226.65 33.3671 226.695 33.391C226.782 33.4364 226.862 33.508 226.959 33.5247C227.056 33.5414 227.169 33.508 227.275 33.4961C227.381 33.4841 227.494 33.4483 227.591 33.4626C227.688 33.4793 227.768 33.5486 227.858 33.5915C227.9 33.613 227.952 33.6488 227.994 33.6464C228.206 33.6321 228.416 33.6059 228.629 33.5844C228.761 33.6488 228.874 33.7419 229.032 33.7634C229.132 33.7777 229.238 33.7515 229.341 33.7562C229.386 33.7586 229.444 33.7944 229.467 33.8255C229.48 33.8446 229.438 33.8923 229.405 33.9162C229.283 34.0069 229.115 33.9902 228.964 34.0188C228.8 34.0498 228.651 34.0403 228.526 33.9472C228.442 33.8851 228.348 33.8517 228.245 33.8637C227.978 33.8947 227.713 33.9305 227.446 33.9568C227.401 33.9615 227.346 33.94 227.304 33.9233C226.965 33.7777 226.965 33.773 226.727 33.804C226.376 33.8493 226.376 33.8493 226.14 33.7228C226.095 33.6989 226.047 33.6536 226.008 33.656C225.634 33.6942 225.264 33.7324 224.893 33.7873C224.77 33.804 224.687 33.804 224.596 33.7419C224.519 33.6894 224.429 33.6297 224.332 33.6154C224.232 33.6011 224.123 33.6369 224.016 33.6488C223.91 33.6608 223.797 33.6918 223.704 33.6727C223.607 33.6536 223.523 33.5868 223.439 33.539C223.352 33.4889 223.259 33.4913 223.14 33.5104C222.772 33.5653 222.769 33.5581 222.405 33.4101C222.363 33.3934 222.308 33.3743 222.263 33.3791C221.995 33.4077 221.731 33.4435 221.463 33.4722C221.36 33.4841 221.26 33.4531 221.189 33.3839C221.16 33.3552 221.17 33.3075 221.151 33.2144C221.128 33.1929 221.154 33.2311 221.16 33.2669C221.209 33.2621 221.267 33.2669 221.302 33.2478C221.393 33.2024 221.438 33.1428 221.415 33.0926C221.402 33.0664 221.341 33.033 221.302 33.033C221.231 33.033 221.17 33.0855 221.151 33.2144C220.948 33.2931 220.732 33.3099 220.522 33.3481C220.4 33.3719 220.322 33.36 220.226 33.2979C220.11 33.2216 219.99 33.1475 219.8 33.1857C219.594 33.2287 219.375 33.2359 219.162 33.2693C218.917 33.3075 218.811 33.0926 218.604 33.0974C218.392 33.1022 218.179 33.1428 217.966 33.1714C217.779 33.1953 217.779 33.1953 217.392 33.0401C217.251 32.9828 217.083 33.0664 216.944 33.0067C216.851 32.9685 216.77 32.9112 216.68 32.8707C216.641 32.8539 216.58 32.8539 216.532 32.8587C216.264 32.8874 215.994 32.9065 215.736 32.959C215.442 33.021 215.22 32.9542 215.01 32.8134C214.746 32.8396 214.479 32.8539 214.218 32.8993C214.027 32.9327 213.918 32.854 213.789 32.7895C213.744 32.768 213.705 32.7322 213.657 32.7227C213.608 32.7131 213.55 32.7322 213.499 32.7394C213.286 32.7656 213.067 32.7776 212.861 32.8205C212.606 32.8754 212.509 32.6797 212.313 32.6558C212.18 32.7728 212.11 32.9327 211.848 32.9446C211.636 32.9542 211.423 32.9924 211.21 33.0187C211.104 33.0306 210.997 33.0449 210.891 33.0569C210.72 33.0783 210.64 33.1714 210.675 33.3146C210.695 33.3934 210.711 33.4722 210.727 33.5509C210.759 33.6918 210.678 33.8111 210.543 33.8279C210.169 33.8732 209.798 33.9209 209.425 33.9615C209.325 33.9734 209.228 33.9329 209.147 33.8684C209.064 33.804 208.97 33.7753 208.867 33.7873C208.493 33.8326 208.122 33.8804 207.748 33.921C207.707 33.9257 207.652 33.9018 207.61 33.8828C207.52 33.8398 207.433 33.7897 207.346 33.7443C207.133 33.7658 206.923 33.7801 206.714 33.8087C206.375 33.8517 206.375 33.8541 206.127 33.7228C206.082 33.6989 206.037 33.6536 205.995 33.656C205.834 33.6655 205.676 33.6894 205.515 33.7109C205.041 33.773 205.041 33.7729 204.902 33.7013C204.777 33.6345 204.664 33.5533 204.474 33.5915C204.267 33.6345 204.048 33.6488 203.835 33.6727C203.677 33.6894 203.52 33.7085 203.362 33.7133C203.32 33.7157 203.275 33.6703 203.229 33.6464C203.101 33.5724 202.975 33.5128 202.798 33.5533C202.694 33.5772 202.585 33.582 202.478 33.5939C202.201 33.6273 202.201 33.6273 201.747 33.4841C201.702 33.4698 201.647 33.4531 201.602 33.4602C201.228 33.5032 200.857 33.551 200.483 33.5915C200.438 33.5963 200.383 33.582 200.338 33.57C199.829 33.4316 199.829 33.4316 199.287 33.4984C199.081 33.5223 199.075 33.5319 198.859 33.4053C198.762 33.3504 198.681 33.3242 198.569 33.3409C198.143 33.3982 197.714 33.4364 197.292 33.5032C197.102 33.5319 196.992 33.4602 196.864 33.3958C196.818 33.3743 196.77 33.3266 196.731 33.329C196.306 33.3743 195.88 33.4292 195.455 33.4746C195.416 33.4794 195.368 33.4316 195.323 33.4101C195.236 33.3672 195.152 33.3027 195.055 33.2884C194.955 33.2741 194.846 33.3099 194.736 33.3218C194.469 33.3528 194.469 33.3505 194.159 33.2096C194.117 33.1905 194.062 33.1643 194.021 33.169C193.595 33.2168 193.166 33.2574 192.744 33.3266C192.502 33.3648 192.338 33.2955 192.167 33.1953C192.132 33.1738 192.071 33.1643 192.025 33.169C191.545 33.2239 191.068 33.286 190.588 33.3409C190.488 33.3528 190.391 33.3122 190.311 33.2502C190.182 33.1523 190.03 33.1642 189.869 33.1857C189.498 33.2359 189.495 33.2335 189.276 33.1189C189.231 33.095 189.192 33.064 189.144 33.0521C189.099 33.0401 189.041 33.0473 188.992 33.0521C188.78 33.0759 188.567 33.1022 188.354 33.1284C188.141 33.1547 187.925 33.169 187.716 33.2096C187.458 33.2598 187.336 33.1046 187.155 33.033C186.891 33.064 186.62 33.0831 186.359 33.1332C186.159 33.1714 186.066 33.0664 185.934 33.0115C185.888 32.9924 185.84 32.9518 185.798 32.9566C185.318 33.0091 184.838 33.0664 184.361 33.1308C184.244 33.1452 184.167 33.1261 184.07 33.0688C183.854 32.9399 183.845 32.9447 183.484 32.9924C183.326 33.0139 183.174 33.033 183.039 32.9351C182.92 32.8468 182.775 32.8253 182.604 32.8539C182.394 32.8897 182.178 32.9088 181.966 32.9327C181.753 32.959 181.54 32.9948 181.327 33.0067C181.157 33.0186 181.053 32.9065 180.918 32.8492C180.876 32.8325 180.818 32.8301 180.77 32.8348C180.557 32.8563 180.338 32.873 180.132 32.9136C179.88 32.9637 179.742 32.8325 179.564 32.7561C179.526 32.7394 179.461 32.7489 179.413 32.7561C179.039 32.799 178.668 32.8468 178.294 32.8921C178.162 32.8277 178.027 32.7656 177.895 32.7012C177.682 32.7251 177.469 32.7513 177.256 32.7752C177.095 32.7943 176.931 32.8014 176.779 32.8372C176.583 32.885 176.486 32.7728 176.354 32.7179C176.309 32.6988 176.26 32.6582 176.219 32.663C175.951 32.6892 175.684 32.7179 175.419 32.7585C175.168 32.799 175.068 32.5842 174.862 32.5866C174.649 32.589 174.43 32.62 174.223 32.663C173.985 32.7131 173.817 32.6367 173.646 32.5341C173.611 32.5126 173.55 32.5007 173.505 32.5054C173.237 32.5341 172.973 32.5699 172.705 32.5985C172.66 32.6033 172.605 32.5914 172.56 32.5771C172.051 32.4362 172.051 32.4338 171.829 32.4625C171.671 32.4816 171.509 32.5054 171.348 32.5174C171.303 32.5222 171.248 32.5007 171.206 32.4816C170.871 32.336 170.871 32.3336 170.629 32.3622C170.417 32.3885 170.204 32.4147 169.991 32.441C169.859 32.3765 169.724 32.3145 169.592 32.25C169.327 32.2811 169.056 32.3049 168.795 32.3479C168.673 32.367 168.592 32.3598 168.499 32.3002C168.383 32.2285 168.267 32.145 168.073 32.1856C167.867 32.2285 167.648 32.2333 167.438 32.2691C167.187 32.3121 167.084 32.0949 166.881 32.0973C166.668 32.0996 166.449 32.1307 166.243 32.1736C166.004 32.2238 165.836 32.1474 165.666 32.0448C165.63 32.0233 165.569 32.0113 165.524 32.0161C164.937 32.0853 164.354 32.1545 163.767 32.2285C163.406 32.2739 163.406 32.2763 162.72 32.145C162.671 32.1354 162.62 32.1259 162.571 32.1307C162.359 32.1522 162.139 32.1689 161.933 32.2094C161.682 32.2596 161.543 32.1307 161.366 32.0519C161.327 32.0352 161.266 32.0447 161.214 32.0495C161.053 32.0662 160.895 32.0877 160.734 32.1068C160.521 32.1331 160.309 32.1593 160.096 32.1856C159.964 32.1235 159.828 32.0591 159.696 31.997C159.432 32.028 159.161 32.0447 158.9 32.0949C158.7 32.1331 158.607 32.0328 158.475 31.9755C158.429 31.9564 158.381 31.9158 158.339 31.9182C157.859 31.9707 157.379 32.0256 156.902 32.0925C156.705 32.1211 156.615 32.0137 156.483 31.9588C156.437 31.9421 156.386 31.9111 156.344 31.9158C156.025 31.9493 155.706 31.9898 155.387 32.0304C155.206 32.0543 155.206 32.0543 154.813 31.9063C154.768 31.8896 154.716 31.8729 154.671 31.8776C153.659 31.997 152.65 32.1235 151.638 32.2429C151.535 32.2548 151.441 32.219 151.361 32.1545C151.277 32.0901 151.184 32.0567 151.08 32.0686C150.655 32.1187 150.226 32.1641 149.804 32.2262C149.63 32.2524 149.491 32.2214 149.372 32.1378C149.282 32.0758 149.198 32.0519 149.085 32.0662C148.872 32.0949 148.66 32.1187 148.447 32.145C148.234 32.1712 148.022 32.1975 147.809 32.2238C147.596 32.25 147.38 32.2644 147.171 32.3049C146.913 32.3551 146.787 32.2071 146.61 32.1331C146.291 32.1689 145.972 32.2047 145.656 32.2429C145.23 32.293 144.805 32.3479 144.379 32.3956C144.341 32.4004 144.292 32.3574 144.247 32.336C144.115 32.2763 144.018 32.1927 143.822 32.219C142.868 32.3455 141.907 32.4529 140.95 32.5771C140.75 32.6033 140.663 32.5007 140.527 32.4458C140.482 32.429 140.431 32.3956 140.389 32.4004C139.857 32.4601 139.325 32.5269 138.793 32.5914C138.577 32.6176 138.577 32.6176 138.216 32.4696C138.175 32.4529 138.12 32.4314 138.075 32.4362C137.382 32.5174 136.692 32.6033 135.999 32.6868C135.896 32.6988 135.802 32.6654 135.718 32.6009C135.638 32.5365 135.541 32.5007 135.441 32.5126C134.803 32.589 134.162 32.663 133.527 32.7465C133.356 32.7704 133.214 32.7489 133.091 32.663C133.004 32.6009 132.917 32.5746 132.808 32.589C131.85 32.7059 130.893 32.8181 129.936 32.9423C129.752 32.9661 129.623 32.9208 129.507 32.842C129.414 32.7799 129.333 32.768 129.217 32.7776C129.095 32.7895 129.02 32.8157 128.953 32.8874C128.866 32.9804 128.811 33.0974 128.605 33.1046C128.392 33.1117 128.176 33.1404 127.966 33.181C127.767 33.2216 127.673 33.1141 127.547 33.0497C127.454 33.0043 127.367 32.9972 127.248 33.0187C127.138 33.0377 127.07 33.0783 127.006 33.1547C126.864 33.317 126.851 33.317 126.677 33.2144C126.584 33.1595 126.5 33.1165 126.397 33.1261C125.971 33.1738 125.546 33.2263 125.12 33.2812C124.875 33.3122 124.872 33.317 124.688 33.1977C124.598 33.138 124.511 33.1093 124.405 33.1237C123.235 33.2669 122.065 33.4053 120.895 33.5557C120.714 33.5796 120.592 33.5295 120.463 33.4579C120.421 33.434 120.379 33.4006 120.331 33.391C120.282 33.3815 120.227 33.391 120.176 33.3958C119.325 33.4984 118.471 33.5963 117.623 33.7109C117.43 33.7371 117.327 33.6608 117.194 33.5987C117.149 33.5772 117.111 33.5438 117.062 33.5343C117.014 33.5271 116.956 33.5438 116.904 33.5509C116.053 33.6536 115.199 33.7515 114.351 33.8661C114.148 33.8923 114.061 33.792 113.929 33.7395C113.884 33.7204 113.836 33.6846 113.794 33.6894C113.526 33.7156 113.262 33.7515 112.994 33.7825C112.356 33.8613 111.718 33.9353 111.08 34.0164C110.835 34.0475 110.728 33.835 110.522 33.8446C110.255 33.8565 109.99 33.9042 109.723 33.9376C109.51 33.9639 109.297 33.9878 109.085 34.0164C108.875 34.0427 108.875 34.0427 108.353 33.9042C108.308 33.8923 108.253 33.8756 108.208 33.8804C107.463 33.9687 106.716 34.057 105.974 34.1525C105.803 34.174 105.661 34.162 105.539 34.0737C105.452 34.0117 105.362 33.9806 105.255 33.9949C104.137 34.131 103.022 34.2671 101.903 34.4007C101.861 34.4055 101.806 34.3816 101.765 34.3625C101.674 34.3196 101.587 34.2695 101.5 34.2241C101.436 34.279 101.352 34.3291 101.31 34.3912C101.252 34.4747 101.175 34.4986 101.052 34.5129C100.93 34.5272 100.852 34.5225 100.756 34.4604C100.64 34.384 100.52 34.3243 100.33 34.3482C99.1602 34.4986 97.9901 34.6347 96.8201 34.7827C96.6267 34.8065 96.5365 34.7015 96.4011 34.6466C96.356 34.6299 96.3044 34.6036 96.2625 34.6084C95.7822 34.6633 95.3052 34.723 94.8249 34.7803C93.4937 34.9426 92.1626 35.0978 90.8346 35.2696C90.5928 35.3007 90.4284 35.241 90.2576 35.1383C90.2221 35.1168 90.1609 35.1049 90.1158 35.1097C88.2527 35.3341 86.3897 35.5608 84.5299 35.7876C84.4299 35.7995 84.3332 35.7613 84.2526 35.6993C84.1688 35.6348 84.0754 35.6038 83.9722 35.6157C83.1213 35.7184 82.2704 35.821 81.4194 35.9261C81.2067 35.9523 81.2035 35.9547 80.9843 35.8401C80.9392 35.8162 80.8908 35.7709 80.8554 35.7757C80.7812 35.7876 80.7103 35.8473 80.6587 35.9284C80.6072 36.0144 80.5266 36.0382 80.4073 36.0549C80.2848 36.0716 80.2043 36.0645 80.1108 36.0072C79.9915 35.9356 79.8819 35.8664 79.6885 35.8902C77.2421 36.1958 74.7956 36.4894 72.3492 36.7925C72.1525 36.8164 72.0623 36.7162 71.9269 36.6613C71.8818 36.6445 71.8367 36.6207 71.7883 36.6159C71.7368 36.6111 71.682 36.6254 71.6304 36.6326C67.64 37.1172 63.6496 37.6041 59.6593 38.0887C59.4207 38.1173 59.4239 38.1173 59.1629 38.3369C59.1306 38.3632 59.0887 38.399 59.0436 38.4038C57.8219 38.5565 56.5971 38.7045 55.3723 38.8525C54.8405 38.917 54.3087 38.9838 53.7768 39.0459C53.5866 39.0674 53.5866 39.0674 53.1322 39.3252C53.0935 39.3467 53.0483 39.3753 53.0032 39.3801C50.8758 39.6403 48.7485 39.9004 46.6179 40.1559C46.4503 40.175 46.3149 40.2179 46.2376 40.3325C46.1828 40.4137 46.1119 40.4614 46.0055 40.4757C44.5164 40.6571 43.0273 40.8409 41.5349 41.0176C41.3576 41.0391 41.2512 41.1059 41.1642 41.2062C41.1352 41.2396 41.1094 41.2777 41.0675 41.3016C41.0288 41.3231 40.9708 41.3303 40.9224 41.3374C39.646 41.4926 38.3696 41.6525 37.09 41.8005C36.8998 41.822 36.8224 41.9103 36.729 42.0034C36.6967 42.0344 36.6742 42.0774 36.6323 42.0989C36.5904 42.118 36.5291 42.118 36.4776 42.1228C35.4139 42.2517 34.3502 42.3829 33.2866 42.5118C33.0803 42.4999 33.0351 42.6384 32.9352 42.7219C32.8997 42.7506 32.874 42.7887 32.8321 42.8078C32.787 42.8269 32.7289 42.8245 32.6741 42.8293C31.8232 42.932 30.9722 43.0418 30.1181 43.1372C29.9215 43.1587 29.8828 43.2805 29.7764 43.364C29.7409 43.3903 29.7055 43.4309 29.6636 43.438C29.1318 43.5072 28.6 43.5717 28.0681 43.6337C27.8909 43.6552 27.8908 43.6529 27.5782 43.8892C27.5427 43.9154 27.5008 43.9441 27.4557 43.9512C26.6595 44.0515 25.8602 44.147 25.0608 44.2448C24.9577 44.2568 24.8868 44.3141 24.8352 44.3952C24.7836 44.4764 24.7095 44.5289 24.6064 44.5408C23.9682 44.6196 23.3299 44.7007 22.6917 44.7724C22.5144 44.7915 22.3984 44.8511 22.321 44.9585C22.263 45.0397 22.1921 45.0803 22.0793 45.0946C21.4411 45.171 20.8029 45.2545 20.1615 45.3214C19.9745 45.3405 19.8778 45.4216 19.8004 45.5219C19.7392 45.603 19.6683 45.6317 19.549 45.646C18.379 45.7845 17.2057 45.9229 16.0389 46.0757C15.8423 46.1019 15.7424 46.0184 15.6134 45.9587C15.4297 45.8752 15.2589 45.7844 15.2589 45.5983C15.2589 45.5696 15.2041 45.5362 15.1654 45.5123C14.8786 45.3333 14.8786 45.3333 14.8334 45.1424C14.8076 45.0254 14.7786 44.906 14.7561 44.7867C14.7142 44.591 14.611 44.5408 14.3144 44.5766C14.2081 44.5886 14.1017 44.6053 13.9953 44.6148C13.8374 44.6315 13.7182 44.5527 13.6892 44.4095C13.673 44.3308 13.6537 44.252 13.6376 44.1732C13.7988 44.1541 13.7955 44.1517 14.0792 43.8629C14.1984 43.7412 14.1985 43.7412 13.9696 43.6194C13.8826 43.5741 13.7988 43.5239 13.7053 43.481C13.6634 43.4619 13.6086 43.4499 13.5635 43.4547C13.296 43.4834 13.0317 43.5168 12.7673 43.5502C12.3419 43.6027 12.3418 43.6027 11.9099 43.3592C11.8745 43.3401 11.8197 43.3043 11.8261 43.2852C11.8616 43.1969 11.9486 43.1587 12.0582 43.1492C12.2193 43.1348 12.3773 43.111 12.5352 43.0919C12.6416 43.0799 12.7479 43.0656 12.8543 43.0537C12.9542 42.963 13.0574 42.8747 13.1509 42.7816C13.2992 42.6384 13.2991 42.6336 13.096 42.5333C12.9671 42.4665 12.8285 42.4068 12.6964 42.3447C12.5384 42.3638 12.3773 42.3853 12.2193 42.402C12.0195 42.4235 11.9389 42.3782 11.8873 42.223C11.8422 42.0869 11.897 41.97 12.0517 41.9413C12.2097 41.9127 12.358 41.8936 12.4386 41.7719C12.5159 41.6549 12.6513 41.6095 12.8189 41.6C12.9253 41.5928 13.0316 41.5761 13.138 41.5618C13.2766 41.5427 13.3507 41.421 13.3217 41.2849C13.3056 41.1966 13.2734 41.1226 13.1477 41.1035C12.59 41.02 12.5836 41.0223 12.3064 40.86C12.2806 40.8457 12.2613 40.8027 12.271 40.7813C12.2871 40.7455 12.3225 40.6929 12.3612 40.6858C12.7319 40.6333 13.1025 40.5855 13.4732 40.5497C13.5957 40.5378 13.686 40.5211 13.7279 40.4327C13.7859 40.311 13.7601 40.1988 13.6473 40.1153C13.6118 40.089 13.5538 40.0556 13.5151 40.058C13.0896 40.1009 12.6674 40.1558 12.2419 40.1988C12.2032 40.2036 12.1324 40.163 12.1162 40.132C12.084 40.0747 12.1323 39.9983 12.2451 39.9721C12.3934 39.9362 12.5449 39.9339 12.6448 39.8145C12.7834 39.645 12.9542 39.4899 13.109 39.3276C13.1347 39.2989 13.1767 39.244 13.167 39.2392C13.0864 39.1867 12.993 39.1461 12.9092 39.096C12.7673 39.0125 12.7673 38.8955 12.7995 38.7833C12.8253 38.6926 12.922 38.6568 13.0413 38.6568C13.0928 38.6568 13.1573 38.6568 13.1992 38.6353C13.3088 38.5828 13.3443 38.516 13.2895 38.4658C13.2572 38.4372 13.1993 38.3966 13.1606 38.4014C12.4708 38.4802 11.7777 38.5565 11.0912 38.6544C10.8881 38.6831 10.7947 38.5923 10.6722 38.5279C10.5788 38.4778 10.4917 38.4587 10.3756 38.4945C10.266 38.5279 10.1597 38.5088 10.092 38.43C10.0372 38.3656 10.1339 38.3107 10.395 38.2486C10.4433 38.2367 10.4981 38.2295 10.5336 38.2056C10.9075 37.9478 10.9075 37.9455 11.1653 37.912C11.4167 37.881 11.4168 37.8786 11.5489 37.7402C11.6102 37.6757 11.6778 37.6113 11.7358 37.5444C11.7584 37.5182 11.7971 37.4704 11.7842 37.4561C11.7133 37.3821 11.6166 37.3654 11.5038 37.3821C11.2524 37.4227 10.9559 37.3893 10.8237 37.6161C10.7721 37.702 10.6916 37.7259 10.5755 37.7402C9.4087 37.8786 8.24184 38.0266 7.0718 38.1603C6.88163 38.1818 6.79465 38.2701 6.72052 38.368C6.65605 38.4491 6.58513 38.473 6.46264 38.4873C6.34016 38.5017 6.24341 38.5088 6.1725 38.43C6.1306 38.3823 6.16606 38.3155 6.26276 38.2486C6.40136 38.1531 6.37556 38.0338 6.33044 37.9216C6.29821 37.8476 6.19829 37.7951 6.09192 37.7999C5.93398 37.8094 5.78253 37.8357 5.65038 37.7402C5.57302 37.6853 5.4763 37.6471 5.38927 37.5993C5.22166 37.5015 5.05405 37.4012 4.81875 37.4657C4.65759 37.4418 4.54477 37.3559 4.41584 37.289C4.19989 37.1792 4.18055 37.1625 4.33526 37.0456C4.50932 36.9143 4.37392 36.7424 4.47061 36.6135C4.57376 36.475 4.71563 36.3533 4.84134 36.2244C4.87357 36.191 4.90259 36.16 4.93482 36.1266C4.86069 36.0788 4.79301 36.0191 4.70598 35.9857C4.59317 35.9428 4.53515 35.8902 4.54159 35.7423C4.51903 35.7208 4.52864 35.7757 4.55442 35.79C4.58343 35.8043 4.6544 35.7924 4.68985 35.7757C4.7801 35.7303 4.82518 35.6706 4.80262 35.6205C4.78973 35.5943 4.72853 35.5608 4.68985 35.5608C4.61894 35.5608 4.55771 35.6134 4.53837 35.7423C4.17736 35.8401 3.80341 35.8879 3.42951 35.9261C3.39083 35.9308 3.34251 35.8831 3.29738 35.8592C3.14911 35.7781 3.1491 35.7804 2.71396 35.7566C2.66883 35.7542 2.60762 35.7208 2.58506 35.6874C2.49158 35.5417 2.49483 35.3818 2.44971 35.2266C2.53351 35.1264 2.61725 35.0285 2.70428 34.9307C2.87833 34.7325 3.10401 34.5583 3.23939 34.3411C3.21038 34.2241 3.17169 34.1071 3.31352 34.0117C3.71642 33.8923 3.71322 33.8923 3.82281 33.7777C4.13547 33.4531 4.44488 33.1261 4.77043 32.8062C4.85746 32.7227 4.85747 32.6773 4.70276 32.6415C4.65441 32.632 4.60277 32.6296 4.5512 32.6343C4.39003 32.6511 4.22887 32.694 4.07093 32.6845C3.91299 32.6773 3.79696 32.5723 3.66803 32.5078C3.53587 32.441 3.40373 32.3718 3.27157 32.3025C3.12008 32.3097 2.96861 32.3765 2.81712 32.2691C2.70108 32.1856 2.55605 32.1259 2.42389 32.0567C2.52381 31.8753 2.71079 31.7368 2.85584 31.5769C2.98799 31.4313 2.99114 31.4337 3.3457 31.3215C3.51331 31.269 3.57133 30.9992 3.42951 30.9204C3.25868 30.825 3.07821 30.7366 2.90416 30.6459C2.75266 30.6531 2.59798 30.7176 2.45293 30.6101C2.34012 30.529 2.21116 30.4741 2.02421 30.5051C1.70833 30.5576 1.38602 30.5839 1.06692 30.6268C0.957326 30.6412 0.838031 30.6316 0.789682 30.5505C0.757449 30.4932 0.85093 30.4144 0.957297 30.3977C1.11846 30.3738 1.26349 30.3452 1.34407 30.2258C1.42143 30.1065 1.56324 30.0707 1.73085 30.054C1.77597 30.0492 1.82758 30.0205 1.85015 29.9919C1.96618 29.8534 2.09512 29.7341 2.34331 29.7389C2.44646 29.6911 2.50122 29.6314 2.46899 29.5742C2.44965 29.5431 2.38199 29.5026 2.34331 29.5073C2.07578 29.5312 1.80826 29.5551 1.54718 29.5981C1.42469 29.6171 1.33117 29.6219 1.25381 29.5503C1.19902 29.5026 1.22802 29.4381 1.33117 29.3689C1.42142 29.3092 1.44723 29.24 1.44079 29.1588C1.42467 28.9702 1.32795 28.9153 1.01852 28.9273C0.796116 28.9368 0.741317 28.9058 0.692968 28.7435C0.680075 28.7053 0.647899 28.6528 0.670462 28.6265C0.809062 28.4642 0.89932 28.2637 1.1604 28.1873C1.26355 28.1587 1.37309 28.1587 1.43756 28.0966C1.50202 28.0345 1.56007 27.9629 1.62776 27.9032C1.71156 27.8316 1.76953 27.7648 1.73085 27.7195C1.66638 27.6383 1.56327 27.6311 1.44401 27.6598C1.34087 27.6837 1.23128 27.686 1.12491 27.7003C0.934741 27.7266 0.780059 27.6646 0.757496 27.5595C0.696255 27.2826 0.631771 27.0081 0.576975 26.7312C0.570529 26.6978 0.586601 26.6548 0.612387 26.6262C0.702638 26.5259 0.799374 26.4305 0.892848 26.3326C1.00244 26.2204 1.17652 26.2419 1.32479 26.2204C1.5343 26.1894 1.53423 26.1917 1.81465 25.9626C1.92425 25.8719 2.11443 25.9077 2.22724 25.8265C2.2627 25.8003 2.31749 25.7573 2.30782 25.7334C2.29493 25.7024 2.2305 25.6785 2.18215 25.6642C2.13702 25.6499 2.08224 25.6427 2.03389 25.6499C1.44726 25.7191 0.863867 25.7931 0.277235 25.86C0.177314 25.8719 0.0677198 25.8194 0.032264 25.7454C-0.00319178 25.6762 0.00644651 25.5926 0 25.5138C0.0934744 25.416 0.199801 25.3253 0.280382 25.2202C0.341624 25.1391 0.412548 25.1033 0.535032 25.0985C0.696195 25.0913 0.85415 25.0627 1.03465 25.0412C1.36987 24.6927 1.69862 24.3275 2.05963 23.979C2.20467 23.8382 2.16927 23.6949 2.19828 23.5445C2.22729 23.4061 2.44324 23.4276 2.58828 23.387C2.70432 23.3536 2.74295 23.2772 2.69782 23.2247C2.67204 23.1936 2.61405 23.1578 2.56892 23.1578C2.46256 23.1578 2.35619 23.1793 2.24983 23.1913C2.14346 23.2032 2.02098 23.196 1.93395 23.2366C1.85015 23.2748 1.79532 23.356 1.74053 23.4252C1.67928 23.5016 1.59876 23.5278 1.47628 23.5326C1.31834 23.5374 1.16041 23.5589 1.00247 23.5756C0.828411 23.4825 0.647871 23.3918 0.480262 23.2939C0.448029 23.2748 0.441548 23.2199 0.444771 23.1841C0.451218 23.091 0.402882 23.0337 0.296514 22.9884C0.206263 22.9502 0.132122 22.8953 0.0483173 22.8475C0.112782 22.7831 0.183719 22.721 0.235291 22.6518C0.348105 22.5062 0.489944 22.4012 0.734912 22.4059C0.831609 22.3129 0.908945 22.1983 1.03465 22.1338C1.15391 22.0718 1.35699 22.1338 1.44724 21.993C1.49236 21.9237 1.56009 21.845 1.64712 21.8163C1.78572 21.771 1.96622 21.7949 2.0468 21.6612C2.09515 21.5848 2.16603 21.5156 2.2595 21.4965C2.36587 21.475 2.47543 21.4702 2.55279 21.4249C2.5947 21.401 2.63983 21.3628 2.63983 21.3294C2.63983 21.3079 2.57541 21.2745 2.53029 21.2602C2.48838 21.2435 2.43353 21.2315 2.38518 21.2363C2.22401 21.2506 2.06608 21.2769 1.90492 21.2912C1.85979 21.296 1.80823 21.2793 1.75988 21.2649C1.61806 21.2267 1.62771 21.179 1.74053 21.0931C1.85334 21.0095 1.93397 20.9021 2.02744 20.8042C2.13058 20.7875 2.2595 20.7947 2.33041 20.7493C2.44967 20.6753 2.53345 20.5679 2.63015 20.4748C2.73652 20.4605 2.8461 20.4557 2.94602 20.4295C2.98792 20.4199 3.00728 20.3674 3.04273 20.3364C3.1072 20.2767 3.16204 20.1908 3.24907 20.1621C3.39089 20.1192 3.56494 20.1359 3.64875 20.0046C3.6971 19.9282 3.7712 19.8471 3.86145 19.8423C4.11287 19.8327 4.21924 19.7014 4.34817 19.5773C4.44487 19.4842 4.65116 19.532 4.75753 19.4389C4.82844 19.3792 4.88004 19.3052 4.95095 19.2479C4.97996 19.224 5.04118 19.2121 5.08953 19.2049C5.35384 19.1691 5.62136 19.1429 5.88567 19.1047C5.92757 19.0975 5.96628 19.0617 5.99851 19.0331C6.0662 18.971 6.10806 18.8851 6.19186 18.8445C6.27566 18.8039 6.39491 18.8039 6.49805 18.792C6.83005 18.7562 6.85586 18.7657 7.00735 18.5628C7.12984 18.3981 7.42964 18.5151 7.52956 18.3337C7.58758 18.2286 7.6939 18.1427 7.88407 18.1308C8.1516 18.1141 8.4159 18.0687 8.68343 18.0377C8.92195 18.009 8.91874 18.009 9.1766 17.787C9.29263 17.6868 9.4635 17.7011 9.615 17.682C9.77616 17.6629 9.92441 17.6343 10.0018 17.5149C10.0791 17.398 10.2209 17.3598 10.3853 17.343C10.5368 17.3263 10.7077 17.3383 10.8269 17.2428C11.117 17.0137 11.1138 17.0113 11.3169 16.9874C11.636 16.9492 11.9551 16.911 12.2742 16.8704C12.4869 16.8442 12.7093 16.8394 12.9092 16.7869C13.0542 16.7487 13.1186 16.615 13.2121 16.5219C13.4764 16.4861 13.7407 16.4503 14.005 16.4169C14.3757 16.3691 14.7496 16.3262 15.1235 16.2808C15.2846 16.1901 15.3073 15.9896 15.578 15.9801C15.7392 15.9753 15.8971 15.9443 16.0583 15.9252C16.3258 15.8917 16.5901 15.8488 16.8576 15.8321C17.0607 15.8201 17.0961 15.6912 17.2025 15.6101C17.2379 15.5814 17.2702 15.5409 17.3121 15.5337C17.7311 15.4669 18.163 15.4525 18.5724 15.3547C18.6143 15.3451 18.6529 15.295 18.6626 15.2592C18.6691 15.2401 18.6143 15.2043 18.5788 15.1876C18.5369 15.1685 18.4821 15.1494 18.437 15.1542C17.1058 15.3141 15.7746 15.4764 14.4434 15.6363C14.2565 15.6602 14.2565 15.6578 13.802 15.9204C13.7633 15.9419 13.7181 15.9657 13.6698 15.9729C13.4571 16.0015 13.2411 16.0183 13.0316 16.0541C12.8608 16.0827 12.719 16.0541 12.5965 15.9681C12.5095 15.9061 12.4192 15.887 12.3096 15.8917C12.1871 15.8989 12.1066 15.9252 12.0357 15.9896C11.9422 16.0779 11.8938 16.1925 11.6972 16.2164C10.7915 16.319 9.88568 16.4336 8.98317 16.5434C8.85746 16.51 8.79623 16.4599 8.82846 16.4002C8.8478 16.3644 8.88649 16.3166 8.92517 16.3119C9.29585 16.2617 9.66973 16.2188 10.0404 16.171C10.092 16.1639 10.1629 16.1686 10.1919 16.1448C10.3337 16.0373 10.3853 15.8631 10.6529 15.8512C10.8076 15.844 10.9655 15.8082 11.1138 15.7748C11.1557 15.7652 11.1944 15.7151 11.204 15.6793C11.2073 15.6602 11.1557 15.6244 11.117 15.6077C10.9752 15.5385 10.8108 15.622 10.669 15.5743C10.6207 15.5576 10.5529 15.5337 10.5433 15.505C10.5368 15.4788 10.5916 15.4358 10.6303 15.4096C10.6657 15.3857 10.7141 15.3642 10.7624 15.3571C11.1879 15.3022 11.6134 15.2449 12.0389 15.2019C12.2129 15.1852 12.3354 15.1255 12.4128 15.0157C12.4708 14.9345 12.5417 14.8916 12.6513 14.8797C13.3958 14.7913 14.1404 14.6935 14.8882 14.6123C15.0751 14.5932 15.1719 14.5144 15.2492 14.4118C15.3105 14.3306 15.3814 14.302 15.5007 14.2877C16.5676 14.1635 17.628 14.0251 18.6949 13.9058C18.8915 13.8843 18.9495 13.7816 19.0495 13.6933C19.0849 13.6623 19.1074 13.6241 19.1526 13.605C19.1977 13.5859 19.2557 13.5883 19.3105 13.5835C20.1614 13.4808 21.0124 13.3711 21.8666 13.2756C22.0664 13.2541 22.1051 13.1347 22.2082 13.0512C22.2437 13.0249 22.2759 12.982 22.3178 12.9748C22.956 12.8937 23.5942 12.8173 24.2324 12.7385C24.6579 12.686 25.0833 12.6335 25.5088 12.5833C25.7183 12.5595 25.7183 12.5571 26.002 12.3303C26.0342 12.304 26.0794 12.273 26.1213 12.2658C27.3461 12.1131 28.5677 11.9675 29.7925 11.8171C29.8957 11.8052 29.9698 11.7502 30.0214 11.6691C30.0729 11.5879 30.1471 11.533 30.2471 11.5211C31.2044 11.4017 32.1616 11.2848 33.1222 11.1726C33.2962 11.1535 33.4187 11.0962 33.496 10.9888C33.5541 10.9076 33.625 10.8647 33.7346 10.8527C34.6919 10.7382 35.6492 10.6164 36.6098 10.5066C36.7935 10.4851 36.8837 10.404 36.9739 10.3085C37.0062 10.2751 37.032 10.2202 37.0707 10.2154C37.5477 10.1486 38.0215 10.0793 38.5018 10.034C38.7016 10.0149 38.7693 9.91462 38.8499 9.81914C38.9144 9.74276 38.9885 9.71651 39.111 9.70696C39.3785 9.68547 39.6428 9.64491 39.9039 9.60433C39.9426 9.59717 39.991 9.54465 39.9942 9.51123C40.0006 9.44917 39.9265 9.4062 39.804 9.38472C38.5276 9.53987 37.248 9.69502 35.9716 9.85017C35.762 9.87643 35.762 9.87644 35.4784 10.1032C35.4462 10.1295 35.401 10.1605 35.3559 10.1677C34.131 10.318 32.9095 10.466 31.6846 10.6164C31.5815 10.6284 31.5073 10.6833 31.4558 10.7644C31.4042 10.8456 31.33 10.9005 31.2301 10.9124C30.06 11.0556 28.89 11.2013 27.7168 11.3373C27.5427 11.3564 27.4203 11.4113 27.3429 11.5211C27.2849 11.6022 27.214 11.6452 27.1044 11.6572C25.9859 11.7908 24.8706 11.9317 23.7489 12.0606C23.6361 12.0725 23.5524 12.0033 23.5588 11.9388C23.562 11.9054 23.6103 11.8505 23.649 11.8458C24.2324 11.767 24.8126 11.6858 25.3993 11.6261C25.5959 11.607 25.6539 11.502 25.7538 11.4137C25.786 11.3827 25.8118 11.3421 25.8537 11.3254C25.8988 11.3063 25.9569 11.3087 26.0117 11.3039C27.3944 11.1344 28.7772 10.9626 30.1632 10.8026C30.3631 10.7788 30.4017 10.6618 30.5049 10.5782C30.5403 10.5496 30.5726 10.5066 30.6145 10.5019C31.0399 10.4446 31.4654 10.3944 31.8909 10.3443C32.6354 10.2536 33.38 10.1629 34.1278 10.0722C34.3437 10.0459 34.3438 10.0459 34.621 9.82153C34.6532 9.79527 34.6983 9.76188 34.7403 9.7571C36.7097 9.51602 38.6791 9.27492 40.6485 9.03622C40.7516 9.02428 40.8258 8.96938 40.8773 8.88822C40.9289 8.80945 41.003 8.75216 41.103 8.73784C43.7654 8.4132 46.4246 8.08856 49.087 7.76869C49.261 7.74721 49.3835 7.69708 49.4608 7.58489C49.5156 7.50373 49.5898 7.46077 49.6993 7.44645C52.6261 7.09079 55.5528 6.73512 58.4827 6.37707C60.4521 6.13837 62.4216 5.89489 64.391 5.66096C64.5715 5.63948 64.6681 5.56547 64.7584 5.4676C64.7874 5.43418 64.8164 5.37928 64.8551 5.3745C65.2773 5.31483 65.6996 5.25993 66.1218 5.20503C66.254 5.26948 66.3861 5.33156 66.5183 5.39601C66.6182 5.3053 66.7149 5.2122 66.8149 5.12149C67.4531 5.05227 68.0816 4.94485 68.7262 4.91143C68.7681 4.90905 68.8132 4.95441 68.8584 4.97828C69.1581 5.12866 69.329 5.11672 69.5191 4.91621C69.5868 4.8446 69.6448 4.78015 69.748 4.76822C70.0671 4.72525 70.3895 4.6966 70.7054 4.64648C70.8762 4.62022 71.018 4.64408 71.1404 4.73002C71.2275 4.79208 71.3178 4.81835 71.4241 4.80403C72.0108 4.73242 72.5942 4.66319 73.1808 4.5868C73.2227 4.58203 73.2613 4.54143 73.2936 4.51279C73.3613 4.45073 73.4193 4.3839 73.4838 4.31946C73.5708 4.36003 73.6675 4.39107 73.7384 4.44358C73.8287 4.50565 73.9124 4.50563 74.0349 4.48892C76.375 4.20009 78.7183 3.91843 81.0584 3.62721C81.2583 3.60334 81.3453 3.70361 81.4807 3.75612C81.5258 3.77522 81.5709 3.79908 81.6193 3.80385C81.6708 3.80862 81.7256 3.79431 81.7772 3.78715C83.5339 3.57232 85.2906 3.35986 87.0472 3.14503C87.2793 3.11638 87.2793 3.11638 87.6242 3.26438C87.6661 3.28348 87.7209 3.30496 87.766 3.2978C88.5654 3.20471 89.3647 3.10446 90.1609 3.00898C90.264 2.99705 90.3511 3.03523 90.4446 3.09013C90.6283 3.19755 90.6411 3.19756 90.7765 3.04001C90.841 2.96602 90.9086 2.92064 91.015 2.89916C91.1311 2.87529 91.2246 2.88247 91.3148 2.92544C91.4438 2.98512 91.5372 3.08536 91.7339 3.0591C92.5848 2.94691 93.4389 2.85382 94.2867 2.73925C94.4801 2.71299 94.5832 2.79414 94.7122 2.85382C94.7573 2.8753 94.7992 2.90872 94.8475 2.91588C94.8959 2.92304 94.9539 2.90632 95.0054 2.89916C96.0691 2.77026 97.136 2.64377 98.1964 2.50532C98.3963 2.47906 98.4833 2.58169 98.6187 2.6342C98.6638 2.6533 98.7154 2.68673 98.7573 2.68196C99.3955 2.60796 100.037 2.52917 100.675 2.4504C100.904 2.42175 100.904 2.42414 101.252 2.56975C101.294 2.58884 101.349 2.60794 101.394 2.60317C102.139 2.51485 102.886 2.42414 103.631 2.33343C103.86 2.30479 103.86 2.3048 104.52 2.42892C104.569 2.43847 104.62 2.45281 104.669 2.44804C105.52 2.34539 106.374 2.24512 107.225 2.13532C107.396 2.11384 107.537 2.13293 107.66 2.21886C107.747 2.28092 107.837 2.3072 107.944 2.29287C108.901 2.17591 109.861 2.06372 110.816 1.9396C110.999 1.91573 111.118 1.96822 111.247 2.03745C111.289 2.06132 111.331 2.09474 111.38 2.10429C111.428 2.11384 111.483 2.10428 111.534 2.09712C112.492 1.98016 113.452 1.87036 114.406 1.74385C114.6 1.71759 114.703 1.79874 114.832 1.85842C114.877 1.8799 114.925 1.92287 114.964 1.92048C115.338 1.8799 115.712 1.84411 116.082 1.78444C116.282 1.75102 116.369 1.8608 116.505 1.91332C116.55 1.93002 116.601 1.96585 116.643 1.96107C117.442 1.86798 118.242 1.77012 119.038 1.66986C119.151 1.65554 119.235 1.677 119.325 1.73907C119.444 1.82261 119.583 1.85603 119.757 1.82978C120.128 1.77487 120.501 1.73669 120.875 1.69134C121.094 1.66508 121.094 1.66509 121.765 1.78921C121.813 1.79876 121.865 1.81307 121.913 1.8083C122.551 1.73192 123.193 1.65792 123.828 1.57438C123.999 1.55051 124.14 1.57198 124.263 1.65792C124.35 1.71998 124.437 1.74625 124.547 1.73193C125.133 1.66032 125.717 1.5887 126.303 1.51709C126.516 1.49083 126.729 1.44547 126.941 1.44547C127.096 1.44785 127.209 1.56243 127.348 1.61972C127.386 1.63643 127.451 1.61735 127.502 1.61258C128.247 1.52187 128.995 1.43832 129.736 1.33567C129.929 1.30942 130.033 1.39057 130.161 1.45025C130.207 1.47173 130.255 1.5147 130.294 1.51231C130.561 1.48605 130.825 1.45025 131.093 1.41921C131.412 1.38102 131.734 1.35238 132.05 1.29986C132.308 1.2569 132.405 1.46456 132.611 1.47172C132.769 1.47888 132.93 1.43831 133.088 1.41921C133.407 1.38102 133.726 1.33806 134.045 1.30464C134.158 1.29271 134.245 1.2545 134.281 1.16856C134.287 1.15186 134.232 1.11607 134.197 1.09458C133.768 0.851106 133.768 0.851094 133.336 0.903609C133.069 0.937027 132.805 0.970451 132.537 0.999095C132.492 1.00387 132.44 0.984774 132.395 0.970452C132.266 0.929873 132.279 0.882137 132.389 0.796204C132.498 0.710271 132.582 0.605252 132.676 0.507384C132.808 0.569446 132.937 0.631487 133.069 0.693549C133.175 0.681614 133.282 0.667313 133.388 0.655378C133.92 0.593315 134.452 0.528861 134.983 0.471572C135.022 0.466798 135.07 0.514546 135.116 0.538416C135.245 0.60764 135.361 0.667299 135.548 0.641042C136.025 0.571818 136.505 0.521691 136.982 0.462015C137.191 0.435758 137.191 0.43576 137.559 0.583755C137.601 0.600465 137.656 0.619562 137.701 0.614788C138.181 0.559886 138.658 0.500218 139.138 0.442929C139.241 0.430994 139.341 0.462024 139.415 0.531248C139.444 0.559892 139.438 0.607623 139.56 0.999095C139.941 1.31657 140.202 1.28317 140.466 1.25452C140.579 1.24259 140.679 1.23064 140.753 1.1829C140.792 1.15664 140.84 1.11845 140.84 1.08741C140.84 1.06354 140.769 1.02534 140.724 1.02057C140.405 0.97283 140.102 1.0731 139.789 1.09458C139.644 1.10413 139.519 1.02058 139.493 0.884523C139.486 0.846331 139.477 0.805753 139.467 0.767561C139.457 0.729369 139.451 0.688792 139.441 0.650599C139.316 0.638664 139.241 0.681623 139.187 0.762782C139.141 0.829619 139.077 0.906004 138.99 0.941809C138.903 0.980002 138.784 0.972853 138.677 0.984788C138.574 0.996724 138.461 1.02775 138.365 1.01104C138.268 0.991946 138.191 0.922711 138.1 0.879744C138.058 0.858261 138.007 0.827241 137.965 0.832015C137.594 0.872595 137.227 0.913159 136.859 0.965674C136.666 0.994318 136.569 0.894078 136.447 0.832015C136.35 0.784275 136.253 0.796195 136.237 0.905998C136.195 1.16857 136.344 1.27837 136.672 1.22824C136.943 1.18527 137.188 1.17814 137.401 1.34045C137.43 1.36194 137.498 1.37148 137.54 1.36671C137.804 1.33806 138.065 1.30225 138.329 1.27361C138.378 1.26884 138.429 1.27837 138.474 1.28792C139.132 1.41682 139.132 1.41922 139.354 1.39057C139.461 1.37625 139.564 1.36431 139.554 1.00148C139.757 0.6124 140.079 0.586147 140.392 0.528859C140.595 0.493053 140.682 0.598087 140.814 0.652989C140.859 0.672085 140.908 0.71027 140.95 0.705496C141.643 0.626724 142.332 0.543167 143.022 0.454847C143.138 0.440525 143.222 0.454849 143.312 0.516912C143.428 0.595684 143.557 0.645822 143.741 0.617177C144.108 0.559889 144.482 0.524092 144.856 0.476351C145.046 0.452481 145.046 0.452456 145.43 0.600452C145.472 0.617161 145.527 0.636258 145.572 0.631484C145.946 0.590905 146.316 0.540793 146.687 0.497826C146.79 0.485891 146.884 0.519306 146.964 0.583755C147.045 0.648205 147.142 0.68162 147.242 0.669685C147.615 0.626718 147.986 0.578993 148.357 0.536027C148.402 0.531253 148.457 0.547961 148.499 0.56467C148.892 0.712665 148.892 0.712641 149.072 0.688771C149.337 0.652965 149.607 0.636275 149.868 0.588534C150.123 0.540794 150.255 0.679229 150.429 0.755614C150.906 0.700713 151.387 0.655371 151.86 0.588534C152.054 0.55989 152.157 0.638655 152.286 0.700717C152.331 0.722201 152.376 0.767559 152.418 0.765172C152.579 0.755624 152.737 0.729371 152.895 0.710275C153.053 0.691179 153.214 0.672085 153.372 0.652989C153.553 0.722212 153.672 0.884528 153.93 0.829626C154.085 0.796208 154.249 0.789047 154.407 0.76995C154.565 0.750854 154.726 0.73176 154.884 0.712664C154.99 0.700729 155.1 0.693557 155.203 0.672074C155.393 0.636269 155.487 0.753247 155.622 0.805762C155.667 0.822471 155.719 0.851096 155.761 0.846322C156.08 0.812904 156.402 0.784262 156.715 0.72936C156.956 0.686394 157.121 0.758014 157.292 0.858269C157.327 0.879752 157.388 0.891686 157.433 0.886912C157.807 0.846333 158.178 0.796191 158.549 0.753225C158.649 0.74129 158.745 0.779481 158.826 0.841544C158.91 0.905993 159.003 0.937048 159.106 0.925113C159.477 0.882146 159.851 0.834392 160.222 0.791425C160.267 0.786651 160.321 0.805751 160.363 0.824847C160.724 0.972843 160.724 0.975232 160.937 0.946588C160.989 0.939427 161.044 0.934634 161.095 0.927473C161.359 0.894055 161.633 0.882136 161.891 0.824847C162.188 0.760398 162.404 0.84156 162.613 0.97762C162.878 0.948976 163.148 0.932263 163.406 0.884523C163.6 0.848718 163.703 0.93942 163.832 0.999095C163.877 1.02058 163.925 1.06355 163.964 1.05877C164.338 1.01819 164.712 0.982399 165.079 0.922723C165.279 0.889305 165.366 0.996701 165.501 1.0516C165.546 1.0707 165.595 1.10414 165.637 1.09936C165.849 1.08026 166.062 1.05161 166.275 1.02535C166.523 0.994318 166.523 0.996703 166.852 1.14231C167.006 1.21153 167.161 1.15663 167.313 1.13992C167.474 1.12083 167.625 1.10651 167.754 1.20438C167.835 1.26644 167.932 1.30463 168.032 1.29508C168.244 1.2736 168.46 1.25213 168.67 1.21632C168.837 1.18768 168.982 1.20676 169.105 1.29508C169.192 1.35715 169.282 1.3882 169.389 1.37387C169.866 1.31659 170.346 1.25689 170.823 1.20199C170.865 1.19721 170.923 1.2187 170.961 1.24019C171.052 1.28315 171.139 1.33088 171.226 1.37862C171.435 1.35714 171.651 1.34762 171.857 1.3142C172.077 1.28078 172.277 1.26884 172.447 1.40013C172.483 1.42877 172.534 1.46933 172.576 1.46694C172.737 1.45739 172.895 1.43353 173.053 1.41444C173.211 1.39534 173.372 1.37625 173.53 1.35715C173.714 1.41682 173.83 1.58869 174.088 1.53379C174.243 1.50037 174.407 1.49321 174.565 1.47411C174.723 1.45501 174.884 1.43353 175.042 1.41682C175.094 1.41205 175.152 1.40011 175.197 1.40966C175.245 1.4192 175.287 1.45263 175.329 1.4765C175.458 1.54572 175.577 1.61496 175.761 1.57438C175.916 1.54096 176.08 1.53379 176.238 1.51231C176.454 1.48605 176.454 1.48606 176.812 1.63644C176.957 1.6985 177.121 1.61735 177.26 1.66986C177.353 1.70567 177.434 1.76533 177.524 1.80591C177.563 1.82262 177.624 1.82977 177.669 1.825C177.882 1.80351 178.098 1.78204 178.307 1.74624C178.478 1.71759 178.62 1.74623 178.739 1.83216C178.826 1.89423 178.913 1.9205 179.023 1.90618C179.555 1.83934 180.087 1.78203 180.615 1.70803C180.796 1.68178 180.941 1.72237 181.041 1.8083C181.211 1.9563 181.453 1.78205 181.63 1.9014C181.74 1.9754 181.85 2.06133 182.049 2.02553C182.417 1.96347 182.791 1.93003 183.161 1.88706C183.294 1.95151 183.426 2.01597 183.561 2.08042C183.774 2.05417 183.987 2.02789 184.199 2.00402C184.357 1.98493 184.518 1.96345 184.676 1.94674C184.728 1.94196 184.783 1.93241 184.831 1.94435C184.879 1.95628 184.918 1.98732 184.963 2.01119C185.186 2.12816 185.186 2.13055 185.553 2.08281C185.711 2.06133 185.863 2.04701 185.995 2.14249C186.117 2.23081 186.262 2.24751 186.43 2.22125C186.746 2.17351 187.065 2.13771 187.387 2.10429C187.487 2.09235 187.581 2.13293 187.664 2.195C187.79 2.29287 187.945 2.28332 188.103 2.25706C188.312 2.22364 188.518 2.19023 188.696 2.32391C188.731 2.35255 188.786 2.39311 188.825 2.39072C189.089 2.37162 189.357 2.35731 189.614 2.31196C189.872 2.26661 189.998 2.4146 190.175 2.48621C190.44 2.45518 190.707 2.42414 190.971 2.39311C191.023 2.38595 191.084 2.36448 191.129 2.37641C191.32 2.42654 191.429 2.60556 191.69 2.55066C191.842 2.51963 192.006 2.51009 192.164 2.50293C192.206 2.50055 192.261 2.54111 192.29 2.57214C192.306 2.58885 192.29 2.6342 192.27 2.65807C192.212 2.7249 192.141 2.78698 192.09 2.85621C192.083 2.86576 192.145 2.9087 192.18 2.9278C192.267 2.97077 192.367 2.96362 192.483 2.94453C192.583 2.92782 192.686 2.96123 192.757 3.03285C192.786 3.06149 192.776 3.10923 192.715 3.26677C192.715 3.38373 192.783 3.33121 192.805 3.25482C192.841 3.14502 192.773 3.10922 192.644 3.16889C192.554 3.21186 192.509 3.27393 192.531 3.32406C192.544 3.35031 192.606 3.38373 192.715 3.26677C192.999 3.12355 193.212 3.0973 193.424 3.07105C193.479 3.06388 193.544 3.04 193.582 3.05432C193.721 3.11161 193.85 3.18084 193.985 3.24529C194.14 3.23097 194.285 3.19515 194.436 3.28824C194.649 3.41953 194.659 3.4076 194.865 3.38134C194.971 3.36702 195.078 3.35511 195.184 3.34317C195.291 3.33123 195.374 3.36703 195.468 3.42193C195.658 3.53412 195.674 3.53411 195.8 3.38134C195.874 3.28825 195.926 3.25722 196.019 3.30019C196.328 3.4458 196.332 3.45534 196.596 3.41237C196.815 3.37657 197.021 3.36702 197.183 3.50308C197.292 3.59856 197.328 3.57708 197.415 3.47683C197.647 3.21187 197.753 3.21663 198.188 3.4076C198.391 3.4983 198.601 3.40044 198.807 3.38851C198.981 3.37896 199.104 3.43624 199.117 3.58662C199.126 3.67972 199.155 3.74656 199.271 3.7776C199.316 3.78953 199.371 3.80623 199.416 3.80146C199.684 3.77282 199.948 3.73939 200.216 3.70597C200.351 3.68926 200.425 3.5771 200.399 3.4291C200.37 3.27156 200.422 3.21425 200.615 3.16889C200.731 3.14264 200.825 3.14743 200.918 3.1904C201.022 3.23814 200.993 3.2811 200.902 3.36703C200.686 3.57709 200.712 3.70597 200.989 3.85158C201.086 3.90171 201.163 3.94708 201.186 4.02108C201.199 4.05927 201.186 4.10939 201.215 4.13804C201.373 4.29797 201.592 4.40062 201.837 4.47701C202.072 4.41256 202.233 4.51995 202.414 4.60589C202.556 4.67272 202.723 4.61545 202.875 4.59158C203.046 4.56532 203.188 4.58441 203.31 4.67273C203.397 4.73479 203.487 4.76343 203.594 4.75149C203.806 4.72523 204.022 4.70853 204.232 4.67034C204.412 4.63692 204.548 4.68467 204.661 4.76583C204.802 4.86847 204.96 4.79923 205.109 4.81356C205.308 4.83027 205.408 5.0427 205.669 4.98541C205.824 4.952 205.985 4.94007 206.147 4.93052C206.188 4.92813 206.24 4.96872 206.275 4.99736C206.446 5.12865 206.646 5.12148 206.865 5.08329C207.017 5.05703 207.165 5.03317 207.313 5.12388C207.558 5.27665 207.829 5.41033 208.087 5.55117C208.122 5.66097 208.097 5.78985 208.28 5.8543C208.377 5.88771 208.467 5.93786 208.541 5.99276C208.632 6.05721 208.715 6.07393 208.831 6.05722C209.041 6.0238 209.26 6.01661 209.466 5.97365C209.657 5.93545 209.776 6.01425 209.892 6.08825C209.985 6.14792 210.072 6.17655 210.185 6.13359C210.301 6.09301 210.385 6.11926 210.479 6.18371C210.611 6.27203 210.62 6.26249 211.059 6.28875C211.104 6.29114 211.159 6.32692 211.184 6.35795C211.197 6.37466 211.168 6.42243 211.146 6.4463C211.117 6.47495 211.072 6.50835 211.03 6.51551C210.553 6.57757 210.072 6.63247 209.595 6.69453C209.547 6.70169 209.495 6.71842 209.46 6.74229C209.421 6.76855 209.373 6.80433 209.373 6.83775C209.373 6.86162 209.437 6.89027 209.483 6.90698C209.624 6.96188 209.792 6.87834 209.931 6.9404C210.024 6.98098 210.101 7.03826 210.195 7.07645C210.234 7.09316 210.295 7.09078 210.343 7.08601C210.504 7.0693 210.662 7.04543 210.823 7.03111C210.869 7.02872 210.92 7.05261 210.962 7.0717C211.271 7.21492 211.271 7.21492 211.539 7.18388C211.645 7.17195 211.758 7.13614 211.858 7.15046C211.955 7.16478 212.039 7.22923 212.126 7.26981C212.306 7.35575 212.477 7.43929 212.49 7.62548C212.496 7.69709 212.603 7.75914 212.709 7.76392C212.812 7.76869 212.922 7.74246 213.028 7.72813C213.28 7.69949 213.28 7.69949 213.605 7.8451C213.695 7.88567 213.792 7.89044 213.908 7.86657C213.953 7.85702 214.008 7.86658 214.056 7.87852C214.214 7.91432 214.214 7.95966 214.111 8.0456C213.966 8.17211 213.979 8.18405 214.385 8.29147C214.54 8.33205 214.659 8.40844 214.788 8.47527C214.998 8.58269 214.994 8.58267 214.856 8.7235C214.824 8.75454 214.794 8.78796 214.762 8.82138C214.669 8.91447 214.595 9.01472 214.401 9.02427C214.188 9.03382 213.976 9.07203 213.763 9.09828C213.557 9.12454 213.502 9.18181 213.521 9.34412C213.544 9.53986 213.586 9.56135 213.956 9.55896C214.063 9.55896 214.156 9.57805 214.237 9.6425C214.198 9.71889 214.127 9.77856 214.024 9.79289C213.76 9.82869 213.492 9.85973 213.228 9.89076C213.015 9.91702 212.803 9.94327 212.59 9.96952C212.458 9.98623 212.374 10.1104 212.409 10.2488C212.429 10.3276 212.445 10.4064 212.461 10.4851C212.496 10.6427 212.564 10.6833 212.78 10.6761C212.835 10.6737 212.886 10.6546 212.938 10.6594C213.147 10.6761 213.247 10.8742 213.499 10.8336C213.708 10.8002 213.927 10.7931 214.134 10.7501C214.324 10.7119 214.43 10.7978 214.562 10.8623C214.608 10.8838 214.656 10.9291 214.695 10.9267C214.962 10.9005 215.23 10.8742 215.491 10.8289C215.613 10.8098 215.687 10.8241 215.784 10.8814C216.016 11.0198 216.023 11.0127 216.367 10.9697C216.619 10.9363 216.622 10.9411 216.944 11.0867C217.035 11.1272 217.131 11.1272 217.247 11.1081C217.399 11.0843 217.557 11.0461 217.715 11.0819C217.763 11.0914 217.824 11.1201 217.84 11.1511C217.85 11.1726 217.805 11.2251 217.766 11.2418C217.483 11.366 217.151 11.3445 216.841 11.3946C216.745 11.4089 216.648 11.3636 216.567 11.2991C216.483 11.2347 216.393 11.2084 216.284 11.2204C216.071 11.2466 215.855 11.2633 215.645 11.3015C215.465 11.3349 215.339 11.28 215.213 11.206C215.172 11.1821 215.123 11.1368 215.081 11.1392C214.604 11.1869 214.124 11.2347 213.65 11.3015C213.46 11.3301 213.35 11.2538 213.222 11.1893C213.176 11.1678 213.131 11.1225 213.089 11.1249C212.928 11.1344 212.77 11.1607 212.609 11.1798C212.023 11.2514 211.439 11.323 210.852 11.3898C210.814 11.3946 210.765 11.3445 210.72 11.323C210.633 11.28 210.543 11.2394 210.453 11.1988C210.292 11.2179 210.134 11.2418 209.972 11.2561C209.856 11.2657 209.753 11.2991 209.737 11.3898C209.728 11.4495 209.834 11.5044 209.947 11.4996C210.056 11.4948 210.166 11.4662 210.256 11.4972C210.704 11.65 210.704 11.6524 210.985 11.6214C211.23 11.5927 211.204 11.5688 211.42 11.7001C211.513 11.7574 211.597 11.7908 211.703 11.7765C211.968 11.7431 212.235 11.7097 212.503 11.681C212.545 11.6763 212.599 11.7001 212.641 11.7192C212.957 11.8625 212.957 11.8672 213.218 11.8314C213.56 11.7884 213.573 11.7765 213.802 11.9221C213.96 12.0224 214.105 11.9532 214.256 11.9484C214.43 12.0415 214.62 12.125 214.778 12.2301C214.965 12.3542 215.162 12.3327 215.375 12.2969C215.533 12.2706 215.687 12.2611 215.816 12.3589C215.939 12.4496 216.087 12.4592 216.255 12.4353C216.406 12.4139 216.561 12.3685 216.719 12.421C216.761 12.4353 216.825 12.4711 216.822 12.4926C216.819 12.526 216.777 12.5738 216.735 12.5881C216.438 12.686 216.113 12.6836 215.8 12.7289C215.758 12.7361 215.703 12.7098 215.662 12.6907C215.571 12.6478 215.484 12.5977 215.397 12.5523C215.239 12.5666 215.078 12.5714 214.923 12.6C214.804 12.6215 214.714 12.6191 214.627 12.5619C214.546 12.5093 214.459 12.4449 214.363 12.4282C214.266 12.4115 214.153 12.4473 214.047 12.4616C213.94 12.4759 213.818 12.4687 213.734 12.5069C213.65 12.5451 213.599 12.6287 213.544 12.6955C213.483 12.7695 213.399 12.7934 213.276 12.8006C213.163 12.8077 213.073 12.7982 212.989 12.7313C212.954 12.7027 212.906 12.6812 212.857 12.6621C212.812 12.6454 212.761 12.6191 212.719 12.6239C212.238 12.6788 211.761 12.7385 211.281 12.7958C211.043 12.8244 211.046 12.8244 210.549 12.6836C210.504 12.6716 210.45 12.6549 210.404 12.6597C210.137 12.6883 209.873 12.7218 209.605 12.7552C209.334 12.7886 209.338 12.7838 208.877 12.6335C208.793 12.6048 208.67 12.643 208.57 12.6382C208.361 12.6263 208.258 12.4258 208.013 12.464C207.803 12.4974 207.584 12.5046 207.375 12.5475C207.184 12.5857 207.075 12.5022 206.946 12.4377C206.901 12.4162 206.852 12.3685 206.814 12.3733C206.333 12.4258 205.856 12.4855 205.218 12.4926C205.06 12.4926 205.131 12.5428 205.234 12.5595C205.383 12.5857 205.431 12.5356 205.35 12.4401C205.292 12.3733 205.209 12.3398 205.141 12.3565C205.105 12.3661 205.06 12.4115 205.218 12.4926C205.386 12.5833 205.376 12.6335 205.405 12.6621C205.476 12.7313 205.576 12.76 205.679 12.7504C205.84 12.7337 205.998 12.7098 206.159 12.6955C206.205 12.6907 206.259 12.7075 206.301 12.7265C206.656 12.8745 206.659 12.8841 207.036 12.8268C207.155 12.8101 207.242 12.8101 207.336 12.8555C207.465 12.9175 207.558 13.0225 207.755 12.9891C208.016 12.9438 208.284 12.9175 208.551 12.8913C208.593 12.8865 208.638 12.9295 208.686 12.9486C208.819 13.0058 208.915 13.1133 209.112 13.0679C209.263 13.0321 209.428 13.0225 209.589 13.0154C209.631 13.013 209.695 13.0512 209.715 13.0822C209.753 13.1371 209.705 13.2016 209.595 13.2469C209.55 13.266 209.489 13.2612 209.437 13.2684C209.225 13.2947 209.012 13.3233 208.799 13.3448C208.686 13.3567 208.58 13.3925 208.567 13.4809C208.558 13.5405 208.674 13.593 208.783 13.5883C208.944 13.5811 209.105 13.562 209.26 13.531C209.534 13.4785 209.773 13.4928 209.995 13.6432C210.153 13.7482 210.143 13.71 210.311 14.0203C210.353 14.0991 210.479 14.1063 210.588 14.1015C210.852 14.0895 210.975 14.1254 210.952 14.1994C210.923 14.2901 210.83 14.3187 210.711 14.3306C210.498 14.3497 210.285 14.3808 210.072 14.407C210.021 14.4142 209.963 14.4285 209.914 14.4237C209.866 14.4189 209.821 14.3903 209.779 14.3688C209.689 14.3235 209.611 14.2542 209.515 14.2375C209.418 14.2208 209.305 14.2566 209.199 14.2709C209.093 14.2829 208.98 14.3187 208.883 14.302C208.786 14.2853 208.706 14.2137 208.619 14.1707C208.577 14.1492 208.525 14.1158 208.483 14.1182C208.271 14.1373 208.058 14.1683 207.845 14.1922C207.584 14.2232 207.584 14.2232 207.268 14.0752C207.178 14.0323 207.084 14.0347 206.965 14.0537C206.707 14.0919 206.704 14.0848 206.234 13.9463C206.188 13.932 206.134 13.9153 206.088 13.9225C205.608 13.9774 205.131 14.037 204.654 14.0943C204.245 14.1444 204.245 14.1445 204.019 14.3832C203.852 14.5598 203.848 14.5598 204.013 14.6409C204.145 14.7078 204.264 14.8056 204.409 14.8414C204.545 14.8749 204.712 14.7675 204.86 14.8773C204.935 14.9322 205.031 14.9918 205.125 15.0014C205.273 15.0133 205.431 14.9441 205.573 15.0491C205.644 15.1016 205.75 15.1566 205.84 15.1589C205.998 15.1637 206.159 15.1255 206.317 15.1088C206.366 15.104 206.42 15.104 206.466 15.116C206.514 15.1303 206.556 15.1589 206.598 15.1828C206.727 15.264 206.865 15.3021 207.033 15.2616C207.307 15.1947 207.552 15.2282 207.765 15.3809C207.794 15.4024 207.865 15.4048 207.91 15.3953C208.026 15.3714 208.126 15.369 208.213 15.4143C208.248 15.4334 208.3 15.4668 208.293 15.4883C208.284 15.5241 208.245 15.5719 208.203 15.5838C207.9 15.665 207.574 15.6745 207.262 15.7175C207.22 15.7223 207.168 15.6912 207.126 15.6697C207.036 15.6268 206.959 15.5552 206.862 15.5385C206.765 15.5218 206.653 15.5528 206.546 15.5647C206.44 15.5767 206.327 15.6125 206.23 15.5981C206.134 15.5814 206.043 15.5218 205.966 15.4692C205.876 15.4096 205.789 15.4024 205.669 15.4263C205.515 15.4573 205.354 15.4621 205.196 15.4788C205.109 15.4334 205.022 15.3833 204.931 15.3403C204.889 15.3188 204.838 15.2926 204.793 15.295C204.58 15.3141 204.367 15.3427 204.154 15.369C203.942 15.3952 203.942 15.3953 203.581 15.2473C203.539 15.2306 203.484 15.2115 203.439 15.2162C203.171 15.2449 202.907 15.2807 202.64 15.3093C202.536 15.3212 202.443 15.2878 202.359 15.2234C202.279 15.1589 202.182 15.1231 202.082 15.135C201.656 15.1852 201.231 15.2329 200.806 15.2926C200.635 15.3165 200.49 15.295 200.374 15.2091C200.238 15.1112 200.087 15.1351 199.929 15.1542C199.571 15.2019 199.568 15.1995 199.339 15.0778C199.294 15.0539 199.249 15.0085 199.207 15.0109C198.836 15.0467 198.462 15.0801 198.095 15.1374C197.901 15.1685 197.798 15.0849 197.669 15.0229C197.624 15.0014 197.576 14.956 197.537 14.9608C197.27 14.9871 197.002 15.0109 196.741 15.0587C196.48 15.1064 196.38 14.8844 196.183 14.8868C195.916 14.8892 195.652 14.9441 195.387 14.9775C195.175 15.0038 194.962 15.03 194.749 15.0563C194.536 15.0825 194.324 15.104 194.111 15.135C193.998 15.1518 193.914 15.1303 193.821 15.0706C193.702 14.9918 193.56 14.9298 193.431 14.8582C193.234 14.7555 193.234 14.7555 192.996 14.7842C192.944 14.7913 192.889 14.7961 192.838 14.8032C192.448 14.8558 192.448 14.851 191.951 14.7006C191.929 14.6935 191.871 14.7197 191.848 14.7388C191.78 14.8009 191.719 14.8677 191.658 14.9322C191.571 14.894 191.465 14.8725 191.407 14.8176C191.242 14.6624 190.984 14.8749 190.817 14.7221C190.755 14.6648 190.649 14.6147 190.552 14.6004C190.452 14.586 190.34 14.6195 190.236 14.6338C189.969 14.6696 189.969 14.6672 189.74 14.8797C189.624 14.9847 189.456 14.9656 189.305 14.9894C189.147 15.0157 188.996 15.03 188.863 14.9322C188.744 14.8438 188.599 14.8224 188.428 14.851C188.219 14.8868 188.003 14.9083 187.79 14.9298C187.745 14.9345 187.69 14.9226 187.645 14.9083C187.152 14.7675 187.152 14.7651 186.913 14.7961C186.807 14.8104 186.697 14.8152 186.594 14.8367C186.42 14.8749 186.288 14.8247 186.162 14.7484C186.12 14.7245 186.072 14.6792 186.03 14.6815C185.817 14.6935 185.608 14.715 185.398 14.7364C185.237 14.7531 185.076 14.7627 184.921 14.7961C184.663 14.851 184.538 14.6958 184.361 14.6242C184.096 14.6553 183.829 14.6767 183.564 14.7197C183.442 14.7388 183.361 14.7317 183.268 14.6744C183.149 14.6028 183.039 14.5216 182.846 14.5574C182.588 14.6051 182.317 14.6219 182.053 14.6505C181.875 14.5765 181.746 14.4261 181.492 14.481C181.337 14.5144 181.173 14.5216 181.015 14.5407C180.802 14.5669 180.589 14.5908 180.377 14.6195C180.148 14.6481 180.151 14.641 179.8 14.5001C179.597 14.4166 179.387 14.5097 179.181 14.524C179.02 14.5359 178.939 14.6457 178.978 14.7866C179.016 14.9274 178.929 15.0372 178.781 15.0563C178.41 15.1016 178.036 15.1494 177.666 15.1899C177.621 15.1947 177.566 15.178 177.524 15.1613C177.128 15.0109 177.128 15.0133 176.95 15.0348C176.686 15.0706 176.415 15.0897 176.154 15.135C175.974 15.1661 175.841 15.116 175.725 15.0348C175.635 14.9727 175.551 14.9584 175.435 14.9727C174.159 15.1327 172.882 15.2807 171.609 15.4454C171.419 15.4692 171.31 15.4 171.181 15.3356C171.136 15.3141 171.094 15.2687 171.048 15.2687C170.942 15.2687 170.836 15.2902 170.729 15.3045C170.252 15.3618 169.775 15.4311 169.295 15.474C169.092 15.4931 169.037 15.6029 168.95 15.6936C168.882 15.7629 168.805 15.7915 168.686 15.801C168.57 15.8106 168.486 15.7986 168.396 15.7366C168.28 15.6554 168.148 15.6053 167.967 15.6387C167.758 15.6769 167.545 15.6936 167.329 15.7199C167.219 15.7318 167.135 15.7748 167.1 15.8607C167.094 15.875 167.161 15.9109 167.2 15.9323C167.329 16.0039 167.451 16.0875 167.596 16.1376C167.745 16.1877 167.906 16.1304 168.06 16.1161C168.115 16.1113 168.167 16.097 168.218 16.0994C168.267 16.1018 168.325 16.1137 168.36 16.1352C168.528 16.2426 168.705 16.3166 168.937 16.2522C169.137 16.2832 169.24 16.4813 169.495 16.4288C169.65 16.3978 169.811 16.3835 169.972 16.3715C170.014 16.3692 170.059 16.4121 170.104 16.4336C170.233 16.4933 170.336 16.5888 170.53 16.5482C170.736 16.5052 170.955 16.4981 171.165 16.4646C171.281 16.4455 171.364 16.4622 171.455 16.5243C171.571 16.6031 171.703 16.6627 171.883 16.6245C172.038 16.5911 172.202 16.584 172.36 16.5625C172.567 16.5362 172.567 16.5386 172.934 16.6866C172.976 16.7033 173.031 16.7224 173.076 16.7176C173.343 16.689 173.608 16.6532 173.875 16.6245C173.978 16.6126 174.078 16.6436 174.149 16.7129C174.178 16.7415 174.169 16.7893 174.178 16.8299C173.646 16.8943 173.115 16.9492 172.586 17.028C172.386 17.059 172.296 16.9611 172.164 16.9062C172.119 16.8871 172.07 16.8466 172.028 16.8513C171.654 16.8919 171.284 16.9349 170.913 16.9874C170.797 17.0041 170.71 16.9945 170.623 16.9253C170.401 16.7415 170.13 16.8418 169.878 16.868C169.685 16.8871 169.624 16.9611 169.646 17.1187C169.675 17.3049 169.791 17.3622 170.088 17.3287C170.194 17.3168 170.301 17.3001 170.407 17.2905C170.51 17.281 170.604 17.312 170.687 17.3765C170.768 17.4409 170.865 17.4743 170.965 17.4648C171.177 17.4433 171.393 17.4218 171.6 17.386C171.77 17.3574 171.912 17.3812 172.032 17.4696C172.164 17.5674 172.318 17.5459 172.473 17.5245C172.834 17.4767 172.837 17.4791 173.063 17.5985C173.108 17.6223 173.153 17.6677 173.195 17.6653C173.566 17.6295 173.94 17.5985 174.304 17.5412C174.494 17.5125 174.604 17.5889 174.729 17.651C174.775 17.6725 174.82 17.7202 174.862 17.7154C175.129 17.6892 175.397 17.6629 175.658 17.6176C175.78 17.5961 175.854 17.6104 175.954 17.6677C176.193 17.8085 176.199 17.8037 176.538 17.7584C176.641 17.7441 176.754 17.7178 176.85 17.7369C176.947 17.756 177.024 17.8252 177.115 17.8682C177.157 17.8873 177.208 17.9135 177.253 17.9088C177.466 17.8897 177.679 17.861 177.891 17.8348C178.091 17.8085 178.091 17.8109 178.465 17.9589C178.617 18.021 178.775 17.9685 178.926 17.9494C179.091 17.9279 179.239 17.9279 179.364 18.021C179.49 18.1141 179.642 18.1093 179.803 18.0902C179.954 18.0711 180.109 18.0186 180.264 18.083C180.618 18.231 180.618 18.2334 180.838 18.2048C181.157 18.1642 181.472 18.126 181.795 18.0902C181.837 18.0854 181.891 18.1141 181.933 18.1332C182.024 18.1761 182.101 18.2477 182.198 18.2644C182.294 18.2835 182.407 18.2549 182.51 18.2406C182.842 18.1952 182.865 18.1785 183.087 18.3361C183.274 18.465 183.506 18.2788 183.68 18.4268C183.78 18.5103 183.916 18.5771 184.103 18.5366C184.257 18.5031 184.419 18.4936 184.58 18.4745C184.834 18.4435 184.834 18.4459 185.157 18.5891C185.199 18.6082 185.253 18.632 185.295 18.6273C185.508 18.6082 185.724 18.5915 185.93 18.5485C186.172 18.4984 186.327 18.5891 186.507 18.6774C186.649 18.7466 186.817 18.6893 186.968 18.6655C187.133 18.6416 187.281 18.6487 187.403 18.7418C187.532 18.8373 187.684 18.8254 187.845 18.8063C187.996 18.7896 188.151 18.7347 188.306 18.8015C188.638 18.9495 188.638 18.9495 188.88 18.9209C189.092 18.8946 189.305 18.866 189.518 18.8469C189.56 18.8421 189.611 18.8731 189.653 18.8946C189.743 18.9376 189.821 19.0092 189.917 19.0259C190.014 19.0426 190.127 19.0116 190.233 18.9997C190.34 18.9877 190.452 18.9519 190.549 18.9662C190.646 18.9806 190.736 19.0402 190.813 19.0928C190.904 19.1548 190.988 19.162 191.11 19.1381C191.265 19.1071 191.426 19.0999 191.584 19.0832C191.671 19.1285 191.761 19.1739 191.845 19.224C191.932 19.2765 192.025 19.2718 192.145 19.2551C192.541 19.1978 192.544 19.2049 192.876 19.3529C193.028 19.4198 193.186 19.3649 193.337 19.3482C193.498 19.3291 193.65 19.3195 193.776 19.415C193.898 19.5057 194.05 19.5176 194.211 19.489C194.314 19.4699 194.424 19.458 194.53 19.4508C194.578 19.4484 194.636 19.458 194.672 19.4771C194.843 19.5773 195.01 19.668 195.245 19.6036C195.452 19.6227 195.555 19.8184 195.803 19.7802C196.013 19.7468 196.232 19.7396 196.438 19.6966C196.628 19.6585 196.764 19.7253 196.86 19.8089C197.034 19.9569 197.279 19.7563 197.453 19.902C197.553 19.9855 197.682 20.0523 197.876 20.0165C198.088 19.9783 198.156 20.0285 198.217 20.1788C198.253 20.2648 198.246 20.334 198.182 20.4008C198.117 20.4701 198.046 20.4581 197.943 20.3794C197.824 20.291 197.682 20.2743 197.511 20.2934C197.344 20.3125 197.241 20.1884 197.102 20.1407C196.963 20.0905 196.799 20.1741 196.654 20.1096C196.312 19.9592 196.312 19.9592 196.08 19.9879C195.922 20.007 195.758 20.0165 195.603 20.05C195.42 20.0905 195.3 20.0165 195.175 19.9497C195.129 19.9258 195.084 19.8805 195.046 19.8828C194.675 19.9186 194.301 19.9521 193.934 20.0118C193.74 20.0428 193.637 19.9569 193.508 19.8972C193.463 19.8757 193.415 19.8327 193.376 19.8375C193.057 19.8709 192.741 19.9139 192.422 19.9545C192.361 20.0189 192.293 20.081 192.235 20.1502C192.174 20.2218 192.09 20.2528 191.967 20.2505C191.764 20.2505 191.564 20.3507 191.361 20.2242C191.152 20.0953 191.136 20.1025 190.933 20.1335C190.675 20.1741 190.401 20.1645 190.159 20.2576C190.117 20.2743 190.072 20.3197 190.072 20.3531C190.069 20.3746 190.137 20.4056 190.178 20.4247C190.32 20.482 190.485 20.3984 190.626 20.4581C190.72 20.4963 190.797 20.5536 190.891 20.5942C190.93 20.6109 190.988 20.6085 191.039 20.6061C191.094 20.6037 191.145 20.587 191.197 20.5894C191.245 20.5918 191.297 20.6061 191.336 20.6276C191.513 20.7183 191.7 20.8019 191.858 20.9093C192.013 21.0143 192.158 20.9427 192.312 20.9379C192.931 21.105 192.931 21.1074 193.347 21.0549C193.45 21.0429 193.556 21.0286 193.663 21.031C193.708 21.031 193.75 21.074 193.795 21.0978C193.924 21.1694 194.046 21.2339 194.227 21.1957C194.382 21.1623 194.546 21.1551 194.704 21.1336C194.917 21.1074 194.917 21.1074 195.278 21.2578C195.368 21.296 195.465 21.2912 195.581 21.2721C195.681 21.2554 195.784 21.2912 195.855 21.3604C195.884 21.3891 195.874 21.4368 195.884 21.4774C195.565 21.5156 195.242 21.5418 194.933 21.5991C194.733 21.6349 194.643 21.5323 194.511 21.4774C194.465 21.4583 194.417 21.4177 194.375 21.4225C194.059 21.4583 193.743 21.4989 193.428 21.5466C193.389 21.5514 193.341 21.6063 193.337 21.6397C193.331 21.7018 193.411 21.7614 193.527 21.759C193.682 21.7567 193.834 21.7161 193.972 21.8139C194.088 21.8999 194.233 21.9381 194.404 21.8999C194.507 21.8784 194.617 21.8784 194.72 21.8593C194.994 21.802 195.242 21.814 195.448 21.9763C195.606 22.0192 195.761 21.9787 195.913 21.9572C196.025 21.9405 196.135 21.9237 196.216 21.9691C196.386 22.0646 196.554 22.1601 196.789 22.0956C197.044 22.1625 197.237 22.3033 197.45 22.4179C197.55 22.4728 197.627 22.5038 197.743 22.468C197.792 22.4537 197.85 22.4537 197.901 22.4465C198.008 22.4346 198.121 22.3988 198.217 22.4131C198.314 22.4298 198.395 22.499 198.482 22.542C198.524 22.5635 198.572 22.5993 198.614 22.5969C198.775 22.585 198.933 22.5611 199.091 22.542C199.249 22.5253 199.407 22.5086 199.565 22.4919C199.697 22.5539 199.832 22.616 199.964 22.6781C200.177 22.6518 200.39 22.6255 200.599 22.6017C200.835 22.573 200.835 22.5754 201.173 22.7234C201.324 22.7902 201.486 22.7473 201.631 22.7162C201.872 22.6661 202.034 22.7568 202.204 22.8523C202.24 22.8714 202.304 22.8833 202.346 22.8738C202.514 22.8404 202.659 22.8666 202.781 22.9549C202.868 23.017 202.955 23.0457 203.062 23.0337C203.433 22.9884 203.803 22.9406 204.174 22.9C204.219 22.8953 204.271 22.9168 204.312 22.9359C204.641 23.0815 204.644 23.0886 204.886 23.0504C205.102 23.017 205.302 23.0027 205.473 23.134C205.508 23.1626 205.563 23.2032 205.602 23.2008C205.866 23.1769 206.134 23.1507 206.395 23.1101C206.514 23.091 206.598 23.0982 206.691 23.1531C206.81 23.2223 206.917 23.3059 207.113 23.2748C207.658 23.1865 207.661 23.2008 208.306 23.3655C208.351 23.3774 208.412 23.3584 208.464 23.3488C208.574 23.3249 208.654 23.3584 208.751 23.4133C208.967 23.5374 208.973 23.5302 209.18 23.504C209.338 23.4825 209.502 23.4777 209.657 23.4419C209.895 23.3894 210.053 23.4825 210.23 23.5708C210.372 23.64 210.537 23.5827 210.688 23.5613C210.852 23.5374 211.001 23.5445 211.123 23.6352C211.207 23.6973 211.297 23.7307 211.404 23.7188C211.774 23.6758 212.145 23.6281 212.516 23.5851C212.561 23.5803 212.616 23.5994 212.657 23.6162C213.025 23.7642 213.025 23.7713 213.389 23.7164C213.505 23.6997 213.602 23.6949 213.689 23.7451C213.773 23.7928 213.863 23.8381 213.95 23.8835C214.108 23.8668 214.269 23.862 214.424 23.8334C214.543 23.8119 214.627 23.8215 214.72 23.8716C214.843 23.936 214.946 24.0482 215.139 23.9933C215.239 23.967 215.355 23.9742 215.455 23.9503C215.574 23.9193 215.655 23.9384 215.749 24.0005C215.865 24.0745 215.984 24.1508 216.171 24.1126C216.377 24.0697 216.596 24.0625 216.806 24.0291C216.922 24.01 217.002 24.0291 217.096 24.0912C217.212 24.1699 217.344 24.2201 217.525 24.189C217.892 24.1294 217.895 24.1413 218.253 24.2917C218.343 24.3299 218.44 24.3251 218.556 24.306C218.656 24.2893 218.759 24.3251 218.83 24.3943C218.898 24.4707 218.891 24.5184 218.898 24.559ZM190.175 3.03046C190.069 3.04239 189.962 3.05671 189.808 2.84904C189.798 2.81323 189.805 2.77028 189.782 2.73925C189.73 2.6748 189.65 2.62945 189.553 2.62228C189.379 2.61274 189.17 2.69388 189.173 2.75594C189.176 2.80846 189.231 2.8538 189.337 2.89677C189.382 2.91348 189.418 2.94213 189.46 2.96122C189.582 3.01612 189.679 3.12356 189.856 3.06866C189.824 2.92066 189.84 2.99466 189.856 3.06866C189.84 3.15936 189.888 3.22382 190.004 3.25007C190.037 3.25723 190.085 3.25245 190.111 3.23813C190.211 3.18561 190.227 3.11402 190.153 2.92544C190.14 2.95647 190.149 3.01136 190.178 3.02568C190.208 3.04 190.278 3.02808 190.314 3.01137C190.404 2.96602 190.449 2.90634 190.427 2.85621C190.414 2.82995 190.353 2.79653 190.314 2.79653C190.246 2.79653 190.185 2.84904 190.175 3.03046ZM216.238 30.7128C216.003 30.7581 215.732 30.7414 215.497 30.8345C215.455 30.8512 215.413 30.8942 215.41 30.9276C215.407 30.9491 215.471 30.9801 215.51 30.9968C215.597 31.035 215.694 31.0231 215.807 31.0112C215.977 30.9944 216.077 31.1042 216.21 31.1591C216.251 31.1759 216.306 31.1878 216.351 31.183C216.612 31.1544 216.87 31.1234 217.131 31.0899C217.176 31.0828 217.225 31.0661 217.264 31.0446C217.392 30.9753 217.38 30.93 217.254 30.8775C217.115 30.8202 217.006 30.7247 216.864 30.6794C216.661 30.6149 216.454 30.7008 216.238 30.7128ZM197.934 32.4553C197.776 32.4744 197.621 32.4935 197.463 32.5126C197.411 32.5198 197.357 32.5221 197.308 32.5317C197.208 32.5484 197.134 32.5985 197.086 32.6773C197.16 32.7394 197.25 32.7752 197.35 32.768C197.508 32.7537 197.663 32.7227 197.821 32.7155C197.992 32.7059 198.092 32.8134 198.224 32.8683C198.266 32.885 198.317 32.8874 198.366 32.8897C198.604 32.8993 198.749 32.7752 198.704 32.6009C198.672 32.4649 198.549 32.3837 198.401 32.4004C198.246 32.4171 198.088 32.4362 197.934 32.4553ZM217.341 27.1847C217.38 27.1442 217.421 27.1155 217.441 27.0797C217.499 26.958 217.476 26.8673 217.37 26.7718C217.241 26.6548 217.083 26.7336 216.938 26.7455C216.903 26.7479 216.864 26.798 216.844 26.8291C216.832 26.8506 216.832 26.8959 216.851 26.9079C217.009 27.0034 217.176 27.0917 217.341 27.1847ZM189.379 20.1335C189.224 20.1526 189.066 20.1669 188.912 20.1932C188.873 20.2003 188.838 20.2457 188.815 20.2767C188.773 20.334 188.818 20.4128 188.95 20.4199C189.102 20.4295 189.26 20.3889 189.418 20.3698C189.618 20.3459 189.737 20.2576 189.663 20.1812C189.592 20.1072 189.495 20.0929 189.379 20.1335ZM19.7102 15.0324C19.8133 15.0205 19.9197 15.0109 20.0228 14.9942C20.1195 14.9775 20.1937 14.925 20.2421 14.8462C20.1615 14.7842 20.0712 14.7507 19.9713 14.7579C19.8133 14.7722 19.6586 14.7913 19.5039 14.8152C19.4072 14.8295 19.3138 14.882 19.2912 14.9632C19.2687 15.0253 19.4845 15.0611 19.7102 15.0324ZM175.748 14.6648C175.79 14.6863 175.832 14.7293 175.874 14.7293C175.977 14.7293 176.083 14.7149 176.18 14.6911C176.222 14.6815 176.254 14.6386 176.273 14.6051C176.286 14.5837 176.283 14.5455 176.264 14.5264C176.17 14.4118 175.796 14.4524 175.735 14.5837C175.729 14.6075 175.745 14.6386 175.748 14.6648ZM165.579 1.59346C165.588 1.63165 165.592 1.66984 165.604 1.70803C165.63 1.77965 165.701 1.83217 165.804 1.86798C165.885 1.8083 165.927 1.74147 165.924 1.66986C165.92 1.63167 165.911 1.59345 165.898 1.55526C165.872 1.48365 165.801 1.43116 165.698 1.39535C165.617 1.45264 165.579 1.51946 165.579 1.59346ZM224.79 32.8707C224.761 32.9017 224.732 32.9327 224.7 32.9614C224.787 33.0306 224.867 33.0521 224.928 33.0139C224.967 32.99 224.99 32.9542 225.019 32.9232C224.932 32.8539 224.854 32.8349 224.79 32.8707ZM222.785 33.1953C222.827 33.2168 222.866 33.2454 222.911 33.2597C222.985 33.2836 223.052 33.243 223.104 33.1571C223.062 33.1356 223.023 33.107 222.978 33.0926C222.904 33.0688 222.836 33.1094 222.785 33.1953ZM224.055 32.7585C224.032 32.8158 224.077 32.8635 224.197 32.9041C224.226 32.873 224.264 32.8444 224.284 32.811C224.316 32.7561 224.261 32.706 224.145 32.6678C224.113 32.6964 224.084 32.7274 224.055 32.7585ZM217.251 30.1853C217.228 30.2425 217.273 30.2903 217.392 30.3309C217.421 30.2998 217.46 30.2712 217.479 30.2378C217.512 30.1829 217.457 30.1327 217.341 30.0945C217.309 30.1232 217.28 30.1542 217.251 30.1853ZM207.981 13.2947C207.952 13.3257 207.923 13.3567 207.89 13.3854C207.977 13.4546 208.058 13.4761 208.119 13.4379C208.158 13.414 208.18 13.3782 208.209 13.3472C208.122 13.2779 208.045 13.2589 207.981 13.2947ZM199.1 4.33376C199.178 4.35047 199.242 4.31707 199.297 4.22875C199.255 4.20726 199.216 4.17861 199.171 4.16429C199.097 4.14042 199.03 4.18101 198.978 4.26695C199.02 4.29082 199.062 4.31228 199.1 4.33376ZM194.385 3.77282C194.356 3.80385 194.327 3.83488 194.295 3.86353C194.382 3.93275 194.462 3.95423 194.523 3.91603C194.562 3.89216 194.585 3.85636 194.614 3.82532C194.527 3.7561 194.449 3.7394 194.385 3.77282ZM162.407 1.59107C162.378 1.6221 162.349 1.65314 162.317 1.68178C162.404 1.751 162.484 1.77248 162.546 1.73429C162.584 1.71042 162.607 1.67461 162.636 1.64358C162.549 1.57436 162.471 1.55765 162.407 1.59107ZM3.18131 21.0119C3.13941 20.9904 3.09754 20.969 3.05887 20.9451C2.96539 21.0095 2.93639 21.0692 2.98796 21.1146C3.0202 21.1432 3.06851 21.1599 3.11041 21.1814C3.20711 21.117 3.22966 21.0596 3.18131 21.0119Z" fill="#4F9CF9"/>
<path d="M21.8786 12.5825C21.5079 12.6279 21.1405 12.6852 20.7698 12.7138C20.5732 12.7281 20.5023 12.8308 20.4217 12.9263C20.3573 13.0027 20.2831 13.0265 20.1639 13.0408C19.1582 13.1578 18.1558 13.2819 17.1533 13.4037C17.0276 13.3726 16.9664 13.3225 16.9954 13.2628C17.0115 13.227 17.0502 13.1769 17.0889 13.1721C17.7754 13.0838 18.4587 12.9931 19.1485 12.9239C19.3451 12.9048 19.3999 12.7998 19.4999 12.7138C19.5321 12.6852 19.5579 12.6422 19.5998 12.6255C19.6417 12.6064 19.7029 12.6088 19.7577 12.604C20.8665 12.468 21.9754 12.3343 23.0842 12.1982C23.2099 12.2293 23.2711 12.2794 23.2421 12.3391C23.226 12.3749 23.1873 12.425 23.1486 12.4298C22.7231 12.4799 22.3008 12.53 21.8786 12.5825Z" fill="#4F9CF9"/>
<path d="M224.833 25.2936C224.665 25.3222 224.452 25.3628 224.278 25.2243C224.194 25.1575 224.104 25.136 223.995 25.1503C223.837 25.1742 223.675 25.1933 223.514 25.2076C223.472 25.21 223.418 25.1837 223.376 25.1623C223.285 25.1193 223.208 25.0477 223.111 25.0286C223.015 25.0095 222.899 25.062 222.799 25.0501C222.667 25.0334 222.612 24.9689 222.647 24.9093C222.667 24.8758 222.705 24.8281 222.747 24.8209C223.344 24.7326 223.347 24.7326 223.514 24.8185C223.643 24.8854 223.763 24.9594 223.946 24.9188C224.101 24.8854 224.265 24.8782 224.423 24.8567C224.642 24.8281 224.642 24.8305 224.997 24.9808C225.087 25.019 225.184 25.0167 225.3 24.9952C225.4 24.9785 225.497 25.0167 225.577 25.0811C225.526 25.1623 225.451 25.2148 225.352 25.2291C225.19 25.253 225.032 25.2697 224.833 25.2936Z" fill="#4F9CF9"/>
<path d="M218.902 24.5607C219.308 24.5105 219.718 24.4676 220.124 24.4103C220.292 24.3864 220.424 24.4127 220.54 24.4939C220.665 24.5822 220.807 24.575 220.962 24.5583C221.059 24.5488 221.152 24.5869 221.217 24.6538C221.242 24.68 221.236 24.7278 221.246 24.766C220.891 24.8089 220.533 24.8543 220.176 24.8925C220.134 24.8972 220.082 24.8734 220.043 24.8543C219.956 24.8137 219.882 24.7421 219.789 24.7278C219.589 24.6944 219.389 24.7588 219.186 24.7707C219.089 24.7755 218.996 24.7397 218.931 24.6753C218.906 24.6442 218.912 24.5989 218.902 24.5607Z" fill="#4F9CF9"/>
<path d="M72.1267 4.03404C72.5489 3.98153 72.9711 3.93142 73.3934 3.87891C73.5191 3.91232 73.5771 3.96006 73.5513 4.01973C73.5352 4.05554 73.4965 4.10567 73.4578 4.11044C72.6133 4.21786 71.7689 4.32048 70.9276 4.42313C70.8019 4.38971 70.7439 4.34198 70.7697 4.2823C70.7858 4.24649 70.8245 4.19637 70.8632 4.19159C71.2822 4.13669 71.7044 4.08655 72.1267 4.03404Z" fill="#4F9CF9"/>
<path d="M7.06478 17.3009C6.87461 17.3057 6.67481 17.394 6.46208 17.3272C6.42017 17.3153 6.36214 17.2771 6.36536 17.2556C6.37181 17.2198 6.41049 17.1744 6.4524 17.1601C6.63612 17.1004 6.865 17.0932 6.95847 16.9262C7.0036 16.8402 7.0874 16.8116 7.20021 16.7949C7.31947 16.7758 7.40325 16.7829 7.49673 16.8331C7.61921 16.8975 7.72237 17.0169 7.91577 16.9548C7.92544 16.993 7.94794 17.036 7.93827 17.0718C7.9286 17.1076 7.88677 17.141 7.84809 17.1672C7.81264 17.1911 7.76424 17.2126 7.71911 17.2198C7.50638 17.2484 7.29364 17.2723 7.06478 17.3009Z" fill="#4F9CF9"/>
<path d="M174.702 16.8193C174.86 16.8002 175.025 16.7906 175.179 16.7572C175.302 16.731 175.379 16.7477 175.476 16.805C175.64 16.9052 175.65 16.8957 176.053 16.91C176.098 16.9124 176.153 16.9482 176.179 16.9792C176.195 16.9959 176.172 17.0413 176.153 17.0652C176.124 17.0962 176.082 17.1368 176.043 17.1368C175.789 17.1439 175.531 17.2848 175.283 17.1224C175.157 17.0413 175.018 17.0031 174.847 17.0389C174.744 17.0604 174.635 17.0699 174.528 17.0795C174.425 17.089 174.319 17.0628 174.254 16.9911C174.161 16.8861 174.216 16.8455 174.383 16.8527C174.49 16.8575 174.596 16.8312 174.702 16.8193Z" fill="#4F9CF9"/>
<path d="M233.116 33.2728C233.319 33.249 233.522 33.2204 233.728 33.2013C233.77 33.1965 233.822 33.2227 233.86 33.2395C234.015 33.3111 233.993 33.4328 233.999 33.5402C234.002 33.6524 233.644 33.7431 233.493 33.6667C233.325 33.5808 233.174 33.4829 232.942 33.5354C232.852 33.5545 232.745 33.5116 232.687 33.4423C232.6 33.3421 232.649 33.3015 232.813 33.3087C232.91 33.3134 233.013 33.2872 233.116 33.2728Z" fill="#4F9CF9"/>
<path d="M130.784 0.786054C130.993 0.759797 131.203 0.719237 131.412 0.71685C131.535 0.714463 131.596 0.79322 131.567 0.850508C131.551 0.886313 131.512 0.936442 131.474 0.941216C131.055 0.998505 130.636 1.04625 130.217 1.09877C130.094 1.06535 130.033 1.01523 130.062 0.957942C130.078 0.922136 130.117 0.874395 130.155 0.867234C130.365 0.833815 130.574 0.812311 130.784 0.786054Z" fill="#4F9CF9"/>
<path d="M229.093 25.504C229.296 25.4802 229.502 25.4444 229.705 25.4324C229.812 25.4276 229.896 25.4825 229.909 25.5446C229.915 25.5732 229.863 25.6234 229.821 25.6353C229.531 25.7165 229.219 25.726 228.916 25.7666C228.819 25.7785 228.716 25.7403 228.658 25.6735C228.571 25.5709 228.619 25.5327 228.784 25.5399C228.887 25.5422 228.99 25.516 229.093 25.504Z" fill="#4F9CF9"/>
<path d="M180.018 17.1412C180.121 17.1292 180.228 17.0982 180.327 17.1078C180.434 17.1197 180.502 17.1889 180.534 17.2581C180.569 17.3369 180.566 17.4109 180.534 17.4778C180.482 17.5923 180.431 17.5876 180.311 17.5112C180.128 17.3918 180.115 17.4061 179.75 17.4109C179.709 17.4109 179.657 17.3751 179.625 17.3441C179.576 17.2963 179.602 17.2223 179.715 17.1794C179.799 17.1483 179.915 17.1531 180.018 17.1412Z" fill="#4F9CF9"/>
<path d="M221.547 24.7221C221.698 24.703 221.849 24.672 222.001 24.672C222.107 24.6696 222.191 24.7245 222.201 24.7841C222.204 24.8128 222.156 24.8605 222.117 24.8748C221.933 24.9393 221.727 24.9441 221.527 24.9655C221.434 24.9751 221.331 24.9369 221.272 24.8701C221.185 24.7698 221.237 24.7244 221.395 24.7388C221.443 24.7435 221.495 24.7292 221.547 24.7221Z" fill="#4F9CF9"/>
<path d="M197.702 21.7951C197.477 21.8237 197.264 21.7879 197.28 21.7259C197.303 21.6447 197.396 21.5922 197.493 21.5779C197.648 21.554 197.802 21.5349 197.96 21.5206C198.06 21.511 198.15 21.5468 198.231 21.6089C198.183 21.6853 198.109 21.7402 198.012 21.7569C197.912 21.7736 197.806 21.7832 197.702 21.7951Z" fill="#4F9CF9"/>
<path d="M196.22 21.4867C196.372 21.4676 196.523 21.4366 196.675 21.4366C196.781 21.4342 196.865 21.4891 196.875 21.5488C196.878 21.5774 196.83 21.6252 196.791 21.6395C196.607 21.7039 196.401 21.7087 196.201 21.7302C196.108 21.7397 196.004 21.7015 195.946 21.6347C195.859 21.5345 195.911 21.4891 196.069 21.5034C196.117 21.5082 196.169 21.4939 196.22 21.4867Z" fill="#4F9CF9"/>
<path d="M178.195 17.1229C178.346 17.1038 178.498 17.0728 178.649 17.0704C178.756 17.068 178.84 17.1229 178.849 17.1826C178.852 17.2112 178.804 17.2566 178.765 17.2733C178.582 17.3378 178.375 17.3425 178.176 17.364C178.082 17.3736 177.979 17.3354 177.921 17.2685C177.834 17.1683 177.885 17.1229 178.043 17.1372C178.092 17.142 178.143 17.1277 178.195 17.1229Z" fill="#4F9CF9"/>
<path d="M177.348 16.9832C177.509 16.9641 177.56 16.9521 177.612 16.9521C177.709 16.9521 177.809 16.9808 177.867 17.05C177.954 17.1503 177.902 17.1789 177.744 17.1837C177.541 17.1885 177.341 17.2386 177.138 17.2482C177.032 17.2529 176.948 17.1956 176.942 17.136C176.938 17.1073 176.987 17.0572 177.025 17.0476C177.161 17.0118 177.309 16.9903 177.348 16.9832Z" fill="#4F9CF9"/>
<path d="M194.912 2.93809C194.809 2.95002 194.7 2.98344 194.603 2.97151C194.474 2.9548 194.422 2.89036 194.455 2.83068C194.474 2.79727 194.509 2.74953 194.548 2.74236C194.754 2.70895 194.964 2.68744 195.17 2.66357C195.293 2.69938 195.347 2.7495 195.315 2.80918C195.296 2.8426 195.26 2.88795 195.222 2.8975C195.122 2.92137 195.015 2.92615 194.912 2.93809Z" fill="#4F9CF9"/>
<path d="M69.816 4.31605C69.916 4.31366 70.0062 4.34469 70.0835 4.40436C70.0352 4.48075 69.9643 4.53088 69.8676 4.55236C69.8192 4.56191 69.7644 4.56906 69.7129 4.57144C69.6129 4.57622 69.5227 4.5428 69.4453 4.48313C69.4937 4.40674 69.5678 4.35661 69.6612 4.33513C69.7096 4.32558 69.7645 4.32321 69.816 4.31605Z" fill="#4F9CF9"/>
<path d="M227.992 25.4953C227.989 25.426 228.186 25.3473 228.363 25.3497C228.456 25.352 228.553 25.3855 228.608 25.4499C228.692 25.5478 228.643 25.586 228.485 25.5788C228.389 25.574 228.285 25.6146 228.189 25.6075C228.079 25.6051 228.015 25.5526 227.992 25.4953Z" fill="#4F9CF9"/>
<path d="M180.958 17.4321C180.955 17.4059 180.939 17.3749 180.948 17.351C181.01 17.2197 181.38 17.1791 181.477 17.2937C181.493 17.3152 181.5 17.351 181.487 17.3725C181.467 17.4059 181.432 17.4489 181.393 17.4584C181.293 17.4823 181.19 17.4942 181.087 17.4966C181.042 17.4966 181 17.456 180.958 17.4321Z" fill="#4F9CF9"/>
<path d="M8.21135 16.916C7.83101 16.9661 7.82456 16.9613 7.89225 16.842C7.95349 16.7346 8.06632 16.6701 8.23071 16.6701C8.27906 16.6701 8.33061 16.6654 8.37251 16.6749C8.41764 16.6869 8.48214 16.7107 8.49181 16.7393C8.51115 16.7942 8.4563 16.8539 8.35961 16.8945C8.3177 16.9136 8.26292 16.9088 8.21135 16.916Z" fill="#4F9CF9"/>
<path d="M74.5771 3.98075C74.4643 4.02132 74.3676 4.00701 74.2967 3.93063C74.2258 3.85424 74.3386 3.76353 74.5352 3.74204C74.5868 3.73727 74.6416 3.71819 74.6899 3.72774C74.7383 3.7349 74.7867 3.76352 74.8157 3.79216C74.8673 3.8399 74.835 3.90437 74.7319 3.95927C74.69 3.98075 74.6287 3.97597 74.5771 3.98075Z" fill="#4F9CF9"/>
<path d="M227.323 25.3153C227.352 25.2843 227.381 25.2533 227.413 25.2246C227.533 25.2652 227.584 25.3129 227.552 25.3678C227.533 25.4012 227.494 25.4299 227.465 25.4609C227.346 25.4203 227.297 25.3702 227.323 25.3153Z" fill="#4F9CF9"/>
<path d="M13.3145 44.0922C13.3145 44.0635 13.3596 44.0182 13.395 44.0087C13.4627 43.9919 13.5465 44.0254 13.6045 44.0922C13.6851 44.1877 13.6368 44.2378 13.4885 44.2115C13.3854 44.1924 13.3145 44.1447 13.3145 44.0922Z" fill="#4F9CF9"/>
<path d="M182.267 15.2083C182.309 15.2297 182.351 15.2512 182.389 15.2751C182.335 15.3634 182.267 15.4016 182.196 15.3777C182.151 15.3634 182.112 15.3348 182.07 15.3133C182.125 15.225 182.19 15.1915 182.267 15.2083Z" fill="#4F9CF9"/>
<path d="M181.155 15.1012C181.22 15.0654 181.297 15.0845 181.387 15.1537C181.358 15.1847 181.333 15.2205 181.297 15.2444C181.236 15.2826 181.155 15.2635 181.068 15.1919C181.094 15.1632 181.123 15.1322 181.155 15.1012Z" fill="#4F9CF9"/>
<path d="M180.3 15.2067C180.342 15.2281 180.384 15.2496 180.423 15.2735C180.368 15.3618 180.303 15.4 180.229 15.3761C180.184 15.3618 180.145 15.3332 180.104 15.3117C180.158 15.2234 180.223 15.1876 180.3 15.2067Z" fill="#4F9CF9"/>
<path d="M179.673 15.0791C179.721 15.1268 179.695 15.1841 179.602 15.2485C179.56 15.227 179.511 15.2103 179.479 15.1817C179.428 15.1364 179.453 15.0767 179.55 15.0122C179.589 15.0361 179.631 15.0576 179.673 15.0791Z" fill="#4F9CF9"/>
</svg>
