<svg width="225" height="21" viewBox="0 0 225 21" fill="none" xmlns="http://www.w3.org/2000/svg">
<path d="M221.67 10.8539C221.347 10.8704 221.021 10.8818 220.705 10.9067C220.499 10.9222 220.411 10.8767 220.274 10.8528C220.229 10.8446 220.18 10.828 220.137 10.83C219.818 10.8466 219.498 10.8653 219.178 10.8839C219.081 10.9243 219.019 10.9781 218.869 10.9978C218.722 11.0164 218.549 11.0164 218.386 11.0258C218.171 11.0371 217.956 11.0485 217.74 11.0589C217.633 11.0641 217.545 11.0838 217.509 11.121C217.502 11.1272 217.574 11.1428 217.613 11.1521C217.744 11.1832 217.871 11.2184 218.014 11.2422C218.151 11.265 218.321 11.2277 218.468 11.2567C218.797 11.3219 218.8 11.3209 219.051 11.3084C219.267 11.2971 219.482 11.2846 219.697 11.2764C219.739 11.2743 219.788 11.2898 219.834 11.2981C219.971 11.3209 220.059 11.3727 220.261 11.353C220.414 11.3374 220.584 11.3343 220.744 11.3261C220.877 11.3561 221.001 11.3903 221.145 11.4141C221.278 11.4369 221.318 11.4545 221.246 11.4845C221.181 11.5125 221.089 11.5238 220.969 11.5259C220.861 11.5269 220.753 11.5363 220.646 11.5414C220.59 11.5445 220.538 11.5466 220.486 11.5497C220.281 11.5611 220.281 11.5611 219.906 11.4948C219.759 11.469 219.593 11.5052 219.452 11.4803C219.358 11.4638 219.276 11.4389 219.185 11.4213C219.146 11.4141 219.084 11.413 219.035 11.4151C218.872 11.4224 218.709 11.4275 218.552 11.441C218.442 11.4503 218.376 11.4793 218.389 11.5083C218.393 11.5197 218.471 11.5363 218.516 11.5373C218.621 11.5394 218.732 11.5249 218.833 11.5321C218.931 11.5394 219.032 11.5601 219.103 11.5829C219.25 11.6305 219.416 11.588 219.557 11.6005C219.703 11.6139 219.824 11.6554 219.964 11.6802C220 11.6864 220.069 11.6761 220.124 11.6729C220.284 11.6657 220.444 11.6595 220.604 11.6522C220.737 11.6823 220.881 11.7092 221.001 11.7434C221.22 11.8055 221.455 11.8293 221.738 11.7993C221.898 11.7827 222.055 11.7889 222.182 11.8293C222.312 11.8707 222.462 11.8666 222.629 11.8583C222.782 11.85 222.938 11.8272 223.095 11.8562C223.434 11.9204 223.437 11.9235 223.838 11.8987C223.959 11.8914 224.05 11.8894 224.142 11.9132C224.226 11.9349 224.318 11.9536 224.406 11.9743C224.565 11.967 224.728 11.9598 224.888 11.9515C225.094 11.9401 225.208 11.9546 225.257 12.0126C225.286 12.0478 225.299 12.0799 225.371 12.1037C225.456 12.1327 225.547 12.1317 225.671 12.1234C225.788 12.1161 225.873 12.1048 225.922 12.0675C225.942 12.0519 225.981 12.0374 226.017 12.025C226.046 12.0157 226.092 12.0012 226.118 12.0033C226.167 12.0074 226.232 12.0188 226.248 12.0323C226.408 12.1576 226.408 12.1586 226.571 12.1948C226.75 12.2352 226.936 12.2715 227.099 12.317C227.246 12.3574 227.393 12.3398 227.552 12.3398C227.673 12.3398 227.751 12.3667 227.742 12.3937C227.735 12.4092 227.689 12.432 227.65 12.434C227.331 12.4547 227.008 12.4724 226.685 12.4868C226.646 12.4889 226.597 12.4703 226.551 12.461C226.46 12.4423 226.379 12.4133 226.281 12.4071C226.183 12.4009 226.069 12.4164 225.961 12.4216C225.854 12.4268 225.739 12.4403 225.642 12.432C225.544 12.4237 225.465 12.3937 225.374 12.374C225.332 12.3647 225.273 12.3512 225.237 12.3543C224.999 12.3792 224.823 12.345 224.654 12.2994C224.618 12.2901 224.556 12.2839 224.51 12.286C224.132 12.3036 223.757 12.3243 223.379 12.344C223.225 12.3522 223.101 12.316 223.069 12.2549C223.052 12.2207 223.02 12.1866 223.02 12.1524C223.02 12.0903 222.84 12.0561 222.71 12.0633C222.495 12.0737 222.276 12.082 222.064 12.0975C221.892 12.1099 221.745 12.0975 221.627 12.0602C221.49 12.0178 221.334 12.0261 221.177 12.0374C221.06 12.0457 221.027 12.0799 221.034 12.1658C221.04 12.2352 220.985 12.257 220.773 12.2684C220.506 12.2829 220.235 12.2974 219.964 12.3087C219.922 12.3108 219.873 12.2932 219.831 12.2839C219.739 12.2653 219.658 12.2352 219.56 12.229C219.462 12.2218 219.348 12.2373 219.24 12.2435C219.133 12.2487 219.019 12.2632 218.921 12.2559C218.823 12.2487 218.741 12.2176 218.653 12.198C218.611 12.1886 218.559 12.1752 218.516 12.1772C218.301 12.1855 218.086 12.198 217.871 12.2093C217.63 12.2218 217.63 12.2218 217.287 12.1576C217.131 12.1286 216.974 12.1514 216.821 12.1596C216.658 12.1679 216.505 12.1721 216.377 12.1306C216.293 12.1037 216.198 12.0872 216.097 12.0923C215.826 12.1048 215.559 12.1203 215.288 12.1327C215.243 12.1348 215.181 12.1296 215.145 12.1203C214.972 12.0768 214.802 12.0426 214.561 12.0644C214.352 12.083 214.127 12.084 213.919 12.1016C213.805 12.111 213.752 12.1441 213.775 12.17C213.788 12.1835 213.857 12.199 213.902 12.199C214.007 12.2 214.121 12.1845 214.219 12.1907C214.421 12.2031 214.522 12.2901 214.786 12.2663C214.943 12.2518 215.106 12.2466 215.269 12.2425C215.311 12.2414 215.357 12.2611 215.402 12.2715C215.533 12.2994 215.647 12.3357 215.836 12.317C215.993 12.3025 216.159 12.2984 216.319 12.2901C216.573 12.2767 216.573 12.2777 216.902 12.3409C217.059 12.3709 217.215 12.3471 217.369 12.3398C217.483 12.3346 217.59 12.3243 217.682 12.3388C217.822 12.3605 217.923 12.4102 218.096 12.4071C218.259 12.404 218.419 12.3895 218.582 12.3843C218.683 12.3812 218.777 12.3978 218.859 12.4258C218.944 12.4537 219.035 12.4661 219.146 12.4599C219.306 12.4516 219.469 12.4413 219.632 12.4361C219.677 12.4351 219.73 12.4444 219.772 12.4527C219.863 12.4713 219.951 12.4931 220.039 12.5127C220.199 12.5065 220.362 12.5045 220.519 12.492C220.639 12.4827 220.724 12.4869 220.822 12.5076C220.946 12.5355 221.047 12.5852 221.249 12.5614C221.35 12.55 221.468 12.5531 221.569 12.5428C221.693 12.5293 221.777 12.5345 221.865 12.5655C222.032 12.6246 222.24 12.6256 222.456 12.6028C222.69 12.578 222.867 12.607 223.043 12.6525C223.229 12.7002 223.229 12.6991 223.372 12.8141C223.414 12.8472 223.535 12.8627 223.636 12.8565C223.806 12.8462 223.952 12.8513 224.076 12.8907C224.207 12.9332 224.363 12.928 224.523 12.9166C224.735 12.9011 224.947 12.8876 225.12 12.9477C225.205 12.9767 225.296 12.9839 225.41 12.9766C225.733 12.958 226.059 12.9466 226.375 12.9238C226.568 12.9093 226.678 12.9425 226.809 12.9704C226.985 13.0087 227.177 13.0429 227.177 13.1247C227.177 13.1382 227.223 13.1537 227.262 13.1641C227.347 13.1858 227.438 13.2045 227.526 13.2252C227.657 13.2562 227.784 13.2821 227.963 13.2655C228.12 13.2521 228.286 13.2479 228.446 13.2386C228.606 13.2293 228.752 13.2241 228.896 13.2635C229.062 13.308 229.238 13.3505 229.427 13.3836C229.561 13.4074 229.737 13.367 229.881 13.3991C229.969 13.4188 230.053 13.4416 230.148 13.4582C230.187 13.4654 230.249 13.4602 230.301 13.4582C230.409 13.454 230.52 13.4509 230.624 13.4406C230.745 13.4292 230.836 13.4312 230.927 13.4551C231.012 13.4768 231.097 13.5068 231.195 13.513C231.342 13.5224 231.505 13.4809 231.651 13.5286C231.726 13.5524 231.821 13.5752 231.919 13.5824C232.017 13.5897 232.131 13.5741 232.235 13.5752C232.281 13.5752 232.336 13.5917 232.362 13.6052C232.378 13.6124 232.356 13.6321 232.333 13.6425C232.304 13.6549 232.261 13.6715 232.219 13.6735C231.896 13.6922 231.573 13.7077 231.25 13.7253C231.058 13.7357 231.058 13.7357 230.67 13.6704C230.579 13.6549 230.477 13.658 230.363 13.6653C230.21 13.6746 230.054 13.6922 229.894 13.6735C229.685 13.6031 229.427 13.5969 229.154 13.6238C229.039 13.6352 228.935 13.6352 228.85 13.6155C228.671 13.5762 228.482 13.54 228.322 13.4934C228.198 13.4571 228.139 13.454 228.087 13.5037C228.071 13.5193 228.055 13.5358 228.058 13.5503C228.077 13.6021 228.113 13.6528 228.133 13.7046C228.139 13.7191 228.113 13.7357 228.097 13.7512C228.045 13.7947 227.976 13.7916 227.862 13.7553C227.748 13.7191 227.611 13.6953 227.429 13.7119C227.272 13.7264 227.102 13.7243 226.946 13.7398C226.705 13.7626 226.535 13.7295 226.362 13.6849C226.326 13.6756 226.264 13.6704 226.219 13.6725C225.733 13.6963 225.25 13.7232 224.764 13.7471C224.66 13.7522 224.565 13.7367 224.484 13.7087C224.399 13.6808 224.305 13.6663 224.2 13.6715C223.77 13.6932 223.339 13.7129 222.909 13.7398C222.733 13.7512 222.593 13.7377 222.472 13.7015C222.381 13.6746 222.296 13.6663 222.182 13.6694C222.058 13.6725 221.97 13.6829 221.908 13.7129C221.849 13.7419 221.892 13.7595 222.022 13.7823C222.162 13.8071 222.293 13.8392 222.426 13.8682C222.534 13.8641 222.642 13.8558 222.746 13.8568C222.792 13.8568 222.834 13.8755 222.88 13.8858C223.01 13.9158 223.131 13.9459 223.317 13.9293C223.473 13.9148 223.639 13.9117 223.799 13.9024C224.021 13.891 224.021 13.891 224.38 13.9562C224.471 13.9728 224.569 13.9718 224.686 13.9624C224.787 13.9552 224.892 13.9697 224.963 14.0008C224.993 14.0132 224.983 14.0339 224.921 14.1022C224.921 14.153 224.989 14.1302 225.012 14.0971C225.048 14.0494 224.98 14.0339 224.849 14.0598C224.758 14.0784 224.712 14.1053 224.735 14.1271C224.748 14.1385 224.81 14.153 224.921 14.1022C225.208 14.0401 225.426 14.0329 225.635 14.0163C225.759 14.007 225.837 14.0111 225.935 14.038C226.052 14.0701 226.17 14.1043 226.362 14.0877C226.571 14.0691 226.793 14.067 227.005 14.0515C227.2 14.037 227.301 14.0826 227.425 14.1095C227.575 14.1416 227.742 14.1053 227.878 14.124C228.022 14.1426 228.123 14.1882 228.289 14.1965C228.531 14.1685 228.684 14.2203 228.867 14.2545C229.01 14.2803 229.18 14.2576 229.333 14.2462C229.506 14.2337 229.649 14.2451 229.77 14.2824C229.907 14.3249 230.06 14.3156 230.217 14.3062C230.582 14.2855 230.595 14.2824 230.807 14.3394C230.96 14.3808 231.107 14.3621 231.26 14.357C231.394 14.3849 231.524 14.415 231.664 14.4398C231.7 14.446 231.769 14.4357 231.824 14.4326C231.984 14.4243 232.147 14.416 232.307 14.4077C232.414 14.4025 232.529 14.387 232.626 14.3932C232.724 14.4005 232.806 14.4305 232.894 14.4502C232.982 14.4698 233.073 14.4895 233.158 14.5102C233.288 14.5413 233.412 14.5672 233.595 14.5516C233.751 14.5382 233.914 14.534 234.077 14.5247C234.283 14.5133 234.276 14.5164 234.658 14.5786C234.863 14.6127 235.075 14.5713 235.284 14.5672C235.388 14.5651 235.489 14.5765 235.561 14.6065C235.59 14.619 235.581 14.6397 235.591 14.6573C235.052 14.6852 234.511 14.709 233.98 14.7432C233.774 14.7567 233.667 14.7194 233.556 14.6883C233.373 14.6386 233.132 14.7111 232.959 14.6469C232.855 14.6086 232.705 14.5869 232.525 14.6055C232.421 14.6159 232.31 14.6148 232.202 14.6241C231.928 14.6469 231.677 14.6479 231.459 14.5765C231.384 14.5516 231.276 14.5382 231.198 14.5144C231.107 14.4885 231.019 14.474 230.911 14.4792C230.425 14.504 229.943 14.5289 229.46 14.5558C229.418 14.5579 229.375 14.5734 229.339 14.5848C229.248 14.6138 229.277 14.6366 229.424 14.6552C229.473 14.6614 229.512 14.6749 229.558 14.6852C229.646 14.7049 229.727 14.736 229.825 14.7432C229.923 14.7505 230.037 14.736 230.145 14.7308C230.252 14.7256 230.367 14.7101 230.464 14.7163C230.562 14.7235 230.644 14.7536 230.735 14.7722C230.777 14.7815 230.83 14.7971 230.872 14.796C231.087 14.7898 231.299 14.7784 231.514 14.7691C231.648 14.7971 231.762 14.8374 231.922 14.8468C232.023 14.853 232.131 14.8416 232.235 14.8437C232.281 14.8447 232.339 14.8602 232.362 14.8737C232.375 14.882 232.333 14.9027 232.3 14.913C232.176 14.9524 232.007 14.9451 231.854 14.9576C231.687 14.971 231.537 14.9669 231.41 14.9265C231.325 14.8996 231.231 14.8851 231.126 14.8903C230.856 14.9037 230.588 14.9193 230.318 14.9306C230.272 14.9327 230.217 14.9234 230.174 14.9161C229.832 14.853 229.832 14.8509 229.59 14.8644C229.235 14.884 229.235 14.884 228.997 14.8292C228.951 14.8188 228.902 14.7991 228.863 14.8002C228.485 14.8167 228.11 14.8333 227.735 14.8571C227.611 14.8644 227.526 14.8644 227.435 14.8374C227.357 14.8147 227.265 14.7888 227.168 14.7826C227.067 14.7763 226.956 14.7919 226.848 14.7971C226.74 14.8022 226.626 14.8157 226.532 14.8074C226.434 14.7991 226.349 14.7701 226.264 14.7494C226.176 14.7277 226.082 14.7287 225.961 14.737C225.589 14.7608 225.586 14.7577 225.218 14.6935C225.175 14.6863 225.12 14.678 225.074 14.68C224.804 14.6925 224.536 14.708 224.265 14.7204C224.161 14.7256 224.06 14.7122 223.988 14.6821C223.959 14.6697 223.969 14.649 223.949 14.6086C223.926 14.5993 223.952 14.6159 223.959 14.6314C224.008 14.6293 224.067 14.6314 224.102 14.6231C224.194 14.6034 224.239 14.5775 224.217 14.5558C224.203 14.5444 224.142 14.5299 224.102 14.5299C224.031 14.5299 223.969 14.5527 223.949 14.6086C223.744 14.6428 223.525 14.65 223.313 14.6666C223.189 14.6769 223.111 14.6718 223.013 14.6448C222.896 14.6117 222.775 14.5796 222.583 14.5962C222.374 14.6148 222.152 14.6179 221.937 14.6324C221.689 14.649 221.582 14.5558 221.373 14.5579C221.158 14.5599 220.943 14.5775 220.727 14.59C220.538 14.6003 220.538 14.6003 220.147 14.533C220.003 14.5082 219.834 14.5444 219.694 14.5185C219.599 14.5019 219.518 14.4771 219.426 14.4595C219.387 14.4522 219.325 14.4522 219.276 14.4543C219.006 14.4667 218.732 14.475 218.471 14.4978C218.174 14.5247 217.949 14.4957 217.737 14.4346C217.47 14.446 217.199 14.4522 216.935 14.4719C216.743 14.4864 216.632 14.4522 216.501 14.4243C216.456 14.415 216.417 14.3994 216.368 14.3953C216.319 14.3911 216.26 14.3994 216.208 14.4025C215.993 14.4139 215.771 14.4191 215.562 14.4377C215.305 14.4616 215.207 14.3766 215.008 14.3663C214.874 14.417 214.802 14.4864 214.538 14.4916C214.323 14.4957 214.108 14.5123 213.893 14.5237C213.785 14.5289 213.677 14.5351 213.57 14.5403C213.397 14.5496 213.315 14.59 213.351 14.6521C213.371 14.6863 213.387 14.7204 213.403 14.7546C213.436 14.8157 213.355 14.8675 213.218 14.8747C212.839 14.8944 212.464 14.9151 212.086 14.9327C211.985 14.9379 211.887 14.9203 211.806 14.8923C211.721 14.8644 211.626 14.8519 211.522 14.8571C211.144 14.8768 210.769 14.8975 210.39 14.9151C210.348 14.9172 210.293 14.9068 210.25 14.8985C210.159 14.8799 210.071 14.8582 209.983 14.8385C209.768 14.8478 209.556 14.854 209.344 14.8664C209.001 14.8851 209.001 14.8861 208.75 14.8292C208.705 14.8188 208.659 14.7991 208.617 14.8002C208.453 14.8043 208.294 14.8147 208.131 14.824C207.651 14.8509 207.651 14.8509 207.511 14.8198C207.384 14.7908 207.27 14.7556 207.077 14.7722C206.869 14.7908 206.647 14.7971 206.432 14.8074C206.272 14.8147 206.112 14.8229 205.952 14.825C205.91 14.8261 205.864 14.8064 205.819 14.796C205.688 14.7639 205.561 14.738 205.382 14.7556C205.277 14.766 205.166 14.7681 205.059 14.7732C204.778 14.7877 204.778 14.7877 204.319 14.7256C204.273 14.7194 204.218 14.7121 204.172 14.7153C203.794 14.7339 203.419 14.7546 203.04 14.7722C202.995 14.7743 202.939 14.7681 202.894 14.7629C202.378 14.7028 202.378 14.7028 201.831 14.7318C201.622 14.7422 201.615 14.7463 201.397 14.6914C201.299 14.6676 201.218 14.6562 201.103 14.6635C200.673 14.6883 200.239 14.7049 199.812 14.7339C199.62 14.7463 199.509 14.7153 199.378 14.6873C199.333 14.678 199.284 14.6573 199.245 14.6583C198.814 14.678 198.384 14.7018 197.953 14.7215C197.914 14.7235 197.865 14.7028 197.82 14.6935C197.732 14.6749 197.647 14.6469 197.549 14.6407C197.448 14.6345 197.337 14.65 197.226 14.6552C196.956 14.6687 196.956 14.6676 196.642 14.6065C196.6 14.5982 196.545 14.5869 196.502 14.5889C196.072 14.6096 195.638 14.6272 195.211 14.6573C194.966 14.6738 194.8 14.6438 194.627 14.6003C194.591 14.591 194.529 14.5869 194.484 14.5889C193.998 14.6127 193.515 14.6397 193.029 14.6635C192.928 14.6687 192.831 14.651 192.749 14.6241C192.619 14.5817 192.465 14.5868 192.302 14.5962C191.927 14.6179 191.924 14.6169 191.702 14.5672C191.657 14.5568 191.618 14.5434 191.569 14.5382C191.523 14.533 191.464 14.5361 191.415 14.5382C191.2 14.5485 190.985 14.5599 190.77 14.5713C190.554 14.5827 190.336 14.5889 190.124 14.6065C189.863 14.6283 189.739 14.561 189.557 14.5299C189.289 14.5434 189.015 14.5516 188.751 14.5734C188.549 14.59 188.454 14.5444 188.321 14.5206C188.275 14.5123 188.226 14.4947 188.184 14.4968C187.698 14.5195 187.212 14.5444 186.729 14.5724C186.612 14.5786 186.534 14.5703 186.436 14.5454C186.217 14.4895 186.208 14.4916 185.842 14.5123C185.683 14.5216 185.529 14.5299 185.392 14.4874C185.272 14.4491 185.125 14.4398 184.952 14.4522C184.74 14.4678 184.522 14.4761 184.307 14.4864C184.091 14.4978 183.876 14.5133 183.661 14.5185C183.488 14.5237 183.384 14.475 183.247 14.4502C183.204 14.4429 183.146 14.4419 183.097 14.444C182.882 14.4533 182.66 14.4605 182.451 14.4781C182.197 14.4999 182.057 14.4429 181.877 14.4098C181.838 14.4025 181.773 14.4067 181.724 14.4098C181.346 14.4284 180.971 14.4491 180.592 14.4688C180.459 14.4408 180.322 14.4139 180.188 14.386C179.973 14.3963 179.758 14.4077 179.542 14.4181C179.379 14.4263 179.213 14.4295 179.06 14.445C178.861 14.4657 178.763 14.417 178.629 14.3932C178.584 14.3849 178.535 14.3673 178.492 14.3694C178.222 14.3808 177.951 14.3932 177.684 14.4108C177.429 14.4284 177.328 14.3352 177.12 14.3363C176.904 14.3373 176.683 14.3508 176.474 14.3694C176.233 14.3911 176.063 14.358 175.89 14.3135C175.854 14.3042 175.792 14.299 175.747 14.3011C175.476 14.3135 175.209 14.329 174.938 14.3414C174.892 14.3435 174.837 14.3383 174.791 14.3321C174.276 14.271 174.276 14.27 174.051 14.2824C173.891 14.2907 173.728 14.3011 173.565 14.3062C173.52 14.3083 173.464 14.299 173.422 14.2907C173.083 14.2275 173.083 14.2265 172.838 14.2389C172.623 14.2503 172.408 14.2617 172.192 14.2731C172.059 14.2451 171.922 14.2182 171.788 14.1903C171.521 14.2037 171.247 14.2141 170.983 14.2327C170.859 14.241 170.777 14.2379 170.683 14.212C170.565 14.1809 170.448 14.1447 170.252 14.1623C170.043 14.1809 169.822 14.183 169.61 14.1985C169.355 14.2172 169.251 14.1229 169.046 14.124C168.83 14.125 168.609 14.1385 168.4 14.1571C168.159 14.1789 167.989 14.1457 167.816 14.1012C167.78 14.0919 167.719 14.0867 167.673 14.0888C167.079 14.1188 166.489 14.1488 165.896 14.1809C165.53 14.2006 165.53 14.2016 164.836 14.1447C164.787 14.1405 164.735 14.1364 164.686 14.1385C164.471 14.1478 164.249 14.155 164.04 14.1726C163.786 14.1944 163.646 14.1385 163.466 14.1043C163.427 14.0971 163.365 14.1012 163.313 14.1033C163.15 14.1105 162.99 14.1198 162.827 14.1281C162.612 14.1395 162.397 14.1509 162.182 14.1623C162.048 14.1354 161.911 14.1074 161.777 14.0805C161.51 14.094 161.236 14.1012 160.972 14.1229C160.77 14.1395 160.675 14.096 160.541 14.0712C160.496 14.0629 160.447 14.0453 160.404 14.0463C159.918 14.0691 159.433 14.0929 158.95 14.1219C158.751 14.1343 158.66 14.0877 158.526 14.0639C158.48 14.0567 158.428 14.0432 158.386 14.0453C158.063 14.0598 157.74 14.0774 157.417 14.095C157.235 14.1053 157.235 14.1053 156.837 14.0411C156.791 14.0339 156.739 14.0266 156.693 14.0287C155.67 14.0805 154.649 14.1354 153.625 14.1871C153.521 14.1923 153.426 14.1768 153.345 14.1488C153.26 14.1209 153.165 14.1064 153.061 14.1116C152.63 14.1333 152.197 14.153 151.77 14.1799C151.593 14.1913 151.453 14.1778 151.333 14.1416C151.241 14.1147 151.156 14.1043 151.042 14.1105C150.827 14.1229 150.612 14.1333 150.397 14.1447C150.182 14.1561 149.966 14.1675 149.751 14.1789C149.536 14.1903 149.317 14.1965 149.105 14.2141C148.845 14.2358 148.717 14.1716 148.538 14.1395C148.215 14.1551 147.892 14.1706 147.573 14.1871C147.142 14.2089 146.712 14.2327 146.281 14.2534C146.242 14.2555 146.193 14.2369 146.148 14.2275C146.014 14.2016 145.916 14.1654 145.717 14.1768C144.752 14.2317 143.78 14.2783 142.812 14.3321C142.61 14.3435 142.522 14.299 142.385 14.2752C142.339 14.2679 142.287 14.2534 142.245 14.2555C141.706 14.2814 141.168 14.3104 140.63 14.3383C140.412 14.3497 140.412 14.3497 140.047 14.2855C140.004 14.2783 139.949 14.2689 139.903 14.271C139.202 14.3062 138.504 14.3435 137.803 14.3798C137.699 14.3849 137.604 14.3704 137.52 14.3425C137.438 14.3145 137.34 14.299 137.239 14.3042C136.593 14.3373 135.944 14.3694 135.302 14.4056C135.129 14.416 134.986 14.4067 134.862 14.3694C134.774 14.3425 134.686 14.3311 134.575 14.3373C133.606 14.388 132.638 14.4367 131.669 14.4906C131.484 14.5009 131.353 14.4812 131.236 14.4471C131.141 14.4201 131.06 14.415 130.942 14.4191C130.818 14.4243 130.743 14.4357 130.675 14.4667C130.587 14.5071 130.531 14.5579 130.323 14.561C130.107 14.5641 129.889 14.5765 129.677 14.5941C129.475 14.6117 129.38 14.5651 129.253 14.5371C129.159 14.5175 129.071 14.5144 128.95 14.5237C128.839 14.532 128.771 14.5496 128.705 14.5827C128.562 14.6531 128.549 14.6531 128.373 14.6086C128.278 14.5848 128.193 14.5661 128.089 14.5703C127.659 14.591 127.228 14.6138 126.798 14.6376C126.55 14.6511 126.547 14.6531 126.361 14.6013C126.269 14.5755 126.181 14.563 126.074 14.5692C124.89 14.6314 123.706 14.6914 122.523 14.7567C122.34 14.767 122.216 14.7453 122.086 14.7142C122.043 14.7039 122.001 14.6894 121.952 14.6852C121.903 14.6811 121.848 14.6852 121.796 14.6873C120.935 14.7318 120.07 14.7743 119.213 14.824C119.017 14.8354 118.913 14.8022 118.779 14.7753C118.734 14.766 118.694 14.7515 118.645 14.7474C118.597 14.7443 118.538 14.7515 118.486 14.7546C117.625 14.7991 116.761 14.8416 115.903 14.8913C115.698 14.9027 115.61 14.8592 115.476 14.8364C115.43 14.8281 115.381 14.8126 115.339 14.8147C115.068 14.826 114.801 14.8416 114.53 14.855C113.885 14.8892 113.239 14.9213 112.593 14.9565C112.345 14.97 112.238 14.8778 112.029 14.882C111.758 14.8871 111.491 14.9079 111.22 14.9224C111.005 14.9337 110.79 14.9441 110.575 14.9565C110.363 14.9679 110.363 14.9679 109.835 14.9079C109.789 14.9027 109.733 14.8954 109.688 14.8975C108.935 14.9358 108.178 14.9741 107.428 15.0155C107.255 15.0249 107.112 15.0197 106.988 14.9814C106.9 14.9545 106.809 14.941 106.701 14.9472C105.569 15.0062 104.441 15.0653 103.31 15.1232C103.267 15.1253 103.212 15.115 103.169 15.1067C103.078 15.088 102.99 15.0663 102.902 15.0466C102.837 15.0704 102.752 15.0922 102.71 15.1191C102.651 15.1553 102.573 15.1657 102.449 15.1719C102.325 15.1781 102.247 15.1761 102.149 15.1491C102.031 15.116 101.911 15.0901 101.718 15.1005C100.535 15.1657 99.3508 15.2247 98.1671 15.2889C97.9715 15.2993 97.8802 15.2537 97.7433 15.2299C97.6976 15.2226 97.6454 15.2113 97.603 15.2133C97.1171 15.2372 96.6345 15.263 96.1487 15.2879C94.8019 15.3583 93.4552 15.4256 92.1117 15.5002C91.8672 15.5136 91.7008 15.4877 91.528 15.4432C91.4921 15.4339 91.4302 15.4287 91.3846 15.4308C89.4998 15.5281 87.6149 15.6265 85.7334 15.7249C85.6323 15.73 85.5345 15.7135 85.4529 15.6866C85.3682 15.6586 85.2736 15.6451 85.1693 15.6503C84.3084 15.6948 83.4476 15.7394 82.5867 15.7849C82.3715 15.7963 82.3682 15.7973 82.1464 15.7476C82.1008 15.7373 82.0519 15.7176 82.016 15.7197C81.941 15.7249 81.8693 15.7507 81.8171 15.786C81.7649 15.8232 81.6834 15.8336 81.5627 15.8408C81.4388 15.8481 81.3573 15.845 81.2628 15.8201C81.1421 15.7891 81.0312 15.759 80.8356 15.7694C78.3606 15.9019 75.8855 16.0293 73.4105 16.1608C73.2116 16.1712 73.1203 16.1277 72.9833 16.1039C72.9377 16.0966 72.8921 16.0863 72.8431 16.0842C72.791 16.0821 72.7355 16.0883 72.6834 16.0914C68.6464 16.3016 64.6095 16.5129 60.5725 16.7231C60.3312 16.7355 60.3344 16.7355 60.0703 16.8308C60.0377 16.8422 59.9953 16.8577 59.9496 16.8598C58.7137 16.926 57.4746 16.9902 56.2355 17.0544C55.6974 17.0824 55.1594 17.1114 54.6214 17.1383C54.429 17.1476 54.429 17.1477 53.9692 17.2595C53.9301 17.2688 53.8844 17.2812 53.8387 17.2833C51.6865 17.3962 49.5343 17.509 47.3789 17.6198C47.2093 17.6281 47.0724 17.6468 46.9941 17.6965C46.9387 17.7317 46.867 17.7524 46.7594 17.7586C45.2528 17.8373 43.7463 17.917 42.2366 17.9937C42.0572 18.003 41.9495 18.032 41.8615 18.0755C41.8322 18.09 41.8061 18.1065 41.7637 18.1169C41.7245 18.1262 41.6659 18.1293 41.6169 18.1324C40.3256 18.1997 39.0344 18.2691 37.7398 18.3333C37.5474 18.3426 37.4691 18.3809 37.3745 18.4213C37.3419 18.4348 37.3191 18.4534 37.2767 18.4627C37.2343 18.471 37.1723 18.471 37.1202 18.4731C36.0441 18.529 34.968 18.586 33.8919 18.6419C33.6832 18.6367 33.6376 18.6968 33.5365 18.733C33.5006 18.7454 33.4746 18.762 33.4322 18.7703C33.3865 18.7786 33.3277 18.7775 33.2723 18.7796C32.4114 18.8241 31.5506 18.8718 30.6865 18.9132C30.4875 18.9225 30.4484 18.9753 30.3408 19.0115C30.3049 19.0229 30.2691 19.0405 30.2267 19.0437C29.6887 19.0737 29.1506 19.1016 28.6126 19.1286C28.4332 19.1379 28.4332 19.1369 28.1169 19.2394C28.081 19.2508 28.0386 19.2632 27.993 19.2663C27.1875 19.3098 26.3788 19.3512 25.5702 19.3937C25.4658 19.3988 25.3941 19.4237 25.3419 19.4589C25.2897 19.4941 25.2147 19.5169 25.1104 19.5221C24.4647 19.5562 23.819 19.5914 23.1734 19.6225C22.994 19.6308 22.8767 19.6567 22.7984 19.7033C22.7397 19.7385 22.668 19.7561 22.5538 19.7623C21.9082 19.7954 21.2625 19.8317 20.6136 19.8607C20.4245 19.8689 20.3266 19.9042 20.2484 19.9476C20.1864 19.9829 20.1147 19.9953 19.994 20.0015C18.8103 20.0616 17.6234 20.1216 16.4429 20.1879C16.244 20.1993 16.1429 20.163 16.0125 20.1371C15.8266 20.1009 15.6538 20.0615 15.6538 19.9808C15.6538 19.9683 15.5984 19.9539 15.5593 19.9435C15.269 19.8658 15.269 19.8658 15.2234 19.783C15.1973 19.7323 15.1679 19.6805 15.1451 19.6287C15.1027 19.5438 14.9983 19.5221 14.6983 19.5376C14.5907 19.5428 14.4831 19.55 14.3755 19.5541C14.2157 19.5614 14.0951 19.5272 14.0658 19.4651C14.0494 19.4309 14.0299 19.3968 14.0136 19.3626C14.1767 19.3543 14.1733 19.3533 14.4603 19.228C14.581 19.1752 14.581 19.1752 14.3495 19.1224C14.2614 19.1027 14.1766 19.0809 14.0821 19.0623C14.0397 19.054 13.9843 19.0488 13.9386 19.0509C13.668 19.0633 13.4006 19.0778 13.1332 19.0923C12.7027 19.1151 12.7027 19.1151 12.2657 19.0095C12.2299 19.0012 12.1744 18.9857 12.181 18.9774C12.2168 18.9391 12.3049 18.9225 12.4157 18.9184C12.5788 18.9121 12.7385 18.9018 12.8983 18.8935C13.0059 18.8883 13.1135 18.8821 13.2212 18.8769C13.3222 18.8376 13.4266 18.7993 13.5212 18.7589C13.6712 18.6968 13.6712 18.6947 13.4657 18.6512C13.3353 18.6222 13.1951 18.5963 13.0614 18.5694C12.9016 18.5777 12.7386 18.587 12.5788 18.5942C12.3766 18.6036 12.2951 18.5839 12.2429 18.5166C12.1972 18.4576 12.2527 18.4068 12.4092 18.3944C12.569 18.382 12.719 18.3737 12.8006 18.3209C12.8788 18.2701 13.0158 18.2505 13.1853 18.2463C13.2929 18.2432 13.4005 18.236 13.5082 18.2298C13.6484 18.2215 13.7234 18.1687 13.694 18.1096C13.6777 18.0713 13.6451 18.0392 13.5179 18.0309C12.9538 17.9947 12.9473 17.9957 12.6668 17.9253C12.6407 17.9191 12.6212 17.9005 12.631 17.8911C12.6473 17.8756 12.6832 17.8528 12.7223 17.8497C13.0973 17.8269 13.4723 17.8062 13.8473 17.7907C13.9712 17.7855 14.0625 17.7783 14.1049 17.7399C14.1636 17.6871 14.1375 17.6385 14.0234 17.6022C13.9875 17.5908 13.9288 17.5763 13.8897 17.5774C13.4592 17.596 13.0321 17.6198 12.6016 17.6385C12.5625 17.6405 12.4908 17.6229 12.4745 17.6095C12.4419 17.5846 12.4908 17.5515 12.6049 17.5401C12.7549 17.5246 12.9081 17.5235 13.0092 17.4718C13.1494 17.3982 13.3223 17.3309 13.4788 17.2605C13.5049 17.2481 13.5473 17.2243 13.5375 17.2222C13.456 17.1994 13.3614 17.1818 13.2766 17.1601C13.1332 17.1238 13.1331 17.0731 13.1657 17.0244C13.1918 16.9851 13.2897 16.9695 13.4103 16.9695C13.4625 16.9695 13.5277 16.9695 13.5701 16.9602C13.681 16.9374 13.7168 16.9084 13.6614 16.8867C13.6288 16.8743 13.5701 16.8567 13.531 16.8587C12.8332 16.8929 12.132 16.926 11.4375 16.9685C11.232 16.9809 11.1375 16.9416 11.0136 16.9136C10.919 16.8919 10.8309 16.8836 10.7136 16.8991C10.6027 16.9136 10.4951 16.9053 10.4266 16.8712C10.3712 16.8432 10.469 16.8194 10.7331 16.7925C10.7821 16.7873 10.8375 16.7842 10.8733 16.7738C11.2516 16.662 11.2516 16.661 11.5125 16.6465C11.7668 16.633 11.7669 16.632 11.9006 16.5719C11.9625 16.544 12.0309 16.516 12.0896 16.487C12.1125 16.4756 12.1516 16.4549 12.1386 16.4487C12.0669 16.4166 11.969 16.4093 11.8549 16.4166C11.6005 16.4342 11.3006 16.4197 11.1669 16.5181C11.1147 16.5553 11.0332 16.5657 10.9158 16.5719C9.73533 16.632 8.55485 16.6962 7.37115 16.7542C7.17876 16.7635 7.09077 16.8018 7.01577 16.8442C6.95055 16.8795 6.87879 16.8898 6.75488 16.896C6.63097 16.9022 6.53309 16.9053 6.46135 16.8712C6.41896 16.8505 6.45484 16.8215 6.55267 16.7925C6.69289 16.7511 6.66679 16.6993 6.62113 16.6506C6.58852 16.6185 6.48744 16.5957 6.37983 16.5978C6.22005 16.6019 6.06683 16.6133 5.93313 16.5719C5.85487 16.5481 5.75703 16.5315 5.66898 16.5108C5.49942 16.4684 5.32984 16.4249 5.0918 16.4528C4.92875 16.4425 4.81462 16.4052 4.68419 16.3762C4.46571 16.3286 4.44614 16.3213 4.60267 16.2706C4.77875 16.2136 4.64177 16.1391 4.7396 16.0831C4.84395 16.0231 4.98747 15.9703 5.11465 15.9144C5.14726 15.8999 5.17662 15.8864 5.20923 15.8719C5.13423 15.8512 5.06576 15.8253 4.97772 15.8108C4.86358 15.7922 4.80489 15.7694 4.81141 15.7052C4.78858 15.6959 4.7983 15.7197 4.82438 15.7259C4.85373 15.7321 4.92553 15.7269 4.9614 15.7197C5.0527 15.7 5.0983 15.6741 5.07548 15.6524C5.06244 15.641 5.00053 15.6265 4.9614 15.6265C4.88966 15.6265 4.82771 15.6493 4.80814 15.7052C4.44292 15.7477 4.0646 15.7684 3.68634 15.7849C3.64721 15.787 3.59832 15.7663 3.55267 15.7559C3.40267 15.7207 3.40265 15.7218 2.96243 15.7114C2.91678 15.7104 2.85486 15.6959 2.83203 15.6814C2.73746 15.6182 2.74075 15.5488 2.6951 15.4815C2.77988 15.438 2.8646 15.3956 2.95264 15.3531C3.12873 15.2672 3.35704 15.1916 3.494 15.0974C3.46465 15.0466 3.42551 14.9959 3.56899 14.9545C3.9766 14.9027 3.97337 14.9027 4.08424 14.853C4.40054 14.7122 4.71357 14.5703 5.04292 14.4315C5.13096 14.3953 5.13097 14.3756 4.97445 14.3601C4.92554 14.3559 4.87329 14.3549 4.82112 14.357C4.65808 14.3642 4.49504 14.3829 4.33525 14.3787C4.17547 14.3756 4.05808 14.33 3.92764 14.3021C3.79395 14.2731 3.66026 14.2431 3.52656 14.213C3.3733 14.2161 3.22007 14.2451 3.0668 14.1985C2.94941 14.1623 2.80268 14.1364 2.66899 14.1064C2.77007 14.0277 2.95923 13.9676 3.10597 13.8982C3.23967 13.8351 3.24286 13.8361 3.60155 13.7874C3.77112 13.7647 3.82982 13.6476 3.68634 13.6135C3.51351 13.5721 3.33094 13.5337 3.15485 13.4944C3.00159 13.4975 2.8451 13.5255 2.69836 13.4789C2.58423 13.4437 2.45377 13.4198 2.26464 13.4333C1.94507 13.4561 1.619 13.4675 1.29617 13.4861C1.1853 13.4923 1.06461 13.4882 1.0157 13.453C0.983088 13.4281 1.07766 13.394 1.18527 13.3867C1.34831 13.3764 1.49504 13.3639 1.57656 13.3122C1.65482 13.2604 1.79828 13.2448 1.96785 13.2376C2.0135 13.2355 2.06571 13.2231 2.08854 13.2107C2.20593 13.1506 2.33638 13.0988 2.58746 13.1009C2.69181 13.0802 2.74721 13.0543 2.7146 13.0295C2.69504 13.016 2.62659 12.9984 2.58746 13.0005C2.31681 13.0108 2.04617 13.0212 1.78204 13.0398C1.65812 13.0481 1.56351 13.0502 1.48524 13.0191C1.42981 12.9984 1.45915 12.9704 1.5635 12.9404C1.65481 12.9145 1.68092 12.8845 1.6744 12.8493C1.6581 12.7675 1.56025 12.7437 1.24721 12.7488C1.02221 12.753 0.966768 12.7395 0.917855 12.6691C0.904811 12.6525 0.87226 12.6298 0.895086 12.6184C1.0353 12.5479 1.12661 12.461 1.39075 12.4278C1.49509 12.4154 1.60592 12.4154 1.67114 12.3885C1.73635 12.3616 1.79508 12.3305 1.86356 12.3046C1.94834 12.2735 2.00698 12.2446 1.96785 12.2249C1.90263 12.1897 1.79832 12.1866 1.67767 12.199C1.57332 12.2093 1.46245 12.2104 1.35484 12.2166C1.16245 12.228 1.00596 12.2011 0.983136 12.1555C0.921179 12.0354 0.855942 11.9163 0.800507 11.7962C0.793986 11.7817 0.810245 11.763 0.836333 11.7506C0.927637 11.7071 1.0255 11.6657 1.12007 11.6232C1.23094 11.5746 1.40705 11.5839 1.55705 11.5746C1.76901 11.5611 1.76894 11.5621 2.05263 11.4627C2.1635 11.4234 2.35591 11.4389 2.47004 11.4037C2.50591 11.3923 2.56134 11.3737 2.55156 11.3633C2.53852 11.3499 2.47333 11.3395 2.42442 11.3333C2.37877 11.3271 2.32335 11.324 2.27443 11.3271C1.68095 11.3571 1.09075 11.3892 0.497268 11.4182C0.39618 11.4234 0.285307 11.4006 0.249438 11.3685C0.213568 11.3385 0.223319 11.3022 0.216797 11.2681C0.311362 11.2256 0.41893 11.1863 0.500452 11.1407C0.562409 11.1055 0.634161 11.09 0.758075 11.0879C0.921119 11.0848 1.08092 11.0724 1.26353 11.063C1.60266 10.9119 1.93525 10.7534 2.30047 10.6022C2.4472 10.5411 2.41139 10.479 2.44074 10.4138C2.47009 10.3537 2.68855 10.363 2.83529 10.3454C2.95269 10.3309 2.99177 10.2978 2.94611 10.275C2.92003 10.2616 2.86136 10.246 2.81571 10.246C2.7081 10.246 2.60049 10.2553 2.49289 10.2605C2.38528 10.2657 2.26137 10.2626 2.17333 10.2802C2.08854 10.2968 2.03308 10.332 1.97764 10.362C1.91568 10.3951 1.83422 10.4065 1.71031 10.4086C1.55052 10.4107 1.39075 10.42 1.23097 10.4272C1.05488 10.3869 0.872231 10.3475 0.702665 10.3051C0.670056 10.2968 0.663499 10.273 0.66676 10.2574C0.673282 10.217 0.624382 10.1922 0.516773 10.1725C0.425468 10.1559 0.350461 10.1321 0.265678 10.1114C0.330896 10.0835 0.402661 10.0565 0.454835 10.0265C0.568966 9.96333 0.71246 9.91778 0.960287 9.91985C1.05811 9.87947 1.13635 9.82976 1.26353 9.8018C1.38418 9.77488 1.58962 9.80179 1.68093 9.7407C1.72658 9.71067 1.7951 9.6765 1.88314 9.66407C2.02336 9.6444 2.20597 9.65476 2.28749 9.59677C2.3364 9.56364 2.40811 9.5336 2.50268 9.52532C2.61029 9.516 2.72113 9.51393 2.79939 9.49426C2.84178 9.4839 2.88744 9.46733 2.88744 9.45284C2.88744 9.44352 2.82227 9.42902 2.77662 9.4228C2.73423 9.41556 2.67873 9.41038 2.62982 9.41245C2.46677 9.41866 2.30699 9.43005 2.14395 9.43627C2.0983 9.43834 2.04614 9.43109 1.99723 9.42488C1.85375 9.40831 1.86351 9.3876 1.97764 9.35032C2.09177 9.31408 2.17334 9.26748 2.2679 9.22502C2.37225 9.21777 2.50267 9.22088 2.57441 9.20121C2.69506 9.1691 2.77982 9.1225 2.87765 9.08212C2.98526 9.07591 3.09612 9.07384 3.19721 9.06245C3.2396 9.05831 3.25918 9.03553 3.29505 9.02207C3.36027 8.99618 3.41575 8.9589 3.50379 8.94648C3.64727 8.92784 3.82335 8.93508 3.90814 8.87813C3.95705 8.84499 4.03202 8.80979 4.12333 8.80772C4.37768 8.80358 4.48529 8.74662 4.61572 8.69277C4.71355 8.65239 4.92225 8.6731 5.02986 8.63272C5.1016 8.60683 5.15381 8.57472 5.22555 8.54987C5.25489 8.53952 5.31683 8.53434 5.36574 8.53124C5.63313 8.51571 5.90378 8.50431 6.17117 8.48774C6.21356 8.48464 6.25272 8.46911 6.28533 8.45669C6.35381 8.42976 6.39615 8.39248 6.48094 8.37488C6.56572 8.35727 6.68636 8.35728 6.79071 8.3521C7.12658 8.33657 7.15269 8.3407 7.30595 8.25268C7.42986 8.18123 7.73316 8.23198 7.83425 8.15328C7.89295 8.10772 8.00051 8.07044 8.1929 8.06526C8.46355 8.05801 8.73094 8.03834 9.00159 8.02488C9.2429 8.01245 9.23965 8.01245 9.50052 7.91614C9.61791 7.87265 9.79077 7.87887 9.94403 7.87059C10.1071 7.8623 10.2571 7.84988 10.3353 7.79811C10.4136 7.74737 10.557 7.73079 10.7233 7.72354C10.8766 7.71629 11.0495 7.72148 11.1701 7.68006C11.4636 7.58065 11.4604 7.57961 11.6658 7.56925C11.9886 7.55269 12.3114 7.53612 12.6343 7.51851C12.8495 7.50712 13.0745 7.50506 13.2766 7.48227C13.4234 7.46571 13.4886 7.40772 13.5831 7.36734C13.8505 7.3518 14.1179 7.33626 14.3853 7.32177C14.7603 7.30106 15.1386 7.28242 15.5168 7.26275C15.6799 7.2234 15.7027 7.13642 15.9767 7.13227C16.1397 7.1302 16.2995 7.11674 16.4625 7.10846C16.7332 7.09396 17.0006 7.07532 17.2712 7.06807C17.4767 7.0629 17.5125 7.00697 17.6201 6.97177C17.656 6.95934 17.6886 6.94174 17.731 6.93864C18.1549 6.90964 18.5918 6.90343 19.006 6.86097C19.0483 6.85683 19.0875 6.83508 19.0973 6.81955C19.1038 6.81127 19.0484 6.79574 19.0125 6.78849C18.9701 6.78021 18.9147 6.77192 18.869 6.774C17.5223 6.84337 16.1756 6.91379 14.8288 6.98317C14.6397 6.99352 14.6397 6.99248 14.1799 7.10639C14.1408 7.11571 14.0951 7.12606 14.0462 7.12916C13.8309 7.14159 13.6125 7.14885 13.4005 7.16438C13.2277 7.17681 13.0843 7.16437 12.9603 7.12709C12.8723 7.10017 12.781 7.09189 12.6701 7.09396C12.5462 7.09707 12.4647 7.10846 12.393 7.13642C12.2984 7.17473 12.2495 7.22443 12.0505 7.23479C11.1342 7.27931 10.2179 7.32902 9.30483 7.37665C9.17766 7.36215 9.11571 7.34041 9.14832 7.31452C9.16788 7.29899 9.20703 7.27828 9.24616 7.27621C9.62116 7.25447 9.99941 7.23583 10.3744 7.21512C10.4266 7.21201 10.4983 7.21407 10.5277 7.20372C10.6711 7.15712 10.7234 7.08153 10.994 7.07635C11.1505 7.07325 11.3103 7.05772 11.4603 7.04322C11.5027 7.03908 11.5418 7.01733 11.5516 7.0018C11.5549 6.99352 11.5027 6.97798 11.4636 6.97073C11.3201 6.9407 11.1538 6.97695 11.0103 6.95624C10.9614 6.949 10.8929 6.93864 10.8831 6.92621C10.8766 6.91482 10.932 6.89618 10.9712 6.88479C11.007 6.87443 11.0559 6.86512 11.1048 6.86201C11.5353 6.83819 11.9658 6.81334 12.3962 6.7947C12.5723 6.78745 12.6962 6.76156 12.7745 6.71393C12.8332 6.67872 12.9049 6.66009 13.0158 6.65491C13.769 6.6166 14.5223 6.57414 15.2788 6.53893C15.4679 6.53065 15.5658 6.49648 15.644 6.45196C15.706 6.41675 15.7778 6.40432 15.8984 6.39811C16.9778 6.34426 18.0506 6.2842 19.1299 6.23243C19.3288 6.22311 19.3876 6.17858 19.4886 6.14027C19.5245 6.12681 19.5473 6.11024 19.5929 6.10196C19.6386 6.09367 19.6973 6.0947 19.7527 6.09263C20.6136 6.0481 21.4745 6.00048 22.3386 5.95906C22.5408 5.94974 22.5799 5.89795 22.6842 5.86171C22.7201 5.85032 22.7527 5.83169 22.7951 5.82858C23.4408 5.79337 24.0864 5.76024 24.7321 5.72607C25.1625 5.70329 25.5929 5.6805 26.0234 5.65876C26.2353 5.6484 26.2353 5.64736 26.5223 5.54899C26.5549 5.5376 26.6006 5.52413 26.643 5.52103C27.8821 5.45476 29.118 5.3916 30.3571 5.32637C30.4615 5.32119 30.5364 5.29736 30.5886 5.26215C30.6408 5.22695 30.7159 5.20313 30.8169 5.19795C31.7854 5.14618 32.7539 5.09544 33.7256 5.04677C33.9017 5.03849 34.0256 5.01363 34.1039 4.96704C34.1625 4.93183 34.2343 4.9132 34.3452 4.90802C35.3136 4.85831 36.2822 4.8055 37.2539 4.75786C37.4398 4.74854 37.5311 4.71334 37.6224 4.67192C37.655 4.65742 37.6811 4.63361 37.7202 4.63154C38.2028 4.60254 38.6821 4.57251 39.168 4.55284C39.3702 4.54455 39.4387 4.50106 39.5202 4.45964C39.5854 4.4265 39.6604 4.41512 39.7844 4.41097C40.055 4.40165 40.3224 4.38406 40.5865 4.36645C40.6257 4.36335 40.6746 4.34056 40.6778 4.32607C40.6844 4.29914 40.6093 4.2805 40.4854 4.27118C39.1941 4.33849 37.8996 4.40579 36.6083 4.4731C36.3963 4.48449 36.3963 4.4845 36.1093 4.58287C36.0767 4.59426 36.031 4.60772 35.9854 4.61083C34.7463 4.67607 33.5104 4.74027 32.2713 4.80551C32.1669 4.81068 32.0919 4.8345 32.0398 4.86971C31.9876 4.90491 31.9125 4.92873 31.8114 4.93391C30.6277 4.99604 29.4441 5.05921 28.2571 5.11823C28.081 5.12651 27.9571 5.15032 27.8789 5.19795C27.8202 5.23316 27.7484 5.25181 27.6376 5.25698C26.5061 5.31497 25.3777 5.37606 24.243 5.43198C24.1288 5.43715 24.0441 5.40712 24.0506 5.37916C24.0539 5.36467 24.1027 5.34086 24.1418 5.33879C24.7321 5.30462 25.3191 5.26941 25.9126 5.24352C26.1115 5.23524 26.1701 5.18967 26.2712 5.15136C26.3038 5.1379 26.3299 5.1203 26.3723 5.11305C26.418 5.10476 26.4767 5.1058 26.5321 5.10373C27.931 5.03021 29.33 4.95566 30.7322 4.88628C30.9343 4.87592 30.9734 4.82518 31.0777 4.78893C31.1136 4.77651 31.1463 4.75787 31.1886 4.7558C31.6191 4.73095 32.0495 4.7092 32.4799 4.68746C33.2332 4.64811 33.9865 4.60876 34.743 4.56941C34.9615 4.55802 34.9615 4.55801 35.2419 4.46068C35.2745 4.44928 35.3202 4.4348 35.3626 4.43273C37.355 4.32814 39.3474 4.22355 41.3398 4.12C41.4442 4.11483 41.5191 4.09101 41.5713 4.0558C41.6235 4.02163 41.6985 3.99678 41.7996 3.99057C44.4931 3.84974 47.1833 3.7089 49.8768 3.57015C50.0529 3.56083 50.1767 3.53908 50.255 3.49041C50.3104 3.4552 50.3854 3.43657 50.4963 3.43036C53.4572 3.27607 56.4181 3.12178 59.3822 2.96645C61.3746 2.8629 63.367 2.75728 65.3594 2.6558C65.542 2.64648 65.6398 2.61438 65.7311 2.57192C65.7605 2.55742 65.7899 2.53361 65.829 2.53154C66.2562 2.50565 66.6833 2.48184 67.1105 2.45802C67.2442 2.48598 67.3779 2.51291 67.5116 2.54086C67.6127 2.50151 67.7105 2.46113 67.8116 2.42178C68.4573 2.39175 69.0931 2.34515 69.7453 2.33065C69.7877 2.32962 69.8333 2.3493 69.879 2.35965C70.1822 2.42489 70.3551 2.41971 70.5475 2.33273C70.6159 2.30166 70.6746 2.2737 70.779 2.26853C71.1018 2.24989 71.428 2.23746 71.7475 2.21571C71.9204 2.20432 72.0638 2.21468 72.1877 2.25195C72.2757 2.27888 72.3671 2.29027 72.4747 2.28406C73.0682 2.253 73.6584 2.22296 74.2519 2.18983C74.2943 2.18776 74.3333 2.17015 74.366 2.15772C74.4344 2.1308 74.4931 2.10181 74.5584 2.07385C74.6464 2.09145 74.7443 2.10492 74.816 2.1277C74.9073 2.15462 74.9921 2.15462 75.116 2.14737C77.4834 2.02207 79.854 1.89988 82.2214 1.77355C82.4236 1.7632 82.5117 1.80669 82.6486 1.82947C82.6943 1.83776 82.7399 1.84811 82.7888 1.85018C82.841 1.85225 82.8964 1.84604 82.9486 1.84294C84.7258 1.74974 86.503 1.65758 88.2802 1.56438C88.515 1.55195 88.515 1.55195 88.8639 1.61616C88.9063 1.62444 88.9617 1.63376 89.0074 1.63065C89.8161 1.59027 90.6247 1.54678 91.4302 1.50536C91.5345 1.50018 91.6226 1.51675 91.7172 1.54057C91.903 1.58716 91.916 1.58717 92.053 1.51882C92.1182 1.48672 92.1867 1.46704 92.2943 1.45772C92.4117 1.44737 92.5063 1.45048 92.5976 1.46912C92.728 1.49501 92.8226 1.53849 93.0215 1.5271C93.8824 1.47843 94.7465 1.43805 95.6041 1.38835C95.7998 1.37696 95.9041 1.41216 96.0346 1.43805C96.0802 1.44737 96.1226 1.46187 96.1715 1.46498C96.2204 1.46808 96.2791 1.46083 96.3313 1.45772C97.4074 1.4018 98.4867 1.34693 99.5595 1.28687C99.7617 1.27548 99.8498 1.32 99.9867 1.34278C100.032 1.35107 100.085 1.36557 100.127 1.3635C100.773 1.3314 101.422 1.29722 102.067 1.26305C102.299 1.25062 102.299 1.25165 102.651 1.31482C102.693 1.3231 102.749 1.33139 102.794 1.32932C103.548 1.29101 104.304 1.25166 105.057 1.21231C105.289 1.19988 105.289 1.19988 105.957 1.25373C106.006 1.25787 106.058 1.26409 106.107 1.26202C106.968 1.2175 107.832 1.174 108.693 1.12636C108.866 1.11705 109.01 1.12533 109.134 1.1626C109.222 1.18953 109.313 1.20092 109.42 1.19471C110.389 1.14397 111.361 1.09531 112.326 1.04146C112.512 1.0311 112.632 1.05388 112.763 1.08391C112.805 1.09426 112.848 1.10876 112.897 1.1129C112.945 1.11704 113.001 1.1129 113.053 1.10979C114.022 1.05905 114.993 1.01142 115.959 0.956541C116.154 0.94515 116.259 0.980356 116.389 1.00624C116.435 1.01556 116.484 1.0342 116.523 1.03317C116.901 1.01556 117.279 1.00004 117.654 0.974149C117.856 0.959652 117.944 1.00728 118.081 1.03006C118.127 1.03731 118.179 1.05285 118.222 1.05078C119.03 1.01039 119.839 0.967938 120.644 0.924447C120.759 0.918234 120.843 0.927545 120.935 0.954468C121.055 0.99071 121.196 1.00521 121.372 0.993818C121.747 0.970001 122.125 0.953438 122.503 0.933763C122.725 0.922372 122.725 0.922376 123.403 0.976222C123.452 0.980364 123.504 0.986573 123.553 0.984502C124.199 0.951365 124.848 0.919267 125.49 0.883024C125.663 0.872669 125.806 0.881986 125.93 0.919264C126.018 0.946187 126.106 0.957584 126.217 0.951371C126.811 0.920306 127.401 0.889238 127.994 0.858173C128.21 0.846783 128.425 0.827103 128.64 0.827103C128.797 0.828139 128.911 0.877841 129.051 0.902693C129.09 0.909941 129.155 0.901667 129.208 0.899596C129.961 0.860247 130.717 0.824001 131.467 0.779474C131.663 0.768084 131.767 0.803289 131.898 0.829176C131.943 0.838496 131.992 0.857136 132.031 0.8561C132.302 0.84471 132.569 0.829176 132.84 0.815714C133.163 0.799146 133.489 0.78672 133.809 0.763939C134.069 0.7453 134.167 0.835386 134.376 0.838492C134.536 0.841599 134.699 0.823998 134.859 0.815714C135.181 0.799146 135.504 0.780509 135.827 0.766012C135.941 0.760835 136.029 0.74426 136.065 0.706982C136.072 0.699733 136.016 0.684207 135.98 0.674888C135.547 0.569266 135.547 0.569261 135.11 0.592042C134.839 0.606539 134.572 0.621039 134.301 0.633465C134.255 0.635536 134.203 0.627252 134.158 0.621039C134.027 0.603436 134.04 0.582728 134.151 0.54545C134.262 0.508172 134.347 0.462614 134.441 0.420158C134.575 0.447081 134.705 0.473995 134.839 0.500918C134.947 0.49574 135.054 0.489536 135.162 0.484359C135.7 0.457436 136.238 0.429475 136.776 0.404623C136.815 0.402552 136.864 0.423265 136.91 0.43362C137.04 0.46365 137.158 0.48953 137.347 0.47814C137.829 0.44811 138.315 0.426365 138.798 0.400477C139.01 0.389087 139.01 0.389088 139.381 0.453289C139.424 0.460537 139.479 0.468822 139.525 0.466751C140.011 0.442934 140.493 0.41705 140.979 0.392198C141.084 0.38702 141.185 0.400481 141.26 0.430511C141.289 0.442937 141.283 0.463643 141.406 0.633465C141.791 0.771187 142.055 0.756697 142.323 0.744271C142.437 0.739093 142.538 0.733911 142.613 0.713201C142.652 0.70181 142.701 0.685239 142.701 0.671778C142.701 0.661423 142.629 0.644852 142.584 0.642781C142.261 0.622071 141.954 0.665568 141.638 0.674888C141.491 0.67903 141.364 0.642786 141.338 0.583763C141.331 0.567195 141.322 0.549592 141.312 0.533024C141.302 0.516456 141.296 0.498854 141.286 0.482286C141.159 0.477108 141.084 0.495744 141.028 0.530951C140.983 0.559945 140.917 0.593081 140.829 0.608614C140.741 0.625182 140.621 0.622081 140.513 0.627258C140.409 0.632436 140.294 0.645896 140.197 0.638647C140.099 0.630363 140.021 0.600329 139.929 0.58169C139.887 0.57237 139.835 0.558914 139.792 0.560985C139.417 0.578588 139.046 0.596185 138.674 0.618966C138.478 0.631392 138.38 0.587908 138.256 0.560985C138.159 0.540275 138.061 0.545446 138.044 0.593079C138.002 0.706984 138.152 0.754615 138.485 0.732869C138.759 0.71423 139.006 0.711133 139.222 0.781547C139.251 0.790867 139.319 0.795007 139.362 0.792936C139.629 0.78051 139.893 0.764976 140.161 0.75255C140.21 0.750479 140.262 0.754615 140.308 0.758757C140.973 0.814674 140.973 0.815715 141.198 0.803289C141.305 0.797076 141.41 0.791898 141.4 0.634501C141.605 0.465715 141.931 0.454326 142.248 0.429474C142.453 0.413942 142.541 0.459506 142.675 0.483322C142.721 0.491606 142.77 0.508171 142.812 0.5061C143.513 0.471929 144.211 0.435681 144.909 0.397367C145.026 0.391154 145.111 0.397369 145.202 0.424292C145.319 0.458463 145.45 0.480213 145.636 0.467787C146.008 0.442935 146.386 0.427406 146.764 0.406696C146.956 0.396341 146.956 0.39633 147.344 0.460532C147.387 0.46778 147.442 0.476065 147.488 0.473994C147.866 0.45639 148.241 0.434651 148.616 0.416012C148.721 0.410835 148.815 0.42533 148.897 0.453289C148.978 0.481247 149.076 0.495743 149.177 0.490565C149.555 0.471926 149.93 0.451223 150.305 0.432584C150.351 0.430513 150.406 0.437761 150.449 0.445009C150.847 0.50921 150.847 0.5092 151.029 0.498845C151.297 0.483312 151.571 0.476072 151.835 0.455362C152.092 0.434652 152.226 0.494706 152.402 0.527842C152.885 0.504025 153.371 0.484356 153.85 0.455362C154.046 0.442936 154.15 0.477104 154.28 0.504027C154.326 0.513347 154.372 0.533023 154.414 0.531988C154.577 0.527846 154.737 0.516457 154.897 0.508173C155.057 0.499889 155.22 0.491606 155.379 0.483322C155.562 0.513352 155.683 0.583765 155.943 0.559948C156.1 0.545451 156.266 0.542345 156.426 0.534061C156.586 0.525777 156.749 0.517494 156.909 0.50921C157.016 0.504032 157.127 0.500921 157.232 0.491602C157.424 0.476069 157.518 0.526815 157.655 0.549596C157.701 0.556844 157.753 0.569262 157.796 0.567191C158.118 0.552694 158.445 0.540269 158.761 0.516453C159.005 0.497814 159.172 0.528883 159.345 0.572374C159.38 0.581693 159.442 0.58687 159.488 0.584799C159.866 0.567196 160.241 0.545444 160.616 0.526805C160.717 0.521628 160.815 0.538195 160.897 0.565118C160.982 0.593077 161.076 0.606548 161.18 0.601371C161.555 0.582732 161.934 0.562016 162.309 0.543377C162.354 0.541306 162.41 0.549591 162.452 0.557875C162.817 0.622076 162.817 0.623113 163.033 0.610687C163.085 0.60758 163.14 0.605501 163.192 0.602395C163.46 0.587898 163.737 0.582727 163.998 0.557875C164.298 0.529917 164.516 0.565125 164.728 0.624149C164.996 0.611723 165.27 0.604473 165.53 0.583763C165.726 0.56823 165.83 0.607577 165.961 0.633465C166.007 0.642784 166.055 0.661423 166.095 0.659352C166.473 0.641749 166.851 0.626222 167.223 0.600334C167.425 0.585837 167.513 0.632426 167.65 0.656243C167.696 0.664527 167.745 0.679032 167.787 0.676961C168.002 0.668677 168.217 0.656244 168.433 0.644854C168.684 0.631392 168.684 0.632427 169.016 0.695592C169.173 0.725622 169.329 0.701804 169.483 0.694556C169.646 0.686272 169.799 0.680061 169.929 0.722517C170.011 0.74944 170.109 0.766008 170.21 0.761866C170.425 0.752547 170.644 0.743232 170.855 0.727699C171.025 0.715273 171.172 0.723553 171.296 0.761866C171.384 0.788789 171.475 0.802259 171.583 0.796046C172.065 0.771194 172.551 0.745297 173.034 0.72148C173.076 0.719409 173.135 0.728732 173.174 0.738052C173.265 0.756691 173.353 0.777396 173.441 0.798106C173.653 0.788787 173.872 0.784655 174.08 0.770158C174.302 0.755661 174.504 0.750482 174.677 0.807435C174.713 0.819861 174.765 0.837455 174.808 0.836419C174.971 0.832277 175.13 0.821925 175.29 0.813641C175.45 0.805357 175.613 0.797074 175.773 0.78879C175.959 0.814678 176.076 0.889233 176.337 0.865416C176.494 0.850919 176.66 0.847813 176.82 0.839529C176.979 0.831245 177.142 0.821926 177.302 0.814678C177.354 0.812607 177.413 0.807426 177.459 0.811568C177.508 0.81571 177.55 0.83021 177.592 0.840565C177.723 0.870595 177.844 0.900628 178.029 0.883024C178.186 0.868527 178.352 0.86542 178.512 0.8561C178.73 0.84471 178.731 0.844712 179.092 0.909948C179.239 0.936872 179.405 0.901666 179.546 0.924447C179.64 0.93998 179.722 0.965861 179.813 0.983465C179.852 0.990714 179.914 0.993815 179.96 0.991745C180.175 0.982425 180.394 0.97311 180.605 0.957577C180.778 0.945151 180.922 0.957576 181.042 0.994854C181.131 1.02178 181.219 1.03317 181.329 1.02696C181.867 0.997967 182.406 0.973107 182.94 0.941006C183.123 0.929615 183.27 0.947223 183.371 0.984502C183.544 1.0487 183.788 0.973113 183.967 1.02489C184.078 1.05699 184.189 1.09427 184.391 1.07874C184.763 1.05181 185.141 1.03731 185.516 1.01867C185.65 1.04663 185.784 1.07459 185.921 1.10255C186.136 1.09116 186.351 1.07976 186.566 1.06941C186.726 1.06112 186.889 1.0518 187.049 1.04456C187.101 1.04249 187.157 1.03834 187.206 1.04352C187.254 1.0487 187.294 1.06216 187.339 1.07252C187.564 1.12326 187.564 1.1243 187.936 1.10359C188.096 1.09427 188.249 1.08805 188.383 1.12947C188.507 1.16779 188.653 1.17503 188.823 1.16364C189.142 1.14293 189.465 1.1274 189.791 1.1129C189.893 1.10773 189.987 1.12533 190.072 1.15225C190.199 1.19471 190.356 1.19057 190.515 1.17918C190.727 1.16468 190.936 1.15019 191.115 1.20817C191.151 1.2206 191.207 1.23819 191.246 1.23716C191.513 1.22887 191.784 1.22267 192.045 1.20299C192.306 1.18332 192.433 1.24752 192.612 1.27858C192.879 1.26512 193.15 1.25166 193.418 1.23819C193.47 1.23509 193.532 1.22577 193.577 1.23095C193.77 1.2527 193.881 1.33036 194.145 1.30654C194.298 1.29308 194.464 1.28894 194.624 1.28584C194.666 1.2848 194.722 1.3024 194.751 1.31586C194.768 1.32311 194.751 1.34278 194.732 1.35313C194.673 1.38213 194.601 1.40906 194.549 1.43909C194.542 1.44323 194.604 1.46186 194.64 1.47015C194.728 1.48878 194.829 1.48569 194.947 1.4774C195.048 1.47015 195.152 1.48465 195.224 1.51571C195.253 1.52814 195.244 1.54885 195.182 1.61719C195.182 1.66793 195.25 1.64515 195.273 1.61201C195.309 1.56438 195.24 1.54884 195.11 1.57473C195.019 1.59337 194.973 1.6203 194.996 1.64204C195.009 1.65343 195.071 1.66793 195.182 1.61719C195.469 1.55506 195.684 1.54368 195.899 1.53229C195.954 1.52918 196.02 1.51882 196.059 1.52503C196.199 1.54988 196.329 1.57992 196.466 1.60788C196.623 1.60166 196.77 1.58612 196.923 1.62651C197.138 1.68346 197.148 1.67828 197.357 1.66689C197.464 1.66068 197.572 1.65551 197.68 1.65033C197.787 1.64516 197.872 1.66069 197.966 1.6845C198.159 1.73317 198.175 1.73317 198.302 1.66689C198.377 1.62651 198.429 1.61305 198.524 1.63169C198.837 1.69486 198.84 1.69899 199.108 1.68036C199.329 1.66482 199.538 1.66068 199.701 1.71971C199.812 1.76113 199.848 1.75181 199.936 1.70832C200.171 1.59338 200.278 1.59544 200.719 1.67828C200.924 1.71763 201.136 1.67518 201.345 1.67C201.521 1.66586 201.645 1.69071 201.658 1.75595C201.668 1.79633 201.697 1.82533 201.814 1.83879C201.86 1.84397 201.915 1.85121 201.961 1.84914C202.232 1.83672 202.499 1.82222 202.77 1.80772C202.907 1.80047 202.982 1.75181 202.956 1.68761C202.926 1.61927 202.978 1.59441 203.174 1.57473C203.291 1.56334 203.386 1.56542 203.481 1.58406C203.585 1.60477 203.556 1.62341 203.464 1.66069C203.246 1.75181 203.272 1.80772 203.552 1.87088C203.65 1.89263 203.728 1.91231 203.751 1.94441C203.764 1.96098 203.751 1.98273 203.781 1.99515C203.94 2.06453 204.162 2.10906 204.41 2.1422C204.648 2.11424 204.811 2.16083 204.994 2.19811C205.137 2.2271 205.307 2.20226 205.46 2.1919C205.633 2.18051 205.776 2.18879 205.9 2.2271C205.988 2.25403 206.079 2.26645 206.187 2.26127C206.402 2.24988 206.621 2.24264 206.833 2.22607C207.015 2.21157 207.152 2.23228 207.266 2.26749C207.41 2.31202 207.57 2.28198 207.72 2.28819C207.922 2.29544 208.023 2.3876 208.287 2.36275C208.444 2.34825 208.607 2.34308 208.77 2.33893C208.812 2.3379 208.864 2.3555 208.9 2.36793C209.073 2.42488 209.275 2.42177 209.497 2.40521C209.65 2.39382 209.8 2.38347 209.95 2.42282C210.198 2.48909 210.472 2.54708 210.733 2.60817C210.769 2.65581 210.743 2.71171 210.928 2.73967C211.026 2.75417 211.118 2.77592 211.193 2.79974C211.284 2.8277 211.369 2.83495 211.486 2.8277C211.698 2.8132 211.92 2.81009 212.128 2.79145C212.321 2.77488 212.441 2.80906 212.559 2.84116C212.653 2.86705 212.742 2.87947 212.856 2.86083C212.973 2.84323 213.058 2.85461 213.152 2.88257C213.286 2.92089 213.296 2.91675 213.739 2.92814C213.785 2.92918 213.84 2.9447 213.866 2.95816C213.88 2.96541 213.85 2.98613 213.827 2.99649C213.798 3.00891 213.752 3.0234 213.71 3.02651C213.227 3.05343 212.742 3.07725 212.259 3.10417C212.21 3.10728 212.158 3.11453 212.122 3.12489C212.083 3.13628 212.034 3.1518 212.034 3.1663C212.034 3.17665 212.099 3.18908 212.145 3.19633C212.288 3.22015 212.458 3.18391 212.598 3.21083C212.693 3.22843 212.771 3.25328 212.865 3.26985C212.904 3.2771 212.967 3.27607 213.015 3.27399C213.178 3.26675 213.338 3.25639 213.501 3.25018C213.547 3.24914 213.599 3.2595 213.641 3.26779C213.955 3.32992 213.955 3.32992 214.225 3.31645C214.333 3.31128 214.447 3.29574 214.548 3.30195C214.646 3.30817 214.731 3.33613 214.819 3.35373C215.001 3.39101 215.174 3.42725 215.187 3.50802C215.194 3.53908 215.301 3.566 215.409 3.56807C215.513 3.57014 215.624 3.55876 215.732 3.55255C215.986 3.54012 215.986 3.54012 216.315 3.60329C216.407 3.62089 216.505 3.62296 216.622 3.61261C216.668 3.60846 216.723 3.61261 216.772 3.61779C216.932 3.63332 216.932 3.65299 216.827 3.69027C216.681 3.74515 216.694 3.75033 217.105 3.79693C217.261 3.81453 217.382 3.84767 217.512 3.87666C217.724 3.92326 217.721 3.92325 217.581 3.98435C217.548 3.99781 217.519 4.01231 217.486 4.02681C217.392 4.06719 217.316 4.11068 217.121 4.11482C216.906 4.11896 216.69 4.13554 216.475 4.14693C216.266 4.15832 216.211 4.18316 216.231 4.25357C216.253 4.33849 216.296 4.34781 216.671 4.34677C216.778 4.34677 216.873 4.35505 216.955 4.38301C216.915 4.41615 216.844 4.44204 216.739 4.44825C216.472 4.46378 216.201 4.47725 215.934 4.49071C215.719 4.5021 215.503 4.51349 215.288 4.52488C215.155 4.53212 215.07 4.58598 215.106 4.64603C215.125 4.68021 215.141 4.71438 215.158 4.74855C215.194 4.81689 215.262 4.8345 215.481 4.83139C215.536 4.83036 215.588 4.82207 215.64 4.82414C215.852 4.83139 215.953 4.91733 216.208 4.89973C216.42 4.88523 216.642 4.88213 216.85 4.86349C217.043 4.84692 217.15 4.88421 217.284 4.91217C217.33 4.92148 217.378 4.94115 217.418 4.94011C217.688 4.92872 217.959 4.91734 218.223 4.89767C218.347 4.88938 218.422 4.89559 218.52 4.92044C218.755 4.9805 218.761 4.9774 219.11 4.95876C219.364 4.94426 219.368 4.94633 219.694 5.0095C219.785 5.0271 219.883 5.0271 220 5.01881C220.153 5.00846 220.313 4.99189 220.473 5.00742C220.522 5.01157 220.584 5.024 220.6 5.03746C220.61 5.04678 220.564 5.06956 220.525 5.07681C220.238 5.13065 219.902 5.12133 219.589 5.14308C219.492 5.14929 219.394 5.12962 219.312 5.10166C219.227 5.0737 219.136 5.06231 219.025 5.06749C218.81 5.07888 218.592 5.08613 218.38 5.10269C218.197 5.11719 218.07 5.09337 217.943 5.06127C217.9 5.05092 217.851 5.03124 217.809 5.03227C217.326 5.05298 216.84 5.0737 216.361 5.10269C216.169 5.11512 216.058 5.08199 215.927 5.05403C215.882 5.04471 215.836 5.02503 215.794 5.02607C215.631 5.03021 215.471 5.0416 215.308 5.04988C214.714 5.08095 214.124 5.11201 213.531 5.14101C213.491 5.14308 213.443 5.12133 213.397 5.11201C213.309 5.09337 213.218 5.07577 213.126 5.05816C212.963 5.06645 212.803 5.0768 212.64 5.08301C212.523 5.08715 212.419 5.10166 212.402 5.14101C212.393 5.16689 212.5 5.19071 212.614 5.18864C212.725 5.18656 212.836 5.17414 212.927 5.1876C213.381 5.25387 213.381 5.25491 213.664 5.24145C213.912 5.22902 213.886 5.21866 214.105 5.27561C214.199 5.30047 214.284 5.31497 214.392 5.30876C214.659 5.29426 214.93 5.27976 215.2 5.26734C215.243 5.26526 215.298 5.27562 215.34 5.28391C215.66 5.34604 215.66 5.3481 215.924 5.33257C216.27 5.31393 216.283 5.30876 216.514 5.37192C216.674 5.41541 216.821 5.38538 216.974 5.38331C217.15 5.4237 217.343 5.45994 217.502 5.50551C217.692 5.55935 217.89 5.55002 218.106 5.53449C218.265 5.5231 218.422 5.51896 218.552 5.56141C218.676 5.60076 218.826 5.60491 218.996 5.59456C219.149 5.58524 219.306 5.56556 219.465 5.58834C219.508 5.59455 219.573 5.61009 219.57 5.61941C219.566 5.63391 219.524 5.65462 219.482 5.66083C219.182 5.70329 218.852 5.70225 218.536 5.72192C218.494 5.72503 218.438 5.71363 218.396 5.70535C218.305 5.68671 218.217 5.66497 218.128 5.6453C217.969 5.65151 217.806 5.65357 217.649 5.666C217.528 5.67532 217.437 5.67429 217.349 5.64944C217.268 5.62666 217.18 5.5987 217.082 5.59145C216.984 5.5842 216.87 5.59973 216.762 5.60595C216.655 5.61216 216.531 5.60905 216.446 5.62561C216.361 5.64218 216.309 5.67843 216.253 5.70742C216.192 5.73952 216.107 5.74989 215.983 5.75299C215.869 5.7561 215.777 5.75195 215.693 5.72296C215.657 5.71053 215.608 5.70121 215.559 5.69292C215.513 5.68568 215.461 5.67428 215.419 5.67635C214.933 5.70017 214.45 5.72607 213.964 5.75092C213.723 5.76335 213.726 5.76334 213.224 5.70224C213.178 5.69706 213.123 5.68982 213.077 5.69189C212.807 5.70431 212.539 5.71881 212.269 5.73331C211.995 5.74781 211.998 5.74574 211.532 5.6805C211.447 5.66807 211.323 5.68464 211.222 5.68257C211.01 5.67739 210.906 5.59042 210.658 5.60698C210.446 5.62148 210.224 5.62458 210.012 5.64322C209.82 5.65979 209.709 5.62355 209.578 5.59559C209.533 5.58627 209.484 5.56556 209.445 5.56763C208.959 5.59041 208.476 5.6163 207.831 5.61941C207.671 5.61941 207.743 5.64116 207.847 5.64841C207.997 5.6598 208.046 5.63805 207.964 5.59663C207.906 5.56764 207.821 5.55313 207.752 5.56038C207.716 5.56452 207.671 5.5842 207.831 5.61941C208 5.65876 207.99 5.6805 208.02 5.69292C208.091 5.72295 208.193 5.73538 208.297 5.73124C208.46 5.72399 208.62 5.71364 208.783 5.70742C208.828 5.70535 208.884 5.7126 208.926 5.72089C209.285 5.78509 209.288 5.78923 209.67 5.76438C209.79 5.75713 209.878 5.75713 209.973 5.77681C210.103 5.80373 210.198 5.84929 210.397 5.83479C210.661 5.81511 210.932 5.80373 211.202 5.79234C211.245 5.79027 211.29 5.80891 211.339 5.81719C211.473 5.84204 211.571 5.88864 211.77 5.86897C211.923 5.85344 212.089 5.84928 212.252 5.84618C212.295 5.84514 212.36 5.86171 212.38 5.87517C212.419 5.89899 212.37 5.92696 212.259 5.94663C212.213 5.95491 212.151 5.95284 212.099 5.95595C211.884 5.96734 211.669 5.97976 211.453 5.98908C211.339 5.99425 211.232 6.00979 211.219 6.04811C211.209 6.074 211.326 6.09677 211.437 6.0947C211.6 6.09159 211.763 6.08331 211.92 6.06985C212.197 6.04707 212.438 6.05328 212.663 6.11851C212.823 6.16408 212.813 6.14752 212.983 6.28213C213.025 6.3163 213.152 6.31941 213.263 6.31734C213.531 6.31216 213.655 6.32769 213.632 6.35979C213.602 6.39914 213.508 6.41156 213.387 6.41674C213.172 6.42502 212.957 6.43849 212.741 6.44988C212.689 6.45299 212.631 6.4592 212.582 6.45713C212.533 6.45505 212.487 6.44263 212.445 6.43331C212.353 6.41364 212.275 6.3836 212.177 6.37635C212.08 6.3691 211.965 6.38464 211.858 6.39085C211.75 6.39603 211.636 6.41156 211.538 6.40431C211.44 6.39707 211.359 6.36601 211.271 6.34737C211.228 6.33805 211.176 6.32354 211.134 6.32458C210.919 6.33286 210.703 6.34633 210.488 6.35669C210.224 6.37015 210.224 6.37015 209.905 6.30595C209.813 6.28731 209.719 6.28835 209.598 6.29663C209.337 6.3132 209.334 6.31008 208.858 6.25003C208.812 6.24381 208.757 6.23657 208.711 6.23967C208.225 6.26349 207.743 6.28937 207.26 6.31423C206.846 6.33597 206.846 6.33598 206.618 6.43953C206.448 6.51616 206.445 6.51615 206.611 6.55136C206.745 6.58035 206.865 6.62281 207.012 6.63834C207.149 6.65284 207.319 6.60624 207.469 6.65387C207.544 6.67769 207.641 6.70358 207.736 6.70772C207.886 6.7129 208.046 6.68286 208.189 6.72843C208.261 6.75121 208.369 6.77503 208.46 6.77607C208.62 6.77814 208.783 6.76156 208.943 6.75431C208.992 6.75224 209.047 6.75225 209.093 6.75742C209.141 6.76364 209.184 6.77607 209.226 6.78642C209.357 6.82163 209.497 6.83819 209.667 6.82059C209.944 6.79159 210.192 6.80609 210.407 6.87236C210.436 6.88168 210.508 6.88272 210.553 6.87858C210.671 6.86823 210.772 6.86719 210.86 6.88686C210.896 6.89515 210.948 6.90964 210.941 6.91896C210.932 6.93449 210.893 6.9552 210.85 6.96038C210.544 6.99558 210.214 6.99973 209.898 7.01837C209.856 7.02044 209.803 7.00697 209.761 6.99765C209.67 6.97902 209.591 6.94796 209.494 6.94071C209.396 6.93346 209.282 6.94692 209.174 6.9521C209.066 6.95728 208.952 6.97281 208.855 6.9666C208.757 6.95935 208.665 6.93346 208.587 6.91068C208.496 6.88479 208.408 6.88169 208.287 6.89204C208.131 6.90551 207.968 6.90757 207.808 6.91482C207.72 6.89515 207.632 6.87339 207.54 6.85475C207.498 6.84544 207.446 6.83405 207.4 6.83509C207.185 6.84337 206.97 6.85579 206.754 6.86718C206.539 6.87857 206.539 6.87858 206.174 6.81438C206.132 6.80713 206.076 6.79885 206.031 6.80092C205.76 6.81335 205.493 6.82887 205.222 6.84129C205.118 6.84647 205.023 6.83197 204.938 6.80402C204.857 6.77606 204.759 6.76053 204.658 6.7657C204.227 6.78745 203.797 6.80816 203.366 6.83405C203.194 6.8444 203.047 6.83509 202.929 6.79781C202.793 6.75535 202.639 6.76571 202.48 6.774C202.118 6.79471 202.114 6.79366 201.883 6.74085C201.837 6.7305 201.791 6.71082 201.749 6.71185C201.374 6.72739 200.996 6.74189 200.624 6.76674C200.428 6.7802 200.324 6.74396 200.194 6.71704C200.148 6.70772 200.099 6.68804 200.06 6.69011C199.789 6.7015 199.519 6.71186 199.254 6.73257C198.99 6.75328 198.889 6.65698 198.69 6.65802C198.42 6.65906 198.152 6.68287 197.885 6.69737C197.67 6.70876 197.454 6.72015 197.239 6.73154C197.024 6.74293 196.809 6.75224 196.594 6.7657C196.479 6.77295 196.395 6.76363 196.3 6.73774C196.18 6.70357 196.036 6.67666 195.906 6.64559C195.707 6.60107 195.707 6.60106 195.465 6.61349C195.413 6.61659 195.358 6.61866 195.306 6.62177C194.911 6.64455 194.911 6.64248 194.409 6.57725C194.386 6.57414 194.327 6.58554 194.304 6.59382C194.236 6.62074 194.174 6.64973 194.112 6.67769C194.024 6.66112 193.916 6.6518 193.858 6.62799C193.691 6.56068 193.431 6.65284 193.261 6.58656C193.199 6.56171 193.091 6.53996 192.994 6.53375C192.892 6.52754 192.778 6.54204 192.674 6.54825C192.403 6.56378 192.403 6.56275 192.172 6.65491C192.054 6.70047 191.885 6.69218 191.732 6.70254C191.572 6.71393 191.419 6.72014 191.285 6.67769C191.164 6.63937 191.018 6.63006 190.845 6.64248C190.633 6.65802 190.414 6.66733 190.199 6.67665C190.153 6.67872 190.098 6.67355 190.052 6.66734C189.553 6.60624 189.553 6.60521 189.312 6.61867C189.204 6.62488 189.094 6.62695 188.989 6.63627C188.813 6.65283 188.679 6.63109 188.552 6.59795C188.51 6.5876 188.461 6.56793 188.419 6.56897C188.203 6.57415 187.991 6.58346 187.779 6.59278C187.616 6.60003 187.453 6.60417 187.297 6.61867C187.036 6.64249 186.909 6.57517 186.729 6.5441C186.462 6.55757 186.191 6.56689 185.924 6.58553C185.8 6.59381 185.719 6.59071 185.624 6.56586C185.503 6.53479 185.392 6.49959 185.197 6.51512C184.936 6.53583 184.662 6.54308 184.395 6.55551C184.215 6.52341 184.085 6.45816 183.827 6.48198C183.671 6.49647 183.504 6.49958 183.345 6.50786C183.129 6.51925 182.914 6.52962 182.699 6.54204C182.467 6.55447 182.471 6.55136 182.115 6.49027C181.91 6.45403 181.698 6.49441 181.489 6.50062C181.326 6.5058 181.245 6.55343 181.284 6.61452C181.323 6.67562 181.235 6.72325 181.085 6.73154C180.71 6.75121 180.332 6.77191 179.957 6.78952C179.911 6.79159 179.855 6.78434 179.813 6.77709C179.412 6.71186 179.412 6.7129 179.233 6.72222C178.965 6.73775 178.691 6.74603 178.427 6.7657C178.245 6.77916 178.111 6.75743 177.994 6.72222C177.902 6.6953 177.817 6.68908 177.7 6.6953C176.409 6.76467 175.117 6.82887 173.829 6.90032C173.637 6.91068 173.526 6.88065 173.396 6.85269C173.35 6.84337 173.308 6.8237 173.262 6.8237C173.154 6.8237 173.047 6.83302 172.939 6.83923C172.457 6.86408 171.974 6.89411 171.488 6.91275C171.283 6.92103 171.227 6.96867 171.139 7.00802C171.071 7.03805 170.992 7.05047 170.872 7.05461C170.754 7.05875 170.67 7.05357 170.578 7.02665C170.461 6.99144 170.327 6.9697 170.145 6.98419C169.933 7.00076 169.717 7.00802 169.499 7.01941C169.388 7.02459 169.303 7.04322 169.267 7.0805C169.261 7.08671 169.329 7.10225 169.368 7.11157C169.499 7.14263 169.623 7.17888 169.77 7.20062C169.92 7.22237 170.083 7.19751 170.239 7.19129C170.295 7.18922 170.347 7.18301 170.399 7.18405C170.448 7.18508 170.507 7.19027 170.542 7.19958C170.712 7.24618 170.891 7.27828 171.126 7.25032C171.328 7.26378 171.433 7.34973 171.69 7.32695C171.847 7.31349 172.01 7.30728 172.173 7.3021C172.215 7.30106 172.261 7.3197 172.307 7.32902C172.437 7.35491 172.541 7.39633 172.737 7.37872C172.946 7.36009 173.167 7.35698 173.379 7.34248C173.497 7.3342 173.582 7.34145 173.673 7.36837C173.79 7.40254 173.924 7.42842 174.107 7.41185C174.263 7.39736 174.429 7.39425 174.589 7.38493C174.798 7.37354 174.798 7.37458 175.17 7.43878C175.212 7.44603 175.267 7.45431 175.313 7.45224C175.584 7.43982 175.851 7.42428 176.122 7.41185C176.226 7.40668 176.327 7.42014 176.399 7.45017C176.428 7.46259 176.419 7.48332 176.428 7.50092C175.89 7.52888 175.352 7.55269 174.817 7.58686C174.615 7.60032 174.524 7.55787 174.39 7.53405C174.345 7.52577 174.296 7.50816 174.253 7.51024C173.875 7.52784 173.5 7.54647 173.125 7.56925C173.008 7.5765 172.92 7.57236 172.832 7.54233C172.607 7.4626 172.333 7.50609 172.078 7.51748C171.883 7.52576 171.821 7.55787 171.844 7.62621C171.873 7.70698 171.99 7.73183 172.29 7.71734C172.398 7.71216 172.505 7.70491 172.613 7.70076C172.717 7.69662 172.812 7.71008 172.897 7.73804C172.978 7.766 173.076 7.7805 173.177 7.77635C173.392 7.76703 173.611 7.75772 173.82 7.74219C173.992 7.72976 174.136 7.74011 174.257 7.77843C174.39 7.82088 174.547 7.81156 174.703 7.80224C175.069 7.78153 175.072 7.78257 175.3 7.83435C175.346 7.8447 175.391 7.86438 175.434 7.86334C175.809 7.84781 176.187 7.83435 176.555 7.8095C176.748 7.79707 176.859 7.8302 176.986 7.85713C177.032 7.86645 177.077 7.88716 177.12 7.88509C177.39 7.8737 177.661 7.8623 177.925 7.84263C178.049 7.83331 178.124 7.83952 178.225 7.86437C178.466 7.92546 178.473 7.92339 178.815 7.90372C178.92 7.89751 179.034 7.88612 179.132 7.8944C179.229 7.90269 179.308 7.93272 179.399 7.95136C179.441 7.95964 179.494 7.97103 179.539 7.96896C179.754 7.96067 179.97 7.94825 180.185 7.93686C180.387 7.92547 180.387 7.92651 180.765 7.99071C180.919 8.01763 181.078 7.99485 181.232 7.98656C181.398 7.97724 181.548 7.97725 181.675 8.01763C181.802 8.05802 181.956 8.05594 182.119 8.04765C182.272 8.03937 182.428 8.0166 182.585 8.04456C182.944 8.10876 182.944 8.10978 183.165 8.09736C183.488 8.07975 183.808 8.06319 184.134 8.04765C184.176 8.04558 184.232 8.05801 184.274 8.0663C184.365 8.08494 184.444 8.116 184.541 8.12324C184.639 8.13153 184.753 8.1191 184.858 8.11289C185.194 8.09322 185.216 8.08597 185.441 8.15431C185.631 8.21023 185.865 8.12946 186.041 8.19366C186.143 8.22991 186.279 8.2589 186.469 8.24129C186.625 8.2268 186.788 8.22265 186.951 8.21437C187.209 8.20091 187.209 8.20195 187.535 8.26408C187.577 8.27237 187.633 8.28271 187.675 8.28064C187.89 8.27236 188.109 8.26511 188.318 8.24648C188.562 8.22473 188.719 8.26408 188.901 8.3024C189.045 8.33243 189.214 8.30757 189.368 8.29721C189.534 8.28686 189.684 8.28996 189.808 8.33034C189.938 8.37176 190.091 8.36659 190.254 8.3583C190.408 8.35106 190.564 8.32724 190.721 8.35623C191.057 8.42043 191.057 8.42043 191.301 8.40801C191.516 8.39662 191.732 8.3842 191.947 8.37591C191.989 8.37384 192.041 8.3873 192.084 8.39662C192.175 8.41526 192.253 8.44633 192.351 8.45358C192.449 8.46082 192.563 8.44736 192.671 8.44219C192.778 8.43701 192.892 8.42148 192.99 8.42769C193.088 8.4339 193.179 8.45979 193.258 8.48257C193.349 8.5095 193.434 8.5126 193.558 8.50224C193.714 8.48878 193.877 8.48567 194.037 8.47843C194.125 8.4981 194.216 8.51777 194.301 8.53952C194.389 8.5623 194.484 8.56023 194.604 8.55298C195.006 8.52813 195.009 8.53124 195.345 8.59544C195.498 8.62443 195.658 8.60061 195.811 8.59337C195.974 8.58508 196.127 8.58094 196.254 8.62236C196.378 8.66171 196.532 8.66688 196.695 8.65446C196.799 8.64617 196.91 8.641 197.018 8.6379C197.066 8.63686 197.125 8.641 197.161 8.64929C197.334 8.69278 197.503 8.73213 197.741 8.70417C197.95 8.71246 198.054 8.79737 198.306 8.7808C198.518 8.7663 198.739 8.76318 198.948 8.74454C199.14 8.72798 199.277 8.75698 199.375 8.79322C199.551 8.85742 199.799 8.77044 199.975 8.83361C200.076 8.86985 200.207 8.89884 200.402 8.88331C200.618 8.86674 200.686 8.88848 200.748 8.95372C200.784 8.991 200.777 9.02103 200.712 9.05003C200.647 9.08006 200.575 9.07488 200.471 9.04071C200.35 9.0024 200.207 8.99514 200.034 9.00342C199.864 9.0117 199.76 8.95787 199.62 8.93716C199.479 8.91541 199.313 8.95166 199.166 8.9237C198.821 8.85846 198.821 8.85846 198.586 8.87089C198.426 8.87917 198.26 8.88331 198.103 8.89781C197.918 8.91541 197.797 8.88331 197.67 8.85431C197.624 8.84396 197.578 8.82428 197.539 8.82532C197.164 8.84085 196.786 8.85535 196.414 8.88124C196.219 8.8947 196.114 8.85742 195.984 8.83154C195.938 8.82222 195.889 8.80358 195.85 8.80565C195.527 8.82015 195.208 8.83878 194.885 8.85639C194.823 8.88435 194.754 8.91126 194.696 8.94129C194.634 8.97236 194.549 8.98582 194.425 8.98479C194.22 8.98479 194.017 9.02828 193.812 8.9734C193.6 8.91748 193.584 8.92059 193.378 8.93405C193.118 8.95165 192.84 8.94751 192.596 8.9879C192.553 8.99515 192.508 9.01481 192.508 9.02931C192.504 9.03863 192.573 9.05209 192.615 9.06038C192.759 9.08523 192.925 9.04899 193.069 9.07488C193.163 9.09144 193.241 9.11629 193.336 9.13389C193.375 9.14114 193.434 9.14011 193.486 9.13908C193.541 9.13804 193.594 9.1308 193.646 9.13183C193.695 9.13287 193.747 9.13907 193.786 9.14839C193.965 9.18774 194.154 9.22399 194.314 9.27059C194.471 9.31615 194.617 9.28508 194.774 9.28301C195.4 9.3555 195.4 9.35653 195.821 9.33375C195.925 9.32857 196.033 9.32236 196.14 9.3234C196.186 9.3234 196.228 9.34203 196.274 9.35238C196.404 9.38345 196.528 9.41141 196.711 9.39484C196.868 9.38035 197.034 9.37724 197.194 9.36792C197.409 9.35653 197.409 9.35653 197.774 9.42177C197.865 9.43834 197.963 9.43627 198.081 9.42799C198.182 9.42074 198.286 9.43627 198.358 9.4663C198.387 9.47873 198.377 9.49943 198.387 9.51704C198.064 9.53361 197.738 9.545 197.425 9.56985C197.223 9.58538 197.132 9.54085 196.998 9.51704C196.952 9.50875 196.903 9.49115 196.861 9.49322C196.541 9.50876 196.222 9.52635 195.902 9.54706C195.863 9.54913 195.814 9.57295 195.811 9.58745C195.805 9.61437 195.886 9.64026 196.003 9.63922C196.16 9.63818 196.313 9.62058 196.453 9.66303C196.571 9.70031 196.717 9.71689 196.89 9.70032C196.995 9.691 197.106 9.691 197.21 9.68272C197.487 9.65786 197.738 9.66304 197.947 9.73345C198.107 9.75209 198.263 9.73449 198.416 9.72517C198.531 9.71793 198.641 9.71067 198.723 9.73034C198.896 9.77176 199.065 9.81319 199.303 9.78523C199.561 9.81422 199.757 9.87532 199.972 9.92502C200.073 9.94884 200.151 9.96231 200.269 9.94677C200.318 9.94056 200.376 9.94055 200.428 9.93744C200.536 9.93227 200.65 9.91673 200.748 9.92295C200.846 9.93019 200.927 9.96023 201.015 9.97887C201.058 9.98819 201.107 10.0037 201.149 10.0027C201.312 9.9975 201.472 9.98715 201.632 9.97887C201.791 9.97162 201.951 9.96437 202.111 9.95713C202.245 9.98405 202.382 10.011 202.515 10.0379C202.731 10.0265 202.946 10.0151 203.158 10.0048C203.396 9.99233 203.396 9.99337 203.738 10.0576C203.891 10.0866 204.055 10.0679 204.201 10.0545C204.446 10.0327 204.609 10.0721 204.782 10.1135C204.818 10.1218 204.883 10.1269 204.925 10.1228C205.095 10.1083 205.241 10.1197 205.365 10.158C205.453 10.1849 205.541 10.1974 205.649 10.1922C206.024 10.1725 206.399 10.1518 206.774 10.1342C206.82 10.1321 206.872 10.1414 206.914 10.1497C207.247 10.2129 207.25 10.216 207.495 10.1994C207.713 10.1849 207.915 10.1787 208.088 10.2357C208.124 10.2481 208.179 10.2657 208.219 10.2647C208.486 10.2543 208.757 10.2429 209.021 10.2253C209.142 10.217 209.226 10.2201 209.321 10.244C209.441 10.274 209.549 10.3102 209.748 10.2968C210.299 10.2585 210.302 10.2647 210.955 10.3361C211 10.3413 211.062 10.333 211.114 10.3289C211.225 10.3185 211.307 10.333 211.404 10.3568C211.623 10.4107 211.63 10.4076 211.838 10.3962C211.998 10.3869 212.164 10.3848 212.321 10.3693C212.562 10.3465 212.722 10.3869 212.901 10.4252C213.045 10.4552 213.211 10.4303 213.364 10.421C213.531 10.4107 213.681 10.4138 213.805 10.4531C213.889 10.48 213.981 10.4946 214.088 10.4894C214.463 10.4707 214.838 10.45 215.213 10.4314C215.259 10.4293 215.314 10.4376 215.357 10.4448C215.728 10.509 215.728 10.5122 216.097 10.4883C216.214 10.4811 216.312 10.479 216.4 10.5008C216.485 10.5215 216.576 10.5411 216.664 10.5608C216.824 10.5536 216.987 10.5515 217.144 10.5391C217.264 10.5298 217.349 10.5339 217.444 10.5556C217.568 10.5836 217.672 10.6323 217.868 10.6084C217.969 10.5971 218.086 10.6002 218.187 10.5898C218.308 10.5764 218.389 10.5846 218.484 10.6116C218.601 10.6437 218.722 10.6768 218.911 10.6602C219.12 10.6416 219.341 10.6385 219.553 10.624C219.671 10.6157 219.752 10.624 219.847 10.6509C219.964 10.6851 220.098 10.7068 220.281 10.6934C220.652 10.6675 220.656 10.6726 221.018 10.7379C221.109 10.7545 221.207 10.7524 221.324 10.7441C221.425 10.7369 221.53 10.7524 221.601 10.7824C221.67 10.8156 221.663 10.8363 221.67 10.8539ZM192.612 1.51468C192.504 1.51986 192.397 1.52607 192.24 1.43598C192.231 1.42045 192.237 1.40181 192.214 1.38835C192.162 1.36039 192.081 1.34072 191.983 1.33761C191.807 1.33347 191.595 1.36867 191.598 1.39559C191.601 1.41837 191.657 1.43804 191.764 1.45668C191.81 1.46393 191.846 1.47636 191.888 1.48464C192.012 1.50846 192.11 1.55507 192.289 1.53125C192.257 1.46705 192.273 1.49915 192.289 1.53125C192.273 1.5706 192.322 1.59856 192.439 1.60995C192.472 1.61306 192.521 1.61098 192.547 1.60477C192.648 1.58198 192.664 1.55093 192.589 1.46912C192.576 1.48258 192.586 1.50639 192.615 1.5126C192.645 1.51882 192.716 1.51365 192.752 1.5064C192.844 1.48672 192.889 1.46083 192.866 1.43909C192.853 1.4277 192.791 1.4132 192.752 1.4132C192.684 1.4132 192.622 1.43598 192.612 1.51468ZM218.98 13.5234C218.741 13.5431 218.468 13.5358 218.23 13.5762C218.187 13.5834 218.145 13.6021 218.142 13.6166C218.138 13.6259 218.204 13.6394 218.243 13.6466C218.331 13.6632 218.428 13.658 218.543 13.6528C218.715 13.6456 218.817 13.6932 218.95 13.717C218.993 13.7243 219.048 13.7295 219.094 13.7274C219.358 13.715 219.619 13.7015 219.883 13.687C219.928 13.6839 219.977 13.6766 220.017 13.6673C220.147 13.6373 220.134 13.6176 220.007 13.5948C219.867 13.57 219.756 13.5286 219.612 13.5089C219.407 13.4809 219.198 13.5182 218.98 13.5234ZM200.461 14.2793C200.301 14.2876 200.145 14.2959 199.985 14.3042C199.933 14.3073 199.877 14.3083 199.828 14.3124C199.727 14.3197 199.652 14.3414 199.603 14.3756C199.678 14.4025 199.77 14.4181 199.871 14.415C200.031 14.4087 200.187 14.3953 200.347 14.3922C200.52 14.388 200.621 14.4346 200.754 14.4584C200.797 14.4657 200.849 14.4667 200.898 14.4678C201.139 14.4719 201.286 14.4181 201.24 14.3425C201.208 14.2835 201.084 14.2482 200.934 14.2555C200.777 14.2627 200.618 14.271 200.461 14.2793ZM220.095 11.9929C220.134 11.9753 220.176 11.9629 220.196 11.9474C220.255 11.8945 220.232 11.8552 220.124 11.8138C219.994 11.763 219.834 11.7972 219.687 11.8024C219.651 11.8034 219.612 11.8252 219.593 11.8386C219.58 11.8479 219.58 11.8676 219.599 11.8728C219.759 11.9142 219.928 11.9525 220.095 11.9929ZM191.807 8.93405C191.65 8.94233 191.49 8.94855 191.334 8.95994C191.295 8.96304 191.259 8.98272 191.236 8.99618C191.194 9.02103 191.239 9.0552 191.373 9.0583C191.526 9.06245 191.686 9.04485 191.846 9.03656C192.048 9.02621 192.169 8.98789 192.094 8.95475C192.022 8.92265 191.924 8.91645 191.807 8.93405ZM20.1571 6.72118C20.2614 6.71601 20.369 6.71186 20.4734 6.70461C20.5712 6.69736 20.6462 6.67458 20.6951 6.64041C20.6136 6.61349 20.5223 6.59899 20.4212 6.6021C20.2614 6.60831 20.1049 6.61659 19.9484 6.62695C19.8506 6.63316 19.756 6.65594 19.7332 6.69115C19.7104 6.71807 19.9288 6.73361 20.1571 6.72118ZM178.016 6.56171C178.059 6.57103 178.101 6.58967 178.144 6.58967C178.248 6.58967 178.356 6.58346 178.453 6.5731C178.496 6.56896 178.528 6.55032 178.548 6.53582C178.561 6.52651 178.558 6.50994 178.538 6.50166C178.444 6.45195 178.065 6.46956 178.003 6.52651C177.997 6.53686 178.013 6.55032 178.016 6.56171ZM167.728 0.891304C167.738 0.907872 167.741 0.924438 167.754 0.941006C167.78 0.972071 167.852 0.994857 167.957 1.01039C168.038 0.984502 168.08 0.955512 168.077 0.924447C168.074 0.907879 168.064 0.8913 168.051 0.874732C168.025 0.843667 167.953 0.820894 167.849 0.805362C167.767 0.830214 167.728 0.859203 167.728 0.891304ZM227.631 14.4595C227.601 14.4729 227.572 14.4864 227.539 14.4988C227.627 14.5289 227.709 14.5382 227.771 14.5216C227.81 14.5113 227.833 14.4957 227.862 14.4823C227.774 14.4522 227.696 14.444 227.631 14.4595ZM225.602 14.6003C225.645 14.6096 225.684 14.6221 225.73 14.6283C225.805 14.6386 225.873 14.621 225.925 14.5837C225.883 14.5744 225.844 14.562 225.798 14.5558C225.723 14.5454 225.655 14.563 225.602 14.6003ZM226.887 14.4108C226.864 14.4357 226.91 14.4564 227.031 14.474C227.06 14.4605 227.099 14.4481 227.119 14.4336C227.151 14.4098 227.096 14.388 226.978 14.3715C226.946 14.3839 226.917 14.3974 226.887 14.4108ZM220.003 13.2945C219.981 13.3194 220.026 13.3401 220.147 13.3577C220.176 13.3442 220.215 13.3318 220.235 13.3173C220.268 13.2935 220.212 13.2718 220.095 13.2552C220.062 13.2676 220.033 13.2811 220.003 13.2945ZM210.625 5.96734C210.596 5.9808 210.566 5.99426 210.534 6.00668C210.622 6.03671 210.703 6.04603 210.765 6.02946C210.805 6.01911 210.827 6.00357 210.857 5.99011C210.769 5.96008 210.69 5.9518 210.625 5.96734ZM201.641 2.08006C201.72 2.08731 201.785 2.07282 201.84 2.0345C201.798 2.02518 201.759 2.01275 201.713 2.00654C201.638 1.99619 201.57 2.0138 201.518 2.05107C201.56 2.06143 201.602 2.07074 201.641 2.08006ZM196.871 1.83672C196.841 1.85018 196.812 1.86364 196.779 1.87607C196.868 1.9061 196.949 1.91541 197.011 1.89885C197.05 1.88849 197.073 1.87296 197.102 1.8595C197.014 1.82947 196.936 1.82222 196.871 1.83672ZM164.52 0.890267C164.49 0.903729 164.461 0.917191 164.428 0.929617C164.516 0.959646 164.598 0.968963 164.66 0.952395C164.699 0.94204 164.722 0.926507 164.751 0.913045C164.663 0.883016 164.585 0.87577 164.52 0.890267ZM3.43525 9.31511C3.39285 9.30579 3.3505 9.29648 3.31137 9.28612C3.2168 9.31408 3.18747 9.33996 3.23964 9.35964C3.27225 9.37207 3.32112 9.37932 3.36352 9.38864C3.46134 9.36068 3.48416 9.33582 3.43525 9.31511Z" fill="#FFE492"/>
<path d="M22.3517 5.6589C21.9767 5.67858 21.605 5.70342 21.23 5.71585C21.0311 5.72206 20.9594 5.76659 20.8778 5.80801C20.8126 5.84114 20.7376 5.8515 20.617 5.85771C19.5996 5.90845 18.5854 5.9623 17.5713 6.01511C17.4441 6.00165 17.3821 5.9799 17.4115 5.95402C17.4278 5.93848 17.4669 5.91674 17.5061 5.91467C18.2006 5.87635 18.8919 5.837 19.5897 5.80697C19.7886 5.79869 19.8441 5.75312 19.9452 5.71585C19.9778 5.70342 20.0039 5.68478 20.0463 5.67753C20.0887 5.66925 20.1506 5.67029 20.2061 5.66822C21.3278 5.60919 22.4496 5.55121 23.5713 5.49219C23.6985 5.50565 23.7605 5.52739 23.7311 5.55328C23.7148 5.56881 23.6757 5.59056 23.6365 5.59263C23.2061 5.61437 22.7789 5.63612 22.3517 5.6589Z" fill="#FFE492"/>
<path d="M221.672 10.8541C222.083 10.8323 222.497 10.8137 222.908 10.7888C223.077 10.7785 223.211 10.7899 223.328 10.8251C223.456 10.8634 223.599 10.8603 223.756 10.853C223.853 10.8489 223.948 10.8654 224.013 10.8944C224.039 10.9058 224.033 10.9265 224.043 10.9431C223.684 10.9618 223.322 10.9814 222.96 10.998C222.918 11.0001 222.865 10.9897 222.826 10.9814C222.738 10.9638 222.663 10.9328 222.569 10.9265C222.366 10.912 222.164 10.94 221.959 10.9452C221.861 10.9472 221.766 10.9317 221.701 10.9038C221.675 10.8903 221.682 10.8706 221.672 10.8541Z" fill="#FFE492"/>
<path d="M73.1855 1.95109C73.6127 1.92831 74.0399 1.90657 74.467 1.88379C74.5942 1.89829 74.6529 1.91899 74.6268 1.94488C74.6105 1.96041 74.5714 1.98216 74.5322 1.98423C73.6779 2.03083 72.8236 2.07535 71.9725 2.11987C71.8453 2.10538 71.7866 2.08467 71.8127 2.05878C71.829 2.04325 71.8682 2.0215 71.9073 2.01943C72.3312 1.99562 72.7584 1.97387 73.1855 1.95109Z" fill="#FFE492"/>
<path d="M7.36201 7.7047C7.16962 7.70678 6.96749 7.74509 6.75227 7.71609C6.70988 7.71092 6.65117 7.69434 6.65443 7.68502C6.66095 7.66949 6.70009 7.64981 6.74248 7.6436C6.92835 7.61771 7.15989 7.61461 7.25446 7.54212C7.30011 7.50485 7.38489 7.49243 7.49902 7.48518C7.61968 7.47689 7.70443 7.47999 7.799 7.50174C7.92291 7.5297 8.02728 7.58147 8.22293 7.55455C8.23271 7.57112 8.25548 7.58976 8.2457 7.60529C8.23592 7.62082 8.1936 7.63532 8.15447 7.64671C8.1186 7.65707 8.06963 7.66638 8.02398 7.66949C7.80876 7.68191 7.59354 7.69228 7.36201 7.7047Z" fill="#FFE492"/>
<path d="M176.948 7.49702C177.108 7.48874 177.274 7.48459 177.431 7.4701C177.555 7.4587 177.633 7.46595 177.731 7.4908C177.897 7.53429 177.907 7.53016 178.315 7.53637C178.36 7.5374 178.416 7.55293 178.442 7.56639C178.458 7.57364 178.435 7.59332 178.416 7.60368C178.386 7.61714 178.344 7.63474 178.305 7.63474C178.047 7.63784 177.786 7.69894 177.535 7.62853C177.408 7.59332 177.268 7.57675 177.095 7.59228C176.991 7.6016 176.88 7.60574 176.772 7.60989C176.668 7.61403 176.56 7.60264 176.495 7.57157C176.401 7.52601 176.456 7.50841 176.626 7.51152C176.733 7.51359 176.841 7.5022 176.948 7.49702Z" fill="#FFE492"/>
<path d="M132.529 0.540298C132.741 0.528907 132.953 0.511312 133.165 0.510277C133.288 0.509241 133.35 0.543406 133.321 0.568258C133.305 0.583791 133.266 0.605537 133.226 0.607608C132.803 0.63246 132.379 0.653174 131.955 0.675955C131.831 0.661458 131.769 0.639716 131.798 0.614864C131.815 0.599331 131.854 0.578621 131.893 0.575514C132.105 0.561017 132.317 0.551688 132.529 0.540298Z" fill="#FFE492"/>
<path d="M182.349 7.63686C182.453 7.63168 182.561 7.61822 182.662 7.62236C182.77 7.62754 182.838 7.65757 182.871 7.6876C182.907 7.72177 182.903 7.75388 182.871 7.78287C182.819 7.83257 182.766 7.8305 182.646 7.79737C182.46 7.74559 182.447 7.7518 182.078 7.75387C182.036 7.75387 181.984 7.73834 181.951 7.72488C181.902 7.70417 181.928 7.67207 182.043 7.65343C182.127 7.63997 182.245 7.64204 182.349 7.63686Z" fill="#FFE492"/>
<path d="M224.341 10.9236C224.494 10.9153 224.648 10.9019 224.801 10.9019C224.909 10.9009 224.993 10.9247 225.003 10.9506C225.006 10.963 224.958 10.9837 224.918 10.9899C224.733 11.0179 224.524 11.0199 224.322 11.0293C224.227 11.0334 224.123 11.0168 224.064 10.9878C223.976 10.9443 224.028 10.9247 224.188 10.9309C224.237 10.9329 224.289 10.9267 224.341 10.9236Z" fill="#FFE492"/>
<path d="M200.223 9.65344C199.995 9.66587 199.779 9.65034 199.796 9.62342C199.819 9.58821 199.913 9.56542 200.011 9.55921C200.168 9.54885 200.324 9.54057 200.484 9.53436C200.585 9.53021 200.676 9.54575 200.758 9.57267C200.709 9.6058 200.634 9.62962 200.536 9.63687C200.435 9.64412 200.327 9.64826 200.223 9.65344Z" fill="#FFE492"/>
<path d="M198.722 9.52177C198.875 9.51349 199.029 9.50003 199.182 9.50003C199.289 9.499 199.374 9.52281 199.384 9.5487C199.387 9.56112 199.338 9.58183 199.299 9.58805C199.113 9.61601 198.905 9.61808 198.702 9.6274C198.608 9.63154 198.504 9.61497 198.445 9.58597C198.357 9.54248 198.409 9.52282 198.569 9.52903C198.618 9.5311 198.67 9.52488 198.722 9.52177Z" fill="#FFE492"/>
<path d="M180.496 7.62829C180.649 7.62001 180.802 7.60654 180.955 7.6055C181.063 7.60447 181.148 7.62829 181.157 7.65418C181.161 7.66661 181.112 7.68628 181.073 7.69353C180.887 7.72149 180.678 7.72356 180.476 7.73288C180.381 7.73702 180.277 7.72045 180.218 7.69146C180.13 7.64796 180.182 7.62829 180.342 7.6345C180.391 7.63657 180.443 7.63036 180.496 7.62829Z" fill="#FFE492"/>
<path d="M179.634 7.56668C179.797 7.5584 179.849 7.55322 179.901 7.55322C179.999 7.55322 180.1 7.56565 180.159 7.59568C180.247 7.63917 180.195 7.6516 180.035 7.65368C179.829 7.65575 179.627 7.67749 179.422 7.68164C179.314 7.68371 179.229 7.65885 179.223 7.63296C179.22 7.62053 179.268 7.59879 179.308 7.59465C179.445 7.57911 179.595 7.56979 179.634 7.56668Z" fill="#FFE492"/>
<path d="M197.4 1.47504C197.296 1.48022 197.185 1.49472 197.087 1.48954C196.957 1.48229 196.905 1.45434 196.937 1.42845C196.957 1.41395 196.993 1.39324 197.032 1.39014C197.24 1.37564 197.452 1.36631 197.661 1.35596C197.785 1.37149 197.84 1.39323 197.808 1.41912C197.788 1.43362 197.752 1.45329 197.713 1.45743C197.612 1.46779 197.505 1.46986 197.4 1.47504Z" fill="#FFE492"/>
<path d="M70.8536 2.07232C70.9547 2.07129 71.0459 2.08475 71.1242 2.11063C71.0753 2.14377 71.0035 2.16552 70.9057 2.17483C70.8568 2.17898 70.8014 2.18208 70.7492 2.18311C70.6481 2.18519 70.5568 2.17069 70.4785 2.1448C70.5274 2.11167 70.6024 2.08992 70.697 2.0806C70.7459 2.07646 70.8014 2.07543 70.8536 2.07232Z" fill="#FFE492"/>
<path d="M183.279 7.76155C183.275 7.75016 183.259 7.7367 183.269 7.72634C183.331 7.66939 183.706 7.65179 183.804 7.70149C183.82 7.71081 183.826 7.72634 183.813 7.73566C183.794 7.75016 183.758 7.76879 183.719 7.77294C183.618 7.78329 183.513 7.78847 183.409 7.78951C183.363 7.78951 183.321 7.7719 183.279 7.76155Z" fill="#FFE492"/>
<path d="M8.51624 7.53931C8.13146 7.56105 8.12494 7.55897 8.19342 7.5072C8.25537 7.4606 8.36952 7.43265 8.53582 7.43265C8.58474 7.43265 8.63689 7.43058 8.67928 7.43472C8.72494 7.4399 8.79019 7.45024 8.79997 7.46267C8.81954 7.48648 8.76405 7.51237 8.66623 7.52998C8.62384 7.53826 8.56841 7.5362 8.51624 7.53931Z" fill="#FFE492"/>
<path d="M75.6587 1.92682C75.5446 1.94442 75.4468 1.93821 75.3751 1.90508C75.3033 1.87194 75.4175 1.83259 75.6164 1.82327C75.6685 1.8212 75.724 1.81292 75.7729 1.81706C75.8218 1.82017 75.8708 1.83258 75.9001 1.84501C75.9523 1.86572 75.9197 1.89369 75.8153 1.9175C75.7729 1.92682 75.7109 1.92475 75.6587 1.92682Z" fill="#FFE492"/>
<path d="M13.6953 19.3271C13.6953 19.3147 13.7403 19.2951 13.7757 19.2909C13.8433 19.2837 13.9269 19.2982 13.9847 19.3271C14.0652 19.3686 14.017 19.3903 13.869 19.3789C13.7661 19.3706 13.6953 19.3499 13.6953 19.3271Z" fill="#FFE492"/>
<path d="M184.612 6.79819C184.654 6.80751 184.696 6.81683 184.735 6.82719C184.68 6.8655 184.612 6.88206 184.541 6.87171C184.496 6.86549 184.458 6.85307 184.416 6.84375C184.471 6.80543 184.535 6.79094 184.612 6.79819Z" fill="#FFE492"/>
<path d="M183.476 6.75132C183.54 6.73579 183.617 6.74408 183.707 6.77411C183.678 6.78757 183.652 6.80311 183.617 6.81346C183.556 6.83003 183.476 6.82174 183.389 6.79067C183.414 6.77824 183.443 6.76478 183.476 6.75132Z" fill="#FFE492"/>
<path d="M182.61 6.7966C182.652 6.80592 182.694 6.81524 182.732 6.8256C182.678 6.86391 182.613 6.88047 182.539 6.87012C182.494 6.8639 182.456 6.85148 182.414 6.84216C182.469 6.80384 182.533 6.78832 182.61 6.7966Z" fill="#FFE492"/>
<path d="M181.985 6.74189C182.033 6.7626 182.007 6.78745 181.914 6.8154C181.872 6.80608 181.824 6.79885 181.792 6.78642C181.74 6.76675 181.766 6.74085 181.862 6.71289C181.901 6.72325 181.943 6.73257 181.985 6.74189Z" fill="#FFE492"/>
</svg>
