<svg width="137" height="21" viewBox="0 0 137 21" fill="none" xmlns="http://www.w3.org/2000/svg">
<path d="M128.897 11.0975C128.709 11.115 128.52 11.1271 128.336 11.1535C128.216 11.17 128.165 11.1216 128.085 11.0964C128.059 11.0876 128.03 11.07 128.005 11.0722C127.819 11.0898 127.633 11.1095 127.447 11.1293C127.39 11.1722 127.354 11.2293 127.267 11.2501C127.182 11.2699 127.081 11.2699 126.986 11.2798C126.861 11.2919 126.736 11.304 126.61 11.3149C126.548 11.3204 126.496 11.3413 126.476 11.3808C126.472 11.3874 126.513 11.4039 126.536 11.4138C126.612 11.4467 126.686 11.4841 126.77 11.5093C126.849 11.5335 126.948 11.494 127.034 11.5247C127.225 11.5939 127.227 11.5928 127.373 11.5796C127.499 11.5675 127.624 11.5544 127.749 11.5456C127.774 11.5434 127.802 11.5599 127.829 11.5686C127.909 11.5928 127.96 11.6477 128.077 11.6269C128.167 11.6104 128.265 11.6071 128.358 11.5983C128.436 11.6302 128.508 11.6664 128.592 11.6917C128.67 11.7158 128.692 11.7345 128.651 11.7663C128.613 11.796 128.56 11.8081 128.489 11.8103C128.427 11.8114 128.364 11.8213 128.301 11.8267C128.269 11.83 128.239 11.8322 128.208 11.8355C128.089 11.8476 128.089 11.8476 127.871 11.7773C127.785 11.7499 127.688 11.7883 127.607 11.7619C127.552 11.7444 127.504 11.718 127.451 11.6994C127.428 11.6917 127.392 11.6906 127.364 11.6928C127.269 11.7004 127.174 11.7059 127.083 11.7202C127.018 11.7301 126.98 11.7609 126.988 11.7916C126.99 11.8037 127.035 11.8213 127.062 11.8224C127.123 11.8246 127.187 11.8092 127.246 11.8169C127.303 11.8246 127.362 11.8465 127.404 11.8707C127.489 11.9212 127.586 11.8762 127.667 11.8894C127.753 11.9036 127.823 11.9476 127.905 11.9739C127.926 11.9805 127.965 11.9695 127.998 11.9662C128.091 11.9585 128.184 11.952 128.277 11.9443C128.355 11.9761 128.438 12.0047 128.508 12.0409C128.635 12.1068 128.772 12.1321 128.937 12.1002C129.03 12.0827 129.121 12.0892 129.195 12.1321C129.271 12.176 129.359 12.1716 129.455 12.1628C129.545 12.1541 129.636 12.1299 129.727 12.1606C129.924 12.2287 129.926 12.232 130.16 12.2057C130.23 12.198 130.283 12.1958 130.336 12.2211C130.385 12.2441 130.439 12.2639 130.49 12.2858C130.583 12.2782 130.678 12.2705 130.771 12.2617C130.89 12.2496 130.957 12.265 130.985 12.3265C131.002 12.3638 131.01 12.3979 131.052 12.4231C131.101 12.4539 131.154 12.4528 131.226 12.444C131.295 12.4363 131.344 12.4242 131.372 12.3847C131.384 12.3682 131.407 12.3528 131.427 12.3397C131.445 12.3298 131.471 12.3144 131.486 12.3166C131.515 12.321 131.553 12.3331 131.562 12.3473C131.655 12.4802 131.655 12.4814 131.75 12.5198C131.854 12.5626 131.963 12.6011 132.058 12.6494C132.143 12.6922 132.228 12.6736 132.321 12.6736C132.392 12.6736 132.437 12.7021 132.431 12.7307C132.428 12.7471 132.401 12.7713 132.378 12.7735C132.192 12.7955 132.004 12.8141 131.817 12.8295C131.794 12.8317 131.765 12.8119 131.739 12.8021C131.686 12.7823 131.638 12.7515 131.581 12.7449C131.524 12.7383 131.458 12.7548 131.395 12.7603C131.333 12.7658 131.266 12.7801 131.209 12.7713C131.152 12.7625 131.107 12.7307 131.054 12.7098C131.029 12.6999 130.995 12.6856 130.974 12.6889C130.835 12.7153 130.733 12.679 130.634 12.6307C130.613 12.6208 130.577 12.6142 130.551 12.6164C130.33 12.6351 130.112 12.6571 129.892 12.6779C129.803 12.6867 129.731 12.6483 129.712 12.5835C129.702 12.5472 129.683 12.511 129.683 12.4748C129.683 12.4089 129.579 12.3726 129.503 12.3803C129.378 12.3913 129.25 12.4001 129.127 12.4165C129.026 12.4297 128.941 12.4165 128.873 12.377C128.793 12.332 128.702 12.3408 128.611 12.3528C128.542 12.3616 128.523 12.3979 128.527 12.489C128.531 12.5626 128.499 12.5857 128.375 12.5978C128.22 12.6131 128.062 12.6285 127.905 12.6406C127.88 12.6428 127.852 12.6241 127.827 12.6142C127.774 12.5945 127.726 12.5626 127.669 12.556C127.612 12.5483 127.546 12.5648 127.483 12.5714C127.421 12.5769 127.354 12.5923 127.297 12.5846C127.24 12.5769 127.193 12.544 127.142 12.5231C127.117 12.5132 127.087 12.4989 127.062 12.5011C126.937 12.5099 126.811 12.5231 126.686 12.5352C126.546 12.5484 126.546 12.5484 126.346 12.4803C126.255 12.4495 126.164 12.4737 126.075 12.4825C125.98 12.4912 125.891 12.4956 125.817 12.4517C125.768 12.4231 125.713 12.4056 125.654 12.4111C125.496 12.4242 125.341 12.4407 125.183 12.4539C125.156 12.4561 125.12 12.4506 125.1 12.4407C124.999 12.3946 124.9 12.3583 124.76 12.3814C124.638 12.4012 124.507 12.4023 124.386 12.4209C124.319 12.4308 124.289 12.466 124.302 12.4934C124.31 12.5077 124.35 12.5242 124.376 12.5242C124.437 12.5253 124.504 12.5088 124.56 12.5154C124.678 12.5286 124.737 12.6208 124.891 12.5956C124.982 12.5802 125.077 12.5747 125.172 12.5703C125.196 12.5692 125.223 12.5901 125.249 12.6011C125.325 12.6307 125.392 12.6692 125.502 12.6494C125.593 12.634 125.69 12.6296 125.783 12.6208C125.931 12.6066 125.931 12.6077 126.123 12.6747C126.214 12.7065 126.305 12.6812 126.394 12.6736C126.46 12.6681 126.523 12.6571 126.576 12.6725C126.658 12.6955 126.717 12.7482 126.817 12.7449C126.912 12.7416 127.005 12.7263 127.1 12.7208C127.159 12.7175 127.214 12.7351 127.261 12.7647C127.311 12.7944 127.364 12.8075 127.428 12.801C127.521 12.7922 127.616 12.7812 127.711 12.7757C127.738 12.7746 127.768 12.7845 127.793 12.7933C127.846 12.813 127.897 12.8361 127.948 12.857C128.041 12.8504 128.136 12.8482 128.227 12.835C128.298 12.8251 128.347 12.8295 128.404 12.8515C128.476 12.8811 128.535 12.9339 128.653 12.9086C128.711 12.8965 128.78 12.8998 128.839 12.8888C128.911 12.8745 128.96 12.88 129.011 12.913C129.108 12.9756 129.23 12.9767 129.355 12.9525C129.491 12.9262 129.594 12.9569 129.696 13.0053C129.805 13.0558 129.805 13.0547 129.888 13.1766C129.913 13.2117 129.983 13.2282 130.042 13.2216C130.141 13.2106 130.226 13.2161 130.298 13.2579C130.374 13.3029 130.465 13.2974 130.558 13.2853C130.682 13.2688 130.805 13.2546 130.905 13.3183C130.955 13.349 131.008 13.3567 131.074 13.349C131.262 13.3292 131.452 13.3172 131.636 13.293C131.748 13.2776 131.813 13.3128 131.889 13.3424C131.991 13.3831 132.103 13.4193 132.103 13.5061C132.103 13.5204 132.13 13.5368 132.152 13.5478C132.202 13.5709 132.255 13.5906 132.306 13.6126C132.382 13.6456 132.456 13.673 132.561 13.6555C132.652 13.6412 132.748 13.6368 132.841 13.6269C132.934 13.617 133.02 13.6115 133.103 13.6533C133.2 13.7005 133.303 13.7455 133.413 13.7807C133.491 13.8059 133.593 13.7631 133.677 13.7971C133.728 13.818 133.777 13.8422 133.832 13.8597C133.855 13.8674 133.891 13.8619 133.921 13.8597C133.984 13.8553 134.049 13.8521 134.109 13.8411C134.18 13.829 134.233 13.8312 134.286 13.8565C134.335 13.8795 134.385 13.9114 134.441 13.918C134.527 13.9278 134.622 13.8839 134.707 13.9344C134.751 13.9597 134.806 13.9839 134.863 13.9915C134.92 13.9992 134.986 13.9827 135.047 13.9838C135.074 13.9838 135.106 14.0014 135.121 14.0157C135.13 14.0234 135.117 14.0443 135.104 14.0552C135.087 14.0684 135.062 14.086 135.037 14.0882C134.85 14.108 134.662 14.1244 134.474 14.1431C134.362 14.1541 134.362 14.1541 134.136 14.0849C134.083 14.0684 134.024 14.0717 133.957 14.0794C133.868 14.0893 133.777 14.108 133.684 14.0882C133.563 14.0135 133.413 14.0069 133.253 14.0355C133.187 14.0475 133.126 14.0476 133.077 14.0267C132.972 13.9849 132.862 13.9465 132.769 13.8971C132.697 13.8586 132.663 13.8554 132.633 13.9081C132.623 13.9245 132.614 13.9421 132.616 13.9575C132.627 14.0124 132.648 14.0662 132.659 14.1211C132.663 14.1365 132.648 14.1541 132.638 14.1706C132.608 14.2167 132.568 14.2134 132.502 14.175C132.435 14.1365 132.356 14.1113 132.249 14.1288C132.158 14.1442 132.059 14.142 131.968 14.1585C131.828 14.1827 131.729 14.1475 131.629 14.1003C131.608 14.0904 131.572 14.0849 131.545 14.0871C131.262 14.1124 130.981 14.1409 130.699 14.1662C130.638 14.1717 130.583 14.1552 130.535 14.1255C130.486 14.0959 130.431 14.0805 130.37 14.086C130.12 14.1091 129.869 14.1299 129.619 14.1585C129.516 14.1706 129.435 14.1563 129.364 14.1178C129.311 14.0893 129.262 14.0805 129.195 14.0838C129.123 14.0871 129.072 14.0981 129.036 14.1299C129.002 14.1607 129.026 14.1793 129.102 14.2035C129.184 14.2299 129.26 14.2639 129.338 14.2947C129.4 14.2903 129.463 14.2815 129.524 14.2826C129.55 14.2826 129.575 14.3024 129.602 14.3133C129.677 14.3452 129.748 14.3771 129.856 14.3595C129.947 14.3441 130.044 14.3408 130.137 14.3309C130.266 14.3188 130.266 14.3188 130.475 14.388C130.528 14.4056 130.585 14.4045 130.653 14.3946C130.712 14.3869 130.773 14.4023 130.814 14.4353C130.831 14.4484 130.826 14.4704 130.79 14.5429C130.79 14.5967 130.83 14.5726 130.843 14.5374C130.864 14.4869 130.824 14.4704 130.748 14.4979C130.695 14.5176 130.668 14.5462 130.682 14.5693C130.689 14.5813 130.725 14.5967 130.79 14.5429C130.957 14.477 131.084 14.4693 131.205 14.4517C131.277 14.4418 131.323 14.4462 131.38 14.4748C131.448 14.5088 131.517 14.5451 131.629 14.5275C131.75 14.5078 131.879 14.5055 132.003 14.4891C132.116 14.4737 132.175 14.522 132.247 14.5506C132.335 14.5846 132.431 14.5462 132.511 14.566C132.595 14.5857 132.654 14.6341 132.75 14.6428C132.891 14.6132 132.98 14.6681 133.086 14.7044C133.17 14.7318 133.268 14.7076 133.358 14.6956C133.458 14.6824 133.542 14.6945 133.612 14.734C133.692 14.779 133.781 14.7692 133.872 14.7593C134.085 14.7373 134.092 14.734 134.216 14.7944C134.305 14.8383 134.39 14.8186 134.479 14.8131C134.557 14.8427 134.633 14.8746 134.715 14.9009C134.736 14.9075 134.776 14.8966 134.808 14.8933C134.901 14.8845 134.996 14.8757 135.089 14.8669C135.151 14.8614 135.218 14.8449 135.275 14.8515C135.332 14.8592 135.379 14.8911 135.43 14.9119C135.482 14.9328 135.535 14.9537 135.584 14.9756C135.66 15.0086 135.732 15.036 135.838 15.0196C135.93 15.0053 136.024 15.0009 136.119 14.991C136.239 14.9789 136.235 14.9822 136.457 15.0481C136.577 15.0844 136.7 15.0404 136.822 15.036C136.882 15.0338 136.941 15.0459 136.983 15.0778C137 15.091 136.994 15.1129 137 15.1316C136.687 15.1613 136.372 15.1865 136.062 15.2228C135.943 15.237 135.88 15.1975 135.816 15.1645C135.709 15.1118 135.569 15.1887 135.468 15.1206C135.408 15.08 135.32 15.0569 135.216 15.0767C135.155 15.0877 135.091 15.0866 135.028 15.0964C134.869 15.1206 134.722 15.1217 134.595 15.0459C134.552 15.0196 134.489 15.0053 134.443 14.98C134.39 14.9526 134.339 14.9372 134.276 14.9427C133.994 14.969 133.713 14.9954 133.432 15.024C133.407 15.0261 133.382 15.0426 133.361 15.0547C133.308 15.0855 133.325 15.1096 133.411 15.1294C133.439 15.136 133.462 15.1503 133.489 15.1612C133.54 15.1821 133.587 15.2151 133.644 15.2228C133.701 15.2304 133.768 15.2151 133.83 15.2096C133.893 15.2041 133.959 15.1876 134.016 15.1942C134.073 15.2019 134.121 15.2337 134.174 15.2535C134.199 15.2634 134.229 15.2799 134.254 15.2788C134.379 15.2722 134.502 15.2601 134.627 15.2502C134.705 15.2799 134.772 15.3227 134.865 15.3326C134.924 15.3392 134.986 15.3271 135.047 15.3293C135.074 15.3304 135.108 15.3469 135.121 15.3611C135.129 15.3699 135.104 15.3919 135.085 15.4029C135.013 15.4446 134.914 15.4369 134.825 15.4501C134.728 15.4644 134.641 15.46 134.567 15.4172C134.517 15.3886 134.462 15.3732 134.402 15.3787C134.244 15.393 134.088 15.4095 133.931 15.4216C133.904 15.4238 133.872 15.4139 133.847 15.4062C133.648 15.3392 133.648 15.337 133.508 15.3513C133.301 15.3721 133.301 15.3721 133.162 15.3139C133.136 15.3029 133.107 15.2821 133.084 15.2832C132.864 15.3007 132.646 15.3183 132.428 15.3436C132.356 15.3513 132.306 15.3513 132.253 15.3227C132.208 15.2985 132.154 15.2711 132.097 15.2645C132.039 15.2579 131.974 15.2744 131.911 15.2799C131.849 15.2854 131.782 15.2996 131.727 15.2909C131.67 15.2821 131.621 15.2513 131.572 15.2294C131.52 15.2063 131.465 15.2074 131.395 15.2162C131.179 15.2414 131.177 15.2381 130.962 15.17C130.938 15.1623 130.906 15.1536 130.879 15.1558C130.721 15.1689 130.566 15.1854 130.408 15.1986C130.347 15.2041 130.289 15.1898 130.247 15.158C130.23 15.1448 130.236 15.1228 130.224 15.08C130.211 15.0701 130.226 15.0877 130.23 15.1041C130.258 15.1019 130.292 15.1041 130.313 15.0953C130.366 15.0745 130.393 15.047 130.38 15.024C130.372 15.0119 130.336 14.9965 130.313 14.9965C130.272 14.9965 130.236 15.0207 130.224 15.08C130.105 15.1162 129.977 15.1239 129.854 15.1415C129.782 15.1525 129.736 15.147 129.679 15.1184C129.611 15.0833 129.541 15.0492 129.429 15.0668C129.307 15.0866 129.178 15.0899 129.053 15.1052C128.909 15.1228 128.846 15.024 128.725 15.0262C128.599 15.0283 128.474 15.047 128.349 15.0602C128.239 15.0712 128.239 15.0712 128.011 14.9998C127.928 14.9734 127.829 15.0119 127.747 14.9844C127.692 14.9668 127.645 14.9405 127.592 14.9218C127.569 14.9141 127.533 14.9141 127.504 14.9163C127.347 14.9295 127.187 14.9383 127.035 14.9625C126.863 14.991 126.732 14.9603 126.608 14.8955C126.453 14.9075 126.295 14.9141 126.142 14.935C126.03 14.9504 125.965 14.9141 125.889 14.8845C125.862 14.8746 125.84 14.8581 125.811 14.8537C125.783 14.8493 125.749 14.8581 125.718 14.8614C125.593 14.8735 125.464 14.879 125.342 14.8988C125.192 14.924 125.136 14.8339 125.02 14.823C124.942 14.8768 124.9 14.9504 124.746 14.9559C124.621 14.9603 124.496 14.9778 124.371 14.9899C124.308 14.9954 124.245 15.002 124.183 15.0075C124.082 15.0174 124.035 15.0602 124.056 15.1261C124.067 15.1623 124.076 15.1986 124.086 15.2348C124.105 15.2996 124.057 15.3546 123.978 15.3622C123.758 15.3831 123.539 15.4051 123.319 15.4237C123.26 15.4292 123.203 15.4106 123.156 15.3809C123.107 15.3513 123.052 15.3381 122.991 15.3436C122.771 15.3644 122.552 15.3864 122.332 15.4051C122.308 15.4073 122.275 15.3963 122.251 15.3875C122.197 15.3677 122.146 15.3447 122.095 15.3238C121.97 15.3337 121.846 15.3403 121.723 15.3534C121.524 15.3732 121.524 15.3743 121.377 15.3139C121.351 15.3029 121.324 15.2821 121.3 15.2832C121.205 15.2876 121.112 15.2985 121.017 15.3084C120.738 15.337 120.738 15.337 120.656 15.304C120.582 15.2733 120.516 15.2359 120.404 15.2535C120.282 15.2733 120.153 15.2799 120.028 15.2909C119.935 15.2985 119.842 15.3073 119.749 15.3095C119.724 15.3106 119.698 15.2898 119.671 15.2788C119.595 15.2447 119.521 15.2173 119.417 15.2359C119.356 15.2469 119.292 15.2491 119.229 15.2546C119.066 15.27 119.066 15.27 118.798 15.2041C118.772 15.1975 118.739 15.1898 118.713 15.1931C118.493 15.2129 118.274 15.2348 118.054 15.2535C118.028 15.2557 117.995 15.2491 117.969 15.2436C117.669 15.1799 117.669 15.1799 117.35 15.2107C117.228 15.2217 117.225 15.2261 117.097 15.1678C117.041 15.1426 116.993 15.1305 116.927 15.1382C116.676 15.1645 116.424 15.1821 116.175 15.2129C116.063 15.2261 115.999 15.1931 115.923 15.1634C115.896 15.1536 115.868 15.1316 115.845 15.1327C115.594 15.1536 115.344 15.1788 115.093 15.1997C115.07 15.2019 115.042 15.1799 115.015 15.17C114.964 15.1503 114.915 15.1206 114.858 15.114C114.799 15.1074 114.734 15.1239 114.67 15.1294C114.512 15.1437 114.512 15.1426 114.33 15.0778C114.306 15.069 114.273 15.0569 114.249 15.0591C113.998 15.0811 113.746 15.0997 113.497 15.1316C113.355 15.1492 113.258 15.1173 113.157 15.0712C113.136 15.0613 113.1 15.0569 113.074 15.0591C112.791 15.0844 112.51 15.1129 112.227 15.1382C112.168 15.1437 112.111 15.125 112.064 15.0964C111.988 15.0514 111.899 15.0569 111.804 15.0668C111.586 15.0899 111.584 15.0888 111.455 15.036C111.428 15.0251 111.405 15.0108 111.377 15.0053C111.35 14.9998 111.316 15.0031 111.288 15.0053C111.162 15.0163 111.037 15.0283 110.912 15.0404C110.787 15.0525 110.659 15.0591 110.536 15.0778C110.384 15.1008 110.312 15.0294 110.206 14.9965C110.05 15.0108 109.891 15.0196 109.737 15.0426C109.619 15.0602 109.564 15.0119 109.487 14.9866C109.46 14.9778 109.431 14.9592 109.407 14.9614C109.124 14.9855 108.841 15.0119 108.56 15.0415C108.492 15.0481 108.446 15.0393 108.389 15.013C108.262 14.9537 108.257 14.9559 108.044 14.9778C107.951 14.9877 107.862 14.9965 107.782 14.9515C107.712 14.9108 107.626 14.9009 107.526 14.9141C107.402 14.9306 107.275 14.9394 107.15 14.9504C107.025 14.9625 106.9 14.9789 106.774 14.9844C106.674 14.9899 106.613 14.9383 106.533 14.9119C106.509 14.9042 106.474 14.9031 106.446 14.9053C106.321 14.9152 106.192 14.9229 106.07 14.9416C105.922 14.9646 105.84 14.9042 105.736 14.8691C105.713 14.8614 105.675 14.8658 105.647 14.8691C105.427 14.8889 105.208 14.9108 104.988 14.9317C104.91 14.902 104.831 14.8735 104.753 14.8438C104.628 14.8548 104.502 14.8669 104.377 14.8779C104.282 14.8867 104.185 14.89 104.096 14.9064C103.98 14.9284 103.923 14.8768 103.846 14.8515C103.819 14.8427 103.791 14.8241 103.766 14.8263C103.608 14.8383 103.451 14.8515 103.295 14.8702C103.147 14.8889 103.088 14.79 102.967 14.7911C102.842 14.7922 102.713 14.8065 102.591 14.8263C102.451 14.8493 102.352 14.8142 102.251 14.7669C102.23 14.7571 102.194 14.7516 102.168 14.7538C102.01 14.767 101.855 14.7834 101.697 14.7966C101.671 14.7988 101.638 14.7933 101.612 14.7867C101.312 14.7219 101.312 14.7208 101.181 14.734C101.088 14.7428 100.993 14.7538 100.898 14.7593C100.871 14.7615 100.839 14.7516 100.814 14.7428C100.617 14.6758 100.617 14.6747 100.475 14.6879C100.349 14.7 100.224 14.712 100.099 14.7241C100.021 14.6945 99.9414 14.6659 99.8636 14.6363C99.7079 14.6505 99.5485 14.6615 99.3948 14.6813C99.3227 14.6901 99.2752 14.6868 99.2202 14.6593C99.1518 14.6264 99.0835 14.5879 98.9696 14.6066C98.8482 14.6264 98.7191 14.6286 98.5957 14.645C98.4477 14.6648 98.3869 14.5649 98.2674 14.566C98.1421 14.5671 98.013 14.5813 97.8916 14.6011C97.7511 14.6242 97.6524 14.589 97.5518 14.5418C97.5309 14.5319 97.4949 14.5264 97.4683 14.5286C97.1229 14.5605 96.7794 14.5923 96.4339 14.6264C96.2213 14.6472 96.2213 14.6483 95.8171 14.5879C95.7886 14.5835 95.7582 14.5791 95.7297 14.5813C95.6044 14.5912 95.4754 14.5989 95.3539 14.6176C95.2059 14.6406 95.1243 14.5813 95.0199 14.5451C94.9971 14.5374 94.961 14.5418 94.9307 14.544C94.8358 14.5517 94.7428 14.5616 94.6479 14.5704C94.5226 14.5824 94.3973 14.5945 94.2721 14.6066C94.1942 14.578 94.1145 14.5484 94.0367 14.5198C93.8811 14.5341 93.7216 14.5418 93.5679 14.5649C93.4502 14.5824 93.3952 14.5363 93.3174 14.5099C93.2908 14.5012 93.2623 14.4825 93.2377 14.4836C92.9548 14.5078 92.6721 14.533 92.3912 14.5638C92.2754 14.5769 92.2222 14.5275 92.1444 14.5023C92.1178 14.4946 92.0875 14.4803 92.0628 14.4825C91.8749 14.4979 91.687 14.5165 91.4991 14.5352C91.3928 14.5462 91.3928 14.5462 91.1612 14.4781C91.1347 14.4704 91.1043 14.4627 91.0777 14.4649C90.4818 14.5198 89.8877 14.578 89.2917 14.633C89.231 14.6384 89.1759 14.622 89.1285 14.5923C89.0791 14.5627 89.0241 14.5473 88.9633 14.5528C88.7128 14.5758 88.4604 14.5967 88.2117 14.6253C88.1092 14.6374 88.0276 14.6231 87.9574 14.5846C87.9042 14.5561 87.8549 14.5451 87.7885 14.5517C87.6632 14.5649 87.538 14.5758 87.4127 14.5879C87.2874 14.6 87.1622 14.6121 87.0369 14.6242C86.9116 14.6363 86.7845 14.6428 86.6611 14.6615C86.5092 14.6846 86.4352 14.6165 86.3308 14.5824C86.1429 14.5989 85.955 14.6154 85.769 14.633C85.5184 14.656 85.2679 14.6813 85.0174 14.7033C84.9946 14.7054 84.9661 14.6857 84.9396 14.6758C84.8618 14.6483 84.8048 14.6099 84.689 14.622C84.1272 14.6802 83.5616 14.7296 82.9979 14.7867C82.8802 14.7988 82.829 14.7516 82.7493 14.7263C82.7227 14.7186 82.6923 14.7033 82.6677 14.7055C82.3545 14.7329 82.0413 14.7637 81.7282 14.7933C81.601 14.8054 81.601 14.8054 81.3884 14.7373C81.3637 14.7296 81.3314 14.7197 81.3049 14.7219C80.8968 14.7593 80.4906 14.7988 80.0826 14.8372C80.0218 14.8427 79.9668 14.8274 79.9175 14.7977C79.87 14.7681 79.813 14.7516 79.7542 14.7571C79.3784 14.7922 79.0007 14.8263 78.6268 14.8647C78.5262 14.8757 78.4427 14.8658 78.3706 14.8263C78.3193 14.7977 78.2681 14.7856 78.2036 14.7922C77.6398 14.846 77.0761 14.8977 76.5124 14.9548C76.4042 14.9658 76.3283 14.9449 76.26 14.9086C76.205 14.8801 76.1575 14.8746 76.0891 14.879C76.017 14.8845 75.9734 14.8965 75.9335 14.9295C75.8823 14.9723 75.85 15.0262 75.7285 15.0294C75.6033 15.0327 75.4761 15.0459 75.3527 15.0646C75.2351 15.0833 75.18 15.0338 75.106 15.0042C75.051 14.9833 74.9997 14.98 74.9295 14.9899C74.865 14.9987 74.8251 15.0174 74.7871 15.0525C74.7036 15.1272 74.696 15.1272 74.5935 15.08C74.5385 15.0547 74.4891 15.0349 74.4284 15.0393C74.1779 15.0613 73.9273 15.0855 73.6768 15.1107C73.5325 15.125 73.5307 15.1272 73.4225 15.0723C73.3693 15.0448 73.3181 15.0316 73.2554 15.0382C72.5665 15.1041 71.8775 15.1678 71.1885 15.237C71.0822 15.248 71.0101 15.2249 70.9342 15.192C70.9095 15.181 70.8848 15.1656 70.8564 15.1612C70.8279 15.1568 70.7956 15.1612 70.7653 15.1634C70.2642 15.2107 69.7612 15.2557 69.262 15.3084C69.1481 15.3205 69.0874 15.2854 69.0096 15.2568C68.9831 15.2469 68.9602 15.2315 68.9318 15.2272C68.9033 15.2239 68.8691 15.2315 68.8388 15.2348C68.3377 15.2821 67.8347 15.3271 67.3356 15.3798C67.216 15.3919 67.1647 15.3458 67.0869 15.3216C67.0603 15.3128 67.0319 15.2963 67.0072 15.2985C66.8497 15.3106 66.6941 15.3271 66.5365 15.3414C66.1607 15.3776 65.7849 15.4117 65.4091 15.449C65.2648 15.4633 65.2022 15.3655 65.0807 15.3699C64.9232 15.3754 64.7675 15.3974 64.61 15.4128C64.4847 15.4248 64.3595 15.4358 64.2342 15.449C64.1108 15.4611 64.1108 15.4611 63.8034 15.3974C63.7768 15.3919 63.7445 15.3842 63.718 15.3864C63.2795 15.427 62.8392 15.4677 62.4027 15.5116C62.3021 15.5215 62.2185 15.516 62.1464 15.4754C62.0952 15.4468 62.042 15.4325 61.9794 15.4391C61.3208 15.5017 60.6641 15.5643 60.0054 15.6258C59.9808 15.628 59.9485 15.6171 59.9238 15.6083C59.8707 15.5885 59.8194 15.5654 59.7682 15.5446C59.7302 15.5698 59.6809 15.5929 59.6562 15.6214C59.6221 15.6599 59.5765 15.6709 59.5044 15.6775C59.4323 15.6841 59.3867 15.6819 59.3298 15.6533C59.2615 15.6182 59.1912 15.5907 59.0792 15.6017C58.3903 15.6709 57.7013 15.7335 57.0123 15.8016C56.8984 15.8126 56.8453 15.7642 56.7656 15.739C56.739 15.7313 56.7086 15.7192 56.6839 15.7214C56.4011 15.7467 56.1202 15.7741 55.8374 15.8005C55.0536 15.8752 54.2697 15.9466 53.4877 16.0256C53.3454 16.0399 53.2486 16.0124 53.148 15.9652C53.1271 15.9553 53.091 15.9498 53.0645 15.952C51.9674 16.0553 50.8704 16.1596 49.7752 16.264C49.7164 16.2695 49.6594 16.2519 49.612 16.2233C49.5626 16.1937 49.5076 16.1794 49.4469 16.1849C48.9458 16.2321 48.4447 16.2793 47.9437 16.3277C47.8184 16.3398 47.8165 16.3408 47.6874 16.2881C47.6608 16.2771 47.6324 16.2563 47.6115 16.2585C47.5678 16.264 47.5261 16.2914 47.4957 16.3288C47.4653 16.3683 47.4179 16.3793 47.3477 16.387C47.2755 16.3947 47.2281 16.3914 47.1731 16.365C47.1028 16.3321 47.0383 16.3002 46.9244 16.3112C45.4838 16.4518 44.0432 16.5869 42.6026 16.7263C42.4869 16.7373 42.4337 16.6912 42.354 16.6659C42.3274 16.6583 42.3009 16.6473 42.2724 16.6451C42.242 16.6429 42.2098 16.6495 42.1794 16.6528C39.8297 16.8757 37.4799 17.0998 35.1302 17.3227C34.9898 17.3359 34.9917 17.3359 34.8379 17.437C34.8189 17.4491 34.7942 17.4655 34.7677 17.4677C34.0483 17.538 33.3271 17.6061 32.6059 17.6742C32.2927 17.7039 31.9795 17.7346 31.6664 17.7632C31.5544 17.7731 31.5544 17.7731 31.2868 17.8917C31.264 17.9016 31.2374 17.9147 31.2108 17.9169C29.9581 18.0367 28.7054 18.1564 27.4508 18.2739C27.3521 18.2827 27.2724 18.3024 27.2269 18.3552C27.1946 18.3925 27.1529 18.4145 27.0902 18.4211C26.2134 18.5045 25.3365 18.5891 24.4577 18.6704C24.3533 18.6803 24.2907 18.711 24.2394 18.7572C24.2223 18.7725 24.2072 18.7901 24.1825 18.8011C24.1597 18.811 24.1255 18.8143 24.0971 18.8176C23.3455 18.8889 22.5939 18.9625 21.8404 19.0306C21.7284 19.0405 21.6828 19.0812 21.6278 19.124C21.6088 19.1383 21.5955 19.158 21.5708 19.1679C21.5461 19.1767 21.5101 19.1767 21.4797 19.1789C20.8534 19.2382 20.2271 19.2986 19.6007 19.3579C19.4792 19.3524 19.4527 19.4161 19.3938 19.4546C19.3729 19.4678 19.3578 19.4853 19.3331 19.4941C19.3065 19.5029 19.2723 19.5018 19.2401 19.504C18.739 19.5512 18.2379 19.6018 17.735 19.6457C17.6192 19.6556 17.5964 19.7116 17.5338 19.75C17.5129 19.7621 17.492 19.7808 17.4674 19.7841C17.1542 19.8159 16.841 19.8456 16.5279 19.8741C16.4235 19.884 16.4235 19.8829 16.2394 19.9917C16.2185 20.0037 16.1938 20.0169 16.1672 20.0202C15.6984 20.0663 15.2277 20.1103 14.757 20.1553C14.6963 20.1608 14.6545 20.1872 14.6241 20.2245C14.5938 20.2618 14.5501 20.286 14.4894 20.2915C14.1136 20.3277 13.7378 20.3651 13.3619 20.398C13.2576 20.4068 13.1892 20.4343 13.1437 20.4837C13.1095 20.5211 13.0678 20.5397 13.0013 20.5463C12.6255 20.5815 12.2497 20.6199 11.872 20.6507C11.762 20.6594 11.705 20.6968 11.6594 20.7429C11.6234 20.7803 11.5816 20.7934 11.5114 20.8C10.8224 20.8637 10.1316 20.9274 9.44448 20.9977C9.3287 21.0098 9.26985 20.9714 9.19393 20.9439C9.08574 20.9055 8.98518 20.8637 8.98518 20.778C8.98518 20.7649 8.9529 20.7495 8.93013 20.7385C8.76121 20.6561 8.7612 20.6561 8.73463 20.5683C8.71944 20.5145 8.70236 20.4595 8.68908 20.4046C8.6644 20.3146 8.60365 20.2915 8.42903 20.308C8.36639 20.3135 8.30376 20.3211 8.24113 20.3255C8.14813 20.3332 8.07791 20.297 8.06083 20.2311C8.05134 20.1948 8.03997 20.1586 8.03048 20.1224C8.12538 20.1136 8.12345 20.1125 8.29048 19.9796C8.3607 19.9236 8.36073 19.9236 8.22598 19.8676C8.17473 19.8467 8.12537 19.8236 8.07033 19.8038C8.04565 19.7951 8.0134 19.7896 7.98682 19.7918C7.82929 19.8049 7.67366 19.8203 7.51802 19.8357C7.26749 19.8599 7.26746 19.8599 7.01312 19.7478C6.99225 19.739 6.95998 19.7226 6.96377 19.7138C6.98465 19.6731 7.03589 19.6556 7.10042 19.6512C7.19532 19.6446 7.28832 19.6336 7.38133 19.6248C7.44396 19.6193 7.50659 19.6127 7.56923 19.6073C7.62806 19.5655 7.68883 19.5249 7.74387 19.482C7.83118 19.4161 7.83115 19.4139 7.71158 19.3678C7.63566 19.3371 7.55404 19.3096 7.47623 19.281C7.38322 19.2898 7.28833 19.2997 7.19532 19.3074C7.07765 19.3173 7.03019 19.2964 6.99982 19.225C6.97325 19.1624 7.00552 19.1086 7.09662 19.0954C7.18963 19.0823 7.27697 19.0735 7.32442 19.0175C7.36997 18.9636 7.44968 18.9428 7.54837 18.9384C7.61101 18.9351 7.67364 18.9274 7.73628 18.9208C7.81789 18.912 7.86156 18.856 7.84447 18.7934C7.83498 18.7528 7.816 18.7187 7.74197 18.7099C7.41362 18.6715 7.4098 18.6726 7.24657 18.5979C7.23139 18.5913 7.22003 18.5715 7.22572 18.5616C7.23521 18.5452 7.2561 18.521 7.27887 18.5177C7.49714 18.4936 7.7154 18.4716 7.93368 18.4551C8.0058 18.4496 8.05895 18.4419 8.08362 18.4013C8.11779 18.3453 8.1026 18.2937 8.03617 18.2552C8.0153 18.2431 7.9811 18.2278 7.95833 18.2289C7.70779 18.2486 7.45916 18.2739 7.20862 18.2937C7.18585 18.2958 7.14411 18.2772 7.13462 18.2629C7.11564 18.2365 7.14409 18.2014 7.21052 18.1893C7.29783 18.1728 7.38704 18.1717 7.44587 18.1168C7.52749 18.0388 7.62807 17.9675 7.71918 17.8928C7.73436 17.8796 7.75907 17.8543 7.75337 17.8521C7.70592 17.828 7.65087 17.8093 7.60152 17.7862C7.51801 17.7478 7.518 17.694 7.53698 17.6424C7.55216 17.6006 7.6091 17.5841 7.67933 17.5841C7.70969 17.5841 7.74765 17.5841 7.77233 17.5743C7.83686 17.5501 7.85774 17.5193 7.82548 17.4963C7.8065 17.4831 7.77235 17.4644 7.74957 17.4666C7.3434 17.5029 6.9353 17.538 6.53102 17.583C6.41145 17.5962 6.35644 17.5545 6.28432 17.5248C6.22928 17.5018 6.178 17.493 6.10967 17.5095C6.04514 17.5248 5.98253 17.5161 5.94267 17.4798C5.9104 17.4502 5.96733 17.4249 6.12107 17.3963C6.14954 17.3908 6.18179 17.3875 6.20267 17.3766C6.42284 17.2579 6.42283 17.2568 6.57467 17.2415C6.72272 17.2272 6.72275 17.2261 6.80057 17.1624C6.83663 17.1327 6.87646 17.1031 6.91062 17.0723C6.92391 17.0602 6.94671 17.0383 6.93912 17.0317C6.89737 16.9976 6.8404 16.99 6.77397 16.9976C6.62593 17.0163 6.45134 17.0009 6.37352 17.1053C6.34315 17.1448 6.2957 17.1558 6.22737 17.1624C5.54029 17.2261 4.85319 17.2942 4.16421 17.3557C4.05223 17.3656 4.00102 17.4062 3.95736 17.4513C3.9194 17.4886 3.87764 17.4996 3.80551 17.5062C3.73339 17.5128 3.67642 17.5161 3.63466 17.4798C3.60999 17.4578 3.63087 17.4271 3.68781 17.3963C3.76943 17.3524 3.75424 17.2975 3.72766 17.2459C3.70868 17.2118 3.64985 17.1877 3.58721 17.1898C3.49421 17.1942 3.40503 17.2063 3.32721 17.1624C3.28166 17.1371 3.22471 17.1195 3.17346 17.0976C3.07476 17.0525 2.97606 17.0064 2.83751 17.0361C2.74261 17.0251 2.67618 16.9856 2.60026 16.9548C2.47309 16.9043 2.4617 16.8966 2.55281 16.8428C2.6553 16.7824 2.57557 16.7033 2.63251 16.644C2.69325 16.5803 2.77679 16.5243 2.85081 16.465C2.86979 16.4496 2.88688 16.4353 2.90586 16.4199C2.8622 16.398 2.82235 16.3705 2.77111 16.3551C2.70468 16.3354 2.67051 16.3112 2.67431 16.2431C2.66102 16.2332 2.66668 16.2585 2.68186 16.2651C2.69894 16.2716 2.74073 16.2662 2.76161 16.2585C2.81475 16.2376 2.8413 16.2101 2.82801 16.1871C2.82042 16.175 2.78438 16.1596 2.76161 16.1596C2.71985 16.1596 2.6838 16.1838 2.67241 16.2431C2.45983 16.2881 2.23963 16.3101 2.01946 16.3277C1.99668 16.3299 1.96823 16.3079 1.94166 16.2969C1.85435 16.2596 1.85434 16.2607 1.59811 16.2497C1.57153 16.2486 1.53549 16.2332 1.5222 16.2178C1.46716 16.1508 1.46908 16.0772 1.4425 16.0059C1.49185 15.9597 1.54116 15.9147 1.59241 15.8697C1.6949 15.7785 1.82779 15.6983 1.90751 15.5984C1.89042 15.5446 1.86764 15.4907 1.95116 15.4468C2.18841 15.3919 2.18652 15.3919 2.25106 15.3392C2.43516 15.1898 2.61736 15.0393 2.80906 14.8922C2.8603 14.8537 2.86031 14.8329 2.76921 14.8164C2.74074 14.812 2.71033 14.8109 2.67996 14.8131C2.58506 14.8208 2.49016 14.8405 2.39716 14.8361C2.30416 14.8328 2.23583 14.7845 2.15991 14.7549C2.08209 14.7241 2.00428 14.6923 1.92646 14.6604C1.83725 14.6637 1.74806 14.6945 1.65886 14.645C1.59053 14.6066 1.50512 14.5791 1.4273 14.5473C1.48614 14.4638 1.59624 14.4001 1.68165 14.3265C1.75947 14.2595 1.76133 14.2606 1.97011 14.209C2.0688 14.1848 2.10297 14.0607 2.01946 14.0245C1.91886 13.9806 1.8126 13.9399 1.71011 13.8982C1.6209 13.9015 1.52981 13.9311 1.4444 13.8817C1.37797 13.8444 1.30204 13.8191 1.19195 13.8334C1.00595 13.8575 0.816154 13.8696 0.628251 13.8894C0.563719 13.896 0.493472 13.8916 0.465002 13.8543C0.446022 13.8279 0.501068 13.7916 0.563702 13.784C0.658603 13.773 0.744004 13.7598 0.791454 13.7049C0.837006 13.65 0.920509 13.6335 1.01921 13.6258C1.04578 13.6236 1.07617 13.6104 1.08945 13.5972C1.15778 13.5335 1.23371 13.4786 1.37985 13.4808C1.44059 13.4589 1.47284 13.4314 1.45386 13.405C1.44247 13.3908 1.40263 13.3721 1.37985 13.3743C1.22232 13.3853 1.06479 13.3963 0.911052 13.416C0.838928 13.4248 0.783856 13.427 0.738304 13.3941C0.706038 13.3721 0.723118 13.3424 0.783854 13.3106C0.836999 13.2831 0.852199 13.2513 0.848403 13.2139C0.838913 13.1272 0.781962 13.1019 0.599753 13.1074C0.468791 13.1118 0.436523 13.0975 0.408053 13.0228C0.400461 13.0052 0.381514 12.9811 0.3948 12.969C0.476414 12.8943 0.529562 12.8021 0.683301 12.7669C0.744037 12.7537 0.808543 12.7537 0.846503 12.7252C0.884463 12.6966 0.918644 12.6637 0.958502 12.6362C1.00785 12.6033 1.04198 12.5725 1.01921 12.5516C0.981245 12.5143 0.920529 12.511 0.850303 12.5242C0.789567 12.5352 0.725037 12.5363 0.662402 12.5429C0.55042 12.5549 0.459336 12.5264 0.44605 12.4781C0.409988 12.3507 0.372017 12.2243 0.339751 12.0969C0.335955 12.0816 0.345419 12.0618 0.360603 12.0486C0.413747 12.0025 0.470709 11.9585 0.525751 11.9135C0.590284 11.8619 0.692793 11.8718 0.780101 11.8619C0.903471 11.8476 0.903429 11.8487 1.06856 11.7433C1.13309 11.7015 1.24508 11.718 1.31151 11.6807C1.33238 11.6686 1.36465 11.6488 1.35896 11.6378C1.35136 11.6236 1.31342 11.6126 1.28495 11.606C1.25838 11.5994 1.22612 11.5961 1.19765 11.5994C0.852216 11.6313 0.508686 11.6653 0.163249 11.6961C0.104411 11.7015 0.0398767 11.6774 0.0189986 11.6433C-0.00187947 11.6115 0.00379601 11.573 0 11.5368C0.0550422 11.4918 0.117652 11.45 0.165102 11.4017C0.201165 11.3644 0.242928 11.3479 0.315052 11.3457C0.409953 11.3424 0.502964 11.3292 0.609253 11.3193C0.806645 11.159 1.00023 10.9909 1.21281 10.8306C1.29822 10.7658 1.27737 10.6999 1.29445 10.6307C1.31154 10.567 1.43869 10.5769 1.5241 10.5582C1.59243 10.5428 1.61518 10.5077 1.58861 10.4835C1.57342 10.4692 1.53928 10.4527 1.51271 10.4527C1.45007 10.4527 1.38744 10.4626 1.3248 10.4681C1.26217 10.4736 1.19005 10.4703 1.1388 10.489C1.08946 10.5066 1.05717 10.5439 1.0249 10.5758C0.988843 10.6109 0.941426 10.623 0.869302 10.6252C0.776299 10.6274 0.683303 10.6373 0.5903 10.645C0.487808 10.6021 0.381497 10.5604 0.282801 10.5154C0.263821 10.5066 0.260005 10.4813 0.261903 10.4648C0.265699 10.422 0.237236 10.3956 0.174602 10.3748C0.121458 10.3572 0.0777997 10.3319 0.0284516 10.31C0.0664117 10.2803 0.108183 10.2518 0.138551 10.2199C0.204981 10.1529 0.288503 10.1046 0.432751 10.1068C0.489691 10.064 0.53523 10.0112 0.609253 9.98158C0.679479 9.95302 0.799059 9.98157 0.852203 9.91677C0.878775 9.88492 0.918655 9.84867 0.969902 9.83549C1.05152 9.81462 1.1578 9.82562 1.20525 9.76411C1.23372 9.72897 1.27546 9.69711 1.3305 9.68832C1.39314 9.67844 1.45765 9.67625 1.50321 9.65538C1.52788 9.6444 1.55446 9.62682 1.55446 9.61144C1.55446 9.60156 1.51653 9.58618 1.48995 9.57959C1.46528 9.5719 1.43298 9.56641 1.40451 9.56861C1.30961 9.5752 1.21661 9.58728 1.1217 9.59387C1.09513 9.59606 1.06477 9.58838 1.0363 9.58179C0.952792 9.56421 0.958475 9.54225 1.0249 9.50271C1.09134 9.46427 1.13881 9.41484 1.19385 9.36981C1.25459 9.36212 1.3305 9.36542 1.37225 9.34455C1.44248 9.3105 1.49182 9.26107 1.54876 9.21824C1.61139 9.21165 1.67592 9.20946 1.73476 9.19738C1.75943 9.19298 1.77083 9.16882 1.79171 9.15454C1.82967 9.12708 1.86196 9.08754 1.91321 9.07436C1.99672 9.05459 2.09921 9.06228 2.14856 9.00187C2.17703 8.96673 2.22066 8.92939 2.27381 8.92719C2.42185 8.9228 2.48449 8.86238 2.56041 8.80527C2.61735 8.76243 2.73882 8.78441 2.80146 8.74157C2.84322 8.71411 2.8736 8.68006 2.91536 8.6537C2.93244 8.64272 2.96849 8.63723 2.99696 8.63394C3.1526 8.61746 3.31012 8.60538 3.46576 8.5878C3.49044 8.58451 3.51323 8.56804 3.53221 8.55486C3.57207 8.52631 3.59671 8.48676 3.64606 8.46809C3.69541 8.44942 3.76563 8.44942 3.82636 8.44393C4.02186 8.42746 4.03706 8.43184 4.12626 8.33848C4.19839 8.2627 4.37492 8.31652 4.43376 8.23305C4.46793 8.18472 4.53053 8.14519 4.64252 8.13969C4.80005 8.13201 4.95568 8.11114 5.11322 8.09686C5.25367 8.08368 5.25178 8.08367 5.40362 7.98153C5.47195 7.9354 5.57256 7.942 5.66177 7.93321C5.75667 7.92442 5.84397 7.91125 5.88952 7.85633C5.93507 7.80252 6.01857 7.78493 6.11537 7.77724C6.20458 7.76956 6.30519 7.77506 6.37542 7.73112C6.54624 7.62568 6.54435 7.62458 6.66392 7.61359C6.85182 7.59602 7.03972 7.57845 7.22762 7.55978C7.35289 7.5477 7.48385 7.5455 7.60152 7.52134C7.68693 7.50377 7.72488 7.44226 7.77993 7.39943C7.93556 7.38295 8.09119 7.36647 8.24683 7.35109C8.4651 7.32913 8.68526 7.30936 8.90543 7.2885C9.00033 7.24676 9.01365 7.1545 9.17308 7.15011C9.26798 7.14791 9.36098 7.13363 9.45588 7.12485C9.61341 7.10947 9.76905 7.0897 9.92658 7.08201C10.0462 7.07652 10.067 7.01721 10.1296 6.97986C10.1505 6.96668 10.1695 6.94802 10.1942 6.94472C10.4409 6.91397 10.6952 6.90738 10.9363 6.86235C10.961 6.85795 10.9837 6.83489 10.9894 6.81841C10.9932 6.80963 10.961 6.79316 10.9401 6.78547C10.9154 6.77668 10.8832 6.7679 10.8566 6.77009C10.0727 6.84368 9.28885 6.91837 8.50498 6.99196C8.39489 7.00294 8.39489 7.00183 8.12728 7.12265C8.1045 7.13253 8.0779 7.14351 8.04943 7.14681C7.92416 7.15999 7.797 7.16769 7.67363 7.18416C7.57303 7.19734 7.48955 7.18415 7.41742 7.14461C7.36618 7.11605 7.31301 7.10727 7.24847 7.10947C7.17635 7.11276 7.12893 7.12485 7.08717 7.1545C7.03213 7.19514 7.00365 7.24786 6.88787 7.25884C6.35453 7.30607 5.82116 7.35879 5.28972 7.40931C5.2157 7.39393 5.17964 7.37087 5.19862 7.34341C5.21001 7.32694 5.23279 7.30497 5.25557 7.30278C5.47384 7.27971 5.694 7.25994 5.91227 7.23798C5.94264 7.23468 5.98439 7.23687 6.00147 7.22588C6.08498 7.17646 6.11539 7.09629 6.27292 7.09079C6.36402 7.0875 6.45701 7.07103 6.54432 7.05565C6.569 7.05126 6.59178 7.02819 6.59747 7.01172C6.59937 7.00293 6.569 6.98645 6.54622 6.97876C6.46271 6.94691 6.36593 6.98536 6.28242 6.9634C6.25395 6.95571 6.21407 6.94472 6.20837 6.93154C6.20458 6.91946 6.23684 6.89969 6.25962 6.88761C6.2805 6.87662 6.30895 6.86674 6.33742 6.86345C6.58796 6.83819 6.83853 6.81182 7.08907 6.79205C7.19156 6.78437 7.26367 6.75691 7.30922 6.70638C7.34339 6.66904 7.38514 6.64928 7.44967 6.64378C7.88811 6.60315 8.32654 6.55812 8.76688 6.52077C8.87696 6.51199 8.93393 6.47575 8.97948 6.42852C9.01554 6.39117 9.0573 6.37799 9.12753 6.3714C9.75577 6.31429 10.3802 6.25059 11.0084 6.19567C11.1242 6.18579 11.1584 6.13856 11.2172 6.09792C11.2381 6.08364 11.2514 6.06607 11.2779 6.05729C11.3045 6.0485 11.3387 6.04959 11.3709 6.04739C11.872 6.00016 12.3731 5.94965 12.8761 5.90572C12.9938 5.89583 13.0165 5.84091 13.0772 5.80247C13.0981 5.79039 13.1171 5.77062 13.1418 5.76733C13.5176 5.72998 13.8934 5.69484 14.2692 5.65859C14.5197 5.63443 14.7703 5.61027 15.0208 5.5872C15.1442 5.57622 15.1442 5.57511 15.3112 5.47077C15.3302 5.45869 15.3568 5.44441 15.3814 5.44112C16.1027 5.37082 16.822 5.30384 17.5433 5.23464C17.604 5.22915 17.6476 5.20388 17.678 5.16654C17.7084 5.12919 17.7521 5.10393 17.8109 5.09844C18.3746 5.04353 18.9383 4.98971 19.5039 4.93809C19.6064 4.9293 19.6785 4.90294 19.7241 4.85352C19.7582 4.81617 19.8 4.79641 19.8645 4.79092C20.4282 4.7382 20.992 4.68218 21.5576 4.63166C21.6658 4.62177 21.7189 4.58443 21.772 4.5405C21.791 4.52512 21.8062 4.49986 21.829 4.49766C22.1099 4.46691 22.3889 4.43506 22.6717 4.41419C22.7894 4.4054 22.8292 4.35927 22.8767 4.31534C22.9146 4.28019 22.9583 4.26811 23.0304 4.26372C23.188 4.25384 23.3436 4.23517 23.4973 4.2165C23.5201 4.21321 23.5486 4.18904 23.5505 4.17366C23.5543 4.14511 23.5106 4.12534 23.4385 4.11545C22.6869 4.18684 21.9334 4.25823 21.1818 4.32962C21.0584 4.3417 21.0584 4.34171 20.8914 4.44605C20.8724 4.45813 20.8458 4.47241 20.8192 4.4757C20.098 4.5449 19.3787 4.61299 18.6574 4.68219C18.5967 4.68768 18.553 4.71294 18.5227 4.75028C18.4923 4.78763 18.4486 4.81289 18.3898 4.81838C17.7008 4.88428 17.0118 4.95128 16.321 5.01388C16.2185 5.02267 16.1464 5.04792 16.1008 5.09844C16.0666 5.13578 16.0249 5.15556 15.9604 5.16105C15.3017 5.22256 14.645 5.28735 13.9845 5.34666C13.9181 5.35215 13.8687 5.3203 13.8725 5.29065C13.8744 5.27527 13.9029 5.25002 13.9256 5.24782C14.2692 5.21158 14.6109 5.17423 14.9563 5.14677C15.0721 5.13799 15.1062 5.08966 15.1651 5.04902C15.184 5.03474 15.1992 5.01607 15.2239 5.00838C15.2505 4.9996 15.2846 5.0007 15.3169 4.9985C16.1311 4.92052 16.9454 4.84145 17.7616 4.76786C17.8792 4.75688 17.902 4.70305 17.9627 4.66461C17.9836 4.65143 18.0026 4.63167 18.0273 4.62947C18.2778 4.60311 18.5283 4.58004 18.7789 4.55698C19.2173 4.51524 19.6557 4.4735 20.0961 4.43177C20.2232 4.41969 20.2232 4.41968 20.3865 4.31644C20.4054 4.30436 20.432 4.28899 20.4567 4.28679C21.6164 4.17586 22.7761 4.06493 23.9358 3.9551C23.9965 3.94961 24.0402 3.92435 24.0705 3.887C24.1009 3.85076 24.1445 3.8244 24.2034 3.81781C25.7711 3.66844 27.337 3.51906 28.9047 3.37189C29.0072 3.362 29.0793 3.33893 29.1249 3.28731C29.1572 3.24997 29.2008 3.23021 29.2653 3.22362C30.9887 3.05997 32.7121 2.89632 34.4374 2.73157C35.5971 2.62174 36.7568 2.50971 37.9165 2.40207C38.0228 2.39219 38.0797 2.35814 38.1328 2.3131C38.1499 2.29773 38.167 2.27246 38.1898 2.27027C38.4384 2.24281 38.687 2.21755 38.9357 2.19229C39.0135 2.22195 39.0913 2.25051 39.1691 2.28016C39.228 2.23843 39.2849 2.19559 39.3438 2.15385C39.7196 2.122 40.0897 2.07258 40.4693 2.0572C40.494 2.0561 40.5205 2.07697 40.5471 2.08796C40.7236 2.15715 40.8242 2.15166 40.9362 2.0594C40.976 2.02645 41.0102 1.9968 41.0709 1.9913C41.2588 1.97153 41.4487 1.95835 41.6347 1.93529C41.7353 1.92321 41.8188 1.93419 41.8909 1.97373C41.9421 2.00228 41.9953 2.01437 42.0579 2.00778C42.4034 1.97483 42.7469 1.94298 43.0923 1.90783C43.117 1.90563 43.1398 1.88696 43.1587 1.87378C43.1986 1.84522 43.2328 1.81447 43.2707 1.78482C43.322 1.80349 43.3789 1.81777 43.4207 1.84193C43.4738 1.87049 43.5232 1.87048 43.5953 1.8628C44.9732 1.7299 46.3531 1.6003 47.7311 1.4663C47.8487 1.45532 47.9 1.50145 47.9797 1.52562C48.0063 1.5344 48.0328 1.54538 48.0613 1.54758C48.0917 1.54978 48.1239 1.54319 48.1543 1.5399C49.1887 1.44105 50.2232 1.34329 51.2576 1.24444C51.3942 1.23126 51.3942 1.23126 51.5973 1.29936C51.622 1.30814 51.6542 1.31803 51.6808 1.31474C52.1515 1.2719 52.6222 1.22578 53.091 1.18184C53.1518 1.17635 53.203 1.19392 53.2581 1.21918C53.3663 1.26861 53.3738 1.26861 53.4535 1.19612C53.4915 1.16207 53.5313 1.1412 53.594 1.13131C53.6623 1.12033 53.7174 1.12364 53.7705 1.1434C53.8464 1.17086 53.9015 1.21699 54.0173 1.2049C54.5183 1.15328 55.0213 1.11045 55.5205 1.05773C55.6344 1.04565 55.6951 1.08299 55.771 1.11045C55.7976 1.12033 55.8223 1.13571 55.8507 1.13901C55.8792 1.1423 55.9134 1.13461 55.9437 1.13131C56.5701 1.072 57.1983 1.0138 57.8227 0.9501C57.9404 0.938018 57.9917 0.985237 58.0714 1.0094C58.098 1.01819 58.1283 1.03357 58.153 1.03137C58.5288 0.997326 58.9065 0.961072 59.2823 0.924827C59.4171 0.911647 59.4171 0.912746 59.622 0.979743C59.6467 0.98853 59.679 0.997318 59.7056 0.995121C60.144 0.954483 60.5844 0.912747 61.0228 0.87101C61.1576 0.857831 61.1576 0.857833 61.5466 0.914946C61.5751 0.919339 61.6055 0.925938 61.634 0.923741C62.135 0.876513 62.638 0.830378 63.1391 0.779855C63.2397 0.76997 63.3232 0.778754 63.3953 0.818293C63.4466 0.84685 63.4997 0.858938 63.5623 0.852348C64.126 0.79853 64.6917 0.746911 65.2535 0.689799C65.3616 0.678815 65.4318 0.702969 65.5078 0.73482C65.5324 0.745803 65.5571 0.761183 65.5856 0.765576C65.6141 0.769969 65.6463 0.765573 65.6767 0.762278C66.2404 0.70846 66.806 0.65794 67.3678 0.599729C67.4817 0.587647 67.5424 0.624988 67.6184 0.652446C67.6449 0.662331 67.6734 0.682102 67.6962 0.681003C67.9163 0.662332 68.1365 0.645863 68.3548 0.618405C68.4725 0.603029 68.5237 0.653542 68.6034 0.677705C68.63 0.685393 68.6604 0.701876 68.685 0.69968C69.1557 0.656845 69.6265 0.611817 70.0953 0.565688C70.1617 0.559098 70.211 0.568974 70.2642 0.59753C70.3344 0.635971 70.416 0.651348 70.5185 0.639267C70.7368 0.614005 70.957 0.596437 71.1771 0.575569C71.3062 0.563487 71.3062 0.563491 71.701 0.620604C71.7295 0.624997 71.7598 0.631582 71.7883 0.629386C72.1641 0.594239 72.5418 0.560194 72.9157 0.521752C73.0163 0.510769 73.0998 0.520651 73.1719 0.560191C73.2232 0.588747 73.2744 0.600835 73.3389 0.594245C73.6844 0.561296 74.028 0.528343 74.3734 0.495394C74.4987 0.483312 74.6239 0.462439 74.7492 0.462439C74.8403 0.463537 74.9067 0.516254 74.9883 0.542614C75.0111 0.550302 75.0491 0.541526 75.0794 0.539329C75.5179 0.497593 75.9582 0.459148 76.3948 0.41192C76.5086 0.399839 76.5694 0.43718 76.6453 0.464638C76.6719 0.474523 76.7003 0.494293 76.7231 0.493195C76.8806 0.481114 77.0363 0.464637 77.1938 0.450359C77.3817 0.432786 77.5715 0.419606 77.7575 0.395443C77.9093 0.375673 77.9663 0.471224 78.0878 0.474519C78.1808 0.477814 78.2757 0.459146 78.3687 0.450359C78.5566 0.432786 78.7445 0.413018 78.9324 0.397642C78.9988 0.39215 79.0501 0.37457 79.071 0.33503C79.0748 0.327342 79.0425 0.310874 79.0216 0.300989C78.7692 0.188961 78.7691 0.188955 78.5148 0.213118C78.3573 0.228495 78.2016 0.243874 78.0441 0.257054C78.0175 0.25925 77.9872 0.250464 77.9606 0.243874C77.8847 0.225203 77.8923 0.203239 77.9568 0.163699C78.0213 0.12416 78.0707 0.0758379 78.1257 0.0308068C78.2035 0.0593631 78.2795 0.0879093 78.3573 0.116466C78.4199 0.110974 78.4826 0.104394 78.5452 0.0989021C78.8584 0.0703458 79.1715 0.040689 79.4847 0.0143294C79.5075 0.0121327 79.5359 0.0341023 79.5625 0.0450855C79.6384 0.0769368 79.7068 0.104387 79.8169 0.0923058C80.0978 0.0604545 80.3806 0.0373898 80.6615 0.0099318C80.7848 -0.00214972 80.7848 -0.00214864 81.0012 0.0659472C81.0259 0.0736354 81.0581 0.0824225 81.0847 0.0802258C81.3675 0.0549645 81.6484 0.0275097 81.9312 0.00115007C81.992 -0.00434153 82.0508 0.00993608 82.0945 0.0417873C82.1115 0.0549672 82.1077 0.0769293 82.1799 0.257054C82.4038 0.40313 82.5576 0.387761 82.7132 0.374581C82.7796 0.36909 82.8385 0.363593 82.8821 0.341626C82.9049 0.329545 82.9334 0.311969 82.9334 0.297691C82.9334 0.286708 82.8916 0.269131 82.8651 0.266935C82.6772 0.244968 82.4987 0.291104 82.3146 0.300989C82.2292 0.305382 82.1552 0.266941 82.14 0.204336C82.1362 0.186763 82.1305 0.168093 82.1248 0.15052C82.1191 0.132947 82.1154 0.114276 82.1097 0.0967033C82.0356 0.0912117 81.992 0.110978 81.9597 0.148321C81.9331 0.179074 81.8952 0.21422 81.8439 0.230695C81.7927 0.248268 81.7225 0.244979 81.6598 0.250471C81.5991 0.255962 81.5327 0.270239 81.4757 0.262551C81.4188 0.253764 81.3732 0.221907 81.3201 0.202138C81.2954 0.192253 81.265 0.17798 81.2404 0.180177C81.0221 0.198848 80.8057 0.217513 80.5894 0.241676C80.4755 0.254855 80.4185 0.208733 80.3464 0.180177C80.2895 0.15821 80.2325 0.163695 80.223 0.214218C80.1983 0.335033 80.2857 0.385553 80.4793 0.362488C80.6387 0.342718 80.7829 0.339434 80.9082 0.414119C80.9253 0.424004 80.9651 0.428396 80.9898 0.426199C81.1455 0.413019 81.2992 0.396543 81.4548 0.383363C81.4833 0.381166 81.5137 0.385553 81.5403 0.389946C81.9275 0.449255 81.9275 0.450359 82.0584 0.43718C82.121 0.43059 82.1818 0.425098 82.1761 0.258153C82.2956 0.079127 82.4855 0.0670476 82.6696 0.040688C82.7891 0.0242132 82.8404 0.0725414 82.9182 0.0978027C82.9447 0.106589 82.9732 0.124159 82.9979 0.121963C83.406 0.085718 83.8121 0.0472714 84.2183 0.00663362C84.2867 4.37019e-05 84.336 0.00663469 84.3891 0.035191C84.4575 0.0714355 84.5334 0.0945051 84.6416 0.0813252C84.8579 0.0549656 85.0781 0.0384945 85.2983 0.0165281C85.4103 0.00554495 85.4103 0.00553369 85.6361 0.0736295C85.6608 0.0813177 85.6931 0.0901048 85.7196 0.0879082C85.9398 0.0692368 86.1581 0.046179 86.3764 0.0264093C86.4371 0.0209177 86.4921 0.0362925 86.5396 0.0659472C86.587 0.0956018 86.644 0.110977 86.7028 0.105485C86.923 0.0857153 87.1413 0.0637559 87.3595 0.0439861C87.3861 0.0417895 87.4184 0.0494772 87.443 0.0571654C87.6746 0.125261 87.6746 0.12525 87.7809 0.114267C87.9365 0.097792 88.0959 0.0901123 88.2497 0.0681459C88.3996 0.0461796 88.4774 0.109877 88.5799 0.145023C88.8608 0.119762 89.1436 0.0988989 89.4226 0.0681459C89.5365 0.0549661 89.5973 0.0912074 89.6732 0.119764C89.6998 0.129649 89.7263 0.150519 89.751 0.14942C89.8459 0.145027 89.9389 0.132948 90.0319 0.124161C90.1249 0.115375 90.2198 0.106589 90.3128 0.0978027C90.4191 0.129654 90.4894 0.204339 90.6412 0.179077C90.7323 0.163701 90.8291 0.160406 90.9221 0.151619C91.0151 0.142833 91.11 0.134047 91.203 0.125261C91.2656 0.119769 91.3302 0.116469 91.3909 0.106584C91.5029 0.0901097 91.5579 0.143934 91.6376 0.168097C91.6642 0.175785 91.6946 0.188956 91.7193 0.18676C91.9072 0.171383 92.0969 0.158204 92.2811 0.132943C92.4234 0.113173 92.5202 0.146127 92.6208 0.192257C92.6417 0.202141 92.6777 0.207633 92.7043 0.205436C92.9245 0.186764 93.1427 0.163693 93.361 0.143924C93.4198 0.138432 93.4768 0.156005 93.5243 0.184561C93.5736 0.214215 93.6286 0.228504 93.6894 0.223013C93.9076 0.203243 94.1278 0.18127 94.3461 0.1615C94.3727 0.159304 94.4049 0.168092 94.4296 0.176878C94.6422 0.244974 94.6422 0.246074 94.7675 0.232894C94.7978 0.229599 94.8301 0.227394 94.8605 0.224099C95.0161 0.208722 95.1774 0.203238 95.3293 0.176878C95.5039 0.147224 95.631 0.184568 95.7544 0.247173C95.91 0.233993 96.0695 0.226303 96.2213 0.204336C96.3352 0.187862 96.3959 0.229596 96.4719 0.257054C96.4984 0.266939 96.5269 0.286708 96.5497 0.284512C96.7698 0.26584 96.99 0.249371 97.2064 0.221913C97.324 0.206537 97.3753 0.255952 97.455 0.281213C97.4816 0.29 97.51 0.305385 97.5347 0.303188C97.66 0.294401 97.7853 0.281215 97.9106 0.269134C98.0567 0.254855 98.0567 0.255953 98.2503 0.32295C98.3414 0.354801 98.4325 0.329539 98.5217 0.321851C98.6166 0.313064 98.7058 0.306476 98.7817 0.351508C98.8292 0.380064 98.8861 0.397637 98.945 0.393244C99.0702 0.383359 99.1974 0.373479 99.3208 0.357004C99.4195 0.343825 99.5049 0.352606 99.577 0.393244C99.6282 0.4218 99.6814 0.436087 99.744 0.429497C100.025 0.403138 100.308 0.375669 100.589 0.350408C100.613 0.348211 100.647 0.3581 100.67 0.367985C100.723 0.387755 100.775 0.409716 100.826 0.431683C100.949 0.421798 101.076 0.417416 101.198 0.402039C101.327 0.386663 101.445 0.38117 101.545 0.441577C101.566 0.454757 101.596 0.473418 101.621 0.47232C101.716 0.467927 101.809 0.456947 101.902 0.44816C101.995 0.439374 102.09 0.430588 102.183 0.421802C102.291 0.44926 102.359 0.528338 102.511 0.503076C102.602 0.4877 102.699 0.484405 102.792 0.475618C102.885 0.466832 102.98 0.456948 103.073 0.44926C103.104 0.447063 103.138 0.441568 103.164 0.445961C103.193 0.450355 103.217 0.465734 103.242 0.476718C103.318 0.508569 103.388 0.540424 103.496 0.521752C103.587 0.506376 103.684 0.50308 103.777 0.493195C103.904 0.481114 103.904 0.481116 104.115 0.55031C104.201 0.578866 104.297 0.541525 104.379 0.565688C104.434 0.582163 104.481 0.609615 104.535 0.628286C104.557 0.635974 104.593 0.639265 104.62 0.637068C104.745 0.627183 104.872 0.617303 104.996 0.600828C105.096 0.587648 105.18 0.600827 105.25 0.640366C105.301 0.668922 105.353 0.68101 105.417 0.67442C105.73 0.643668 106.044 0.617299 106.355 0.583251C106.461 0.57117 106.546 0.589846 106.605 0.629386C106.706 0.697481 106.848 0.617306 106.953 0.672222C107.017 0.70627 107.082 0.745811 107.199 0.729336C107.416 0.70078 107.636 0.685395 107.854 0.665625C107.932 0.69528 108.01 0.724941 108.09 0.754596C108.215 0.742514 108.34 0.730425 108.465 0.719442C108.558 0.710655 108.653 0.700772 108.746 0.693083C108.777 0.690887 108.809 0.686492 108.837 0.691984C108.866 0.697475 108.889 0.711757 108.915 0.72274C109.046 0.776558 109.046 0.777661 109.263 0.755695C109.356 0.74581 109.445 0.73922 109.523 0.783153C109.595 0.823791 109.68 0.831474 109.779 0.819393C109.965 0.797426 110.153 0.780953 110.343 0.765576C110.401 0.760085 110.456 0.778756 110.506 0.807313C110.58 0.852344 110.671 0.847952 110.764 0.83587C110.887 0.820494 111.009 0.80512 111.113 0.866626C111.134 0.879806 111.166 0.898467 111.189 0.897369C111.345 0.888583 111.502 0.881997 111.654 0.861129C111.806 0.840261 111.88 0.908355 111.984 0.941305C112.14 0.927026 112.297 0.912747 112.453 0.898468C112.483 0.895174 112.519 0.885295 112.546 0.890786C112.658 0.913851 112.723 0.996223 112.876 0.970961C112.966 0.956683 113.062 0.952295 113.155 0.949C113.18 0.947902 113.212 0.966564 113.229 0.980842C113.239 0.988531 113.229 1.0094 113.218 1.02038C113.184 1.05113 113.142 1.0797 113.112 1.11155C113.108 1.11594 113.144 1.1357 113.165 1.14449C113.216 1.16426 113.275 1.16097 113.343 1.15219C113.402 1.1445 113.463 1.15987 113.505 1.19282C113.522 1.206 113.516 1.22797 113.48 1.30046C113.48 1.35427 113.52 1.33011 113.533 1.29496C113.554 1.24444 113.514 1.22796 113.438 1.25542C113.385 1.27519 113.358 1.30375 113.372 1.32682C113.379 1.3389 113.415 1.35427 113.48 1.30046C113.647 1.23456 113.772 1.22248 113.897 1.2104C113.93 1.20711 113.968 1.19612 113.99 1.20271C114.072 1.22906 114.148 1.26092 114.228 1.29058C114.319 1.28399 114.404 1.2675 114.493 1.31034C114.619 1.37075 114.624 1.36526 114.746 1.35317C114.809 1.34658 114.871 1.3411 114.934 1.33561C114.996 1.33012 115.046 1.34659 115.101 1.37185C115.213 1.42347 115.222 1.42347 115.296 1.35317C115.34 1.31034 115.37 1.29607 115.425 1.31584C115.608 1.38283 115.609 1.38722 115.765 1.36745C115.894 1.35098 116.016 1.34659 116.111 1.40919C116.175 1.45312 116.196 1.44324 116.247 1.39711C116.384 1.2752 116.446 1.27739 116.703 1.36525C116.822 1.40699 116.946 1.36196 117.067 1.35647C117.17 1.35208 117.242 1.37843 117.249 1.44763C117.255 1.49046 117.272 1.52122 117.34 1.5355C117.367 1.54099 117.399 1.54868 117.426 1.54648C117.583 1.5333 117.739 1.51792 117.897 1.50254C117.976 1.49486 118.02 1.44324 118.005 1.37515C117.988 1.30266 118.018 1.27629 118.132 1.25542C118.2 1.24334 118.255 1.24555 118.31 1.26532C118.371 1.28728 118.354 1.30705 118.301 1.34659C118.174 1.44324 118.189 1.50254 118.352 1.56954C118.409 1.5926 118.455 1.61348 118.468 1.64753C118.475 1.6651 118.468 1.68817 118.485 1.70135C118.578 1.77493 118.707 1.82217 118.851 1.85731C118.99 1.82766 119.085 1.87707 119.191 1.91661C119.275 1.94737 119.373 1.92101 119.462 1.91003C119.563 1.89795 119.647 1.90673 119.719 1.94737C119.77 1.97593 119.823 1.9891 119.886 1.98361C120.011 1.97153 120.138 1.96384 120.261 1.94627C120.368 1.93089 120.447 1.95286 120.514 1.9902C120.597 2.03743 120.69 2.00558 120.778 2.01217C120.895 2.01985 120.954 2.1176 121.108 2.09124C121.199 2.07587 121.294 2.07038 121.389 2.06598C121.414 2.06488 121.444 2.08356 121.465 2.09674C121.565 2.15715 121.683 2.15385 121.812 2.13628C121.901 2.1242 121.989 2.11322 122.076 2.15495C122.22 2.22525 122.38 2.28676 122.532 2.35156C122.552 2.40208 122.537 2.46138 122.645 2.49103C122.702 2.50641 122.755 2.52948 122.799 2.55474C122.852 2.5844 122.902 2.59209 122.97 2.5844C123.093 2.56902 123.222 2.56572 123.344 2.54595C123.456 2.52837 123.526 2.56463 123.594 2.59868C123.649 2.62614 123.701 2.63931 123.767 2.61954C123.835 2.60087 123.885 2.61295 123.94 2.6426C124.018 2.68324 124.023 2.67885 124.281 2.69093C124.308 2.69203 124.34 2.7085 124.355 2.72278C124.363 2.73046 124.346 2.75244 124.333 2.76343C124.316 2.77661 124.289 2.79197 124.264 2.79527C123.983 2.82382 123.701 2.84909 123.42 2.87764C123.391 2.88094 123.361 2.88863 123.34 2.89962C123.317 2.9117 123.289 2.92816 123.289 2.94354C123.289 2.95452 123.327 2.96771 123.353 2.97539C123.437 3.00066 123.536 2.96222 123.617 2.99077C123.672 3.00944 123.718 3.0358 123.773 3.05337C123.796 3.06106 123.832 3.05996 123.86 3.05777C123.955 3.05008 124.048 3.0391 124.143 3.03251C124.169 3.03141 124.2 3.0424 124.225 3.05119C124.407 3.11708 124.407 3.11708 124.564 3.1028C124.627 3.09731 124.693 3.08084 124.752 3.08742C124.809 3.09401 124.858 3.12367 124.91 3.14234C125.016 3.18188 125.117 3.22032 125.124 3.30599C125.128 3.33894 125.191 3.36749 125.253 3.36969C125.314 3.37188 125.378 3.35981 125.441 3.35322C125.589 3.34004 125.589 3.34004 125.781 3.40704C125.834 3.42571 125.891 3.4279 125.959 3.41692C125.986 3.41253 126.018 3.41693 126.047 3.42242C126.14 3.43889 126.14 3.45976 126.079 3.49929C125.993 3.55751 126.001 3.563 126.24 3.61242C126.331 3.6311 126.401 3.66624 126.477 3.697C126.601 3.74642 126.599 3.74641 126.517 3.81121C126.498 3.82549 126.481 3.84087 126.462 3.85625C126.407 3.89908 126.364 3.94521 126.25 3.9496C126.124 3.954 125.999 3.97158 125.874 3.98366C125.752 3.99574 125.72 4.02209 125.732 4.09677C125.745 4.18684 125.769 4.19672 125.988 4.19563C126.05 4.19563 126.105 4.20441 126.153 4.23406C126.13 4.26921 126.088 4.29667 126.028 4.30326C125.872 4.31973 125.714 4.33402 125.559 4.34829C125.434 4.36037 125.308 4.37245 125.183 4.38453C125.105 4.39222 125.056 4.44934 125.077 4.51304C125.088 4.54929 125.098 4.58553 125.107 4.62177C125.128 4.69426 125.168 4.71294 125.295 4.70964C125.327 4.70855 125.358 4.69975 125.388 4.70195C125.511 4.70964 125.57 4.8008 125.718 4.78212C125.842 4.76675 125.971 4.76346 126.092 4.74369C126.204 4.72611 126.267 4.76566 126.345 4.79532C126.371 4.8052 126.4 4.82606 126.422 4.82496C126.58 4.81288 126.737 4.80081 126.891 4.77994C126.963 4.77115 127.007 4.77774 127.064 4.8041C127.201 4.8678 127.204 4.86451 127.407 4.84474C127.556 4.82936 127.557 4.83156 127.747 4.89855C127.8 4.91722 127.857 4.91722 127.926 4.90843C128.015 4.89745 128.108 4.87988 128.201 4.89635C128.229 4.90075 128.265 4.91393 128.275 4.92821C128.281 4.93809 128.254 4.96226 128.231 4.96995C128.064 5.02706 127.869 5.01718 127.686 5.04024C127.63 5.04683 127.573 5.02596 127.525 4.9963C127.476 4.96665 127.423 4.95457 127.358 4.96006C127.233 4.97215 127.106 4.97983 126.982 4.9974C126.876 5.01278 126.802 4.98752 126.728 4.95347C126.703 4.94249 126.675 4.92161 126.65 4.92271C126.369 4.94468 126.086 4.96665 125.807 4.9974C125.695 5.01058 125.631 4.97544 125.555 4.94579C125.528 4.9359 125.502 4.91503 125.477 4.91613C125.382 4.92052 125.289 4.9326 125.194 4.94139C124.849 4.97434 124.505 5.00729 124.16 5.03804C124.137 5.04024 124.109 5.01717 124.082 5.00729C124.031 4.98752 123.978 4.96884 123.925 4.95017C123.83 4.95896 123.737 4.96994 123.642 4.97653C123.573 4.98092 123.513 4.99631 123.503 5.03804C123.498 5.0655 123.56 5.09076 123.627 5.08856C123.691 5.08636 123.756 5.07318 123.809 5.08746C124.073 5.15775 124.073 5.15885 124.238 5.14458C124.382 5.1314 124.367 5.12041 124.494 5.18081C124.549 5.20717 124.598 5.22256 124.661 5.21597C124.817 5.20059 124.974 5.18521 125.132 5.17203C125.156 5.16984 125.189 5.18082 125.213 5.18961C125.399 5.25551 125.399 5.2577 125.553 5.24123C125.754 5.22146 125.762 5.21597 125.897 5.28296C125.99 5.32909 126.075 5.29724 126.164 5.29504C126.267 5.33788 126.379 5.37633 126.472 5.42465C126.582 5.48176 126.698 5.47187 126.823 5.45539C126.916 5.44331 127.007 5.43892 127.083 5.48395C127.155 5.52569 127.242 5.53009 127.341 5.51911C127.43 5.50922 127.521 5.48835 127.614 5.51251C127.639 5.5191 127.677 5.53558 127.675 5.54546C127.673 5.56084 127.648 5.58281 127.624 5.5894C127.449 5.63443 127.258 5.63333 127.073 5.6542C127.049 5.65749 127.016 5.64541 126.992 5.63662C126.939 5.61685 126.887 5.59379 126.836 5.57292C126.743 5.57951 126.648 5.5817 126.557 5.59488C126.487 5.60477 126.434 5.60368 126.383 5.57732C126.335 5.55316 126.284 5.5235 126.227 5.51581C126.17 5.50812 126.104 5.5246 126.041 5.53119C125.978 5.53778 125.906 5.53447 125.857 5.55205C125.807 5.56962 125.777 5.60807 125.745 5.63882C125.709 5.67287 125.659 5.68386 125.587 5.68715C125.521 5.69045 125.468 5.68605 125.418 5.6553C125.397 5.64212 125.369 5.63223 125.341 5.62344C125.314 5.61575 125.284 5.60367 125.259 5.60586C124.976 5.63113 124.695 5.65859 124.412 5.68495C124.272 5.69813 124.274 5.69812 123.982 5.63332C123.955 5.62783 123.923 5.62014 123.896 5.62234C123.739 5.63552 123.583 5.6509 123.425 5.66628C123.266 5.68165 123.268 5.67946 122.996 5.61026C122.947 5.59708 122.875 5.61466 122.816 5.61246C122.693 5.60697 122.632 5.51471 122.488 5.53229C122.364 5.54766 122.235 5.55095 122.112 5.57072C122 5.5883 121.936 5.54986 121.86 5.52021C121.833 5.51032 121.805 5.48835 121.782 5.49055C121.499 5.51471 121.218 5.54217 120.842 5.54546C120.749 5.54546 120.791 5.56853 120.852 5.57622C120.939 5.5883 120.968 5.56524 120.92 5.5213C120.886 5.49055 120.837 5.47516 120.797 5.48285C120.776 5.48725 120.749 5.50812 120.842 5.54546C120.941 5.5872 120.935 5.61026 120.952 5.62344C120.994 5.65529 121.053 5.66847 121.114 5.66408C121.209 5.65639 121.302 5.64541 121.396 5.63882C121.423 5.63662 121.455 5.64431 121.48 5.6531C121.689 5.72119 121.691 5.72559 121.913 5.69923C121.983 5.69154 122.034 5.69154 122.089 5.71241C122.165 5.74097 122.22 5.78929 122.336 5.77391C122.49 5.75304 122.647 5.74097 122.805 5.72889C122.829 5.72669 122.856 5.74646 122.884 5.75525C122.962 5.78161 123.019 5.83103 123.135 5.81016C123.224 5.79369 123.321 5.78929 123.416 5.78599C123.441 5.78489 123.479 5.80247 123.49 5.81675C123.513 5.84201 123.484 5.87167 123.42 5.89254C123.393 5.90132 123.357 5.89912 123.327 5.90242C123.201 5.9145 123.076 5.92767 122.951 5.93756C122.885 5.94305 122.822 5.95953 122.814 6.00017C122.809 6.02763 122.877 6.05179 122.941 6.04959C123.036 6.04629 123.131 6.03751 123.222 6.02323C123.384 5.99907 123.524 6.00565 123.655 6.07485C123.748 6.12317 123.742 6.10561 123.841 6.24839C123.866 6.28464 123.94 6.28793 124.004 6.28573C124.16 6.28024 124.232 6.29672 124.219 6.33077C124.202 6.3725 124.147 6.38567 124.076 6.39117C123.951 6.39995 123.826 6.41424 123.701 6.42632C123.67 6.42961 123.636 6.4362 123.608 6.434C123.579 6.4318 123.553 6.41863 123.528 6.40874C123.475 6.38787 123.429 6.35602 123.372 6.34833C123.315 6.34064 123.249 6.35712 123.186 6.36371C123.124 6.3692 123.057 6.38567 123 6.37799C122.943 6.3703 122.896 6.33736 122.845 6.31759C122.82 6.3077 122.79 6.29231 122.765 6.29341C122.64 6.3022 122.514 6.31648 122.389 6.32747C122.235 6.34175 122.235 6.34175 122.049 6.27365C121.996 6.25388 121.941 6.25498 121.871 6.26377C121.719 6.28134 121.717 6.27804 121.44 6.21434C121.414 6.20775 121.381 6.20006 121.355 6.20336C121.072 6.22862 120.791 6.25607 120.51 6.28243C120.269 6.3055 120.269 6.30551 120.136 6.41534C120.037 6.49661 120.036 6.49661 120.132 6.53395C120.21 6.5647 120.28 6.60973 120.366 6.62621C120.446 6.64158 120.544 6.59216 120.632 6.64268C120.675 6.66795 120.732 6.69541 120.787 6.6998C120.875 6.70529 120.968 6.67343 121.051 6.72176C121.093 6.74592 121.155 6.77119 121.209 6.77229C121.302 6.77449 121.396 6.75691 121.489 6.74922C121.518 6.74702 121.55 6.74703 121.577 6.75252C121.605 6.75911 121.63 6.77229 121.655 6.78327C121.731 6.82062 121.812 6.83818 121.911 6.81951C122.072 6.78876 122.216 6.80414 122.342 6.87443C122.359 6.88431 122.401 6.88542 122.427 6.88102C122.495 6.87004 122.554 6.86894 122.605 6.88981C122.626 6.89859 122.657 6.91396 122.653 6.92385C122.647 6.94032 122.624 6.96229 122.6 6.96778C122.421 7.00513 122.23 7.00952 122.046 7.02929C122.021 7.03149 121.991 7.01721 121.966 7.00732C121.913 6.98755 121.867 6.95461 121.81 6.94692C121.753 6.93923 121.687 6.95351 121.624 6.959C121.562 6.96449 121.495 6.98097 121.438 6.97438C121.381 6.96669 121.328 6.93923 121.283 6.91507C121.229 6.88761 121.178 6.88432 121.108 6.8953C121.017 6.90958 120.922 6.91178 120.829 6.91946C120.778 6.8986 120.726 6.87552 120.673 6.85575C120.649 6.84587 120.618 6.83379 120.592 6.83489C120.466 6.84368 120.341 6.85685 120.216 6.86893C120.091 6.88101 120.091 6.88103 119.878 6.81293C119.853 6.80524 119.821 6.79645 119.795 6.79865C119.637 6.81183 119.481 6.82829 119.324 6.84147C119.263 6.84696 119.208 6.83159 119.159 6.80194C119.111 6.77228 119.054 6.75581 118.995 6.7613C118.745 6.78436 118.494 6.80633 118.244 6.83379C118.143 6.84477 118.058 6.83489 117.99 6.79535C117.91 6.75032 117.821 6.76131 117.728 6.77009C117.517 6.79206 117.515 6.79095 117.38 6.73494C117.354 6.72396 117.327 6.70308 117.302 6.70418C117.084 6.72066 116.864 6.73604 116.648 6.7624C116.534 6.77668 116.473 6.73824 116.397 6.70968C116.371 6.6998 116.342 6.67893 116.319 6.68112C116.162 6.6932 116.004 6.70419 115.85 6.72616C115.697 6.74812 115.638 6.64598 115.522 6.64708C115.365 6.64818 115.209 6.67344 115.053 6.68882C114.928 6.7009 114.803 6.71298 114.678 6.72506C114.552 6.73714 114.427 6.74702 114.302 6.7613C114.235 6.76899 114.186 6.7591 114.131 6.73164C114.061 6.6954 113.977 6.66685 113.901 6.6339C113.785 6.58668 113.785 6.58667 113.645 6.59985C113.615 6.60314 113.582 6.60534 113.552 6.60863C113.322 6.63279 113.322 6.6306 113.03 6.56141C113.017 6.55812 112.983 6.5702 112.969 6.57899C112.929 6.60754 112.893 6.63829 112.857 6.66794C112.806 6.65037 112.743 6.64049 112.709 6.61523C112.613 6.54384 112.461 6.64158 112.362 6.57129C112.326 6.54493 112.263 6.52187 112.206 6.51528C112.147 6.50869 112.081 6.52406 112.02 6.53065C111.863 6.54713 111.863 6.54603 111.728 6.64378C111.66 6.69211 111.561 6.68332 111.472 6.6943C111.379 6.70638 111.29 6.71298 111.212 6.66794C111.142 6.62731 111.056 6.61742 110.956 6.6306C110.832 6.64708 110.705 6.65696 110.58 6.66684C110.553 6.66904 110.521 6.66355 110.494 6.65696C110.204 6.59216 110.204 6.59107 110.063 6.60535C110.001 6.61194 109.936 6.61412 109.876 6.62401C109.773 6.64158 109.695 6.61852 109.621 6.58337C109.597 6.57239 109.568 6.55153 109.543 6.55263C109.418 6.55812 109.295 6.568 109.171 6.57789C109.077 6.58558 108.982 6.58997 108.891 6.60535C108.739 6.63061 108.665 6.55921 108.56 6.52626C108.405 6.54053 108.247 6.55042 108.091 6.57019C108.019 6.57898 107.972 6.57569 107.917 6.54933C107.847 6.51638 107.782 6.47904 107.668 6.49551C107.516 6.51748 107.357 6.52517 107.201 6.53835C107.097 6.5043 107.021 6.4351 106.871 6.46036C106.78 6.47574 106.683 6.47903 106.59 6.48782C106.465 6.4999 106.34 6.51089 106.214 6.52407C106.08 6.53725 106.081 6.53396 105.875 6.46915C105.755 6.43071 105.632 6.47355 105.51 6.48014C105.415 6.48563 105.368 6.53615 105.391 6.60095C105.413 6.66575 105.362 6.71627 105.275 6.72506C105.057 6.74593 104.836 6.76789 104.618 6.78656C104.592 6.78875 104.559 6.78107 104.535 6.77338C104.301 6.70418 104.301 6.70529 104.197 6.71518C104.041 6.73165 103.882 6.74043 103.728 6.7613C103.622 6.77558 103.544 6.75252 103.475 6.71518C103.422 6.68662 103.373 6.68003 103.305 6.68662C102.553 6.76021 101.801 6.8283 101.052 6.90409C100.94 6.91507 100.875 6.88322 100.799 6.85357C100.773 6.84368 100.748 6.82281 100.721 6.82281C100.659 6.82281 100.596 6.8327 100.534 6.83929C100.253 6.86565 99.9718 6.89749 99.689 6.91726C99.5694 6.92605 99.5371 6.97658 99.4859 7.01831C99.446 7.05017 99.4005 7.06334 99.3303 7.06773C99.2619 7.07213 99.2126 7.06663 99.1594 7.03808C99.0911 7.00073 99.0133 6.97767 98.907 6.99304C98.7837 7.01061 98.6583 7.01831 98.5312 7.03039C98.4666 7.03589 98.4173 7.05565 98.3964 7.09519C98.3926 7.10178 98.4325 7.11826 98.4553 7.12815C98.5312 7.1611 98.6033 7.19954 98.6887 7.2226C98.776 7.24566 98.8709 7.2193 98.962 7.21271C98.9943 7.21051 99.0247 7.20392 99.055 7.20502C99.0835 7.20612 99.1177 7.21162 99.1386 7.2215C99.2373 7.27093 99.3416 7.30497 99.4783 7.27532C99.596 7.2896 99.6567 7.38075 99.8067 7.35659C99.8978 7.34231 99.9927 7.33572 100.088 7.33023C100.112 7.32913 100.139 7.34891 100.165 7.35879C100.241 7.38625 100.302 7.43018 100.416 7.41151C100.537 7.39174 100.666 7.38845 100.79 7.37307C100.858 7.36428 100.907 7.37197 100.961 7.40053C101.029 7.43677 101.107 7.46422 101.213 7.44665C101.304 7.43127 101.401 7.42798 101.494 7.41809C101.615 7.40601 101.615 7.40711 101.832 7.47521C101.857 7.48289 101.889 7.49168 101.915 7.48948C102.073 7.4763 102.229 7.45983 102.386 7.44665C102.447 7.44116 102.506 7.45543 102.547 7.48729C102.564 7.50047 102.559 7.52244 102.564 7.54112C102.251 7.57077 101.938 7.59603 101.627 7.63227C101.509 7.64655 101.456 7.60152 101.378 7.57626C101.352 7.56747 101.323 7.5488 101.298 7.551C101.078 7.56967 100.86 7.58943 100.642 7.61359C100.573 7.62128 100.522 7.61689 100.471 7.58504C100.34 7.50047 100.181 7.5466 100.033 7.55868C99.9186 7.56747 99.8826 7.60152 99.8959 7.67401C99.913 7.75968 99.9813 7.78604 100.156 7.77066C100.219 7.76517 100.281 7.75748 100.344 7.75308C100.405 7.74869 100.46 7.76297 100.509 7.79262C100.556 7.82228 100.613 7.83765 100.672 7.83326C100.797 7.82337 100.925 7.81349 101.046 7.79702C101.147 7.78384 101.23 7.79482 101.3 7.83546C101.378 7.88049 101.469 7.8706 101.56 7.86072C101.773 7.83875 101.775 7.83986 101.908 7.89477C101.934 7.90575 101.961 7.92663 101.986 7.92553C102.204 7.90905 102.424 7.89477 102.638 7.86841C102.75 7.85523 102.815 7.89037 102.889 7.91893C102.916 7.92882 102.942 7.95078 102.967 7.94859C103.124 7.93651 103.282 7.92442 103.436 7.90355C103.508 7.89367 103.551 7.90025 103.61 7.92661C103.751 7.99141 103.755 7.98922 103.954 7.96835C104.015 7.96176 104.081 7.94968 104.138 7.95847C104.195 7.96726 104.24 7.99911 104.294 8.01888C104.318 8.02767 104.349 8.03974 104.375 8.03754C104.5 8.02876 104.626 8.01558 104.751 8.0035C104.869 7.99142 104.869 7.99252 105.089 8.06062C105.178 8.08917 105.271 8.06501 105.36 8.05622C105.457 8.04634 105.544 8.04634 105.618 8.08918C105.692 8.13201 105.782 8.1298 105.876 8.12102C105.966 8.11223 106.057 8.08808 106.148 8.11773C106.357 8.18583 106.357 8.18691 106.486 8.17373C106.674 8.15506 106.86 8.13749 107.049 8.12102C107.074 8.11882 107.106 8.13201 107.131 8.14079C107.184 8.16056 107.23 8.1935 107.287 8.20119C107.344 8.20998 107.41 8.1968 107.471 8.19021C107.666 8.16934 107.68 8.16166 107.811 8.23415C107.921 8.29346 108.057 8.20779 108.16 8.27588C108.219 8.31433 108.298 8.34507 108.408 8.3264C108.5 8.31103 108.594 8.30663 108.689 8.29785C108.839 8.28357 108.839 8.28468 109.029 8.35058C109.054 8.35936 109.086 8.37034 109.111 8.36814C109.236 8.35935 109.363 8.35167 109.485 8.3319C109.627 8.30884 109.718 8.35058 109.824 8.39121C109.908 8.42307 110.007 8.3967 110.096 8.38572C110.193 8.37473 110.28 8.37802 110.352 8.42086C110.428 8.46479 110.517 8.4593 110.612 8.45051C110.701 8.44283 110.792 8.41756 110.883 8.44831C111.079 8.51641 111.079 8.51641 111.221 8.50323C111.347 8.49115 111.472 8.47798 111.597 8.46919C111.622 8.46699 111.652 8.48127 111.677 8.49115C111.73 8.51092 111.775 8.54388 111.832 8.55156C111.889 8.55925 111.956 8.54498 112.018 8.53948C112.081 8.53399 112.147 8.51752 112.204 8.52411C112.261 8.5307 112.315 8.55816 112.36 8.58232C112.413 8.61088 112.463 8.61416 112.535 8.60318C112.626 8.5889 112.721 8.58561 112.814 8.57792C112.865 8.59879 112.918 8.61965 112.967 8.64272C113.019 8.66688 113.074 8.66469 113.144 8.657C113.377 8.63064 113.379 8.63394 113.575 8.70203C113.664 8.73279 113.757 8.70752 113.846 8.69983C113.941 8.69105 114.03 8.68666 114.104 8.73059C114.176 8.77233 114.266 8.77781 114.361 8.76463C114.421 8.75585 114.486 8.75036 114.548 8.74707C114.577 8.74597 114.611 8.75036 114.632 8.75915C114.733 8.80528 114.831 8.84702 114.97 8.81736C115.091 8.82615 115.152 8.91621 115.298 8.89864C115.422 8.88326 115.551 8.87995 115.672 8.86018C115.784 8.84261 115.864 8.87337 115.921 8.91182C116.023 8.97991 116.167 8.88765 116.27 8.95465C116.329 8.99309 116.405 9.02384 116.519 9.00737C116.644 8.9898 116.684 9.01285 116.72 9.08205C116.741 9.12159 116.737 9.15344 116.699 9.1842C116.661 9.21605 116.619 9.21056 116.558 9.17432C116.488 9.13368 116.405 9.12598 116.304 9.13476C116.205 9.14355 116.145 9.08645 116.063 9.06448C115.981 9.04142 115.885 9.07986 115.799 9.05021C115.598 8.98101 115.598 8.98101 115.461 8.99419C115.368 9.00298 115.272 9.00737 115.181 9.02275C115.072 9.04142 115.002 9.00737 114.928 8.97661C114.902 8.96563 114.875 8.94476 114.852 8.94586C114.634 8.96233 114.414 8.97771 114.197 9.00517C114.083 9.01945 114.023 8.97991 113.947 8.95245C113.92 8.94257 113.892 8.9228 113.869 8.925C113.681 8.94037 113.495 8.96014 113.307 8.97881C113.271 9.00847 113.231 9.03702 113.197 9.06887C113.161 9.10182 113.112 9.1161 113.04 9.115C112.92 9.115 112.802 9.16113 112.683 9.10292C112.559 9.04361 112.55 9.04691 112.43 9.06119C112.278 9.07986 112.117 9.07547 111.975 9.1183C111.95 9.12599 111.924 9.14685 111.924 9.16222C111.922 9.17211 111.961 9.18639 111.986 9.19518C112.07 9.22154 112.166 9.1831 112.25 9.21056C112.305 9.22813 112.351 9.25448 112.406 9.27315C112.428 9.28084 112.463 9.27975 112.493 9.27865C112.525 9.27755 112.556 9.26987 112.586 9.27097C112.614 9.27207 112.645 9.27865 112.668 9.28853C112.772 9.33027 112.882 9.36872 112.975 9.41814C113.066 9.46647 113.152 9.43352 113.243 9.43132C113.607 9.5082 113.607 9.5093 113.852 9.48514C113.913 9.47964 113.975 9.47306 114.038 9.47415C114.064 9.47415 114.089 9.49391 114.116 9.5049C114.192 9.53785 114.264 9.56751 114.37 9.54993C114.461 9.53456 114.558 9.53126 114.651 9.52137C114.776 9.50929 114.776 9.5093 114.989 9.57849C115.042 9.59606 115.099 9.59387 115.167 9.58509C115.226 9.5774 115.287 9.59387 115.329 9.62572C115.346 9.6389 115.34 9.66087 115.346 9.67954C115.158 9.69711 114.968 9.7092 114.786 9.73556C114.668 9.75203 114.615 9.7048 114.537 9.67954C114.511 9.67075 114.482 9.65208 114.457 9.65428C114.271 9.67076 114.085 9.68942 113.899 9.71138C113.877 9.71358 113.848 9.73884 113.846 9.75422C113.842 9.78277 113.89 9.81023 113.958 9.80913C114.049 9.80804 114.139 9.78936 114.22 9.83439C114.288 9.87393 114.374 9.89152 114.474 9.87394C114.535 9.86406 114.6 9.86405 114.66 9.85527C114.822 9.82891 114.968 9.8344 115.089 9.90909C115.182 9.92885 115.274 9.91019 115.363 9.9003C115.429 9.89262 115.494 9.88492 115.541 9.90579C115.642 9.94972 115.74 9.99366 115.879 9.964C116.029 9.99475 116.143 10.0596 116.268 10.1123C116.327 10.1375 116.372 10.1518 116.441 10.1353C116.469 10.1288 116.503 10.1287 116.534 10.1255C116.596 10.12 116.663 10.1035 116.72 10.1101C116.777 10.1178 116.824 10.1496 116.875 10.1694C116.9 10.1793 116.929 10.1957 116.953 10.1946C117.048 10.1892 117.141 10.1782 117.234 10.1694C117.327 10.1617 117.42 10.154 117.513 10.1463C117.591 10.1749 117.671 10.2034 117.748 10.232C117.874 10.2199 117.999 10.2078 118.122 10.1968C118.261 10.1837 118.261 10.1848 118.46 10.2529C118.549 10.2836 118.644 10.2638 118.73 10.2496C118.872 10.2265 118.967 10.2682 119.068 10.3122C119.089 10.321 119.126 10.3264 119.151 10.3221C119.25 10.3067 119.335 10.3188 119.407 10.3594C119.459 10.3879 119.51 10.4011 119.572 10.3956C119.791 10.3748 120.009 10.3528 120.227 10.3341C120.254 10.3319 120.284 10.3418 120.309 10.3506C120.502 10.4176 120.504 10.4209 120.647 10.4033C120.774 10.388 120.892 10.3814 120.992 10.4418C121.013 10.4549 121.045 10.4736 121.068 10.4725C121.224 10.4615 121.381 10.4495 121.535 10.4308C121.605 10.422 121.655 10.4253 121.71 10.4506C121.78 10.4824 121.843 10.5209 121.958 10.5066C122.279 10.4659 122.281 10.4725 122.661 10.5483C122.687 10.5538 122.723 10.545 122.754 10.5406C122.818 10.5296 122.866 10.545 122.922 10.5703C123.05 10.6274 123.053 10.6241 123.175 10.612C123.268 10.6021 123.365 10.5999 123.456 10.5835C123.596 10.5593 123.689 10.6021 123.794 10.6428C123.877 10.6746 123.974 10.6483 124.063 10.6384C124.16 10.6274 124.247 10.6307 124.319 10.6724C124.369 10.701 124.422 10.7164 124.485 10.7109C124.703 10.6911 124.921 10.6691 125.139 10.6494C125.166 10.6472 125.198 10.6559 125.223 10.6636C125.439 10.7317 125.439 10.735 125.654 10.7098C125.722 10.7021 125.779 10.6999 125.83 10.7229C125.88 10.7449 125.933 10.7658 125.984 10.7866C126.077 10.779 126.172 10.7768 126.263 10.7636C126.333 10.7537 126.383 10.7581 126.438 10.7812C126.51 10.8108 126.57 10.8624 126.684 10.8372C126.743 10.8251 126.811 10.8284 126.87 10.8174C126.941 10.8031 126.988 10.8119 127.043 10.8405C127.111 10.8745 127.182 10.9096 127.292 10.8921C127.413 10.8723 127.542 10.869 127.666 10.8536C127.734 10.8449 127.781 10.8536 127.836 10.8822C127.905 10.9184 127.983 10.9415 128.089 10.9272C128.305 10.8998 128.307 10.9053 128.518 10.9744C128.571 10.992 128.628 10.9898 128.696 10.981C128.755 10.9734 128.816 10.9898 128.858 11.0217C128.897 11.0568 128.894 11.0788 128.897 11.0975ZM111.984 1.19172C111.922 1.19722 111.859 1.20381 111.768 1.10825C111.762 1.09178 111.766 1.07201 111.753 1.05773C111.722 1.02808 111.675 1.00721 111.618 1.00392C111.515 0.999523 111.392 1.03686 111.394 1.06542C111.396 1.08958 111.428 1.11044 111.491 1.13021C111.517 1.1379 111.538 1.15108 111.563 1.15987C111.635 1.18513 111.692 1.23456 111.796 1.2093C111.777 1.14121 111.787 1.17525 111.796 1.2093C111.787 1.25104 111.815 1.28069 111.884 1.29277C111.903 1.29607 111.931 1.29387 111.946 1.28728C112.005 1.26311 112.015 1.23017 111.971 1.1434C111.963 1.15768 111.969 1.18294 111.986 1.18953C112.003 1.19612 112.045 1.19063 112.066 1.18294C112.119 1.16207 112.146 1.13461 112.132 1.11155C112.125 1.09947 112.089 1.08409 112.066 1.08409C112.026 1.08409 111.99 1.10825 111.984 1.19172ZM127.332 13.9289C127.193 13.9498 127.034 13.9421 126.895 13.9849C126.87 13.9926 126.846 14.0124 126.844 14.0278C126.842 14.0377 126.88 14.052 126.903 14.0596C126.954 14.0772 127.011 14.0717 127.077 14.0662C127.178 14.0585 127.237 14.1091 127.314 14.1343C127.339 14.142 127.371 14.1475 127.398 14.1453C127.552 14.1321 127.704 14.1179 127.857 14.1025C127.884 14.0992 127.912 14.0915 127.935 14.0816C128.011 14.0497 128.003 14.0289 127.929 14.0047C127.848 13.9784 127.783 13.9344 127.7 13.9136C127.58 13.8839 127.459 13.9234 127.332 13.9289ZM116.553 14.7307C116.46 14.7395 116.369 14.7483 116.276 14.7571C116.245 14.7604 116.213 14.7615 116.185 14.7659C116.126 14.7735 116.082 14.7966 116.054 14.8328C116.097 14.8614 116.15 14.8779 116.209 14.8746C116.302 14.868 116.393 14.8537 116.486 14.8504C116.587 14.846 116.646 14.8955 116.724 14.9207C116.748 14.9284 116.779 14.9295 116.807 14.9306C116.948 14.935 117.033 14.8779 117.006 14.7977C116.987 14.7351 116.915 14.6978 116.828 14.7055C116.737 14.7131 116.644 14.7219 116.553 14.7307ZM127.981 12.3056C128.003 12.2869 128.028 12.2738 128.04 12.2573C128.074 12.2013 128.06 12.1595 127.998 12.1156C127.922 12.0618 127.829 12.098 127.743 12.1035C127.723 12.1046 127.7 12.1277 127.688 12.142C127.681 12.1518 127.681 12.1727 127.692 12.1782C127.785 12.2221 127.884 12.2628 127.981 12.3056ZM111.515 9.06119C111.424 9.06997 111.331 9.07656 111.24 9.08864C111.217 9.09194 111.197 9.1128 111.183 9.12708C111.159 9.15344 111.185 9.18968 111.263 9.19298C111.352 9.19737 111.445 9.17871 111.538 9.16992C111.656 9.15893 111.726 9.11829 111.682 9.08315C111.641 9.0491 111.584 9.04251 111.515 9.06119ZM11.6063 6.71408C11.667 6.70859 11.7297 6.70419 11.7904 6.6965C11.8473 6.68881 11.891 6.66465 11.9195 6.62841C11.872 6.59985 11.8189 6.58447 11.76 6.58777C11.667 6.59436 11.5759 6.60314 11.4848 6.61413C11.4279 6.62072 11.3729 6.64488 11.3596 6.68222C11.3463 6.71078 11.4734 6.72726 11.6063 6.71408ZM103.489 6.54493C103.513 6.55482 103.538 6.57459 103.563 6.57459C103.624 6.57459 103.686 6.568 103.743 6.55701C103.768 6.55262 103.787 6.53285 103.798 6.51747C103.806 6.50759 103.804 6.49002 103.792 6.48124C103.737 6.42852 103.517 6.44719 103.481 6.50759C103.477 6.51858 103.487 6.53285 103.489 6.54493ZM97.5006 0.530534C97.5063 0.548107 97.5082 0.565678 97.5158 0.583251C97.531 0.616201 97.5727 0.640369 97.6334 0.656844C97.6809 0.629386 97.7056 0.598637 97.7037 0.565688C97.7018 0.548115 97.6961 0.53053 97.6885 0.512957C97.6733 0.480008 97.6316 0.455853 97.5708 0.439378C97.5234 0.465738 97.5006 0.496486 97.5006 0.530534ZM132.367 14.9218C132.35 14.9361 132.333 14.9504 132.314 14.9636C132.365 14.9954 132.413 15.0053 132.449 14.9877C132.471 14.9767 132.485 14.9603 132.502 14.946C132.45 14.9141 132.405 14.9053 132.367 14.9218ZM131.186 15.0712C131.211 15.0811 131.234 15.0943 131.26 15.1008C131.304 15.1118 131.344 15.0931 131.374 15.0536C131.35 15.0437 131.327 15.0305 131.3 15.024C131.257 15.013 131.217 15.0316 131.186 15.0712ZM131.934 14.8702C131.921 14.8966 131.948 14.9185 132.018 14.9372C132.035 14.9229 132.058 14.9097 132.069 14.8944C132.088 14.8691 132.056 14.846 131.987 14.8285C131.968 14.8416 131.951 14.8559 131.934 14.8702ZM127.928 13.6862C127.914 13.7126 127.941 13.7345 128.011 13.7532C128.028 13.7389 128.051 13.7257 128.062 13.7104C128.081 13.6851 128.049 13.662 127.981 13.6445C127.962 13.6576 127.945 13.6719 127.928 13.6862ZM122.469 5.9145C122.452 5.92878 122.435 5.94306 122.416 5.95623C122.467 5.98809 122.514 5.99797 122.55 5.98039C122.573 5.96941 122.587 5.95294 122.604 5.93866C122.552 5.90681 122.507 5.89802 122.469 5.9145ZM117.24 1.7914C117.285 1.79909 117.323 1.78372 117.356 1.74308C117.331 1.7332 117.308 1.72002 117.282 1.71343C117.238 1.70244 117.198 1.72112 117.168 1.76066C117.192 1.77164 117.217 1.78152 117.24 1.7914ZM114.463 1.5333C114.446 1.54758 114.429 1.56186 114.41 1.57504C114.461 1.60689 114.509 1.61677 114.545 1.5992C114.567 1.58821 114.581 1.57174 114.598 1.55746C114.547 1.52561 114.501 1.51792 114.463 1.5333ZM95.633 0.529435C95.6159 0.543713 95.5988 0.557992 95.5798 0.571171C95.6311 0.603023 95.6785 0.612904 95.7146 0.595331C95.7373 0.584348 95.7506 0.567873 95.7677 0.553595C95.7165 0.521743 95.6709 0.514058 95.633 0.529435ZM1.87331 9.46536C1.84863 9.45547 1.82398 9.4456 1.80121 9.43462C1.74616 9.46427 1.72909 9.49172 1.75946 9.51259C1.77844 9.52577 1.80688 9.53346 1.83156 9.54335C1.8885 9.51369 1.90178 9.48733 1.87331 9.46536Z" fill="#FFE492"/>
</svg>
