<svg width="244" height="29" viewBox="0 0 244 29" fill="none" xmlns="http://www.w3.org/2000/svg">
<path d="M229 14.9465C228.667 14.9701 228.329 14.9864 228.002 15.0219C227.79 15.0441 227.699 14.979 227.557 14.945C227.51 14.9332 227.459 14.9095 227.416 14.9124C227.085 14.9361 226.755 14.9627 226.424 14.9894C226.323 15.0471 226.259 15.124 226.104 15.1521C225.952 15.1787 225.773 15.1787 225.605 15.192C225.382 15.2083 225.16 15.2246 224.937 15.2394C224.826 15.2468 224.735 15.2749 224.698 15.3281C224.691 15.337 224.765 15.3592 224.806 15.3725C224.94 15.4169 225.072 15.4672 225.22 15.5012C225.362 15.5337 225.537 15.4805 225.689 15.5219C226.03 15.6151 226.033 15.6136 226.293 15.5959C226.515 15.5796 226.738 15.5618 226.96 15.55C227.004 15.5471 227.055 15.5692 227.102 15.5811C227.244 15.6136 227.335 15.6876 227.544 15.6595C227.702 15.6373 227.878 15.6328 228.043 15.621C228.181 15.6639 228.309 15.7127 228.458 15.7467C228.596 15.7793 228.636 15.8044 228.562 15.8473C228.495 15.8873 228.4 15.9036 228.275 15.9065C228.164 15.908 228.053 15.9213 227.942 15.9287C227.884 15.9331 227.83 15.9361 227.776 15.9405C227.564 15.9568 227.564 15.9568 227.176 15.8621C227.024 15.8252 226.852 15.8769 226.707 15.8414C226.61 15.8178 226.525 15.7823 226.431 15.7571C226.39 15.7468 226.326 15.7453 226.276 15.7482C226.107 15.7586 225.939 15.766 225.777 15.7852C225.662 15.7985 225.595 15.8399 225.608 15.8814C225.612 15.8976 225.692 15.9213 225.74 15.9228C225.848 15.9257 225.962 15.905 226.067 15.9154C226.168 15.9257 226.272 15.9553 226.347 15.9879C226.498 16.0559 226.67 15.9953 226.815 16.013C226.967 16.0322 227.092 16.0914 227.237 16.1269C227.274 16.1358 227.345 16.121 227.402 16.1166C227.567 16.1062 227.733 16.0973 227.898 16.087C228.036 16.1299 228.184 16.1683 228.309 16.2172C228.535 16.3059 228.778 16.3399 229.071 16.297C229.236 16.2734 229.398 16.2822 229.53 16.3399C229.665 16.3991 229.82 16.3932 229.992 16.3814C230.15 16.3695 230.312 16.337 230.474 16.3784C230.825 16.4701 230.828 16.4745 231.243 16.439C231.368 16.4287 231.462 16.4257 231.556 16.4598C231.644 16.4908 231.739 16.5174 231.83 16.547C231.995 16.5367 232.163 16.5263 232.329 16.5145C232.541 16.4982 232.659 16.5189 232.71 16.6018C232.74 16.6521 232.753 16.6979 232.828 16.7319C232.915 16.7734 233.01 16.7719 233.138 16.76C233.259 16.7497 233.347 16.7334 233.398 16.6802C233.418 16.658 233.458 16.6373 233.495 16.6195C233.526 16.6062 233.573 16.5855 233.6 16.5885C233.65 16.5944 233.718 16.6106 233.735 16.6299C233.9 16.8088 233.9 16.8103 234.069 16.8621C234.254 16.9198 234.446 16.9716 234.615 17.0367C234.767 17.0943 234.918 17.0692 235.084 17.0692C235.208 17.0692 235.289 17.1077 235.279 17.1461C235.272 17.1683 235.225 17.2009 235.185 17.2038C234.854 17.2334 234.52 17.2585 234.187 17.2793C234.146 17.2822 234.096 17.2556 234.048 17.2423C233.954 17.2156 233.87 17.1742 233.768 17.1653C233.667 17.1565 233.549 17.1787 233.438 17.1861C233.327 17.1935 233.209 17.2127 233.108 17.2009C233.006 17.189 232.925 17.1461 232.831 17.118C232.787 17.1047 232.727 17.0855 232.689 17.0899C232.443 17.1254 232.261 17.0766 232.086 17.0115C232.049 16.9982 231.985 16.9893 231.937 16.9923C231.546 17.0174 231.159 17.047 230.767 17.0751C230.609 17.0869 230.481 17.0352 230.447 16.9479C230.43 16.8991 230.396 16.8503 230.396 16.8015C230.396 16.7127 230.211 16.6639 230.076 16.6742C229.854 16.689 229.628 16.7009 229.408 16.7231C229.23 16.7408 229.078 16.7231 228.957 16.6698C228.815 16.6091 228.653 16.621 228.491 16.6373C228.37 16.6491 228.336 16.6979 228.343 16.8207C228.35 16.9198 228.292 16.9509 228.073 16.9671C227.797 16.9878 227.517 17.0086 227.237 17.0248C227.193 17.0278 227.142 17.0026 227.099 16.9893C227.004 16.9627 226.92 16.9198 226.819 16.9109C226.718 16.9006 226.6 16.9228 226.488 16.9316C226.377 16.939 226.259 16.9597 226.158 16.9494C226.057 16.939 225.972 16.8947 225.881 16.8666C225.837 16.8532 225.784 16.834 225.74 16.837C225.517 16.8488 225.295 16.8666 225.072 16.8828C224.822 16.9006 224.822 16.9006 224.468 16.8089C224.307 16.7674 224.145 16.8 223.986 16.8118C223.818 16.8237 223.659 16.8296 223.528 16.7704C223.44 16.7319 223.342 16.7083 223.238 16.7157C222.958 16.7334 222.681 16.7556 222.401 16.7734C222.354 16.7763 222.29 16.7689 222.253 16.7556C222.074 16.6935 221.899 16.6447 221.649 16.6757C221.434 16.7023 221.201 16.7038 220.985 16.729C220.867 16.7423 220.813 16.7896 220.837 16.8266C220.85 16.8458 220.921 16.868 220.968 16.868C221.076 16.8695 221.194 16.8473 221.295 16.8562C221.504 16.8739 221.609 16.9982 221.882 16.9642C222.044 16.9435 222.213 16.9361 222.381 16.9302C222.425 16.9287 222.472 16.9568 222.519 16.9716C222.654 17.0115 222.772 17.0633 222.968 17.0367C223.13 17.0159 223.302 17.01 223.467 16.9982C223.73 16.979 223.73 16.9805 224.071 17.0707C224.232 17.1136 224.394 17.0796 224.553 17.0692C224.671 17.0618 224.782 17.047 224.876 17.0677C225.021 17.0988 225.126 17.1698 225.305 17.1653C225.473 17.1609 225.638 17.1402 225.807 17.1328C225.912 17.1284 226.009 17.152 226.094 17.192C226.181 17.2319 226.276 17.2497 226.39 17.2408C226.556 17.229 226.724 17.2142 226.893 17.2068C226.94 17.2053 226.994 17.2186 227.038 17.2304C227.132 17.2571 227.223 17.2881 227.314 17.3162C227.48 17.3074 227.648 17.3044 227.81 17.2867C227.935 17.2733 228.023 17.2793 228.124 17.3088C228.252 17.3488 228.356 17.4198 228.565 17.3858C228.67 17.3695 228.791 17.3739 228.896 17.3591C229.024 17.3399 229.112 17.3473 229.203 17.3917C229.375 17.476 229.591 17.4775 229.813 17.4449C230.056 17.4094 230.238 17.4509 230.42 17.5159C230.612 17.584 230.612 17.5825 230.761 17.7467C230.804 17.794 230.929 17.8162 231.034 17.8074C231.209 17.7926 231.361 17.8 231.489 17.8562C231.624 17.9168 231.786 17.9094 231.951 17.8931C232.17 17.871 232.389 17.8517 232.568 17.9375C232.656 17.979 232.75 17.9893 232.868 17.9789C233.202 17.9523 233.539 17.9361 233.866 17.9035C234.065 17.8828 234.18 17.9301 234.315 17.9701C234.497 18.0248 234.696 18.0736 234.696 18.1905C234.696 18.2097 234.743 18.2319 234.783 18.2467C234.871 18.2778 234.966 18.3044 235.057 18.334C235.191 18.3783 235.323 18.4153 235.508 18.3917C235.67 18.3724 235.842 18.3665 236.007 18.3532C236.173 18.3399 236.324 18.3325 236.473 18.3887C236.645 18.4523 236.827 18.513 237.022 18.5603C237.161 18.5943 237.343 18.5366 237.491 18.5825C237.582 18.6106 237.67 18.6431 237.768 18.6668C237.808 18.6772 237.872 18.6698 237.926 18.6668C238.037 18.6609 238.152 18.6565 238.26 18.6417C238.385 18.6254 238.479 18.6283 238.574 18.6624C238.661 18.6934 238.749 18.7363 238.85 18.7452C239.002 18.7585 239.17 18.6993 239.322 18.7674C239.4 18.8014 239.498 18.834 239.599 18.8443C239.7 18.8547 239.818 18.8325 239.926 18.834C239.973 18.834 240.03 18.8576 240.057 18.8769C240.074 18.8872 240.051 18.9153 240.027 18.9301C239.997 18.9479 239.953 18.9715 239.909 18.9745C239.575 19.0011 239.241 19.0233 238.907 19.0485C238.708 19.0632 238.708 19.0632 238.307 18.9701C238.213 18.9479 238.108 18.9523 237.99 18.9626C237.832 18.976 237.67 19.0011 237.505 18.9745C237.289 18.8739 237.022 18.865 236.739 18.9035C236.621 18.9197 236.513 18.9198 236.426 18.8916C236.24 18.8354 236.045 18.7837 235.879 18.7171C235.751 18.6653 235.691 18.6609 235.637 18.7319C235.62 18.7541 235.603 18.7777 235.606 18.7985C235.626 18.8724 235.664 18.9449 235.684 19.0189C235.69 19.0396 235.664 19.0632 235.647 19.0854C235.593 19.1476 235.522 19.1431 235.404 19.0913C235.286 19.0396 235.144 19.0056 234.955 19.0292C234.794 19.0499 234.618 19.047 234.456 19.0692C234.207 19.1017 234.031 19.0544 233.853 18.9908C233.816 18.9774 233.752 18.9701 233.704 18.973C233.202 19.007 232.703 19.0455 232.201 19.0795C232.093 19.0869 231.995 19.0647 231.91 19.0248C231.823 18.9848 231.725 18.9641 231.617 18.9715C231.172 19.0026 230.727 19.0307 230.282 19.0692C230.1 19.0854 229.955 19.0662 229.83 19.0144C229.736 18.976 229.648 18.9641 229.53 18.9686C229.402 18.973 229.311 18.9878 229.247 19.0307C229.186 19.0721 229.23 19.0973 229.365 19.1298C229.51 19.1653 229.644 19.2112 229.783 19.2526C229.894 19.2467 230.005 19.2348 230.113 19.2363C230.16 19.2363 230.204 19.2629 230.251 19.2777C230.386 19.3206 230.511 19.3635 230.703 19.3399C230.865 19.3192 231.037 19.3147 231.202 19.3014C231.432 19.2851 231.432 19.2851 231.803 19.3783C231.897 19.402 231.998 19.4005 232.12 19.3872C232.224 19.3768 232.332 19.3975 232.406 19.4419C232.437 19.4597 232.426 19.4893 232.362 19.5869C232.362 19.6594 232.433 19.6268 232.457 19.5795C232.494 19.5115 232.423 19.4893 232.288 19.5263C232.194 19.5529 232.147 19.5913 232.17 19.6224C232.184 19.6387 232.248 19.6594 232.362 19.5869C232.659 19.4982 232.885 19.4878 233.101 19.4641C233.229 19.4508 233.31 19.4567 233.411 19.4952C233.532 19.541 233.654 19.5899 233.853 19.5662C234.069 19.5396 234.298 19.5366 234.517 19.5144C234.719 19.4937 234.824 19.5588 234.952 19.5973C235.107 19.6431 235.279 19.5913 235.421 19.618C235.569 19.6446 235.674 19.7097 235.846 19.7215C236.095 19.6816 236.254 19.7555 236.442 19.8044C236.591 19.8413 236.766 19.8088 236.925 19.7925C237.103 19.7748 237.252 19.791 237.377 19.8443C237.518 19.9049 237.677 19.8916 237.839 19.8783C238.216 19.8487 238.23 19.8443 238.449 19.9256C238.607 19.9848 238.759 19.9582 238.918 19.9508C239.056 19.9907 239.191 20.0336 239.336 20.0691C239.373 20.078 239.444 20.0632 239.501 20.0588C239.666 20.0469 239.835 20.0351 240 20.0233C240.111 20.0159 240.229 19.9937 240.33 20.0026C240.432 20.0129 240.516 20.0558 240.607 20.0839C240.698 20.112 240.792 20.1401 240.88 20.1697C241.015 20.2141 241.143 20.2511 241.332 20.2289C241.494 20.2097 241.662 20.2038 241.831 20.1904C242.043 20.1742 242.037 20.1786 242.431 20.2674C242.644 20.3162 242.863 20.257 243.079 20.2511C243.186 20.2481 243.291 20.2644 243.365 20.3073C243.396 20.3251 243.385 20.3546 243.396 20.3798C242.839 20.4197 242.279 20.4537 241.73 20.5026C241.517 20.5218 241.406 20.4685 241.291 20.4242C241.103 20.3531 240.853 20.4567 240.674 20.365C240.566 20.3102 240.411 20.2792 240.226 20.3058C240.118 20.3206 240.003 20.3191 239.892 20.3324C239.609 20.365 239.349 20.3665 239.123 20.2644C239.046 20.2289 238.934 20.2097 238.853 20.1756C238.759 20.1387 238.668 20.1179 238.557 20.1253C238.054 20.1608 237.555 20.1963 237.056 20.2348C237.012 20.2378 236.968 20.26 236.931 20.2762C236.837 20.3176 236.867 20.3502 237.019 20.3768C237.07 20.3857 237.11 20.4049 237.157 20.4197C237.248 20.4478 237.333 20.4922 237.434 20.5026C237.535 20.5129 237.653 20.4922 237.764 20.4848C237.876 20.4774 237.994 20.4552 238.095 20.4641C238.196 20.4745 238.28 20.5174 238.375 20.544C238.418 20.5573 238.472 20.5795 238.516 20.578C238.739 20.5691 238.958 20.5529 239.181 20.5395C239.319 20.5795 239.437 20.6372 239.602 20.6505C239.707 20.6594 239.818 20.6431 239.926 20.646C239.973 20.6475 240.034 20.6697 240.057 20.6889C240.071 20.7008 240.027 20.7304 239.993 20.7452C239.865 20.8014 239.69 20.791 239.531 20.8088C239.359 20.828 239.204 20.8221 239.073 20.7644C238.985 20.7259 238.887 20.7052 238.779 20.7126C238.499 20.7318 238.223 20.754 237.943 20.7703C237.896 20.7733 237.838 20.76 237.795 20.7496C237.441 20.6594 237.441 20.6564 237.191 20.6756C236.823 20.7037 236.824 20.7037 236.577 20.6253C236.53 20.6105 236.48 20.5824 236.439 20.5839C236.048 20.6076 235.66 20.6313 235.272 20.6653C235.144 20.6756 235.057 20.6756 234.962 20.6372C234.881 20.6046 234.787 20.5676 234.686 20.5588C234.581 20.5499 234.466 20.5721 234.355 20.5795C234.244 20.5869 234.126 20.6061 234.028 20.5943C233.927 20.5824 233.839 20.541 233.752 20.5114C233.661 20.4804 233.563 20.4818 233.438 20.4937C233.054 20.5277 233.05 20.5233 232.669 20.4316C232.625 20.4212 232.568 20.4094 232.521 20.4123C232.241 20.4301 231.964 20.4523 231.685 20.47C231.577 20.4774 231.472 20.4582 231.398 20.4153C231.368 20.3975 231.378 20.3679 231.357 20.3102C231.334 20.2969 231.361 20.3206 231.368 20.3428C231.418 20.3398 231.479 20.3428 231.516 20.331C231.61 20.3029 231.658 20.2659 231.634 20.2348C231.62 20.2185 231.556 20.1978 231.516 20.1978C231.442 20.1978 231.378 20.2304 231.357 20.3102C231.145 20.3591 230.919 20.3694 230.7 20.3931C230.572 20.4079 230.491 20.4005 230.39 20.362C230.268 20.3147 230.144 20.2688 229.945 20.2925C229.729 20.3191 229.499 20.3236 229.277 20.3443C229.021 20.368 228.909 20.2348 228.694 20.2378C228.471 20.2407 228.248 20.2659 228.026 20.2836C227.83 20.2984 227.83 20.2984 227.426 20.2023C227.277 20.1668 227.102 20.2185 226.957 20.1816C226.859 20.1579 226.775 20.1224 226.68 20.0972C226.64 20.0869 226.576 20.0869 226.525 20.0898C226.245 20.1076 225.962 20.1194 225.693 20.152C225.386 20.1904 225.153 20.149 224.934 20.0617C224.657 20.078 224.377 20.0869 224.104 20.115C223.905 20.1357 223.791 20.0869 223.656 20.047C223.609 20.0336 223.568 20.0114 223.518 20.0055C223.467 19.9996 223.406 20.0114 223.352 20.0159C223.13 20.0321 222.9 20.0396 222.685 20.0662C222.418 20.1002 222.317 19.9789 222.111 19.9641C221.973 20.0366 221.899 20.1357 221.626 20.1431C221.403 20.149 221.181 20.1727 220.958 20.189C220.847 20.1964 220.736 20.2052 220.624 20.2126C220.446 20.2259 220.361 20.2836 220.398 20.3724C220.419 20.4212 220.436 20.47 220.452 20.5188C220.486 20.6061 220.402 20.6801 220.26 20.6904C219.869 20.7185 219.481 20.7481 219.09 20.7733C218.986 20.7807 218.884 20.7555 218.8 20.7156C218.712 20.6756 218.615 20.6579 218.507 20.6653C218.116 20.6934 217.728 20.723 217.337 20.7481C217.293 20.7511 217.235 20.7363 217.192 20.7244C217.097 20.6978 217.006 20.6668 216.915 20.6387C216.693 20.652 216.473 20.6608 216.254 20.6786C215.9 20.7052 215.9 20.7067 215.641 20.6253C215.593 20.6105 215.546 20.5824 215.502 20.5839C215.334 20.5898 215.168 20.6046 215 20.6179C214.504 20.6564 214.504 20.6564 214.359 20.612C214.228 20.5706 214.11 20.5203 213.911 20.544C213.695 20.5706 213.466 20.5795 213.243 20.5943C213.078 20.6046 212.913 20.6165 212.747 20.6194C212.703 20.6209 212.656 20.5928 212.609 20.578C212.474 20.5321 212.343 20.4952 212.157 20.5203C212.049 20.5351 211.935 20.5381 211.823 20.5455C211.533 20.5662 211.533 20.5662 211.058 20.4774C211.011 20.4685 210.953 20.4582 210.906 20.4626C210.515 20.4892 210.127 20.5188 209.736 20.544C209.689 20.5469 209.632 20.5381 209.584 20.5307C209.052 20.4449 209.052 20.4449 208.485 20.4863C208.269 20.5011 208.263 20.507 208.037 20.4286C207.935 20.3946 207.851 20.3783 207.733 20.3887C207.288 20.4242 206.84 20.4478 206.398 20.4893C206.199 20.507 206.084 20.4626 205.949 20.4227C205.902 20.4094 205.852 20.3798 205.811 20.3813C205.366 20.4094 204.921 20.4434 204.476 20.4715C204.435 20.4745 204.385 20.4449 204.337 20.4316C204.246 20.4049 204.159 20.365 204.058 20.3561C203.953 20.3472 203.838 20.3694 203.724 20.3768C203.444 20.3961 203.444 20.3946 203.12 20.3073C203.076 20.2955 203.019 20.2792 202.975 20.2822C202.53 20.3117 202.082 20.3369 201.64 20.3798C201.387 20.4035 201.215 20.3605 201.036 20.2984C200.999 20.2851 200.935 20.2792 200.888 20.2822C200.385 20.3162 199.886 20.3546 199.384 20.3887C199.279 20.396 199.178 20.3709 199.094 20.3324C198.959 20.2718 198.801 20.2792 198.632 20.2925C198.244 20.3236 198.241 20.3221 198.012 20.2511C197.964 20.2363 197.924 20.2171 197.873 20.2097C197.826 20.2023 197.765 20.2067 197.715 20.2097C197.492 20.2245 197.27 20.2407 197.047 20.257C196.825 20.2733 196.599 20.2822 196.38 20.3073C196.11 20.3384 195.982 20.2422 195.793 20.1978C195.516 20.2171 195.233 20.2289 194.96 20.26C194.751 20.2836 194.653 20.2185 194.515 20.1845C194.468 20.1727 194.417 20.1475 194.373 20.1505C193.871 20.183 193.368 20.2185 192.869 20.2585C192.748 20.2674 192.667 20.2555 192.566 20.22C192.34 20.1401 192.33 20.1431 191.952 20.1727C191.787 20.186 191.628 20.1978 191.487 20.1372C191.362 20.0825 191.21 20.0691 191.032 20.0869C190.812 20.1091 190.586 20.1209 190.364 20.1357C190.141 20.152 189.919 20.1742 189.696 20.1816C189.518 20.1889 189.41 20.1194 189.268 20.0839C189.224 20.0736 189.163 20.0721 189.113 20.0751C188.89 20.0884 188.661 20.0987 188.445 20.1239C188.182 20.1549 188.037 20.0736 187.852 20.0262C187.811 20.0159 187.744 20.0218 187.693 20.0262C187.302 20.0529 186.914 20.0824 186.523 20.1106C186.385 20.0706 186.243 20.0322 186.105 19.9922C185.882 20.007 185.66 20.0233 185.437 20.0381C185.269 20.0499 185.097 20.0543 184.938 20.0765C184.733 20.1061 184.631 20.0366 184.493 20.0026C184.446 19.9907 184.395 19.9656 184.352 19.9685C184.072 19.9848 183.792 20.0026 183.515 20.0277C183.252 20.0529 183.148 19.9197 182.932 19.9212C182.709 19.9227 182.48 19.9419 182.264 19.9685C182.015 19.9996 181.839 19.9523 181.661 19.8887C181.624 19.8754 181.56 19.868 181.512 19.8709C181.232 19.8887 180.956 19.9109 180.676 19.9286C180.629 19.9316 180.572 19.9242 180.524 19.9153C179.992 19.828 179.992 19.8265 179.759 19.8443C179.594 19.8561 179.425 19.8709 179.256 19.8783C179.209 19.8813 179.152 19.868 179.108 19.8561C178.757 19.7659 178.757 19.7644 178.504 19.7822C178.282 19.7984 178.059 19.8147 177.837 19.831C177.699 19.791 177.557 19.7526 177.419 19.7126C177.142 19.7319 176.859 19.7467 176.586 19.7733C176.458 19.7851 176.373 19.7807 176.276 19.7437C176.154 19.6993 176.033 19.6476 175.83 19.6727C175.615 19.6993 175.385 19.7023 175.166 19.7245C174.903 19.7511 174.795 19.6165 174.583 19.618C174.36 19.6194 174.131 19.6387 173.915 19.6653C173.666 19.6964 173.49 19.649 173.312 19.5854C173.274 19.5721 173.21 19.5647 173.163 19.5677C172.549 19.6106 171.939 19.6535 171.325 19.6993C170.948 19.7274 170.948 19.7289 170.23 19.6475C170.179 19.6416 170.125 19.6357 170.074 19.6387C169.852 19.652 169.623 19.6623 169.407 19.6875C169.144 19.7186 168.999 19.6387 168.813 19.5899C168.773 19.5795 168.709 19.5854 168.655 19.5884C168.486 19.5987 168.321 19.6121 168.152 19.6239C167.93 19.6402 167.707 19.6564 167.485 19.6727C167.346 19.6342 167.205 19.5943 167.067 19.5558C166.79 19.5751 166.507 19.5854 166.234 19.6165C166.025 19.6402 165.927 19.578 165.789 19.5425C165.741 19.5307 165.691 19.5055 165.647 19.507C165.145 19.5396 164.642 19.5736 164.143 19.615C163.937 19.6328 163.843 19.5662 163.705 19.5322C163.657 19.5218 163.604 19.5026 163.56 19.5055C163.226 19.5263 162.892 19.5514 162.558 19.5765C162.369 19.5913 162.369 19.5913 161.958 19.4996C161.911 19.4893 161.857 19.4789 161.81 19.4819C160.751 19.5558 159.695 19.6342 158.637 19.7082C158.529 19.7156 158.431 19.6934 158.347 19.6535C158.259 19.6135 158.161 19.5928 158.053 19.6002C157.608 19.6313 157.16 19.6594 156.718 19.6979C156.536 19.7141 156.391 19.6949 156.266 19.6431C156.172 19.6046 156.084 19.5899 155.966 19.5987C155.743 19.6165 155.521 19.6313 155.298 19.6475C155.076 19.6638 154.853 19.6801 154.631 19.6964C154.408 19.7126 154.182 19.7215 153.963 19.7467C153.693 19.7777 153.562 19.686 153.376 19.6402C153.042 19.6623 152.709 19.6845 152.378 19.7082C151.933 19.7393 151.488 19.7733 151.043 19.8029C151.002 19.8058 150.952 19.7792 150.905 19.7659C150.766 19.7289 150.665 19.6771 150.459 19.6934C149.461 19.7718 148.456 19.8384 147.455 19.9153C147.246 19.9316 147.155 19.868 147.013 19.8339C146.966 19.8236 146.912 19.8029 146.868 19.8058C146.312 19.8428 145.755 19.8842 145.199 19.9242C144.973 19.9404 144.973 19.9404 144.595 19.8487C144.552 19.8384 144.494 19.8251 144.447 19.828C143.722 19.8783 143 19.9316 142.275 19.9833C142.168 19.9907 142.07 19.97 141.982 19.9301C141.898 19.8901 141.797 19.868 141.692 19.8754C141.024 19.9227 140.353 19.9685 139.689 20.0203C139.51 20.0351 139.362 20.0218 139.234 19.9685C139.143 19.9301 139.052 19.9138 138.937 19.9227C137.936 19.9952 136.934 20.0647 135.933 20.1416C135.741 20.1564 135.606 20.1283 135.484 20.0795C135.387 20.041 135.302 20.0336 135.181 20.0396C135.053 20.0469 134.975 20.0632 134.904 20.1076C134.813 20.1653 134.756 20.2378 134.54 20.2422C134.318 20.2466 134.092 20.2644 133.872 20.2896C133.663 20.3147 133.566 20.2481 133.434 20.2082C133.336 20.1801 133.245 20.1756 133.12 20.189C133.006 20.2008 132.935 20.2259 132.868 20.2733C132.719 20.3739 132.706 20.3739 132.524 20.3102C132.426 20.2762 132.338 20.2496 132.23 20.2555C131.785 20.2851 131.34 20.3176 130.895 20.3517C130.639 20.3709 130.635 20.3739 130.443 20.2999C130.349 20.2629 130.258 20.2452 130.146 20.254C128.922 20.3428 127.698 20.4286 126.474 20.5218C126.285 20.5366 126.157 20.5055 126.022 20.4611C125.979 20.4463 125.935 20.4256 125.884 20.4197C125.834 20.4138 125.776 20.4197 125.722 20.4227C124.832 20.4863 123.938 20.5469 123.052 20.6179C122.849 20.6342 122.741 20.5869 122.603 20.5484C122.556 20.5351 122.515 20.5144 122.465 20.5085C122.414 20.504 122.354 20.5144 122.3 20.5188C121.409 20.5824 120.516 20.6431 119.629 20.7141C119.417 20.7304 119.326 20.6682 119.187 20.6357C119.14 20.6239 119.09 20.6017 119.046 20.6046C118.766 20.6209 118.489 20.6431 118.209 20.6623C117.542 20.7111 116.874 20.757 116.206 20.8073C115.95 20.8265 115.839 20.6949 115.623 20.7008C115.343 20.7082 115.067 20.7378 114.787 20.7585C114.564 20.7747 114.342 20.7895 114.119 20.8073C113.9 20.8236 113.9 20.8236 113.354 20.7378C113.306 20.7304 113.249 20.72 113.202 20.723C112.423 20.7777 111.641 20.8324 110.865 20.8916C110.686 20.9049 110.538 20.8975 110.41 20.8428C110.319 20.8043 110.225 20.7851 110.113 20.794C108.943 20.8783 107.776 20.9626 106.606 21.0455C106.562 21.0484 106.505 21.0336 106.461 21.0218C106.367 20.9952 106.276 20.9641 106.185 20.936C106.117 20.97 106.03 21.0011 105.986 21.0395C105.925 21.0913 105.844 21.1061 105.716 21.115C105.588 21.1238 105.507 21.1209 105.406 21.0824C105.285 21.0351 105.16 20.9981 104.961 21.0129C103.737 21.1061 102.513 21.1904 101.289 21.2821C101.086 21.2969 100.992 21.2318 100.85 21.1978C100.803 21.1874 100.749 21.1712 100.705 21.1741C100.203 21.2082 99.7038 21.2451 99.2014 21.2806C97.8087 21.3812 96.4161 21.4774 95.0268 21.5839C94.7739 21.6031 94.6019 21.5661 94.4232 21.5025C94.3861 21.4892 94.3221 21.4818 94.2749 21.4848C92.3259 21.6238 90.3768 21.7644 88.4312 21.9049C88.3266 21.9123 88.2254 21.8886 88.1411 21.8502C88.0534 21.8102 87.9557 21.791 87.8478 21.7984C86.9576 21.862 86.0674 21.9256 85.1772 21.9907C84.9546 22.007 84.9512 22.0084 84.7219 21.9374C84.6747 21.9226 84.6242 21.8945 84.5871 21.8975C84.5095 21.9049 84.4353 21.9419 84.3814 21.9922C84.3274 22.0454 84.2431 22.0602 84.1183 22.0706C83.9902 22.0809 83.9059 22.0765 83.8081 22.041C83.6834 21.9966 83.5687 21.9537 83.3664 21.9685C80.807 22.1579 78.2476 22.3398 75.6883 22.5277C75.4826 22.5424 75.3882 22.4803 75.2465 22.4463C75.1993 22.4359 75.1521 22.4211 75.1016 22.4182C75.0476 22.4152 74.9903 22.4241 74.9363 22.4286C70.7618 22.7288 66.5872 23.0306 62.4127 23.3309C62.1632 23.3486 62.1665 23.3487 61.8934 23.4847C61.8597 23.501 61.8158 23.5232 61.7686 23.5261C60.4906 23.6208 59.2093 23.7125 57.9279 23.8043C57.3715 23.8442 56.8151 23.8856 56.2588 23.9241C56.0598 23.9374 56.0598 23.9374 55.5844 24.0972C55.5439 24.1105 55.4966 24.1282 55.4494 24.1312C53.2239 24.2924 50.9983 24.4537 48.7694 24.6119C48.5941 24.6238 48.4525 24.6504 48.3716 24.7214C48.3142 24.7717 48.2401 24.8013 48.1288 24.8102C46.5709 24.9226 45.0131 25.0365 43.4519 25.1459C43.2664 25.1593 43.1551 25.2007 43.064 25.2628C43.0337 25.2835 43.0067 25.3072 42.9628 25.322C42.9224 25.3353 42.8617 25.3397 42.8111 25.3442C41.4758 25.4403 40.1405 25.5394 38.8018 25.6311C38.6029 25.6445 38.5219 25.6992 38.4241 25.7569C38.3904 25.7761 38.3668 25.8027 38.3229 25.8161C38.2791 25.8279 38.215 25.8279 38.1611 25.8308C37.0483 25.9107 35.9356 25.9921 34.8228 26.072C34.607 26.0646 34.5598 26.1504 34.4552 26.2021C34.4182 26.2199 34.3912 26.2436 34.3474 26.2554C34.3002 26.2672 34.2394 26.2657 34.1821 26.2687C33.2919 26.3323 32.4017 26.4004 31.5081 26.4595C31.3024 26.4728 31.2619 26.5483 31.1507 26.6C31.1136 26.6163 31.0765 26.6415 31.0327 26.6459C30.4763 26.6888 29.9199 26.7287 29.3636 26.7672C29.1781 26.7805 29.1781 26.7791 28.851 26.9255C28.8139 26.9418 28.77 26.9595 28.7228 26.964C27.8899 27.0261 27.0537 27.0853 26.2174 27.1459C26.1095 27.1533 26.0354 27.1888 25.9814 27.2391C25.9275 27.2894 25.8499 27.3219 25.742 27.3293C25.0743 27.3781 24.4066 27.4284 23.739 27.4728C23.5535 27.4846 23.4321 27.5216 23.3512 27.5882C23.2905 27.6385 23.2163 27.6636 23.0983 27.6725C22.4307 27.7198 21.763 27.7716 21.092 27.8131C20.8964 27.8249 20.7952 27.8752 20.7143 27.9373C20.6502 27.9876 20.576 28.0054 20.4513 28.0142C19.2272 28.1 17.9998 28.1858 16.7792 28.2805C16.5735 28.2968 16.4689 28.245 16.334 28.208C16.1418 28.1562 15.9632 28.1 15.9632 27.9846C15.9632 27.9669 15.9058 27.9462 15.8654 27.9314C15.5652 27.8204 15.5652 27.8204 15.518 27.7021C15.4911 27.6296 15.4607 27.5557 15.4371 27.4817C15.3933 27.3604 15.2853 27.3293 14.9751 27.3515C14.8638 27.3589 14.7525 27.3693 14.6413 27.3752C14.476 27.3855 14.3513 27.3367 14.3209 27.248C14.3041 27.1991 14.2839 27.1503 14.267 27.1015C14.4356 27.0897 14.4322 27.0882 14.7289 26.9092C14.8537 26.8338 14.8538 26.8338 14.6144 26.7583C14.5233 26.7302 14.4356 26.6992 14.3378 26.6725C14.294 26.6607 14.2367 26.6533 14.1895 26.6563C13.9096 26.674 13.6331 26.6947 13.3566 26.7154C12.9115 26.748 12.9114 26.748 12.4596 26.5971C12.4225 26.5853 12.3652 26.5631 12.3719 26.5512C12.409 26.4965 12.5 26.4728 12.6147 26.4669C12.7833 26.458 12.9485 26.4432 13.1137 26.4314C13.225 26.424 13.3363 26.4152 13.4476 26.4078C13.5521 26.3515 13.6601 26.2968 13.7578 26.2391C13.913 26.1504 13.9129 26.1474 13.7005 26.0853C13.5656 26.0439 13.4206 26.0069 13.2823 25.9684C13.1171 25.9802 12.9485 25.9935 12.7833 26.0039C12.5742 26.0172 12.4899 25.9891 12.436 25.893C12.3888 25.8086 12.4461 25.7362 12.6079 25.7184C12.7732 25.7007 12.9283 25.6888 13.0126 25.6134C13.0936 25.5409 13.2352 25.5128 13.4105 25.5069C13.5218 25.5024 13.6331 25.4921 13.7443 25.4832C13.8893 25.4714 13.9669 25.3959 13.9366 25.3116C13.9197 25.2569 13.886 25.211 13.7545 25.1992C13.1711 25.1474 13.1643 25.1489 12.8743 25.0483C12.8474 25.0394 12.8272 25.0128 12.8373 24.9995C12.8542 24.9773 12.8913 24.9448 12.9317 24.9403C13.3195 24.9078 13.7073 24.8782 14.095 24.856C14.2232 24.8486 14.3176 24.8383 14.3615 24.7835C14.4221 24.7081 14.3952 24.6386 14.2772 24.5868C14.2401 24.5705 14.1793 24.5498 14.1388 24.5513C13.6937 24.5779 13.252 24.6119 12.8069 24.6386C12.7664 24.6415 12.6923 24.6164 12.6754 24.5971C12.6417 24.5616 12.6923 24.5143 12.8103 24.498C12.9654 24.4758 13.1239 24.4744 13.2284 24.4004C13.3734 24.2954 13.5521 24.1992 13.714 24.0986C13.7409 24.0809 13.7848 24.0468 13.7747 24.0439C13.6904 24.0113 13.5926 23.9862 13.5049 23.9551C13.3566 23.9034 13.3565 23.8309 13.3903 23.7614C13.4172 23.7052 13.5184 23.683 13.6432 23.683C13.6971 23.683 13.7646 23.683 13.8084 23.6697C13.923 23.6371 13.9601 23.5957 13.9028 23.5646C13.8691 23.5469 13.8084 23.5217 13.768 23.5247C13.0464 23.5735 12.3213 23.6208 11.6031 23.6815C11.3906 23.6992 11.2929 23.643 11.1648 23.6031C11.067 23.572 10.9759 23.5602 10.8545 23.5824C10.7399 23.6031 10.6286 23.5913 10.5578 23.5424C10.5005 23.5025 10.6016 23.4685 10.8748 23.43C10.9253 23.4226 10.9826 23.4182 11.0197 23.4034C11.4109 23.2436 11.4109 23.2421 11.6806 23.2214C11.9436 23.2022 11.9437 23.2007 12.082 23.1149C12.146 23.075 12.2168 23.035 12.2775 22.9936C12.3011 22.9774 12.3416 22.9478 12.3281 22.9389C12.2539 22.893 12.1527 22.8827 12.0347 22.893C11.7717 22.9182 11.4615 22.8975 11.3233 23.038C11.2693 23.0913 11.185 23.1061 11.0636 23.1149C9.84294 23.2007 8.62223 23.2924 7.39819 23.3753C7.19924 23.3886 7.10824 23.4433 7.03069 23.504C6.96325 23.5543 6.88905 23.5691 6.76091 23.5779C6.63277 23.5868 6.53156 23.5913 6.45738 23.5424C6.41354 23.5129 6.45065 23.4714 6.55181 23.43C6.6968 23.3708 6.66981 23.2969 6.62261 23.2274C6.58889 23.1815 6.48436 23.149 6.37308 23.1519C6.20785 23.1578 6.04941 23.1741 5.91116 23.1149C5.83023 23.0809 5.72905 23.0572 5.638 23.0276C5.46266 22.967 5.28731 22.9049 5.04115 22.9448C4.87255 22.93 4.75453 22.8768 4.61965 22.8353C4.39372 22.7673 4.37349 22.7569 4.53535 22.6845C4.71744 22.6031 4.57578 22.4966 4.67695 22.4167C4.78485 22.3309 4.93327 22.2555 5.06478 22.1756C5.0985 22.1549 5.12886 22.1357 5.16258 22.115C5.08502 22.0854 5.01422 22.0484 4.92318 22.0277C4.80516 22.0011 4.74446 21.9685 4.7512 21.8768C4.7276 21.8635 4.73764 21.8975 4.76462 21.9064C4.79497 21.9152 4.86921 21.9079 4.9063 21.8975C5.00072 21.8694 5.04788 21.8324 5.02427 21.8013C5.01078 21.7851 4.94677 21.7644 4.9063 21.7644C4.83212 21.7644 4.76806 21.7969 4.74783 21.8768C4.37016 21.9374 3.97894 21.967 3.58779 21.9907C3.54733 21.9937 3.49678 21.9641 3.44957 21.9493C3.29445 21.899 3.29443 21.9005 2.83921 21.8857C2.792 21.8842 2.72797 21.8635 2.70436 21.8428C2.60658 21.7525 2.60997 21.6534 2.56277 21.5573C2.65044 21.4951 2.73804 21.4345 2.82909 21.3738C3.01118 21.2511 3.24727 21.1431 3.38889 21.0085C3.35855 20.936 3.31807 20.8635 3.46644 20.8043C3.88795 20.7304 3.8846 20.7304 3.99925 20.6594C4.32633 20.4582 4.65003 20.2555 4.9906 20.0573C5.08165 20.0055 5.08166 19.9774 4.9198 19.9552C4.86922 19.9493 4.8152 19.9478 4.76125 19.9508C4.59264 19.9612 4.42405 19.9878 4.25882 19.9819C4.09359 19.9774 3.9722 19.9123 3.83732 19.8724C3.69906 19.831 3.56082 19.7881 3.42256 19.7452C3.26408 19.7496 3.10562 19.791 2.94714 19.7245C2.82575 19.6727 2.67402 19.6357 2.53576 19.5928C2.6403 19.4804 2.8359 19.3946 2.98764 19.2955C3.1259 19.2052 3.12919 19.2067 3.50011 19.1372C3.67546 19.1047 3.73616 18.9375 3.58779 18.8887C3.40907 18.8295 3.22028 18.7748 3.03819 18.7186C2.87971 18.723 2.71788 18.763 2.56614 18.6964C2.44812 18.6461 2.31321 18.6121 2.11764 18.6313C1.78718 18.6638 1.44999 18.6801 1.11616 18.7067C1.00151 18.7156 0.876708 18.7097 0.826128 18.6594C0.792408 18.6239 0.890203 18.5751 1.00148 18.5647C1.17008 18.5499 1.3218 18.5322 1.4061 18.4582C1.48703 18.3843 1.63539 18.3621 1.81073 18.3517C1.85794 18.3488 1.91193 18.331 1.93553 18.3133C2.05693 18.2275 2.19182 18.1535 2.45146 18.1565C2.55937 18.1269 2.61666 18.0899 2.58294 18.0544C2.5627 18.0352 2.49193 18.01 2.45146 18.013C2.17159 18.0278 1.89172 18.0426 1.61858 18.0692C1.49045 18.081 1.39261 18.084 1.31168 18.0396C1.25435 18.01 1.2847 17.9701 1.3926 17.9272C1.48702 17.8902 1.51403 17.8473 1.50728 17.797C1.49042 17.6801 1.38924 17.6461 1.06553 17.6535C0.832859 17.6594 0.775531 17.6402 0.724951 17.5396C0.711463 17.5159 0.677802 17.4834 0.701406 17.4671C0.846403 17.3665 0.940826 17.2423 1.21396 17.1949C1.32186 17.1772 1.43647 17.1772 1.50391 17.1387C1.57135 17.1003 1.63207 17.0559 1.70289 17.0189C1.79056 16.9745 1.85119 16.9331 1.81073 16.905C1.74329 16.8547 1.63542 16.8503 1.51066 16.868C1.40275 16.8828 1.28811 16.8843 1.17683 16.8932C0.977882 16.9094 0.816061 16.871 0.792457 16.8059C0.728389 16.6343 0.660929 16.4642 0.603604 16.2926C0.59686 16.2719 0.613674 16.2453 0.64065 16.2275C0.735067 16.1654 0.836267 16.1062 0.934055 16.0456C1.0487 15.976 1.23082 15.9894 1.38594 15.976C1.60512 15.9568 1.60504 15.9583 1.89841 15.8163C2.01305 15.7601 2.21201 15.7823 2.33003 15.732C2.36713 15.7157 2.42445 15.6891 2.41433 15.6743C2.40085 15.655 2.33344 15.6402 2.28286 15.6314C2.23565 15.6225 2.17834 15.6181 2.12776 15.6225C1.51406 15.6654 0.903737 15.7112 0.29003 15.7527C0.185497 15.7601 0.0708453 15.7275 0.0337531 15.6817C-0.00333909 15.6388 0.00674403 15.587 0 15.5382C0.0977885 15.4775 0.209022 15.4213 0.293323 15.3562C0.357391 15.3059 0.431589 15.2837 0.559725 15.2808C0.728326 15.2763 0.893571 15.2586 1.0824 15.2453C1.43309 15.0293 1.77702 14.803 2.15468 14.587C2.30642 14.4997 2.26939 14.411 2.29974 14.3178C2.33009 14.232 2.556 14.2453 2.70774 14.2202C2.82913 14.1995 2.86954 14.1521 2.82234 14.1196C2.79536 14.1003 2.7347 14.0781 2.68749 14.0781C2.57621 14.0781 2.46494 14.0915 2.35366 14.0989C2.24238 14.1062 2.11425 14.1018 2.02321 14.127C1.93554 14.1506 1.87818 14.2009 1.82086 14.2438C1.75679 14.2912 1.67255 14.3074 1.54441 14.3104C1.37918 14.3134 1.21396 14.3267 1.04873 14.337C0.866645 14.2793 0.677772 14.2231 0.502427 14.1625C0.468707 14.1506 0.461927 14.1166 0.465299 14.0944C0.472043 14.0367 0.421476 14.0012 0.310199 13.9731C0.215783 13.9495 0.13822 13.9154 0.0505473 13.8858C0.117988 13.8459 0.192198 13.8074 0.246151 13.7645C0.364171 13.6743 0.512556 13.6092 0.76883 13.6122C0.86999 13.5545 0.950896 13.4835 1.0824 13.4436C1.20717 13.4051 1.41962 13.4435 1.51403 13.3563C1.56124 13.3134 1.63209 13.2645 1.72314 13.2468C1.86813 13.2187 2.05696 13.2335 2.14126 13.1507C2.19184 13.1033 2.266 13.0604 2.36379 13.0486C2.47506 13.0353 2.58968 13.0323 2.67061 13.0042C2.71445 12.9894 2.76166 12.9658 2.76166 12.945C2.76166 12.9317 2.69427 12.911 2.64707 12.9021C2.60323 12.8918 2.54584 12.8844 2.49526 12.8873C2.32666 12.8962 2.16143 12.9125 1.99283 12.9214C1.94562 12.9243 1.89169 12.914 1.84111 12.9051C1.69274 12.8814 1.70284 12.8519 1.82086 12.7986C1.93888 12.7468 2.02322 12.6802 2.12101 12.6196C2.22892 12.6092 2.36378 12.6137 2.43796 12.5856C2.56273 12.5397 2.65038 12.4731 2.75154 12.4155C2.86281 12.4066 2.97745 12.4036 3.08199 12.3874C3.12582 12.3814 3.14607 12.3489 3.18316 12.3297C3.2506 12.2927 3.30798 12.2394 3.39902 12.2217C3.54739 12.1951 3.72947 12.2054 3.81715 12.124C3.86773 12.0767 3.94525 12.0264 4.03967 12.0235C4.30269 12.0176 4.41397 11.9362 4.54885 11.8593C4.65001 11.8016 4.86582 11.8312 4.9771 11.7735C5.05128 11.7365 5.10527 11.6906 5.17945 11.6551C5.2098 11.6403 5.27385 11.6329 5.32443 11.6285C5.60093 11.6063 5.8808 11.59 6.15731 11.5664C6.20114 11.5619 6.24164 11.5397 6.27536 11.522C6.34617 11.4835 6.38996 11.4303 6.47763 11.4051C6.5653 11.38 6.69005 11.38 6.79796 11.3726C7.14527 11.3504 7.17228 11.3563 7.33076 11.2306C7.4589 11.1285 7.77254 11.201 7.87707 11.0886C7.93776 11.0235 8.04899 10.9702 8.24794 10.9628C8.52782 10.9525 8.80432 10.9244 9.08419 10.9051C9.33372 10.8874 9.33036 10.8874 9.60012 10.7498C9.72152 10.6877 9.90027 10.6966 10.0588 10.6847C10.2274 10.6729 10.3825 10.6552 10.4634 10.5812C10.5443 10.5087 10.6927 10.485 10.8646 10.4747C11.0231 10.4643 11.2019 10.4717 11.3266 10.4126C11.6301 10.2705 11.6268 10.2691 11.8392 10.2543C12.173 10.2306 12.5068 10.2069 12.8407 10.1818C13.0632 10.1655 13.2959 10.1626 13.5049 10.13C13.6567 10.1063 13.7241 10.0235 13.8219 9.96582C14.0984 9.94363 14.3749 9.92143 14.6514 9.90072C15.0392 9.87114 15.4303 9.84452 15.8215 9.81641C15.9901 9.7602 16.0137 9.63594 16.297 9.63002C16.4656 9.62706 16.6308 9.60784 16.7994 9.596C17.0793 9.57529 17.3558 9.54867 17.6357 9.53831C17.8481 9.53091 17.8851 9.45103 17.9964 9.40073C18.0335 9.38298 18.0673 9.35784 18.1111 9.3534C18.5495 9.31199 19.0013 9.30311 19.4295 9.24246C19.4734 9.23654 19.5138 9.20547 19.5239 9.18329C19.5307 9.17145 19.4734 9.14927 19.4363 9.13892C19.3924 9.12708 19.3351 9.11525 19.2879 9.11821C17.8953 9.21732 16.5027 9.31791 15.11 9.41702C14.9145 9.43181 14.9145 9.43032 14.439 9.59304C14.3985 9.60636 14.3513 9.62114 14.3007 9.62558C14.0781 9.64333 13.8522 9.6537 13.633 9.67589C13.4543 9.69364 13.306 9.67587 13.1779 9.62262C13.0868 9.58416 12.9924 9.57233 12.8777 9.57529C12.7496 9.57973 12.6653 9.59601 12.5911 9.63595C12.4934 9.69068 12.4428 9.76168 12.2371 9.77647C11.2895 9.84008 10.3419 9.91108 9.39777 9.97913C9.26626 9.95842 9.2022 9.92736 9.23592 9.89037C9.25615 9.86819 9.29663 9.8386 9.3371 9.83564C9.72488 9.80458 10.116 9.77796 10.5038 9.74837C10.5578 9.74393 10.6319 9.74688 10.6623 9.73208C10.8106 9.66552 10.8647 9.55753 11.1445 9.55014C11.3064 9.5457 11.4716 9.52352 11.6267 9.50281C11.6705 9.49689 11.711 9.46583 11.7211 9.44364C11.7245 9.4318 11.6705 9.40961 11.6301 9.39925C11.4817 9.35635 11.3098 9.40814 11.1614 9.37856C11.1108 9.3682 11.04 9.3534 11.0299 9.33565C11.0231 9.31938 11.0804 9.29275 11.1209 9.27648C11.158 9.26169 11.2085 9.24838 11.2591 9.24394C11.7042 9.20992 12.1494 9.17441 12.5945 9.14779C12.7766 9.13743 12.9047 9.10044 12.9856 9.0324C13.0463 8.9821 13.1205 8.95549 13.2352 8.94809C14.0141 8.89336 14.793 8.83271 15.5753 8.78241C15.7709 8.77058 15.8721 8.72177 15.953 8.65816C16.0171 8.60787 16.0913 8.59011 16.2161 8.58124C17.3322 8.50432 18.4416 8.41852 19.5577 8.34456C19.7634 8.33125 19.8241 8.26764 19.9287 8.2129C19.9657 8.19367 19.9893 8.17 20.0365 8.15817C20.0837 8.14634 20.1444 8.1478 20.2017 8.14485C21.0919 8.08124 21.9822 8.0132 22.8758 7.95403C23.0849 7.94072 23.1253 7.86675 23.2332 7.81497C23.2703 7.7987 23.304 7.77208 23.3478 7.76765C24.0155 7.71735 24.6831 7.67002 25.3508 7.6212C25.7959 7.58866 26.241 7.55611 26.6861 7.52504C26.9053 7.51025 26.9053 7.50876 27.202 7.36824C27.2358 7.35196 27.283 7.33273 27.3268 7.32829C28.6082 7.23362 29.8862 7.1434 31.1675 7.05021C31.2754 7.04281 31.353 7.00877 31.4069 6.95848C31.4609 6.90818 31.5385 6.87416 31.643 6.86677C32.6445 6.7928 33.646 6.72032 34.6509 6.6508C34.8329 6.63897 34.961 6.60346 35.042 6.53689C35.1027 6.4866 35.1769 6.45998 35.2915 6.45258C36.293 6.38158 37.2945 6.30613 38.2994 6.23808C38.4916 6.22477 38.586 6.17448 38.6804 6.11531C38.7141 6.0946 38.7411 6.06057 38.7816 6.05762C39.2806 6.0162 39.7763 5.9733 40.2787 5.94519C40.4878 5.93336 40.5586 5.87122 40.6429 5.81205C40.7104 5.76472 40.7879 5.74845 40.9161 5.74253C41.196 5.72922 41.4725 5.70408 41.7456 5.67894C41.7861 5.6745 41.8366 5.64195 41.84 5.62124C41.8468 5.58278 41.7692 5.55615 41.641 5.54284C40.3057 5.63899 38.9671 5.73513 37.6317 5.83129C37.4126 5.84756 37.4126 5.84757 37.1158 5.9881C37.0821 6.00437 37.0348 6.0236 36.9876 6.02804C35.7063 6.12123 34.4283 6.21295 33.1469 6.30614C33.039 6.31354 32.9615 6.34756 32.9075 6.39785C32.8536 6.44815 32.776 6.48217 32.6714 6.48957C31.4474 6.57832 30.2234 6.66856 28.996 6.75288C28.8139 6.76471 28.6858 6.79872 28.6048 6.86677C28.5442 6.91706 28.47 6.9437 28.3553 6.95109C27.1852 7.03393 26.0185 7.1212 24.845 7.20108C24.727 7.20847 24.6394 7.16558 24.6461 7.12564C24.6495 7.10493 24.7 7.07092 24.7404 7.06796C25.3508 7.01914 25.9578 6.96884 26.5715 6.93186C26.7772 6.92003 26.8379 6.85494 26.9424 6.80021C26.9761 6.78098 27.0031 6.75583 27.0469 6.74547C27.0941 6.73364 27.1548 6.73512 27.2122 6.73217C28.6588 6.62714 30.1054 6.52064 31.5554 6.42153C31.7644 6.40673 31.8048 6.33424 31.9127 6.28247C31.9498 6.26472 31.9836 6.2381 32.0274 6.23514C32.4725 6.19964 32.9176 6.16857 33.3627 6.1375C34.1417 6.08129 34.9206 6.02508 35.7029 5.96886C35.9288 5.95259 35.9288 5.95259 36.2188 5.81354C36.2525 5.79726 36.2998 5.77657 36.3436 5.77361C38.4039 5.62421 40.4642 5.4748 42.5245 5.32687C42.6325 5.31948 42.71 5.28545 42.7639 5.23516C42.8179 5.18634 42.8954 5.15084 43 5.14196C45.7853 4.94079 48.5672 4.7396 51.3525 4.54138C51.5345 4.52807 51.6627 4.497 51.7436 4.42747C51.8009 4.37718 51.8785 4.35056 51.9931 4.34168C55.0549 4.12127 58.1167 3.90087 61.1819 3.67898C63.2422 3.53105 65.3025 3.38017 67.3628 3.2352C67.5516 3.22189 67.6527 3.17602 67.7472 3.11537C67.7775 3.09466 67.8079 3.06064 67.8483 3.05768C68.2901 3.0207 68.7318 2.98668 69.1735 2.95266C69.3118 2.9926 69.45 3.03107 69.5883 3.07101C69.6928 3.01479 69.794 2.9571 69.8986 2.90089C70.5662 2.85799 71.2237 2.79142 71.8981 2.77071C71.942 2.76923 71.9892 2.79734 72.0364 2.81214C72.35 2.90533 72.5287 2.89793 72.7276 2.77367C72.7985 2.7293 72.8591 2.68936 72.967 2.68196C73.3009 2.65533 73.6381 2.63758 73.9686 2.60652C74.1473 2.59025 74.2956 2.60503 74.4238 2.65829C74.5148 2.69675 74.6093 2.71303 74.7206 2.70415C75.3343 2.65978 75.9446 2.61687 76.5583 2.56954C76.6021 2.56658 76.6425 2.54142 76.6763 2.52367C76.7471 2.48521 76.8078 2.4438 76.8752 2.40386C76.9663 2.42901 77.0675 2.44824 77.1416 2.48078C77.2361 2.51924 77.3237 2.51924 77.4518 2.50888C79.8999 2.32989 82.3514 2.15534 84.7995 1.97487C85.0085 1.96008 85.0996 2.02221 85.2412 2.05476C85.2884 2.06659 85.3356 2.08138 85.3862 2.08434C85.4402 2.08729 85.4975 2.07843 85.5514 2.07399C87.3892 1.94086 89.227 1.80919 91.0647 1.67606C91.3075 1.65831 91.3075 1.65831 91.6683 1.75002C91.7122 1.76186 91.7695 1.77517 91.8167 1.77073C92.6529 1.71304 93.4892 1.65092 94.3221 1.59175C94.43 1.58435 94.521 1.60802 94.6188 1.64204C94.811 1.70861 94.8245 1.70861 94.9661 1.61098C95.0335 1.56512 95.1043 1.537 95.2156 1.52369C95.337 1.5089 95.4348 1.51335 95.5293 1.53998C95.6641 1.57696 95.7619 1.63908 95.9676 1.62281C96.8579 1.55328 97.7514 1.4956 98.6383 1.42459C98.8406 1.40832 98.9485 1.45861 99.0834 1.49559C99.1306 1.50891 99.1744 1.52962 99.225 1.53406C99.2756 1.53849 99.3363 1.52813 99.3902 1.52369C100.503 1.44381 101.619 1.36543 102.728 1.27963C102.938 1.26336 103.029 1.32695 103.17 1.3595C103.217 1.37133 103.271 1.39205 103.315 1.38909C103.983 1.34324 104.654 1.29441 105.322 1.24559C105.561 1.22784 105.561 1.22932 105.925 1.31955C105.969 1.33139 106.026 1.34322 106.074 1.34027C106.853 1.28553 107.635 1.22932 108.414 1.17311C108.653 1.15536 108.653 1.15536 109.344 1.23228C109.395 1.2382 109.449 1.24709 109.5 1.24413C110.39 1.18052 111.283 1.11838 112.173 1.05034C112.352 1.03702 112.501 1.04885 112.629 1.10211C112.72 1.14057 112.814 1.15685 112.925 1.14797C113.927 1.07549 114.932 1.00597 115.93 0.929046C116.122 0.914253 116.247 0.946784 116.382 0.989682C116.426 1.00447 116.469 1.02519 116.52 1.03111C116.571 1.03702 116.628 1.0311 116.682 1.02666C117.683 0.95418 118.688 0.886137 119.686 0.807737C119.889 0.791465 119.997 0.841757 120.131 0.878738C120.179 0.892051 120.229 0.918679 120.27 0.9172C120.661 0.892053 121.052 0.869872 121.44 0.83289C121.649 0.812181 121.74 0.880214 121.882 0.912758C121.929 0.923113 121.983 0.945312 122.027 0.942354C122.863 0.884663 123.699 0.824018 124.532 0.761889C124.65 0.753013 124.738 0.766314 124.832 0.804775C124.957 0.856549 125.102 0.877259 125.284 0.860988C125.672 0.826965 126.063 0.803303 126.454 0.775197C126.683 0.758925 126.683 0.75893 127.385 0.835852C127.435 0.841769 127.489 0.850638 127.54 0.847679C128.207 0.800343 128.878 0.754489 129.543 0.702715C129.721 0.687923 129.87 0.701232 129.998 0.754485C130.089 0.792946 130.18 0.809227 130.295 0.800351C130.908 0.755973 131.519 0.711592 132.133 0.667214C132.355 0.650943 132.578 0.622829 132.8 0.622829C132.962 0.624309 133.08 0.69531 133.225 0.730812C133.266 0.741167 133.333 0.729347 133.387 0.726388C134.166 0.670177 134.948 0.618397 135.724 0.554789C135.926 0.538518 136.034 0.588809 136.169 0.625791C136.216 0.639104 136.267 0.665732 136.307 0.664253C136.587 0.647981 136.863 0.62579 137.143 0.60656C137.477 0.582892 137.814 0.565141 138.145 0.532597C138.415 0.50597 138.516 0.634661 138.732 0.639099C138.897 0.643537 139.065 0.618394 139.231 0.60656C139.564 0.582892 139.898 0.556268 140.232 0.535558C140.35 0.528162 140.441 0.504484 140.478 0.451231C140.485 0.440876 140.428 0.418696 140.391 0.405383C139.942 0.254499 139.942 0.254492 139.49 0.287035C139.21 0.307745 138.934 0.328458 138.654 0.346209C138.607 0.349168 138.553 0.337334 138.506 0.328459C138.371 0.303311 138.384 0.273729 138.499 0.220476C138.613 0.167223 138.701 0.102141 138.799 0.0414918C138.937 0.0799524 139.072 0.118399 139.21 0.15686C139.322 0.149464 139.433 0.140601 139.544 0.133205C140.101 0.0947443 140.657 0.0548015 141.213 0.0192993C141.254 0.0163408 141.304 0.0459303 141.352 0.0607228C141.486 0.103621 141.608 0.140593 141.803 0.124321C142.303 0.0814223 142.805 0.0503579 143.304 0.0133765C143.523 -0.00289532 143.523 -0.00289387 143.908 0.08882C143.951 0.0991748 144.009 0.11101 144.056 0.108051C144.558 0.0740282 145.057 0.0370511 145.56 0.00154895C145.668 -0.00584733 145.772 0.0133823 145.85 0.0562807C145.88 0.0740318 145.873 0.103611 146.002 0.346209C146.399 0.54295 146.673 0.522251 146.949 0.5045C147.067 0.497103 147.172 0.4897 147.249 0.460115C147.29 0.443843 147.34 0.420171 147.34 0.400941C147.34 0.386148 147.266 0.362476 147.219 0.359517C146.885 0.329932 146.568 0.39207 146.241 0.405383C146.089 0.4113 145.958 0.359525 145.931 0.275208C145.924 0.25154 145.914 0.226394 145.904 0.202726C145.894 0.179058 145.887 0.153912 145.877 0.130244C145.745 0.122847 145.668 0.14947 145.61 0.199764C145.563 0.241183 145.496 0.28852 145.405 0.310708C145.314 0.334377 145.189 0.329947 145.078 0.337343C144.97 0.344739 144.852 0.363968 144.751 0.353613C144.649 0.341779 144.568 0.298873 144.474 0.272246C144.43 0.258933 144.376 0.23971 144.332 0.242668C143.945 0.267816 143.56 0.292954 143.176 0.325497C142.974 0.343249 142.872 0.281129 142.744 0.242668C142.643 0.213083 142.542 0.22047 142.525 0.288516C142.481 0.451234 142.636 0.519276 142.98 0.488212C143.264 0.461585 143.52 0.457161 143.742 0.557751C143.773 0.571064 143.843 0.576979 143.887 0.57402C144.164 0.556269 144.437 0.534078 144.713 0.516327C144.764 0.513369 144.818 0.519276 144.865 0.525193C145.553 0.605073 145.553 0.606561 145.786 0.588809C145.897 0.579934 146.005 0.572537 145.995 0.34769C146.207 0.106571 146.545 0.0903022 146.872 0.0548C147.084 0.0326112 147.175 0.0977013 147.313 0.131724C147.36 0.143558 147.411 0.167222 147.455 0.164264C148.18 0.115448 148.902 0.0636669 149.623 0.0089344C149.745 5.88594e-05 149.832 0.00893584 149.927 0.0473965C150.048 0.096212 150.183 0.127283 150.375 0.109532C150.759 0.0740296 151.151 0.0518458 151.542 0.0222607C151.741 0.00746814 151.741 0.00745298 152.142 0.0991669C152.186 0.109522 152.243 0.121356 152.29 0.118398C152.682 0.0932506 153.069 0.0621956 153.457 0.035569C153.565 0.0281727 153.663 0.0488801 153.747 0.08882C153.831 0.12876 153.933 0.149467 154.037 0.142071C154.428 0.115444 154.816 0.0858687 155.204 0.0592421C155.251 0.0562836 155.308 0.0666377 155.352 0.0769925C155.764 0.168706 155.764 0.168691 155.952 0.153899C156.229 0.13171 156.512 0.121367 156.785 0.0917814C157.052 0.0621963 157.19 0.147986 157.372 0.195322C157.871 0.161299 158.373 0.133201 158.869 0.0917814C159.072 0.0740304 159.179 0.122841 159.314 0.161302C159.362 0.174615 159.409 0.202724 159.453 0.201245C159.621 0.195328 159.786 0.179059 159.952 0.167225C160.117 0.155391 160.285 0.143558 160.451 0.131724C160.64 0.174623 160.764 0.275211 161.034 0.241188C161.196 0.220478 161.368 0.21604 161.533 0.204206C161.698 0.192372 161.867 0.18054 162.032 0.168706C162.143 0.161309 162.258 0.156865 162.366 0.143552C162.565 0.121363 162.663 0.193855 162.804 0.226399C162.852 0.236754 162.906 0.254493 162.949 0.251535C163.283 0.230825 163.62 0.213075 163.947 0.179053C164.2 0.152426 164.372 0.196809 164.551 0.258938C164.588 0.272251 164.652 0.279647 164.699 0.276688C165.091 0.251541 165.478 0.220468 165.866 0.193841C165.971 0.186445 166.072 0.210113 166.156 0.248573C166.244 0.288513 166.342 0.307758 166.449 0.300362C166.837 0.273735 167.228 0.244141 167.616 0.217515C167.663 0.214556 167.721 0.226392 167.765 0.238226C168.142 0.32994 168.142 0.331421 168.365 0.31367C168.419 0.309232 168.476 0.306262 168.53 0.301824C168.807 0.281115 169.093 0.273729 169.363 0.238226C169.673 0.198286 169.899 0.248583 170.118 0.332901C170.395 0.31515 170.678 0.304793 170.948 0.275208C171.15 0.253019 171.258 0.309228 171.393 0.346209C171.44 0.359522 171.491 0.386149 171.531 0.383191C171.922 0.358043 172.313 0.335862 172.698 0.298881C172.907 0.278171 172.998 0.344726 173.14 0.378749C173.187 0.390583 173.237 0.411303 173.281 0.408344C173.504 0.39651 173.726 0.378751 173.949 0.362479C174.209 0.343249 174.208 0.344726 174.552 0.434961C174.714 0.477859 174.876 0.443835 175.035 0.43348C175.203 0.421646 175.362 0.412774 175.497 0.473423C175.581 0.511884 175.682 0.535553 175.787 0.529636C176.009 0.516322 176.235 0.503015 176.454 0.480827C176.63 0.463076 176.781 0.474903 176.909 0.529636C177.001 0.568096 177.095 0.587338 177.206 0.578463C177.705 0.54296 178.208 0.505965 178.707 0.471942C178.751 0.468984 178.811 0.482302 178.852 0.495616C178.946 0.522242 179.037 0.551821 179.128 0.581406C179.347 0.568093 179.573 0.562191 179.789 0.541481C180.018 0.520772 180.228 0.513373 180.406 0.594732C180.443 0.612483 180.497 0.637617 180.541 0.636138C180.71 0.630221 180.875 0.615432 181.04 0.603598C181.205 0.591764 181.374 0.579932 181.539 0.568098C181.731 0.605079 181.853 0.711584 182.123 0.677561C182.285 0.656852 182.456 0.652414 182.622 0.64058C182.787 0.628746 182.956 0.615434 183.121 0.605079C183.175 0.602121 183.235 0.59472 183.283 0.600637C183.333 0.606554 183.377 0.627268 183.421 0.642061C183.556 0.684959 183.681 0.727862 183.873 0.702715C184.035 0.682006 184.207 0.677566 184.372 0.664253C184.598 0.647981 184.598 0.647984 184.972 0.741177C185.124 0.779638 185.296 0.729345 185.441 0.761889C185.538 0.784078 185.623 0.821051 185.717 0.846199C185.758 0.856553 185.822 0.860985 185.869 0.858026C186.091 0.844713 186.317 0.831406 186.537 0.809217C186.715 0.791466 186.864 0.809215 186.988 0.862468C187.08 0.900929 187.171 0.917209 187.285 0.908334C187.842 0.866915 188.398 0.831401 188.951 0.785544C189.14 0.769272 189.292 0.794426 189.396 0.847679C189.575 0.939393 189.828 0.83141 190.013 0.905373C190.128 0.951229 190.242 1.00449 190.452 0.982297C190.836 0.943836 191.227 0.923115 191.615 0.896488C191.753 0.936428 191.891 0.976377 192.033 1.01632C192.256 1.00004 192.478 0.983763 192.701 0.96897C192.866 0.957136 193.034 0.943825 193.2 0.93347C193.254 0.930511 193.311 0.924593 193.362 0.931989C193.412 0.939385 193.453 0.95862 193.5 0.973413C193.733 1.0459 193.732 1.04738 194.117 1.0178C194.282 1.00448 194.441 0.995609 194.579 1.05478C194.707 1.10951 194.859 1.11986 195.034 1.10359C195.365 1.074 195.698 1.05182 196.036 1.03111C196.14 1.02371 196.238 1.04886 196.326 1.08732C196.457 1.14797 196.619 1.14205 196.784 1.12578C197.003 1.10507 197.219 1.08437 197.405 1.1672C197.442 1.18495 197.499 1.21009 197.54 1.20861C197.816 1.19678 198.096 1.18791 198.366 1.1598C198.635 1.13169 198.767 1.22341 198.952 1.26778C199.229 1.24855 199.509 1.22932 199.785 1.21009C199.839 1.20565 199.903 1.19235 199.95 1.19974C200.149 1.23081 200.264 1.34175 200.537 1.30773C200.696 1.2885 200.868 1.28259 201.033 1.27815C201.077 1.27667 201.134 1.3018 201.164 1.32103C201.181 1.33139 201.164 1.35949 201.144 1.37429C201.083 1.4157 201.009 1.45418 200.955 1.49708C200.949 1.50299 201.013 1.52961 201.05 1.54144C201.141 1.56807 201.245 1.56364 201.367 1.55181C201.471 1.54145 201.579 1.56216 201.653 1.60654C201.684 1.62429 201.674 1.65387 201.609 1.7515C201.609 1.82399 201.68 1.79144 201.704 1.7441C201.741 1.67605 201.67 1.65387 201.535 1.69085C201.441 1.71747 201.394 1.75594 201.417 1.787C201.431 1.80328 201.495 1.82399 201.609 1.7515C201.906 1.66275 202.129 1.64648 202.351 1.63021C202.409 1.62577 202.476 1.61097 202.517 1.61985C202.662 1.65535 202.797 1.69825 202.938 1.73819C203.1 1.72932 203.252 1.70712 203.41 1.76481C203.633 1.84617 203.643 1.83878 203.859 1.8225C203.97 1.81363 204.081 1.80625 204.193 1.79885C204.304 1.79145 204.391 1.81364 204.489 1.84766C204.688 1.91718 204.705 1.91718 204.837 1.8225C204.914 1.76481 204.968 1.74559 205.066 1.77221C205.39 1.86245 205.393 1.86836 205.669 1.84174C205.899 1.81955 206.115 1.81363 206.283 1.89795C206.398 1.95712 206.435 1.94381 206.526 1.88168C206.769 1.71748 206.88 1.72043 207.335 1.83877C207.548 1.89499 207.767 1.83434 207.983 1.82695C208.165 1.82103 208.293 1.85653 208.306 1.94972C208.316 2.00741 208.347 2.04884 208.468 2.06807C208.515 2.07546 208.573 2.08581 208.62 2.08285C208.9 2.0651 209.176 2.04439 209.456 2.02368C209.598 2.01333 209.675 1.94381 209.648 1.8521C209.618 1.75447 209.672 1.71895 209.874 1.69085C209.996 1.67458 210.094 1.67755 210.191 1.70417C210.299 1.73376 210.269 1.76038 210.174 1.81364C209.949 1.94381 209.976 2.02368 210.266 2.11391C210.367 2.14498 210.448 2.1731 210.471 2.21895C210.485 2.24262 210.471 2.27368 210.502 2.29144C210.667 2.39055 210.896 2.45416 211.152 2.5015C211.398 2.46156 211.567 2.52811 211.756 2.58136C211.904 2.62278 212.08 2.58729 212.238 2.5725C212.417 2.55623 212.565 2.56805 212.693 2.62279C212.784 2.66125 212.879 2.67899 212.99 2.6716C213.213 2.65532 213.439 2.64497 213.658 2.62131C213.847 2.6006 213.988 2.63019 214.106 2.68048C214.255 2.74409 214.42 2.70118 214.575 2.71006C214.784 2.72041 214.889 2.85206 215.162 2.81656C215.324 2.79585 215.492 2.78846 215.661 2.78254C215.705 2.78106 215.758 2.80621 215.796 2.82396C215.974 2.90532 216.183 2.90088 216.413 2.87721C216.571 2.86094 216.726 2.84616 216.881 2.90237C217.138 2.99704 217.421 3.07989 217.691 3.16716C217.728 3.23521 217.701 3.31507 217.893 3.35501C217.994 3.37572 218.089 3.4068 218.166 3.44082C218.261 3.48076 218.348 3.49112 218.47 3.48076C218.689 3.46005 218.918 3.4556 219.134 3.42897C219.333 3.40531 219.458 3.45414 219.579 3.49999C219.677 3.53698 219.768 3.55472 219.886 3.52809C220.007 3.50294 220.095 3.51921 220.193 3.55915C220.331 3.61388 220.341 3.60797 220.8 3.62425C220.847 3.62573 220.904 3.6479 220.931 3.66713C220.945 3.67749 220.914 3.70709 220.891 3.72188C220.86 3.73963 220.813 3.76033 220.769 3.76477C220.27 3.80323 219.768 3.83725 219.269 3.87571C219.218 3.88015 219.164 3.89052 219.127 3.90531C219.087 3.92158 219.036 3.94376 219.036 3.96446C219.036 3.97926 219.104 3.99701 219.151 4.00737C219.299 4.04139 219.475 3.98962 219.619 4.02808C219.717 4.05323 219.798 4.08872 219.896 4.11239C219.936 4.12275 220.001 4.12127 220.051 4.11831C220.22 4.10796 220.385 4.09317 220.554 4.08429C220.601 4.08281 220.655 4.09761 220.699 4.10945C221.022 4.1982 221.022 4.1982 221.302 4.17897C221.413 4.17157 221.531 4.14938 221.636 4.15826C221.737 4.16713 221.825 4.20707 221.916 4.23222C222.105 4.28547 222.283 4.33724 222.297 4.45263C222.304 4.497 222.415 4.53546 222.526 4.53842C222.634 4.54138 222.749 4.52512 222.86 4.51624C223.123 4.49849 223.123 4.49849 223.464 4.58872C223.558 4.61387 223.659 4.61683 223.781 4.60203C223.828 4.59612 223.885 4.60204 223.936 4.60944C224.101 4.63163 224.101 4.65972 223.993 4.71298C223.841 4.79138 223.855 4.79878 224.28 4.86535C224.441 4.89049 224.566 4.93783 224.701 4.97925C224.92 5.04582 224.917 5.0458 224.772 5.13308C224.738 5.15231 224.708 5.17303 224.674 5.19374C224.576 5.25143 224.499 5.31355 224.296 5.31947C224.074 5.32539 223.851 5.34906 223.629 5.36533C223.413 5.38161 223.356 5.41709 223.376 5.51768C223.399 5.63898 223.443 5.6523 223.831 5.65082C223.942 5.65082 224.04 5.66265 224.124 5.70259C224.084 5.74993 224.01 5.78691 223.902 5.79578C223.625 5.81797 223.346 5.83721 223.069 5.85644C222.847 5.87271 222.624 5.88898 222.401 5.90525C222.263 5.9156 222.175 5.99253 222.213 6.07833C222.233 6.12714 222.25 6.17596 222.266 6.22477C222.304 6.3224 222.374 6.34756 222.6 6.34312C222.658 6.34164 222.712 6.3298 222.766 6.33276C222.985 6.34311 223.089 6.46589 223.352 6.44074C223.571 6.42003 223.801 6.4156 224.017 6.38897C224.216 6.3653 224.327 6.41857 224.465 6.45851C224.512 6.47182 224.563 6.49991 224.603 6.49843C224.883 6.48216 225.163 6.4659 225.436 6.4378C225.564 6.42596 225.642 6.43483 225.743 6.47033C225.986 6.55613 225.993 6.55169 226.353 6.52507C226.616 6.50436 226.62 6.50731 226.957 6.59755C227.051 6.6227 227.153 6.62269 227.274 6.61086C227.432 6.59606 227.598 6.5724 227.763 6.59459C227.813 6.6005 227.878 6.61826 227.894 6.63749C227.905 6.6508 227.857 6.68335 227.817 6.6937C227.52 6.77063 227.173 6.75731 226.849 6.78838C226.748 6.79725 226.647 6.76914 226.562 6.7292C226.475 6.68926 226.38 6.673 226.266 6.6804C226.043 6.69667 225.817 6.70702 225.598 6.73069C225.409 6.75139 225.278 6.71737 225.146 6.67151C225.102 6.65672 225.052 6.62861 225.008 6.63009C224.509 6.65967 224.007 6.68927 223.511 6.73069C223.312 6.74844 223.197 6.7011 223.062 6.66116C223.015 6.64785 222.968 6.61974 222.924 6.62122C222.755 6.62714 222.59 6.64341 222.422 6.65524C221.808 6.69962 221.198 6.744 220.584 6.78542C220.543 6.78838 220.493 6.75731 220.446 6.74399C220.355 6.71737 220.26 6.69222 220.166 6.66707C219.997 6.6789 219.832 6.69369 219.663 6.70257C219.542 6.70849 219.434 6.72921 219.417 6.78542C219.407 6.8224 219.518 6.85642 219.636 6.85346C219.751 6.8505 219.866 6.83275 219.96 6.85198C220.429 6.94665 220.429 6.94813 220.722 6.9289C220.978 6.91115 220.951 6.89635 221.177 6.97771C221.275 7.01321 221.363 7.03393 221.474 7.02506C221.751 7.00435 222.03 6.98363 222.31 6.96588C222.354 6.96292 222.411 6.97772 222.455 6.98955C222.786 7.07831 222.786 7.08126 223.059 7.05908C223.416 7.03245 223.43 7.02505 223.669 7.11529C223.835 7.17742 223.986 7.13452 224.145 7.13156C224.327 7.18925 224.526 7.24103 224.691 7.30612C224.887 7.38304 225.092 7.36971 225.315 7.34752C225.48 7.33125 225.642 7.32534 225.777 7.38599C225.905 7.4422 226.06 7.44812 226.235 7.43333C226.394 7.42002 226.556 7.3919 226.721 7.42445C226.765 7.43332 226.832 7.45552 226.829 7.46883C226.825 7.48954 226.782 7.51913 226.738 7.52801C226.428 7.58866 226.087 7.58717 225.76 7.61528C225.716 7.61972 225.659 7.60344 225.615 7.5916C225.521 7.56498 225.429 7.53392 225.338 7.50581C225.173 7.51469 225.005 7.51764 224.843 7.53539C224.718 7.54871 224.624 7.54724 224.532 7.51174C224.448 7.47919 224.357 7.43924 224.256 7.42889C224.155 7.41854 224.037 7.44073 223.926 7.4496C223.814 7.45848 223.686 7.45403 223.598 7.4777C223.511 7.50137 223.457 7.55315 223.4 7.59457C223.335 7.64042 223.248 7.65522 223.12 7.65966C223.002 7.6641 222.907 7.65818 222.82 7.61676C222.782 7.59901 222.732 7.58569 222.681 7.57385C222.634 7.5635 222.58 7.54722 222.536 7.55018C222.034 7.5842 221.535 7.6212 221.032 7.6567C220.783 7.67445 220.786 7.67444 220.267 7.58716C220.22 7.57977 220.162 7.56942 220.115 7.57237C219.835 7.59012 219.559 7.61084 219.279 7.63155C218.996 7.65226 218.999 7.6493 218.517 7.5561C218.429 7.53835 218.301 7.56202 218.197 7.55907C217.977 7.55167 217.869 7.42741 217.613 7.45108C217.394 7.47179 217.165 7.47623 216.945 7.50285C216.746 7.52652 216.632 7.47475 216.497 7.43481C216.45 7.4215 216.399 7.39191 216.359 7.39487C215.856 7.42741 215.357 7.4644 214.69 7.46883C214.524 7.46883 214.599 7.4999 214.706 7.51026C214.862 7.52653 214.912 7.49546 214.828 7.43629C214.767 7.39487 214.679 7.37415 214.609 7.3845C214.572 7.39042 214.524 7.41854 214.69 7.46883C214.865 7.52504 214.855 7.5561 214.885 7.57385C214.959 7.61675 215.064 7.6345 215.172 7.62859C215.34 7.61823 215.506 7.60344 215.674 7.59457C215.721 7.59161 215.779 7.60196 215.823 7.6138C216.194 7.70551 216.197 7.71143 216.591 7.67593C216.716 7.66558 216.807 7.66558 216.905 7.69368C217.04 7.73214 217.138 7.79722 217.343 7.77651C217.617 7.74841 217.896 7.73215 218.176 7.71588C218.22 7.71292 218.267 7.73954 218.318 7.75138C218.456 7.78688 218.557 7.85344 218.763 7.82534C218.921 7.80315 219.093 7.79722 219.262 7.79278C219.306 7.7913 219.373 7.81497 219.394 7.8342C219.434 7.86823 219.383 7.90818 219.269 7.93628C219.222 7.94812 219.158 7.94515 219.104 7.94959C218.881 7.96586 218.658 7.98361 218.436 7.99692C218.318 8.00432 218.207 8.02651 218.193 8.08125C218.183 8.11823 218.304 8.15076 218.419 8.14781C218.588 8.14337 218.756 8.13154 218.918 8.11231C219.205 8.07976 219.454 8.08863 219.687 8.18183C219.852 8.24691 219.842 8.22326 220.017 8.41556C220.061 8.46438 220.193 8.46881 220.307 8.46585C220.584 8.45845 220.712 8.48065 220.688 8.5265C220.658 8.58272 220.56 8.60046 220.436 8.60785C220.213 8.61969 219.99 8.63893 219.768 8.6552C219.714 8.65964 219.653 8.6685 219.603 8.66555C219.552 8.66259 219.505 8.64484 219.461 8.63153C219.367 8.60342 219.286 8.56051 219.184 8.55016C219.083 8.53981 218.965 8.562 218.854 8.57087C218.743 8.57827 218.625 8.60046 218.524 8.5901C218.422 8.57975 218.338 8.53538 218.247 8.50875C218.203 8.49544 218.149 8.47472 218.105 8.4762C217.883 8.48803 217.66 8.50727 217.438 8.52206C217.165 8.54129 217.165 8.54129 216.834 8.44958C216.74 8.42295 216.642 8.42444 216.517 8.43627C216.247 8.45994 216.244 8.45549 215.752 8.36969C215.705 8.36082 215.647 8.35047 215.6 8.35491C215.098 8.38893 214.599 8.42591 214.099 8.46141C213.671 8.49247 213.671 8.49249 213.435 8.64041C213.26 8.74988 213.256 8.74987 213.428 8.80016C213.567 8.84158 213.691 8.90223 213.843 8.92442C213.985 8.94513 214.16 8.87856 214.315 8.94661C214.393 8.98063 214.494 9.01762 214.592 9.02353C214.747 9.03093 214.912 8.98802 215.061 9.05311C215.135 9.08565 215.246 9.11969 215.34 9.12117C215.506 9.12413 215.674 9.10045 215.839 9.09009C215.89 9.08713 215.947 9.08714 215.995 9.09453C216.045 9.10341 216.089 9.12117 216.133 9.13596C216.268 9.18625 216.413 9.20991 216.588 9.18477C216.875 9.14335 217.131 9.16406 217.354 9.25873C217.384 9.27204 217.458 9.27353 217.505 9.26761C217.627 9.25282 217.731 9.25134 217.822 9.27944C217.859 9.29128 217.913 9.31198 217.906 9.32529C217.896 9.34748 217.856 9.37707 217.812 9.38446C217.495 9.43476 217.155 9.44068 216.827 9.46731C216.784 9.47027 216.73 9.45103 216.686 9.43771C216.591 9.41109 216.51 9.36672 216.409 9.35637C216.308 9.34601 216.19 9.36524 216.079 9.37263C215.968 9.38003 215.85 9.40222 215.748 9.39335C215.647 9.38299 215.553 9.346 215.472 9.31346C215.377 9.27648 215.286 9.27205 215.162 9.28684C215 9.30608 214.831 9.30903 214.666 9.31938C214.575 9.29128 214.484 9.2602 214.389 9.23358C214.346 9.22026 214.292 9.204 214.245 9.20548C214.022 9.21731 213.799 9.23505 213.577 9.25133C213.354 9.2676 213.354 9.26761 212.977 9.1759C212.933 9.16555 212.875 9.15371 212.828 9.15667C212.548 9.17442 212.272 9.19659 211.992 9.21434C211.884 9.22174 211.786 9.20103 211.699 9.16109C211.614 9.12115 211.513 9.09897 211.409 9.10636C210.963 9.13743 210.518 9.16702 210.073 9.204C209.895 9.21879 209.743 9.20548 209.621 9.15223C209.48 9.09158 209.321 9.10637 209.156 9.11821C208.782 9.14779 208.778 9.1463 208.539 9.07086C208.492 9.05607 208.445 9.02796 208.401 9.02944C208.013 9.05163 207.622 9.07234 207.237 9.10784C207.035 9.12707 206.927 9.0753 206.792 9.03684C206.745 9.02353 206.695 8.99542 206.654 8.99838C206.374 9.01465 206.094 9.02945 205.821 9.05903C205.548 9.08862 205.443 8.95105 205.238 8.95253C204.958 8.95401 204.681 8.98803 204.405 9.00874C204.182 9.02502 203.96 9.04128 203.737 9.05755C203.515 9.07382 203.292 9.08713 203.07 9.10636C202.952 9.11672 202.864 9.1034 202.766 9.06642C202.641 9.0176 202.493 8.97916 202.358 8.93478C202.152 8.87117 202.152 8.87116 201.903 8.88892C201.849 8.89335 201.792 8.89631 201.738 8.90074C201.33 8.93329 201.33 8.93034 200.81 8.83714C200.787 8.83271 200.726 8.84898 200.702 8.86082C200.632 8.89928 200.568 8.94069 200.504 8.98063C200.413 8.95696 200.301 8.94365 200.241 8.90963C200.069 8.81348 199.799 8.94513 199.623 8.85045C199.559 8.81495 199.448 8.78389 199.347 8.77501C199.242 8.76613 199.124 8.78685 199.016 8.79572C198.737 8.81791 198.737 8.81643 198.497 8.94809C198.376 9.01318 198.2 9.00134 198.042 9.01613C197.877 9.0324 197.718 9.04128 197.58 8.98063C197.455 8.9259 197.303 8.91259 197.125 8.93034C196.906 8.95253 196.68 8.96583 196.457 8.97915C196.41 8.98211 196.353 8.97472 196.305 8.96584C195.789 8.87856 195.789 8.87709 195.54 8.89632C195.429 8.90519 195.314 8.90814 195.206 8.92145C195.024 8.94512 194.886 8.91406 194.754 8.86672C194.71 8.85193 194.66 8.82384 194.616 8.82532C194.393 8.83271 194.174 8.84602 193.955 8.85934C193.786 8.86969 193.618 8.87561 193.456 8.89632C193.186 8.93034 193.055 8.83418 192.869 8.7898C192.593 8.80903 192.313 8.82235 192.036 8.84897C191.908 8.86081 191.824 8.85638 191.726 8.82088C191.601 8.7765 191.487 8.7262 191.284 8.74839C191.015 8.77798 190.731 8.78833 190.455 8.80609C190.269 8.76023 190.135 8.66702 189.868 8.70105C189.706 8.72176 189.534 8.72619 189.369 8.73803C189.147 8.7543 188.924 8.7691 188.701 8.78685C188.462 8.80461 188.465 8.80017 188.098 8.71289C187.885 8.66112 187.666 8.71881 187.45 8.72768C187.282 8.73508 187.198 8.80312 187.238 8.8904C187.278 8.97767 187.187 9.04572 187.032 9.05755C186.644 9.08566 186.253 9.11523 185.866 9.14038C185.818 9.14334 185.761 9.13299 185.717 9.12263C185.302 9.02944 185.302 9.03093 185.117 9.04424C184.84 9.06643 184.557 9.07826 184.284 9.10636C184.095 9.12559 183.957 9.09454 183.836 9.04424C183.741 9.00578 183.654 8.99691 183.532 9.00578C182.197 9.10489 180.861 9.1966 179.53 9.29867C179.331 9.31347 179.216 9.27057 179.081 9.23063C179.034 9.21732 178.99 9.18921 178.943 9.18921C178.832 9.18921 178.72 9.20253 178.609 9.2114C178.11 9.2469 177.611 9.2898 177.108 9.31642C176.896 9.32826 176.839 9.39631 176.748 9.45252C176.677 9.49542 176.596 9.51316 176.471 9.51908C176.35 9.525 176.262 9.5176 176.168 9.47914C176.046 9.42884 175.908 9.39777 175.719 9.41848C175.5 9.44215 175.277 9.45252 175.051 9.46879C174.937 9.47619 174.849 9.50281 174.812 9.55606C174.805 9.56494 174.876 9.58713 174.917 9.60045C175.052 9.64482 175.18 9.6966 175.331 9.72766C175.486 9.75872 175.655 9.72321 175.817 9.71433C175.874 9.71138 175.928 9.70251 175.982 9.70399C176.033 9.70547 176.094 9.71287 176.131 9.72618C176.306 9.79275 176.491 9.8386 176.734 9.79866C176.943 9.81789 177.051 9.94067 177.318 9.90812C177.479 9.88889 177.648 9.88002 177.817 9.87262C177.86 9.87114 177.908 9.89777 177.955 9.91109C178.09 9.94807 178.198 10.0072 178.4 9.98209C178.616 9.95546 178.845 9.95103 179.064 9.93032C179.186 9.91848 179.273 9.92884 179.368 9.9673C179.489 10.0161 179.627 10.0531 179.816 10.0294C179.978 10.0087 180.15 10.0043 180.315 9.99095C180.531 9.97468 180.531 9.97616 180.915 10.0679C180.959 10.0782 181.017 10.0901 181.064 10.0871C181.344 10.0694 181.62 10.0472 181.9 10.0294C182.008 10.022 182.113 10.0412 182.187 10.0841C182.217 10.1019 182.207 10.1315 182.217 10.1566C181.661 10.1966 181.104 10.2306 180.551 10.2794C180.342 10.2986 180.248 10.238 180.11 10.204C180.062 10.1921 180.012 10.167 179.968 10.17C179.577 10.1951 179.189 10.2217 178.801 10.2543C178.68 10.2646 178.589 10.2587 178.498 10.2158C178.265 10.1019 177.982 10.164 177.719 10.1803C177.516 10.1921 177.452 10.238 177.476 10.3356C177.506 10.451 177.628 10.4865 177.938 10.4658C178.049 10.4584 178.161 10.4481 178.272 10.4421C178.38 10.4362 178.478 10.4554 178.565 10.4954C178.649 10.5353 178.751 10.556 178.855 10.5501C179.078 10.5368 179.304 10.5235 179.519 10.5013C179.698 10.4836 179.847 10.4983 179.971 10.5531C180.11 10.6137 180.271 10.6004 180.433 10.5871C180.811 10.5575 180.814 10.559 181.05 10.633C181.098 10.6478 181.145 10.6759 181.189 10.6744C181.576 10.6522 181.968 10.633 182.349 10.5975C182.548 10.5797 182.662 10.627 182.794 10.6655C182.841 10.6788 182.888 10.7084 182.932 10.7054C183.212 10.6892 183.492 10.6729 183.765 10.6448C183.893 10.6315 183.97 10.6403 184.075 10.6758C184.325 10.7631 184.331 10.7602 184.685 10.7321C184.793 10.7232 184.911 10.7069 185.012 10.7188C185.114 10.7306 185.195 10.7735 185.289 10.8001C185.333 10.812 185.387 10.8282 185.434 10.8253C185.656 10.8134 185.879 10.7957 186.102 10.7794C186.311 10.7631 186.311 10.7646 186.702 10.8563C186.86 10.8948 187.026 10.8622 187.184 10.8504C187.356 10.8371 187.511 10.8371 187.643 10.8948C187.774 10.9525 187.933 10.9495 188.101 10.9377C188.26 10.9258 188.422 10.8933 188.583 10.9333C188.954 11.025 188.954 11.0264 189.184 11.0087C189.517 10.9835 189.848 10.9599 190.185 10.9377C190.229 10.9347 190.286 10.9525 190.33 10.9643C190.425 10.9909 190.505 11.0353 190.607 11.0457C190.708 11.0575 190.826 11.0398 190.934 11.0309C191.281 11.0028 191.305 10.9924 191.537 11.09C191.733 11.1699 191.976 11.0545 192.158 11.1463C192.262 11.198 192.404 11.2394 192.599 11.2143C192.761 11.1936 192.93 11.1877 193.099 11.1758C193.365 11.1566 193.365 11.1581 193.702 11.2469C193.746 11.2587 193.803 11.2735 193.847 11.2705C194.07 11.2587 194.296 11.2483 194.511 11.2217C194.764 11.1906 194.926 11.2469 195.115 11.3016C195.263 11.3445 195.439 11.309 195.597 11.2942C195.769 11.2794 195.924 11.2838 196.052 11.3415C196.187 11.4007 196.346 11.3933 196.514 11.3815C196.673 11.3711 196.835 11.3371 196.997 11.3785C197.344 11.4702 197.344 11.4702 197.597 11.4525C197.819 11.4362 198.042 11.4184 198.264 11.4066C198.308 11.4037 198.362 11.4229 198.406 11.4362C198.501 11.4628 198.581 11.5072 198.683 11.5176C198.784 11.5279 198.902 11.5087 199.013 11.5013C199.124 11.4939 199.242 11.4717 199.344 11.4806C199.445 11.4895 199.539 11.5264 199.62 11.559C199.714 11.5974 199.802 11.6019 199.93 11.5871C200.092 11.5678 200.261 11.5634 200.426 11.5531C200.517 11.5812 200.611 11.6093 200.699 11.6403C200.79 11.6729 200.888 11.6699 201.013 11.6596C201.427 11.6241 201.431 11.6285 201.778 11.7202C201.937 11.7616 202.102 11.7276 202.26 11.7173C202.429 11.7054 202.587 11.6995 202.719 11.7587C202.847 11.8149 203.006 11.8223 203.174 11.8045C203.282 11.7927 203.397 11.7853 203.508 11.7809C203.559 11.7794 203.619 11.7853 203.656 11.7971C203.835 11.8593 204.01 11.9155 204.257 11.8755C204.472 11.8874 204.58 12.0087 204.84 11.985C205.059 11.9643 205.288 11.9598 205.504 11.9332C205.703 11.9095 205.845 11.951 205.946 12.0028C206.128 12.0945 206.384 11.9702 206.566 12.0604C206.671 12.1122 206.806 12.1536 207.008 12.1315C207.231 12.1078 207.301 12.1388 207.366 12.232C207.403 12.2853 207.396 12.3282 207.329 12.3696C207.261 12.4125 207.187 12.4051 207.079 12.3563C206.954 12.3016 206.806 12.2912 206.627 12.303C206.452 12.3149 206.344 12.238 206.199 12.2084C206.054 12.1773 205.882 12.2291 205.73 12.1891C205.373 12.096 205.373 12.096 205.13 12.1137C204.965 12.1255 204.793 12.1315 204.631 12.1522C204.439 12.1773 204.314 12.1314 204.182 12.09C204.135 12.0752 204.088 12.0471 204.047 12.0486C203.66 12.0708 203.269 12.0915 202.884 12.1285C202.682 12.1477 202.574 12.0945 202.439 12.0575C202.392 12.0442 202.341 12.0175 202.301 12.0205C201.967 12.0412 201.637 12.0678 201.303 12.093C201.239 12.1329 201.168 12.1714 201.107 12.2143C201.043 12.2587 200.955 12.2779 200.827 12.2764C200.615 12.2764 200.406 12.3385 200.193 12.2601C199.974 12.1803 199.957 12.1847 199.745 12.2039C199.475 12.2291 199.188 12.2232 198.936 12.2809C198.892 12.2912 198.844 12.3193 198.844 12.34C198.841 12.3533 198.912 12.3726 198.956 12.3844C199.104 12.4199 199.276 12.3681 199.424 12.4051C199.522 12.4288 199.603 12.4643 199.701 12.4894C199.741 12.4998 199.802 12.4983 199.856 12.4968C199.913 12.4953 199.967 12.485 200.021 12.4865C200.072 12.488 200.126 12.4968 200.166 12.5101C200.352 12.5663 200.547 12.6181 200.713 12.6847C200.874 12.7498 201.026 12.7054 201.188 12.7024C201.835 12.806 201.835 12.8075 202.27 12.7749C202.378 12.7675 202.49 12.7587 202.601 12.7601C202.648 12.7601 202.692 12.7867 202.739 12.8015C202.874 12.8459 203.002 12.8859 203.191 12.8622C203.353 12.8415 203.525 12.837 203.69 12.8237C203.913 12.8075 203.913 12.8075 204.29 12.9007C204.385 12.9243 204.486 12.9214 204.607 12.9095C204.712 12.8992 204.82 12.9214 204.894 12.9643C204.924 12.982 204.914 13.0116 204.924 13.0368C204.59 13.0604 204.253 13.0767 203.929 13.1122C203.72 13.1344 203.626 13.0708 203.488 13.0368C203.441 13.0249 203.39 12.9998 203.346 13.0027C203.016 13.0249 202.685 13.0501 202.355 13.0796C202.314 13.0826 202.264 13.1166 202.26 13.1373C202.254 13.1758 202.338 13.2128 202.459 13.2113C202.621 13.2098 202.78 13.1847 202.925 13.2453C203.046 13.2986 203.198 13.3223 203.376 13.2986C203.484 13.2853 203.599 13.2853 203.707 13.2734C203.994 13.2379 204.253 13.2453 204.469 13.3459C204.634 13.3725 204.796 13.3474 204.955 13.3341C205.073 13.3237 205.187 13.3134 205.272 13.3415C205.45 13.4006 205.626 13.4598 205.872 13.4199C206.138 13.4613 206.34 13.5486 206.563 13.6196C206.668 13.6536 206.748 13.6728 206.87 13.6507C206.92 13.6418 206.981 13.6418 207.035 13.6373C207.146 13.6299 207.264 13.6077 207.366 13.6166C207.467 13.627 207.551 13.6699 207.642 13.6965C207.686 13.7098 207.736 13.732 207.78 13.7305C207.949 13.7231 208.114 13.7083 208.279 13.6965C208.445 13.6861 208.61 13.6758 208.775 13.6654C208.913 13.7039 209.055 13.7424 209.193 13.7808C209.416 13.7646 209.638 13.7483 209.858 13.7335C210.104 13.7157 210.104 13.7172 210.458 13.8089C210.616 13.8503 210.785 13.8237 210.937 13.8045C211.189 13.7734 211.358 13.8296 211.537 13.8888C211.574 13.9006 211.641 13.908 211.685 13.9021C211.86 13.8814 212.012 13.8977 212.14 13.9524C212.231 13.9909 212.322 14.0086 212.434 14.0012C212.821 13.9731 213.209 13.9435 213.597 13.9184C213.644 13.9154 213.698 13.9287 213.742 13.9406C214.086 14.0308 214.089 14.0352 214.342 14.0116C214.568 13.9909 214.777 13.982 214.956 14.0634C214.993 14.0811 215.05 14.1063 215.091 14.1048C215.367 14.09 215.647 14.0737 215.92 14.0486C216.045 14.0367 216.133 14.0412 216.231 14.0752C216.355 14.1181 216.467 14.1699 216.672 14.1506C217.242 14.0959 217.246 14.1048 217.92 14.2068C217.967 14.2142 218.031 14.2024 218.085 14.1965C218.2 14.1817 218.284 14.2024 218.385 14.2364C218.611 14.3134 218.618 14.3089 218.834 14.2926C218.999 14.2793 219.171 14.2764 219.333 14.2542C219.582 14.2216 219.748 14.2793 219.933 14.3341C220.081 14.377 220.253 14.3415 220.412 14.3281C220.584 14.3134 220.739 14.3178 220.867 14.374C220.955 14.4125 221.049 14.4332 221.16 14.4258C221.548 14.3992 221.936 14.3696 222.324 14.3429C222.371 14.34 222.428 14.3518 222.472 14.3622C222.857 14.4539 222.857 14.4583 223.238 14.4243C223.359 14.4139 223.46 14.411 223.551 14.442C223.639 14.4716 223.733 14.4997 223.824 14.5278C223.99 14.5175 224.158 14.5145 224.32 14.4968C224.445 14.4835 224.532 14.4894 224.63 14.5205C224.758 14.5604 224.866 14.6299 225.069 14.5959C225.173 14.5796 225.295 14.5841 225.399 14.5693C225.524 14.55 225.608 14.5619 225.706 14.6003C225.827 14.6462 225.952 14.6935 226.148 14.6698C226.363 14.6432 226.593 14.6388 226.812 14.6181C226.933 14.6062 227.018 14.6181 227.115 14.6565C227.237 14.7053 227.375 14.7364 227.564 14.7172C227.948 14.6802 227.952 14.6876 228.326 14.7808C228.42 14.8045 228.522 14.8015 228.643 14.7897C228.748 14.7793 228.855 14.8015 228.93 14.8444C229 14.8917 228.994 14.9213 229 14.9465ZM198.952 1.60506C198.841 1.61245 198.73 1.62133 198.568 1.49263C198.558 1.47044 198.565 1.44382 198.541 1.42459C198.487 1.38465 198.403 1.35655 198.302 1.35211C198.12 1.34619 197.9 1.39648 197.904 1.43494C197.907 1.46748 197.964 1.49558 198.076 1.52221C198.123 1.53257 198.16 1.55032 198.204 1.56215C198.332 1.59618 198.433 1.66275 198.619 1.62873C198.585 1.53702 198.602 1.58287 198.619 1.62873C198.602 1.68494 198.652 1.72488 198.774 1.74116C198.807 1.74559 198.858 1.74263 198.885 1.73375C198.99 1.70121 199.006 1.65684 198.929 1.53998C198.915 1.55921 198.925 1.59322 198.956 1.6021C198.986 1.61097 199.06 1.60359 199.097 1.59323C199.192 1.56512 199.239 1.52814 199.215 1.49708C199.202 1.4808 199.138 1.46009 199.097 1.46009C199.027 1.46009 198.963 1.49263 198.952 1.60506ZM226.218 18.76C225.972 18.7881 225.689 18.7777 225.443 18.8354C225.399 18.8458 225.355 18.8724 225.352 18.8931C225.349 18.9064 225.416 18.9257 225.456 18.936C225.548 18.9597 225.649 18.9523 225.767 18.9449C225.945 18.9345 226.05 19.0026 226.188 19.0366C226.232 19.047 226.289 19.0544 226.337 19.0514C226.61 19.0336 226.879 19.0144 227.153 18.9937C227.2 18.9893 227.25 18.9789 227.291 18.9656C227.426 18.9227 227.412 18.8946 227.281 18.8621C227.136 18.8266 227.021 18.7674 226.873 18.7393C226.66 18.6993 226.444 18.7526 226.218 18.76ZM207.069 19.8399C206.904 19.8517 206.742 19.8635 206.576 19.8754C206.523 19.8798 206.465 19.8813 206.415 19.8872C206.31 19.8975 206.233 19.9286 206.182 19.9774C206.26 20.0159 206.354 20.0381 206.458 20.0336C206.624 20.0248 206.786 20.0055 206.951 20.0011C207.13 19.9952 207.234 20.0617 207.372 20.0958C207.416 20.1061 207.47 20.1076 207.521 20.1091C207.77 20.115 207.922 20.0381 207.875 19.9301C207.841 19.8458 207.713 19.7955 207.558 19.8058C207.396 19.8162 207.231 19.828 207.069 19.8399ZM227.372 16.5736C227.412 16.5485 227.456 16.5308 227.476 16.5086C227.537 16.4331 227.513 16.3769 227.402 16.3177C227.267 16.2453 227.102 16.2941 226.95 16.3015C226.913 16.3029 226.873 16.334 226.852 16.3532C226.839 16.3666 226.839 16.3947 226.859 16.4021C227.024 16.4612 227.2 16.516 227.372 16.5736ZM198.12 12.2039C197.958 12.2158 197.792 12.2246 197.631 12.2409C197.59 12.2454 197.553 12.2735 197.529 12.2927C197.486 12.3282 197.533 12.377 197.671 12.3814C197.829 12.3874 197.995 12.3622 198.16 12.3504C198.369 12.3356 198.494 12.2808 198.416 12.2335C198.342 12.1877 198.241 12.1788 198.12 12.2039ZM20.6199 9.04276C20.7278 9.03537 20.839 9.02945 20.9469 9.01909C21.0481 9.00874 21.1257 8.97619 21.1763 8.92738C21.092 8.88892 20.9975 8.86821 20.893 8.87265C20.7278 8.88152 20.5659 8.89335 20.4041 8.90815C20.3029 8.91702 20.2052 8.94956 20.1816 8.99986C20.158 9.03832 20.3838 9.06051 20.6199 9.04276ZM183.859 8.81495C183.903 8.82827 183.947 8.8549 183.991 8.8549C184.099 8.8549 184.21 8.84601 184.311 8.83122C184.355 8.8253 184.389 8.79868 184.409 8.77797C184.422 8.76466 184.419 8.741 184.399 8.72916C184.301 8.65816 183.91 8.6833 183.846 8.76466C183.839 8.77946 183.856 8.79868 183.859 8.81495ZM173.221 0.714543C173.231 0.738211 173.234 0.761876 173.248 0.785544C173.274 0.829922 173.349 0.862472 173.457 0.884661C173.541 0.847679 173.585 0.806267 173.581 0.761889C173.578 0.738221 173.568 0.714538 173.554 0.69087C173.527 0.646492 173.453 0.61396 173.345 0.591771C173.261 0.627273 173.221 0.668686 173.221 0.714543ZM235.164 20.0972C235.134 20.1165 235.104 20.1357 235.07 20.1535C235.161 20.1964 235.245 20.2097 235.309 20.186C235.35 20.1712 235.374 20.149 235.404 20.1298C235.313 20.0869 235.232 20.0751 235.164 20.0972ZM233.067 20.2984C233.111 20.3117 233.151 20.3295 233.199 20.3384C233.276 20.3532 233.347 20.328 233.401 20.2747C233.357 20.2614 233.317 20.2437 233.269 20.2348C233.192 20.22 233.121 20.2452 233.067 20.2984ZM234.396 20.0277C234.372 20.0632 234.419 20.0928 234.544 20.118C234.574 20.0987 234.615 20.081 234.635 20.0603C234.669 20.0262 234.611 19.9952 234.49 19.9715C234.456 19.9893 234.426 20.0085 234.396 20.0277ZM227.277 18.4331C227.254 18.4686 227.301 18.4982 227.426 18.5233C227.456 18.5041 227.497 18.4863 227.517 18.4656C227.55 18.4316 227.493 18.4005 227.372 18.3769C227.338 18.3946 227.308 18.4139 227.277 18.4331ZM217.579 7.96586C217.549 7.98509 217.519 8.00432 217.485 8.02207C217.576 8.06497 217.66 8.07828 217.724 8.05461C217.765 8.03982 217.788 8.01763 217.819 7.9984C217.728 7.9555 217.647 7.94367 217.579 7.96586ZM208.289 2.41273C208.37 2.42308 208.438 2.40238 208.495 2.34765C208.451 2.33433 208.411 2.31658 208.364 2.3077C208.286 2.29291 208.215 2.31807 208.161 2.37132C208.205 2.38611 208.249 2.39941 208.289 2.41273ZM203.356 2.0651C203.326 2.08433 203.296 2.10357 203.262 2.12132C203.353 2.16422 203.437 2.17752 203.501 2.15386C203.542 2.13906 203.565 2.11687 203.596 2.09764C203.505 2.05475 203.424 2.04439 203.356 2.0651ZM169.902 0.713062C169.872 0.732292 169.842 0.751523 169.808 0.769274C169.899 0.812173 169.983 0.825482 170.047 0.801814C170.088 0.787021 170.112 0.764832 170.142 0.745601C170.051 0.702703 169.97 0.692352 169.902 0.713062ZM3.32814 12.7483C3.2843 12.735 3.24051 12.7217 3.20004 12.7069C3.10225 12.7468 3.07191 12.7838 3.12587 12.8119C3.15959 12.8297 3.21013 12.84 3.25396 12.8533C3.35512 12.8134 3.37872 12.7779 3.32814 12.7483Z" fill="#FFE492"/>
</svg>
