<svg width="206" height="53" viewBox="0 0 206 53" fill="none" xmlns="http://www.w3.org/2000/svg">
<path d="M194.321 13.4638C194.055 13.4841 193.787 13.4981 193.526 13.5286C193.357 13.5477 193.285 13.4918 193.172 13.4625C193.134 13.4524 193.094 13.432 193.059 13.4346C192.796 13.4549 192.533 13.4778 192.27 13.5006C192.189 13.5502 192.138 13.6163 192.015 13.6404C191.894 13.6633 191.752 13.6633 191.618 13.6748C191.44 13.6887 191.263 13.7027 191.086 13.7154C190.997 13.7218 190.925 13.7459 190.895 13.7917C190.89 13.7993 190.949 13.8184 190.981 13.8298C191.089 13.8679 191.193 13.9111 191.311 13.9404C191.424 13.9683 191.564 13.9226 191.685 13.9582C191.956 14.0382 191.959 14.0369 192.165 14.0217C192.342 14.0077 192.52 13.9925 192.697 13.9823C192.732 13.9798 192.772 13.9988 192.81 14.009C192.922 14.0369 192.995 14.1005 193.161 14.0763C193.287 14.0573 193.427 14.0535 193.559 14.0433C193.669 14.0802 193.771 14.1221 193.889 14.1513C193.999 14.1793 194.031 14.2009 193.972 14.2377C193.918 14.2721 193.843 14.286 193.744 14.2886C193.655 14.2899 193.567 14.3013 193.478 14.3076C193.432 14.3114 193.389 14.314 193.346 14.3178C193.177 14.3318 193.177 14.3318 192.869 14.2505C192.748 14.2187 192.611 14.2632 192.495 14.2327C192.418 14.2123 192.35 14.1818 192.275 14.1602C192.243 14.1513 192.192 14.1501 192.152 14.1526C192.018 14.1615 191.883 14.1678 191.754 14.1844C191.663 14.1958 191.609 14.2314 191.62 14.267C191.623 14.281 191.687 14.3013 191.725 14.3026C191.811 14.3051 191.902 14.2873 191.985 14.2962C192.066 14.3051 192.149 14.3305 192.208 14.3585C192.329 14.4169 192.466 14.3648 192.581 14.3801C192.702 14.3966 192.801 14.4474 192.917 14.4779C192.946 14.4856 193.003 14.4728 193.048 14.469C193.18 14.4601 193.312 14.4525 193.443 14.4436C193.553 14.4805 193.671 14.5135 193.771 14.5555C193.951 14.6317 194.144 14.6609 194.377 14.6241C194.509 14.6037 194.638 14.6114 194.742 14.6609C194.85 14.7118 194.973 14.7067 195.11 14.6965C195.236 14.6864 195.365 14.6584 195.494 14.694C195.773 14.7728 195.776 14.7766 196.106 14.7461C196.206 14.7372 196.281 14.7347 196.356 14.7639C196.426 14.7906 196.501 14.8134 196.573 14.8389C196.705 14.83 196.839 14.8211 196.971 14.8109C197.14 14.7969 197.234 14.8147 197.274 14.8859C197.298 14.9291 197.309 14.9685 197.368 14.9977C197.438 15.0333 197.513 15.032 197.615 15.0219C197.712 15.013 197.781 14.999 197.822 14.9532C197.838 14.9342 197.87 14.9164 197.9 14.9011C197.924 14.8897 197.961 14.8719 197.983 14.8744C198.023 14.8795 198.077 14.8935 198.09 14.91C198.222 15.0638 198.222 15.0651 198.356 15.1096C198.504 15.1591 198.657 15.2036 198.791 15.2595C198.912 15.3091 199.033 15.2875 199.164 15.2875C199.263 15.2875 199.328 15.3205 199.32 15.3536C199.314 15.3726 199.277 15.4006 199.245 15.4031C198.982 15.4285 198.716 15.4501 198.45 15.4679C198.418 15.4705 198.378 15.4476 198.34 15.4362C198.265 15.4133 198.198 15.3777 198.117 15.3701C198.037 15.3624 197.943 15.3815 197.854 15.3879C197.765 15.3942 197.671 15.4107 197.591 15.4006C197.51 15.3904 197.446 15.3536 197.371 15.3294C197.336 15.318 197.288 15.3015 197.258 15.3053C197.062 15.3358 196.917 15.2938 196.777 15.2379C196.748 15.2265 196.697 15.2188 196.659 15.2214C196.348 15.243 196.039 15.2684 195.728 15.2925C195.602 15.3027 195.5 15.2582 195.473 15.1833C195.459 15.1413 195.432 15.0994 195.432 15.0574C195.432 14.9812 195.285 14.9393 195.177 14.9482C195 14.9609 194.82 14.971 194.646 14.9901C194.504 15.0053 194.383 14.9901 194.286 14.9443C194.173 14.8922 194.044 14.9024 193.916 14.9164C193.819 14.9265 193.792 14.9685 193.797 15.074C193.803 15.1591 193.757 15.1858 193.583 15.1998C193.363 15.2176 193.14 15.2354 192.917 15.2493C192.882 15.2519 192.842 15.2303 192.807 15.2188C192.732 15.196 192.665 15.1591 192.584 15.1515C192.503 15.1426 192.409 15.1617 192.321 15.1693C192.232 15.1756 192.138 15.1934 192.058 15.1845C191.977 15.1756 191.91 15.1375 191.838 15.1134C191.803 15.1019 191.76 15.0854 191.725 15.0879C191.548 15.0981 191.371 15.1134 191.193 15.1273C190.995 15.1426 190.995 15.1426 190.713 15.0638C190.584 15.0282 190.455 15.0562 190.329 15.0663C190.195 15.0765 190.068 15.0816 189.964 15.0308C189.894 14.9977 189.816 14.9774 189.733 14.9837C189.51 14.999 189.29 15.0181 189.067 15.0333C189.03 15.0358 188.979 15.0295 188.949 15.0181C188.807 14.9647 188.667 14.9227 188.468 14.9494C188.297 14.9723 188.111 14.9736 187.94 14.9952C187.846 15.0066 187.803 15.0473 187.821 15.0791C187.832 15.0956 187.889 15.1146 187.926 15.1146C188.012 15.1159 188.106 15.0968 188.187 15.1045C188.353 15.1197 188.436 15.2265 188.654 15.1972C188.783 15.1794 188.917 15.1731 189.051 15.168C189.086 15.1667 189.123 15.1909 189.161 15.2036C189.268 15.2379 189.362 15.2824 189.518 15.2595C189.647 15.2417 189.784 15.2366 189.915 15.2265C190.125 15.21 190.125 15.2112 190.396 15.2887C190.525 15.3256 190.654 15.2964 190.78 15.2875C190.874 15.2811 190.962 15.2684 191.038 15.2862C191.153 15.3129 191.236 15.3739 191.379 15.3701C191.513 15.3663 191.644 15.3485 191.779 15.3421C191.862 15.3383 191.94 15.3586 192.007 15.3929C192.077 15.4273 192.152 15.4425 192.243 15.4349C192.375 15.4247 192.509 15.412 192.643 15.4057C192.681 15.4044 192.724 15.4158 192.759 15.426C192.834 15.4489 192.906 15.4756 192.979 15.4997C193.11 15.4921 193.244 15.4895 193.373 15.4743C193.473 15.4628 193.542 15.4679 193.623 15.4934C193.725 15.5277 193.808 15.5887 193.975 15.5594C194.058 15.5455 194.155 15.5493 194.238 15.5366C194.34 15.52 194.41 15.5264 194.482 15.5645C194.619 15.637 194.791 15.6382 194.968 15.6103C195.161 15.5798 195.306 15.6154 195.451 15.6713C195.604 15.7297 195.604 15.7285 195.722 15.8695C195.757 15.9102 195.857 15.9293 195.94 15.9216C196.079 15.9089 196.2 15.9153 196.302 15.9636C196.41 16.0157 196.538 16.0093 196.67 15.9953C196.845 15.9763 197.019 15.9598 197.161 16.0335C197.231 16.069 197.306 16.0779 197.4 16.069C197.666 16.0462 197.935 16.0322 198.195 16.0042C198.353 15.9864 198.445 16.0271 198.552 16.0614C198.697 16.1084 198.855 16.1504 198.855 16.2508C198.855 16.2673 198.893 16.2864 198.925 16.2991C198.995 16.3258 199.07 16.3486 199.143 16.374C199.25 16.4122 199.355 16.4439 199.502 16.4236C199.631 16.4071 199.768 16.402 199.9 16.3906C200.031 16.3791 200.152 16.3728 200.27 16.4211C200.407 16.4757 200.552 16.5278 200.708 16.5685C200.818 16.5977 200.963 16.5482 201.081 16.5876C201.153 16.6117 201.223 16.6397 201.301 16.66C201.333 16.6689 201.384 16.6625 201.427 16.66C201.516 16.6549 201.607 16.6511 201.693 16.6384C201.792 16.6244 201.868 16.627 201.943 16.6562C202.013 16.6829 202.082 16.7197 202.163 16.7273C202.284 16.7388 202.418 16.688 202.539 16.7464C202.6 16.7756 202.678 16.8036 202.759 16.8125C202.839 16.8214 202.933 16.8023 203.019 16.8036C203.057 16.8036 203.103 16.8239 203.124 16.8405C203.137 16.8493 203.119 16.8735 203.1 16.8862C203.076 16.9015 203.041 16.9218 203.006 16.9243C202.74 16.9472 202.474 16.9663 202.209 16.9879C202.05 17.0006 202.05 17.0006 201.731 16.9205C201.655 16.9015 201.572 16.9053 201.478 16.9142C201.352 16.9256 201.223 16.9472 201.092 16.9243C200.92 16.8379 200.708 16.8303 200.482 16.8633C200.388 16.8773 200.302 16.8773 200.233 16.8532C200.085 16.8049 199.929 16.7604 199.798 16.7032C199.696 16.6587 199.647 16.6549 199.604 16.7159C199.591 16.735 199.578 16.7553 199.58 16.7731C199.596 16.8366 199.626 16.8989 199.642 16.9625C199.647 16.9802 199.626 17.0006 199.612 17.0196C199.57 17.073 199.513 17.0692 199.419 17.0247C199.325 16.9802 199.212 16.951 199.062 16.9714C198.933 16.9891 198.794 16.9866 198.665 17.0057C198.466 17.0336 198.327 16.993 198.184 16.9383C198.155 16.9269 198.104 16.9205 198.066 16.9231C197.666 16.9523 197.269 16.9853 196.869 17.0146C196.783 17.0209 196.705 17.0019 196.638 16.9675C196.568 16.9332 196.49 16.9154 196.404 16.9218C196.05 16.9485 195.696 16.9726 195.341 17.0057C195.196 17.0196 195.081 17.0031 194.981 16.9586C194.906 16.9256 194.836 16.9154 194.742 16.9192C194.64 16.9231 194.568 16.9358 194.517 16.9726C194.469 17.0082 194.504 17.0298 194.611 17.0578C194.726 17.0883 194.834 17.1277 194.944 17.1633C195.032 17.1582 195.121 17.148 195.207 17.1493C195.244 17.1493 195.279 17.1721 195.317 17.1848C195.424 17.2217 195.524 17.2586 195.677 17.2382C195.806 17.2204 195.943 17.2166 196.074 17.2052C196.257 17.1912 196.257 17.1912 196.552 17.2713C196.627 17.2916 196.708 17.2903 196.804 17.2789C196.887 17.27 196.973 17.2878 197.033 17.3259C197.057 17.3412 197.049 17.3666 196.998 17.4505C196.998 17.5127 197.054 17.4848 197.073 17.4441C197.102 17.3856 197.046 17.3666 196.939 17.3984C196.863 17.4212 196.826 17.4543 196.845 17.481C196.855 17.4949 196.906 17.5127 196.998 17.4505C197.234 17.3742 197.414 17.3653 197.586 17.345C197.688 17.3335 197.752 17.3386 197.833 17.3717C197.929 17.4111 198.026 17.453 198.184 17.4327C198.356 17.4098 198.539 17.4072 198.713 17.3882C198.874 17.3704 198.957 17.4263 199.059 17.4594C199.183 17.4988 199.32 17.4543 199.433 17.4771C199.551 17.5 199.634 17.5559 199.771 17.5661C199.97 17.5318 200.096 17.5953 200.246 17.6373C200.364 17.6691 200.504 17.6411 200.63 17.6271C200.772 17.6119 200.89 17.6258 200.99 17.6716C201.102 17.7237 201.229 17.7123 201.358 17.7008C201.658 17.6754 201.669 17.6716 201.843 17.7415C201.97 17.7923 202.09 17.7694 202.217 17.7631C202.327 17.7974 202.434 17.8343 202.549 17.8648C202.579 17.8724 202.635 17.8597 202.681 17.8559C202.813 17.8457 202.947 17.8355 203.078 17.8254C203.167 17.819 203.261 17.7999 203.341 17.8076C203.422 17.8165 203.489 17.8533 203.562 17.8775C203.634 17.9016 203.709 17.9258 203.779 17.9512C203.886 17.9893 203.988 18.0211 204.139 18.002C204.268 17.9855 204.402 17.9804 204.536 17.969C204.705 17.955 204.7 17.9588 205.014 18.0351C205.183 18.077 205.358 18.0262 205.529 18.0211C205.615 18.0185 205.699 18.0325 205.758 18.0694C205.782 18.0846 205.774 18.11 205.782 18.1316C205.339 18.166 204.893 18.1952 204.456 18.2371C204.286 18.2536 204.198 18.2079 204.107 18.1698C203.956 18.1088 203.758 18.1977 203.615 18.1189C203.529 18.0719 203.406 18.0452 203.258 18.0681C203.172 18.0808 203.081 18.0795 202.992 18.091C202.767 18.1189 202.56 18.1202 202.38 18.0325C202.319 18.002 202.23 17.9855 202.166 17.9563C202.09 17.9245 202.018 17.9067 201.929 17.913C201.529 17.9435 201.132 17.974 200.735 18.0071C200.7 18.0096 200.665 18.0287 200.635 18.0427C200.56 18.0783 200.584 18.1062 200.705 18.1291C200.745 18.1367 200.778 18.1532 200.815 18.1659C200.888 18.1901 200.955 18.2282 201.035 18.2371C201.116 18.246 201.21 18.2282 201.298 18.2219C201.387 18.2155 201.481 18.1964 201.562 18.2041C201.642 18.213 201.709 18.2498 201.784 18.2727C201.819 18.2841 201.862 18.3032 201.897 18.3019C202.074 18.2943 202.249 18.2803 202.426 18.2689C202.536 18.3032 202.63 18.3528 202.762 18.3642C202.845 18.3718 202.933 18.3578 203.019 18.3604C203.057 18.3617 203.105 18.3807 203.124 18.3972C203.135 18.4074 203.1 18.4328 203.073 18.4455C202.971 18.4938 202.831 18.4849 202.705 18.5002C202.568 18.5167 202.445 18.5116 202.34 18.4621C202.27 18.429 202.192 18.4112 202.106 18.4176C201.884 18.4341 201.664 18.4532 201.441 18.4671C201.403 18.4697 201.357 18.4583 201.323 18.4494C201.041 18.3718 201.041 18.3693 200.842 18.3858C200.549 18.41 200.549 18.4099 200.353 18.3426C200.316 18.3299 200.276 18.3057 200.243 18.307C199.932 18.3274 199.623 18.3477 199.314 18.3769C199.212 18.3858 199.143 18.3858 199.067 18.3528C199.003 18.3248 198.928 18.293 198.847 18.2854C198.764 18.2778 198.673 18.2969 198.584 18.3032C198.496 18.3096 198.402 18.3261 198.324 18.3159C198.243 18.3057 198.173 18.2702 198.104 18.2448C198.031 18.2181 197.953 18.2193 197.854 18.2295C197.548 18.2587 197.545 18.2549 197.242 18.1761C197.207 18.1672 197.161 18.1571 197.124 18.1596C196.901 18.1748 196.681 18.1939 196.458 18.2092C196.372 18.2155 196.289 18.199 196.23 18.1621C196.206 18.1469 196.214 18.1215 196.198 18.0719C196.179 18.0605 196.2 18.0808 196.206 18.0999C196.246 18.0973 196.294 18.0999 196.324 18.0897C196.399 18.0655 196.436 18.0338 196.418 18.0071C196.407 17.9931 196.356 17.9753 196.324 17.9753C196.265 17.9753 196.214 18.0033 196.198 18.0719C196.028 18.1138 195.849 18.1227 195.674 18.1431C195.572 18.1558 195.508 18.1494 195.427 18.1164C195.33 18.0757 195.231 18.0363 195.073 18.0567C194.901 18.0795 194.718 18.0834 194.541 18.1011C194.337 18.1215 194.248 18.0071 194.077 18.0096C193.899 18.0122 193.722 18.0338 193.545 18.049C193.389 18.0617 193.389 18.0617 193.067 17.9791C192.949 17.9486 192.81 17.9931 192.694 17.9613C192.616 17.941 192.549 17.9105 192.474 17.8889C192.442 17.88 192.391 17.88 192.35 17.8825C192.128 17.8978 191.902 17.908 191.687 17.9359C191.443 17.969 191.258 17.9334 191.083 17.8584C190.863 17.8724 190.64 17.88 190.423 17.9042C190.264 17.9219 190.173 17.88 190.066 17.8457C190.028 17.8343 189.996 17.8152 189.956 17.8101C189.915 17.805 189.867 17.8152 189.824 17.819C189.647 17.833 189.464 17.8393 189.293 17.8622C189.08 17.8915 189 17.7872 188.836 17.7745C188.726 17.8368 188.667 17.9219 188.45 17.9283C188.272 17.9334 188.095 17.9537 187.918 17.9677C187.829 17.9741 187.741 17.9817 187.652 17.988C187.51 17.9995 187.443 18.049 187.472 18.1253C187.489 18.1672 187.502 18.2092 187.515 18.2511C187.542 18.3261 187.475 18.3896 187.362 18.3985C187.051 18.4227 186.742 18.4481 186.431 18.4697C186.348 18.476 186.267 18.4544 186.2 18.4201C186.13 18.3858 186.052 18.3706 185.966 18.3769C185.655 18.4011 185.346 18.4265 185.035 18.4481C185 18.4506 184.954 18.4379 184.919 18.4277C184.844 18.4049 184.772 18.3782 184.699 18.354C184.522 18.3655 184.347 18.3731 184.173 18.3883C183.891 18.4112 183.891 18.4125 183.684 18.3426C183.647 18.3299 183.609 18.3057 183.574 18.307C183.44 18.3121 183.309 18.3248 183.174 18.3362C182.78 18.3693 182.78 18.3693 182.664 18.3312C182.559 18.2956 182.465 18.2524 182.307 18.2727C182.135 18.2956 181.953 18.3032 181.776 18.3159C181.644 18.3248 181.512 18.335 181.381 18.3375C181.346 18.3388 181.308 18.3146 181.271 18.3019C181.163 18.2625 181.059 18.2308 180.911 18.2524C180.825 18.2651 180.734 18.2676 180.645 18.274C180.414 18.2918 180.414 18.2918 180.036 18.2155C179.998 18.2079 179.953 18.199 179.915 18.2028C179.604 18.2257 179.295 18.2511 178.983 18.2727C178.946 18.2752 178.9 18.2676 178.863 18.2613C178.439 18.1875 178.439 18.1876 177.987 18.2231C177.816 18.2358 177.81 18.2409 177.63 18.1736C177.55 18.1443 177.483 18.1304 177.389 18.1393C177.034 18.1698 176.677 18.1901 176.326 18.2257C176.167 18.2409 176.076 18.2028 175.969 18.1685C175.931 18.157 175.891 18.1316 175.859 18.1329C175.504 18.1571 175.15 18.1863 174.795 18.2104C174.763 18.213 174.723 18.1876 174.685 18.1761C174.613 18.1532 174.543 18.1189 174.462 18.1113C174.379 18.1037 174.288 18.1227 174.197 18.1291C173.974 18.1456 173.974 18.1444 173.716 18.0694C173.681 18.0592 173.636 18.0452 173.601 18.0478C173.246 18.0732 172.889 18.0948 172.538 18.1316C172.336 18.152 172.199 18.1151 172.057 18.0617C172.028 18.0503 171.977 18.0452 171.939 18.0478C171.539 18.077 171.142 18.11 170.742 18.1393C170.658 18.1456 170.578 18.124 170.511 18.091C170.403 18.0389 170.277 18.0452 170.143 18.0567C169.834 18.0833 169.831 18.0821 169.649 18.0211C169.611 18.0084 169.579 17.9918 169.539 17.9855C169.501 17.9791 169.453 17.983 169.413 17.9855C169.236 17.9982 169.058 18.0122 168.881 18.0262C168.704 18.0401 168.524 18.0478 168.35 18.0694C168.135 18.0961 168.033 18.0134 167.882 17.9753C167.662 17.9918 167.437 18.002 167.219 18.0287C167.053 18.049 166.975 17.9931 166.865 17.9639C166.827 17.9537 166.787 17.9321 166.752 17.9347C166.352 17.9626 165.952 17.9931 165.555 18.0274C165.458 18.035 165.394 18.0249 165.313 17.9944C165.133 17.9258 165.125 17.9283 164.825 17.9537C164.693 17.9652 164.567 17.9753 164.454 17.9232C164.355 17.8762 164.234 17.8647 164.092 17.88C163.917 17.8991 163.737 17.9092 163.56 17.9219C163.383 17.9359 163.206 17.955 163.029 17.9613C162.886 17.9677 162.8 17.908 162.688 17.8775C162.653 17.8686 162.604 17.8673 162.564 17.8698C162.387 17.8813 162.204 17.8902 162.033 17.9118C161.823 17.9385 161.708 17.8686 161.56 17.8279C161.528 17.819 161.474 17.8241 161.434 17.8279C161.122 17.8508 160.814 17.8762 160.502 17.9003C160.392 17.866 160.279 17.833 160.169 17.7987C159.992 17.8114 159.815 17.8254 159.638 17.8381C159.504 17.8482 159.367 17.852 159.24 17.8711C159.077 17.8965 158.996 17.8368 158.886 17.8076C158.848 17.7974 158.808 17.7758 158.773 17.7783C158.551 17.7923 158.328 17.8076 158.108 17.8292C157.898 17.8508 157.815 17.7364 157.643 17.7377C157.466 17.7389 157.283 17.7555 157.112 17.7783C156.913 17.805 156.773 17.7644 156.631 17.7097C156.601 17.6983 156.55 17.6919 156.513 17.6945C156.29 17.7097 156.07 17.7288 155.847 17.744C155.809 17.7466 155.764 17.7402 155.726 17.7326C155.302 17.6576 155.302 17.6563 155.117 17.6716C154.985 17.6818 154.851 17.6945 154.717 17.7008C154.679 17.7034 154.634 17.6919 154.599 17.6818C154.319 17.6042 154.319 17.603 154.118 17.6182C153.941 17.6322 153.764 17.6462 153.587 17.6601C153.476 17.6258 153.364 17.5928 153.254 17.5585C153.033 17.575 152.808 17.5877 152.591 17.6106C152.489 17.6207 152.421 17.6169 152.344 17.5852C152.247 17.547 152.15 17.5026 151.989 17.5242C151.817 17.547 151.635 17.5496 151.46 17.5686C151.251 17.5915 151.165 17.4759 150.996 17.4771C150.819 17.4784 150.636 17.4949 150.464 17.5178C150.266 17.5445 150.126 17.5038 149.984 17.4492C149.954 17.4378 149.903 17.4314 149.866 17.4339C149.377 17.4708 148.891 17.5076 148.402 17.547C148.102 17.5712 148.102 17.5725 147.53 17.5026C147.49 17.4975 147.447 17.4924 147.406 17.4949C147.229 17.5064 147.047 17.5153 146.875 17.5369C146.665 17.5636 146.55 17.4949 146.402 17.453C146.37 17.4441 146.319 17.4492 146.276 17.4517C146.142 17.4606 146.01 17.4721 145.876 17.4822C145.699 17.4962 145.522 17.5102 145.345 17.5242C145.235 17.4911 145.122 17.4568 145.012 17.4238C144.792 17.4403 144.566 17.4492 144.349 17.4759C144.182 17.4962 144.104 17.4428 143.994 17.4123C143.957 17.4022 143.916 17.3806 143.882 17.3818C143.481 17.4098 143.081 17.439 142.684 17.4746C142.52 17.4899 142.445 17.4327 142.335 17.4034C142.298 17.3945 142.255 17.378 142.22 17.3806C141.954 17.3984 141.688 17.42 141.422 17.4416C141.272 17.4543 141.272 17.4543 140.944 17.3755C140.907 17.3666 140.864 17.3577 140.826 17.3602C139.983 17.4238 139.143 17.4911 138.3 17.5547C138.214 17.561 138.136 17.542 138.069 17.5077C137.999 17.4733 137.922 17.4555 137.836 17.4619C137.481 17.4886 137.124 17.5127 136.773 17.5458C136.628 17.5598 136.512 17.5432 136.413 17.4987C136.338 17.4657 136.268 17.453 136.174 17.4606C135.997 17.4759 135.819 17.4886 135.642 17.5026C135.465 17.5165 135.288 17.5305 135.111 17.5445C134.934 17.5585 134.754 17.5661 134.579 17.5877C134.364 17.6144 134.26 17.5356 134.112 17.4962C133.846 17.5153 133.58 17.5343 133.317 17.5547C132.963 17.5814 132.609 17.6106 132.254 17.636C132.222 17.6385 132.182 17.6157 132.144 17.6042C132.034 17.5725 131.954 17.528 131.79 17.542C130.995 17.6093 130.195 17.6665 129.398 17.7326C129.231 17.7466 129.159 17.6919 129.046 17.6627C129.008 17.6538 128.966 17.636 128.931 17.6386C128.488 17.6703 128.045 17.7059 127.602 17.7402C127.422 17.7542 127.422 17.7542 127.121 17.6754C127.086 17.6665 127.041 17.6551 127.003 17.6576C126.426 17.7008 125.851 17.7466 125.274 17.791C125.188 17.7974 125.11 17.7796 125.041 17.7453C124.973 17.711 124.893 17.6919 124.81 17.6983C124.278 17.7389 123.744 17.7783 123.215 17.8228C123.073 17.8355 122.955 17.8241 122.852 17.7783C122.78 17.7453 122.708 17.7313 122.616 17.7389C121.819 17.8012 121.022 17.861 120.224 17.927C120.071 17.9397 119.964 17.9156 119.867 17.8737C119.789 17.8406 119.722 17.8343 119.626 17.8393C119.523 17.8457 119.462 17.8597 119.405 17.8978C119.333 17.9474 119.287 18.0096 119.115 18.0134C118.938 18.0173 118.758 18.0325 118.584 18.0541C118.417 18.0757 118.34 18.0185 118.235 17.9842C118.157 17.9601 118.085 17.9563 117.985 17.9677C117.894 17.9779 117.838 17.9995 117.784 18.0401C117.666 18.1265 117.655 18.1265 117.51 18.0719C117.432 18.0427 117.362 18.0198 117.276 18.0249C116.922 18.0503 116.568 18.0783 116.213 18.1075C116.009 18.124 116.007 18.1266 115.854 18.063C115.778 18.0312 115.706 18.016 115.617 18.0236C114.643 18.0999 113.668 18.1736 112.694 18.2536C112.543 18.2663 112.441 18.2397 112.334 18.2015C112.299 18.1888 112.264 18.171 112.224 18.1659C112.184 18.1609 112.138 18.1659 112.095 18.1685C111.386 18.2231 110.675 18.2752 109.969 18.3362C109.808 18.3502 109.722 18.3096 109.612 18.2765C109.574 18.2651 109.542 18.2473 109.502 18.2422C109.461 18.2384 109.413 18.2473 109.37 18.2511C108.661 18.3057 107.95 18.3579 107.244 18.4189C107.075 18.4328 107.002 18.3795 106.892 18.3515C106.855 18.3413 106.814 18.3223 106.779 18.3248C106.557 18.3388 106.336 18.3578 106.114 18.3744C105.582 18.4163 105.05 18.4557 104.519 18.4989C104.315 18.5154 104.226 18.4023 104.054 18.4074C103.832 18.4138 103.611 18.4392 103.389 18.457C103.211 18.471 103.034 18.4837 102.857 18.4989C102.683 18.5129 102.683 18.5129 102.248 18.4392C102.21 18.4328 102.164 18.4239 102.127 18.4265C101.507 18.4735 100.884 18.5205 100.266 18.5714C100.124 18.5828 100.006 18.5764 99.904 18.5294C99.8315 18.4964 99.7564 18.4798 99.6678 18.4875C98.7362 18.5599 97.8072 18.6324 96.8757 18.7035C96.8408 18.7061 96.7951 18.6934 96.7602 18.6832C96.6851 18.6603 96.6126 18.6336 96.5401 18.6095C96.4864 18.6387 96.4166 18.6654 96.3817 18.6984C96.3334 18.7429 96.269 18.7556 96.1669 18.7633C96.0649 18.7709 96.0005 18.7683 95.92 18.7353C95.8233 18.6946 95.724 18.6628 95.5656 18.6756C94.591 18.7556 93.6165 18.8281 92.6419 18.9069C92.4809 18.9196 92.4057 18.8636 92.293 18.8344C92.2554 18.8255 92.2124 18.8115 92.1775 18.8141C91.7775 18.8433 91.3802 18.8751 90.9802 18.9056C89.8714 18.992 88.7626 19.0746 87.6566 19.1661C87.4552 19.1826 87.3183 19.1509 87.176 19.0962C87.1465 19.0848 87.0955 19.0784 87.0579 19.081C85.5062 19.2004 83.9544 19.3212 82.4053 19.4419C82.3221 19.4482 82.2416 19.4279 82.1744 19.3949C82.1046 19.3605 82.0268 19.344 81.9409 19.3504C81.2322 19.405 80.5234 19.4597 79.8147 19.5156C79.6375 19.5296 79.6348 19.5308 79.4522 19.4698C79.4146 19.4571 79.3744 19.433 79.3449 19.4355C79.2831 19.4419 79.224 19.4736 79.1811 19.5169C79.1381 19.5626 79.071 19.5753 78.9716 19.5842C78.8696 19.5931 78.8025 19.5893 78.7247 19.5588C78.6254 19.5207 78.5341 19.4838 78.373 19.4965C76.3353 19.6592 74.2976 19.8155 72.26 19.9769C72.0962 19.9896 72.021 19.9363 71.9083 19.907C71.8707 19.8981 71.8331 19.8854 71.7929 19.8829C71.7499 19.8803 71.7043 19.888 71.6613 19.8918C68.3377 20.1498 65.0141 20.409 61.6905 20.667C61.4918 20.6822 61.4945 20.6822 61.277 20.7992C61.2502 20.8131 61.2153 20.8322 61.1777 20.8347C60.1602 20.9161 59.14 20.9949 58.1199 21.0737C57.6769 21.108 57.2339 21.1436 56.791 21.1766C56.6326 21.188 56.6326 21.188 56.254 21.3253C56.2218 21.3367 56.1842 21.352 56.1466 21.3545C54.3747 21.493 52.6028 21.6316 50.8283 21.7675C50.6887 21.7777 50.5759 21.8006 50.5115 21.8616C50.4659 21.9048 50.4068 21.9302 50.3182 21.9378C49.0779 22.0344 47.8376 22.1323 46.5946 22.2263C46.447 22.2378 46.3583 22.2734 46.2859 22.3267C46.2617 22.3445 46.2402 22.3648 46.2053 22.3776C46.1731 22.389 46.1248 22.3928 46.0845 22.3966C45.0214 22.4792 43.9583 22.5644 42.8925 22.6432C42.7341 22.6546 42.6696 22.7016 42.5917 22.7512C42.5649 22.7677 42.5461 22.7906 42.5112 22.802C42.4763 22.8122 42.4253 22.8122 42.3823 22.8147C41.4964 22.8834 40.6105 22.9533 39.7245 23.0219C39.5527 23.0155 39.5151 23.0892 39.4319 23.1337C39.4024 23.149 39.3809 23.1693 39.346 23.1795C39.3084 23.1896 39.2601 23.1884 39.2144 23.1909C38.5057 23.2455 37.7969 23.304 37.0855 23.3548C36.9217 23.3663 36.8895 23.4311 36.8009 23.4756C36.7714 23.4895 36.7419 23.5112 36.707 23.515C36.264 23.5518 35.8211 23.5861 35.3781 23.6192C35.2304 23.6306 35.2304 23.6294 34.97 23.7552C34.9405 23.7691 34.9055 23.7844 34.868 23.7882C34.2048 23.8416 33.5391 23.8924 32.8733 23.9445C32.7874 23.9509 32.7283 23.9814 32.6854 24.0246C32.6424 24.0678 32.5807 24.0958 32.4948 24.1021C31.9632 24.144 31.4316 24.1872 30.9 24.2254C30.7524 24.2355 30.6557 24.2673 30.5913 24.3245C30.543 24.3677 30.4839 24.3893 30.39 24.3969C29.8584 24.4376 29.3268 24.4821 28.7926 24.5177C28.6369 24.5278 28.5563 24.571 28.4919 24.6244C28.4409 24.6676 28.3818 24.6829 28.2825 24.6905C27.3079 24.7642 26.3307 24.8379 25.3589 24.9193C25.1951 24.9332 25.1119 24.8888 25.0045 24.857C24.8515 24.8125 24.7092 24.7642 24.7092 24.6651C24.7092 24.6498 24.6636 24.632 24.6314 24.6193C24.3924 24.524 24.3924 24.524 24.3548 24.4224C24.3334 24.3601 24.3092 24.2966 24.2904 24.233C24.2555 24.1288 24.1696 24.1021 23.9226 24.1212C23.834 24.1275 23.7454 24.1364 23.6568 24.1415C23.5252 24.1504 23.4259 24.1085 23.4018 24.0322C23.3883 23.9903 23.3723 23.9483 23.3588 23.9064C23.4931 23.8962 23.4903 23.895 23.7266 23.7412C23.8259 23.6764 23.826 23.6764 23.6354 23.6116C23.5629 23.5874 23.4931 23.5607 23.4152 23.5378C23.3803 23.5277 23.3347 23.5213 23.2971 23.5239C23.0743 23.5391 22.8541 23.5569 22.634 23.5747C22.2796 23.6027 22.2796 23.6027 21.9198 23.473C21.8903 23.4629 21.8447 23.4438 21.85 23.4336C21.8796 23.3866 21.952 23.3663 22.0433 23.3612C22.1775 23.3536 22.3091 23.3409 22.4406 23.3307C22.5292 23.3243 22.6178 23.3167 22.7064 23.3104C22.7896 23.2621 22.8756 23.2151 22.9534 23.1655C23.0769 23.0892 23.0769 23.0867 22.9078 23.0333C22.8004 22.9977 22.6849 22.966 22.5749 22.9329C22.4433 22.9431 22.3091 22.9545 22.1775 22.9634C22.0111 22.9748 21.944 22.9507 21.901 22.8681C21.8634 22.7957 21.9091 22.7334 22.0379 22.7181C22.1695 22.7029 22.293 22.6927 22.3601 22.6279C22.4246 22.5656 22.5373 22.5415 22.6769 22.5364C22.7655 22.5326 22.8541 22.5237 22.9427 22.5161C23.0581 22.5059 23.1199 22.4411 23.0957 22.3687C23.0823 22.3216 23.0555 22.2822 22.9508 22.2721C22.4863 22.2276 22.4809 22.2289 22.25 22.1424C22.2286 22.1348 22.2125 22.1119 22.2205 22.1005C22.234 22.0814 22.2635 22.0535 22.2957 22.0497C22.6045 22.0217 22.9132 21.9963 23.2219 21.9772C23.3239 21.9709 23.3991 21.962 23.434 21.915C23.4823 21.8501 23.4609 21.7904 23.3669 21.7459C23.3374 21.732 23.289 21.7142 23.2568 21.7154C22.9024 21.7383 22.5507 21.7675 22.1964 21.7904C22.1641 21.793 22.1051 21.7714 22.0917 21.7548C22.0648 21.7243 22.1051 21.6837 22.199 21.6697C22.3225 21.6506 22.4487 21.6494 22.5319 21.5858C22.6474 21.4956 22.7896 21.413 22.9185 21.3266C22.94 21.3113 22.9749 21.2821 22.9669 21.2795C22.8998 21.2516 22.8219 21.23 22.7521 21.2033C22.634 21.1588 22.6339 21.0965 22.6608 21.0368C22.6823 20.9885 22.7628 20.9695 22.8621 20.9695C22.9051 20.9695 22.9588 20.9695 22.9937 20.958C23.085 20.9301 23.1145 20.8945 23.0689 20.8678C23.042 20.8525 22.9937 20.8309 22.9615 20.8335C22.387 20.8754 21.8097 20.9161 21.2379 20.9682C21.0688 20.9834 20.991 20.9351 20.889 20.9008C20.8111 20.8741 20.7386 20.864 20.6419 20.883C20.5506 20.9008 20.4621 20.8907 20.4057 20.8487C20.3601 20.8144 20.4406 20.7852 20.658 20.7521C20.6983 20.7458 20.7439 20.742 20.7735 20.7293C21.0849 20.592 21.0849 20.5907 21.2997 20.5729C21.5091 20.5564 21.5091 20.5552 21.6192 20.4814C21.6702 20.4471 21.7265 20.4128 21.7748 20.3772C21.7936 20.3633 21.8259 20.3378 21.8152 20.3302C21.7561 20.2908 21.6755 20.2819 21.5816 20.2908C21.3722 20.3124 21.1252 20.2946 21.0151 20.4154C20.9722 20.4611 20.9051 20.4738 20.8084 20.4814C19.8366 20.5552 18.8647 20.634 17.8901 20.7051C17.7317 20.7166 17.6593 20.7636 17.5976 20.8157C17.5439 20.8589 17.4848 20.8716 17.3828 20.8792C17.2807 20.8869 17.2002 20.8907 17.1411 20.8487C17.1062 20.8233 17.1357 20.7877 17.2163 20.7521C17.3317 20.7013 17.3102 20.6378 17.2727 20.578C17.2458 20.5386 17.1626 20.5107 17.074 20.5132C16.9424 20.5183 16.8163 20.5323 16.7062 20.4814C16.6418 20.4522 16.5612 20.4319 16.4888 20.4065C16.3492 20.3544 16.2095 20.301 16.0136 20.3353C15.8793 20.3226 15.7854 20.2768 15.678 20.2413C15.4981 20.1828 15.482 20.1739 15.6109 20.1116C15.7558 20.0417 15.6431 19.9502 15.7236 19.8816C15.8095 19.8079 15.9277 19.7431 16.0324 19.6745C16.0592 19.6567 16.0834 19.6401 16.1102 19.6224C16.0485 19.5969 15.9921 19.5652 15.9196 19.5474C15.8257 19.5245 15.7773 19.4965 15.7827 19.4177C15.7639 19.4063 15.7719 19.4355 15.7934 19.4432C15.8176 19.4508 15.8767 19.4444 15.9062 19.4355C15.9814 19.4114 16.0189 19.3796 16.0001 19.3529C15.9894 19.339 15.9384 19.3212 15.9062 19.3212C15.8471 19.3212 15.7961 19.3491 15.78 19.4177C15.4793 19.4699 15.1679 19.4953 14.8565 19.5156C14.8242 19.5181 14.784 19.4927 14.7464 19.48C14.6229 19.4368 14.6229 19.4381 14.2605 19.4254C14.2229 19.4241 14.1719 19.4063 14.1531 19.3885C14.0753 19.311 14.078 19.2258 14.0404 19.1432C14.1102 19.0899 14.1799 19.0378 14.2524 18.9857C14.3974 18.8802 14.5853 18.7874 14.6981 18.6718C14.6739 18.6095 14.6417 18.5472 14.7598 18.4964C15.0954 18.4328 15.0928 18.4328 15.184 18.3718C15.4445 18.199 15.7022 18.0249 15.9733 17.8546C16.0458 17.8101 16.0458 17.786 15.917 17.7669C15.8767 17.7618 15.8337 17.7606 15.7907 17.7631C15.6565 17.772 15.5222 17.7949 15.3907 17.7898C15.2592 17.786 15.1625 17.73 15.0551 17.6957C14.945 17.6602 14.835 17.6233 14.7249 17.5864C14.5987 17.5903 14.4726 17.6258 14.3464 17.5686C14.2497 17.5242 14.1289 17.4924 14.0189 17.4555C14.1021 17.359 14.2578 17.2852 14.3786 17.2001C14.4887 17.1226 14.4913 17.1239 14.7867 17.0641C14.9263 17.0362 14.9746 16.8926 14.8565 16.8506C14.7142 16.7998 14.5639 16.7528 14.4189 16.7045C14.2927 16.7083 14.1639 16.7426 14.0431 16.6854C13.9491 16.6422 13.8417 16.613 13.686 16.6295C13.4229 16.6574 13.1544 16.6714 12.8886 16.6943C12.7974 16.7019 12.698 16.6968 12.6577 16.6536C12.6309 16.6231 12.7087 16.5812 12.7973 16.5723C12.9316 16.5596 13.0524 16.5443 13.1195 16.4808C13.1839 16.4173 13.302 16.3982 13.4416 16.3893C13.4792 16.3868 13.5222 16.3715 13.541 16.3562C13.6376 16.2825 13.745 16.219 13.9518 16.2215C14.0377 16.1961 14.0833 16.1644 14.0564 16.1339C14.0403 16.1173 13.984 16.0957 13.9518 16.0983C13.7289 16.111 13.5061 16.1237 13.2887 16.1466C13.1866 16.1567 13.1087 16.1593 13.0443 16.1211C12.9987 16.0957 13.0228 16.0614 13.1087 16.0246C13.1839 15.9928 13.2054 15.9559 13.2 15.9127C13.1866 15.8123 13.1061 15.7831 12.8483 15.7895C12.6631 15.7945 12.6174 15.778 12.5772 15.6916C12.5664 15.6713 12.5396 15.6433 12.5584 15.6293C12.6739 15.5429 12.749 15.4362 12.9665 15.3955C13.0524 15.3802 13.1437 15.3802 13.1974 15.3472C13.251 15.3142 13.2994 15.276 13.3558 15.2443C13.4256 15.2061 13.4738 15.1706 13.4416 15.1464C13.3879 15.1032 13.3021 15.0994 13.2027 15.1146C13.1168 15.1273 13.0255 15.1286 12.9369 15.1362C12.7786 15.1502 12.6497 15.1172 12.6309 15.0613C12.5799 14.9138 12.5262 14.7677 12.4806 14.6203C12.4752 14.6025 12.4886 14.5796 12.5101 14.5644C12.5852 14.511 12.6658 14.4601 12.7437 14.408C12.8349 14.3483 12.9799 14.3597 13.1034 14.3483C13.2779 14.3318 13.2779 14.3331 13.5114 14.2111C13.6027 14.1628 13.7611 14.1818 13.8551 14.1386C13.8846 14.1246 13.9303 14.1018 13.9222 14.0891C13.9115 14.0725 13.8578 14.0598 13.8175 14.0522C13.7799 14.0446 13.7343 14.0408 13.694 14.0446C13.2054 14.0814 12.7195 14.1208 12.2309 14.1564C12.1477 14.1628 12.0564 14.1348 12.0269 14.0954C11.9973 14.0586 12.0054 14.0141 12 13.9721C12.0779 13.92 12.1664 13.8717 12.2335 13.8158C12.2845 13.7726 12.3436 13.7535 12.4456 13.751C12.5799 13.7472 12.7114 13.7319 12.8618 13.7205C13.141 13.535 13.4148 13.3405 13.7155 13.155C13.8363 13.08 13.8068 13.0037 13.831 12.9237C13.8551 12.85 14.035 12.8614 14.1558 12.8398C14.2524 12.822 14.2846 12.7813 14.247 12.7534C14.2256 12.7369 14.1773 12.7178 14.1397 12.7178C14.0511 12.7178 13.9625 12.7292 13.8739 12.7356C13.7853 12.7419 13.6833 12.7381 13.6108 12.7597C13.541 12.7801 13.4953 12.8233 13.4497 12.8601C13.3987 12.9008 13.3316 12.9148 13.2296 12.9173C13.098 12.9199 12.9665 12.9313 12.835 12.9402C12.69 12.8906 12.5396 12.8424 12.4 12.7902C12.3732 12.7801 12.3678 12.7509 12.3705 12.7318C12.3758 12.6822 12.3356 12.6517 12.247 12.6276C12.1718 12.6072 12.11 12.578 12.0402 12.5526C12.0939 12.5183 12.153 12.4852 12.196 12.4484C12.2899 12.3709 12.4081 12.315 12.6121 12.3175C12.6927 12.2679 12.7571 12.2069 12.8618 12.1726C12.9611 12.1396 13.1302 12.1726 13.2054 12.0976C13.243 12.0608 13.2994 12.0188 13.3719 12.0036C13.4873 11.9794 13.6377 11.9922 13.7048 11.921C13.7451 11.8803 13.8041 11.8435 13.882 11.8333C13.9705 11.8219 14.0618 11.8193 14.1262 11.7952C14.1611 11.7825 14.1987 11.7621 14.1987 11.7443C14.1987 11.7329 14.1451 11.7151 14.1075 11.7075C14.0726 11.6986 14.0269 11.6922 13.9866 11.6948C13.8524 11.7024 13.7208 11.7164 13.5866 11.724C13.549 11.7265 13.5061 11.7176 13.4658 11.71C13.3477 11.6897 13.3557 11.6643 13.4497 11.6185C13.5437 11.574 13.6108 11.5168 13.6887 11.4647C13.7746 11.4558 13.8819 11.4597 13.941 11.4355C14.0403 11.3961 14.1101 11.3389 14.1907 11.2894C14.2793 11.2817 14.3705 11.2792 14.4538 11.2652C14.4887 11.2601 14.5048 11.2322 14.5343 11.2157C14.588 11.1839 14.6337 11.1381 14.7062 11.1229C14.8243 11.1 14.9693 11.1089 15.0391 11.039C15.0793 10.9983 15.1411 10.9551 15.2162 10.9526C15.4256 10.9475 15.5142 10.8776 15.6216 10.8115C15.7022 10.762 15.874 10.7874 15.9626 10.7378C16.0216 10.706 16.0646 10.6666 16.1237 10.6361C16.1478 10.6234 16.1988 10.6171 16.2391 10.6133C16.4592 10.5942 16.6821 10.5802 16.9022 10.5599C16.9371 10.5561 16.9693 10.537 16.9962 10.5218C17.0526 10.4887 17.0874 10.443 17.1572 10.4214C17.227 10.3998 17.3264 10.3998 17.4123 10.3934C17.6888 10.3744 17.7103 10.3794 17.8365 10.2714C17.9385 10.1837 18.1882 10.246 18.2714 10.1494C18.3197 10.0935 18.4083 10.0477 18.5667 10.0414C18.7895 10.0325 19.0096 10.0083 19.2325 9.99183C19.4311 9.97658 19.4285 9.97657 19.6432 9.85838C19.7399 9.80501 19.8822 9.81264 20.0084 9.80247C20.1426 9.7923 20.2661 9.77706 20.3305 9.71352C20.395 9.65125 20.5131 9.6309 20.65 9.622C20.7762 9.61311 20.9185 9.61947 21.0178 9.56864C21.2594 9.44664 21.2568 9.44536 21.4259 9.43265C21.6917 9.41231 21.9574 9.39198 22.2232 9.37038C22.4004 9.3564 22.5856 9.35386 22.7521 9.3259C22.8729 9.30557 22.9266 9.2344 23.0044 9.18484C23.2246 9.16578 23.4447 9.1467 23.6649 9.12891C23.9736 9.1035 24.285 9.08063 24.5964 9.05648C24.7307 9.00819 24.7495 8.90143 24.975 8.89635C25.1092 8.89381 25.2408 8.87729 25.375 8.86712C25.5978 8.84933 25.818 8.82646 26.0408 8.81756C26.2099 8.81121 26.2394 8.74257 26.328 8.69936C26.3576 8.68411 26.3844 8.66252 26.4193 8.6587C26.7683 8.62312 27.1281 8.61549 27.469 8.56339C27.5039 8.55831 27.5361 8.53162 27.5442 8.51255C27.5496 8.50239 27.5039 8.48333 27.4744 8.47444C27.4395 8.46427 27.3939 8.4541 27.3563 8.45664C26.2475 8.54179 25.1388 8.62821 24.03 8.71336C23.8743 8.72607 23.8743 8.72479 23.4958 8.86458C23.4635 8.87602 23.4259 8.88872 23.3856 8.89254C23.2085 8.90779 23.0286 8.91669 22.8541 8.93576C22.7118 8.95101 22.5937 8.93574 22.4917 8.88999C22.4192 8.85695 22.344 8.84679 22.2527 8.84933C22.1507 8.85314 22.0836 8.86713 22.0246 8.90144C21.9467 8.94846 21.9064 9.00946 21.7427 9.02217C20.9883 9.07681 20.2338 9.13781 19.4821 9.19627C19.3774 9.17848 19.3264 9.15179 19.3533 9.12002C19.3694 9.10096 19.4016 9.07554 19.4338 9.073C19.7426 9.04631 20.054 9.02344 20.3627 8.99803C20.4057 8.99421 20.4647 8.99674 20.4889 8.98403C20.607 8.92684 20.65 8.83407 20.8728 8.82772C21.0017 8.82391 21.1332 8.80485 21.2567 8.78706C21.2916 8.78198 21.3238 8.75529 21.3319 8.73622C21.3346 8.72606 21.2916 8.70699 21.2594 8.69809C21.1413 8.66124 21.0044 8.70573 20.8863 8.68031C20.846 8.67142 20.7896 8.6587 20.7815 8.64345C20.7762 8.62947 20.8218 8.6066 20.854 8.59262C20.8836 8.57991 20.9238 8.56847 20.9641 8.56466C21.3184 8.53543 21.6729 8.50493 22.0273 8.48205C22.1722 8.47316 22.2742 8.44138 22.3386 8.38292C22.387 8.33971 22.446 8.31685 22.5373 8.31049C23.1575 8.26347 23.7776 8.21137 24.4005 8.16816C24.5562 8.15799 24.6367 8.11606 24.7012 8.06141C24.7522 8.0182 24.8112 8.00295 24.9106 7.99532C25.7992 7.92924 26.6824 7.85553 27.5711 7.79199C27.7348 7.78055 27.7832 7.7259 27.8664 7.67888C27.8959 7.66236 27.9147 7.64203 27.9523 7.63186C27.9898 7.62169 28.0382 7.62295 28.0838 7.62041C28.7926 7.56576 29.5014 7.50732 30.2128 7.45648C30.3792 7.44504 30.4114 7.38149 30.4973 7.33701C30.5268 7.32303 30.5537 7.30017 30.5886 7.29635C31.1202 7.25314 31.6517 7.21248 32.1833 7.17054C32.5377 7.14258 32.892 7.11462 33.2464 7.08793C33.4209 7.07522 33.4209 7.07395 33.6572 6.95321C33.684 6.93923 33.7216 6.92271 33.7565 6.9189C34.7767 6.83756 35.7942 6.76006 36.8143 6.67999C36.9003 6.67364 36.962 6.64439 37.0049 6.60119C37.0479 6.55798 37.1097 6.52875 37.1929 6.52239C37.9903 6.45885 38.7876 6.39658 39.5876 6.33685C39.7326 6.32669 39.8346 6.29618 39.899 6.239C39.9473 6.19579 40.0064 6.17292 40.0977 6.16656C40.895 6.10556 41.6924 6.04074 42.4924 5.98228C42.6455 5.97084 42.7206 5.92764 42.7958 5.87681C42.8226 5.85901 42.8441 5.82978 42.8763 5.82724C43.2737 5.79166 43.6683 5.7548 44.0683 5.73065C44.2348 5.72049 44.2912 5.66711 44.3583 5.61627C44.412 5.57561 44.4737 5.56163 44.5758 5.55655C44.7986 5.54511 45.0187 5.52351 45.2362 5.50191C45.2684 5.4981 45.3087 5.47014 45.3113 5.45235C45.3167 5.4193 45.2549 5.39642 45.1529 5.38499C44.0898 5.46759 43.024 5.55019 41.9609 5.6328C41.7864 5.64678 41.7864 5.64678 41.5501 5.76751C41.5233 5.78149 41.4857 5.79802 41.4481 5.80183C40.4279 5.88189 39.4104 5.96069 38.3903 6.04075C38.3044 6.0471 38.2426 6.07633 38.1997 6.11954C38.1567 6.16275 38.0949 6.19198 38.0117 6.19834C37.0372 6.27459 36.0627 6.35211 35.0854 6.42455C34.9405 6.43472 34.8385 6.46393 34.774 6.52239C34.7257 6.5656 34.6667 6.58849 34.5754 6.59484C33.6438 6.66601 32.7149 6.74098 31.7806 6.80961C31.6866 6.81596 31.6169 6.77911 31.6222 6.74479C31.6249 6.727 31.6651 6.69778 31.6974 6.69524C32.1833 6.6533 32.6666 6.61009 33.1552 6.57832C33.3189 6.56815 33.3672 6.51223 33.4504 6.46521C33.4773 6.44869 33.4988 6.42709 33.5337 6.41819C33.5713 6.40802 33.6196 6.4093 33.6652 6.40676C34.817 6.31653 35.9687 6.22503 37.1231 6.13988C37.2896 6.12717 37.3217 6.06489 37.4076 6.02041C37.4372 6.00516 37.464 5.98229 37.4989 5.97975C37.8533 5.94925 38.2077 5.92256 38.5621 5.89587C39.1822 5.84758 39.8024 5.79928 40.4252 5.75099C40.6051 5.73701 40.6051 5.73701 40.836 5.61755C40.8628 5.60357 40.9004 5.58579 40.9353 5.58325C42.5757 5.45489 44.216 5.32653 45.8563 5.19945C45.9423 5.19309 46.004 5.16386 46.0469 5.12065C46.0899 5.07872 46.1516 5.04822 46.2349 5.04059C48.4524 4.86775 50.6672 4.69491 52.8848 4.52462C53.0298 4.51318 53.1317 4.48649 53.1962 4.42676C53.2418 4.38355 53.3036 4.36068 53.3948 4.35305C55.8325 4.1637 58.2702 3.97434 60.7106 3.78372C62.3509 3.65663 63.9912 3.527 65.6316 3.40246C65.7819 3.39102 65.8624 3.35162 65.9376 3.29951C65.9618 3.28172 65.9859 3.25249 66.0181 3.24995C66.3698 3.21818 66.7215 3.18895 67.0732 3.15972C67.1833 3.19404 67.2933 3.22708 67.4034 3.2614C67.4866 3.2131 67.5672 3.16354 67.6504 3.11525C68.182 3.07839 68.7055 3.0212 69.2424 3.00341C69.2773 3.00214 69.3149 3.02629 69.3525 3.039C69.6021 3.11906 69.7444 3.11271 69.9028 3.00595C69.9592 2.96783 70.0075 2.93352 70.0934 2.92716C70.3592 2.90429 70.6278 2.88903 70.8908 2.86235C71.0331 2.84837 71.1512 2.86107 71.2532 2.90682C71.3257 2.93987 71.4009 2.95385 71.4895 2.94623C71.9781 2.9081 72.464 2.87124 72.9527 2.83058C72.9876 2.82803 73.0197 2.80642 73.0466 2.79117C73.103 2.75813 73.1513 2.72255 73.205 2.68824C73.2775 2.70985 73.358 2.72637 73.4171 2.75433C73.4923 2.78737 73.562 2.78736 73.6641 2.77847C75.6131 2.62469 77.5649 2.47473 79.514 2.31969C79.6804 2.30698 79.7529 2.36036 79.8657 2.38832C79.9033 2.39849 79.9408 2.41119 79.9811 2.41373C80.024 2.41627 80.0697 2.40866 80.1126 2.40484C81.5758 2.29047 83.0389 2.17735 84.5021 2.06298C84.6954 2.04773 84.6954 2.04773 84.9827 2.12652C85.0176 2.13669 85.0632 2.14812 85.1008 2.14431C85.7666 2.09475 86.4323 2.04138 87.0955 1.99054C87.1814 1.98419 87.2539 2.00452 87.3317 2.03375C87.4848 2.09094 87.4954 2.09094 87.6082 2.00707C87.6619 1.96767 87.7183 1.94351 87.8069 1.93207C87.9035 1.91937 87.9814 1.92319 88.0566 1.94607C88.164 1.97784 88.2418 2.03121 88.4056 2.01723C89.1143 1.9575 89.8258 1.90794 90.5318 1.84694C90.6929 1.83296 90.7788 1.87616 90.8862 1.90794C90.9238 1.91937 90.9587 1.93717 90.999 1.94098C91.0392 1.94479 91.0876 1.93589 91.1305 1.93207C92.0164 1.86345 92.905 1.79611 93.7883 1.7224C93.9548 1.70842 94.0273 1.76305 94.14 1.79101C94.1776 1.80118 94.2205 1.81898 94.2554 1.81644C94.787 1.77704 95.3213 1.73509 95.8529 1.69315C96.0435 1.6779 96.0434 1.67917 96.3334 1.7567C96.3683 1.76686 96.4139 1.77703 96.4515 1.77449C97.0717 1.72747 97.6945 1.67918 98.3147 1.63088C98.5053 1.61563 98.5053 1.61564 99.0556 1.68172C99.0959 1.6868 99.1389 1.69444 99.1791 1.6919C99.8879 1.63725 100.599 1.58387 101.308 1.52541C101.45 1.51397 101.568 1.52413 101.671 1.56988C101.743 1.60293 101.818 1.61691 101.907 1.60929C102.704 1.54702 103.504 1.48729 104.299 1.4212C104.452 1.4085 104.551 1.43644 104.659 1.4733C104.693 1.48601 104.728 1.5038 104.769 1.50889C104.809 1.51397 104.855 1.50888 104.897 1.50507C105.695 1.4428 106.495 1.38434 107.289 1.31699C107.451 1.30301 107.536 1.34621 107.644 1.37798C107.681 1.38942 107.722 1.4123 107.754 1.41103C108.065 1.38942 108.377 1.37037 108.686 1.3386C108.852 1.3208 108.924 1.37925 109.037 1.40721C109.075 1.41611 109.118 1.43518 109.153 1.43264C109.818 1.38307 110.484 1.33097 111.147 1.2776C111.241 1.26997 111.311 1.2814 111.386 1.31444C111.486 1.35892 111.601 1.37671 111.746 1.36273C112.055 1.33351 112.366 1.31318 112.678 1.28903C112.86 1.27505 112.86 1.27506 113.419 1.34114C113.459 1.34622 113.502 1.35384 113.542 1.3513C114.074 1.31063 114.608 1.27124 115.137 1.22676C115.279 1.21405 115.397 1.22549 115.499 1.27124C115.572 1.30428 115.644 1.31827 115.735 1.31064C116.224 1.27252 116.71 1.23439 117.199 1.19626C117.376 1.18228 117.553 1.15813 117.73 1.15813C117.859 1.1594 117.953 1.2204 118.068 1.2509C118.101 1.2598 118.154 1.24964 118.197 1.2471C118.817 1.19881 119.44 1.15432 120.058 1.09968C120.219 1.0857 120.305 1.1289 120.412 1.16067C120.45 1.17211 120.49 1.19499 120.522 1.19372C120.745 1.17974 120.965 1.16067 121.188 1.14415C121.454 1.12382 121.722 1.10857 121.985 1.08061C122.2 1.05773 122.281 1.16829 122.452 1.17211C122.584 1.17592 122.718 1.15432 122.85 1.14415C123.116 1.12382 123.381 1.10095 123.647 1.08315C123.741 1.0768 123.814 1.05646 123.843 1.01071C123.849 1.00181 123.803 0.982756 123.773 0.971318C123.416 0.841691 123.416 0.841685 123.057 0.869643C122.834 0.887435 122.614 0.90523 122.391 0.920481C122.353 0.923022 122.31 0.912856 122.273 0.905231C122.165 0.883627 122.176 0.858212 122.267 0.812461C122.359 0.766711 122.428 0.710798 122.506 0.658693C122.616 0.691735 122.724 0.724766 122.834 0.757808C122.922 0.751454 123.011 0.74384 123.1 0.737485C123.542 0.704443 123.985 0.670128 124.428 0.639627C124.461 0.637086 124.501 0.662506 124.538 0.675215C124.646 0.71207 124.743 0.743832 124.898 0.729853C125.296 0.692998 125.696 0.66631 126.093 0.634539C126.267 0.620559 126.267 0.620561 126.573 0.699354C126.608 0.70825 126.654 0.718417 126.692 0.715875C127.092 0.686646 127.489 0.654878 127.889 0.624378C127.975 0.618023 128.058 0.634544 128.12 0.671399C128.144 0.686649 128.139 0.712061 128.241 0.920481C128.557 1.0895 128.775 1.07172 128.995 1.05647C129.089 1.05012 129.172 1.04376 129.234 1.01834C129.266 1.00436 129.306 0.984023 129.306 0.967502C129.306 0.954793 129.247 0.934456 129.21 0.931914C128.944 0.906497 128.692 0.95988 128.431 0.971318C128.31 0.976401 128.206 0.931921 128.184 0.859482C128.179 0.839149 128.171 0.817545 128.163 0.797212C128.155 0.776878 128.149 0.755275 128.141 0.734941C128.037 0.728587 127.975 0.751459 127.929 0.794667C127.892 0.830251 127.838 0.870919 127.765 0.889981C127.693 0.910315 127.594 0.906509 127.505 0.912864C127.419 0.919218 127.325 0.935737 127.245 0.926841C127.164 0.916674 127.1 0.879813 127.024 0.856938C126.99 0.8455 126.947 0.828985 126.912 0.831527C126.603 0.853132 126.297 0.874728 125.991 0.902687C125.83 0.917937 125.749 0.864569 125.647 0.831527C125.567 0.80611 125.486 0.812456 125.473 0.870916C125.438 1.01071 125.561 1.06917 125.835 1.04248C126.061 1.0196 126.265 1.0158 126.442 1.10222C126.466 1.11366 126.522 1.11874 126.557 1.1162C126.777 1.10095 126.995 1.08188 127.215 1.06663C127.255 1.06409 127.298 1.06917 127.336 1.07425C127.884 1.14287 127.884 1.14415 128.069 1.1289C128.157 1.12128 128.243 1.11492 128.235 0.921753C128.404 0.714604 128.673 0.700627 128.933 0.670126C129.102 0.651064 129.175 0.706984 129.285 0.736213C129.323 0.74638 129.363 0.76671 129.398 0.764168C129.975 0.72223 130.549 0.677744 131.124 0.630723C131.221 0.623097 131.29 0.630724 131.366 0.663766C131.462 0.705704 131.57 0.732398 131.723 0.717147C132.029 0.686647 132.34 0.667588 132.652 0.642171C132.81 0.629463 132.81 0.62945 133.129 0.708243C133.164 0.717139 133.21 0.727306 133.248 0.724764C133.559 0.70316 133.868 0.67648 134.176 0.653605C134.262 0.64725 134.34 0.665041 134.407 0.699354C134.474 0.733667 134.555 0.751457 134.638 0.745102C134.95 0.722227 135.258 0.696818 135.567 0.673943C135.605 0.671401 135.65 0.680296 135.685 0.689192C136.013 0.767985 136.013 0.767972 136.163 0.755264C136.383 0.736201 136.609 0.727315 136.826 0.701898C137.038 0.676481 137.148 0.750184 137.293 0.790851C137.691 0.761622 138.091 0.737482 138.485 0.701898C138.646 0.686648 138.732 0.728582 138.84 0.761624C138.877 0.773062 138.915 0.79721 138.95 0.79594C139.084 0.790856 139.216 0.776879 139.347 0.766712C139.479 0.756546 139.613 0.74638 139.744 0.736213C139.895 0.773068 139.994 0.859485 140.209 0.830255C140.338 0.812463 140.475 0.808651 140.606 0.798484C140.738 0.788317 140.872 0.778151 141.004 0.767985C141.092 0.76163 141.183 0.757812 141.269 0.746374C141.428 0.727312 141.506 0.789591 141.618 0.81755C141.656 0.826446 141.699 0.841686 141.734 0.839144C142 0.821352 142.268 0.806103 142.528 0.776874C142.73 0.753998 142.867 0.792129 143.009 0.845505C143.039 0.856942 143.09 0.863296 143.127 0.860754C143.439 0.83915 143.747 0.812454 144.056 0.789579C144.139 0.783225 144.22 0.803558 144.287 0.8366C144.357 0.870913 144.435 0.887447 144.52 0.881092C144.829 0.858217 145.141 0.832792 145.449 0.809917C145.487 0.807375 145.533 0.817544 145.567 0.827711C145.868 0.906504 145.868 0.907776 146.045 0.892526C146.088 0.888713 146.134 0.886161 146.177 0.882349C146.397 0.864557 146.625 0.858211 146.84 0.827711C147.087 0.793398 147.267 0.836609 147.441 0.909047C147.662 0.893797 147.887 0.884899 148.102 0.859482C148.263 0.840419 148.349 0.888709 148.456 0.920481C148.494 0.931918 148.534 0.954794 148.566 0.952252C148.878 0.930647 149.189 0.911592 149.495 0.87982C149.662 0.862028 149.734 0.919206 149.847 0.948436C149.884 0.958603 149.925 0.976404 149.96 0.973862C150.137 0.963695 150.314 0.948438 150.491 0.934458C150.698 0.917937 150.698 0.919207 150.972 0.996729C151.101 1.03358 151.229 1.00435 151.356 0.995457C151.49 0.98529 151.616 0.977667 151.723 1.02977C151.791 1.06281 151.871 1.08315 151.954 1.07807C152.131 1.06663 152.311 1.0552 152.486 1.03613C152.625 1.02088 152.746 1.03104 152.848 1.07807C152.921 1.11111 152.996 1.12764 153.085 1.12001C153.482 1.08951 153.882 1.05773 154.279 1.0285C154.314 1.02596 154.362 1.0374 154.395 1.04884C154.47 1.07171 154.542 1.09712 154.615 1.12254C154.789 1.1111 154.969 1.10603 155.141 1.08824C155.324 1.07045 155.49 1.06409 155.632 1.13399C155.662 1.14924 155.705 1.17083 155.74 1.16956C155.874 1.16448 156.005 1.15177 156.137 1.14161C156.269 1.13144 156.403 1.12128 156.534 1.11111C156.687 1.14288 156.784 1.23438 156.999 1.20515C157.128 1.18736 157.265 1.18355 157.396 1.17338C157.528 1.16321 157.662 1.15178 157.793 1.14288C157.836 1.14034 157.885 1.13398 157.922 1.13906C157.963 1.14415 157.997 1.16194 158.032 1.17465C158.14 1.21151 158.239 1.24836 158.392 1.22676C158.521 1.20897 158.658 1.20515 158.789 1.19372C158.969 1.17974 158.969 1.17974 159.267 1.2598C159.388 1.29285 159.525 1.24964 159.64 1.2776C159.718 1.29666 159.785 1.32842 159.861 1.35003C159.893 1.35893 159.944 1.36273 159.981 1.36019C160.159 1.34875 160.338 1.33732 160.513 1.31826C160.655 1.30301 160.773 1.31826 160.873 1.36401C160.945 1.39705 161.018 1.41104 161.109 1.40341C161.552 1.36783 161.995 1.33732 162.435 1.29792C162.586 1.28394 162.706 1.30555 162.79 1.3513C162.932 1.43009 163.133 1.33732 163.281 1.40087C163.372 1.44026 163.463 1.48602 163.63 1.46695C163.936 1.43391 164.247 1.41611 164.556 1.39323C164.666 1.42755 164.776 1.46187 164.889 1.49618C165.066 1.4822 165.243 1.46821 165.421 1.4555C165.552 1.44534 165.686 1.4339 165.818 1.42501C165.861 1.42246 165.906 1.41738 165.947 1.42373C165.987 1.43009 166.019 1.44661 166.057 1.45932C166.242 1.52159 166.242 1.52287 166.548 1.49745C166.68 1.48602 166.806 1.47839 166.916 1.52922C167.018 1.57625 167.139 1.58514 167.278 1.57116C167.541 1.54574 167.807 1.52668 168.076 1.50889C168.159 1.50253 168.237 1.52414 168.307 1.55718C168.411 1.60928 168.54 1.6042 168.672 1.59022C168.846 1.57243 169.018 1.55464 169.166 1.62581C169.195 1.64106 169.241 1.66265 169.273 1.66138C169.493 1.65122 169.716 1.6436 169.931 1.61945C170.146 1.5953 170.25 1.67409 170.398 1.71222C170.618 1.6957 170.841 1.67918 171.061 1.66265C171.104 1.65884 171.155 1.64741 171.193 1.65377C171.351 1.68045 171.442 1.77576 171.66 1.74653C171.786 1.73001 171.923 1.72494 172.054 1.72112C172.089 1.71985 172.135 1.74145 172.159 1.75797C172.173 1.76686 172.159 1.79101 172.143 1.80372C172.095 1.8393 172.036 1.87235 171.993 1.90921C171.987 1.91429 172.038 1.93716 172.068 1.94732C172.14 1.9702 172.223 1.9664 172.32 1.95623C172.403 1.94733 172.489 1.96512 172.548 2.00325C172.573 2.0185 172.564 2.04391 172.513 2.12779C172.513 2.19006 172.57 2.1621 172.589 2.12143C172.618 2.06297 172.562 2.04391 172.454 2.07568C172.379 2.09856 172.342 2.1316 172.36 2.15829C172.371 2.17227 172.422 2.19006 172.513 2.12779C172.75 2.05154 172.927 2.03757 173.104 2.02359C173.15 2.01977 173.203 2.00706 173.236 2.01468C173.351 2.04518 173.458 2.08204 173.571 2.11636C173.7 2.10873 173.821 2.08966 173.947 2.13922C174.124 2.20912 174.132 2.20277 174.304 2.18879C174.393 2.18116 174.481 2.17482 174.57 2.16847C174.659 2.16211 174.728 2.18117 174.806 2.2104C174.965 2.27013 174.978 2.27012 175.083 2.18879C175.144 2.13923 175.187 2.12271 175.265 2.14558C175.523 2.22311 175.526 2.22819 175.746 2.20531C175.928 2.18625 176.1 2.18117 176.234 2.2536C176.326 2.30444 176.355 2.293 176.428 2.23963C176.621 2.09856 176.71 2.1011 177.072 2.20277C177.241 2.25106 177.416 2.19896 177.587 2.19261C177.732 2.18752 177.834 2.21802 177.845 2.29808C177.853 2.34764 177.877 2.38323 177.974 2.39975C178.012 2.40611 178.057 2.415 178.095 2.41246C178.318 2.39721 178.538 2.37942 178.761 2.36162C178.873 2.35273 178.935 2.29301 178.914 2.21422C178.89 2.13034 178.932 2.09983 179.094 2.07568C179.19 2.0617 179.268 2.06425 179.346 2.08713C179.432 2.11255 179.408 2.13542 179.333 2.18117C179.153 2.29301 179.174 2.36162 179.405 2.43914C179.486 2.46583 179.55 2.48999 179.569 2.52938C179.579 2.54972 179.569 2.5764 179.593 2.59165C179.724 2.6768 179.907 2.73145 180.111 2.77212C180.307 2.73781 180.441 2.79499 180.592 2.84074C180.71 2.87632 180.849 2.84583 180.975 2.83312C181.118 2.81914 181.236 2.8293 181.338 2.87632C181.41 2.90937 181.486 2.92461 181.574 2.91826C181.751 2.90428 181.931 2.89539 182.106 2.87505C182.256 2.85726 182.369 2.88268 182.463 2.92589C182.581 2.98054 182.713 2.94368 182.836 2.9513C183.002 2.9602 183.086 3.0733 183.303 3.0428C183.432 3.02501 183.566 3.01865 183.7 3.01357C183.735 3.0123 183.778 3.03391 183.808 3.04916C183.95 3.11906 184.117 3.11524 184.299 3.09491C184.425 3.08093 184.549 3.06823 184.672 3.11652C184.876 3.19785 185.102 3.26902 185.317 3.34401C185.346 3.40246 185.325 3.47108 185.478 3.50539C185.558 3.52318 185.633 3.54988 185.695 3.57911C185.77 3.61342 185.84 3.62232 185.937 3.61343C186.111 3.59563 186.294 3.59181 186.466 3.56893C186.624 3.5486 186.723 3.59055 186.82 3.62995C186.898 3.66172 186.97 3.67696 187.064 3.65409C187.161 3.63248 187.231 3.64646 187.309 3.68077C187.419 3.72779 187.427 3.72271 187.792 3.73669C187.829 3.73797 187.875 3.75702 187.897 3.77354C187.907 3.78243 187.883 3.80787 187.864 3.82057C187.84 3.83583 187.803 3.85361 187.768 3.85742C187.37 3.89046 186.97 3.91969 186.573 3.95273C186.533 3.95655 186.49 3.96545 186.46 3.97816C186.428 3.99214 186.388 4.01119 186.388 4.02898C186.388 4.04169 186.441 4.05694 186.479 4.06584C186.597 4.09507 186.737 4.05059 186.852 4.08363C186.93 4.10524 186.995 4.13573 187.072 4.15607C187.105 4.16496 187.156 4.1637 187.196 4.16115C187.33 4.15226 187.462 4.13955 187.596 4.13193C187.634 4.13066 187.676 4.14337 187.711 4.15354C187.969 4.22979 187.969 4.22978 188.192 4.21326C188.281 4.20691 188.374 4.18784 188.458 4.19547C188.538 4.2031 188.608 4.23741 188.681 4.25901C188.831 4.30476 188.973 4.34924 188.984 4.44837C188.989 4.48649 189.078 4.51953 189.166 4.52207C189.252 4.52461 189.344 4.51065 189.432 4.50302C189.642 4.48777 189.642 4.48777 189.913 4.56529C189.988 4.5869 190.068 4.58943 190.165 4.57673C190.203 4.57164 190.248 4.57673 190.289 4.58309C190.42 4.60215 190.42 4.62629 190.334 4.67204C190.213 4.7394 190.224 4.74575 190.562 4.80294C190.691 4.82455 190.791 4.86522 190.898 4.9008C191.073 4.95799 191.07 4.95798 190.954 5.03296C190.928 5.04948 190.903 5.06728 190.877 5.08507C190.799 5.13463 190.737 5.188 190.576 5.19309C190.399 5.19817 190.221 5.21851 190.044 5.23249C189.872 5.24647 189.827 5.27696 189.843 5.36338C189.862 5.46759 189.897 5.47903 190.205 5.47776C190.294 5.47776 190.372 5.48792 190.439 5.52223C190.407 5.5629 190.348 5.59467 190.262 5.6023C190.042 5.62136 189.819 5.63789 189.599 5.65441C189.421 5.66839 189.244 5.68236 189.067 5.69634C188.957 5.70524 188.887 5.77132 188.917 5.84503C188.933 5.88697 188.946 5.92891 188.96 5.97085C188.989 6.05472 189.046 6.07633 189.225 6.07252C189.271 6.07125 189.314 6.06108 189.357 6.06362C189.532 6.07251 189.615 6.17799 189.824 6.15639C189.999 6.1386 190.181 6.13479 190.353 6.11191C190.511 6.09158 190.6 6.13734 190.71 6.17165C190.748 6.18309 190.788 6.20722 190.82 6.20595C191.043 6.19197 191.266 6.178 191.483 6.15386C191.585 6.14369 191.647 6.15131 191.728 6.18181C191.921 6.25552 191.926 6.25171 192.214 6.22883C192.423 6.21104 192.426 6.21358 192.694 6.2911C192.769 6.31271 192.85 6.31271 192.946 6.30254C193.073 6.28983 193.204 6.2695 193.336 6.28856C193.376 6.29364 193.427 6.3089 193.44 6.32542C193.449 6.33686 193.411 6.36482 193.379 6.37371C193.142 6.4398 192.866 6.42836 192.608 6.45505C192.528 6.46267 192.447 6.43853 192.38 6.40421C192.31 6.3699 192.235 6.35593 192.144 6.36228C191.967 6.37626 191.787 6.38515 191.612 6.40548C191.462 6.42328 191.357 6.39404 191.252 6.35465C191.217 6.34194 191.177 6.31779 191.142 6.31906C190.745 6.34448 190.345 6.3699 189.95 6.40548C189.792 6.42073 189.701 6.38007 189.593 6.34576C189.556 6.33432 189.518 6.31017 189.483 6.31144C189.349 6.31653 189.217 6.3305 189.083 6.34067C188.595 6.3788 188.109 6.41692 187.62 6.45251C187.588 6.45505 187.548 6.42836 187.51 6.41692C187.438 6.39404 187.362 6.37244 187.287 6.35083C187.153 6.361 187.021 6.37371 186.887 6.38133C186.79 6.38641 186.705 6.40421 186.691 6.45251C186.683 6.48428 186.772 6.5135 186.866 6.51096C186.957 6.50842 187.048 6.49317 187.123 6.50969C187.497 6.59102 187.497 6.5923 187.73 6.57577C187.934 6.56052 187.913 6.54781 188.093 6.61771C188.17 6.64821 188.24 6.66601 188.329 6.65838C188.549 6.64059 188.772 6.6228 188.995 6.60755C189.03 6.605 189.075 6.61772 189.11 6.62788C189.373 6.70413 189.373 6.70667 189.591 6.68761C189.875 6.66473 189.886 6.65838 190.077 6.7359C190.208 6.78928 190.329 6.75242 190.455 6.74988C190.6 6.79944 190.758 6.84393 190.89 6.89985C191.046 6.96593 191.209 6.95448 191.387 6.93542C191.518 6.92144 191.647 6.91636 191.754 6.96846C191.856 7.01676 191.98 7.02185 192.12 7.00914C192.246 6.9977 192.375 6.97355 192.506 7.00151C192.541 7.00913 192.595 7.0282 192.592 7.03964C192.589 7.05743 192.554 7.08285 192.52 7.09048C192.273 7.14258 192.001 7.14131 191.741 7.16545C191.706 7.16926 191.661 7.15528 191.626 7.14511C191.55 7.12224 191.478 7.09556 191.405 7.07141C191.274 7.07904 191.14 7.08157 191.011 7.09682C190.911 7.10826 190.836 7.107 190.764 7.0765C190.697 7.04854 190.624 7.01422 190.544 7.00532C190.463 6.99643 190.369 7.01549 190.281 7.02312C190.192 7.03074 190.09 7.02692 190.02 7.04726C189.95 7.06759 189.907 7.11207 189.862 7.14766C189.811 7.18705 189.741 7.19977 189.639 7.20358C189.545 7.2074 189.47 7.20231 189.4 7.16672C189.37 7.15147 189.33 7.14003 189.29 7.12986C189.252 7.12097 189.209 7.10698 189.174 7.10953C188.774 7.13876 188.377 7.17054 187.977 7.20104C187.778 7.21629 187.781 7.21628 187.368 7.1413C187.33 7.13494 187.284 7.12605 187.247 7.12859C187.024 7.14384 186.804 7.16164 186.581 7.17943C186.356 7.19722 186.358 7.19468 185.974 7.11461C185.905 7.09936 185.803 7.1197 185.719 7.11716C185.545 7.1108 185.459 7.00406 185.255 7.02439C185.08 7.04218 184.898 7.04599 184.723 7.06887C184.565 7.0892 184.474 7.04472 184.366 7.01041C184.329 6.99897 184.288 6.97355 184.256 6.9761C183.856 7.00406 183.459 7.03583 182.927 7.03964C182.796 7.03964 182.855 7.06633 182.941 7.07523C183.064 7.08921 183.104 7.06252 183.037 7.01168C182.989 6.9761 182.919 6.9583 182.863 6.96719C182.833 6.97227 182.796 6.99643 182.927 7.03964C183.067 7.08793 183.059 7.11461 183.083 7.12986C183.142 7.16672 183.225 7.18197 183.311 7.17689C183.445 7.16799 183.577 7.15528 183.711 7.14766C183.749 7.14512 183.794 7.15401 183.829 7.16418C184.125 7.24297 184.127 7.24806 184.441 7.21756C184.541 7.20867 184.613 7.20866 184.691 7.23281C184.798 7.26585 184.876 7.32176 185.04 7.30397C185.258 7.27982 185.48 7.26586 185.703 7.25188C185.738 7.24933 185.776 7.27221 185.816 7.28238C185.926 7.31288 186.007 7.37006 186.17 7.34592C186.297 7.32686 186.433 7.32176 186.568 7.31795C186.603 7.31668 186.656 7.33701 186.672 7.35354C186.705 7.38277 186.664 7.41709 186.573 7.44123C186.535 7.4514 186.484 7.44885 186.441 7.45267C186.264 7.46665 186.087 7.48189 185.91 7.49333C185.816 7.49968 185.727 7.51875 185.717 7.56577C185.709 7.59754 185.805 7.6255 185.897 7.62296C186.031 7.61914 186.165 7.60898 186.294 7.59246C186.522 7.5645 186.721 7.57212 186.906 7.65218C187.037 7.7081 187.029 7.68778 187.169 7.85299C187.204 7.89493 187.309 7.89873 187.4 7.89619C187.62 7.88984 187.722 7.90891 187.703 7.9483C187.679 7.99659 187.601 8.01183 187.502 8.01819C187.325 8.02836 187.148 8.04489 186.97 8.05887C186.927 8.06268 186.879 8.0703 186.839 8.06775C186.799 8.06521 186.761 8.04996 186.726 8.03853C186.651 8.01438 186.586 7.97752 186.506 7.96862C186.425 7.95973 186.331 7.97879 186.243 7.98642C186.154 7.99277 186.06 8.01184 185.98 8.00294C185.899 7.99404 185.832 7.95593 185.76 7.93305C185.725 7.92161 185.682 7.90381 185.647 7.90508C185.47 7.91525 185.292 7.93178 185.115 7.94449C184.898 7.96101 184.898 7.96101 184.635 7.88221C184.56 7.85934 184.482 7.86061 184.382 7.87078C184.168 7.89111 184.165 7.88729 183.773 7.81358C183.735 7.80596 183.69 7.79707 183.652 7.80088C183.252 7.83011 182.855 7.86188 182.457 7.89238C182.116 7.91906 182.116 7.91907 181.929 8.04616C181.789 8.1402 181.786 8.1402 181.923 8.18341C182.033 8.21899 182.133 8.27109 182.253 8.29015C182.366 8.30795 182.506 8.25076 182.629 8.30922C182.691 8.33845 182.772 8.37022 182.849 8.37531C182.973 8.38166 183.104 8.3448 183.223 8.40072C183.282 8.42868 183.37 8.45792 183.445 8.45919C183.577 8.46173 183.711 8.44138 183.843 8.43249C183.883 8.42995 183.929 8.42995 183.966 8.4363C184.007 8.44393 184.041 8.45918 184.076 8.47189C184.184 8.5151 184.299 8.53543 184.439 8.51382C184.667 8.47824 184.871 8.49603 185.048 8.57737C185.072 8.5888 185.131 8.59008 185.169 8.585C185.266 8.57229 185.349 8.57101 185.421 8.59516C185.451 8.60533 185.494 8.62311 185.488 8.63455C185.48 8.65361 185.448 8.67903 185.413 8.68539C185.161 8.7286 184.89 8.73369 184.629 8.75656C184.594 8.7591 184.552 8.74257 184.517 8.73114C184.441 8.70826 184.377 8.67014 184.296 8.66125C184.216 8.65235 184.122 8.66887 184.033 8.67523C183.945 8.68158 183.851 8.70064 183.77 8.69302C183.69 8.68412 183.615 8.65235 183.55 8.62439C183.475 8.59262 183.402 8.58881 183.303 8.60152C183.174 8.61804 183.04 8.62058 182.909 8.62948C182.836 8.60533 182.764 8.57863 182.688 8.55576C182.653 8.54432 182.611 8.53035 182.573 8.53162C182.396 8.54179 182.218 8.55703 182.041 8.57101C181.864 8.58499 181.864 8.585 181.563 8.50621C181.529 8.49731 181.483 8.48714 181.445 8.48969C181.222 8.50494 181.002 8.52399 180.78 8.53924C180.694 8.54559 180.616 8.5278 180.546 8.49349C180.479 8.45917 180.398 8.44011 180.315 8.44647C179.961 8.47315 179.606 8.49858 179.252 8.53035C179.11 8.54305 178.989 8.53162 178.892 8.48587C178.779 8.43376 178.653 8.44648 178.522 8.45664C178.224 8.48206 178.221 8.48078 178.03 8.41597C177.993 8.40326 177.955 8.37911 177.92 8.38038C177.612 8.39944 177.3 8.41724 176.994 8.44774C176.833 8.46426 176.747 8.41978 176.64 8.38674C176.602 8.3753 176.562 8.35115 176.53 8.3537C176.307 8.36768 176.084 8.38039 175.867 8.40581C175.649 8.43122 175.566 8.31304 175.402 8.31431C175.179 8.31558 174.959 8.34481 174.739 8.3626C174.562 8.37658 174.385 8.39055 174.207 8.40453C174.03 8.41851 173.853 8.42994 173.676 8.44647C173.582 8.45536 173.512 8.44392 173.434 8.41215C173.335 8.37021 173.217 8.33718 173.109 8.29906C172.946 8.24441 172.946 8.2444 172.747 8.25965C172.704 8.26347 172.658 8.266 172.615 8.26982C172.291 8.29777 172.291 8.29524 171.877 8.21518C171.858 8.21136 171.81 8.22535 171.791 8.23552C171.735 8.26856 171.684 8.30413 171.633 8.33845C171.56 8.31811 171.472 8.30668 171.424 8.27745C171.287 8.19484 171.072 8.30795 170.932 8.22661C170.881 8.19611 170.793 8.16942 170.712 8.1618C170.629 8.15417 170.535 8.17196 170.449 8.17959C170.226 8.19865 170.226 8.19739 170.035 8.31049C169.939 8.36641 169.799 8.35624 169.673 8.36895C169.542 8.38293 169.415 8.39055 169.305 8.33845C169.206 8.29142 169.085 8.27999 168.943 8.29524C168.768 8.3143 168.589 8.32574 168.411 8.33717C168.374 8.33972 168.328 8.33337 168.29 8.32574C167.88 8.25076 167.88 8.24949 167.681 8.26601C167.592 8.27364 167.501 8.27617 167.415 8.28761C167.27 8.30794 167.16 8.28126 167.056 8.24059C167.021 8.22788 166.98 8.20375 166.945 8.20502C166.768 8.21137 166.594 8.22281 166.419 8.23424C166.285 8.24314 166.151 8.24822 166.022 8.26601C165.807 8.29524 165.702 8.21263 165.555 8.1745C165.335 8.19102 165.112 8.20246 164.892 8.22534C164.79 8.23551 164.723 8.2317 164.645 8.2012C164.545 8.16307 164.454 8.11987 164.293 8.13893C164.078 8.16435 163.853 8.17324 163.633 8.18849C163.485 8.1491 163.378 8.06902 163.165 8.09825C163.037 8.11605 162.9 8.11986 162.768 8.13002C162.591 8.144 162.414 8.15672 162.237 8.17197C162.046 8.18722 162.049 8.18341 161.756 8.10843C161.587 8.06395 161.412 8.11351 161.241 8.12114C161.106 8.12749 161.039 8.18595 161.071 8.26093C161.104 8.33591 161.031 8.39437 160.908 8.40453C160.599 8.42868 160.287 8.45409 159.979 8.47569C159.941 8.47823 159.896 8.46934 159.861 8.46044C159.53 8.38038 159.53 8.38166 159.383 8.3931C159.163 8.41216 158.937 8.42232 158.72 8.44647C158.569 8.46299 158.459 8.43631 158.363 8.3931C158.287 8.36006 158.218 8.35243 158.121 8.36006C157.058 8.4452 155.995 8.52399 154.934 8.61168C154.776 8.62439 154.685 8.58754 154.577 8.55323C154.54 8.54179 154.505 8.51764 154.467 8.51764C154.379 8.51764 154.29 8.52908 154.201 8.53671C153.804 8.56721 153.407 8.60406 153.007 8.62693C152.838 8.6371 152.792 8.69556 152.719 8.74386C152.663 8.78071 152.599 8.79595 152.499 8.80104C152.403 8.80612 152.333 8.79976 152.258 8.76672C152.161 8.72351 152.051 8.69682 151.901 8.71461C151.726 8.73495 151.549 8.74385 151.369 8.75783C151.278 8.76419 151.208 8.78706 151.178 8.83281C151.173 8.84043 151.229 8.8595 151.262 8.87094C151.369 8.90907 151.471 8.95354 151.592 8.98023C151.715 9.00692 151.85 8.97641 151.978 8.96878C152.024 8.96624 152.067 8.95862 152.11 8.95989C152.15 8.96117 152.199 8.96752 152.228 8.97896C152.368 9.03615 152.515 9.07554 152.709 9.04123C152.875 9.05775 152.961 9.16323 153.173 9.13527C153.302 9.11875 153.436 9.11113 153.57 9.10477C153.605 9.1035 153.643 9.12638 153.681 9.13782C153.788 9.16959 153.874 9.22042 154.035 9.19882C154.207 9.17594 154.389 9.17213 154.564 9.15434C154.66 9.14417 154.73 9.15307 154.805 9.18611C154.902 9.22805 155.012 9.25981 155.162 9.23948C155.291 9.22168 155.428 9.21787 155.56 9.20643C155.732 9.19245 155.732 9.19373 156.038 9.27252C156.073 9.28141 156.118 9.29158 156.156 9.28904C156.379 9.27379 156.599 9.25473 156.822 9.23948C156.907 9.23312 156.991 9.24964 157.05 9.2865C157.074 9.30175 157.066 9.32718 157.074 9.34878C156.631 9.3831 156.188 9.41232 155.748 9.45426C155.581 9.47078 155.506 9.41867 155.396 9.38944C155.358 9.37928 155.318 9.35767 155.283 9.36022C154.972 9.38182 154.663 9.40469 154.354 9.43265C154.258 9.44154 154.185 9.43646 154.113 9.3996C153.928 9.30175 153.702 9.35513 153.493 9.36911C153.332 9.37927 153.281 9.41867 153.299 9.50255C153.323 9.60168 153.42 9.63218 153.667 9.61439C153.756 9.60803 153.844 9.59913 153.933 9.59405C154.019 9.58897 154.097 9.60548 154.166 9.6398C154.234 9.67411 154.314 9.6919 154.397 9.68682C154.574 9.67538 154.754 9.66395 154.926 9.64489C155.068 9.62964 155.187 9.64234 155.286 9.68936C155.396 9.74147 155.525 9.73003 155.654 9.71859C155.954 9.69317 155.957 9.69445 156.145 9.75799C156.183 9.7707 156.22 9.79485 156.255 9.79358C156.564 9.77452 156.875 9.75799 157.179 9.72749C157.337 9.71224 157.428 9.75291 157.533 9.78595C157.571 9.79739 157.608 9.82281 157.643 9.82026C157.866 9.80628 158.089 9.7923 158.306 9.76816C158.408 9.75672 158.47 9.76434 158.553 9.79484C158.752 9.86982 158.757 9.86728 159.039 9.84313C159.125 9.83551 159.219 9.82153 159.3 9.8317C159.38 9.84186 159.445 9.87873 159.52 9.9016C159.555 9.91177 159.598 9.92574 159.635 9.92319C159.812 9.91303 159.989 9.89779 160.167 9.88381C160.333 9.86983 160.333 9.8711 160.645 9.94989C160.771 9.98294 160.902 9.95497 161.028 9.94481C161.165 9.93337 161.289 9.93337 161.394 9.98294C161.498 10.0325 161.624 10.0299 161.759 10.0198C161.885 10.0096 162.014 9.98167 162.143 10.016C162.438 10.0948 162.438 10.096 162.62 10.0808C162.886 10.0592 163.149 10.0388 163.418 10.0198C163.453 10.0172 163.498 10.0325 163.533 10.0427C163.608 10.0655 163.673 10.1037 163.753 10.1126C163.834 10.1227 163.928 10.1075 164.014 10.0998C164.29 10.0757 164.309 10.0668 164.494 10.1507C164.65 10.2193 164.843 10.1202 164.988 10.199C165.072 10.2435 165.184 10.279 165.34 10.2574C165.469 10.2396 165.603 10.2346 165.737 10.2244C165.949 10.2079 165.949 10.2091 166.218 10.2854C166.253 10.2956 166.298 10.3083 166.333 10.3057C166.511 10.2956 166.69 10.2867 166.862 10.2638C167.064 10.2371 167.192 10.2854 167.343 10.3324C167.461 10.3693 167.601 10.3388 167.727 10.3261C167.864 10.3134 167.987 10.3172 168.089 10.3667C168.196 10.4176 168.323 10.4112 168.457 10.401C168.583 10.3921 168.712 10.3629 168.841 10.3985C169.117 10.4773 169.117 10.4773 169.319 10.462C169.496 10.4481 169.673 10.4328 169.85 10.4226C169.885 10.4201 169.928 10.4366 169.963 10.4481C170.038 10.4709 170.103 10.5091 170.183 10.518C170.264 10.5269 170.358 10.5103 170.446 10.504C170.535 10.4976 170.629 10.4786 170.709 10.4862C170.79 10.4938 170.865 10.5256 170.93 10.5535C171.005 10.5866 171.074 10.5904 171.176 10.5777C171.305 10.5612 171.44 10.5574 171.571 10.5485C171.644 10.5726 171.719 10.5967 171.789 10.6234C171.861 10.6514 171.939 10.6489 172.038 10.64C172.368 10.6095 172.371 10.6133 172.648 10.6921C172.774 10.7277 172.905 10.6984 173.032 10.6895C173.166 10.6794 173.292 10.6743 173.397 10.7251C173.499 10.7734 173.625 10.7797 173.759 10.7645C173.845 10.7543 173.936 10.748 174.025 10.7442C174.065 10.7429 174.114 10.748 174.143 10.7582C174.285 10.8115 174.425 10.8598 174.621 10.8255C174.793 10.8357 174.879 10.9399 175.085 10.9196C175.26 10.9018 175.442 10.8979 175.614 10.8751C175.773 10.8547 175.885 10.8903 175.966 10.9348C176.111 11.0136 176.315 10.9068 176.46 10.9844C176.543 11.0288 176.65 11.0644 176.812 11.0454C176.989 11.025 177.045 11.0517 177.096 11.1318C177.126 11.1775 177.12 11.2144 177.067 11.25C177.013 11.2868 176.954 11.2805 176.868 11.2385C176.769 11.1915 176.651 11.1826 176.508 11.1928C176.369 11.2029 176.283 11.1369 176.167 11.1115C176.052 11.0848 175.915 11.1292 175.794 11.0949C175.51 11.0149 175.51 11.0149 175.316 11.0301C175.185 11.0403 175.048 11.0454 174.919 11.0632C174.766 11.0848 174.667 11.0454 174.562 11.0098C174.524 10.9971 174.487 10.9729 174.454 10.9742C174.146 10.9933 173.834 11.0111 173.528 11.0428C173.367 11.0593 173.281 11.0136 173.174 10.9818C173.136 10.9704 173.096 10.9475 173.064 10.9501C172.798 10.9678 172.535 10.9907 172.269 11.0123C172.218 11.0466 172.162 11.0797 172.113 11.1165C172.062 11.1547 171.993 11.1712 171.891 11.1699C171.721 11.1699 171.555 11.2233 171.386 11.1559C171.211 11.0873 171.198 11.0911 171.029 11.1076C170.814 11.1292 170.586 11.1242 170.385 11.1737C170.35 11.1826 170.312 11.2068 170.312 11.2245C170.309 11.236 170.366 11.2525 170.401 11.2627C170.519 11.2932 170.656 11.2487 170.774 11.2805C170.852 11.3008 170.916 11.3313 170.994 11.3529C171.026 11.3618 171.074 11.3605 171.117 11.3593C171.163 11.358 171.206 11.3491 171.249 11.3504C171.289 11.3516 171.332 11.3593 171.364 11.3707C171.512 11.419 171.668 11.4635 171.799 11.5207C171.928 11.5766 172.049 11.5385 172.178 11.5359C172.693 11.6249 172.693 11.6261 173.04 11.5982C173.126 11.5918 173.214 11.5842 173.303 11.5855C173.34 11.5855 173.375 11.6083 173.413 11.6211C173.52 11.6592 173.622 11.6935 173.773 11.6732C173.901 11.6554 174.038 11.6516 174.17 11.6401C174.347 11.6261 174.347 11.6261 174.648 11.7062C174.723 11.7265 174.803 11.724 174.9 11.7138C174.983 11.7049 175.069 11.724 175.128 11.7609C175.152 11.7761 175.144 11.8015 175.152 11.8231C174.887 11.8435 174.618 11.8574 174.361 11.8879C174.194 11.907 174.119 11.8524 174.009 11.8231C173.971 11.813 173.931 11.7914 173.896 11.7939C173.633 11.813 173.37 11.8346 173.107 11.86C173.075 11.8625 173.034 11.8917 173.032 11.9095C173.026 11.9426 173.093 11.9744 173.19 11.9731C173.319 11.9718 173.445 11.9502 173.56 12.0023C173.657 12.0481 173.778 12.0684 173.92 12.0481C174.006 12.0366 174.097 12.0366 174.183 12.0265C174.412 11.996 174.618 12.0023 174.79 12.0887C174.922 12.1116 175.05 12.09 175.177 12.0786C175.271 12.0697 175.362 12.0608 175.429 12.0849C175.571 12.1358 175.711 12.1866 175.907 12.1523C176.119 12.1879 176.28 12.2628 176.457 12.3238C176.54 12.3531 176.605 12.3696 176.702 12.3505C176.742 12.3429 176.79 12.3429 176.833 12.3391C176.922 12.3327 177.016 12.3137 177.096 12.3213C177.177 12.3302 177.244 12.367 177.316 12.3899C177.351 12.4014 177.391 12.4204 177.426 12.4192C177.561 12.4128 177.692 12.4001 177.824 12.3899C177.955 12.381 178.087 12.3721 178.218 12.3632C178.328 12.3963 178.441 12.4293 178.551 12.4624C178.728 12.4484 178.906 12.4344 179.08 12.4217C179.276 12.4064 179.276 12.4077 179.558 12.4865C179.684 12.5221 179.818 12.4992 179.939 12.4827C180.141 12.456 180.275 12.5043 180.417 12.5551C180.447 12.5653 180.5 12.5717 180.535 12.5666C180.675 12.5488 180.796 12.5628 180.898 12.6098C180.97 12.6428 181.043 12.6581 181.131 12.6517C181.44 12.6276 181.749 12.6022 182.057 12.5806C182.095 12.578 182.138 12.5895 182.173 12.5996C182.447 12.6771 182.449 12.681 182.651 12.6606C182.831 12.6428 182.997 12.6352 183.139 12.7051C183.169 12.7203 183.214 12.742 183.247 12.7407C183.467 12.728 183.69 12.714 183.907 12.6924C184.007 12.6822 184.076 12.686 184.154 12.7153C184.253 12.7521 184.342 12.7966 184.506 12.7801C184.96 12.7331 184.962 12.7407 185.499 12.8284C185.537 12.8347 185.588 12.8246 185.631 12.8195C185.722 12.8068 185.789 12.8246 185.87 12.8538C186.05 12.9199 186.055 12.9161 186.227 12.9021C186.358 12.8906 186.495 12.8881 186.624 12.869C186.823 12.8411 186.954 12.8906 187.102 12.9377C187.22 12.9745 187.357 12.944 187.483 12.9326C187.62 12.9199 187.744 12.9237 187.846 12.972C187.915 13.005 187.991 13.0228 188.079 13.0165C188.388 12.9936 188.697 12.9682 189.005 12.9453C189.043 12.9427 189.089 12.9529 189.123 12.9618C189.43 13.0406 189.43 13.0444 189.733 13.0152C189.83 13.0063 189.91 13.0038 189.983 13.0304C190.052 13.0559 190.128 13.08 190.2 13.1041C190.332 13.0952 190.466 13.0927 190.595 13.0775C190.694 13.066 190.764 13.0711 190.842 13.0978C190.944 13.1321 191.03 13.1918 191.191 13.1626C191.274 13.1486 191.371 13.1524 191.454 13.1397C191.553 13.1232 191.62 13.1334 191.698 13.1664C191.795 13.2058 191.894 13.2465 192.05 13.2261C192.222 13.2033 192.404 13.1995 192.579 13.1817C192.675 13.1715 192.742 13.1817 192.82 13.2147C192.917 13.2566 193.027 13.2833 193.177 13.2668C193.483 13.235 193.486 13.2414 193.784 13.3215C193.859 13.3418 193.94 13.3393 194.036 13.3291C194.12 13.3202 194.206 13.3393 194.265 13.3761C194.321 13.4168 194.316 13.4422 194.321 13.4638ZM170.398 2.00198C170.309 2.00833 170.221 2.01596 170.092 1.90539C170.084 1.88633 170.089 1.86346 170.07 1.84694C170.027 1.81262 169.96 1.78848 169.88 1.78467C169.735 1.77958 169.56 1.82278 169.563 1.85583C169.566 1.88379 169.611 1.90793 169.7 1.9308C169.737 1.9397 169.767 1.95495 169.802 1.96512C169.904 1.99435 169.985 2.05155 170.132 2.02232C170.105 1.94352 170.119 1.98292 170.132 2.02232C170.119 2.07061 170.159 2.10492 170.256 2.1189C170.282 2.12271 170.323 2.12017 170.344 2.11254C170.427 2.08458 170.441 2.04646 170.379 1.94607C170.368 1.96259 170.376 1.99181 170.401 1.99943C170.425 2.00706 170.484 2.00071 170.513 1.99182C170.589 1.96767 170.626 1.9359 170.607 1.90921C170.597 1.89523 170.546 1.87744 170.513 1.87744C170.457 1.87744 170.406 1.90539 170.398 2.00198ZM192.106 16.74C191.91 16.7642 191.685 16.7553 191.489 16.8049C191.454 16.8138 191.419 16.8366 191.416 16.8544C191.414 16.8659 191.467 16.8824 191.499 16.8913C191.572 16.9116 191.652 16.9053 191.746 16.8989C191.889 16.89 191.972 16.9485 192.082 16.9777C192.117 16.9866 192.163 16.9929 192.2 16.9904C192.418 16.9752 192.632 16.9586 192.85 16.9409C192.887 16.937 192.928 16.9281 192.96 16.9167C193.067 16.8798 193.057 16.8557 192.952 16.8277C192.836 16.7972 192.745 16.7464 192.627 16.7223C192.458 16.6879 192.286 16.7337 192.106 16.74ZM176.86 17.6678C176.728 17.6779 176.599 17.6881 176.468 17.6983C176.425 17.7021 176.379 17.7034 176.339 17.7084C176.256 17.7173 176.194 17.744 176.154 17.786C176.216 17.819 176.291 17.8381 176.374 17.8343C176.506 17.8266 176.634 17.8101 176.766 17.8063C176.908 17.8012 176.991 17.8584 177.102 17.8876C177.136 17.8965 177.179 17.8978 177.22 17.8991C177.418 17.9042 177.539 17.8381 177.502 17.7453C177.475 17.6729 177.373 17.6297 177.249 17.6386C177.12 17.6474 176.989 17.6576 176.86 17.6678ZM193.024 14.8617C193.057 14.8401 193.091 14.8249 193.108 14.8058C193.156 14.741 193.137 14.6927 193.048 14.6419C192.941 14.5796 192.81 14.6215 192.689 14.6279C192.659 14.6292 192.627 14.6558 192.611 14.6724C192.6 14.6838 192.6 14.708 192.616 14.7143C192.748 14.7652 192.887 14.8122 193.024 14.8617ZM169.735 11.1076C169.606 11.1178 169.474 11.1254 169.346 11.1394C169.313 11.1432 169.284 11.1674 169.265 11.1839C169.23 11.2144 169.268 11.2563 169.378 11.2601C169.504 11.2652 169.635 11.2436 169.767 11.2335C169.933 11.2207 170.033 11.1737 169.971 11.133C169.912 11.0937 169.831 11.086 169.735 11.1076ZM28.4167 8.39183C28.5026 8.38547 28.5912 8.38039 28.6771 8.37149C28.7576 8.36259 28.8194 8.33464 28.8597 8.2927C28.7926 8.25966 28.7174 8.24186 28.6342 8.24568C28.5026 8.2533 28.3738 8.26347 28.2449 8.27618C28.1644 8.2838 28.0865 8.31176 28.0677 8.35497C28.049 8.38801 28.2288 8.40708 28.4167 8.39183ZM158.381 8.19611C158.416 8.20755 158.451 8.23043 158.486 8.23043C158.572 8.23043 158.661 8.2228 158.741 8.21009C158.776 8.20501 158.803 8.18213 158.819 8.16434C158.83 8.1529 158.827 8.13257 158.811 8.12241C158.733 8.06141 158.422 8.08301 158.371 8.15291C158.365 8.16562 158.379 8.18213 158.381 8.19611ZM149.911 1.23692C149.919 1.25726 149.922 1.27759 149.933 1.29792C149.954 1.33605 150.013 1.36401 150.099 1.38307C150.166 1.3513 150.201 1.31572 150.199 1.2776C150.196 1.25726 150.188 1.23692 150.177 1.21658C150.156 1.17846 150.097 1.15051 150.011 1.13145C149.943 1.16195 149.911 1.19753 149.911 1.23692ZM199.229 17.8889C199.204 17.9054 199.18 17.9219 199.153 17.9372C199.226 17.9741 199.293 17.9855 199.344 17.9652C199.376 17.9524 199.395 17.9334 199.419 17.9169C199.347 17.88 199.282 17.8698 199.229 17.8889ZM197.559 18.0617C197.594 18.0732 197.626 18.0884 197.663 18.0961C197.725 18.1088 197.782 18.0872 197.824 18.0414C197.79 18.03 197.757 18.0147 197.72 18.0071C197.658 17.9944 197.602 18.016 197.559 18.0617ZM198.616 17.8292C198.598 17.8597 198.635 17.8851 198.735 17.9067C198.759 17.8902 198.791 17.8749 198.807 17.8571C198.834 17.8279 198.788 17.8012 198.692 17.7809C198.665 17.7961 198.641 17.8127 198.616 17.8292ZM192.949 16.4592C192.93 16.4897 192.968 16.5151 193.067 16.5367C193.091 16.5202 193.124 16.5049 193.14 16.4872C193.167 16.4579 193.121 16.4312 193.024 16.4109C192.997 16.4262 192.973 16.4427 192.949 16.4592ZM185.228 7.46664C185.204 7.48316 185.18 7.49969 185.153 7.51494C185.225 7.55179 185.292 7.56322 185.343 7.54289C185.376 7.53018 185.394 7.51112 185.419 7.4946C185.346 7.45774 185.282 7.44758 185.228 7.46664ZM177.832 2.69586C177.896 2.70475 177.95 2.68697 177.996 2.63995C177.961 2.62851 177.928 2.61326 177.891 2.60563C177.829 2.59292 177.773 2.61454 177.73 2.66029C177.765 2.67299 177.8 2.68442 177.832 2.69586ZM173.904 2.39721C173.88 2.41373 173.856 2.43025 173.829 2.4455C173.901 2.48236 173.969 2.49379 174.02 2.47346C174.052 2.46075 174.071 2.44169 174.095 2.42517C174.022 2.38831 173.958 2.37942 173.904 2.39721ZM147.27 1.23565C147.245 1.25217 147.221 1.26869 147.194 1.28394C147.267 1.3208 147.334 1.33223 147.385 1.3119C147.417 1.29919 147.436 1.28013 147.46 1.2636C147.388 1.22675 147.323 1.21786 147.27 1.23565ZM14.6497 11.5753C14.6148 11.5639 14.58 11.5524 14.5477 11.5397C14.4699 11.574 14.4457 11.6058 14.4887 11.63C14.5155 11.6452 14.5558 11.6541 14.5907 11.6655C14.6712 11.6312 14.69 11.6007 14.6497 11.5753Z" fill="#FFE492"/>
<path d="M13.3446 35.9937C13.0359 36.0178 12.7299 36.0483 12.4211 36.0636C12.2574 36.0712 12.1984 36.1258 12.1312 36.1767C12.0775 36.2173 12.0158 36.23 11.9164 36.2377C11.0788 36.2999 10.2439 36.366 9.40895 36.4308C9.30425 36.4143 9.25324 36.3876 9.2774 36.3559C9.29083 36.3368 9.32305 36.3101 9.35527 36.3076C9.9271 36.2605 10.4962 36.2122 11.0707 36.1754C11.2345 36.1652 11.2802 36.1093 11.3634 36.0636C11.3902 36.0483 11.4117 36.0254 11.4466 36.0165C11.4815 36.0064 11.5325 36.0076 11.5782 36.0051C12.5017 35.9327 13.4252 35.8615 14.3488 35.7891C14.4535 35.8056 14.5045 35.8323 14.4803 35.864C14.4669 35.8831 14.4347 35.9098 14.4025 35.9123C14.0481 35.939 13.6963 35.9657 13.3446 35.9937Z" fill="#FFE492"/>
<path d="M182.386 42.7607C182.246 42.7759 182.069 42.7975 181.924 42.7238C181.854 42.6882 181.779 42.6768 181.688 42.6844C181.556 42.6971 181.422 42.7073 181.288 42.7149C181.253 42.7162 181.207 42.7022 181.172 42.6908C181.097 42.6679 181.033 42.6298 180.952 42.6196C180.871 42.6095 180.775 42.6374 180.692 42.6311C180.582 42.6222 180.536 42.5879 180.565 42.5561C180.582 42.5383 180.614 42.5129 180.649 42.5091C181.145 42.462 181.148 42.462 181.288 42.5078C181.395 42.5434 181.494 42.5828 181.647 42.5612C181.776 42.5434 181.913 42.5395 182.045 42.5281C182.227 42.5129 182.227 42.5141 182.523 42.5942C182.598 42.6145 182.678 42.6133 182.775 42.6018C182.858 42.5929 182.939 42.6133 183.006 42.6476C182.963 42.6908 182.901 42.7187 182.818 42.7264C182.684 42.7391 182.552 42.748 182.386 42.7607Z" fill="#FFE492"/>
<path d="M177.445 42.3697C177.784 42.343 178.125 42.3202 178.463 42.2897C178.602 42.277 178.712 42.2909 178.809 42.3341C178.914 42.3812 179.032 42.3773 179.161 42.3685C179.241 42.3634 179.319 42.3837 179.373 42.4193C179.394 42.4333 179.389 42.4587 179.397 42.479C179.102 42.5019 178.804 42.526 178.506 42.5464C178.471 42.5489 178.428 42.5362 178.396 42.526C178.323 42.5044 178.261 42.4663 178.184 42.4587C178.017 42.4409 177.851 42.4752 177.682 42.4815C177.601 42.4841 177.523 42.465 177.469 42.4307C177.448 42.4142 177.453 42.39 177.445 42.3697Z" fill="#FFE492"/>
<path d="M55.2036 31.4425C55.5553 31.4145 55.907 31.3878 56.2587 31.3599C56.3634 31.3777 56.4117 31.4031 56.3902 31.4348C56.3768 31.4539 56.3446 31.4806 56.3123 31.4831C55.609 31.5403 54.9056 31.595 54.2049 31.6496C54.1002 31.6318 54.0519 31.6064 54.0734 31.5746C54.0868 31.5556 54.119 31.5289 54.1512 31.5263C54.5002 31.4971 54.8519 31.4704 55.2036 31.4425Z" fill="#FFE492"/>
<path d="M1.01039 38.5046C0.851998 38.5071 0.685583 38.5541 0.508395 38.5186C0.473494 38.5122 0.425157 38.4919 0.427842 38.4804C0.433211 38.4614 0.465432 38.4372 0.500333 38.4296C0.653359 38.3978 0.843988 38.394 0.921844 38.305C0.959429 38.2593 1.02923 38.2441 1.12319 38.2352C1.22253 38.225 1.29231 38.2288 1.37016 38.2555C1.47218 38.2898 1.5581 38.3533 1.71918 38.3203C1.72724 38.3406 1.74598 38.3635 1.73793 38.3826C1.72987 38.4016 1.69503 38.4194 1.66281 38.4334C1.63328 38.4461 1.59297 38.4575 1.55539 38.4614C1.3782 38.4766 1.201 38.4893 1.01039 38.5046Z" fill="#FFE492"/>
<path d="M140.628 38.2485C140.759 38.2383 140.896 38.2332 141.025 38.2154C141.127 38.2015 141.191 38.2103 141.272 38.2408C141.409 38.2942 141.417 38.2891 141.753 38.2968C141.79 38.298 141.836 38.3171 141.857 38.3336C141.871 38.3425 141.852 38.3667 141.836 38.3794C141.812 38.3959 141.777 38.4175 141.745 38.4175C141.532 38.4213 141.318 38.4963 141.111 38.4099C141.006 38.3667 140.891 38.3463 140.749 38.3654C140.663 38.3768 140.571 38.3819 140.483 38.387C140.397 38.3921 140.308 38.3781 140.255 38.34C140.177 38.2841 140.222 38.2625 140.362 38.2663C140.451 38.2688 140.539 38.2548 140.628 38.2485Z" fill="#FFE492"/>
<path d="M189.287 47.0096C189.456 46.9969 189.625 46.9817 189.797 46.9715C189.832 46.969 189.875 46.9829 189.907 46.9918C190.036 47.03 190.017 47.0948 190.023 47.1519C190.025 47.2117 189.727 47.26 189.601 47.2193C189.462 47.1736 189.335 47.1215 189.142 47.1494C189.067 47.1596 188.978 47.1367 188.93 47.0999C188.858 47.0465 188.898 47.0249 189.035 47.0287C189.115 47.0312 189.201 47.0172 189.287 47.0096Z" fill="#FFE492"/>
<path d="M104.057 29.7117C104.231 29.6977 104.406 29.6761 104.58 29.6748C104.682 29.6736 104.733 29.7155 104.709 29.746C104.695 29.7651 104.663 29.7917 104.631 29.7943C104.282 29.8248 103.933 29.8502 103.584 29.8782C103.482 29.8604 103.431 29.8337 103.455 29.8032C103.469 29.7841 103.501 29.7587 103.533 29.7549C103.708 29.7371 103.882 29.7257 104.057 29.7117Z" fill="#FFE492"/>
<path d="M185.937 42.8723C186.106 42.8596 186.278 42.8405 186.447 42.8341C186.536 42.8316 186.606 42.8608 186.616 42.8939C186.622 42.9091 186.579 42.9358 186.544 42.9422C186.302 42.9854 186.042 42.9905 185.789 43.0121C185.709 43.0184 185.623 42.9981 185.575 42.9625C185.502 42.9078 185.542 42.8875 185.679 42.8913C185.765 42.8926 185.851 42.8786 185.937 42.8723Z" fill="#FFE492"/>
<path d="M145.064 38.4206C145.15 38.4143 145.238 38.3977 145.321 38.4028C145.41 38.4092 145.466 38.446 145.493 38.4829C145.523 38.5248 145.52 38.5642 145.493 38.5998C145.45 38.6608 145.407 38.6583 145.308 38.6176C145.155 38.5541 145.144 38.5617 144.841 38.5642C144.806 38.5642 144.763 38.5451 144.736 38.5286C144.696 38.5032 144.717 38.4638 144.811 38.4409C144.881 38.4244 144.978 38.427 145.064 38.4206Z" fill="#FFE492"/>
<path d="M179.648 42.4559C179.774 42.4458 179.9 42.4292 180.027 42.4292C180.115 42.428 180.185 42.4572 180.193 42.489C180.196 42.5042 180.155 42.5296 180.123 42.5373C179.97 42.5716 179.798 42.5741 179.632 42.5856C179.554 42.5906 179.468 42.5703 179.42 42.5347C179.347 42.4813 179.39 42.4572 179.522 42.4648C179.562 42.4674 179.605 42.4597 179.648 42.4559Z" fill="#FFE492"/>
<path d="M159.794 40.8965C159.606 40.9117 159.429 40.8927 159.442 40.8596C159.461 40.8164 159.539 40.7885 159.619 40.7808C159.748 40.7681 159.877 40.758 160.009 40.7503C160.092 40.7452 160.167 40.7643 160.234 40.7973C160.194 40.838 160.132 40.8672 160.052 40.8761C159.968 40.885 159.88 40.8901 159.794 40.8965Z" fill="#FFE492"/>
<path d="M158.562 40.7333C158.688 40.7231 158.814 40.7066 158.941 40.7066C159.029 40.7053 159.099 40.7345 159.107 40.7663C159.11 40.7816 159.069 40.807 159.037 40.8146C158.884 40.8489 158.712 40.8515 158.546 40.8629C158.468 40.868 158.382 40.8476 158.334 40.8121C158.261 40.7587 158.304 40.7345 158.436 40.7422C158.476 40.7447 158.519 40.7371 158.562 40.7333Z" fill="#FFE492"/>
<path d="M143.541 38.4103C143.667 38.4002 143.793 38.3836 143.919 38.3824C144.008 38.3811 144.077 38.4103 144.086 38.4421C144.088 38.4574 144.048 38.4815 144.016 38.4904C143.863 38.5247 143.691 38.5273 143.524 38.5387C143.447 38.5438 143.361 38.5234 143.312 38.4879C143.24 38.4345 143.283 38.4103 143.414 38.418C143.455 38.4205 143.498 38.4129 143.541 38.4103Z" fill="#FFE492"/>
<path d="M142.834 38.3354C142.969 38.3252 143.012 38.3188 143.055 38.3188C143.135 38.3188 143.218 38.3341 143.267 38.371C143.339 38.4243 143.296 38.4396 143.165 38.4421C142.996 38.4447 142.829 38.4714 142.66 38.4764C142.571 38.479 142.502 38.4485 142.496 38.4167C142.494 38.4015 142.534 38.3748 142.566 38.3697C142.679 38.3506 142.802 38.3392 142.834 38.3354Z" fill="#FFE492"/>
<path d="M157.465 30.8595C157.379 30.8659 157.288 30.8837 157.207 30.8773C157.1 30.8684 157.057 30.8341 157.084 30.8023C157.1 30.7846 157.13 30.7591 157.162 30.7553C157.334 30.7375 157.508 30.7261 157.68 30.7134C157.782 30.7324 157.828 30.7591 157.801 30.7909C157.785 30.8087 157.755 30.8328 157.723 30.8379C157.64 30.8506 157.551 30.8532 157.465 30.8595Z" fill="#FFE492"/>
<path d="M53.2736 31.5928C53.3568 31.5916 53.432 31.6081 53.4964 31.6399C53.4561 31.6805 53.3971 31.7072 53.3166 31.7187C53.2763 31.7237 53.2306 31.7275 53.1877 31.7288C53.1045 31.7314 53.0293 31.7136 52.9648 31.6818C53.0051 31.6411 53.0668 31.6144 53.1447 31.603C53.185 31.5979 53.2307 31.5967 53.2736 31.5928Z" fill="#FFE492"/>
<path d="M185.022 42.8676C185.019 42.8307 185.183 42.7888 185.33 42.7901C185.408 42.7913 185.489 42.8091 185.534 42.8434C185.604 42.8956 185.564 42.9159 185.432 42.9121C185.352 42.9095 185.266 42.9311 185.185 42.9273C185.094 42.926 185.04 42.8981 185.022 42.8676Z" fill="#FFE492"/>
<path d="M145.843 38.5743C145.84 38.5603 145.827 38.5438 145.835 38.5311C145.885 38.4612 146.193 38.4396 146.273 38.5006C146.287 38.512 146.292 38.5311 146.281 38.5425C146.265 38.5603 146.236 38.5832 146.204 38.5883C146.121 38.601 146.035 38.6073 145.95 38.6086C145.912 38.6086 145.877 38.587 145.843 38.5743Z" fill="#FFE492"/>
<path d="M1.95918 38.3015C1.64239 38.3281 1.63702 38.3256 1.6934 38.2621C1.74441 38.2049 1.83838 38.1706 1.9753 38.1706C2.01557 38.1706 2.05851 38.168 2.09341 38.1731C2.131 38.1795 2.18472 38.1922 2.19277 38.2074C2.20888 38.2366 2.1632 38.2684 2.08266 38.29C2.04776 38.3002 2.00213 38.2976 1.95918 38.3015Z" fill="#FFE492"/>
<path d="M57.2367 31.4125C57.1431 31.4341 57.0628 31.4265 57.004 31.3858C56.9452 31.3451 57.0388 31.2968 57.2019 31.2854C57.2447 31.2828 57.2902 31.2727 57.3303 31.2778C57.3704 31.2816 57.4106 31.2968 57.4346 31.3121C57.4774 31.3375 57.4507 31.3718 57.3651 31.401C57.3303 31.4125 57.2795 31.4099 57.2367 31.4125Z" fill="#FFE492"/>
<path d="M184.461 42.7714C184.484 42.7549 184.507 42.7384 184.534 42.7231C184.63 42.7447 184.672 42.7702 184.646 42.7994C184.63 42.8172 184.599 42.8324 184.575 42.849C184.479 42.8274 184.44 42.8007 184.461 42.7714Z" fill="#FFE492"/>
<path d="M6.21484 52.7684C6.21484 52.7532 6.25229 52.729 6.28171 52.7239C6.33787 52.7151 6.40738 52.7328 6.45552 52.7684C6.52239 52.8193 6.48231 52.8459 6.35928 52.832C6.27369 52.8218 6.21484 52.7964 6.21484 52.7684Z" fill="#FFE492"/>
<path d="M146.933 37.3919C146.967 37.4033 147.002 37.4147 147.034 37.4274C146.989 37.4745 146.933 37.4948 146.874 37.4821C146.836 37.4745 146.804 37.4592 146.77 37.4478C146.815 37.4007 146.869 37.383 146.933 37.3919Z" fill="#FFE492"/>
<path d="M146.01 37.3341C146.063 37.3151 146.127 37.3252 146.202 37.3621C146.178 37.3786 146.157 37.3977 146.127 37.4104C146.077 37.4307 146.01 37.4205 145.938 37.3824C145.959 37.3672 145.983 37.3506 146.01 37.3341Z" fill="#FFE492"/>
<path d="M145.298 37.3904C145.333 37.4018 145.367 37.4132 145.4 37.4259C145.354 37.473 145.301 37.4933 145.239 37.4806C145.202 37.473 145.17 37.4577 145.135 37.4463C145.18 37.3992 145.234 37.3802 145.298 37.3904Z" fill="#FFE492"/>
<path d="M144.767 37.3232C144.806 37.3486 144.786 37.3791 144.71 37.4134C144.676 37.402 144.637 37.3931 144.611 37.3778C144.569 37.3537 144.59 37.3219 144.668 37.2876C144.7 37.3003 144.733 37.3117 144.767 37.3232Z" fill="#FFE492"/>
</svg>
