<svg width="164" height="41" viewBox="0 0 164 41" fill="none" xmlns="http://www.w3.org/2000/svg">
<path d="M148.032 27.8767C147.816 27.8987 147.598 27.9138 147.387 27.9468C147.249 27.9674 147.19 27.907 147.099 27.8754C147.068 27.8644 147.036 27.8424 147.007 27.8452C146.794 27.8671 146.58 27.8919 146.366 27.9166C146.301 27.9701 146.26 28.0415 146.159 28.0676C146.061 28.0924 145.946 28.0924 145.837 28.1047C145.693 28.1198 145.549 28.1349 145.405 28.1487C145.333 28.1556 145.274 28.1816 145.25 28.2311C145.246 28.2393 145.294 28.2599 145.32 28.2723C145.407 28.3135 145.492 28.3602 145.588 28.3918C145.68 28.422 145.793 28.3725 145.891 28.411C146.111 28.4975 146.114 28.4961 146.281 28.4797C146.425 28.4645 146.569 28.4481 146.713 28.4371C146.741 28.4343 146.774 28.4549 146.805 28.4659C146.896 28.4961 146.955 28.5648 147.09 28.5387C147.193 28.5181 147.306 28.514 147.413 28.503C147.502 28.5428 147.585 28.5882 147.681 28.6197C147.77 28.65 147.796 28.6733 147.748 28.7131C147.705 28.7502 147.644 28.7653 147.563 28.7681C147.491 28.7695 147.419 28.7818 147.347 28.7887C147.31 28.7928 147.275 28.7955 147.241 28.7997C147.103 28.8148 147.103 28.8148 146.853 28.7269C146.754 28.6925 146.643 28.7406 146.55 28.7076C146.486 28.6857 146.432 28.6527 146.371 28.6294C146.345 28.6198 146.303 28.6184 146.271 28.6211C146.162 28.6307 146.053 28.6376 145.948 28.6555C145.874 28.6678 145.83 28.7063 145.839 28.7447C145.841 28.7598 145.893 28.7818 145.924 28.7832C145.994 28.7859 146.068 28.7667 146.135 28.7763C146.201 28.7859 146.268 28.8134 146.316 28.8436C146.414 28.9068 146.526 28.8505 146.619 28.867C146.717 28.8848 146.798 28.9398 146.892 28.9727C146.916 28.981 146.962 28.9672 146.999 28.9631C147.105 28.9535 147.212 28.9452 147.319 28.9356C147.408 28.9755 147.504 29.0112 147.585 29.0565C147.731 29.1389 147.888 29.1705 148.078 29.1306C148.184 29.1087 148.289 29.1169 148.374 29.1705C148.461 29.2254 148.561 29.2199 148.673 29.2089C148.775 29.1979 148.88 29.1677 148.984 29.2062C149.211 29.2913 149.213 29.2955 149.481 29.2625C149.562 29.2529 149.623 29.2501 149.684 29.2817C149.741 29.3106 149.802 29.3353 149.861 29.3628C149.967 29.3531 150.076 29.3435 150.183 29.3325C150.321 29.3174 150.397 29.3367 150.429 29.4136C150.449 29.4603 150.458 29.5028 150.506 29.5344C150.562 29.5729 150.623 29.5715 150.706 29.5605C150.785 29.5509 150.841 29.5358 150.874 29.4864C150.887 29.4658 150.913 29.4465 150.937 29.43C150.957 29.4177 150.988 29.3985 151.005 29.4012C151.038 29.4067 151.081 29.4218 151.092 29.4397C151.199 29.6058 151.199 29.6072 151.308 29.6553C151.428 29.7088 151.552 29.7569 151.661 29.8173C151.759 29.8709 151.857 29.8476 151.964 29.8476C152.045 29.8476 152.097 29.8833 152.09 29.919C152.086 29.9396 152.056 29.9698 152.029 29.9725C151.816 30 151.6 30.0233 151.384 30.0426C151.358 30.0453 151.325 30.0206 151.295 30.0082C151.234 29.9835 151.179 29.9451 151.114 29.9368C151.049 29.9286 150.972 29.9492 150.9 29.956C150.828 29.9629 150.752 29.9808 150.687 29.9698C150.621 29.9588 150.569 29.919 150.508 29.8929C150.48 29.8805 150.44 29.8627 150.416 29.8668C150.257 29.8998 150.14 29.8544 150.026 29.794C150.002 29.7816 149.961 29.7734 149.93 29.7761C149.678 29.7995 149.427 29.8269 149.174 29.853C149.072 29.864 148.989 29.816 148.967 29.7349C148.956 29.6896 148.934 29.6443 148.934 29.599C148.934 29.5166 148.814 29.4712 148.727 29.4809C148.583 29.4946 148.437 29.5056 148.296 29.5262C148.18 29.5427 148.082 29.5262 148.003 29.4767C147.912 29.4204 147.807 29.4314 147.703 29.4465C147.624 29.4575 147.602 29.5028 147.607 29.6168C147.611 29.7088 147.574 29.7377 147.432 29.7528C147.254 29.772 147.073 29.7912 146.892 29.8064C146.863 29.8091 146.831 29.7858 146.802 29.7734C146.741 29.7487 146.687 29.7088 146.621 29.7006C146.556 29.691 146.48 29.7116 146.408 29.7198C146.336 29.7267 146.26 29.7459 146.194 29.7363C146.129 29.7267 146.074 29.6855 146.015 29.6594C145.987 29.647 145.952 29.6292 145.924 29.6319C145.78 29.6429 145.636 29.6594 145.492 29.6745C145.331 29.691 145.331 29.691 145.102 29.6058C144.998 29.5674 144.893 29.5976 144.79 29.6086C144.681 29.6196 144.579 29.6251 144.494 29.5701C144.437 29.5344 144.374 29.5125 144.307 29.5193C144.126 29.5358 143.947 29.5564 143.766 29.5729C143.735 29.5756 143.694 29.5688 143.67 29.5564C143.555 29.4987 143.441 29.4534 143.28 29.4822C143.14 29.507 142.99 29.5083 142.851 29.5317C142.774 29.544 142.739 29.588 142.755 29.6223C142.763 29.6402 142.809 29.6608 142.84 29.6608C142.909 29.6622 142.986 29.6415 143.051 29.6498C143.186 29.6663 143.254 29.7816 143.43 29.75C143.535 29.7308 143.644 29.7239 143.753 29.7185C143.781 29.7171 143.812 29.7432 143.842 29.7569C143.929 29.794 144.006 29.8421 144.132 29.8173C144.237 29.7981 144.348 29.7926 144.455 29.7816C144.625 29.7638 144.625 29.7652 144.845 29.8489C144.95 29.8888 145.054 29.8572 145.157 29.8476C145.233 29.8407 145.305 29.827 145.366 29.8462C145.46 29.875 145.527 29.9409 145.643 29.9368C145.752 29.9327 145.859 29.9135 145.968 29.9066C146.035 29.9025 146.098 29.9245 146.153 29.9615C146.21 29.9986 146.271 30.0151 146.345 30.0069C146.451 29.9959 146.56 29.9821 146.669 29.9753C146.7 29.9739 146.735 29.9863 146.763 29.9973C146.824 30.022 146.883 30.0508 146.942 30.0769C147.049 30.0687 147.158 30.0659 147.262 30.0494C147.343 30.0371 147.4 30.0426 147.465 30.07C147.548 30.1071 147.615 30.1731 147.751 30.1415C147.818 30.1264 147.897 30.1305 147.964 30.1167C148.047 30.0989 148.104 30.1057 148.163 30.1469C148.274 30.2252 148.413 30.2266 148.557 30.1964C148.714 30.1634 148.832 30.2019 148.949 30.2623C149.074 30.3255 149.074 30.3241 149.17 30.4766C149.198 30.5205 149.279 30.5411 149.346 30.5329C149.46 30.5191 149.558 30.526 149.64 30.5782C149.728 30.6345 149.832 30.6276 149.939 30.6125C150.081 30.5919 150.222 30.5741 150.338 30.6537C150.395 30.6922 150.456 30.7018 150.532 30.6922C150.748 30.6675 150.966 30.6524 151.177 30.6222C151.306 30.6029 151.38 30.6469 151.467 30.6839C151.585 30.7348 151.713 30.7801 151.713 30.8886C151.713 30.9064 151.744 30.927 151.77 30.9408C151.827 30.9696 151.888 30.9943 151.947 31.0218C152.034 31.063 152.119 31.0973 152.239 31.0754C152.343 31.0575 152.454 31.052 152.561 31.0396C152.668 31.0273 152.766 31.0204 152.862 31.0726C152.973 31.1317 153.091 31.188 153.217 31.2319C153.307 31.2635 153.425 31.21 153.52 31.2525C153.579 31.2786 153.636 31.3088 153.699 31.3308C153.725 31.3404 153.767 31.3336 153.802 31.3308C153.874 31.3253 153.948 31.3212 154.017 31.3075C154.098 31.2924 154.159 31.2951 154.22 31.3267C154.277 31.3555 154.333 31.3954 154.399 31.4036C154.497 31.416 154.606 31.361 154.704 31.4242C154.754 31.4558 154.817 31.486 154.883 31.4956C154.948 31.5052 155.024 31.4846 155.094 31.486C155.125 31.486 155.162 31.508 155.179 31.5258C155.19 31.5354 155.175 31.5615 155.16 31.5753C155.14 31.5918 155.112 31.6137 155.083 31.6165C154.867 31.6412 154.652 31.6618 154.436 31.6852C154.307 31.6989 154.307 31.6989 154.048 31.6124C153.987 31.5918 153.919 31.5959 153.843 31.6055C153.741 31.6178 153.636 31.6412 153.529 31.6165C153.39 31.5231 153.217 31.5148 153.034 31.5505C152.958 31.5657 152.888 31.5657 152.832 31.5396C152.712 31.4874 152.585 31.4393 152.479 31.3775C152.396 31.3294 152.356 31.3253 152.322 31.3912C152.311 31.4118 152.3 31.4338 152.302 31.453C152.315 31.5217 152.339 31.589 152.352 31.6577C152.356 31.6769 152.339 31.6989 152.328 31.7195C152.293 31.7772 152.247 31.773 152.171 31.725C152.095 31.6769 152.003 31.6453 151.881 31.6673C151.777 31.6865 151.663 31.6838 151.559 31.7044C151.397 31.7346 151.284 31.6906 151.168 31.6316C151.144 31.6192 151.103 31.6124 151.073 31.6151C150.748 31.6467 150.425 31.6824 150.1 31.714C150.031 31.7209 149.967 31.7003 149.913 31.6632C149.856 31.6261 149.793 31.6069 149.723 31.6137C149.436 31.6426 149.148 31.6687 148.86 31.7044C148.742 31.7195 148.649 31.7016 148.568 31.6535C148.507 31.6178 148.45 31.6069 148.374 31.611C148.291 31.6151 148.232 31.6288 148.191 31.6687C148.152 31.7071 148.18 31.7305 148.267 31.7607C148.361 31.7936 148.448 31.8362 148.537 31.8747C148.609 31.8692 148.681 31.8582 148.751 31.8596C148.782 31.8596 148.81 31.8843 148.84 31.898C148.928 31.9378 149.008 31.9777 149.133 31.9557C149.237 31.9365 149.348 31.9324 149.455 31.92C149.603 31.9049 149.603 31.9049 149.843 31.9914C149.904 32.0134 149.97 32.012 150.048 31.9996C150.116 31.99 150.185 32.0093 150.233 32.0505C150.253 32.0669 150.246 32.0944 150.205 32.1851C150.205 32.2524 150.251 32.2221 150.266 32.1782C150.29 32.115 150.244 32.0944 150.157 32.1288C150.096 32.1535 150.066 32.1892 150.081 32.218C150.089 32.2331 150.131 32.2524 150.205 32.1851C150.397 32.1027 150.543 32.093 150.682 32.0711C150.765 32.0587 150.818 32.0642 150.883 32.0999C150.961 32.1425 151.04 32.1878 151.168 32.1658C151.308 32.1411 151.456 32.1384 151.598 32.1178C151.729 32.0985 151.796 32.159 151.879 32.1947C151.979 32.2372 152.09 32.1892 152.182 32.2139C152.278 32.2386 152.346 32.299 152.457 32.31C152.618 32.2729 152.72 32.3416 152.842 32.3869C152.938 32.4213 153.052 32.3911 153.154 32.3759C153.27 32.3595 153.366 32.3746 153.446 32.424C153.538 32.4803 153.64 32.468 153.745 32.4556C153.989 32.4282 153.998 32.424 154.139 32.4996C154.242 32.5545 154.34 32.5298 154.442 32.5229C154.532 32.56 154.619 32.5998 154.713 32.6328C154.737 32.641 154.783 32.6273 154.82 32.6232C154.926 32.6122 155.035 32.6012 155.142 32.5902C155.214 32.5833 155.29 32.5627 155.356 32.571C155.421 32.5806 155.476 32.6204 155.535 32.6465C155.593 32.6726 155.654 32.6987 155.711 32.7262C155.798 32.7674 155.881 32.8017 156.003 32.7811C156.108 32.7633 156.217 32.7578 156.326 32.7454C156.463 32.7303 156.459 32.7344 156.714 32.8168C156.851 32.8621 156.993 32.8072 157.132 32.8017C157.202 32.799 157.27 32.8141 157.318 32.8539C157.337 32.8704 157.331 32.8979 157.337 32.9212C156.978 32.9583 156.616 32.9899 156.26 33.0352C156.123 33.053 156.051 33.0036 155.977 32.9624C155.855 32.8965 155.694 32.9926 155.578 32.9074C155.508 32.8566 155.408 32.8278 155.288 32.8525C155.218 32.8663 155.144 32.8649 155.072 32.8772C154.889 32.9075 154.721 32.9088 154.575 32.8141C154.525 32.7811 154.453 32.7633 154.401 32.7317C154.34 32.6973 154.281 32.6781 154.209 32.685C153.884 32.7179 153.562 32.7509 153.239 32.7866C153.211 32.7893 153.183 32.8099 153.159 32.8251C153.098 32.8635 153.117 32.8937 153.215 32.9184C153.248 32.9267 153.274 32.9445 153.305 32.9583C153.363 32.9844 153.418 33.0256 153.483 33.0352C153.549 33.0448 153.625 33.0256 153.697 33.0187C153.769 33.0118 153.845 32.9912 153.911 32.9995C153.976 33.0091 154.03 33.0489 154.091 33.0736C154.12 33.086 154.155 33.1066 154.183 33.1052C154.327 33.097 154.469 33.0819 154.612 33.0695C154.702 33.1066 154.778 33.1602 154.885 33.1725C154.953 33.1808 155.024 33.1656 155.094 33.1684C155.125 33.1698 155.164 33.1904 155.179 33.2082C155.188 33.2192 155.16 33.2467 155.138 33.2604C155.055 33.3126 154.942 33.303 154.839 33.3195C154.728 33.3373 154.628 33.3318 154.543 33.2783C154.486 33.2426 154.423 33.2233 154.353 33.2302C154.172 33.2481 153.993 33.2687 153.812 33.2838C153.782 33.2865 153.745 33.2742 153.717 33.2645C153.488 33.1808 153.488 33.178 153.326 33.1959C153.089 33.222 153.089 33.222 152.93 33.1492C152.899 33.1354 152.866 33.1094 152.84 33.1107C152.587 33.1327 152.337 33.1547 152.086 33.1863C152.003 33.1959 151.947 33.1959 151.886 33.1602C151.833 33.13 151.772 33.0956 151.707 33.0874C151.639 33.0791 151.565 33.0997 151.493 33.1066C151.421 33.1135 151.345 33.1313 151.282 33.1203C151.216 33.1093 151.16 33.0709 151.103 33.0434C151.044 33.0146 150.981 33.0159 150.9 33.0269C150.652 33.0585 150.65 33.0544 150.403 32.9693C150.375 32.9596 150.338 32.9487 150.307 32.9514C150.127 32.9679 149.948 32.9885 149.767 33.005C149.697 33.0118 149.63 32.994 149.582 32.9542C149.562 32.9377 149.569 32.9102 149.555 32.8566C149.54 32.8443 149.558 32.8663 149.562 32.8869C149.595 32.8841 149.634 32.8869 149.658 32.8759C149.719 32.8498 149.749 32.8154 149.734 32.7866C149.725 32.7715 149.684 32.7523 149.658 32.7523C149.61 32.7523 149.569 32.7825 149.555 32.8566C149.418 32.902 149.272 32.9116 149.13 32.9336C149.048 32.9473 148.995 32.9404 148.93 32.9047C148.851 32.8608 148.771 32.8182 148.642 32.8402C148.503 32.8649 148.354 32.869 148.211 32.8882C148.045 32.9102 147.973 32.7866 147.833 32.7893C147.69 32.7921 147.546 32.8154 147.402 32.8319C147.275 32.8457 147.275 32.8457 147.014 32.7564C146.918 32.7234 146.805 32.7715 146.711 32.7372C146.648 32.7152 146.593 32.6822 146.532 32.6589C146.506 32.6493 146.465 32.6493 146.432 32.652C146.251 32.6685 146.068 32.6795 145.893 32.7097C145.695 32.7454 145.545 32.7069 145.403 32.6259C145.224 32.641 145.043 32.6493 144.867 32.6754C144.738 32.6946 144.664 32.6493 144.577 32.6122C144.546 32.5998 144.52 32.5792 144.488 32.5737C144.455 32.5682 144.416 32.5792 144.381 32.5833C144.237 32.5984 144.089 32.6053 143.949 32.63C143.777 32.6616 143.711 32.549 143.579 32.5353C143.489 32.6026 143.441 32.6946 143.265 32.7014C143.121 32.7069 142.977 32.7289 142.833 32.744C142.761 32.7509 142.689 32.7591 142.617 32.766C142.502 32.7784 142.447 32.8319 142.471 32.9143C142.484 32.9596 142.495 33.005 142.506 33.0503C142.528 33.1313 142.473 33.2 142.382 33.2096C142.129 33.2357 141.878 33.2632 141.625 33.2865C141.558 33.2934 141.492 33.27 141.438 33.2329C141.381 33.1959 141.318 33.1794 141.248 33.1863C140.996 33.2123 140.745 33.2398 140.492 33.2632C140.464 33.2659 140.427 33.2522 140.398 33.2412C140.337 33.2165 140.278 33.1876 140.22 33.1615C140.076 33.1739 139.934 33.1821 139.792 33.1986C139.563 33.2233 139.563 33.2247 139.396 33.1492C139.365 33.1354 139.335 33.1094 139.306 33.1107C139.197 33.1162 139.09 33.1299 138.981 33.1423C138.661 33.178 138.661 33.178 138.567 33.1368C138.482 33.0984 138.406 33.0517 138.277 33.0736C138.138 33.0984 137.99 33.1066 137.846 33.1203C137.739 33.1299 137.632 33.1409 137.525 33.1437C137.497 33.1451 137.466 33.119 137.436 33.1052C137.349 33.0627 137.264 33.0283 137.144 33.0517C137.074 33.0654 137 33.0681 136.928 33.075C136.741 33.0942 136.741 33.0942 136.433 33.0118C136.403 33.0036 136.366 32.994 136.335 32.9981C136.082 33.0228 135.832 33.0503 135.579 33.0736C135.548 33.0764 135.511 33.0681 135.481 33.0613C135.136 32.9816 135.136 32.9816 134.77 33.0201C134.631 33.0338 134.626 33.0393 134.48 32.9665C134.415 32.9349 134.36 32.9198 134.284 32.9294C133.996 32.9624 133.706 32.9844 133.421 33.0228C133.292 33.0393 133.218 32.9981 133.131 32.961C133.1 32.9487 133.068 32.9212 133.042 32.9226C132.754 32.9487 132.466 32.9803 132.178 33.0063C132.152 33.0091 132.12 32.9816 132.089 32.9693C132.03 32.9445 131.973 32.9075 131.908 32.8992C131.841 32.891 131.766 32.9116 131.692 32.9184C131.511 32.9363 131.511 32.9349 131.302 32.8539C131.274 32.8429 131.237 32.8278 131.208 32.8305C130.921 32.858 130.631 32.8814 130.345 32.9212C130.182 32.9432 130.071 32.9033 129.955 32.8457C129.931 32.8333 129.89 32.8278 129.859 32.8305C129.534 32.8621 129.212 32.8978 128.887 32.9294C128.819 32.9363 128.754 32.9129 128.699 32.8772C128.612 32.8209 128.51 32.8278 128.401 32.8402C128.15 32.869 128.148 32.8676 128 32.8017C127.969 32.788 127.943 32.7701 127.91 32.7633C127.88 32.7564 127.841 32.7605 127.808 32.7633C127.664 32.777 127.52 32.7921 127.376 32.8072C127.233 32.8223 127.086 32.8306 126.945 32.8539C126.77 32.8827 126.688 32.7935 126.565 32.7523C126.387 32.7701 126.204 32.7811 126.027 32.8099C125.892 32.8319 125.829 32.7715 125.739 32.7399C125.709 32.7289 125.676 32.7056 125.648 32.7083C125.323 32.7385 124.998 32.7715 124.676 32.8086C124.597 32.8168 124.545 32.8058 124.479 32.7729C124.333 32.6987 124.327 32.7015 124.083 32.7289C123.976 32.7413 123.873 32.7523 123.782 32.696C123.701 32.6451 123.603 32.6328 123.488 32.6493C123.346 32.6699 123.2 32.6809 123.056 32.6946C122.912 32.7097 122.768 32.7303 122.625 32.7372C122.509 32.744 122.439 32.6795 122.348 32.6465C122.319 32.6369 122.28 32.6355 122.247 32.6383C122.104 32.6506 121.955 32.6602 121.816 32.6836C121.646 32.7124 121.552 32.6369 121.432 32.593C121.406 32.5833 121.362 32.5888 121.33 32.593C121.077 32.6177 120.826 32.6451 120.573 32.6712C120.484 32.6341 120.392 32.5985 120.303 32.5614C120.159 32.5751 120.015 32.5902 119.871 32.6039C119.762 32.6149 119.651 32.619 119.549 32.6396C119.416 32.6671 119.35 32.6026 119.261 32.571C119.231 32.56 119.198 32.5366 119.17 32.5394C118.989 32.5545 118.808 32.571 118.629 32.5943C118.459 32.6177 118.391 32.4941 118.252 32.4954C118.108 32.4968 117.96 32.5147 117.82 32.5394C117.659 32.5682 117.546 32.5243 117.43 32.4652C117.406 32.4529 117.365 32.446 117.334 32.4487C117.153 32.4652 116.975 32.4858 116.794 32.5023C116.763 32.5051 116.726 32.4982 116.696 32.49C116.351 32.4089 116.351 32.4076 116.201 32.424C116.094 32.435 115.985 32.4488 115.876 32.4556C115.845 32.4584 115.808 32.446 115.78 32.435C115.553 32.3512 115.553 32.3499 115.39 32.3663C115.246 32.3815 115.102 32.3966 114.958 32.4117C114.869 32.3746 114.777 32.3389 114.688 32.3018C114.509 32.3197 114.326 32.3334 114.15 32.3581C114.067 32.3691 114.012 32.365 113.949 32.3306C113.871 32.2894 113.792 32.2414 113.661 32.2647C113.522 32.2894 113.374 32.2922 113.232 32.3128C113.062 32.3375 112.992 32.2125 112.855 32.2139C112.711 32.2153 112.563 32.2331 112.423 32.2578C112.262 32.2867 112.149 32.2427 112.033 32.1837C112.009 32.1713 111.968 32.1645 111.937 32.1672C111.54 32.207 111.146 32.2469 110.749 32.2894C110.505 32.3155 110.505 32.3169 110.041 32.2414C110.008 32.2359 109.973 32.2304 109.94 32.2331C109.797 32.2455 109.648 32.2551 109.509 32.2784C109.339 32.3073 109.245 32.2331 109.125 32.1878C109.099 32.1782 109.058 32.1837 109.023 32.1864C108.914 32.196 108.807 32.2084 108.698 32.2194C108.554 32.2345 108.41 32.2496 108.266 32.2647C108.177 32.229 108.086 32.1919 107.996 32.1562C107.817 32.1741 107.634 32.1837 107.458 32.2125C107.323 32.2345 107.259 32.1768 107.17 32.1439C107.139 32.1329 107.107 32.1095 107.078 32.1109C106.754 32.1411 106.429 32.1727 106.106 32.2112C105.973 32.2276 105.912 32.1658 105.823 32.1342C105.792 32.1246 105.758 32.1068 105.729 32.1095C105.513 32.1287 105.298 32.1521 105.082 32.1754C104.96 32.1892 104.96 32.1892 104.694 32.104C104.663 32.0944 104.628 32.0848 104.598 32.0875C103.913 32.1562 103.231 32.229 102.547 32.2977C102.477 32.3045 102.414 32.2839 102.359 32.2469C102.303 32.2098 102.239 32.1906 102.17 32.1974C101.882 32.2263 101.592 32.2524 101.306 32.2881C101.189 32.3032 101.095 32.2853 101.014 32.2372C100.953 32.2015 100.897 32.1878 100.82 32.196C100.677 32.2125 100.533 32.2263 100.389 32.2414C100.245 32.2565 100.101 32.2716 99.9572 32.2867C99.8134 32.3018 99.6673 32.31 99.5256 32.3334C99.3512 32.3622 99.2662 32.2771 99.1464 32.2345C98.9306 32.2551 98.7147 32.2757 98.5011 32.2977C98.2134 32.3265 97.9257 32.3581 97.6379 32.3856C97.6118 32.3883 97.5791 32.3636 97.5486 32.3512C97.4592 32.3169 97.3938 32.2688 97.2608 32.2839C96.6156 32.3567 95.9661 32.4185 95.3187 32.49C95.1835 32.5051 95.1247 32.446 95.0331 32.4144C95.0026 32.4048 94.9677 32.3856 94.9394 32.3883C94.5798 32.4227 94.2201 32.4611 93.8604 32.4982C93.7144 32.5133 93.7144 32.5133 93.4703 32.4281C93.4419 32.4185 93.4048 32.4062 93.3743 32.4089C92.9057 32.4556 92.4392 32.5051 91.9706 32.5531C91.9008 32.56 91.8376 32.5408 91.7809 32.5037C91.7264 32.4666 91.661 32.446 91.5935 32.4529C91.1619 32.4968 90.7281 32.5394 90.2987 32.5875C90.1832 32.6012 90.0872 32.5888 90.0044 32.5394C89.9455 32.5037 89.8867 32.4886 89.8126 32.4968C89.1652 32.5641 88.5178 32.6287 87.8704 32.7001C87.7462 32.7138 87.659 32.6877 87.5805 32.6424C87.5173 32.6067 87.4628 32.5998 87.3843 32.6053C87.3015 32.6122 87.2514 32.6273 87.2056 32.6685C87.1468 32.722 87.1097 32.7893 86.9702 32.7935C86.8263 32.7976 86.6803 32.8141 86.5386 32.8374C86.4035 32.8608 86.3402 32.799 86.2552 32.7619C86.192 32.7358 86.1332 32.7317 86.0525 32.744C85.9784 32.755 85.9326 32.7784 85.889 32.8223C85.7931 32.9157 85.7844 32.9157 85.6667 32.8566C85.6035 32.825 85.5468 32.8003 85.477 32.8058C85.1893 32.8333 84.9016 32.8635 84.6139 32.8951C84.4482 32.9129 84.4461 32.9157 84.3218 32.847C84.2608 32.8127 84.2019 32.7962 84.13 32.8044C83.3387 32.8868 82.5475 32.9665 81.7562 33.053C81.6342 33.0668 81.5513 33.0379 81.4641 32.9967C81.4358 32.983 81.4075 32.9638 81.3748 32.9583C81.3421 32.9528 81.305 32.9583 81.2701 32.961C80.6947 33.0201 80.117 33.0764 79.5437 33.1423C79.413 33.1574 79.3432 33.1135 79.2539 33.0778C79.2234 33.0654 79.1972 33.0462 79.1645 33.0407C79.1318 33.0366 79.0925 33.0462 79.0577 33.0503C78.4822 33.1093 77.9046 33.1657 77.3313 33.2316C77.194 33.2467 77.1351 33.189 77.0457 33.1588C77.0152 33.1478 76.9826 33.1272 76.9542 33.1299C76.7733 33.145 76.5946 33.1656 76.4136 33.1835C75.982 33.2288 75.5504 33.2714 75.1188 33.3181C74.9532 33.336 74.8812 33.2137 74.7417 33.2192C74.5608 33.2261 74.3821 33.2535 74.2011 33.2728C74.0573 33.2879 73.9134 33.3016 73.7696 33.3181C73.6279 33.3332 73.6279 33.3332 73.2748 33.2535C73.2442 33.2467 73.2072 33.2371 73.1767 33.2398C72.6731 33.2906 72.1675 33.3414 71.6661 33.3964C71.5506 33.4087 71.4547 33.4019 71.3718 33.3511C71.313 33.3154 71.252 33.2975 71.18 33.3057C70.4237 33.384 69.6694 33.4623 68.9131 33.5392C68.8847 33.542 68.8477 33.5282 68.8193 33.5172C68.7583 33.4925 68.6994 33.4637 68.6406 33.4376C68.597 33.4692 68.5404 33.498 68.512 33.5337C68.4728 33.5818 68.4205 33.5955 68.3376 33.6038C68.2548 33.612 68.2025 33.6093 68.1371 33.5736C68.0586 33.5296 67.978 33.4953 67.8494 33.509C67.0581 33.5955 66.2668 33.6738 65.4756 33.759C65.3448 33.7727 65.2838 33.7123 65.1922 33.6807C65.1617 33.6711 65.1268 33.656 65.0985 33.6587C64.7737 33.6903 64.4511 33.7246 64.1263 33.7576C63.2261 33.851 62.3259 33.9403 61.4278 34.0391C61.2643 34.057 61.1531 34.0226 61.0376 33.9636C61.0136 33.9512 60.9722 33.9444 60.9417 33.9471C59.6818 34.0762 58.4219 34.2067 57.1642 34.3371C57.0966 34.344 57.0312 34.322 56.9767 34.2863C56.92 34.2493 56.8568 34.2314 56.7871 34.2383C56.2116 34.2973 55.6362 34.3564 55.0607 34.4168C54.9169 34.4319 54.9147 34.4333 54.7664 34.3674C54.7359 34.3536 54.7033 34.3275 54.6793 34.3303C54.6291 34.3372 54.5812 34.3715 54.5463 34.4182C54.5114 34.4676 54.4569 34.4814 54.3763 34.491C54.2934 34.5006 54.2389 34.4965 54.1757 34.4635C54.0951 34.4223 54.021 34.3825 53.8902 34.3962C52.2357 34.572 50.5813 34.7409 48.9269 34.9153C48.7939 34.9291 48.7328 34.8714 48.6413 34.8398C48.6108 34.8302 48.5803 34.8165 48.5476 34.8137C48.5127 34.811 48.4757 34.8192 48.4408 34.8233C45.7422 35.1021 43.0437 35.3823 40.3452 35.6611C40.1839 35.6776 40.186 35.6776 40.0095 35.8039C39.9877 35.819 39.9593 35.8396 39.9288 35.8424C39.1027 35.9303 38.2744 36.0154 37.4461 36.1006C37.0864 36.1377 36.7268 36.1761 36.3671 36.2118C36.2385 36.2242 36.2385 36.2242 35.9312 36.3725C35.905 36.3849 35.8745 36.4014 35.8439 36.4041C34.4053 36.5538 32.9666 36.7035 31.5258 36.8505C31.4125 36.8614 31.3209 36.8862 31.2686 36.9521C31.2316 36.9988 31.1836 37.0262 31.1117 37.0345C30.1046 37.1389 29.0976 37.2446 28.0884 37.3462C27.9685 37.3586 27.8965 37.3971 27.8377 37.4547C27.8181 37.474 27.8006 37.4959 27.7723 37.5097C27.7461 37.522 27.7069 37.5261 27.6742 37.5303C26.811 37.6195 25.9479 37.7116 25.0825 37.7967C24.9539 37.8091 24.9016 37.8599 24.8383 37.9135C24.8165 37.9313 24.8013 37.956 24.7729 37.9684C24.7446 37.9794 24.7032 37.9794 24.6683 37.9821C23.949 38.0563 23.2297 38.1318 22.5104 38.206C22.3709 38.1991 22.3403 38.2788 22.2728 38.3268C22.2488 38.3433 22.2314 38.3653 22.203 38.3763C22.1725 38.3873 22.1332 38.3859 22.0962 38.3886C21.5207 38.4477 20.9453 38.5109 20.3677 38.5658C20.2347 38.5782 20.2085 38.6482 20.1366 38.6963C20.1126 38.7114 20.0887 38.7347 20.0603 38.7389C19.7007 38.7787 19.341 38.8158 18.9814 38.8515C18.8615 38.8638 18.8615 38.8625 18.65 38.9984C18.6261 39.0135 18.5977 39.03 18.5672 39.0341C18.0288 39.0918 17.4882 39.1468 16.9476 39.2031C16.8779 39.2099 16.8299 39.2429 16.7951 39.2896C16.7602 39.3363 16.7101 39.3665 16.6403 39.3734C16.2087 39.4187 15.7771 39.4654 15.3455 39.5066C15.2256 39.5176 15.1471 39.5519 15.0948 39.6137C15.0556 39.6604 15.0076 39.6837 14.9313 39.692C14.4998 39.7359 14.0682 39.784 13.6344 39.8225C13.508 39.8334 13.4426 39.8801 13.3902 39.9378C13.3488 39.9845 13.3009 40.001 13.2202 40.0092C12.429 40.0889 11.6356 40.1685 10.8465 40.2564C10.7135 40.2715 10.6459 40.2235 10.5587 40.1891C10.4345 40.1411 10.319 40.0889 10.319 39.9818C10.319 39.9653 10.2819 39.9461 10.2558 39.9323C10.0618 39.8293 10.0618 39.8293 10.0313 39.7195C10.0138 39.6522 9.9942 39.5835 9.97894 39.5148C9.95061 39.4022 9.88083 39.3734 9.68029 39.394C9.60836 39.4008 9.53643 39.4104 9.4645 39.4159C9.35769 39.4255 9.27705 39.3802 9.25743 39.2978C9.24653 39.2525 9.23347 39.2072 9.22257 39.1619C9.33156 39.1509 9.32935 39.1495 9.52117 38.9833C9.60182 38.9133 9.60186 38.9133 9.44709 38.8432C9.38824 38.8171 9.33155 38.7883 9.26834 38.7636C9.24 38.7526 9.20296 38.7457 9.17244 38.7485C8.99152 38.7649 8.81279 38.7842 8.63405 38.8034C8.34632 38.8336 8.34629 38.8336 8.0542 38.6935C8.03022 38.6825 7.99316 38.6619 7.99752 38.651C8.0215 38.6001 8.08035 38.5782 8.15446 38.5727C8.26345 38.5644 8.37025 38.5507 8.47706 38.5397C8.54899 38.5328 8.62092 38.5246 8.69285 38.5177C8.76043 38.4656 8.83021 38.4147 8.89343 38.3612C8.9937 38.2788 8.99366 38.276 8.85633 38.2183C8.76914 38.1799 8.67542 38.1455 8.58605 38.1098C8.47924 38.1208 8.37025 38.1332 8.26345 38.1428C8.1283 38.1552 8.0738 38.1291 8.03893 38.0398C8.00841 37.9615 8.04547 37.8942 8.15009 37.8777C8.2569 37.8613 8.35721 37.8503 8.41171 37.7802C8.46402 37.7129 8.55556 37.6868 8.66891 37.6813C8.74084 37.6772 8.81277 37.6676 8.8847 37.6594C8.97843 37.6484 9.02858 37.5783 9.00896 37.5001C8.99806 37.4492 8.97626 37.4067 8.89124 37.3957C8.51415 37.3476 8.50976 37.349 8.3223 37.2556C8.30487 37.2474 8.29182 37.2226 8.29836 37.2103C8.30926 37.1897 8.33324 37.1595 8.3594 37.1553C8.61007 37.1251 8.86073 37.0977 9.1114 37.0771C9.19423 37.0702 9.25527 37.0606 9.28361 37.0098C9.32285 36.9397 9.30541 36.8752 9.22912 36.8271C9.20514 36.812 9.16587 36.7928 9.13971 36.7941C8.85199 36.8189 8.56645 36.8504 8.27872 36.8752C8.25256 36.8779 8.20463 36.8546 8.19373 36.8367C8.17194 36.8038 8.20461 36.7598 8.2809 36.7447C8.38117 36.7241 8.48362 36.7227 8.55119 36.654C8.64492 36.5565 8.76043 36.4673 8.86506 36.3739C8.8825 36.3574 8.91088 36.3258 8.90434 36.3231C8.84984 36.2928 8.78662 36.2695 8.72995 36.2407C8.63404 36.1926 8.63402 36.1253 8.65581 36.0608C8.67325 36.0086 8.73864 35.988 8.8193 35.988C8.85417 35.988 8.89777 35.988 8.9261 35.9756C9.00021 35.9454 9.0242 35.9069 8.98714 35.8781C8.96534 35.8616 8.92613 35.8383 8.89997 35.841C8.4335 35.8863 7.96482 35.9303 7.50053 35.9866C7.36321 36.0031 7.30004 35.9509 7.21721 35.9138C7.15399 35.885 7.0951 35.874 7.01663 35.8946C6.94252 35.9138 6.87061 35.9028 6.82484 35.8575C6.78778 35.8204 6.85316 35.7888 7.02972 35.7531C7.06242 35.7463 7.09946 35.7421 7.12344 35.7284C7.37629 35.5801 7.37628 35.5787 7.55066 35.5595C7.72068 35.5416 7.72072 35.5402 7.81009 35.4606C7.85151 35.4235 7.89725 35.3864 7.93648 35.348C7.95174 35.3329 7.97793 35.3054 7.96921 35.2971C7.92126 35.2546 7.85584 35.245 7.77955 35.2546C7.60953 35.2779 7.40902 35.2587 7.31965 35.3892C7.28477 35.4386 7.23027 35.4523 7.1518 35.4606C6.36273 35.5402 5.57363 35.6254 4.78238 35.7023C4.65377 35.7147 4.59495 35.7655 4.54482 35.8218C4.50122 35.8685 4.45326 35.8822 4.37043 35.8905C4.2876 35.8987 4.22217 35.9028 4.17422 35.8575C4.14588 35.83 4.16986 35.7916 4.23526 35.7531C4.32899 35.6982 4.31154 35.6295 4.28102 35.565C4.25923 35.5224 4.19166 35.4922 4.11972 35.4949C4.01291 35.5004 3.91049 35.5155 3.82112 35.4606C3.76881 35.429 3.7034 35.407 3.64455 35.3795C3.5312 35.3232 3.41785 35.2656 3.25873 35.3026C3.14974 35.2889 3.07345 35.2395 2.98626 35.201C2.84022 35.1378 2.82714 35.1282 2.93177 35.0609C3.04947 34.9854 2.95791 34.8865 3.0233 34.8123C3.09305 34.7327 3.18899 34.6627 3.274 34.5885C3.2958 34.5693 3.31543 34.5514 3.33722 34.5322C3.28709 34.5047 3.24132 34.4704 3.18247 34.4512C3.10618 34.4264 3.06694 34.3962 3.0713 34.3111C3.05604 34.2987 3.06254 34.3303 3.07997 34.3385C3.09959 34.3468 3.14758 34.3399 3.17156 34.3303C3.23259 34.3042 3.26308 34.2699 3.24782 34.241C3.2391 34.2259 3.19772 34.2067 3.17156 34.2067C3.12361 34.2067 3.0822 34.2369 3.06912 34.3111C2.82498 34.3674 2.57209 34.3948 2.31924 34.4168C2.29308 34.4196 2.26041 34.3921 2.22989 34.3784C2.12962 34.3317 2.12961 34.333 1.83534 34.3193C1.80482 34.3179 1.76343 34.2987 1.74817 34.2795C1.68496 34.1957 1.68715 34.1037 1.65664 34.0144C1.71331 33.9567 1.76994 33.9004 1.82879 33.8441C1.9465 33.7301 2.09912 33.6299 2.19067 33.5049C2.17105 33.4376 2.14489 33.3703 2.2408 33.3154C2.51327 33.2467 2.51111 33.2467 2.58522 33.1808C2.79665 32.994 3.0059 32.8058 3.22605 32.6218C3.28491 32.5737 3.28492 32.5476 3.18029 32.527C3.14759 32.5215 3.11267 32.5202 3.07779 32.5229C2.9688 32.5325 2.85982 32.5572 2.75301 32.5517C2.6462 32.5476 2.56773 32.4872 2.48054 32.4501C2.39117 32.4117 2.3018 32.3718 2.21243 32.332C2.10999 32.3361 2.00756 32.3746 1.90511 32.3128C1.82664 32.2647 1.72855 32.2304 1.63918 32.1905C1.70676 32.0862 1.8332 32.0065 1.93129 31.9145C2.02066 31.8307 2.02279 31.8321 2.26256 31.7675C2.37591 31.7373 2.41515 31.5821 2.31924 31.5368C2.20371 31.4819 2.08167 31.4311 1.96396 31.3789C1.86152 31.383 1.75691 31.4201 1.65882 31.3583C1.58253 31.3116 1.49532 31.28 1.36889 31.2978C1.15528 31.3281 0.937309 31.3432 0.721513 31.3679C0.647401 31.3761 0.566727 31.3706 0.53403 31.3239C0.512233 31.291 0.57545 31.2457 0.647382 31.2361C0.75637 31.2223 0.854448 31.2058 0.908942 31.1372C0.961257 31.0685 1.05716 31.0479 1.1705 31.0383C1.20102 31.0355 1.23592 31.019 1.25118 31.0026C1.32965 30.9229 1.41685 30.8542 1.58469 30.857C1.65444 30.8295 1.69147 30.7952 1.66968 30.7622C1.6566 30.7444 1.61085 30.721 1.58469 30.7238C1.40377 30.7375 1.22286 30.7512 1.04629 30.776C0.963464 30.787 0.900217 30.7897 0.847903 30.7485C0.810847 30.721 0.830463 30.6839 0.900215 30.6441C0.961248 30.6098 0.978705 30.57 0.974346 30.5233C0.963447 30.4148 0.898041 30.3832 0.688785 30.39C0.538381 30.3955 0.501323 30.3777 0.468627 30.2843C0.459908 30.2623 0.438149 30.2321 0.453407 30.217C0.547136 30.1236 0.608174 30.0082 0.784734 29.9643C0.854487 29.9478 0.928569 29.9478 0.972164 29.9121C1.01576 29.8764 1.05501 29.8352 1.10079 29.8009C1.15746 29.7597 1.19666 29.7212 1.1705 29.6951C1.12691 29.6484 1.05718 29.6443 0.976528 29.6608C0.906775 29.6745 0.832666 29.6759 0.760734 29.6841C0.632128 29.6992 0.527523 29.6635 0.512265 29.6031C0.470849 29.4438 0.427241 29.2858 0.390185 29.1265C0.385826 29.1073 0.396695 29.0826 0.414133 29.0661C0.475166 29.0084 0.540584 28.9535 0.603797 28.8972C0.677909 28.8326 0.795635 28.845 0.895904 28.8326C1.03759 28.8148 1.03754 28.8161 1.22718 28.6843C1.30129 28.6321 1.4299 28.6527 1.50619 28.606C1.53017 28.5909 1.56723 28.5662 1.56069 28.5525C1.55197 28.5346 1.5084 28.5209 1.4757 28.5126C1.44518 28.5044 1.40814 28.5003 1.37544 28.5044C0.978724 28.5442 0.584199 28.5868 0.187483 28.6252C0.11991 28.6321 0.0457962 28.6019 0.0218189 28.5593C-0.00215847 28.5195 0.00435952 28.4714 0 28.4261C0.063213 28.3698 0.135117 28.3176 0.189611 28.2572C0.231027 28.2105 0.27899 28.1899 0.361821 28.1871C0.470809 28.183 0.577628 28.1665 0.699694 28.1542C0.926389 27.9537 1.14871 27.7435 1.39284 27.543C1.49093 27.462 1.46699 27.3796 1.48661 27.293C1.50623 27.2134 1.65226 27.2258 1.75035 27.2024C1.82882 27.1832 1.85495 27.1392 1.82443 27.109C1.80699 27.0912 1.76778 27.0706 1.73726 27.0706C1.66533 27.0706 1.5934 27.0829 1.52147 27.0898C1.44954 27.0967 1.36671 27.0925 1.30786 27.1159C1.25118 27.1379 1.2141 27.1846 1.17705 27.2244C1.13563 27.2683 1.08118 27.2834 0.998347 27.2862C0.891538 27.2889 0.784737 27.3013 0.677928 27.3109C0.560221 27.2573 0.438129 27.2052 0.324782 27.1489C0.302984 27.1379 0.298601 27.1063 0.300781 27.0857C0.305141 27.0321 0.272453 26.9992 0.200521 26.9731C0.139488 26.9511 0.0893488 26.9195 0.0326751 26.892C0.0762703 26.8549 0.124242 26.8192 0.159118 26.7794C0.23541 26.6956 0.33133 26.6352 0.496991 26.638C0.562384 26.5844 0.614684 26.5185 0.699694 26.4814C0.780345 26.4457 0.917676 26.4814 0.97871 26.4003C1.00923 26.3605 1.05503 26.3152 1.11388 26.2987C1.20761 26.2726 1.32967 26.2864 1.38417 26.2095C1.41686 26.1655 1.4648 26.1257 1.52801 26.1147C1.59995 26.1023 1.67404 26.0996 1.72635 26.0735C1.75469 26.0598 1.78521 26.0378 1.78521 26.0186C1.78521 26.0062 1.74165 25.987 1.71113 25.9787C1.6828 25.9691 1.6457 25.9622 1.613 25.965C1.50401 25.9732 1.39721 25.9883 1.28822 25.9966C1.2577 25.9993 1.22284 25.9897 1.19014 25.9815C1.09423 25.9595 1.10076 25.932 1.17705 25.8826C1.25334 25.8345 1.30786 25.7727 1.37108 25.7164C1.44083 25.7068 1.52801 25.7109 1.57596 25.6848C1.65661 25.6422 1.71327 25.5804 1.77866 25.5269C1.8506 25.5186 1.9247 25.5159 1.99228 25.5008C2.02061 25.4953 2.0337 25.4651 2.05768 25.4472C2.10127 25.4129 2.13836 25.3635 2.19721 25.347C2.29312 25.3223 2.41083 25.3319 2.4675 25.2563C2.5002 25.2124 2.55031 25.1657 2.61135 25.1629C2.78137 25.1575 2.8533 25.0819 2.94049 25.0105C3.00589 24.9569 3.14539 24.9844 3.21733 24.9308C3.26528 24.8965 3.30018 24.8539 3.34813 24.821C3.36775 24.8072 3.40915 24.8004 3.44185 24.7962C3.62059 24.7756 3.8015 24.7605 3.98024 24.7386C4.00858 24.7344 4.03476 24.7138 4.05655 24.6974C4.10233 24.6617 4.13063 24.6122 4.18731 24.5889C4.24398 24.5655 4.32462 24.5655 4.39437 24.5587C4.61889 24.5381 4.63634 24.5435 4.73879 24.4268C4.82162 24.332 5.02437 24.3993 5.09194 24.295C5.13118 24.2345 5.20308 24.1851 5.33168 24.1782C5.5126 24.1686 5.69134 24.1425 5.87226 24.1247C6.03356 24.1082 6.03139 24.1082 6.20577 23.9804C6.28424 23.9228 6.39979 23.931 6.50224 23.92C6.61123 23.909 6.71148 23.8926 6.7638 23.8239C6.81611 23.7566 6.91201 23.7346 7.02318 23.725C7.12563 23.7154 7.24118 23.7223 7.32183 23.6673C7.51801 23.5355 7.51583 23.5341 7.65316 23.5204C7.86895 23.4984 8.08474 23.4764 8.30054 23.4531C8.4444 23.438 8.5948 23.4352 8.72995 23.405C8.82803 23.383 8.87162 23.3061 8.93483 23.2526C9.11357 23.232 9.2923 23.2113 9.47104 23.1921C9.72171 23.1647 9.97456 23.1399 10.2274 23.1138C10.3364 23.0617 10.3517 22.9463 10.5348 22.9408C10.6438 22.9381 10.7506 22.9202 10.8596 22.9092C11.0405 22.89 11.2192 22.8653 11.4001 22.8556C11.5375 22.8488 11.5614 22.7746 11.6333 22.7279C11.6573 22.7114 11.6791 22.6881 11.7075 22.684C11.9908 22.6455 12.2829 22.6373 12.5597 22.581C12.5881 22.5755 12.6142 22.5466 12.6208 22.526C12.6251 22.515 12.5881 22.4945 12.5641 22.4848C12.5358 22.4739 12.4987 22.4629 12.4682 22.4656C11.568 22.5576 10.6678 22.651 9.76751 22.743C9.64109 22.7568 9.64109 22.7554 9.33374 22.9065C9.30758 22.9188 9.27703 22.9326 9.24434 22.9367C9.10047 22.9532 8.95443 22.9628 8.81275 22.9834C8.69722 22.9999 8.60135 22.9834 8.51851 22.9339C8.45966 22.8982 8.3986 22.8872 8.32449 22.89C8.24166 22.8941 8.18719 22.9092 8.13924 22.9463C8.07603 22.9971 8.04332 23.063 7.91035 23.0768C7.29784 23.1358 6.68529 23.2017 6.07496 23.2649C5.98995 23.2457 5.94854 23.2169 5.97034 23.1825C5.98341 23.1619 6.00958 23.1344 6.03574 23.1317C6.28641 23.1029 6.53926 23.0781 6.78993 23.0507C6.8248 23.0466 6.87275 23.0493 6.89237 23.0356C6.98828 22.9738 7.02319 22.8735 7.20411 22.8666C7.30874 22.8625 7.41554 22.8419 7.5158 22.8227C7.54414 22.8172 7.5703 22.7884 7.57684 22.7678C7.57902 22.7568 7.54414 22.7362 7.51799 22.7265C7.42208 22.6867 7.31093 22.7348 7.21502 22.7073C7.18233 22.6977 7.13652 22.684 7.12998 22.6675C7.12562 22.6524 7.16268 22.6277 7.18884 22.6126C7.21282 22.5988 7.24549 22.5865 7.27819 22.5823C7.56592 22.5508 7.85369 22.5178 8.14142 22.4931C8.25913 22.4835 8.34194 22.4491 8.39425 22.3859C8.43349 22.3393 8.48144 22.3145 8.55555 22.3077C9.05908 22.2569 9.56259 22.2005 10.0683 22.1539C10.1947 22.1429 10.2601 22.0975 10.3125 22.0385C10.3539 21.9918 10.4018 21.9753 10.4825 21.9671C11.204 21.8957 11.9211 21.816 12.6426 21.7473C12.7756 21.735 12.8148 21.6759 12.8824 21.6251C12.9064 21.6072 12.9216 21.5853 12.9521 21.5743C12.9826 21.5633 13.0219 21.5647 13.0589 21.5619C13.6344 21.5029 14.2099 21.4397 14.7875 21.3848C14.9226 21.3724 14.9488 21.3037 15.0185 21.2557C15.0425 21.2405 15.0643 21.2158 15.0926 21.2117C15.5242 21.165 15.9558 21.1211 16.3874 21.0757C16.6751 21.0455 16.9629 21.0153 17.2506 20.9865C17.3923 20.9727 17.3923 20.9714 17.5841 20.8409C17.6059 20.8258 17.6364 20.8079 17.6648 20.8038C18.4931 20.7159 19.3192 20.6321 20.1475 20.5456C20.2172 20.5388 20.2674 20.5072 20.3022 20.4605C20.3371 20.4138 20.3873 20.3822 20.4549 20.3753C21.1023 20.3066 21.7496 20.2393 22.3992 20.1748C22.5169 20.1638 22.5997 20.1308 22.652 20.069C22.6913 20.0224 22.7392 19.9976 22.8133 19.9908C23.4607 19.9248 24.1082 19.8548 24.7577 19.7916C24.882 19.7793 24.943 19.7326 25.004 19.6776C25.0258 19.6584 25.0433 19.6268 25.0694 19.6241C25.392 19.5856 25.7124 19.5458 26.0372 19.5197C26.1724 19.5087 26.2181 19.451 26.2726 19.3961C26.3162 19.3521 26.3664 19.337 26.4492 19.3315C26.6301 19.3192 26.8089 19.2958 26.9854 19.2725C27.0116 19.2684 27.0443 19.2382 27.0465 19.2189C27.0508 19.1832 27.0007 19.1585 26.9178 19.1461C26.0547 19.2354 25.1893 19.3247 24.3261 19.4139C24.1844 19.429 24.1844 19.4291 23.9926 19.5595C23.9708 19.5746 23.9403 19.5925 23.9098 19.5966C23.0815 19.6831 22.2553 19.7683 21.427 19.8548C21.3573 19.8617 21.3072 19.8933 21.2723 19.94C21.2374 19.9867 21.1872 20.0182 21.1197 20.0251C20.3284 20.1075 19.5372 20.1913 18.7437 20.2696C18.626 20.2806 18.5432 20.3121 18.4909 20.3753C18.4517 20.422 18.4037 20.4467 18.3296 20.4536C17.5732 20.5305 16.819 20.6115 16.0604 20.6857C15.9842 20.6926 15.9275 20.6527 15.9319 20.6157C15.9341 20.5964 15.9667 20.5648 15.9929 20.5621C16.3874 20.5168 16.7798 20.4701 17.1765 20.4357C17.3095 20.4248 17.3487 20.3643 17.4163 20.3135C17.438 20.2957 17.4555 20.2723 17.4838 20.2627C17.5144 20.2517 17.5536 20.2531 17.5906 20.2503C18.5258 20.1528 19.4609 20.054 20.3982 19.9619C20.5333 19.9482 20.5595 19.8809 20.6292 19.8328C20.6532 19.8163 20.675 19.7916 20.7033 19.7889C20.9911 19.7559 21.2788 19.7271 21.5665 19.6982C22.07 19.646 22.5736 19.5939 23.0793 19.5417C23.2253 19.5266 23.2253 19.5266 23.4128 19.3975C23.4346 19.3824 23.4651 19.3631 23.4934 19.3604C24.8253 19.2217 26.1571 19.083 27.489 18.9456C27.5587 18.9388 27.6088 18.9072 27.6437 18.8605C27.6786 18.8152 27.7287 18.7822 27.7963 18.774C29.5968 18.5872 31.3951 18.4004 33.1956 18.2164C33.3133 18.204 33.3961 18.1751 33.4484 18.1106C33.4854 18.0639 33.5356 18.0392 33.6097 18.0309C35.5889 17.8263 37.5681 17.6217 39.5495 17.4157C40.8814 17.2783 42.2132 17.1382 43.545 17.0037C43.6671 16.9913 43.7325 16.9487 43.7935 16.8924C43.8131 16.8732 43.8328 16.8416 43.8589 16.8388C44.1445 16.8045 44.43 16.7729 44.7155 16.7413C44.8049 16.7784 44.8943 16.8141 44.9837 16.8512C45.0512 16.799 45.1167 16.7455 45.1842 16.6933C45.6158 16.6534 46.0409 16.5916 46.4768 16.5724C46.5051 16.571 46.5356 16.5971 46.5662 16.6109C46.7689 16.6974 46.8844 16.6905 47.013 16.5752C47.0588 16.534 47.098 16.4969 47.1678 16.49C47.3836 16.4653 47.6016 16.4488 47.8152 16.42C47.9307 16.4049 48.0266 16.4186 48.1094 16.468C48.1683 16.5037 48.2294 16.5189 48.3013 16.5106C48.698 16.4694 49.0925 16.4296 49.4893 16.3856C49.5176 16.3829 49.5437 16.3595 49.5655 16.3431C49.6113 16.3073 49.6505 16.2689 49.6941 16.2318C49.753 16.2552 49.8184 16.273 49.8663 16.3032C49.9274 16.3389 49.984 16.3389 50.0669 16.3293C51.6494 16.1631 53.2341 16.0011 54.8166 15.8335C54.9517 15.8198 55.0106 15.8775 55.1021 15.9077C55.1326 15.9187 55.1632 15.9324 55.1958 15.9352C55.2307 15.9379 55.2678 15.9297 55.3027 15.9256C56.4906 15.8019 57.6786 15.6797 58.8666 15.5561C59.0235 15.5396 59.0235 15.5396 59.2568 15.6248C59.2851 15.6358 59.3221 15.6481 59.3527 15.644C59.8932 15.5904 60.4338 15.5328 60.9722 15.4778C61.042 15.471 61.1008 15.4929 61.1641 15.5245C61.2883 15.5863 61.297 15.5863 61.3885 15.4957C61.4321 15.4531 61.4779 15.427 61.5498 15.4146C61.6283 15.4009 61.6915 15.405 61.7526 15.4298C61.8398 15.4641 61.903 15.5218 62.036 15.5067C62.6114 15.4421 63.189 15.3886 63.7623 15.3226C63.8931 15.3075 63.9629 15.3542 64.0501 15.3886C64.0806 15.4009 64.1089 15.4201 64.1416 15.4243C64.1743 15.4284 64.2135 15.4188 64.2484 15.4146C64.9677 15.3405 65.6892 15.2677 66.4063 15.188C66.5415 15.1729 66.6003 15.232 66.6919 15.2622C66.7224 15.2732 66.7573 15.2924 66.7856 15.2897C67.2172 15.2471 67.651 15.2018 68.0826 15.1564C68.2374 15.14 68.2373 15.1413 68.4727 15.2251C68.5011 15.2361 68.5382 15.2471 68.5687 15.2443C69.0722 15.1935 69.5779 15.1413 70.0814 15.0891C70.2362 15.0727 70.2362 15.0727 70.683 15.1441C70.7157 15.1496 70.7506 15.1578 70.7833 15.1551C71.3588 15.096 71.9364 15.0383 72.5118 14.9752C72.6274 14.9628 72.7233 14.9738 72.8061 15.0232C72.865 15.0589 72.926 15.0741 72.9979 15.0658C73.6453 14.9985 74.2949 14.934 74.9401 14.8626C75.0644 14.8488 75.145 14.879 75.2322 14.9189C75.2605 14.9326 75.2889 14.9518 75.3216 14.9573C75.3543 14.9628 75.3913 14.9573 75.4262 14.9532C76.0736 14.8859 76.7231 14.8227 77.3683 14.7499C77.4991 14.7348 77.5689 14.7815 77.6561 14.8158C77.6866 14.8282 77.7193 14.8529 77.7454 14.8516C77.9983 14.8282 78.2511 14.8076 78.5018 14.7733C78.637 14.7541 78.6958 14.8172 78.7874 14.8474C78.8179 14.857 78.8528 14.8777 78.8811 14.8749C79.4217 14.8213 79.9623 14.765 80.5007 14.7074C80.577 14.6991 80.6336 14.7115 80.6947 14.7472C80.7753 14.7952 80.8691 14.8145 80.9868 14.7994C81.2374 14.7678 81.4903 14.7458 81.7431 14.7197C81.8914 14.7046 81.8914 14.7046 82.3448 14.776C82.3774 14.7815 82.4123 14.7898 82.445 14.787C82.8766 14.7431 83.3104 14.7005 83.7398 14.6524C83.8553 14.6387 83.9512 14.651 84.0341 14.7005C84.0929 14.7362 84.1517 14.7513 84.2259 14.7431C84.6226 14.7019 85.0172 14.6607 85.4139 14.6195C85.5577 14.6044 85.7016 14.5783 85.8455 14.5783C85.9501 14.5796 86.0264 14.6455 86.1201 14.6785C86.1463 14.6881 86.1899 14.6771 86.2247 14.6744C86.7283 14.6222 87.2339 14.5741 87.7353 14.5151C87.8661 14.5 87.9358 14.5467 88.023 14.581C88.0536 14.5934 88.0862 14.6181 88.1124 14.6167C88.2933 14.6016 88.472 14.581 88.653 14.5631C88.8688 14.5412 89.0867 14.5247 89.3003 14.4945C89.4747 14.4698 89.5401 14.5892 89.6796 14.5934C89.7864 14.5975 89.8954 14.5741 90.0022 14.5631C90.218 14.5412 90.4338 14.5165 90.6496 14.4972C90.7259 14.4904 90.7848 14.4684 90.8088 14.4189C90.8131 14.4093 90.7761 14.3887 90.7521 14.3764C90.4622 14.2363 90.4622 14.2363 90.1701 14.2665C89.9892 14.2857 89.8104 14.305 89.6295 14.3214C89.599 14.3242 89.5641 14.3132 89.5336 14.305C89.4464 14.2816 89.4551 14.2541 89.5292 14.2047C89.6033 14.1553 89.66 14.0948 89.7232 14.0385C89.8126 14.0742 89.8998 14.1099 89.9892 14.1456C90.0611 14.1388 90.133 14.1305 90.205 14.1237C90.5646 14.088 90.9243 14.0509 91.284 14.0179C91.3101 14.0152 91.3428 14.0426 91.3733 14.0564C91.4605 14.0962 91.539 14.1305 91.6654 14.1154C91.988 14.0756 92.3128 14.0468 92.6354 14.0124C92.7771 13.9973 92.7771 13.9973 93.0256 14.0825C93.0539 14.0921 93.091 14.1031 93.1215 14.1003C93.4463 14.0687 93.7689 14.0344 94.0936 14.0014C94.1634 13.9946 94.231 14.0124 94.2811 14.0523C94.3007 14.0687 94.2964 14.0962 94.3792 14.3214C94.6364 14.5041 94.813 14.4849 94.9917 14.4684C95.068 14.4615 95.1356 14.4547 95.1857 14.4272C95.2119 14.4121 95.2446 14.3901 95.2446 14.3722C95.2446 14.3585 95.1966 14.3365 95.1661 14.3338C94.9503 14.3063 94.7454 14.364 94.534 14.3764C94.4359 14.3819 94.3509 14.3338 94.3334 14.2555C94.3291 14.2335 94.3225 14.2102 94.316 14.1882C94.3094 14.1662 94.3051 14.1429 94.2986 14.1209C94.2136 14.1141 94.1634 14.1388 94.1264 14.1855C94.0958 14.2239 94.0522 14.2679 93.9934 14.2885C93.9345 14.3104 93.8539 14.3063 93.7819 14.3132C93.7122 14.3201 93.6359 14.3379 93.5705 14.3283C93.5051 14.3173 93.4528 14.2775 93.3918 14.2528C93.3634 14.2404 93.3286 14.2226 93.3002 14.2253C93.0496 14.2486 92.8011 14.272 92.5526 14.3022C92.4218 14.3187 92.3564 14.261 92.2736 14.2253C92.2082 14.1978 92.1427 14.2047 92.1319 14.2679C92.1035 14.4189 92.2038 14.4821 92.4261 14.4533C92.6092 14.4285 92.7749 14.4244 92.9188 14.5178C92.9384 14.5302 92.9841 14.5357 93.0125 14.5329C93.1912 14.5165 93.3678 14.4959 93.5465 14.4794C93.5792 14.4766 93.6141 14.4821 93.6446 14.4876C94.0893 14.5618 94.0893 14.5631 94.2397 14.5467C94.3116 14.5384 94.3814 14.5316 94.3748 14.3228C94.5122 14.0989 94.7302 14.0838 94.9416 14.0509C95.0789 14.0303 95.1377 14.0907 95.2271 14.1223C95.2576 14.1333 95.2903 14.1553 95.3187 14.1525C95.7873 14.1072 96.2538 14.0591 96.7203 14.0083C96.7987 14.0001 96.8554 14.0083 96.9164 14.044C96.9949 14.0893 97.0821 14.1182 97.2063 14.1017C97.4548 14.0687 97.7077 14.0481 97.9605 14.0207C98.0891 14.0069 98.0891 14.0069 98.3485 14.0921C98.3769 14.1017 98.4139 14.1127 98.4444 14.1099C98.6973 14.0866 98.948 14.0577 99.1987 14.033C99.2684 14.0262 99.3316 14.0454 99.3861 14.0825C99.4406 14.1195 99.506 14.1388 99.5736 14.1319C99.8264 14.1072 100.077 14.0797 100.328 14.055C100.358 14.0523 100.395 14.0619 100.424 14.0715C100.69 14.1566 100.69 14.1566 100.812 14.1429C100.99 14.1223 101.174 14.1127 101.35 14.0852C101.522 14.0577 101.612 14.1374 101.729 14.1813C102.052 14.1498 102.377 14.1237 102.697 14.0852C102.828 14.0687 102.898 14.114 102.985 14.1498C103.015 14.1621 103.046 14.1882 103.074 14.1868C103.183 14.1813 103.29 14.1662 103.397 14.1553C103.504 14.1443 103.613 14.1333 103.719 14.1223C103.842 14.1621 103.922 14.2555 104.097 14.2239C104.201 14.2047 104.312 14.2006 104.419 14.1896C104.526 14.1786 104.635 14.1676 104.742 14.1566C104.814 14.1498 104.888 14.1456 104.958 14.1333C105.086 14.1127 105.149 14.18 105.241 14.2102C105.271 14.2198 105.306 14.2363 105.335 14.2335C105.55 14.2143 105.768 14.1978 105.98 14.1662C106.143 14.1415 106.255 14.1827 106.37 14.2404C106.394 14.2528 106.435 14.2596 106.466 14.2569C106.719 14.2335 106.969 14.2047 107.22 14.18C107.288 14.1731 107.353 14.1951 107.408 14.2308C107.464 14.2679 107.527 14.2857 107.597 14.2789C107.848 14.2541 108.101 14.2267 108.351 14.2019C108.382 14.1992 108.419 14.2102 108.447 14.2212C108.691 14.3063 108.692 14.3077 108.835 14.2912C108.87 14.2871 108.907 14.2843 108.942 14.2802C109.121 14.261 109.306 14.2541 109.481 14.2212C109.681 14.1841 109.827 14.2308 109.969 14.3091C110.148 14.2926 110.331 14.283 110.505 14.2555C110.636 14.2349 110.706 14.2871 110.793 14.3214C110.823 14.3338 110.856 14.3585 110.882 14.3558C111.135 14.3324 111.388 14.3118 111.636 14.2775C111.771 14.2583 111.83 14.3201 111.922 14.3516C111.952 14.3626 111.985 14.3819 112.013 14.3791C112.157 14.3681 112.301 14.3516 112.445 14.3365C112.613 14.3187 112.613 14.3201 112.835 14.4038C112.94 14.4437 113.044 14.4121 113.147 14.4025C113.256 14.3915 113.358 14.3832 113.446 14.4395C113.5 14.4752 113.565 14.4972 113.633 14.4917C113.777 14.4794 113.923 14.467 114.065 14.4464C114.178 14.4299 114.276 14.4409 114.359 14.4917C114.418 14.5274 114.479 14.5453 114.551 14.5371C114.873 14.5041 115.198 14.4698 115.521 14.4382C115.549 14.4354 115.588 14.4478 115.614 14.4601C115.675 14.4849 115.734 14.5123 115.793 14.5398C115.935 14.5274 116.081 14.522 116.22 14.5027C116.369 14.4835 116.504 14.4766 116.619 14.5522C116.643 14.5686 116.678 14.592 116.706 14.5906C116.815 14.5851 116.922 14.5714 117.029 14.5604C117.136 14.5494 117.245 14.5384 117.352 14.5274C117.476 14.5618 117.554 14.6607 117.729 14.6291C117.833 14.6098 117.945 14.6057 118.051 14.5947C118.158 14.5837 118.267 14.5714 118.374 14.5618C118.409 14.559 118.448 14.5522 118.479 14.5576C118.511 14.5631 118.54 14.5824 118.568 14.5961C118.655 14.6359 118.736 14.6758 118.86 14.6524C118.965 14.6332 119.076 14.6291 119.183 14.6167C119.329 14.6016 119.329 14.6016 119.571 14.6881C119.669 14.7238 119.78 14.6771 119.874 14.7074C119.937 14.728 119.991 14.7623 120.052 14.7856C120.079 14.7952 120.12 14.7994 120.15 14.7966C120.294 14.7843 120.44 14.7719 120.582 14.7513C120.698 14.7348 120.794 14.7513 120.874 14.8007C120.933 14.8364 120.992 14.8516 121.066 14.8433C121.426 14.8049 121.785 14.7719 122.143 14.7293C122.265 14.7142 122.363 14.7376 122.43 14.787C122.546 14.8722 122.71 14.7719 122.829 14.8406C122.904 14.8831 122.978 14.9326 123.113 14.912C123.361 14.8763 123.614 14.857 123.865 14.8323C123.954 14.8694 124.044 14.9065 124.135 14.9436C124.279 14.9285 124.423 14.9134 124.567 14.8996C124.673 14.8886 124.782 14.8763 124.889 14.8667C124.924 14.8639 124.961 14.8584 124.994 14.8653C125.027 14.8722 125.053 14.89 125.083 14.9037C125.234 14.971 125.234 14.9724 125.482 14.945C125.589 14.9326 125.691 14.9244 125.781 14.9793C125.864 15.0301 125.962 15.0397 126.075 15.0246C126.289 14.9971 126.505 14.9765 126.722 14.9573C126.79 14.9504 126.853 14.9738 126.91 15.0095C126.995 15.0658 127.1 15.0603 127.206 15.0452C127.348 15.026 127.488 15.0068 127.607 15.0837C127.631 15.1001 127.668 15.1235 127.695 15.1221C127.873 15.1111 128.054 15.1029 128.229 15.0768C128.403 15.0507 128.488 15.1358 128.608 15.177C128.787 15.1592 128.968 15.1413 129.146 15.1235C129.181 15.1194 129.223 15.107 129.253 15.1139C129.382 15.1427 129.456 15.2457 129.632 15.2141C129.735 15.1963 129.846 15.1908 129.953 15.1867C129.981 15.1853 130.018 15.2086 130.038 15.2265C130.049 15.2361 130.038 15.2622 130.025 15.2759C129.986 15.3144 129.938 15.3501 129.903 15.3899C129.898 15.3954 129.94 15.4201 129.964 15.4311C130.023 15.4558 130.09 15.4517 130.169 15.4407C130.236 15.4311 130.306 15.4504 130.354 15.4916C130.374 15.508 130.367 15.5355 130.326 15.6261C130.326 15.6934 130.371 15.6632 130.387 15.6193C130.411 15.5561 130.365 15.5355 130.278 15.5698C130.217 15.5946 130.186 15.6303 130.201 15.6591C130.21 15.6742 130.251 15.6934 130.326 15.6261C130.517 15.5437 130.661 15.5286 130.805 15.5135C130.842 15.5094 130.886 15.4957 130.912 15.5039C131.006 15.5369 131.093 15.5767 131.184 15.6138C131.289 15.6056 131.387 15.5849 131.49 15.6385C131.633 15.714 131.64 15.7072 131.78 15.6921C131.851 15.6838 131.923 15.677 131.995 15.6701C132.067 15.6632 132.124 15.6838 132.187 15.7154C132.316 15.78 132.327 15.78 132.412 15.6921C132.462 15.6385 132.497 15.6207 132.56 15.6454C132.769 15.7292 132.771 15.7346 132.95 15.7099C133.098 15.6893 133.238 15.6838 133.347 15.7621C133.421 15.817 133.445 15.8047 133.504 15.747C133.661 15.5946 133.733 15.5973 134.027 15.7072C134.164 15.7594 134.306 15.7031 134.445 15.6962C134.563 15.6907 134.646 15.7237 134.655 15.8102C134.661 15.8637 134.681 15.9022 134.759 15.9201C134.79 15.9269 134.827 15.9365 134.857 15.9338C135.038 15.9173 135.217 15.8981 135.398 15.8788C135.489 15.8692 135.54 15.8047 135.522 15.7195C135.503 15.6289 135.537 15.5959 135.668 15.5698C135.747 15.5547 135.81 15.5575 135.873 15.5822C135.943 15.6097 135.923 15.6344 135.862 15.6838C135.716 15.8047 135.734 15.8788 135.921 15.9626C135.986 15.9915 136.039 16.0176 136.054 16.0601C136.063 16.0821 136.054 16.111 136.074 16.1274C136.18 16.2195 136.329 16.2785 136.494 16.3225C136.653 16.2854 136.762 16.3472 136.884 16.3966C136.98 16.4351 137.094 16.4021 137.196 16.3884C137.312 16.3733 137.408 16.3843 137.49 16.4351C137.549 16.4708 137.61 16.4873 137.682 16.4804C137.826 16.4653 137.972 16.4557 138.114 16.4337C138.236 16.4145 138.327 16.4419 138.404 16.4886C138.5 16.5477 138.607 16.5079 138.707 16.5161C138.842 16.5257 138.91 16.6479 139.086 16.615C139.191 16.5958 139.3 16.5889 139.409 16.5834C139.437 16.582 139.472 16.6054 139.496 16.6219C139.611 16.6974 139.747 16.6933 139.895 16.6713C139.997 16.6562 140.097 16.6425 140.198 16.6946C140.363 16.7825 140.547 16.8595 140.721 16.9405C140.745 17.0037 140.727 17.0778 140.852 17.1149C140.917 17.1341 140.978 17.163 141.028 17.1946C141.089 17.2316 141.146 17.2413 141.224 17.2316C141.366 17.2124 141.514 17.2083 141.654 17.1836C141.782 17.1616 141.863 17.2069 141.942 17.2495C142.005 17.2838 142.064 17.3003 142.14 17.2756C142.218 17.2522 142.275 17.2673 142.338 17.3044C142.428 17.3552 142.434 17.3498 142.731 17.3649C142.761 17.3662 142.798 17.3868 142.816 17.4047C142.824 17.4143 142.805 17.4418 142.789 17.4555C142.77 17.472 142.739 17.4912 142.711 17.4953C142.388 17.531 142.064 17.5626 141.741 17.5983C141.708 17.6024 141.673 17.6121 141.649 17.6258C141.623 17.6409 141.591 17.6615 141.591 17.6807C141.591 17.6945 141.634 17.7109 141.665 17.7206C141.761 17.7521 141.874 17.7041 141.968 17.7398C142.031 17.7631 142.083 17.7961 142.146 17.8181C142.173 17.8277 142.214 17.8263 142.247 17.8236C142.356 17.814 142.463 17.8002 142.572 17.792C142.602 17.7906 142.637 17.8043 142.665 17.8153C142.874 17.8977 142.874 17.8977 143.055 17.8799C143.127 17.873 143.204 17.8524 143.271 17.8606C143.337 17.8689 143.393 17.906 143.452 17.9293C143.574 17.9788 143.69 18.0268 143.698 18.134C143.703 18.1752 143.775 18.2109 143.847 18.2136C143.916 18.2163 143.99 18.2013 144.062 18.193C144.232 18.1765 144.232 18.1765 144.453 18.2603C144.514 18.2837 144.579 18.2864 144.657 18.2727C144.688 18.2672 144.725 18.2727 144.758 18.2795C144.865 18.3001 144.865 18.3262 144.795 18.3757C144.697 18.4485 144.705 18.4553 144.98 18.5171C145.085 18.5405 145.165 18.5844 145.253 18.6229C145.394 18.6847 145.392 18.6847 145.298 18.7657C145.277 18.7836 145.257 18.8028 145.235 18.822C145.172 18.8756 145.122 18.9333 144.991 18.9388C144.847 18.9442 144.703 18.9662 144.559 18.9813C144.42 18.9964 144.383 19.0294 144.396 19.1228C144.411 19.2354 144.44 19.2478 144.69 19.2464C144.762 19.2464 144.825 19.2574 144.88 19.2945C144.854 19.3384 144.806 19.3727 144.736 19.381C144.557 19.4016 144.376 19.4194 144.198 19.4373C144.054 19.4524 143.91 19.4675 143.766 19.4826C143.677 19.4922 143.62 19.5636 143.644 19.6433C143.657 19.6886 143.668 19.7339 143.679 19.7793C143.703 19.8699 143.749 19.8933 143.895 19.8891C143.932 19.8878 143.967 19.8768 144.001 19.8795C144.143 19.8891 144.211 20.0031 144.381 19.9798C144.522 19.9605 144.671 19.9564 144.81 19.9317C144.939 19.9097 145.011 19.9592 145.1 19.9963C145.131 20.0086 145.163 20.0347 145.189 20.0333C145.37 20.0182 145.551 20.0031 145.728 19.977C145.811 19.9661 145.861 19.9743 145.926 20.0073C146.083 20.0869 146.087 20.0828 146.321 20.0581C146.491 20.0388 146.493 20.0416 146.711 20.1254C146.772 20.1487 146.837 20.1487 146.916 20.1377C147.018 20.124 147.125 20.102 147.232 20.1226C147.264 20.1281 147.306 20.1446 147.317 20.1624C147.323 20.1748 147.293 20.205 147.267 20.2146C147.075 20.286 146.85 20.2737 146.641 20.3025C146.576 20.3108 146.51 20.2847 146.456 20.2476C146.399 20.2105 146.338 20.1954 146.264 20.2023C146.12 20.2174 145.974 20.227 145.832 20.249C145.71 20.2682 145.625 20.2366 145.54 20.194C145.512 20.1803 145.479 20.1542 145.451 20.1556C145.128 20.183 144.804 20.2105 144.483 20.249C144.355 20.2654 144.28 20.2215 144.193 20.1844C144.163 20.1721 144.132 20.146 144.104 20.1473C143.995 20.1528 143.888 20.1679 143.779 20.1789C143.382 20.2201 142.988 20.2613 142.591 20.2998C142.565 20.3025 142.532 20.2737 142.502 20.2613C142.443 20.2366 142.382 20.2133 142.321 20.1899C142.212 20.2009 142.105 20.2146 141.996 20.2229C141.918 20.2284 141.848 20.2476 141.837 20.2998C141.83 20.3341 141.902 20.3657 141.979 20.363C142.053 20.3602 142.127 20.3437 142.188 20.3616C142.491 20.4495 142.491 20.4509 142.68 20.433C142.846 20.4165 142.829 20.4028 142.975 20.4783C143.038 20.5113 143.095 20.5305 143.167 20.5223C143.345 20.503 143.526 20.4838 143.707 20.4673C143.735 20.4646 143.773 20.4783 143.801 20.4893C144.014 20.5717 144.014 20.5745 144.191 20.5539C144.422 20.5291 144.431 20.5223 144.586 20.606C144.692 20.6637 144.79 20.6239 144.893 20.6211C145.011 20.6747 145.139 20.7228 145.246 20.7832C145.372 20.8546 145.505 20.8423 145.649 20.8217C145.756 20.8066 145.861 20.8011 145.948 20.8574C146.031 20.9096 146.131 20.9151 146.244 20.9013C146.347 20.889 146.451 20.8629 146.558 20.8931C146.587 20.9013 146.63 20.9219 146.628 20.9343C146.626 20.9535 146.597 20.981 146.569 20.9892C146.369 21.0455 146.148 21.0442 145.937 21.0702C145.909 21.0744 145.872 21.0593 145.843 21.0483C145.782 21.0235 145.723 20.9947 145.665 20.9686C145.558 20.9769 145.449 20.9796 145.344 20.9961C145.264 21.0084 145.202 21.0071 145.144 20.9741C145.089 20.9439 145.03 20.9068 144.965 20.8972C144.899 20.8876 144.823 20.9082 144.751 20.9164C144.679 20.9247 144.596 20.9205 144.54 20.9425C144.483 20.9645 144.448 21.0126 144.411 21.051C144.37 21.0936 144.313 21.1073 144.23 21.1115C144.154 21.1156 144.093 21.1101 144.036 21.0716C144.012 21.0551 143.98 21.0428 143.947 21.0318C143.916 21.0222 143.882 21.0071 143.853 21.0098C143.528 21.0414 143.206 21.0757 142.881 21.1087C142.72 21.1252 142.722 21.1252 142.386 21.0441C142.356 21.0373 142.319 21.0277 142.288 21.0304C142.107 21.0469 141.928 21.0661 141.748 21.0854C141.564 21.1046 141.567 21.1018 141.255 21.0153C141.198 20.9988 141.115 21.0208 141.048 21.0181C140.906 21.0112 140.836 20.8958 140.671 20.9178C140.529 20.937 140.381 20.9411 140.239 20.9659C140.111 20.9878 140.036 20.9398 139.949 20.9027C139.919 20.8903 139.886 20.8629 139.86 20.8656C139.535 20.8958 139.212 20.9302 138.781 20.9343C138.674 20.9343 138.722 20.9631 138.792 20.9727C138.892 20.9879 138.925 20.959 138.87 20.9041C138.831 20.8656 138.774 20.8464 138.729 20.856C138.705 20.8615 138.674 20.8876 138.781 20.9343C138.894 20.9865 138.888 21.0153 138.907 21.0318C138.955 21.0716 139.023 21.0881 139.093 21.0826C139.202 21.073 139.308 21.0593 139.417 21.051C139.448 21.0483 139.485 21.0579 139.513 21.0689C139.753 21.154 139.755 21.1595 140.01 21.1266C140.091 21.1169 140.15 21.1169 140.213 21.143C140.3 21.1788 140.363 21.2392 140.496 21.2199C140.673 21.1938 140.854 21.1788 141.035 21.1636C141.063 21.1609 141.094 21.1856 141.126 21.1966C141.216 21.2296 141.281 21.2914 141.414 21.2653C141.516 21.2447 141.628 21.2392 141.737 21.235C141.765 21.2337 141.809 21.2557 141.822 21.2735C141.848 21.3051 141.815 21.3422 141.741 21.3683C141.71 21.3793 141.669 21.3765 141.634 21.3806C141.49 21.3957 141.346 21.4122 141.203 21.4246C141.126 21.4314 141.054 21.4521 141.046 21.5029C141.039 21.5372 141.118 21.5674 141.192 21.5647C141.301 21.5605 141.41 21.5496 141.514 21.5317C141.7 21.5015 141.861 21.5097 142.011 21.5962C142.118 21.6567 142.112 21.6347 142.225 21.8133C142.253 21.8586 142.338 21.8627 142.412 21.8599C142.591 21.8531 142.674 21.8737 142.659 21.9163C142.639 21.9684 142.576 21.9849 142.495 21.9918C142.351 22.0028 142.207 22.0206 142.064 22.0357C142.029 22.0399 141.989 22.0481 141.957 22.0453C141.924 22.0426 141.894 22.0261 141.865 22.0138C141.804 21.9877 141.752 21.9478 141.687 21.9382C141.621 21.9286 141.545 21.9492 141.473 21.9575C141.401 21.9643 141.325 21.9849 141.259 21.9753C141.194 21.9657 141.139 21.9245 141.081 21.8998C141.052 21.8874 141.017 21.8682 140.989 21.8696C140.845 21.8805 140.701 21.8984 140.557 21.9121C140.381 21.93 140.381 21.93 140.167 21.8448C140.106 21.8201 140.043 21.8215 139.962 21.8325C139.788 21.8545 139.786 21.8503 139.468 21.7707C139.437 21.7624 139.4 21.7528 139.369 21.7569C139.045 21.7885 138.722 21.8229 138.399 21.8558C138.123 21.8847 138.123 21.8847 137.97 22.022C137.857 22.1236 137.854 22.1236 137.966 22.1703C138.055 22.2088 138.136 22.2651 138.234 22.2857C138.325 22.3049 138.439 22.2431 138.539 22.3063C138.589 22.3379 138.654 22.3722 138.718 22.3777C138.818 22.3846 138.925 22.3447 139.021 22.4052C139.069 22.4354 139.141 22.467 139.202 22.4684C139.308 22.4711 139.417 22.4491 139.524 22.4395C139.557 22.4368 139.594 22.4368 139.624 22.4436C139.657 22.4519 139.685 22.4684 139.714 22.4821C139.801 22.5288 139.895 22.5508 140.008 22.5274C140.193 22.489 140.359 22.5082 140.503 22.5961C140.523 22.6084 140.57 22.6098 140.601 22.6043C140.679 22.5906 140.747 22.5892 140.806 22.6153C140.83 22.6263 140.865 22.6455 140.86 22.6579C140.854 22.6785 140.828 22.7059 140.799 22.7128C140.594 22.7595 140.374 22.765 140.163 22.7897C140.135 22.7925 140.1 22.7746 140.071 22.7623C140.01 22.7375 139.958 22.6963 139.893 22.6867C139.827 22.6771 139.751 22.695 139.679 22.7018C139.607 22.7087 139.531 22.7293 139.465 22.7211C139.4 22.7114 139.339 22.6771 139.287 22.6469C139.226 22.6126 139.167 22.6084 139.086 22.6222C138.981 22.64 138.872 22.6428 138.766 22.6524C138.707 22.6263 138.648 22.5974 138.587 22.5727C138.559 22.5604 138.524 22.5453 138.493 22.5466C138.349 22.5576 138.205 22.5741 138.062 22.5892C137.918 22.6043 137.918 22.6043 137.674 22.5192C137.645 22.5096 137.608 22.4986 137.578 22.5013C137.397 22.5178 137.218 22.5384 137.037 22.5549C136.967 22.5617 136.904 22.5425 136.847 22.5054C136.793 22.4683 136.728 22.4477 136.66 22.4546C136.372 22.4835 136.085 22.5109 135.797 22.5453C135.681 22.559 135.583 22.5466 135.505 22.4972C135.413 22.4409 135.311 22.4546 135.204 22.4656C134.962 22.4931 134.96 22.4917 134.805 22.4217C134.774 22.4079 134.744 22.3818 134.716 22.3832C134.465 22.4038 134.212 22.423 133.964 22.456C133.833 22.4738 133.763 22.4258 133.676 22.3901C133.645 22.3777 133.613 22.3516 133.587 22.3544C133.406 22.3695 133.225 22.3832 133.048 22.4107C132.872 22.4381 132.804 22.3104 132.671 22.3118C132.49 22.3132 132.311 22.3448 132.133 22.364C131.989 22.3791 131.845 22.3942 131.701 22.4093C131.557 22.4244 131.413 22.4368 131.269 22.4546C131.193 22.4642 131.136 22.4519 131.073 22.4175C130.993 22.3722 130.897 22.3365 130.81 22.2953C130.677 22.2363 130.677 22.2363 130.515 22.2527C130.48 22.2569 130.443 22.2596 130.408 22.2637C130.145 22.2939 130.145 22.2912 129.809 22.2047C129.794 22.2005 129.755 22.2157 129.739 22.2266C129.693 22.2624 129.652 22.3008 129.611 22.3379C129.552 22.3159 129.48 22.3035 129.441 22.272C129.329 22.1827 129.155 22.3049 129.042 22.217C129 22.1841 128.928 22.1552 128.863 22.147C128.795 22.1387 128.719 22.158 128.649 22.1662C128.468 22.1868 128.468 22.1854 128.314 22.3077C128.235 22.3681 128.122 22.3571 128.019 22.3708C127.913 22.3859 127.81 22.3942 127.721 22.3379C127.64 22.2871 127.542 22.2747 127.427 22.2912C127.285 22.3118 127.139 22.3241 126.995 22.3365C126.964 22.3393 126.927 22.3324 126.897 22.3242C126.563 22.2431 126.563 22.2418 126.402 22.2596C126.33 22.2678 126.256 22.2706 126.186 22.2829C126.069 22.3049 125.979 22.2761 125.894 22.2321C125.866 22.2184 125.833 22.1923 125.805 22.1937C125.661 22.2006 125.519 22.2129 125.378 22.2253C125.269 22.2349 125.16 22.2404 125.055 22.2596C124.881 22.2912 124.796 22.2019 124.676 22.1607C124.497 22.1786 124.316 22.1909 124.137 22.2156C124.054 22.2266 124 22.2225 123.937 22.1896C123.856 22.1484 123.782 22.1017 123.651 22.1223C123.477 22.1497 123.294 22.1594 123.115 22.1758C122.995 22.1333 122.908 22.0467 122.736 22.0783C122.631 22.0975 122.52 22.1017 122.413 22.1126C122.269 22.1278 122.125 22.1415 121.982 22.158C121.827 22.1745 121.829 22.1703 121.591 22.0893C121.454 22.0412 121.312 22.0948 121.173 22.103C121.064 22.1099 121.009 22.1731 121.035 22.2541C121.062 22.3351 121.003 22.3983 120.902 22.4093C120.652 22.4354 120.399 22.4629 120.148 22.4862C120.118 22.4889 120.081 22.4793 120.052 22.4697C119.784 22.3832 119.784 22.3846 119.664 22.3969C119.486 22.4175 119.303 22.4285 119.126 22.4546C119.004 22.4725 118.915 22.4436 118.836 22.3969C118.775 22.3612 118.718 22.353 118.64 22.3612C117.777 22.4533 116.914 22.5384 116.053 22.6332C115.924 22.6469 115.85 22.6071 115.763 22.57C115.732 22.5576 115.704 22.5315 115.673 22.5315C115.601 22.5315 115.529 22.5439 115.457 22.5521C115.135 22.5851 114.812 22.6249 114.487 22.6496C114.35 22.6606 114.313 22.7238 114.254 22.776C114.208 22.8158 114.156 22.8323 114.076 22.8378C113.997 22.8433 113.94 22.8364 113.879 22.8007C113.801 22.754 113.712 22.7252 113.589 22.7444C113.448 22.7664 113.304 22.776 113.158 22.7911C113.084 22.798 113.027 22.8227 113.003 22.8721C112.999 22.8804 113.044 22.901 113.071 22.9133C113.158 22.9545 113.241 23.0026 113.339 23.0314C113.439 23.0603 113.548 23.0273 113.653 23.0191C113.69 23.0163 113.725 23.0081 113.759 23.0095C113.792 23.0108 113.831 23.0177 113.855 23.0301C113.969 23.0919 114.089 23.1344 114.245 23.0974C114.381 23.1152 114.45 23.2292 114.623 23.199C114.727 23.1811 114.836 23.1729 114.945 23.166C114.974 23.1647 115.004 23.1894 115.035 23.2017C115.122 23.2361 115.192 23.291 115.322 23.2677C115.462 23.2429 115.61 23.2388 115.752 23.2196C115.83 23.2086 115.887 23.2182 115.948 23.2539C116.026 23.2993 116.116 23.3336 116.238 23.3116C116.342 23.2924 116.454 23.2883 116.56 23.2759C116.7 23.2608 116.7 23.2622 116.948 23.3473C116.977 23.3569 117.014 23.3679 117.044 23.3652C117.225 23.3487 117.404 23.3281 117.585 23.3116C117.655 23.3047 117.722 23.3226 117.77 23.3624C117.79 23.3789 117.783 23.4064 117.79 23.4297C117.43 23.4668 117.07 23.4984 116.713 23.5437C116.578 23.5616 116.517 23.5053 116.427 23.4737C116.397 23.4627 116.364 23.4393 116.336 23.4421C116.083 23.4654 115.832 23.4901 115.582 23.5204C115.503 23.53 115.444 23.5245 115.386 23.4847C115.235 23.3789 115.052 23.4366 114.882 23.4517C114.751 23.4627 114.71 23.5053 114.725 23.5959C114.745 23.703 114.823 23.736 115.024 23.7168C115.096 23.7099 115.168 23.7003 115.239 23.6948C115.309 23.6893 115.372 23.7071 115.429 23.7442C115.484 23.7813 115.549 23.8005 115.617 23.795C115.76 23.7827 115.906 23.7703 116.046 23.7497C116.162 23.7332 116.257 23.747 116.338 23.7978C116.427 23.8541 116.532 23.8417 116.637 23.8294C116.881 23.8019 116.883 23.8033 117.036 23.872C117.066 23.8857 117.097 23.9118 117.125 23.9104C117.376 23.8898 117.629 23.872 117.875 23.839C118.003 23.8225 118.078 23.8665 118.163 23.9022C118.193 23.9145 118.224 23.942 118.252 23.9393C118.433 23.9241 118.614 23.909 118.79 23.8829C118.873 23.8706 118.923 23.8788 118.991 23.9118C119.152 23.9928 119.157 23.9901 119.385 23.964C119.455 23.9557 119.531 23.9406 119.597 23.9516C119.662 23.9626 119.715 24.0024 119.776 24.0272C119.804 24.0381 119.839 24.0532 119.869 24.0505C120.013 24.0395 120.157 24.023 120.301 24.0079C120.436 23.9928 120.436 23.9942 120.689 24.0793C120.791 24.115 120.898 24.0848 121.001 24.0738C121.112 24.0615 121.212 24.0615 121.297 24.1151C121.382 24.1686 121.485 24.1659 121.594 24.1549C121.696 24.1439 121.801 24.1137 121.905 24.1508C122.145 24.2359 122.145 24.2373 122.293 24.2208C122.509 24.1974 122.723 24.1755 122.941 24.1549C122.969 24.1521 123.006 24.1686 123.034 24.1796C123.095 24.2043 123.148 24.2455 123.213 24.2551C123.278 24.2661 123.355 24.2496 123.424 24.2414C123.649 24.2153 123.664 24.2057 123.815 24.2963C123.941 24.3705 124.098 24.2634 124.216 24.3485C124.283 24.3966 124.375 24.435 124.501 24.4117C124.606 24.3925 124.715 24.387 124.824 24.376C124.996 24.3581 124.996 24.3595 125.214 24.4419C125.242 24.4529 125.279 24.4666 125.308 24.4639C125.452 24.4529 125.598 24.4433 125.737 24.4186C125.901 24.3897 126.005 24.4419 126.127 24.4927C126.223 24.5326 126.337 24.4996 126.439 24.4859C126.55 24.4721 126.651 24.4762 126.733 24.5298C126.821 24.5847 126.923 24.5779 127.032 24.5669C127.134 24.5573 127.239 24.5257 127.344 24.5641C127.568 24.6493 127.568 24.6493 127.732 24.6328C127.876 24.6177 128.019 24.6012 128.163 24.5902C128.192 24.5875 128.226 24.6053 128.255 24.6177C128.316 24.6424 128.368 24.6836 128.434 24.6932C128.499 24.7029 128.575 24.685 128.647 24.6781C128.719 24.6713 128.795 24.6507 128.861 24.6589C128.926 24.6671 128.987 24.7015 129.04 24.7317C129.101 24.7674 129.157 24.7715 129.24 24.7578C129.345 24.7399 129.454 24.7358 129.56 24.7262C129.619 24.7523 129.68 24.7784 129.737 24.8072C129.796 24.8374 129.859 24.8347 129.94 24.8251C130.208 24.7921 130.21 24.7962 130.435 24.8814C130.537 24.9198 130.644 24.8883 130.746 24.8786C130.855 24.8677 130.958 24.8622 131.043 24.9171C131.126 24.9693 131.228 24.9761 131.337 24.9597C131.407 24.9487 131.481 24.9418 131.553 24.9377C131.586 24.9363 131.625 24.9418 131.649 24.9528C131.764 25.0105 131.878 25.0627 132.037 25.0256C132.176 25.0366 132.246 25.1492 132.414 25.1272C132.555 25.108 132.704 25.1039 132.843 25.0792C132.972 25.0572 133.063 25.0956 133.129 25.1437C133.246 25.2289 133.412 25.1135 133.53 25.1973C133.597 25.2453 133.685 25.2838 133.815 25.2632C133.959 25.2412 134.005 25.2701 134.046 25.3566C134.07 25.406 134.066 25.4459 134.022 25.4843C133.979 25.5241 133.931 25.5173 133.861 25.472C133.781 25.4211 133.685 25.4115 133.569 25.4225C133.456 25.4335 133.386 25.3621 133.292 25.3346C133.199 25.3058 133.087 25.3538 132.989 25.3168C132.758 25.2302 132.758 25.2302 132.601 25.2467C132.494 25.2577 132.383 25.2632 132.279 25.2824C132.154 25.3058 132.074 25.2632 131.989 25.2247C131.958 25.211 131.928 25.1849 131.902 25.1863C131.651 25.2069 131.398 25.2261 131.15 25.2604C131.019 25.2783 130.949 25.2289 130.862 25.1945C130.831 25.1822 130.799 25.1574 130.772 25.1602C130.557 25.1794 130.343 25.2041 130.127 25.2275C130.086 25.2646 130.04 25.3003 130.001 25.3401C129.959 25.3813 129.903 25.3992 129.82 25.3978C129.683 25.3978 129.547 25.4555 129.41 25.3827C129.268 25.3085 129.258 25.3126 129.12 25.3305C128.946 25.3538 128.761 25.3483 128.597 25.4019C128.569 25.4115 128.538 25.4376 128.538 25.4568C128.536 25.4692 128.582 25.4871 128.61 25.498C128.706 25.531 128.817 25.4829 128.913 25.5173C128.976 25.5392 129.029 25.5722 129.092 25.5955C129.118 25.6052 129.157 25.6038 129.192 25.6024C129.229 25.601 129.264 25.5914 129.299 25.5928C129.332 25.5942 129.367 25.6024 129.393 25.6148C129.513 25.667 129.639 25.715 129.746 25.7768C129.85 25.8373 129.948 25.7961 130.053 25.7933C130.472 25.8895 130.472 25.8908 130.753 25.8606C130.823 25.8538 130.895 25.8455 130.966 25.8469C130.997 25.8469 131.025 25.8716 131.056 25.8853C131.143 25.9265 131.226 25.9636 131.348 25.9416C131.453 25.9224 131.564 25.9183 131.671 25.9059C131.814 25.8908 131.814 25.8908 132.059 25.9774C132.12 25.9993 132.185 25.9966 132.263 25.9856C132.331 25.976 132.401 25.9966 132.449 26.0364C132.468 26.0529 132.462 26.0804 132.468 26.1037C132.253 26.1257 132.035 26.1408 131.825 26.1738C131.69 26.1944 131.629 26.1353 131.54 26.1037C131.509 26.0927 131.477 26.0694 131.448 26.0721C131.235 26.0927 131.021 26.1161 130.807 26.1435C130.781 26.1463 130.748 26.1779 130.746 26.1971C130.742 26.2328 130.796 26.2671 130.875 26.2658C130.98 26.2644 131.082 26.241 131.176 26.2973C131.254 26.3468 131.352 26.3688 131.468 26.3468C131.538 26.3344 131.612 26.3344 131.681 26.3234C131.867 26.2905 132.035 26.2974 132.174 26.3907C132.281 26.4155 132.385 26.3921 132.488 26.3798C132.564 26.3701 132.638 26.3605 132.693 26.3866C132.808 26.4416 132.922 26.4965 133.081 26.4594C133.253 26.4979 133.384 26.5789 133.528 26.6448C133.595 26.6764 133.648 26.6943 133.726 26.6737C133.759 26.6654 133.798 26.6654 133.833 26.6613C133.905 26.6544 133.981 26.6338 134.046 26.6421C134.112 26.6517 134.166 26.6915 134.225 26.7162C134.254 26.7286 134.286 26.7492 134.315 26.7478C134.424 26.741 134.53 26.7272 134.637 26.7162C134.744 26.7066 134.851 26.697 134.958 26.6874C135.047 26.7231 135.138 26.7588 135.228 26.7945C135.372 26.7794 135.516 26.7643 135.657 26.7506C135.816 26.7341 135.816 26.7355 136.045 26.8206C136.148 26.8591 136.257 26.8343 136.355 26.8165C136.518 26.7876 136.627 26.8398 136.743 26.8948C136.767 26.9058 136.81 26.9126 136.839 26.9071C136.952 26.8879 137.05 26.903 137.133 26.9538C137.192 26.9895 137.251 27.006 137.323 26.9992C137.573 26.9731 137.824 26.9456 138.075 26.9222C138.105 26.9195 138.14 26.9319 138.168 26.9428C138.391 27.0266 138.393 27.0307 138.556 27.0088C138.702 26.9895 138.838 26.9813 138.953 27.0568C138.977 27.0733 139.014 27.0967 139.04 27.0953C139.219 27.0816 139.4 27.0664 139.577 27.0431C139.657 27.0321 139.714 27.0362 139.777 27.0678C139.858 27.1077 139.93 27.1557 140.063 27.1379C140.431 27.0871 140.433 27.0953 140.869 27.19C140.9 27.1969 140.941 27.1859 140.976 27.1804C141.05 27.1667 141.104 27.1859 141.17 27.2175C141.316 27.2889 141.32 27.2848 141.46 27.2697C141.567 27.2574 141.678 27.2546 141.782 27.234C141.944 27.2038 142.051 27.2574 142.17 27.3082C142.266 27.348 142.377 27.315 142.48 27.3027C142.591 27.2889 142.691 27.293 142.774 27.3452C142.831 27.3809 142.892 27.4002 142.964 27.3933C143.214 27.3686 143.465 27.3411 143.716 27.3164C143.746 27.3137 143.783 27.3246 143.812 27.3343C144.06 27.4194 144.06 27.4235 144.307 27.3919C144.385 27.3823 144.45 27.3796 144.509 27.4084C144.566 27.4359 144.627 27.462 144.686 27.4881C144.793 27.4785 144.902 27.4757 145.006 27.4592C145.087 27.4469 145.144 27.4524 145.207 27.4812C145.29 27.5183 145.359 27.5828 145.49 27.5512C145.558 27.5361 145.636 27.5403 145.704 27.5265C145.784 27.5087 145.839 27.5197 145.902 27.5554C145.981 27.5979 146.061 27.6419 146.188 27.6199C146.327 27.5952 146.475 27.5911 146.617 27.5719C146.696 27.5609 146.75 27.5719 146.813 27.6076C146.892 27.6529 146.981 27.6817 147.103 27.6639C147.352 27.6295 147.354 27.6364 147.596 27.7229C147.657 27.7449 147.722 27.7422 147.801 27.7312C147.868 27.7216 147.938 27.7422 147.986 27.782C148.032 27.8259 148.027 27.8534 148.032 27.8767ZM128.608 15.4902C128.536 15.4971 128.464 15.5053 128.359 15.3858C128.353 15.3652 128.357 15.3405 128.342 15.3226C128.307 15.2856 128.253 15.2595 128.187 15.2553C128.07 15.2498 127.928 15.2965 127.93 15.3322C127.932 15.3625 127.969 15.3885 128.041 15.4133C128.072 15.4229 128.096 15.4394 128.124 15.4503C128.207 15.4819 128.272 15.5438 128.392 15.5122C128.37 15.427 128.381 15.4696 128.392 15.5122C128.381 15.5644 128.414 15.6014 128.492 15.6165C128.514 15.6207 128.547 15.6179 128.564 15.6097C128.632 15.5795 128.643 15.5383 128.593 15.4298C128.584 15.4476 128.591 15.4792 128.61 15.4874C128.63 15.4957 128.678 15.4888 128.702 15.4792C128.763 15.4531 128.793 15.4188 128.778 15.3899C128.769 15.3748 128.728 15.3556 128.702 15.3556C128.656 15.3556 128.614 15.3858 128.608 15.4902ZM146.233 31.4173C146.074 31.4434 145.891 31.4338 145.732 31.4874C145.704 31.497 145.675 31.5217 145.673 31.5409C145.671 31.5533 145.715 31.5712 145.741 31.5808C145.8 31.6027 145.865 31.5959 145.941 31.589C146.057 31.5794 146.124 31.6426 146.214 31.6742C146.242 31.6838 146.279 31.6906 146.31 31.6879C146.486 31.6714 146.661 31.6536 146.837 31.6343C146.868 31.6302 146.9 31.6206 146.927 31.6082C147.014 31.5684 147.005 31.5423 146.92 31.5121C146.826 31.4791 146.752 31.4242 146.656 31.3981C146.519 31.361 146.38 31.4105 146.233 31.4173ZM133.855 32.4199C133.748 32.4309 133.643 32.4419 133.536 32.4529C133.501 32.457 133.464 32.4584 133.432 32.4639C133.364 32.4735 133.314 32.5023 133.281 32.5476C133.331 32.5833 133.393 32.6039 133.46 32.5998C133.567 32.5916 133.672 32.5737 133.778 32.5696C133.894 32.5641 133.961 32.6259 134.051 32.6575C134.079 32.6671 134.114 32.6685 134.147 32.6699C134.308 32.6754 134.406 32.6039 134.376 32.5037C134.354 32.4254 134.271 32.3787 134.171 32.3883C134.066 32.3979 133.959 32.4089 133.855 32.4199ZM146.979 29.3875C147.005 29.3641 147.033 29.3476 147.047 29.327C147.086 29.257 147.07 29.2048 146.999 29.1499C146.911 29.0826 146.805 29.1279 146.706 29.1348C146.683 29.1361 146.656 29.165 146.643 29.1828C146.635 29.1952 146.635 29.2213 146.648 29.2282C146.754 29.2831 146.868 29.3339 146.979 29.3875ZM128.07 25.3305C127.965 25.3415 127.858 25.3497 127.754 25.3648C127.727 25.3689 127.703 25.395 127.688 25.4129C127.66 25.4459 127.69 25.4912 127.78 25.4953C127.882 25.5008 127.989 25.4774 128.096 25.4665C128.231 25.4527 128.311 25.4019 128.261 25.358C128.213 25.3154 128.148 25.3071 128.07 25.3305ZM13.3292 22.3956C13.399 22.3887 13.4709 22.3832 13.5406 22.3736C13.606 22.364 13.6562 22.3338 13.6889 22.2884C13.6344 22.2527 13.5733 22.2335 13.5058 22.2376C13.399 22.2459 13.2944 22.2569 13.1897 22.2706C13.1243 22.2788 13.0611 22.309 13.0459 22.3557C13.0306 22.3914 13.1766 22.4121 13.3292 22.3956ZM118.851 22.1841C118.88 22.1964 118.908 22.2211 118.936 22.2211C119.006 22.2211 119.078 22.2129 119.143 22.1992C119.172 22.1937 119.194 22.169 119.207 22.1497C119.215 22.1374 119.213 22.1154 119.2 22.1044C119.137 22.0385 118.884 22.0618 118.843 22.1374C118.838 22.1511 118.849 22.169 118.851 22.1841ZM111.974 14.6634C111.981 14.6854 111.983 14.7073 111.992 14.7293C112.009 14.7705 112.057 14.8007 112.127 14.8213C112.181 14.787 112.21 14.7486 112.207 14.7074C112.205 14.6854 112.199 14.6634 112.19 14.6414C112.173 14.6002 112.125 14.57 112.055 14.5494C112 14.5824 111.974 14.6208 111.974 14.6634ZM152.016 32.6589C151.997 32.6767 151.977 32.6946 151.955 32.7111C152.014 32.7509 152.069 32.7633 152.11 32.7413C152.136 32.7275 152.152 32.7069 152.171 32.6891C152.112 32.6493 152.06 32.6383 152.016 32.6589ZM150.661 32.8457C150.689 32.858 150.715 32.8745 150.746 32.8827C150.796 32.8965 150.841 32.8731 150.876 32.8237C150.848 32.8113 150.822 32.7948 150.791 32.7866C150.741 32.7729 150.695 32.7962 150.661 32.8457ZM151.519 32.5943C151.504 32.6273 151.535 32.6548 151.615 32.6781C151.635 32.6603 151.661 32.6438 151.674 32.6245C151.696 32.593 151.659 32.5641 151.58 32.5421C151.559 32.5586 151.539 32.5765 151.519 32.5943ZM146.918 31.1138C146.903 31.1468 146.933 31.1742 147.014 31.1976C147.033 31.1797 147.06 31.1633 147.073 31.144C147.094 31.1124 147.057 31.0836 146.979 31.0616C146.957 31.0781 146.938 31.096 146.918 31.1138ZM140.649 21.3957C140.629 21.4136 140.61 21.4314 140.588 21.4479C140.647 21.4878 140.701 21.5001 140.743 21.4781C140.769 21.4644 140.784 21.4438 140.804 21.426C140.745 21.3861 140.693 21.3751 140.649 21.3957ZM134.644 16.24C134.696 16.2497 134.74 16.2304 134.777 16.1796C134.748 16.1673 134.722 16.1508 134.692 16.1425C134.642 16.1288 134.596 16.1522 134.561 16.2016C134.589 16.2153 134.618 16.2277 134.644 16.24ZM131.455 15.9173C131.435 15.9352 131.415 15.953 131.394 15.9695C131.453 16.0093 131.507 16.0217 131.548 15.9997C131.575 15.986 131.59 15.9654 131.609 15.9475C131.551 15.9077 131.498 15.8981 131.455 15.9173ZM109.829 14.662C109.81 14.6799 109.79 14.6977 109.768 14.7142C109.827 14.754 109.882 14.7664 109.923 14.7444C109.949 14.7307 109.964 14.7101 109.984 14.6922C109.925 14.6524 109.873 14.6428 109.829 14.662ZM2.15139 25.8359C2.12306 25.8235 2.09475 25.8112 2.06859 25.7974C2.00538 25.8345 1.98576 25.8689 2.02064 25.895C2.04244 25.9114 2.07511 25.9211 2.10345 25.9334C2.16884 25.8963 2.18409 25.8634 2.15139 25.8359Z" fill="#FFE492"/>
<path d="M27.7974 7.38395C27.5467 7.41005 27.2982 7.443 27.0475 7.45948C26.9146 7.46772 26.8666 7.52678 26.8122 7.58171C26.7686 7.62566 26.7184 7.63939 26.6378 7.64763C25.9577 7.71493 25.2797 7.78635 24.6018 7.85639C24.5168 7.83854 24.4754 7.8097 24.495 7.77537C24.5059 7.75477 24.5321 7.72592 24.5583 7.72318C25.0225 7.67236 25.4846 7.62017 25.9511 7.58034C26.0841 7.56935 26.1211 7.50892 26.1887 7.45948C26.2105 7.443 26.228 7.41828 26.2563 7.40867C26.2846 7.39768 26.3261 7.39906 26.3631 7.39631C27.1129 7.31803 27.8628 7.24112 28.6126 7.16284C28.6976 7.1807 28.7391 7.20953 28.7194 7.24387C28.7085 7.26447 28.6824 7.29331 28.6562 7.29606C28.3685 7.3249 28.0829 7.35374 27.7974 7.38395Z" fill="#FFE492"/>
<path d="M165.044 14.6972C164.93 14.7137 164.786 14.737 164.669 14.6573C164.612 14.6189 164.551 14.6065 164.477 14.6148C164.37 14.6285 164.261 14.6395 164.152 14.6477C164.124 14.6491 164.087 14.634 164.058 14.6216C163.997 14.5969 163.945 14.5557 163.88 14.5447C163.814 14.5337 163.736 14.564 163.668 14.5571C163.579 14.5475 163.542 14.5104 163.566 14.4761C163.579 14.4568 163.605 14.4294 163.633 14.4252C164.037 14.3744 164.039 14.3744 164.152 14.4239C164.239 14.4623 164.32 14.5049 164.444 14.4815C164.549 14.4623 164.66 14.4582 164.767 14.4458C164.915 14.4294 164.915 14.4307 165.155 14.5173C165.216 14.5392 165.281 14.5379 165.36 14.5255C165.427 14.5159 165.493 14.5379 165.547 14.5749C165.512 14.6216 165.462 14.6519 165.395 14.6601C165.286 14.6738 165.179 14.6834 165.044 14.6972Z" fill="#FFE492"/>
<path d="M161.035 14.2742C161.31 14.2454 161.587 14.2207 161.861 14.1877C161.975 14.174 162.064 14.1891 162.142 14.2358C162.228 14.2866 162.323 14.2825 162.428 14.2729C162.493 14.2674 162.557 14.2893 162.6 14.3278C162.618 14.3429 162.613 14.3704 162.62 14.3924C162.38 14.4171 162.138 14.4432 161.896 14.4651C161.868 14.4679 161.833 14.4542 161.807 14.4432C161.748 14.4198 161.698 14.3786 161.635 14.3704C161.499 14.3512 161.364 14.3882 161.227 14.3951C161.162 14.3978 161.098 14.3773 161.055 14.3402C161.037 14.3223 161.042 14.2962 161.035 14.2742Z" fill="#FFE492"/>
<path d="M61.7772 2.46621C62.0628 2.436 62.3483 2.40717 62.6338 2.37695C62.7188 2.39618 62.7581 2.42364 62.7406 2.45798C62.7297 2.47858 62.7036 2.50742 62.6774 2.51017C62.1063 2.57197 61.5353 2.63102 60.9663 2.69007C60.8813 2.67084 60.8421 2.64338 60.8595 2.60905C60.8704 2.58845 60.8966 2.5596 60.9228 2.55686C61.2061 2.52527 61.4917 2.49642 61.7772 2.46621Z" fill="#FFE492"/>
<path d="M17.7719 10.0975C17.6433 10.1003 17.5082 10.1511 17.3643 10.1126C17.336 10.1058 17.2967 10.0838 17.2989 10.0714C17.3033 10.0508 17.3294 10.0247 17.3578 10.0165C17.482 9.98216 17.6368 9.97804 17.7 9.88191C17.7305 9.83246 17.7872 9.81599 17.8635 9.80638C17.9441 9.79539 18.0008 9.7995 18.064 9.82834C18.1468 9.86542 18.2166 9.93409 18.3474 9.89839C18.3539 9.92036 18.3692 9.94508 18.3626 9.96568C18.3561 9.98628 18.3278 10.0055 18.3016 10.0206C18.2776 10.0344 18.2449 10.0467 18.2144 10.0508C18.0705 10.0673 17.9267 10.0811 17.7719 10.0975Z" fill="#FFE492"/>
<path d="M131.134 9.82148C131.241 9.8105 131.352 9.805 131.457 9.78577C131.54 9.77067 131.592 9.78027 131.658 9.81323C131.769 9.87092 131.775 9.86543 132.048 9.87367C132.078 9.87505 132.115 9.89564 132.133 9.91349C132.144 9.9231 132.128 9.94921 132.115 9.96295C132.096 9.9808 132.067 10.0041 132.041 10.0041C131.869 10.0083 131.695 10.0893 131.527 9.99591C131.442 9.94921 131.348 9.92722 131.233 9.94782C131.163 9.96018 131.089 9.96568 131.017 9.97118C130.947 9.97667 130.875 9.96156 130.831 9.92036C130.768 9.85993 130.805 9.83659 130.919 9.84071C130.991 9.84346 131.063 9.82835 131.134 9.82148Z" fill="#FFE492"/>
<path d="M101.444 0.595267C101.586 0.58016 101.728 0.556824 101.869 0.55545C101.952 0.554077 101.994 0.59939 101.974 0.632351C101.963 0.652952 101.937 0.681794 101.911 0.684541C101.627 0.717502 101.344 0.744974 101.061 0.775189C100.978 0.755961 100.936 0.727125 100.956 0.694164C100.967 0.673563 100.993 0.646095 101.019 0.641974C101.161 0.622747 101.303 0.610374 101.444 0.595267Z" fill="#FFE492"/>
<path d="M134.746 10.0073C134.816 10.0005 134.888 9.9826 134.956 9.98809C135.028 9.99496 135.073 10.0348 135.095 10.0746C135.119 10.1199 135.117 10.1625 135.095 10.201C135.06 10.2669 135.025 10.2642 134.945 10.2202C134.821 10.1515 134.812 10.1598 134.566 10.1625C134.537 10.1625 134.502 10.1419 134.481 10.1241C134.448 10.0966 134.465 10.054 134.542 10.0293C134.598 10.0114 134.677 10.0142 134.746 10.0073Z" fill="#FFE492"/>
<path d="M162.819 14.367C162.922 14.356 163.024 14.3382 163.127 14.3382C163.198 14.3368 163.255 14.3684 163.262 14.4027C163.264 14.4192 163.231 14.4467 163.205 14.4549C163.081 14.492 162.941 14.4947 162.806 14.5071C162.743 14.5126 162.673 14.4906 162.634 14.4522C162.575 14.3945 162.61 14.3684 162.717 14.3766C162.749 14.3794 162.784 14.3711 162.819 14.367Z" fill="#FFE492"/>
<path d="M146.696 12.6823C146.544 12.6987 146.4 12.6782 146.411 12.6424C146.426 12.5957 146.489 12.5655 146.555 12.5573C146.659 12.5435 146.764 12.5326 146.871 12.5243C146.938 12.5188 146.999 12.5394 147.054 12.5751C147.021 12.6191 146.971 12.6507 146.906 12.6603C146.838 12.6699 146.766 12.6754 146.696 12.6823Z" fill="#FFE492"/>
<path d="M145.692 12.5072C145.795 12.4962 145.897 12.4783 146 12.4783C146.071 12.4769 146.128 12.5085 146.135 12.5429C146.137 12.5593 146.104 12.5868 146.078 12.595C145.954 12.6321 145.814 12.6349 145.679 12.6472C145.616 12.6527 145.546 12.6308 145.507 12.5923C145.448 12.5346 145.483 12.5085 145.59 12.5168C145.622 12.5195 145.657 12.5113 145.692 12.5072Z" fill="#FFE492"/>
<path d="M133.507 9.99609C133.609 9.9851 133.712 9.96724 133.814 9.96586C133.886 9.96449 133.943 9.99609 133.949 10.0304C133.951 10.0469 133.919 10.073 133.893 10.0826C133.768 10.1197 133.629 10.1224 133.494 10.1348C133.43 10.1403 133.361 10.1183 133.321 10.0799C133.263 10.0222 133.297 9.99608 133.404 10.0043C133.437 10.0071 133.472 9.99884 133.507 9.99609Z" fill="#FFE492"/>
<path d="M132.933 9.91483C133.042 9.90384 133.077 9.89697 133.112 9.89697C133.177 9.89697 133.245 9.91346 133.284 9.95329C133.343 10.011 133.308 10.0275 133.201 10.0302C133.064 10.033 132.929 10.0618 132.791 10.0673C132.719 10.07 132.663 10.0371 132.658 10.0027C132.656 9.98625 132.689 9.9574 132.715 9.95191C132.807 9.93131 132.907 9.91895 132.933 9.91483Z" fill="#FFE492"/>
<path d="M144.81 1.83519C144.74 1.84206 144.666 1.86129 144.601 1.85442C144.514 1.8448 144.479 1.80773 144.5 1.77339C144.514 1.75417 144.538 1.7267 144.564 1.72258C144.703 1.70335 144.845 1.69098 144.984 1.67725C145.067 1.69785 145.104 1.72669 145.082 1.76102C145.069 1.78025 145.045 1.80634 145.019 1.81184C144.952 1.82557 144.88 1.82832 144.81 1.83519Z" fill="#FFE492"/>
<path d="M60.2155 2.62752C60.2831 2.62614 60.3441 2.644 60.3964 2.67833C60.3637 2.72228 60.3158 2.75112 60.2504 2.76348C60.2177 2.76897 60.1807 2.77309 60.1458 2.77446C60.0782 2.77721 60.0172 2.75798 59.9648 2.72365C59.9975 2.6797 60.0477 2.65086 60.1109 2.6385C60.1436 2.633 60.1807 2.63164 60.2155 2.62752Z" fill="#FFE492"/>
<path d="M135.37 10.1735C135.368 10.1584 135.357 10.1405 135.363 10.1268C135.405 10.0512 135.656 10.0279 135.721 10.0938C135.732 10.1062 135.736 10.1268 135.727 10.1391C135.714 10.1584 135.69 10.1831 135.664 10.1886C135.597 10.2023 135.527 10.2092 135.457 10.2105C135.427 10.2105 135.398 10.1872 135.37 10.1735Z" fill="#FFE492"/>
<path d="M18.5486 9.87799C18.2914 9.90683 18.287 9.90407 18.3328 9.8354C18.3742 9.7736 18.4505 9.73653 18.5617 9.73653C18.5944 9.73653 18.6292 9.73378 18.6576 9.73927C18.6881 9.74614 18.7317 9.75986 18.7382 9.77634C18.7513 9.80793 18.7142 9.84227 18.6488 9.86562C18.6205 9.8766 18.5834 9.87387 18.5486 9.87799Z" fill="#FFE492"/>
<path d="M63.4286 2.43444C63.3523 2.45779 63.287 2.44955 63.239 2.40561C63.1911 2.36166 63.2674 2.30946 63.4003 2.2971C63.4352 2.29436 63.4722 2.28338 63.5049 2.28887C63.5376 2.29299 63.5704 2.30946 63.59 2.32594C63.6249 2.35341 63.6031 2.3905 63.5333 2.42209C63.505 2.43445 63.4635 2.43169 63.4286 2.43444Z" fill="#FFE492"/>
<path d="M22.0098 25.5124C22.0098 25.4959 22.0399 25.4699 22.0635 25.4644C22.1087 25.4548 22.1645 25.474 22.2032 25.5124C22.257 25.5674 22.2248 25.5962 22.1259 25.5811C22.0571 25.5701 22.0098 25.5426 22.0098 25.5124Z" fill="#FFE492"/>
<path d="M136.258 8.89497C136.286 8.90733 136.314 8.91969 136.34 8.93343C136.303 8.98424 136.258 9.00621 136.211 8.99247C136.181 8.98423 136.155 8.96775 136.127 8.95539C136.164 8.90458 136.207 8.88536 136.258 8.89497Z" fill="#FFE492"/>
<path d="M135.499 8.83292C135.542 8.81232 135.594 8.82332 135.654 8.86315C135.635 8.88101 135.618 8.90161 135.594 8.91534C135.553 8.93732 135.499 8.92632 135.441 8.88511C135.459 8.86863 135.478 8.85078 135.499 8.83292Z" fill="#FFE492"/>
<path d="M134.926 8.89301C134.954 8.90537 134.982 8.91774 135.008 8.93147C134.971 8.98228 134.928 9.00425 134.879 8.99052C134.849 8.98228 134.823 8.96579 134.795 8.95343C134.831 8.90262 134.874 8.88202 134.926 8.89301Z" fill="#FFE492"/>
<path d="M134.506 8.82044C134.538 8.84791 134.521 8.88086 134.458 8.91795C134.43 8.90559 134.398 8.89598 134.377 8.8795C134.342 8.85341 134.36 8.81906 134.424 8.78198C134.45 8.79572 134.478 8.80808 134.506 8.82044Z" fill="#FFE492"/>
</svg>
