<svg width="357" height="31" viewBox="0 0 357 31" fill="none" xmlns="http://www.w3.org/2000/svg">
<path d="M333.961 16.4194C333.475 16.4439 332.983 16.4608 332.506 16.4976C332.196 16.5205 332.063 16.4532 331.857 16.4179C331.788 16.4057 331.714 16.3811 331.65 16.3842C331.168 16.4087 330.686 16.4363 330.204 16.4639C330.057 16.5236 329.964 16.6033 329.737 16.6324C329.516 16.6599 329.255 16.6599 329.01 16.6737C328.685 16.6906 328.36 16.7074 328.036 16.7228C327.874 16.7304 327.741 16.7595 327.687 16.8147C327.677 16.8239 327.785 16.8468 327.844 16.8606C328.041 16.9066 328.232 16.9586 328.449 16.9939C328.655 17.0276 328.911 16.9724 329.132 17.0153C329.629 17.1118 329.634 17.1103 330.013 17.0919C330.337 17.0751 330.662 17.0567 330.986 17.0444C331.05 17.0414 331.124 17.0643 331.193 17.0766C331.399 17.1103 331.532 17.1869 331.837 17.1578C332.068 17.1348 332.324 17.1302 332.565 17.118C332.767 17.1624 332.953 17.2129 333.17 17.2482C333.371 17.2819 333.43 17.3079 333.322 17.3523C333.224 17.3937 333.086 17.4105 332.904 17.4136C332.742 17.4151 332.58 17.4289 332.417 17.4366C332.334 17.4412 332.255 17.4442 332.176 17.4488C331.867 17.4657 331.867 17.4657 331.301 17.3676C331.08 17.3293 330.829 17.383 330.618 17.3462C330.475 17.3217 330.352 17.2849 330.214 17.2589C330.155 17.2482 330.062 17.2466 329.988 17.2497C329.742 17.2604 329.496 17.2681 329.26 17.288C329.093 17.3018 328.995 17.3447 329.014 17.3876C329.019 17.4044 329.137 17.4289 329.206 17.4305C329.364 17.4335 329.531 17.4121 329.683 17.4228C329.831 17.4335 329.983 17.4641 330.091 17.4978C330.313 17.5683 330.563 17.5055 330.775 17.5239C330.996 17.5438 331.178 17.6051 331.39 17.6418C331.444 17.651 331.547 17.6357 331.631 17.6311C331.871 17.6204 332.113 17.6112 332.353 17.6005C332.555 17.6449 332.771 17.6847 332.953 17.7353C333.283 17.8272 333.637 17.8624 334.065 17.818C334.306 17.7935 334.542 17.8027 334.734 17.8624C334.93 17.9237 335.156 17.9176 335.407 17.9053C335.638 17.8931 335.874 17.8594 336.11 17.9022C336.622 17.9972 336.627 18.0018 337.232 17.9651C337.414 17.9543 337.551 17.9513 337.689 17.9865C337.817 18.0187 337.955 18.0462 338.087 18.0769C338.328 18.0662 338.574 18.0554 338.815 18.0432C339.125 18.0263 339.297 18.0478 339.371 18.1336C339.415 18.1856 339.435 18.2331 339.543 18.2684C339.671 18.3112 339.808 18.3097 339.995 18.2974C340.172 18.2867 340.3 18.2699 340.374 18.2147C340.403 18.1918 340.462 18.1703 340.517 18.1519C340.561 18.1381 340.63 18.1167 340.669 18.1198C340.743 18.1259 340.841 18.1427 340.866 18.1626C341.107 18.348 341.107 18.3495 341.353 18.4032C341.623 18.4629 341.903 18.5165 342.149 18.5839C342.371 18.6436 342.592 18.6176 342.833 18.6176C343.015 18.6176 343.133 18.6574 343.118 18.6973C343.108 18.7202 343.039 18.7539 342.98 18.757C342.498 18.7876 342.012 18.8137 341.525 18.8351C341.466 18.8382 341.392 18.8106 341.323 18.7968C341.185 18.7693 341.062 18.7264 340.915 18.7172C340.767 18.708 340.595 18.731 340.433 18.7386C340.271 18.7463 340.099 18.7662 339.951 18.7539C339.804 18.7417 339.686 18.6973 339.548 18.6682C339.484 18.6544 339.395 18.6345 339.341 18.6391C338.982 18.6758 338.717 18.6253 338.461 18.5579C338.407 18.5441 338.314 18.5349 338.245 18.538C337.674 18.564 337.109 18.5946 336.538 18.6237C336.307 18.636 336.12 18.5824 336.071 18.492C336.047 18.4414 335.997 18.3909 335.997 18.3403C335.997 18.2484 335.727 18.1979 335.53 18.2086C335.206 18.2239 334.876 18.2362 334.557 18.2592C334.296 18.2775 334.075 18.2592 333.898 18.204C333.691 18.1412 333.455 18.1535 333.219 18.1703C333.042 18.1826 332.993 18.2331 333.003 18.3603C333.012 18.4629 332.929 18.4951 332.609 18.5119C332.206 18.5334 331.798 18.5548 331.39 18.5716C331.326 18.5747 331.252 18.5487 331.188 18.5349C331.05 18.5073 330.927 18.4629 330.78 18.4537C330.632 18.443 330.46 18.466 330.298 18.4751C330.136 18.4828 329.963 18.5042 329.816 18.4935C329.668 18.4828 329.545 18.4369 329.413 18.4078C329.349 18.394 329.27 18.374 329.206 18.3771C328.882 18.3894 328.557 18.4078 328.233 18.4246C327.869 18.443 327.869 18.443 327.352 18.348C327.116 18.3051 326.88 18.3388 326.649 18.3511C326.403 18.3633 326.172 18.3695 325.98 18.3082C325.852 18.2684 325.71 18.2438 325.557 18.2515C325.149 18.2699 324.746 18.2929 324.338 18.3112C324.269 18.3143 324.176 18.3067 324.121 18.2929C323.861 18.2285 323.605 18.178 323.241 18.2101C322.927 18.2377 322.587 18.2392 322.272 18.2653C322.1 18.2791 322.022 18.3281 322.056 18.3664C322.076 18.3863 322.179 18.4093 322.248 18.4093C322.405 18.4108 322.577 18.3878 322.725 18.397C323.03 18.4154 323.182 18.5441 323.581 18.5088C323.817 18.4874 324.062 18.4797 324.308 18.4736C324.372 18.4721 324.441 18.5012 324.51 18.5165C324.707 18.5579 324.879 18.6115 325.164 18.5839C325.4 18.5625 325.651 18.5563 325.892 18.5441C326.275 18.5242 326.275 18.5257 326.772 18.6191C327.008 18.6636 327.244 18.6283 327.475 18.6176C327.647 18.61 327.81 18.5946 327.947 18.6161C328.159 18.6482 328.311 18.7218 328.572 18.7172C328.818 18.7126 329.059 18.6911 329.305 18.6835C329.457 18.6789 329.6 18.7034 329.723 18.7447C329.85 18.7861 329.988 18.8045 330.155 18.7953C330.396 18.783 330.642 18.7677 330.888 18.7601C330.957 18.7585 331.036 18.7723 331.099 18.7846C331.237 18.8121 331.37 18.8443 331.503 18.8734C331.744 18.8642 331.99 18.8612 332.226 18.8428C332.408 18.829 332.535 18.8351 332.683 18.8658C332.87 18.9071 333.022 18.9807 333.327 18.9454C333.48 18.9286 333.657 18.9332 333.809 18.9178C333.996 18.8979 334.124 18.9056 334.257 18.9515C334.507 19.0389 334.822 19.0404 335.147 19.0067C335.501 18.9699 335.766 19.0128 336.032 19.0802C336.312 19.1507 336.312 19.1491 336.529 19.3192C336.592 19.3682 336.774 19.3912 336.927 19.382C337.182 19.3667 337.404 19.3743 337.591 19.4325C337.787 19.4953 338.023 19.4877 338.264 19.4708C338.584 19.4478 338.904 19.4279 339.164 19.5168C339.292 19.5597 339.43 19.5704 339.602 19.5597C340.089 19.5321 340.581 19.5153 341.058 19.4816C341.348 19.4601 341.515 19.5091 341.712 19.5505C341.977 19.6072 342.267 19.6577 342.267 19.7787C342.267 19.7986 342.336 19.8216 342.395 19.8369C342.523 19.8691 342.661 19.8967 342.793 19.9273C342.99 19.9733 343.182 20.0116 343.452 19.987C343.688 19.9671 343.939 19.961 344.18 19.9472C344.421 19.9334 344.642 19.9258 344.859 19.984C345.11 20.0499 345.375 20.1127 345.66 20.1617C345.862 20.1969 346.128 20.1372 346.344 20.1847C346.477 20.2138 346.604 20.2475 346.747 20.272C346.806 20.2827 346.9 20.275 346.978 20.272C347.141 20.2658 347.308 20.2613 347.465 20.2459C347.647 20.2291 347.785 20.2322 347.922 20.2674C348.05 20.2996 348.178 20.344 348.326 20.3532C348.547 20.3669 348.793 20.3057 349.014 20.3761C349.127 20.4114 349.27 20.4451 349.417 20.4558C349.565 20.4665 349.737 20.4435 349.894 20.4451C349.963 20.4451 350.047 20.4696 350.086 20.4895C350.111 20.5002 350.076 20.5293 350.042 20.5446C349.998 20.563 349.934 20.5875 349.87 20.5906C349.383 20.6182 348.896 20.6411 348.409 20.6672C348.119 20.6825 348.119 20.6825 347.534 20.586C347.396 20.563 347.244 20.5676 347.072 20.5783C346.841 20.5921 346.605 20.6182 346.364 20.5906C346.049 20.4864 345.66 20.4772 345.247 20.5171C345.075 20.5339 344.918 20.5339 344.79 20.5048C344.519 20.4466 344.234 20.393 343.993 20.3241C343.806 20.2704 343.718 20.2658 343.639 20.3394C343.615 20.3624 343.59 20.3869 343.595 20.4083C343.624 20.4849 343.679 20.5599 343.708 20.6365C343.718 20.658 343.679 20.6825 343.654 20.7055C343.575 20.7698 343.472 20.7652 343.3 20.7116C343.128 20.658 342.921 20.6228 342.646 20.6473C342.41 20.6687 342.154 20.6657 341.918 20.6886C341.554 20.7223 341.298 20.6733 341.038 20.6074C340.984 20.5937 340.89 20.586 340.822 20.5891C340.089 20.6243 339.361 20.6641 338.628 20.6993C338.471 20.707 338.328 20.684 338.205 20.6427C338.077 20.6013 337.935 20.5799 337.777 20.5875C337.128 20.6197 336.479 20.6488 335.83 20.6886C335.565 20.7055 335.353 20.6856 335.171 20.6319C335.034 20.5921 334.906 20.5799 334.734 20.5845C334.547 20.5891 334.414 20.6044 334.321 20.6488C334.232 20.6917 334.296 20.7177 334.493 20.7514C334.704 20.7882 334.901 20.8357 335.102 20.8786C335.265 20.8724 335.427 20.8602 335.584 20.8617C335.653 20.8617 335.717 20.8893 335.786 20.9046C335.983 20.949 336.165 20.9935 336.445 20.9689C336.681 20.9475 336.932 20.9429 337.173 20.9291C337.507 20.9123 337.507 20.9123 338.048 21.0088C338.186 21.0333 338.333 21.0317 338.51 21.018C338.663 21.0072 338.82 21.0287 338.928 21.0746C338.972 21.093 338.958 21.1237 338.864 21.2248C338.864 21.2998 338.967 21.2661 339.002 21.2171C339.056 21.1466 338.953 21.1237 338.756 21.162C338.618 21.1895 338.55 21.2294 338.584 21.2615C338.604 21.2784 338.697 21.2998 338.864 21.2248C339.297 21.1329 339.627 21.1221 339.941 21.0976C340.128 21.0838 340.246 21.09 340.394 21.1298C340.571 21.1773 340.748 21.2278 341.038 21.2033C341.353 21.1757 341.687 21.1727 342.007 21.1497C342.302 21.1282 342.454 21.1957 342.641 21.2355C342.867 21.283 343.118 21.2294 343.324 21.2569C343.541 21.2845 343.693 21.3519 343.944 21.3642C344.308 21.3228 344.539 21.3994 344.815 21.4499C345.031 21.4882 345.287 21.4545 345.518 21.4377C345.778 21.4193 345.995 21.4362 346.177 21.4913C346.383 21.5541 346.614 21.5403 346.85 21.5265C347.401 21.4959 347.421 21.4913 347.74 21.5755C347.972 21.6368 348.193 21.6092 348.424 21.6016C348.626 21.643 348.822 21.6874 349.034 21.7241C349.088 21.7333 349.191 21.718 349.275 21.7134C349.516 21.7012 349.762 21.6889 350.003 21.6766C350.165 21.669 350.337 21.646 350.484 21.6552C350.632 21.6659 350.755 21.7104 350.888 21.7395C351.021 21.7686 351.158 21.7977 351.286 21.8283C351.483 21.8743 351.67 21.9125 351.945 21.8896C352.181 21.8697 352.427 21.8635 352.673 21.8497C352.983 21.8329 352.973 21.8375 353.548 21.9294C353.858 21.98 354.178 21.9187 354.492 21.9126C354.65 21.9095 354.802 21.9263 354.91 21.9708C354.955 21.9891 354.94 22.0198 354.955 22.0458C354.143 22.0872 353.327 22.1224 352.525 22.173C352.215 22.1929 352.053 22.1377 351.886 22.0918C351.611 22.0182 351.247 22.1255 350.986 22.0305C350.829 21.9738 350.602 21.9417 350.332 21.9692C350.175 21.9845 350.007 21.983 349.845 21.9968C349.432 22.0305 349.053 22.032 348.724 21.9263C348.611 21.8896 348.449 21.8697 348.331 21.8344C348.193 21.7961 348.06 21.7747 347.898 21.7823C347.165 21.8191 346.437 21.8559 345.71 21.8957C345.646 21.8988 345.582 21.9217 345.528 21.9386C345.39 21.9815 345.434 22.0152 345.655 22.0428C345.729 22.0519 345.788 22.0718 345.857 22.0872C345.99 22.1163 346.113 22.1622 346.26 22.173C346.408 22.1837 346.58 22.1622 346.742 22.1546C346.905 22.1469 347.077 22.1239 347.224 22.1331C347.372 22.1438 347.495 22.1883 347.632 22.2159C347.696 22.2296 347.775 22.2526 347.839 22.2511C348.163 22.2419 348.483 22.225 348.808 22.2113C349.009 22.2526 349.181 22.3124 349.422 22.3261C349.575 22.3353 349.737 22.3185 349.894 22.3215C349.963 22.3231 350.052 22.3461 350.086 22.366C350.106 22.3782 350.042 22.4089 349.993 22.4242C349.806 22.4824 349.55 22.4717 349.319 22.49C349.068 22.5099 348.842 22.5038 348.65 22.4441C348.522 22.4043 348.38 22.3828 348.222 22.3905C347.814 22.4104 347.411 22.4334 347.003 22.4502C346.934 22.4533 346.85 22.4395 346.786 22.4288C346.27 22.3353 346.27 22.3323 345.906 22.3522C345.37 22.3813 345.37 22.3813 345.011 22.3001C344.942 22.2848 344.869 22.2557 344.81 22.2572C344.239 22.2817 343.674 22.3062 343.108 22.3415C342.921 22.3522 342.793 22.3522 342.656 22.3124C342.538 22.2787 342.4 22.2404 342.253 22.2312C342.1 22.222 341.933 22.245 341.771 22.2526C341.608 22.2603 341.436 22.2802 341.294 22.2679C341.146 22.2557 341.018 22.2128 340.89 22.1822C340.758 22.15 340.615 22.1515 340.433 22.1638C339.872 22.199 339.867 22.1944 339.312 22.0994C339.248 22.0887 339.164 22.0765 339.095 22.0795C338.687 22.0979 338.284 22.1209 337.876 22.1393C337.719 22.1469 337.566 22.127 337.458 22.0826C337.414 22.0642 337.428 22.0336 337.399 21.9738C337.365 21.96 337.404 21.9845 337.414 22.0075C337.487 22.0045 337.576 22.0075 337.63 21.9953C337.768 21.9662 337.836 21.9279 337.802 21.8957C337.782 21.8788 337.689 21.8574 337.63 21.8574C337.522 21.8574 337.428 21.8911 337.399 21.9738C337.089 22.0244 336.76 22.0351 336.44 22.0596C336.253 22.0749 336.135 22.0673 335.988 22.0274C335.81 21.9784 335.629 21.9309 335.338 21.9554C335.024 21.983 334.689 21.9876 334.365 22.0091C333.991 22.0336 333.829 21.8957 333.514 21.8988C333.189 21.9018 332.865 21.9279 332.54 21.9462C332.255 21.9616 332.255 21.9616 331.665 21.862C331.449 21.8252 331.193 21.8788 330.981 21.8405C330.839 21.816 330.716 21.7793 330.578 21.7532C330.519 21.7425 330.426 21.7425 330.352 21.7456C329.944 21.764 329.531 21.7762 329.137 21.8099C328.69 21.8497 328.351 21.8069 328.031 21.7165C327.628 21.7333 327.22 21.7425 326.821 21.7716C326.531 21.7931 326.364 21.7425 326.167 21.7012C326.098 21.6874 326.039 21.6644 325.966 21.6583C325.892 21.6521 325.803 21.6644 325.725 21.669C325.4 21.6858 325.066 21.6935 324.751 21.7211C324.362 21.7563 324.215 21.6307 323.915 21.6154C323.713 21.6904 323.605 21.7931 323.207 21.8007C322.882 21.8068 322.558 21.8314 322.233 21.8482C322.071 21.8559 321.909 21.8651 321.746 21.8727C321.486 21.8865 321.363 21.9462 321.417 22.0382C321.446 22.0887 321.471 22.1393 321.495 22.1898C321.545 22.2802 321.422 22.3568 321.215 22.3675C320.645 22.3966 320.079 22.4272 319.509 22.4533C319.356 22.4609 319.209 22.4349 319.086 22.3935C318.958 22.3522 318.815 22.3338 318.658 22.3415C318.088 22.3706 317.522 22.4012 316.952 22.4272C316.888 22.4303 316.804 22.415 316.74 22.4027C316.603 22.3752 316.47 22.343 316.337 22.3139C316.012 22.3277 315.693 22.3369 315.373 22.3552C314.857 22.3828 314.857 22.3843 314.478 22.3001C314.409 22.2848 314.34 22.2557 314.277 22.2572C314.031 22.2633 313.79 22.2787 313.544 22.2924C312.821 22.3323 312.821 22.3323 312.609 22.2863C312.418 22.2434 312.245 22.1913 311.955 22.2159C311.641 22.2434 311.306 22.2526 310.982 22.2679C310.741 22.2787 310.5 22.2909 310.259 22.294C310.195 22.2955 310.126 22.2664 310.057 22.2511C309.861 22.2036 309.669 22.1653 309.398 22.1913C309.241 22.2067 309.074 22.2097 308.911 22.2174C308.488 22.2388 308.488 22.2388 307.795 22.1469C307.726 22.1377 307.643 22.127 307.574 22.1316C307.003 22.1592 306.438 22.1898 305.867 22.2159C305.799 22.2189 305.715 22.2097 305.646 22.2021C304.869 22.1132 304.869 22.1132 304.043 22.1561C303.728 22.1714 303.718 22.1776 303.389 22.0964C303.241 22.0611 303.119 22.0443 302.946 22.055C302.297 22.0918 301.643 22.1163 300.999 22.1592C300.709 22.1776 300.542 22.1316 300.345 22.0902C300.276 22.0764 300.202 22.0458 300.143 22.0474C299.494 22.0765 298.845 22.1117 298.196 22.1408C298.137 22.1439 298.063 22.1132 297.994 22.0994C297.862 22.0719 297.734 22.0305 297.586 22.0213C297.434 22.0121 297.267 22.0351 297.099 22.0428C296.691 22.0627 296.691 22.0611 296.219 21.9708C296.155 21.9585 296.072 21.9417 296.008 21.9447C295.359 21.9754 294.705 22.0014 294.06 22.0458C293.692 22.0703 293.441 22.0259 293.18 21.9616C293.126 21.9478 293.033 21.9417 292.964 21.9447C292.231 21.9799 291.503 22.0198 290.771 22.055C290.618 22.0627 290.471 22.0366 290.348 21.9968C290.151 21.934 289.92 21.9416 289.674 21.9554C289.108 21.9876 289.103 21.9861 288.769 21.9126C288.7 21.8972 288.641 21.8773 288.568 21.8697C288.499 21.862 288.41 21.8666 288.336 21.8697C288.012 21.885 287.687 21.9018 287.363 21.9187C287.038 21.9355 286.709 21.9447 286.389 21.9708C285.996 22.0029 285.809 21.9033 285.533 21.8574C285.13 21.8773 284.717 21.8896 284.319 21.9217C284.014 21.9462 283.871 21.8788 283.67 21.8436C283.601 21.8314 283.527 21.8053 283.463 21.8084C282.73 21.8421 281.998 21.8788 281.27 21.9202C281.093 21.9294 280.975 21.9171 280.827 21.8804C280.498 21.7977 280.483 21.8007 279.932 21.8314C279.691 21.8451 279.46 21.8574 279.254 21.7946C279.072 21.7379 278.85 21.7241 278.59 21.7425C278.27 21.7655 277.941 21.7778 277.616 21.7931C277.292 21.8099 276.967 21.8329 276.642 21.8405C276.382 21.8482 276.224 21.7762 276.018 21.7395C275.954 21.7287 275.865 21.7272 275.792 21.7303C275.467 21.744 275.133 21.7548 274.818 21.7808C274.434 21.813 274.223 21.7287 273.953 21.6797C273.894 21.669 273.795 21.6751 273.721 21.6797C273.151 21.7073 272.585 21.7379 272.015 21.767C271.813 21.7257 271.607 21.6858 271.405 21.6445C271.081 21.6598 270.756 21.6766 270.431 21.692C270.186 21.7042 269.935 21.7088 269.704 21.7318C269.404 21.7624 269.256 21.6904 269.055 21.6552C268.986 21.6429 268.912 21.6169 268.848 21.62C268.44 21.6368 268.032 21.6552 267.628 21.6812C267.245 21.7073 267.092 21.5694 266.778 21.5709C266.453 21.5725 266.119 21.5924 265.804 21.62C265.44 21.6521 265.184 21.6031 264.924 21.5372C264.87 21.5235 264.776 21.5158 264.707 21.5189C264.299 21.5372 263.896 21.5602 263.488 21.5786C263.419 21.5817 263.336 21.574 263.267 21.5648C262.49 21.4745 262.49 21.4729 262.15 21.4913C261.909 21.5036 261.664 21.5189 261.418 21.5265C261.349 21.5296 261.265 21.5158 261.201 21.5036C260.69 21.4101 260.69 21.4086 260.321 21.427C259.996 21.4438 259.672 21.4607 259.347 21.4775C259.146 21.4361 258.939 21.3963 258.737 21.355C258.334 21.3749 257.921 21.3902 257.523 21.4178C257.336 21.43 257.213 21.4254 257.07 21.3871C256.893 21.3412 256.716 21.2876 256.421 21.3136C256.107 21.3412 255.772 21.3442 255.453 21.3672C255.069 21.3948 254.912 21.2554 254.602 21.2569C254.277 21.2585 253.943 21.2784 253.628 21.3059C253.264 21.3381 253.009 21.2891 252.748 21.2232C252.694 21.2094 252.6 21.2018 252.532 21.2049C251.637 21.2493 250.747 21.2937 249.852 21.3412C249.301 21.3703 249.301 21.3718 248.253 21.2876C248.18 21.2814 248.101 21.2753 248.027 21.2784C247.702 21.2922 247.368 21.3029 247.053 21.3289C246.67 21.3611 246.458 21.2784 246.188 21.2278C246.129 21.2171 246.035 21.2232 245.957 21.2263C245.711 21.237 245.47 21.2508 245.224 21.2631C244.899 21.2799 244.575 21.2968 244.25 21.3136C244.049 21.2738 243.842 21.2324 243.641 21.1926C243.237 21.2125 242.824 21.2232 242.426 21.2554C242.121 21.2799 241.978 21.2156 241.777 21.1788C241.708 21.1666 241.634 21.1405 241.57 21.142C240.838 21.1757 240.105 21.211 239.377 21.2539C239.077 21.2722 238.939 21.2033 238.738 21.1681C238.669 21.1574 238.59 21.1374 238.526 21.1405C238.04 21.162 237.553 21.188 237.066 21.214C236.79 21.2294 236.79 21.2294 236.191 21.1344C236.122 21.1237 236.043 21.1129 235.974 21.116C234.43 21.1926 232.891 21.2738 231.347 21.3504C231.189 21.358 231.047 21.3351 230.924 21.2937C230.796 21.2523 230.653 21.2309 230.496 21.2386C229.847 21.2707 229.193 21.2998 228.549 21.3397C228.283 21.3565 228.072 21.3366 227.89 21.283C227.752 21.2431 227.624 21.2278 227.452 21.237C227.127 21.2554 226.803 21.2707 226.478 21.2876C226.154 21.3044 225.829 21.3213 225.505 21.3381C225.18 21.355 224.851 21.3642 224.531 21.3902C224.138 21.4224 223.946 21.3274 223.675 21.2799C223.189 21.3029 222.702 21.3259 222.22 21.3504C221.571 21.3825 220.921 21.4178 220.272 21.4484C220.213 21.4515 220.14 21.4239 220.071 21.4101C219.869 21.3718 219.722 21.3182 219.422 21.3351C217.966 21.4162 216.501 21.4852 215.04 21.5648C214.735 21.5817 214.602 21.5158 214.396 21.4806C214.327 21.4698 214.248 21.4484 214.184 21.4515C213.373 21.4898 212.562 21.5326 211.75 21.574C211.421 21.5909 211.421 21.5909 210.87 21.4959C210.806 21.4852 210.722 21.4714 210.654 21.4744C209.596 21.5265 208.544 21.5817 207.487 21.6353C207.329 21.6429 207.187 21.6215 207.059 21.5801C206.936 21.5388 206.788 21.5158 206.636 21.5235C205.662 21.5725 204.684 21.62 203.715 21.6736C203.454 21.6889 203.238 21.6751 203.051 21.62C202.918 21.5801 202.786 21.5633 202.618 21.5725C201.158 21.6475 199.697 21.7195 198.237 21.7992C197.956 21.8145 197.76 21.7854 197.583 21.7349C197.44 21.695 197.317 21.6874 197.14 21.6935C196.953 21.7012 196.84 21.718 196.737 21.764C196.604 21.8237 196.521 21.8988 196.206 21.9034C195.881 21.9079 195.552 21.9263 195.232 21.9524C194.927 21.9784 194.785 21.9095 194.593 21.8681C194.45 21.839 194.317 21.8344 194.136 21.8482C193.968 21.8605 193.865 21.8865 193.767 21.9355C193.55 22.0397 193.531 22.0397 193.265 21.9738C193.123 21.9386 192.995 21.911 192.837 21.9171C192.188 21.9478 191.539 21.9815 190.89 22.0167C190.516 22.0366 190.511 22.0397 190.231 21.9631C190.093 21.9248 189.96 21.9064 189.798 21.9156C188.013 22.0075 186.228 22.0964 184.443 22.1929C184.168 22.2082 183.981 22.176 183.784 22.1301C183.72 22.1147 183.656 22.0933 183.582 22.0872C183.509 22.081 183.425 22.0872 183.346 22.0902C182.048 22.1561 180.745 22.2189 179.452 22.2924C179.157 22.3093 178.999 22.2603 178.798 22.2205C178.729 22.2067 178.67 22.1852 178.596 22.1791C178.522 22.1745 178.434 22.1852 178.355 22.1898C177.057 22.2557 175.754 22.3185 174.46 22.392C174.151 22.4089 174.018 22.3445 173.816 22.3108C173.747 22.2986 173.674 22.2756 173.61 22.2786C173.201 22.2955 172.798 22.3185 172.39 22.3384C171.416 22.3889 170.443 22.4364 169.469 22.4885C169.095 22.5084 168.933 22.3721 168.618 22.3782C168.21 22.3859 167.807 22.4165 167.399 22.438C167.074 22.4548 166.75 22.4701 166.425 22.4885C166.105 22.5054 166.105 22.5054 165.309 22.4165C165.24 22.4088 165.156 22.3981 165.087 22.4012C163.952 22.4579 162.811 22.5146 161.68 22.5758C161.419 22.5896 161.203 22.582 161.016 22.5253C160.883 22.4855 160.745 22.4655 160.583 22.4747C158.877 22.562 157.175 22.6494 155.469 22.7351C155.405 22.7382 155.321 22.7229 155.257 22.7106C155.12 22.6831 154.987 22.6509 154.854 22.6218C154.756 22.657 154.628 22.6892 154.564 22.729C154.475 22.7826 154.357 22.7979 154.171 22.8071C153.984 22.8163 153.866 22.8133 153.718 22.7734C153.541 22.7244 153.359 22.6861 153.069 22.7014C151.284 22.7979 149.499 22.8853 147.714 22.9802C147.419 22.9955 147.281 22.9281 147.074 22.8929C147.006 22.8822 146.927 22.8653 146.863 22.8684C146.13 22.9036 145.402 22.9419 144.67 22.9787C142.639 23.0829 140.608 23.1824 138.582 23.2927C138.213 23.3126 137.962 23.2743 137.702 23.2085C137.647 23.1947 137.554 23.187 137.485 23.1901C134.643 23.3341 131.801 23.4796 128.963 23.6251C128.811 23.6328 128.663 23.6083 128.54 23.5684C128.412 23.5271 128.27 23.5072 128.112 23.5148C126.814 23.5807 125.516 23.6466 124.218 23.714C123.893 23.7308 123.888 23.7323 123.554 23.6588C123.485 23.6435 123.411 23.6144 123.357 23.6175C123.244 23.6251 123.136 23.6634 123.057 23.7155C122.978 23.7706 122.855 23.786 122.673 23.7967C122.487 23.8074 122.364 23.8028 122.221 23.766C122.039 23.7201 121.872 23.6757 121.577 23.691C117.844 23.8871 114.112 24.0755 110.38 24.27C110.08 24.2853 109.942 24.221 109.735 24.1858C109.667 24.175 109.598 24.1597 109.524 24.1567C109.445 24.1536 109.362 24.1628 109.283 24.1674C103.195 24.4783 97.1071 24.7908 91.0192 25.1018C90.6553 25.1202 90.6602 25.1202 90.2619 25.2611C90.2127 25.278 90.1487 25.3009 90.0799 25.304C88.2161 25.402 86.3475 25.497 84.4788 25.592C83.6674 25.6333 82.856 25.6762 82.0447 25.7161C81.7545 25.7298 81.7545 25.7298 81.0611 25.8953C81.0021 25.9091 80.9332 25.9274 80.8644 25.9305C77.6188 26.0975 74.3732 26.2644 71.1226 26.4283C70.8669 26.4406 70.6604 26.4682 70.5424 26.5417C70.4588 26.5938 70.3506 26.6244 70.1884 26.6336C67.9164 26.75 65.6446 26.868 63.3678 26.9813C63.0973 26.9951 62.9349 27.038 62.8022 27.1024C62.7579 27.1238 62.7185 27.1483 62.6546 27.1636C62.5956 27.1774 62.5071 27.182 62.4334 27.1866C60.486 27.2862 58.5387 27.3888 56.5864 27.4838C56.2963 27.4976 56.1782 27.5542 56.0356 27.614C55.9864 27.6339 55.952 27.6615 55.888 27.6753C55.8241 27.6875 55.7307 27.6875 55.652 27.6906C54.0292 27.7733 52.4065 27.8575 50.7837 27.9403C50.469 27.9326 50.4001 28.0214 50.2476 28.0751C50.1935 28.0934 50.1543 28.1179 50.0903 28.1302C50.0215 28.1425 49.9329 28.1409 49.8493 28.144C48.551 28.2098 47.2528 28.2803 45.9497 28.3416C45.6497 28.3554 45.5907 28.4335 45.4284 28.4871C45.3743 28.504 45.3203 28.53 45.2563 28.5346C44.4449 28.579 43.6336 28.6204 42.8222 28.6602C42.5517 28.674 42.5517 28.6725 42.0747 28.8241C42.0206 28.841 41.9566 28.8593 41.8878 28.8639C40.6731 28.9283 39.4536 28.9895 38.234 29.0524C38.0767 29.06 37.9685 29.0968 37.8898 29.1489C37.8112 29.2009 37.6981 29.2346 37.5407 29.2423C36.567 29.2928 35.5933 29.3449 34.6196 29.3909C34.3491 29.4031 34.1721 29.4414 34.0541 29.5104C33.9656 29.5624 33.8574 29.5885 33.6853 29.5977C32.7116 29.6467 31.738 29.7003 30.7594 29.7432C30.4742 29.7555 30.3266 29.8075 30.2086 29.8719C30.1151 29.924 30.0069 29.9423 29.825 29.9515C28.0399 30.0404 26.25 30.1292 24.4698 30.2272C24.1698 30.2441 24.0173 30.1905 23.8206 30.1522C23.5403 30.0986 23.2798 30.0404 23.2798 29.9209C23.2798 29.9025 23.1962 29.8811 23.1372 29.8657C22.6995 29.7509 22.6995 29.7509 22.6306 29.6283C22.5913 29.5533 22.547 29.4767 22.5126 29.4001C22.4487 29.2745 22.2913 29.2423 21.8389 29.2653C21.6766 29.2729 21.5143 29.2836 21.352 29.2898C21.1111 29.3005 20.9291 29.25 20.8849 29.158C20.8603 29.1075 20.8308 29.0569 20.8062 29.0064C21.0521 28.9941 21.0471 28.9926 21.4799 28.8073C21.6618 28.7291 21.6619 28.7291 21.3128 28.651C21.18 28.6219 21.0521 28.5897 20.9095 28.5622C20.8456 28.5499 20.762 28.5422 20.6931 28.5453C20.285 28.5637 19.8818 28.5851 19.4785 28.6066C18.8294 28.6403 18.8293 28.6403 18.1704 28.484C18.1163 28.4718 18.0327 28.4488 18.0425 28.4366C18.0966 28.3799 18.2294 28.3554 18.3966 28.3492C18.6424 28.34 18.8834 28.3247 19.1243 28.3125C19.2866 28.3048 19.4489 28.2956 19.6112 28.288C19.7636 28.2298 19.9211 28.1731 20.0637 28.1133C20.2899 28.0214 20.2898 28.0184 19.98 27.954C19.7833 27.9111 19.5718 27.8728 19.3702 27.833C19.1293 27.8453 18.8834 27.8591 18.6424 27.8698C18.3375 27.8836 18.2146 27.8545 18.1359 27.7549C18.0671 27.6676 18.1507 27.5925 18.3867 27.5741C18.6277 27.5558 18.854 27.5435 18.9769 27.4654C19.0949 27.3903 19.3014 27.3612 19.5572 27.3551C19.7194 27.3505 19.8817 27.3398 20.044 27.3306C20.2554 27.3183 20.3686 27.2402 20.3243 27.1529C20.2997 27.0962 20.2505 27.0487 20.0588 27.0365C19.208 26.9829 19.1981 26.9844 18.7752 26.8802C18.7359 26.871 18.7064 26.8435 18.7212 26.8297C18.7458 26.8067 18.7999 26.773 18.8589 26.7684C19.4244 26.7347 19.9899 26.7041 20.5554 26.6811C20.7423 26.6734 20.88 26.6627 20.9439 26.606C21.0325 26.5279 20.9931 26.4559 20.821 26.4023C20.7669 26.3855 20.6783 26.364 20.6193 26.3655C19.9702 26.3931 19.326 26.4283 18.6769 26.4559C18.6179 26.459 18.5097 26.4329 18.4852 26.413C18.436 26.3763 18.5097 26.3272 18.6818 26.3104C18.908 26.2874 19.1391 26.2859 19.2916 26.2093C19.503 26.1005 19.7636 26.001 19.9997 25.8968C20.039 25.8784 20.103 25.8432 20.0883 25.8401C19.9654 25.8064 19.8227 25.7804 19.6949 25.7482C19.4785 25.6946 19.4784 25.6195 19.5276 25.5476C19.567 25.4893 19.7145 25.4664 19.8964 25.4664C19.9751 25.4664 20.0735 25.4664 20.1374 25.4526C20.3046 25.4189 20.3587 25.376 20.2751 25.3438C20.2259 25.3254 20.1375 25.2994 20.0784 25.3025C19.0261 25.353 17.9687 25.402 16.9213 25.4648C16.6115 25.4832 16.469 25.425 16.2821 25.3836C16.1395 25.3515 16.0066 25.3392 15.8296 25.3622C15.6624 25.3836 15.5002 25.3714 15.3969 25.3208C15.3133 25.2795 15.4608 25.2443 15.8591 25.2044C15.9329 25.1968 16.0165 25.1922 16.0706 25.1768C16.641 25.0114 16.641 25.0099 17.0344 24.9884C17.418 24.9685 17.418 24.967 17.6197 24.8782C17.7131 24.8368 17.8163 24.7954 17.9048 24.7525C17.9392 24.7357 17.9983 24.705 17.9786 24.6959C17.8705 24.6484 17.7229 24.6377 17.5508 24.6484C17.1672 24.6744 16.7148 24.653 16.5132 24.7985C16.4345 24.8536 16.3116 24.869 16.1346 24.8782C14.3544 24.967 12.5742 25.062 10.7891 25.1478C10.499 25.1615 10.3663 25.2182 10.2532 25.281C10.1548 25.3331 10.0466 25.3484 9.85974 25.3576C9.67287 25.3668 9.52527 25.3714 9.41708 25.3208C9.35316 25.2902 9.40726 25.2473 9.55479 25.2044C9.76624 25.1432 9.72689 25.0666 9.65804 24.9946C9.60886 24.9471 9.45642 24.9134 9.29414 24.9164C9.05318 24.9226 8.82212 24.9394 8.6205 24.8782C8.50248 24.8429 8.35492 24.8184 8.22215 24.7878C7.96644 24.725 7.71071 24.6606 7.35173 24.702C7.10585 24.6867 6.93374 24.6315 6.73704 24.5886C6.40756 24.5182 6.37805 24.5074 6.6141 24.4324C6.87965 24.3481 6.67307 24.2378 6.8206 24.1551C6.97796 24.0663 7.1944 23.9882 7.38619 23.9055C7.43536 23.884 7.47964 23.8641 7.52882 23.8426C7.41571 23.812 7.31246 23.7737 7.17969 23.7523C7.00757 23.7247 6.91905 23.691 6.92889 23.596C6.89447 23.5822 6.90912 23.6175 6.94846 23.6266C6.99272 23.6358 7.10098 23.6282 7.15508 23.6175C7.29277 23.5884 7.36154 23.5501 7.32712 23.5179C7.30745 23.501 7.21409 23.4796 7.15508 23.4796C7.04689 23.4796 6.95347 23.5133 6.92397 23.596C6.3732 23.6588 5.80267 23.6895 5.23223 23.714C5.17322 23.717 5.0995 23.6864 5.03066 23.6711C4.80445 23.619 4.80442 23.6205 4.14055 23.6052C4.0717 23.6037 3.97832 23.5822 3.94389 23.5608C3.80129 23.4674 3.80624 23.3647 3.7374 23.2651C3.86525 23.2008 3.99301 23.138 4.12578 23.0752C4.39133 22.9481 4.73564 22.8362 4.94217 22.6968C4.89792 22.6218 4.8389 22.5467 5.05527 22.4855C5.66996 22.4089 5.66508 22.4089 5.83228 22.3353C6.30929 22.127 6.78134 21.9171 7.27802 21.7119C7.41079 21.6583 7.41081 21.6292 7.17477 21.6062C7.101 21.6001 7.02222 21.5985 6.94354 21.6016C6.69766 21.6123 6.45178 21.6399 6.21082 21.6338C5.96986 21.6292 5.79283 21.5618 5.59613 21.5204C5.39451 21.4775 5.1929 21.4331 4.99128 21.3887C4.76015 21.3933 4.52907 21.4361 4.29794 21.3672C4.12091 21.3136 3.89964 21.2753 3.69802 21.2309C3.85046 21.1145 4.13572 21.0256 4.35701 20.923C4.55863 20.8295 4.56344 20.8311 5.10437 20.7591C5.36009 20.7254 5.44861 20.5523 5.23223 20.5017C4.9716 20.4405 4.69628 20.3838 4.43073 20.3256C4.1996 20.3302 3.96361 20.3715 3.74232 20.3026C3.5702 20.2505 3.37346 20.2153 3.08824 20.2352C2.60632 20.2689 2.11458 20.2858 1.62774 20.3133C1.46054 20.3225 1.27854 20.3164 1.20478 20.2643C1.1556 20.2276 1.29822 20.177 1.4605 20.1663C1.70638 20.151 1.92765 20.1326 2.05059 20.056C2.16861 19.9794 2.38496 19.9564 2.64067 19.9457C2.70951 19.9426 2.78825 19.9242 2.82268 19.9059C2.99971 19.817 3.19643 19.7404 3.57508 19.7435C3.73244 19.7129 3.81599 19.6746 3.76681 19.6378C3.7373 19.6179 3.63409 19.5918 3.57508 19.5949C3.16692 19.6102 2.75878 19.6255 2.36045 19.6531C2.17359 19.6654 2.0309 19.6684 1.91288 19.6225C1.82928 19.5918 1.87353 19.5505 2.0309 19.5061C2.16859 19.4678 2.20797 19.4233 2.19814 19.3713C2.17355 19.2502 2.02599 19.215 1.55391 19.2227C1.21459 19.2288 1.13099 19.2089 1.05723 19.1047C1.03756 19.0802 0.988468 19.0465 1.02289 19.0297C1.23435 18.9255 1.37205 18.7968 1.77037 18.7478C1.92773 18.7294 2.09486 18.7294 2.19321 18.6896C2.29156 18.6498 2.38012 18.6038 2.48339 18.5655C2.61125 18.5196 2.69968 18.4767 2.64067 18.4476C2.54232 18.3955 2.38501 18.3909 2.20306 18.4093C2.0457 18.4246 1.8785 18.4261 1.71622 18.4353C1.42609 18.4522 1.1901 18.4123 1.15568 18.3449C1.06224 18.1673 0.963861 17.9911 0.880263 17.8134C0.870428 17.792 0.894948 17.7644 0.934289 17.746C1.07198 17.6817 1.21957 17.6204 1.36217 17.5576C1.52937 17.4856 1.79496 17.4994 2.02117 17.4856C2.34081 17.4657 2.3407 17.4672 2.76853 17.3201C2.93573 17.2619 3.22588 17.2849 3.39799 17.2328C3.45209 17.216 3.53568 17.1884 3.52093 17.1731C3.50126 17.1532 3.40296 17.1379 3.3292 17.1287C3.26035 17.1195 3.17677 17.1149 3.10301 17.1195C2.20801 17.1639 1.31796 17.2114 0.422963 17.2543C0.270519 17.2619 0.103317 17.2283 0.0492236 17.1808C-0.00486954 17.1363 0.00983512 17.0827 0 17.0322C0.142609 16.9694 0.304826 16.9112 0.427765 16.8438C0.521199 16.7917 0.629405 16.7687 0.816272 16.7656C1.06215 16.761 1.30313 16.7427 1.57852 16.7289C2.08994 16.5052 2.5915 16.2709 3.14227 16.0472C3.36356 15.9568 3.30955 15.8649 3.35381 15.7684C3.39807 15.6796 3.72753 15.6934 3.94882 15.6673C4.12585 15.6459 4.18478 15.5969 4.11594 15.5632C4.0766 15.5432 3.98813 15.5203 3.91928 15.5203C3.757 15.5203 3.59473 15.5341 3.43245 15.5417C3.27017 15.5494 3.08331 15.5448 2.95054 15.5708C2.82268 15.5953 2.73903 15.6474 2.65544 15.6918C2.562 15.7408 2.43915 15.7577 2.25228 15.7608C2.01132 15.7638 1.77038 15.7776 1.52941 15.7883C1.26387 15.7286 0.988425 15.6704 0.732712 15.6076C0.683536 15.5953 0.673648 15.5601 0.678566 15.5371C0.688401 15.4774 0.614657 15.4406 0.452377 15.4115C0.314686 15.387 0.201572 15.3518 0.0737154 15.3211C0.172067 15.2798 0.280291 15.2399 0.358972 15.1955C0.531087 15.1021 0.747484 15.0347 1.12122 15.0378C1.26875 14.978 1.38673 14.9045 1.57852 14.8631C1.76047 14.8233 2.07029 14.8631 2.20798 14.7727C2.27683 14.7283 2.38015 14.6778 2.51293 14.6594C2.72438 14.6303 2.99976 14.6456 3.1227 14.5598C3.19646 14.5108 3.30461 14.4664 3.44722 14.4541C3.6095 14.4403 3.77665 14.4373 3.89467 14.4082C3.9586 14.3929 4.02745 14.3683 4.02745 14.3469C4.02745 14.3331 3.92918 14.3117 3.86033 14.3025C3.79641 14.2918 3.71271 14.2841 3.63895 14.2872C3.39307 14.2964 3.15211 14.3132 2.90624 14.3224C2.83739 14.3255 2.75873 14.3147 2.68497 14.3055C2.4686 14.281 2.48332 14.2504 2.65544 14.1953C2.82755 14.1416 2.95056 14.0727 3.09317 14.0099C3.25053 13.9992 3.4472 14.0038 3.55539 13.9747C3.73734 13.9272 3.86516 13.8582 4.01269 13.7985C4.17497 13.7893 4.34215 13.7863 4.4946 13.7694C4.55853 13.7633 4.58806 13.7296 4.64215 13.7097C4.7405 13.6714 4.82417 13.6162 4.95694 13.5978C5.17331 13.5703 5.43886 13.581 5.56671 13.4967C5.64048 13.4477 5.75354 13.3956 5.89123 13.3926C6.2748 13.3865 6.43708 13.3022 6.63379 13.2225C6.78131 13.1628 7.09605 13.1934 7.25833 13.1337C7.36651 13.0954 7.44524 13.0479 7.55343 13.0111C7.59769 12.9958 7.69109 12.9882 7.76485 12.9836C8.16809 12.9606 8.57623 12.9437 8.97947 12.9192C9.0434 12.9146 9.10246 12.8917 9.15164 12.8733C9.2549 12.8335 9.31876 12.7783 9.44662 12.7523C9.57447 12.7262 9.7564 12.7262 9.91376 12.7186C10.4203 12.6956 10.4597 12.7017 10.6908 12.5715C10.8776 12.4658 11.335 12.5409 11.4875 12.4245C11.576 12.3571 11.7382 12.3019 12.0283 12.2943C12.4365 12.2835 12.8397 12.2544 13.2479 12.2345C13.6118 12.2161 13.6069 12.2161 14.0003 12.0737C14.1773 12.0093 14.438 12.0185 14.6691 12.0063C14.915 11.994 15.1412 11.9757 15.2592 11.8991C15.3772 11.824 15.5936 11.7995 15.8444 11.7888C16.0755 11.778 16.3362 11.7857 16.5181 11.7244C16.9607 11.5774 16.9558 11.5758 17.2656 11.5605C17.7525 11.536 18.2393 11.5115 18.7261 11.4855C19.0507 11.4686 19.39 11.4655 19.6949 11.4318C19.9162 11.4073 20.0145 11.3216 20.1571 11.2618C20.5603 11.2388 20.9635 11.2159 21.3668 11.1944C21.9323 11.1638 22.5027 11.1362 23.0732 11.1071C23.319 11.0489 23.3535 10.9202 23.7666 10.9141C24.0125 10.911 24.2535 10.8911 24.4993 10.8789C24.9075 10.8574 25.3107 10.8298 25.7189 10.8191C26.0287 10.8115 26.0827 10.7287 26.245 10.6767C26.2991 10.6583 26.3483 10.6322 26.4122 10.6276C27.0515 10.5848 27.7104 10.5756 28.3349 10.5128C28.3989 10.5066 28.4579 10.4745 28.4726 10.4515C28.4825 10.4392 28.3989 10.4163 28.3448 10.4055C28.2808 10.3933 28.1973 10.381 28.1284 10.3841C26.0975 10.4867 24.0666 10.5909 22.0356 10.6935C21.7504 10.7088 21.7504 10.7073 21.057 10.8758C20.998 10.8896 20.9291 10.9049 20.8553 10.9095C20.5308 10.9279 20.2013 10.9386 19.8817 10.9616C19.621 10.98 19.4047 10.9616 19.2179 10.9064C19.0851 10.8666 18.9473 10.8544 18.7801 10.8574C18.5933 10.862 18.4704 10.8789 18.3622 10.9202C18.2196 10.9769 18.1458 11.0504 17.8459 11.0657C16.464 11.1316 15.0821 11.2051 13.7052 11.2756C13.5134 11.2542 13.42 11.222 13.4692 11.1837C13.4987 11.1607 13.5577 11.1301 13.6167 11.127C14.1822 11.0949 14.7526 11.0673 15.3182 11.0366C15.3968 11.0321 15.505 11.0351 15.5493 11.0198C15.7656 10.9508 15.8444 10.839 16.2526 10.8314C16.4886 10.8268 16.7295 10.8038 16.9557 10.7824C17.0197 10.7762 17.0787 10.7441 17.0935 10.7211C17.0984 10.7088 17.0197 10.6858 16.9607 10.6751C16.7443 10.6307 16.4936 10.6843 16.2772 10.6537C16.2034 10.643 16.1001 10.6276 16.0853 10.6093C16.0755 10.5924 16.1591 10.5648 16.2181 10.548C16.2722 10.5327 16.3459 10.5189 16.4197 10.5143C17.0688 10.4791 17.718 10.4423 18.3671 10.4147C18.6327 10.404 18.8195 10.3657 18.9375 10.2952C19.0261 10.2432 19.1342 10.2156 19.3014 10.2079C20.4374 10.1513 21.5733 10.0884 22.7142 10.0364C22.9994 10.0241 23.147 9.97357 23.265 9.9077C23.3584 9.85562 23.4667 9.83723 23.6486 9.82804C25.2763 9.74839 26.8941 9.65954 28.5219 9.58295C28.8218 9.56917 28.9104 9.5033 29.0628 9.44662C29.1169 9.42671 29.1513 9.4022 29.2201 9.38994C29.289 9.37769 29.3775 9.37921 29.4611 9.37614C30.7593 9.31028 32.0576 9.23983 33.3608 9.17855C33.6657 9.16477 33.7246 9.08817 33.882 9.03455C33.9361 9.0177 33.9853 8.99014 34.0492 8.98554C35.0229 8.93346 35.9965 8.88444 36.9702 8.83389C37.6193 8.80019 38.2684 8.76649 38.9175 8.73432C39.2372 8.719 39.2372 8.71746 39.6699 8.57194C39.7191 8.55509 39.788 8.53517 39.8519 8.53058C41.7206 8.43254 43.5843 8.33912 45.453 8.24261C45.6104 8.23495 45.7234 8.19971 45.8021 8.14762C45.8808 8.09554 45.994 8.06031 46.1464 8.05265C47.607 7.97606 49.0674 7.90101 50.5329 7.82901C50.7984 7.81676 50.9852 7.77999 51.1033 7.71106C51.1918 7.65898 51.3 7.63141 51.4672 7.62375C52.9277 7.55023 54.3883 7.47209 55.8537 7.40163C56.134 7.38784 56.2716 7.33577 56.4093 7.27449C56.4585 7.25305 56.4979 7.21781 56.5569 7.21475C57.2847 7.17186 58.0075 7.12744 58.7403 7.09833C59.0451 7.08608 59.1485 7.02174 59.2714 6.96046C59.3697 6.91145 59.4829 6.8946 59.6697 6.88847C60.0779 6.87469 60.4811 6.84866 60.8794 6.82262C60.9385 6.81802 61.0122 6.78432 61.0172 6.76287C61.027 6.72305 60.9138 6.69547 60.727 6.68168C58.7796 6.78125 56.8274 6.88081 54.88 6.98038C54.5604 6.99723 54.5604 6.99724 54.1276 7.14276C54.0785 7.15961 54.0096 7.17953 53.9407 7.18412C52.072 7.28063 50.2083 7.3756 48.3397 7.47211C48.1823 7.47976 48.0692 7.515 47.9905 7.56708C47.9119 7.61916 47.7987 7.65439 47.6462 7.66205C45.8611 7.75396 44.0761 7.8474 42.2861 7.93472C42.0206 7.94697 41.8337 7.98219 41.7157 8.05265C41.6272 8.10473 41.519 8.13232 41.3518 8.13998C39.6454 8.22576 37.9439 8.31613 36.2326 8.39884C36.0605 8.4065 35.9327 8.36208 35.9425 8.32072C35.9474 8.29927 36.0211 8.26406 36.0801 8.26099C36.9702 8.21044 37.8554 8.15836 38.7504 8.12006C39.0504 8.10781 39.1388 8.0404 39.2913 7.98373C39.3405 7.96381 39.3798 7.93777 39.4437 7.92705C39.5126 7.9148 39.6011 7.91633 39.6847 7.91327C41.7943 7.80451 43.904 7.69422 46.0186 7.59159C46.3235 7.57627 46.3824 7.5012 46.5398 7.44759C46.5938 7.42921 46.6431 7.40164 46.707 7.39858C47.3561 7.36182 48.0052 7.32964 48.6543 7.29748C49.7903 7.23927 50.9262 7.18106 52.0671 7.12285C52.3966 7.106 52.3966 7.10599 52.8195 6.962C52.8687 6.94515 52.9376 6.92372 53.0015 6.92065C56.0061 6.76594 59.0108 6.61122 62.0154 6.45804C62.1728 6.45038 62.2859 6.41515 62.3646 6.36307C62.4432 6.31252 62.5563 6.27576 62.7088 6.26657C66.7707 6.05824 70.8277 5.8499 74.8896 5.64464C75.1551 5.63085 75.3419 5.59868 75.46 5.52669C75.5436 5.4746 75.6567 5.44704 75.8239 5.43785C80.289 5.20961 84.7542 4.98137 89.2242 4.7516C92.2289 4.59841 95.2335 4.44217 98.2382 4.29205C98.5135 4.27826 98.661 4.23077 98.7987 4.16796C98.843 4.14652 98.8872 4.11128 98.9463 4.10822C99.5905 4.06993 100.235 4.0347 100.879 3.99947C101.08 4.04083 101.282 4.08066 101.484 4.12202C101.636 4.06381 101.784 4.00407 101.936 3.94586C102.91 3.90143 103.869 3.8325 104.852 3.81106C104.916 3.80953 104.985 3.83863 105.054 3.85395C105.511 3.95046 105.772 3.9428 106.062 3.81412C106.165 3.76817 106.254 3.72681 106.411 3.71915C106.898 3.69158 107.39 3.6732 107.872 3.64103C108.132 3.62418 108.349 3.63949 108.535 3.69464C108.668 3.73446 108.806 3.75132 108.968 3.74213C109.863 3.69618 110.753 3.65175 111.648 3.60273C111.712 3.59967 111.771 3.57362 111.82 3.55524C111.924 3.51541 112.012 3.47253 112.111 3.43117C112.243 3.45721 112.391 3.47713 112.499 3.51083C112.637 3.55065 112.765 3.55064 112.951 3.53992C116.522 3.35457 120.097 3.17382 123.667 2.98694C123.972 2.97162 124.105 3.03596 124.311 3.06966C124.38 3.08192 124.449 3.09723 124.522 3.10029C124.601 3.10335 124.685 3.09417 124.763 3.08958C127.444 2.95171 130.124 2.81537 132.804 2.67751C133.158 2.65913 133.158 2.65913 133.684 2.7541C133.748 2.76635 133.831 2.78014 133.9 2.77555C135.12 2.71581 136.339 2.65148 137.554 2.5902C137.711 2.58254 137.844 2.60705 137.987 2.64228C138.267 2.71121 138.287 2.71122 138.493 2.61012C138.592 2.56263 138.695 2.53351 138.857 2.51973C139.034 2.50441 139.177 2.50902 139.315 2.53659C139.511 2.57489 139.654 2.63921 139.954 2.62236C141.252 2.55037 142.555 2.49063 143.849 2.41711C144.144 2.40026 144.301 2.45234 144.498 2.49063C144.567 2.50442 144.63 2.52586 144.704 2.53046C144.778 2.53505 144.866 2.52432 144.945 2.51973C146.568 2.43701 148.196 2.35584 149.813 2.26699C150.118 2.25014 150.251 2.316 150.458 2.3497C150.527 2.36195 150.605 2.38341 150.669 2.38034C151.643 2.33286 152.622 2.28229 153.595 2.23174C153.944 2.21336 153.944 2.21489 154.475 2.30833C154.539 2.32059 154.623 2.33285 154.692 2.32978C155.828 2.27311 156.969 2.2149 158.105 2.15669C158.454 2.1383 158.454 2.13831 159.462 2.21796C159.536 2.22409 159.614 2.23329 159.688 2.23023C160.986 2.16436 162.289 2.10002 163.588 2.02955C163.848 2.01577 164.065 2.02802 164.252 2.08316C164.384 2.12299 164.522 2.13985 164.684 2.13066C166.145 2.0556 167.61 1.98361 169.066 1.90395C169.346 1.88863 169.528 1.92232 169.725 1.96674C169.789 1.98206 169.853 2.00351 169.926 2.00964C170 2.01576 170.084 2.00963 170.162 2.00504C171.623 1.92998 173.088 1.85952 174.544 1.77833C174.839 1.76148 174.996 1.81356 175.193 1.85186C175.262 1.86564 175.336 1.89322 175.395 1.89168C175.965 1.86564 176.536 1.84267 177.101 1.80438C177.406 1.78293 177.539 1.85338 177.745 1.88708C177.814 1.89781 177.893 1.9208 177.957 1.91773C179.176 1.85799 180.396 1.79519 181.611 1.73086C181.783 1.72166 181.91 1.73544 182.048 1.77527C182.23 1.82888 182.442 1.85032 182.707 1.83347C183.273 1.79824 183.843 1.77374 184.414 1.74464C184.748 1.72779 184.748 1.72779 185.771 1.80745C185.845 1.81357 185.923 1.82276 185.997 1.81969C186.971 1.77068 187.949 1.72319 188.918 1.66958C189.179 1.65426 189.395 1.66804 189.582 1.72319C189.715 1.76302 189.847 1.77987 190.015 1.77068C190.91 1.72473 191.8 1.67877 192.695 1.63282C193.019 1.61597 193.344 1.58685 193.668 1.58685C193.904 1.58839 194.077 1.66191 194.288 1.69867C194.347 1.7094 194.445 1.69716 194.524 1.69409C195.66 1.63588 196.801 1.58227 197.932 1.5164C198.227 1.49955 198.384 1.55163 198.581 1.58992C198.65 1.60371 198.724 1.63128 198.783 1.62975C199.191 1.6129 199.594 1.58992 200.002 1.57001C200.489 1.5455 200.981 1.52712 201.463 1.49342C201.856 1.46584 202.004 1.59911 202.318 1.6037C202.559 1.6083 202.805 1.58226 203.046 1.57001C203.533 1.5455 204.02 1.51793 204.507 1.49648C204.679 1.48882 204.812 1.4643 204.866 1.40916C204.876 1.39844 204.792 1.37547 204.738 1.36168C204.084 1.20544 204.084 1.20543 203.425 1.23913C203.017 1.26057 202.613 1.28202 202.205 1.30041C202.136 1.30347 202.058 1.29122 201.989 1.28202C201.792 1.25598 201.812 1.22535 201.979 1.1702C202.146 1.11506 202.274 1.04767 202.417 0.984861C202.618 1.02469 202.815 1.0645 203.017 1.10433C203.179 1.09667 203.341 1.08749 203.504 1.07983C204.315 1.04001 205.126 0.998643 205.938 0.96188C205.997 0.958816 206.07 0.989457 206.139 1.00477C206.336 1.0492 206.513 1.08748 206.798 1.07063C207.526 1.02621 208.259 0.994042 208.987 0.955746C209.306 0.938896 209.306 0.938898 209.867 1.03387C209.931 1.04459 210.014 1.05685 210.083 1.05378C210.816 1.01855 211.544 0.980262 212.276 0.943499C212.434 0.935839 212.586 0.955752 212.699 1.00018C212.744 1.01856 212.734 1.04919 212.921 1.30041C213.501 1.50414 213.899 1.4827 214.302 1.46432C214.475 1.45666 214.627 1.44899 214.74 1.41836C214.799 1.40151 214.873 1.377 214.873 1.35708C214.873 1.34176 214.765 1.31725 214.696 1.31419C214.209 1.28355 213.747 1.3479 213.27 1.36168C213.048 1.36781 212.857 1.31419 212.817 1.22688C212.808 1.20237 212.793 1.17633 212.778 1.15182C212.763 1.12731 212.753 1.10127 212.739 1.07677C212.547 1.06911 212.434 1.09668 212.35 1.14876C212.281 1.19165 212.183 1.24067 212.05 1.26364C211.917 1.28815 211.735 1.28357 211.573 1.29122C211.416 1.29888 211.244 1.31879 211.096 1.30807C210.949 1.29582 210.831 1.25139 210.693 1.22381C210.629 1.21003 210.55 1.19012 210.486 1.19319C209.921 1.21923 209.36 1.24526 208.8 1.27896C208.505 1.29734 208.357 1.23301 208.17 1.19319C208.023 1.16255 207.875 1.1702 207.851 1.24066C207.787 1.40916 208.013 1.47962 208.514 1.44745C208.928 1.41988 209.301 1.4153 209.626 1.51946C209.67 1.53325 209.773 1.53937 209.837 1.53631C210.241 1.51793 210.639 1.49495 211.042 1.47657C211.116 1.4735 211.195 1.47962 211.263 1.48575C212.267 1.56847 212.267 1.57001 212.606 1.55163C212.768 1.54243 212.926 1.53477 212.911 1.30194C213.221 1.05225 213.712 1.03541 214.189 0.998642C214.499 0.975664 214.632 1.04307 214.833 1.0783C214.902 1.09055 214.976 1.11506 215.04 1.11199C216.097 1.06144 217.15 1.00782 218.202 0.951146C218.379 0.941955 218.507 0.951148 218.645 0.990975C218.822 1.04153 219.018 1.0737 219.299 1.05532C219.859 1.01855 220.43 0.995583 221 0.964946C221.29 0.949628 221.29 0.949612 221.875 1.04459C221.939 1.05531 222.023 1.06756 222.092 1.0645C222.662 1.03846 223.228 1.0063 223.793 0.978727C223.951 0.971068 224.093 0.992511 224.216 1.03387C224.339 1.07523 224.487 1.09667 224.639 1.08901C225.21 1.06144 225.775 1.03081 226.341 1.00324C226.41 1.00018 226.493 1.0109 226.557 1.02162C227.157 1.1166 227.157 1.11658 227.432 1.10126C227.836 1.07828 228.249 1.06757 228.647 1.03694C229.035 1.0063 229.237 1.09514 229.503 1.14416C230.23 1.10893 230.963 1.07983 231.686 1.03694C231.981 1.01856 232.138 1.0691 232.335 1.10893C232.404 1.12271 232.473 1.15182 232.537 1.15029C232.783 1.14416 233.024 1.12732 233.265 1.11506C233.506 1.10281 233.751 1.09055 233.992 1.0783C234.268 1.12272 234.45 1.22688 234.843 1.19165C235.079 1.17021 235.33 1.16561 235.571 1.15336C235.812 1.1411 236.058 1.12885 236.299 1.11659C236.461 1.10894 236.628 1.10433 236.786 1.09055C237.076 1.06757 237.218 1.14264 237.425 1.17634C237.494 1.18706 237.572 1.20543 237.636 1.20237C238.123 1.18092 238.615 1.16254 239.092 1.12731C239.461 1.09974 239.711 1.1457 239.972 1.21003C240.026 1.22382 240.12 1.23148 240.188 1.22841C240.759 1.20237 241.324 1.1702 241.89 1.14262C242.042 1.13496 242.19 1.15947 242.313 1.1993C242.441 1.24066 242.583 1.26059 242.741 1.25293C243.306 1.22536 243.877 1.19471 244.442 1.16714C244.511 1.16407 244.595 1.17633 244.659 1.18859C245.209 1.28356 245.209 1.28509 245.534 1.26671C245.613 1.26211 245.696 1.25904 245.775 1.25444C246.178 1.233 246.596 1.22535 246.989 1.18859C247.442 1.14723 247.771 1.19931 248.091 1.28662C248.494 1.26824 248.907 1.25752 249.301 1.22688C249.596 1.2039 249.753 1.26211 249.95 1.30041C250.019 1.31419 250.092 1.34176 250.151 1.3387C250.722 1.31266 251.292 1.28969 251.853 1.2514C252.158 1.22995 252.291 1.29887 252.497 1.3341C252.566 1.34636 252.64 1.36781 252.704 1.36475C253.028 1.35249 253.353 1.3341 253.677 1.31725C254.056 1.29734 254.056 1.29887 254.558 1.39231C254.794 1.43673 255.03 1.4015 255.261 1.39078C255.507 1.37852 255.738 1.36933 255.935 1.43214C256.057 1.47197 256.205 1.49648 256.357 1.49035C256.682 1.47656 257.012 1.46278 257.331 1.43981C257.587 1.42142 257.808 1.43367 257.995 1.49035C258.128 1.53018 258.265 1.5501 258.428 1.54091C259.156 1.50415 259.888 1.46584 260.616 1.43061C260.68 1.42754 260.768 1.44133 260.827 1.45512C260.965 1.48269 261.098 1.51332 261.231 1.54396C261.55 1.53017 261.88 1.52406 262.195 1.50262C262.529 1.48117 262.834 1.47351 263.095 1.55776C263.149 1.57614 263.227 1.60217 263.291 1.60064C263.537 1.59451 263.778 1.57919 264.019 1.56694C264.26 1.55469 264.506 1.54243 264.747 1.53018C265.027 1.56847 265.204 1.67876 265.598 1.64353C265.834 1.62209 266.084 1.61749 266.325 1.60524C266.566 1.59298 266.812 1.5792 267.053 1.56847C267.132 1.56541 267.22 1.55775 267.289 1.56387C267.363 1.57 267.427 1.59145 267.491 1.60677C267.687 1.65119 267.869 1.69562 268.15 1.66958C268.386 1.64813 268.637 1.64354 268.878 1.62975C269.207 1.6129 269.207 1.6129 269.753 1.70941C269.974 1.74923 270.225 1.69716 270.436 1.73086C270.579 1.75383 270.702 1.79212 270.84 1.81816C270.899 1.82888 270.992 1.83347 271.061 1.83041C271.385 1.81662 271.715 1.80284 272.035 1.77987C272.295 1.76148 272.512 1.77986 272.694 1.83501C272.826 1.87484 272.959 1.89169 273.126 1.8825C273.938 1.83961 274.749 1.80284 275.556 1.75535C275.831 1.7385 276.052 1.76455 276.205 1.81969C276.465 1.91467 276.834 1.80285 277.105 1.87944C277.272 1.92692 277.439 1.98207 277.744 1.95909C278.305 1.91927 278.875 1.89781 279.44 1.87024C279.642 1.9116 279.844 1.95296 280.05 1.99432C280.375 1.97747 280.699 1.96061 281.024 1.94529C281.265 1.93304 281.511 1.91926 281.752 1.90853C281.83 1.90547 281.914 1.89934 281.988 1.907C282.061 1.91466 282.121 1.93458 282.189 1.94989C282.529 2.02495 282.529 2.02649 283.089 1.99586C283.33 1.98207 283.561 1.97288 283.763 2.03415C283.95 2.09083 284.171 2.10155 284.427 2.0847C284.909 2.05406 285.396 2.03108 285.887 2.00964C286.04 2.00198 286.182 2.02802 286.31 2.06785C286.502 2.13065 286.738 2.12453 286.979 2.10768C287.299 2.08623 287.613 2.06479 287.884 2.15057C287.938 2.16895 288.022 2.19498 288.081 2.19345C288.484 2.18119 288.892 2.17201 289.285 2.14291C289.679 2.1138 289.871 2.20877 290.141 2.25472C290.544 2.23481 290.952 2.2149 291.356 2.19498C291.434 2.19039 291.528 2.17661 291.597 2.18427C291.887 2.21644 292.054 2.33132 292.452 2.29609C292.683 2.27617 292.934 2.27005 293.175 2.26546C293.239 2.26393 293.323 2.28995 293.367 2.30987C293.392 2.32059 293.367 2.34969 293.338 2.36501C293.249 2.4079 293.141 2.44774 293.062 2.49216C293.052 2.49829 293.146 2.52585 293.2 2.53811C293.333 2.56568 293.485 2.5611 293.662 2.54884C293.814 2.53812 293.972 2.55956 294.08 2.60552C294.124 2.6239 294.11 2.65453 294.016 2.75563C294.016 2.83069 294.119 2.79698 294.154 2.74797C294.208 2.6775 294.105 2.65453 293.908 2.69282C293.77 2.7204 293.701 2.76023 293.736 2.79239C293.756 2.80924 293.849 2.83069 294.016 2.75563C294.449 2.66372 294.773 2.64688 295.098 2.63003C295.182 2.62544 295.28 2.61011 295.339 2.6193C295.55 2.65606 295.747 2.70049 295.954 2.74185C296.19 2.73266 296.411 2.70967 296.642 2.76941C296.967 2.85366 296.981 2.84601 297.296 2.82916C297.458 2.81997 297.621 2.81232 297.783 2.80466C297.945 2.797 298.073 2.81997 298.216 2.8552C298.506 2.9272 298.53 2.92719 298.722 2.82916C298.835 2.76942 298.914 2.74951 299.057 2.77708C299.529 2.87052 299.534 2.87664 299.937 2.84907C300.271 2.82609 300.586 2.81997 300.832 2.90728C300.999 2.96855 301.053 2.95477 301.186 2.89043C301.54 2.7204 301.702 2.72346 302.366 2.846C302.676 2.90421 302.996 2.84142 303.31 2.83376C303.576 2.82763 303.763 2.86439 303.782 2.96089C303.797 3.02063 303.841 3.06353 304.018 3.08344C304.087 3.0911 304.171 3.10182 304.24 3.09876C304.648 3.08038 305.051 3.05893 305.459 3.03748C305.666 3.02676 305.779 2.95478 305.74 2.8598C305.695 2.7587 305.774 2.72193 306.069 2.69282C306.246 2.67597 306.389 2.67905 306.531 2.70662C306.689 2.73726 306.644 2.76483 306.507 2.81998C306.177 2.95478 306.217 3.03748 306.64 3.13092C306.787 3.16309 306.905 3.19221 306.939 3.23969C306.959 3.2642 306.939 3.29637 306.984 3.31475C307.225 3.41738 307.559 3.48326 307.933 3.53227C308.292 3.49092 308.538 3.55983 308.813 3.61498C309.029 3.65787 309.285 3.62112 309.516 3.6058C309.777 3.58895 309.993 3.6012 310.18 3.65788C310.313 3.6977 310.451 3.71608 310.613 3.70842C310.937 3.69157 311.267 3.68085 311.587 3.65634C311.862 3.6349 312.068 3.66554 312.241 3.71762C312.457 3.78349 312.698 3.73906 312.924 3.74825C313.229 3.75897 313.382 3.8953 313.78 3.85853C314.016 3.83709 314.262 3.82943 314.508 3.8233C314.572 3.82177 314.65 3.84782 314.704 3.8662C314.965 3.95045 315.27 3.94585 315.604 3.92134C315.835 3.90449 316.062 3.88918 316.288 3.94739C316.661 4.04543 317.075 4.13122 317.468 4.22159C317.522 4.29206 317.483 4.37476 317.763 4.41612C317.911 4.43756 318.048 4.46974 318.161 4.50497C318.299 4.54633 318.427 4.55706 318.604 4.54634C318.924 4.52489 319.258 4.52028 319.573 4.49271C319.863 4.4682 320.045 4.51876 320.222 4.56625C320.364 4.60455 320.497 4.62292 320.669 4.59535C320.846 4.56931 320.974 4.58615 321.117 4.62751C321.318 4.68419 321.333 4.67807 322.002 4.69492C322.071 4.69645 322.154 4.71942 322.194 4.73933C322.213 4.75005 322.169 4.78071 322.135 4.79602C322.091 4.81441 322.022 4.83584 321.958 4.84043C321.23 4.88026 320.497 4.91549 319.769 4.95532C319.696 4.95992 319.617 4.97065 319.563 4.98597C319.504 5.00282 319.43 5.02578 319.43 5.04723C319.43 5.06254 319.528 5.08093 319.597 5.09165C319.814 5.12689 320.069 5.07327 320.281 5.1131C320.423 5.13914 320.541 5.1759 320.684 5.20041C320.743 5.21113 320.837 5.2096 320.91 5.20654C321.156 5.19582 321.397 5.1805 321.643 5.17131C321.712 5.16978 321.791 5.1851 321.854 5.19736C322.327 5.28927 322.327 5.28926 322.735 5.26935C322.897 5.26169 323.069 5.23871 323.222 5.2479C323.369 5.25709 323.497 5.29845 323.63 5.32449C323.905 5.37964 324.166 5.43325 324.185 5.55273C324.195 5.59869 324.357 5.63851 324.52 5.64157C324.677 5.64464 324.844 5.6278 325.007 5.61861C325.39 5.60023 325.39 5.60023 325.887 5.69367C326.025 5.71971 326.172 5.72277 326.349 5.70745C326.418 5.70132 326.502 5.70746 326.575 5.71511C326.816 5.73809 326.816 5.76719 326.659 5.82233C326.438 5.90352 326.457 5.91118 327.077 5.98012C327.313 6.00616 327.495 6.05518 327.692 6.09807C328.011 6.167 328.006 6.16699 327.795 6.25737C327.746 6.27728 327.701 6.29873 327.652 6.32018C327.51 6.37992 327.397 6.44425 327.101 6.45038C326.777 6.4565 326.452 6.48102 326.128 6.49787C325.813 6.51472 325.729 6.55147 325.759 6.65563C325.793 6.78124 325.857 6.79503 326.423 6.7935C326.585 6.7935 326.728 6.80575 326.851 6.84711C326.792 6.89613 326.684 6.93443 326.526 6.94362C326.123 6.96659 325.715 6.98651 325.312 7.00643C324.987 7.02328 324.662 7.04012 324.338 7.05697C324.136 7.06769 324.008 7.14735 324.062 7.2362C324.092 7.28675 324.116 7.3373 324.141 7.38785C324.195 7.48895 324.298 7.515 324.628 7.5104C324.712 7.50887 324.79 7.4966 324.869 7.49967C325.189 7.51039 325.341 7.63753 325.725 7.61149C326.044 7.59004 326.379 7.58545 326.693 7.55788C326.984 7.53337 327.146 7.58853 327.347 7.62989C327.416 7.64367 327.49 7.67276 327.549 7.67123C327.957 7.65438 328.365 7.63754 328.764 7.60844C328.951 7.59618 329.064 7.60537 329.211 7.64213C329.565 7.73098 329.575 7.72638 330.101 7.69881C330.485 7.67737 330.49 7.68043 330.981 7.77387C331.119 7.79991 331.267 7.7999 331.444 7.78765C331.675 7.77233 331.916 7.74782 332.157 7.7708C332.23 7.77693 332.324 7.79532 332.349 7.81523C332.363 7.82902 332.294 7.86272 332.235 7.87344C331.803 7.95309 331.296 7.93931 330.824 7.97148C330.677 7.98067 330.529 7.95156 330.406 7.9102C330.278 7.86884 330.141 7.852 329.973 7.85966C329.649 7.87651 329.319 7.88723 329 7.91174C328.724 7.93318 328.532 7.89795 328.341 7.85046C328.277 7.83514 328.203 7.80603 328.139 7.80756C327.411 7.8382 326.679 7.86884 325.956 7.91174C325.666 7.93012 325.498 7.8811 325.302 7.83975C325.233 7.82596 325.164 7.79685 325.1 7.79838C324.854 7.80451 324.613 7.82136 324.367 7.83361C323.472 7.87957 322.582 7.92552 321.687 7.96841C321.628 7.97148 321.554 7.9393 321.486 7.92552C321.353 7.89794 321.215 7.8719 321.077 7.84586C320.832 7.85811 320.591 7.87343 320.345 7.88262C320.168 7.88875 320.01 7.9102 319.986 7.96841C319.971 8.00671 320.133 8.04193 320.305 8.03887C320.473 8.03581 320.64 8.01742 320.778 8.03734C321.461 8.13537 321.461 8.13691 321.889 8.11699C322.263 8.09861 322.223 8.08329 322.553 8.16754C322.695 8.2043 322.823 8.22576 322.986 8.21657C323.389 8.19512 323.797 8.17367 324.205 8.15529C324.269 8.15223 324.353 8.16755 324.416 8.1798C324.898 8.27171 324.898 8.27477 325.297 8.2518C325.818 8.22422 325.838 8.21656 326.187 8.31C326.428 8.37434 326.649 8.32992 326.88 8.32685C327.146 8.38659 327.436 8.44022 327.677 8.50762C327.962 8.58727 328.262 8.57347 328.587 8.55049C328.828 8.53364 329.064 8.52752 329.26 8.59032C329.447 8.64853 329.673 8.65467 329.929 8.63935C330.16 8.62556 330.396 8.59645 330.637 8.63015C330.701 8.63934 330.799 8.66233 330.795 8.67611C330.79 8.69756 330.726 8.7282 330.662 8.73739C330.209 8.80019 329.713 8.79866 329.236 8.82776C329.172 8.83236 329.088 8.8155 329.024 8.80325C328.887 8.77567 328.754 8.74351 328.621 8.71441C328.38 8.7236 328.134 8.72665 327.898 8.74504C327.716 8.75882 327.578 8.7573 327.446 8.72054C327.323 8.68684 327.19 8.64547 327.043 8.63475C326.895 8.62403 326.723 8.64701 326.561 8.6562C326.398 8.66539 326.211 8.66078 326.084 8.68529C325.956 8.7098 325.877 8.76342 325.793 8.80631C325.7 8.8538 325.572 8.86913 325.385 8.87372C325.213 8.87832 325.075 8.87218 324.948 8.82929C324.894 8.81091 324.82 8.79712 324.746 8.78486C324.677 8.77414 324.598 8.75729 324.535 8.76035C323.802 8.79558 323.074 8.83389 322.341 8.87066C321.977 8.88904 321.982 8.88902 321.225 8.79865C321.156 8.79099 321.073 8.78027 321.004 8.78333C320.596 8.80171 320.192 8.82316 319.784 8.84461C319.371 8.86605 319.376 8.86299 318.673 8.76648C318.545 8.7481 318.358 8.77261 318.206 8.76955C317.886 8.76189 317.729 8.63322 317.355 8.65773C317.035 8.67918 316.701 8.68377 316.381 8.71134C316.091 8.73585 315.924 8.68224 315.727 8.64088C315.658 8.6271 315.585 8.59646 315.525 8.59952C314.793 8.63322 314.065 8.67152 313.091 8.67611C312.85 8.67611 312.959 8.70828 313.116 8.71901C313.342 8.73586 313.416 8.70369 313.293 8.64242C313.204 8.59953 313.077 8.57806 312.973 8.58879C312.919 8.59491 312.85 8.62403 313.091 8.67611C313.347 8.73432 313.332 8.76648 313.377 8.78486C313.485 8.82929 313.637 8.84767 313.795 8.84154C314.04 8.83082 314.281 8.8155 314.527 8.80631C314.596 8.80325 314.68 8.81397 314.744 8.82623C315.285 8.9212 315.29 8.92733 315.865 8.89057C316.047 8.87985 316.18 8.87985 316.322 8.90895C316.519 8.94878 316.662 9.01617 316.962 8.99472C317.36 8.96562 317.768 8.94878 318.176 8.93193C318.24 8.92887 318.309 8.95644 318.383 8.96869C318.584 9.00546 318.732 9.07439 319.032 9.04529C319.263 9.02231 319.514 9.01617 319.76 9.01157C319.823 9.01004 319.922 9.03455 319.951 9.05447C320.01 9.0897 319.937 9.13107 319.769 9.16017C319.701 9.17243 319.607 9.16936 319.528 9.17395C319.204 9.1908 318.879 9.20918 318.555 9.22296C318.383 9.23062 318.22 9.25361 318.201 9.31029C318.186 9.34858 318.363 9.38227 318.53 9.37921C318.776 9.37462 319.022 9.36236 319.258 9.34245C319.676 9.30875 320.04 9.31793 320.379 9.41444C320.62 9.48184 320.605 9.45734 320.861 9.65648C320.925 9.70703 321.117 9.71162 321.284 9.70856C321.687 9.7009 321.874 9.72388 321.84 9.77137C321.795 9.82957 321.653 9.84795 321.471 9.8556C321.146 9.86786 320.822 9.88778 320.497 9.90463C320.419 9.90923 320.33 9.91841 320.256 9.91535C320.182 9.91228 320.114 9.8939 320.05 9.88012C319.912 9.85101 319.794 9.80658 319.646 9.79586C319.499 9.78514 319.327 9.80812 319.165 9.81731C319.002 9.82497 318.83 9.84795 318.683 9.83722C318.535 9.8265 318.412 9.78056 318.279 9.75298C318.215 9.7392 318.137 9.71774 318.073 9.71927C317.748 9.73152 317.424 9.75145 317.099 9.76677C316.701 9.78668 316.701 9.78668 316.219 9.69171C316.081 9.66413 315.939 9.66567 315.757 9.67793C315.363 9.70244 315.358 9.69783 314.64 9.60898C314.572 9.59979 314.488 9.58907 314.419 9.59367C313.686 9.6289 312.959 9.66719 312.231 9.70396C311.606 9.73612 311.606 9.73614 311.262 9.88932C311.006 10.0027 311.001 10.0027 311.252 10.0547C311.454 10.0976 311.636 10.1604 311.857 10.1834C312.064 10.2049 312.319 10.1359 312.546 10.2064C312.659 10.2416 312.806 10.2799 312.949 10.2861C313.175 10.2937 313.416 10.2493 313.632 10.3167C313.74 10.3504 313.903 10.3856 314.04 10.3872C314.281 10.3902 314.527 10.3657 314.768 10.355C314.842 10.3519 314.926 10.3519 314.994 10.3596C315.068 10.3688 315.132 10.3872 315.196 10.4025C315.393 10.4546 315.604 10.4791 315.86 10.453C316.278 10.4101 316.652 10.4316 316.976 10.5296C317.021 10.5434 317.129 10.5449 317.198 10.5388C317.375 10.5235 317.527 10.522 317.66 10.5511C317.714 10.5633 317.793 10.5847 317.783 10.5985C317.768 10.6215 317.709 10.6521 317.645 10.6598C317.183 10.7119 316.686 10.718 316.209 10.7456C316.145 10.7487 316.067 10.7287 316.003 10.715C315.865 10.6874 315.747 10.6414 315.599 10.6307C315.452 10.62 315.28 10.6399 315.117 10.6476C314.955 10.6552 314.783 10.6782 314.635 10.669C314.488 10.6583 314.35 10.62 314.232 10.5863C314.095 10.548 313.962 10.5434 313.78 10.5587C313.544 10.5786 313.298 10.5817 313.057 10.5924C312.924 10.5633 312.791 10.5311 312.654 10.5036C312.59 10.4898 312.511 10.4729 312.442 10.4745C312.118 10.4867 311.793 10.5051 311.469 10.5219C311.144 10.5388 311.144 10.5388 310.593 10.4438C310.529 10.4331 310.446 10.4209 310.377 10.4239C309.969 10.4423 309.565 10.4653 309.157 10.4836C309 10.4913 308.857 10.4699 308.73 10.4285C308.607 10.3871 308.459 10.3642 308.307 10.3718C307.657 10.404 307.008 10.4346 306.359 10.4729C306.099 10.4882 305.877 10.4745 305.7 10.4193C305.494 10.3565 305.263 10.3718 305.022 10.3841C304.476 10.4147 304.471 10.4132 304.122 10.3351C304.053 10.3197 303.984 10.2906 303.92 10.2922C303.355 10.3151 302.784 10.3366 302.224 10.3734C301.929 10.3933 301.771 10.3397 301.574 10.2998C301.506 10.286 301.432 10.2569 301.373 10.26C300.965 10.2769 300.556 10.2922 300.158 10.3228C299.76 10.3535 299.607 10.211 299.307 10.2125C298.899 10.2141 298.496 10.2493 298.093 10.2707C297.768 10.2876 297.444 10.3044 297.119 10.3213C296.795 10.3381 296.47 10.3519 296.145 10.3718C295.973 10.3825 295.845 10.3688 295.703 10.3305C295.521 10.2799 295.305 10.2401 295.108 10.1941C294.808 10.1283 294.808 10.1283 294.444 10.1467C294.365 10.1512 294.282 10.1543 294.203 10.1589C293.608 10.1926 293.608 10.1895 292.851 10.093C292.816 10.0884 292.728 10.1053 292.693 10.1176C292.59 10.1574 292.497 10.2003 292.403 10.2416C292.27 10.2171 292.108 10.2033 292.02 10.1681C291.769 10.0685 291.375 10.2049 291.12 10.1068C291.026 10.0701 290.864 10.0379 290.716 10.0287C290.564 10.0195 290.392 10.041 290.234 10.0501C289.826 10.0731 289.826 10.0716 289.477 10.2079C289.3 10.2753 289.044 10.2631 288.813 10.2784C288.572 10.2952 288.341 10.3044 288.14 10.2416C287.958 10.1849 287.736 10.1712 287.476 10.1895C287.156 10.2125 286.827 10.2263 286.502 10.2401C286.433 10.2432 286.35 10.2355 286.281 10.2263C285.528 10.1359 285.528 10.1344 285.164 10.1543C285.002 10.1635 284.835 10.1666 284.678 10.1803C284.412 10.2049 284.211 10.1727 284.019 10.1237C283.955 10.1084 283.881 10.0793 283.817 10.0808C283.492 10.0885 283.173 10.1022 282.853 10.116C282.607 10.1267 282.361 10.1329 282.125 10.1543C281.732 10.1896 281.54 10.09 281.27 10.044C280.867 10.0639 280.458 10.0777 280.055 10.1053C279.868 10.1175 279.745 10.113 279.603 10.0762C279.421 10.0302 279.254 9.97816 278.959 10.0011C278.565 10.0318 278.152 10.0425 277.749 10.0609C277.478 10.0134 277.282 9.91688 276.893 9.95211C276.657 9.97355 276.406 9.97815 276.165 9.9904C275.841 10.0073 275.516 10.0226 275.192 10.041C274.843 10.0593 274.848 10.0548 274.311 9.96438C274.002 9.91076 273.682 9.9705 273.367 9.97969C273.121 9.98735 272.998 10.0578 273.057 10.1482C273.117 10.2386 272.984 10.309 272.757 10.3213C272.192 10.3504 271.622 10.381 271.056 10.4071C270.987 10.4101 270.904 10.3994 270.84 10.3887C270.235 10.2922 270.235 10.2937 269.964 10.3075C269.561 10.3305 269.148 10.3427 268.75 10.3718C268.474 10.3917 268.273 10.3596 268.096 10.3075C267.958 10.2677 267.83 10.2585 267.653 10.2677C265.706 10.3703 263.758 10.4653 261.816 10.571C261.526 10.5863 261.359 10.5419 261.162 10.5005C261.093 10.4867 261.029 10.4576 260.96 10.4576C260.798 10.4576 260.636 10.4714 260.473 10.4806C259.746 10.5174 259.018 10.5618 258.285 10.5894C257.975 10.6016 257.892 10.6721 257.759 10.7303C257.656 10.7747 257.538 10.7931 257.356 10.7992C257.179 10.8053 257.051 10.7977 256.913 10.7578C256.736 10.7058 256.535 10.6736 256.259 10.695C255.939 10.7195 255.615 10.7303 255.285 10.7471C255.118 10.7548 254.99 10.7824 254.936 10.8375C254.926 10.8467 255.03 10.8697 255.089 10.8835C255.285 10.9294 255.472 10.983 255.694 11.0152C255.92 11.0474 256.166 11.0106 256.402 11.0014C256.485 10.9983 256.564 10.9892 256.643 10.9907C256.716 10.9922 256.805 10.9999 256.859 11.0137C257.115 11.0826 257.385 11.1301 257.739 11.0887C258.044 11.1086 258.202 11.2358 258.59 11.2021C258.826 11.1822 259.072 11.173 259.318 11.1653C259.382 11.1638 259.451 11.1914 259.519 11.2051C259.716 11.2434 259.874 11.3047 260.169 11.2787C260.483 11.2511 260.818 11.2465 261.137 11.2251C261.314 11.2128 261.442 11.2235 261.58 11.2634C261.757 11.3139 261.959 11.3522 262.234 11.3277C262.47 11.3062 262.721 11.3016 262.962 11.2878C263.276 11.271 263.276 11.2725 263.837 11.3675C263.901 11.3782 263.985 11.3905 264.053 11.3874C264.462 11.369 264.865 11.3461 265.273 11.3277C265.43 11.32 265.583 11.3399 265.691 11.3844C265.735 11.4027 265.72 11.4334 265.735 11.4594C264.924 11.5008 264.112 11.536 263.306 11.5866C263.001 11.6065 262.863 11.5437 262.662 11.5084C262.593 11.4962 262.519 11.4701 262.455 11.4732C261.885 11.4993 261.319 11.5268 260.754 11.5605C260.577 11.5712 260.444 11.5651 260.311 11.5207C259.972 11.4027 259.559 11.4671 259.175 11.4839C258.88 11.4962 258.787 11.5437 258.821 11.6448C258.865 11.7643 259.042 11.801 259.495 11.7796C259.657 11.7719 259.819 11.7612 259.982 11.7551C260.139 11.7489 260.282 11.7688 260.41 11.8102C260.532 11.8516 260.68 11.873 260.832 11.8669C261.157 11.8531 261.486 11.8393 261.801 11.8163C262.062 11.798 262.278 11.8133 262.46 11.8699C262.662 11.9328 262.898 11.919 263.134 11.9052C263.685 11.8745 263.689 11.8761 264.034 11.9527C264.103 11.968 264.171 11.9971 264.235 11.9956C264.801 11.9726 265.371 11.9527 265.927 11.9159C266.217 11.8975 266.384 11.9465 266.576 11.9864C266.645 12.0002 266.714 12.0308 266.778 12.0277C267.186 12.0109 267.594 11.994 267.992 11.9649C268.179 11.9511 268.292 11.9603 268.445 11.9971C268.809 12.0875 268.819 12.0844 269.335 12.0553C269.492 12.0461 269.664 12.0293 269.812 12.0415C269.959 12.0538 270.077 12.0982 270.215 12.1258C270.279 12.138 270.358 12.1549 270.427 12.1518C270.751 12.1395 271.076 12.1212 271.4 12.1043C271.705 12.0875 271.705 12.089 272.276 12.184C272.507 12.2238 272.748 12.1901 272.979 12.1778C273.23 12.1641 273.456 12.1641 273.648 12.2238C273.839 12.2835 274.071 12.2805 274.316 12.2682C274.548 12.256 274.784 12.2223 275.02 12.2636C275.561 12.3586 275.561 12.3601 275.895 12.3417C276.382 12.3157 276.864 12.2912 277.355 12.2682C277.419 12.2652 277.503 12.2835 277.567 12.2958C277.705 12.3234 277.823 12.3693 277.97 12.38C278.118 12.3923 278.29 12.3739 278.447 12.3647C278.954 12.3356 278.988 12.3249 279.327 12.426C279.613 12.5087 279.967 12.3892 280.232 12.4842C280.385 12.5378 280.591 12.5807 280.876 12.5547C281.112 12.5332 281.358 12.5271 281.604 12.5148C281.993 12.4949 281.993 12.4965 282.484 12.5884C282.548 12.6006 282.632 12.6159 282.696 12.6129C283.02 12.6006 283.35 12.5899 283.665 12.5623C284.034 12.5302 284.269 12.5884 284.545 12.6451C284.761 12.6895 285.017 12.6527 285.248 12.6374C285.499 12.6221 285.725 12.6267 285.912 12.6864C286.109 12.7477 286.34 12.74 286.586 12.7278C286.817 12.717 287.053 12.6818 287.289 12.7247C287.795 12.8197 287.795 12.8197 288.164 12.8013C288.489 12.7844 288.813 12.7661 289.138 12.7538C289.202 12.7507 289.28 12.7707 289.344 12.7844C289.482 12.812 289.6 12.858 289.748 12.8687C289.895 12.8794 290.067 12.8595 290.23 12.8518C290.392 12.8442 290.564 12.8212 290.711 12.8304C290.859 12.8396 290.997 12.8779 291.115 12.9116C291.252 12.9514 291.38 12.956 291.567 12.9407C291.803 12.9208 292.049 12.9162 292.29 12.9055C292.423 12.9346 292.561 12.9637 292.688 12.9958C292.821 13.0295 292.964 13.0265 293.146 13.0157C293.751 12.979 293.755 12.9836 294.262 13.0786C294.493 13.1214 294.734 13.0862 294.965 13.0755C295.211 13.0632 295.442 13.0571 295.634 13.1184C295.821 13.1766 296.052 13.1842 296.298 13.1659C296.455 13.1536 296.622 13.146 296.785 13.1414C296.858 13.1398 296.947 13.146 297.001 13.1582C297.262 13.2225 297.517 13.2808 297.876 13.2394C298.191 13.2517 298.348 13.3773 298.727 13.3528C299.047 13.3313 299.381 13.3267 299.696 13.2991C299.986 13.2746 300.193 13.3175 300.34 13.3711C300.606 13.4661 300.979 13.3374 301.245 13.4309C301.397 13.4845 301.594 13.5274 301.889 13.5044C302.214 13.4799 302.317 13.5121 302.41 13.6086C302.464 13.6637 302.455 13.7081 302.356 13.751C302.258 13.7954 302.15 13.7878 301.992 13.7372C301.811 13.6806 301.594 13.6698 301.333 13.6821C301.078 13.6943 300.92 13.6147 300.709 13.5841C300.497 13.5519 300.247 13.6055 300.025 13.5641C299.504 13.4676 299.504 13.4676 299.15 13.486C298.909 13.4983 298.658 13.5044 298.422 13.5259C298.142 13.5519 297.96 13.5044 297.768 13.4615C297.699 13.4462 297.63 13.4171 297.571 13.4186C297.006 13.4416 296.436 13.463 295.875 13.5013C295.58 13.5213 295.423 13.4661 295.226 13.4278C295.157 13.414 295.083 13.3865 295.024 13.3895C294.537 13.411 294.055 13.4385 293.569 13.4646C293.475 13.5059 293.372 13.5458 293.283 13.5902C293.19 13.6361 293.062 13.6561 292.875 13.6545C292.565 13.6545 292.261 13.7189 291.951 13.6377C291.631 13.555 291.607 13.5595 291.297 13.5795C290.903 13.6055 290.485 13.5994 290.116 13.6591C290.053 13.6698 289.984 13.6989 289.984 13.7204C289.979 13.7342 290.082 13.7541 290.146 13.7663C290.362 13.8031 290.613 13.7495 290.829 13.7878C290.972 13.8123 291.09 13.8491 291.233 13.8751C291.292 13.8858 291.38 13.8843 291.459 13.8828C291.543 13.8812 291.621 13.8705 291.7 13.872C291.774 13.8736 291.852 13.8828 291.911 13.8965C292.182 13.9547 292.467 14.0084 292.708 14.0773C292.944 14.1447 293.165 14.0987 293.401 14.0957C294.346 14.2029 294.346 14.2044 294.98 14.1707C295.137 14.1631 295.3 14.1539 295.462 14.1554C295.531 14.1554 295.595 14.183 295.664 14.1983C295.86 14.2443 296.047 14.2856 296.323 14.2611C296.559 14.2397 296.809 14.2351 297.05 14.2213C297.375 14.2044 297.375 14.2044 297.926 14.3009C298.063 14.3255 298.211 14.3224 298.388 14.3101C298.54 14.2994 298.698 14.3224 298.806 14.3668C298.85 14.3852 298.835 14.4158 298.85 14.4419C298.363 14.4664 297.872 14.4832 297.399 14.52C297.095 14.543 296.957 14.4771 296.755 14.4419C296.686 14.4296 296.613 14.4036 296.549 14.4066C296.067 14.4296 295.585 14.4556 295.103 14.4863C295.044 14.4893 294.97 14.5246 294.965 14.546C294.955 14.5859 295.078 14.6242 295.255 14.6226C295.491 14.6211 295.723 14.595 295.934 14.6578C296.111 14.713 296.332 14.7375 296.593 14.713C296.75 14.6992 296.918 14.6992 297.075 14.687C297.493 14.6502 297.871 14.6579 298.186 14.762C298.427 14.7896 298.663 14.7636 298.894 14.7498C299.066 14.739 299.234 14.7283 299.357 14.7574C299.617 14.8187 299.873 14.88 300.232 14.8386C300.62 14.8815 300.915 14.9719 301.24 15.0454C301.393 15.0806 301.51 15.1006 301.688 15.0776C301.761 15.0684 301.85 15.0684 301.928 15.0638C302.091 15.0561 302.263 15.0331 302.41 15.0423C302.558 15.0531 302.681 15.0975 302.814 15.1251C302.878 15.1388 302.951 15.1618 303.015 15.1603C303.261 15.1526 303.502 15.1373 303.743 15.1251C303.984 15.1143 304.225 15.1036 304.466 15.0929C304.668 15.1327 304.874 15.1726 305.076 15.2124C305.4 15.1955 305.725 15.1787 306.045 15.1634C306.404 15.145 306.403 15.1465 306.92 15.2415C307.151 15.2844 307.397 15.2568 307.618 15.2369C307.987 15.2047 308.233 15.2629 308.493 15.3242C308.548 15.3365 308.646 15.3441 308.71 15.338C308.966 15.3165 309.187 15.3334 309.374 15.3901C309.506 15.4299 309.639 15.4483 309.802 15.4406C310.367 15.4115 310.933 15.3809 311.498 15.3548C311.567 15.3518 311.646 15.3656 311.709 15.3778C312.211 15.4713 312.216 15.4758 312.585 15.4513C312.914 15.4299 313.219 15.4207 313.48 15.5049C313.534 15.5233 313.617 15.5494 313.676 15.5478C314.08 15.5325 314.488 15.5157 314.886 15.4896C315.068 15.4774 315.196 15.482 315.339 15.5172C315.521 15.5616 315.683 15.6153 315.983 15.5953C316.814 15.5387 316.819 15.5478 317.802 15.6535C317.871 15.6612 317.965 15.6489 318.043 15.6428C318.211 15.6275 318.333 15.6489 318.481 15.6842C318.81 15.7638 318.82 15.7592 319.135 15.7424C319.376 15.7286 319.627 15.7255 319.863 15.7026C320.227 15.6689 320.468 15.7286 320.738 15.7853C320.955 15.8297 321.205 15.7929 321.436 15.7791C321.687 15.7638 321.913 15.7684 322.1 15.8266C322.228 15.8665 322.366 15.8879 322.528 15.8803C323.094 15.8527 323.659 15.822 324.225 15.7945C324.294 15.7914 324.377 15.8037 324.441 15.8144C325.002 15.9094 325.002 15.914 325.557 15.8787C325.734 15.868 325.882 15.8649 326.015 15.8971C326.143 15.9277 326.28 15.9568 326.413 15.9859C326.654 15.9752 326.9 15.9722 327.136 15.9538C327.318 15.94 327.446 15.9461 327.588 15.9783C327.775 16.0197 327.933 16.0916 328.228 16.0564C328.38 16.0395 328.557 16.0442 328.71 16.0288C328.891 16.0089 329.014 16.0212 329.157 16.061C329.334 16.1085 329.516 16.1575 329.801 16.133C330.116 16.1054 330.45 16.1008 330.77 16.0794C330.947 16.0671 331.07 16.0794 331.213 16.1192C331.39 16.1698 331.591 16.2019 331.867 16.182C332.427 16.1437 332.432 16.1514 332.978 16.2479C333.116 16.2724 333.263 16.2693 333.44 16.2571C333.593 16.2464 333.75 16.2693 333.858 16.3138C333.961 16.3628 333.952 16.3934 333.961 16.4194ZM290.141 2.60398C289.979 2.61164 289.816 2.62083 289.58 2.48756C289.566 2.46459 289.576 2.43702 289.541 2.41711C289.462 2.37575 289.34 2.34664 289.192 2.34205C288.926 2.33592 288.607 2.38799 288.612 2.42782C288.617 2.46152 288.7 2.49062 288.862 2.51819C288.931 2.52892 288.985 2.5473 289.049 2.55956C289.236 2.59479 289.384 2.66373 289.654 2.6285C289.605 2.53353 289.63 2.58101 289.654 2.6285C289.63 2.68671 289.703 2.72807 289.88 2.74492C289.93 2.74951 290.003 2.74644 290.043 2.73725C290.195 2.70355 290.22 2.65761 290.107 2.53659C290.087 2.55651 290.102 2.59173 290.146 2.60092C290.19 2.61011 290.298 2.60246 290.353 2.59174C290.49 2.56263 290.559 2.52433 290.525 2.49216C290.505 2.47531 290.412 2.45387 290.353 2.45387C290.249 2.45387 290.156 2.48757 290.141 2.60398ZM329.904 20.3685C329.545 20.3976 329.132 20.3869 328.773 20.4466C328.71 20.4573 328.646 20.4849 328.641 20.5063C328.636 20.5201 328.734 20.54 328.793 20.5508C328.926 20.5753 329.073 20.5676 329.246 20.5599C329.506 20.5492 329.659 20.6197 329.86 20.6549C329.924 20.6656 330.008 20.6733 330.077 20.6702C330.475 20.6519 330.868 20.632 331.267 20.6105C331.335 20.6059 331.409 20.5952 331.468 20.5814C331.665 20.537 331.645 20.5079 331.454 20.4742C331.242 20.4374 331.075 20.3761 330.859 20.347C330.549 20.3057 330.234 20.3608 329.904 20.3685ZM301.978 21.4867C301.737 21.499 301.501 21.5112 301.26 21.5235C301.181 21.5281 301.097 21.5296 301.024 21.5357C300.871 21.5464 300.758 21.5786 300.684 21.6292C300.797 21.669 300.935 21.692 301.088 21.6874C301.329 21.6782 301.565 21.6583 301.806 21.6537C302.066 21.6475 302.219 21.7165 302.42 21.7517C302.484 21.7624 302.563 21.764 302.637 21.7655C303 21.7716 303.222 21.692 303.153 21.5801C303.104 21.4928 302.917 21.4408 302.691 21.4515C302.455 21.4622 302.214 21.4744 301.978 21.4867ZM331.586 18.1044C331.645 18.0784 331.709 18.06 331.739 18.037C331.827 17.9589 331.793 17.9007 331.631 17.8394C331.434 17.7644 331.193 17.8149 330.972 17.8226C330.918 17.8241 330.859 17.8563 330.829 17.8762C330.809 17.89 330.809 17.9191 330.839 17.9268C331.08 17.988 331.336 18.0447 331.586 18.1044ZM288.926 13.5795C288.69 13.5917 288.449 13.6009 288.213 13.6178C288.154 13.6224 288.1 13.6515 288.066 13.6714C288.002 13.7081 288.071 13.7587 288.272 13.7633C288.504 13.7694 288.744 13.7434 288.985 13.7311C289.29 13.7158 289.472 13.6591 289.359 13.6101C289.251 13.5626 289.104 13.5534 288.926 13.5795ZM30.0708 10.306C30.2282 10.2983 30.3905 10.2922 30.5478 10.2815C30.6954 10.2707 30.8086 10.237 30.8823 10.1865C30.7594 10.1467 30.6216 10.1252 30.4692 10.1298C30.2282 10.139 29.9922 10.1512 29.7562 10.1666C29.6086 10.1758 29.4661 10.2095 29.4317 10.2615C29.3972 10.3014 29.7266 10.3243 30.0708 10.306ZM268.13 10.0701C268.194 10.0838 268.258 10.1114 268.322 10.1114C268.479 10.1114 268.642 10.1022 268.789 10.0869C268.853 10.0808 268.902 10.0532 268.932 10.0318C268.951 10.018 268.946 9.99348 268.917 9.98122C268.774 9.9077 268.204 9.93374 268.11 10.018C268.101 10.0333 268.125 10.0532 268.13 10.0701ZM252.615 1.68183C252.63 1.70634 252.635 1.73084 252.655 1.75535C252.694 1.80131 252.802 1.83501 252.959 1.85799C253.082 1.81969 253.146 1.77681 253.141 1.73086C253.136 1.70635 253.122 1.68182 253.102 1.65731C253.063 1.61136 252.955 1.57767 252.797 1.55469C252.674 1.59146 252.615 1.63434 252.615 1.68183ZM342.951 21.7532C342.906 21.7732 342.862 21.7931 342.813 21.8114C342.946 21.8559 343.069 21.8697 343.162 21.8451C343.221 21.8298 343.256 21.8068 343.3 21.7869C343.167 21.7425 343.049 21.7303 342.951 21.7532ZM339.892 21.9616C339.956 21.9753 340.015 21.9937 340.084 22.0029C340.197 22.0182 340.3 21.9922 340.379 21.937C340.315 21.9233 340.256 21.9049 340.187 21.8957C340.074 21.8804 339.971 21.9064 339.892 21.9616ZM341.83 21.6812C341.795 21.718 341.864 21.7486 342.046 21.7747C342.09 21.7548 342.149 21.7364 342.179 21.7149C342.228 21.6797 342.144 21.6475 341.967 21.623C341.918 21.6414 341.874 21.6613 341.83 21.6812ZM331.449 20.0299C331.414 20.0667 331.483 20.0973 331.665 20.1234C331.709 20.1035 331.768 20.0851 331.798 20.0636C331.847 20.0284 331.763 19.9962 331.586 19.9717C331.537 19.9901 331.493 20.01 331.449 20.0299ZM317.306 9.1908C317.261 9.21071 317.217 9.23063 317.168 9.24901C317.301 9.29343 317.424 9.30721 317.517 9.28271C317.576 9.26739 317.611 9.24441 317.655 9.2245C317.522 9.18007 317.404 9.16782 317.306 9.1908ZM303.758 3.44035C303.876 3.45107 303.974 3.42964 304.058 3.37296C303.994 3.35917 303.935 3.34079 303.866 3.3316C303.753 3.31628 303.65 3.34233 303.571 3.39747C303.635 3.41279 303.699 3.42656 303.758 3.44035ZM296.563 3.08038C296.519 3.10029 296.475 3.1202 296.426 3.13859C296.559 3.18301 296.681 3.19679 296.775 3.17228C296.834 3.15696 296.868 3.13399 296.913 3.11407C296.78 3.06965 296.662 3.05893 296.563 3.08038ZM247.776 1.68029C247.732 1.70021 247.688 1.72012 247.639 1.7385C247.771 1.78293 247.894 1.79671 247.988 1.7722C248.047 1.75688 248.081 1.7339 248.125 1.71399C247.993 1.66957 247.875 1.65885 247.776 1.68029ZM4.85357 14.1432C4.78964 14.1294 4.72577 14.1156 4.66676 14.1003C4.52415 14.1416 4.47991 14.1799 4.55859 14.209C4.60777 14.2274 4.68147 14.2381 4.7454 14.2519C4.89293 14.2106 4.92733 14.1738 4.85357 14.1432Z" fill="#FFE492"/>
<path d="M33.3769 8.73441C32.8114 8.76352 32.2508 8.80027 31.6853 8.81865C31.3853 8.82784 31.2772 8.89371 31.1543 8.95499C31.0559 9.004 30.9428 9.01932 30.7609 9.02851C29.2266 9.10357 27.6972 9.18323 26.1678 9.26135C25.976 9.24144 25.8826 9.20927 25.9269 9.17098C25.9514 9.148 26.0105 9.11583 26.0695 9.11277C27.1169 9.05609 28.1594 8.99788 29.2118 8.95345C29.5117 8.9412 29.5954 8.8738 29.7478 8.81865C29.797 8.80027 29.8364 8.7727 29.9003 8.76198C29.9642 8.74972 30.0576 8.75126 30.1412 8.74819C31.8329 8.66088 33.5246 8.57511 35.2162 8.48779C35.408 8.50771 35.5014 8.53987 35.4572 8.57816C35.4326 8.60114 35.3735 8.63331 35.3145 8.63637C34.6654 8.66854 34.0211 8.70071 33.3769 8.73441Z" fill="#FFE492"/>
<path d="M343.02 16.8914C342.764 16.9098 342.439 16.9358 342.174 16.847C342.046 16.8041 341.908 16.7903 341.741 16.7995C341.5 16.8148 341.254 16.8271 341.008 16.8363C340.944 16.8378 340.861 16.8209 340.797 16.8072C340.659 16.7796 340.541 16.7336 340.394 16.7214C340.246 16.7091 340.069 16.7428 339.917 16.7352C339.715 16.7244 339.631 16.6831 339.686 16.6448C339.715 16.6233 339.774 16.5927 339.838 16.5881C340.748 16.5314 340.753 16.5314 341.008 16.5866C341.205 16.6295 341.387 16.6769 341.667 16.6509C341.903 16.6295 342.154 16.6249 342.395 16.6111C342.73 16.5927 342.73 16.5942 343.27 16.6907C343.408 16.7152 343.556 16.7137 343.733 16.6999C343.885 16.6892 344.033 16.7137 344.156 16.7551C344.077 16.8072 343.964 16.8409 343.811 16.85C343.565 16.8654 343.325 16.8761 343.02 16.8914Z" fill="#FFE492"/>
<path d="M333.971 16.4193C334.59 16.3871 335.215 16.3596 335.834 16.3228C336.09 16.3075 336.292 16.3243 336.469 16.3764C336.661 16.4331 336.877 16.4285 337.113 16.4178C337.261 16.4117 337.403 16.4362 337.502 16.479C337.541 16.4959 337.531 16.5265 337.546 16.5511C337.005 16.5786 336.459 16.6077 335.913 16.6322C335.849 16.6353 335.771 16.62 335.712 16.6077C335.579 16.5817 335.466 16.5357 335.323 16.5265C335.018 16.5051 334.713 16.5464 334.404 16.5541C334.256 16.5572 334.113 16.5342 334.015 16.4928C333.976 16.4729 333.985 16.4438 333.971 16.4193Z" fill="#FFE492"/>
<path d="M110.044 3.24921C110.688 3.21551 111.333 3.18336 111.977 3.14966C112.169 3.1711 112.257 3.20173 112.218 3.24003C112.193 3.26301 112.134 3.29518 112.075 3.29824C110.787 3.36717 109.498 3.43303 108.215 3.4989C108.023 3.47745 107.935 3.44682 107.974 3.40853C107.999 3.38555 108.058 3.35338 108.117 3.35032C108.756 3.31508 109.4 3.28291 110.044 3.24921Z" fill="#FFE492"/>
<path d="M10.7802 11.7607C10.49 11.7637 10.1852 11.8204 9.86064 11.7775C9.79671 11.7699 9.70817 11.7453 9.71309 11.7316C9.72292 11.7086 9.78194 11.6795 9.84587 11.6703C10.1262 11.632 10.4754 11.6274 10.618 11.5202C10.6868 11.465 10.8147 11.4467 10.9868 11.4359C11.1687 11.4237 11.2965 11.4283 11.4392 11.4604C11.626 11.5018 11.7834 11.5784 12.0785 11.5386C12.0932 11.5631 12.1276 11.5906 12.1128 11.6136C12.098 11.6366 12.0342 11.658 11.9752 11.6749C11.9211 11.6902 11.8473 11.704 11.7784 11.7086C11.4539 11.727 11.1293 11.7423 10.7802 11.7607Z" fill="#FFE492"/>
<path d="M266.525 11.4529C266.766 11.4406 267.016 11.4345 267.252 11.413C267.439 11.3962 267.557 11.4069 267.705 11.4437C267.956 11.508 267.97 11.5019 268.585 11.5111C268.654 11.5126 268.738 11.5356 268.777 11.5555C268.802 11.5662 268.767 11.5953 268.738 11.6107C268.693 11.6306 268.629 11.6566 268.57 11.6566C268.182 11.6612 267.789 11.7516 267.41 11.6474C267.218 11.5953 267.007 11.5708 266.746 11.5938C266.589 11.6076 266.421 11.6137 266.259 11.6198C266.102 11.626 265.94 11.6091 265.841 11.5632C265.699 11.4958 265.782 11.4697 266.038 11.4743C266.2 11.4774 266.362 11.4605 266.525 11.4529Z" fill="#FFE492"/>
<path d="M355.652 22.0126C355.962 21.9973 356.272 21.9789 356.586 21.9667C356.65 21.9636 356.729 21.9805 356.788 21.9912C357.024 22.0371 356.99 22.1152 357 22.1842C357.005 22.2562 356.459 22.3144 356.228 22.2654C355.972 22.2102 355.741 22.1474 355.387 22.1811C355.249 22.1934 355.087 22.1658 354.998 22.1214C354.865 22.0571 354.939 22.031 355.19 22.0356C355.337 22.0387 355.495 22.0218 355.652 22.0126Z" fill="#FFE492"/>
<path d="M199.528 1.16236C199.848 1.14551 200.168 1.11949 200.487 1.11795C200.674 1.11642 200.768 1.16696 200.723 1.20373C200.699 1.2267 200.64 1.25887 200.581 1.26194C199.941 1.2987 199.302 1.32934 198.663 1.36304C198.476 1.3416 198.383 1.30943 198.427 1.27267C198.451 1.24969 198.51 1.21905 198.57 1.21446C198.889 1.19301 199.209 1.17921 199.528 1.16236Z" fill="#FFE492"/>
<path d="M349.515 17.0261C349.824 17.0108 350.139 16.9878 350.449 16.9802C350.611 16.9771 350.739 17.0123 350.759 17.0522C350.769 17.0705 350.69 17.1027 350.626 17.1104C350.183 17.1624 349.706 17.1686 349.244 17.1946C349.097 17.2023 348.939 17.1778 348.851 17.1349C348.718 17.069 348.792 17.0445 349.043 17.0491C349.2 17.0506 349.357 17.0338 349.515 17.0261Z" fill="#FFE492"/>
<path d="M274.662 11.6601C274.819 11.6524 274.981 11.6325 275.134 11.6386C275.296 11.6463 275.399 11.6907 275.449 11.7351C275.503 11.7857 275.498 11.8332 275.449 11.876C275.37 11.9496 275.291 11.9465 275.109 11.8975C274.829 11.8209 274.809 11.8301 274.254 11.8331C274.19 11.8331 274.111 11.8102 274.062 11.7903C273.988 11.7596 274.027 11.7121 274.199 11.6846C274.327 11.6647 274.504 11.6677 274.662 11.6601Z" fill="#FFE492"/>
<path d="M337.988 16.5229C338.219 16.5107 338.45 16.4908 338.681 16.4908C338.843 16.4892 338.971 16.5245 338.986 16.5628C338.991 16.5811 338.917 16.6118 338.858 16.621C338.578 16.6623 338.263 16.6654 337.958 16.6792C337.815 16.6853 337.658 16.6608 337.569 16.6179C337.437 16.5536 337.515 16.5245 337.756 16.5336C337.83 16.5367 337.909 16.5275 337.988 16.5229Z" fill="#FFE492"/>
<path d="M301.621 14.6439C301.277 14.6623 300.952 14.6394 300.977 14.5995C301.011 14.5475 301.154 14.5137 301.301 14.5045C301.537 14.4892 301.773 14.477 302.014 14.4678C302.167 14.4617 302.305 14.4846 302.428 14.5245C302.354 14.5735 302.241 14.6087 302.093 14.6194C301.941 14.6302 301.778 14.6363 301.621 14.6439Z" fill="#FFE492"/>
<path d="M299.364 14.4482C299.595 14.436 299.826 14.4161 300.057 14.4161C300.219 14.4145 300.347 14.4498 300.362 14.4881C300.367 14.5064 300.293 14.5371 300.234 14.5463C299.954 14.5876 299.639 14.5907 299.334 14.6045C299.191 14.6106 299.034 14.5861 298.945 14.5432C298.813 14.4789 298.891 14.4498 299.132 14.459C299.206 14.462 299.285 14.4528 299.364 14.4482Z" fill="#FFE492"/>
<path d="M271.865 11.648C272.096 11.6358 272.327 11.6158 272.558 11.6143C272.72 11.6128 272.848 11.648 272.863 11.6863C272.868 11.7047 272.794 11.7338 272.735 11.7445C272.455 11.7859 272.14 11.7889 271.835 11.8027C271.692 11.8089 271.535 11.7843 271.446 11.7415C271.314 11.6771 271.392 11.648 271.633 11.6572C271.707 11.6603 271.786 11.6511 271.865 11.648Z" fill="#FFE492"/>
<path d="M270.572 11.557C270.818 11.5448 270.897 11.5371 270.975 11.5371C271.123 11.5371 271.275 11.5555 271.364 11.5999C271.497 11.6643 271.418 11.6826 271.177 11.6857C270.867 11.6888 270.562 11.7209 270.252 11.7271C270.09 11.7301 269.962 11.6934 269.952 11.6551C269.947 11.6367 270.021 11.6045 270.08 11.5984C270.287 11.5754 270.513 11.5616 270.572 11.557Z" fill="#FFE492"/>
<path d="M297.359 2.54579C297.202 2.55345 297.035 2.5749 296.887 2.56724C296.691 2.55652 296.612 2.51516 296.661 2.47687C296.691 2.45542 296.745 2.42479 296.804 2.42019C297.119 2.39875 297.438 2.38495 297.753 2.36963C297.94 2.39261 298.023 2.42477 297.974 2.46307C297.945 2.48451 297.891 2.51362 297.832 2.51974C297.679 2.53506 297.517 2.53813 297.359 2.54579Z" fill="#FFE492"/>
<path d="M106.525 3.42928C106.677 3.42775 106.815 3.44766 106.933 3.48596C106.859 3.53498 106.751 3.56714 106.603 3.58093C106.529 3.58706 106.446 3.59165 106.367 3.59318C106.215 3.59624 106.077 3.5748 105.959 3.5365C106.033 3.48748 106.146 3.45532 106.288 3.44153C106.362 3.4354 106.446 3.43388 106.525 3.42928Z" fill="#FFE492"/>
<path d="M347.834 17.0202C347.829 16.9758 348.129 16.9253 348.399 16.9268C348.542 16.9283 348.689 16.9498 348.773 16.9911C348.901 17.0539 348.827 17.0784 348.586 17.0738C348.438 17.0708 348.281 17.0968 348.133 17.0922C347.966 17.0907 347.868 17.057 347.834 17.0202Z" fill="#FFE492"/>
<path d="M276.067 11.8456C276.062 11.8287 276.038 11.8088 276.053 11.7935C276.146 11.7092 276.712 11.6832 276.859 11.7567C276.884 11.7705 276.893 11.7935 276.874 11.8073C276.844 11.8287 276.79 11.8563 276.731 11.8624C276.579 11.8777 276.421 11.8854 276.264 11.8869C276.195 11.8869 276.131 11.8609 276.067 11.8456Z" fill="#FFE492"/>
<path d="M12.5155 11.516C11.9352 11.5481 11.9254 11.5451 12.0287 11.4685C12.1221 11.3995 12.2942 11.3582 12.545 11.3582C12.6188 11.3582 12.6975 11.3551 12.7614 11.3613C12.8302 11.3689 12.9286 11.3842 12.9434 11.4026C12.9729 11.4378 12.8892 11.4761 12.7417 11.5022C12.6778 11.5144 12.5942 11.5114 12.5155 11.516Z" fill="#FFE492"/>
<path d="M113.773 3.21435C113.601 3.24039 113.454 3.2312 113.345 3.18219C113.237 3.13317 113.409 3.07495 113.709 3.06117C113.788 3.0581 113.872 3.04586 113.945 3.05199C114.019 3.05658 114.093 3.07495 114.137 3.09333C114.216 3.12397 114.167 3.16534 114.009 3.20057C113.945 3.21435 113.852 3.21129 113.773 3.21435Z" fill="#FFE492"/>
<path d="M346.829 16.9051C346.873 16.8852 346.916 16.8653 346.965 16.8469C347.144 16.873 347.222 16.9036 347.173 16.9388C347.144 16.9603 347.086 16.9787 347.042 16.9986C346.863 16.9725 346.79 16.9404 346.829 16.9051Z" fill="#FFE492"/>
<path d="M20.3188 28.9543C20.3188 28.9359 20.3868 28.9068 20.4401 28.9007C20.542 28.89 20.668 28.9114 20.7553 28.9543C20.8766 29.0156 20.8039 29.0477 20.5808 29.0309C20.4256 29.0186 20.3188 28.988 20.3188 28.9543Z" fill="#FFE492"/>
<path d="M278.077 10.4194C278.14 10.4333 278.203 10.4472 278.262 10.4627C278.179 10.5198 278.077 10.5444 277.97 10.529C277.903 10.5197 277.844 10.5012 277.781 10.4873C277.864 10.4302 277.961 10.4086 278.077 10.4194Z" fill="#FFE492"/>
<path d="M276.363 10.3505C276.46 10.3274 276.577 10.3398 276.713 10.3845C276.669 10.4046 276.63 10.4277 276.577 10.4431C276.485 10.4678 276.363 10.4555 276.232 10.4092C276.271 10.3907 276.315 10.3706 276.363 10.3505Z" fill="#FFE492"/>
<path d="M275.062 10.4178C275.125 10.4317 275.188 10.4456 275.246 10.461C275.164 10.5181 275.067 10.5428 274.955 10.5273C274.887 10.5181 274.829 10.4996 274.766 10.4857C274.849 10.4286 274.946 10.4054 275.062 10.4178Z" fill="#FFE492"/>
<path d="M274.121 10.3368C274.193 10.3675 274.155 10.4042 274.014 10.4456C273.951 10.4318 273.878 10.4211 273.83 10.4027C273.752 10.3736 273.791 10.3353 273.936 10.2939C273.995 10.3093 274.058 10.3231 274.121 10.3368Z" fill="#FFE492"/>
</svg>
