<svg width="9" height="17" viewBox="0 0 9 17" fill="none" xmlns="http://www.w3.org/2000/svg">
<path d="M2.5058 9.5524C2.44316 9.5524 1.06497 9.5524 0.438515 9.5524C0.104408 9.5524 0 9.42711 0 9.11388C0 8.27862 0 7.42247 0 6.5872C0 6.2531 0.12529 6.14869 0.438515 6.14869H2.5058C2.5058 6.08604 2.5058 4.87491 2.5058 4.3111C2.5058 3.47583 2.65197 2.68233 3.06961 1.95147C3.50812 1.19973 4.13457 0.698571 4.92807 0.406227C5.45012 0.218292 5.97216 0.134766 6.53596 0.134766H8.58237C8.87471 0.134766 9 0.260056 9 0.552399V2.93291C9 3.22525 8.87471 3.35054 8.58237 3.35054C8.01856 3.35054 7.45476 3.35054 6.89095 3.37142C6.32715 3.37142 6.0348 3.64289 6.0348 4.22757C6.01392 4.85402 6.0348 5.45959 6.0348 6.10692H8.45708C8.79118 6.10692 8.91647 6.23221 8.91647 6.56632V9.093C8.91647 9.42711 8.81207 9.53152 8.45708 9.53152C7.70534 9.53152 6.09745 9.53152 6.0348 9.53152V16.3389C6.0348 16.6939 5.93039 16.8192 5.55452 16.8192C4.67749 16.8192 3.82135 16.8192 2.94432 16.8192C2.63109 16.8192 2.5058 16.6939 2.5058 16.3807C2.5058 14.1881 2.5058 9.61504 2.5058 9.5524Z" fill="#F7F7EE"/>
</svg>
