<svg width="56" height="69" viewBox="0 0 56 69" fill="none" xmlns="http://www.w3.org/2000/svg">
<path d="M46.3673 38.8361C44.4968 29.4223 53.4321 23.9012 53.4321 23.9012C53.4321 23.9012 49.9508 18.8645 44.1 17.5688C38.2521 16.2703 35.3252 17.8927 32.4041 19.1095C29.4802 20.3294 28.0211 20.3294 28.0211 20.3294C23.8016 20.3294 20.717 15.8617 12.6777 17.8957C7.13915 19.2934 1.30867 25.687 0.255239 33.318C-0.798195 40.9518 1.47507 50.6924 5.85804 58.2416C10.241 65.7967 14.7058 68.636 17.8748 68.7177C21.0439 68.7964 24.2072 66.4474 28.0211 65.8754C31.8381 65.3093 34.1871 67.2587 37.931 68.3121C41.6603 69.3627 42.9677 68.388 47.2631 64.7345C51.5702 61.0809 55.4689 50.602 55.4689 50.602C55.4689 50.602 48.2378 48.2557 46.3673 38.8361Z" fill="black"/>
<path d="M38.0857 11.4788C42.2293 7.25638 40.8258 0.719727 40.8258 0.719727C40.8258 0.719727 35.0071 1.7411 31.1084 5.79723C27.2127 9.85634 27.8576 16.2675 27.8576 16.2675C27.8576 16.2675 33.9419 15.6985 38.0857 11.4788Z" fill="black"/>
</svg>
