<svg width="768" height="701" viewBox="0 0 768 701" fill="none" xmlns="http://www.w3.org/2000/svg">
<g opacity="0.3">
<path d="M356.87 700.839C351.981 700.839 347.222 700.267 342.648 699.125C333.056 696.729 324.195 691.811 316.309 684.505C307.834 676.655 300.4 665.958 294.213 652.714C281.779 626.092 275.558 594.211 269.541 563.378C268.359 557.324 267.137 551.064 265.896 544.99C257.43 503.59 246.697 467.326 233.088 434.126C205.94 367.897 167.761 311.376 122.676 270.672C70.5352 223.602 14.4758 200.154 -35.1772 204.649C-64.3607 207.293 -102.92 232.432 -120.153 275.365C-130.381 300.845 -131.205 329.122 -122.537 357.133L-122.709 357.251C-127.254 342.561 -129.234 327.833 -128.593 313.478C-128.005 300.31 -125.221 287.437 -120.316 275.219C-112.516 255.784 -99.6518 238.56 -83.1147 225.405C-67.8335 213.252 -50.814 205.779 -35.1886 204.365C-9.20352 202.014 18.4328 207.231 46.9524 219.875C72.805 231.339 98.3153 248.346 122.774 270.427C167.885 311.153 206.088 367.705 233.251 433.973C246.868 467.196 257.606 503.48 266.077 544.902C267.32 550.976 268.542 557.239 269.722 563.294C275.733 594.104 281.951 625.963 294.368 652.545C306.377 678.256 322.632 693.832 342.68 698.838C370.443 705.771 404.157 691.27 432.862 660.042C474.228 615.043 502.937 549.545 530.702 486.205C535.569 475.103 540.6 463.622 545.582 452.537C558.516 423.75 576.033 386.449 596.85 353.218C618.13 319.251 639.753 294.295 662.957 276.921C677.16 266.286 692.213 259.122 707.696 255.626C721.998 252.396 737.135 252.196 752.689 255.026C779.368 259.883 808.111 273.601 840.561 296.961C904.455 342.964 968.281 398.8 1030.26 462.923C1089.18 523.87 1146.96 592.836 1202 667.898L1201.87 668.106C1087.77 512.505 966.185 387.72 840.478 297.215C769.457 246.083 713.076 239.713 663.043 277.172C612.141 315.279 576.583 384.05 545.739 452.692C540.759 463.775 535.728 475.255 530.861 486.357C503.088 549.719 474.37 615.238 432.975 660.268C419.599 674.82 404.55 686.171 389.458 693.09C381.486 696.746 373.56 699.136 365.9 700.196C362.847 700.627 359.834 700.839 356.87 700.839Z" fill="#A1A1A1"/>
<path d="M361.649 685.052C349.181 685.052 337.631 681.514 327.31 674.533C315.8 666.748 305.868 654.684 297.788 638.68C297.073 637.262 296.363 635.797 295.679 634.32C283.376 607.813 276.879 576.347 270.598 545.914C269.327 539.764 268.014 533.402 266.682 527.23C258.751 490.475 249.201 458.081 237.484 428.201C236.041 424.523 234.546 420.836 233.039 417.245C205.491 351.586 167.002 295.78 121.731 255.86C69.2146 209.593 12.9963 187.115 -36.5678 192.569C-65.5395 195.79 -103.921 221.341 -121.228 263.944C-131.592 289.455 -132.764 317.788 -124.623 345.881L-124.797 345.994C-129.065 331.269 -130.818 316.514 -130.006 302.142C-129.261 288.942 -126.364 276.041 -121.391 263.797C-113.511 244.397 -100.685 227.153 -84.3029 213.931C-69.1616 201.709 -52.2159 194.023 -36.5848 192.287C-10.6319 189.431 17.0346 194.15 45.645 206.309C71.5601 217.324 97.1914 233.915 121.826 255.618C167.123 295.56 205.633 351.4 233.198 417.096C234.705 420.689 236.201 424.379 237.645 428.06C249.37 457.96 258.925 490.371 266.86 527.145C268.194 533.318 269.506 539.679 270.777 545.832C277.057 576.245 283.549 607.689 295.834 634.159C296.517 635.63 297.226 637.096 297.939 638.511C314.637 671.593 337.58 685.052 361.708 685.052C361.84 685.052 361.971 685.052 362.103 685.052C361.952 685.049 361.801 685.052 361.649 685.052ZM366.796 684.854C389.227 683.138 412.373 670.293 432.23 651.186C475.062 609.801 505.846 545.88 535.617 484.066C536.843 481.518 538.069 478.975 539.295 476.433C541.986 470.852 545.177 464.245 548.434 457.585C563.046 427.716 580.729 392.963 601.095 361.682C622.763 328.397 644.411 303.698 667.273 286.169C681.321 275.41 696.167 267.831 711.4 263.642C725.512 259.761 740.426 258.665 755.722 260.381C782.148 263.349 810.562 274.601 842.588 294.782C873.813 314.428 899.48 332.921 923.364 352.981C957.198 381.426 989.427 414.201 1016.49 442.508C1079.41 508.509 1141.15 583.452 1199.99 665.259L1199.86 665.465C1141.03 583.669 1079.3 508.731 1016.38 442.739C989.323 414.435 957.1 381.666 923.273 353.229C899.395 333.175 873.735 314.687 842.516 295.047C772.749 251.083 717.091 248.34 667.36 286.422C615.746 325.99 578.989 395.607 548.587 457.754C545.328 464.414 542.139 471.018 539.448 476.602C538.222 479.142 536.996 481.687 535.771 484.235C505.99 546.069 475.194 610.012 432.332 651.428C421.704 661.654 410.394 669.778 398.717 675.57C387.846 680.956 377.131 684.071 366.796 684.854Z" fill="#A1A1A1"/>
<path d="M366.923 669.627C365.423 669.627 363.933 669.58 362.454 669.481C349.996 668.661 338.468 664.402 328.19 656.817C316.949 648.522 307.209 636.235 299.244 620.296C298.537 618.876 297.831 617.407 297.151 615.93C284.986 589.554 278.219 558.507 271.676 528.486C270.312 522.229 268.901 515.757 267.471 509.477C259.149 472.847 249.347 440.712 237.503 411.235C236.037 407.591 234.52 403.935 232.99 400.372C205.043 335.285 166.244 280.195 120.788 241.059C67.8967 195.595 11.5195 174.084 -37.9576 180.496C-65.8152 184.163 -104.085 208.256 -122.281 252.486C-132.794 278.039 -134.324 306.448 -126.707 334.64L-126.883 334.744C-130.874 319.974 -132.397 305.185 -131.413 290.788C-130.509 277.546 -127.49 264.611 -122.442 252.339C-114.479 232.984 -101.695 215.734 -85.4695 202.45C-70.4701 190.169 -53.602 182.274 -37.9747 180.217C-12.052 176.86 15.6448 181.077 44.3441 192.751C70.3234 203.321 96.0739 219.491 120.882 240.817C166.365 279.978 205.185 335.099 233.149 400.223C234.679 403.788 236.198 407.444 237.664 411.094C249.514 440.588 259.321 472.743 267.647 509.393C269.077 515.675 270.488 522.147 271.852 528.404C278.393 558.408 285.155 589.433 297.304 615.778C297.985 617.255 298.686 618.721 299.394 620.136C331.759 684.901 389.116 677.948 431.6 642.329C476.22 604.591 509.379 541.869 541.447 481.212L541.776 480.59C544.882 474.71 548.094 468.633 551.29 462.632C585.021 399.326 622.096 334.267 671.596 295.413C685.492 284.528 700.134 276.534 715.111 271.655C729.042 267.117 743.729 265.124 758.764 265.733C784.978 266.793 813.062 275.581 844.624 292.6C877.792 310.422 902.752 326.804 925.556 345.719C958.046 372.724 989.518 406.849 1017.28 436.958C1079.11 504.353 1139.9 580.275 1197.99 662.609L1197.86 662.812C1139.78 580.486 1078.99 504.573 1017.17 437.183C989.41 407.08 957.943 372.961 925.463 345.965C902.669 327.055 877.717 310.679 844.559 292.862C776.147 255.972 721.215 256.86 671.683 295.658C622.215 334.487 585.155 399.518 551.438 462.801C548.241 468.802 545.03 474.882 541.924 480.759L541.595 481.382C525.614 511.608 509.09 542.864 491.246 570.782C471.192 602.156 451.712 625.638 431.691 642.569C410.745 660.129 387.928 669.627 366.923 669.627Z" fill="#A1A1A1"/>
<path d="M1195.85 660.152C1138.53 577.297 1078.68 500.408 1017.96 431.623C1015.39 428.731 1012.81 425.825 1010.23 422.91C983.929 393.253 956.736 362.587 927.656 338.696C899.445 315.584 870.854 301.451 846.605 290.676C779.671 260.748 725.464 265.266 676.007 304.89C625.238 345.686 585.9 413.42 554.291 467.847C552.394 471.114 550.501 474.387 548.604 477.662C547.204 480.08 545.802 482.499 544.401 484.914C526.403 515.936 510.033 543.671 491.945 568.979C471.28 597.889 451.363 619.063 431.051 633.711C412.015 647.44 391.68 654.704 372.765 654.707C369.319 654.707 365.923 654.467 362.587 653.979C350.406 652.201 339.129 647.204 329.07 639.125C318.094 630.312 308.547 617.791 300.692 601.911C299.99 600.488 299.291 599.017 298.613 597.537C286.593 571.299 279.563 540.689 272.765 511.088C271.301 504.712 269.786 498.116 268.253 491.715C259.534 455.2 249.479 423.322 237.517 394.257C236.028 390.64 234.487 387.018 232.936 383.487C204.588 318.972 165.48 264.598 119.841 226.242C66.5754 181.582 10.0412 161.043 -39.3489 168.405C-73.1136 173.537 -107.641 203.375 -123.313 240.961C-133.991 266.568 -135.884 295.067 -128.793 323.377L-128.971 323.476C-132.684 308.653 -133.977 293.818 -132.816 279.384C-131.747 266.095 -128.604 253.118 -123.474 240.812C-115.428 221.513 -102.685 204.263 -86.6225 190.931C-71.7669 178.6 -54.9857 170.499 -39.3679 168.126C-13.4755 164.264 14.2497 167.982 43.0379 179.172C69.0797 189.296 94.9531 205.049 119.936 225.994C165.603 264.373 204.732 318.777 233.097 383.332C234.65 386.866 236.191 390.491 237.68 394.107C249.649 423.189 259.708 455.085 268.433 491.617C269.965 498.021 271.48 504.613 272.944 510.992C279.738 540.576 286.765 571.166 298.771 597.374C299.448 598.85 300.146 600.319 300.845 601.74C334.633 670.046 392.06 661.514 430.969 633.454C477.392 599.975 512.915 538.749 544.259 484.728C545.661 482.31 547.06 479.891 548.462 477.476C550.357 474.201 552.252 470.928 554.149 467.661C572.192 436.595 590.01 406.405 609.598 378.585C632.123 346.591 653.819 322.405 675.92 304.642C689.671 293.624 704.105 285.216 718.823 279.655C732.578 274.455 747.04 271.568 761.808 271.072C787.854 270.199 815.611 276.524 846.662 290.405C870.918 301.186 899.523 315.324 927.749 338.451C956.842 362.35 984.041 393.025 1010.35 422.688C1012.93 425.602 1015.51 428.508 1018.08 431.4C1078.8 500.191 1138.66 577.088 1195.99 659.952L1195.85 660.152Z" fill="#A1A1A1"/>
<path d="M1193.85 657.497C1136.2 572.528 1077.29 494.661 1018.75 426.065C1015.25 421.961 1011.66 417.73 1008.2 413.64C983.381 384.349 957.72 354.061 929.847 331.43C902.014 308.912 873.182 297.085 848.648 288.489C783.343 265.385 729.858 273.53 680.33 314.124C633.089 352.984 596.078 411.419 560.286 467.929L556.355 474.133C553.251 479.035 550.042 484.1 546.877 489.069C511.049 545.255 475.183 597.915 430.41 624.849C419.545 631.386 408.389 635.915 397.248 638.319C385.285 640.898 373.664 640.935 362.706 638.426C350.805 635.701 339.784 629.976 329.948 621.411C319.244 612.089 309.889 599.341 302.145 583.523C301.447 582.091 300.753 580.617 300.082 579.14C288.209 553.057 280.925 522.898 273.881 493.731C272.309 487.223 270.683 480.492 269.041 473.955C259.916 437.553 249.612 405.931 237.536 377.283C236.027 373.703 234.463 370.11 232.887 366.606C204.141 302.663 164.724 249.006 118.898 211.431C65.2556 167.579 8.56247 148.007 -40.7425 156.324C-74.1989 162.088 -108.569 192.135 -124.321 229.394C-135.176 255.066 -137.444 283.674 -130.881 312.128L-131.06 312.221C-134.495 297.333 -135.556 282.443 -134.215 267.966C-132.978 254.62 -129.704 241.593 -124.484 229.247C-116.35 210.013 -103.653 192.78 -87.7607 179.409C-73.0526 167.032 -56.3623 158.737 -40.7652 156.048C-14.9031 151.685 12.8504 154.901 41.7294 165.606C67.8355 175.285 93.8281 190.618 118.987 211.186C164.84 248.78 204.279 302.472 233.042 366.451C234.618 369.957 236.184 373.554 237.693 377.134C249.776 405.796 260.087 437.435 269.215 473.857C270.857 480.393 272.483 487.127 274.055 493.635C281.095 522.785 288.375 552.93 300.235 578.982C300.905 580.454 301.599 581.925 302.295 583.357C335.269 650.713 390.057 648.821 430.336 624.59C475.073 597.678 510.924 545.038 546.737 488.877C549.902 483.908 553.111 478.843 556.215 473.941L560.146 467.738C577.716 440 595.881 411.315 615.611 384.631C637.957 354.41 659.096 331.267 680.235 313.876C693.846 302.72 708.076 293.898 722.527 287.657C736.113 281.789 750.35 278.006 764.843 276.414C790.775 273.564 818.199 277.426 848.69 288.212C873.235 296.815 902.082 308.644 929.934 331.182C957.822 353.821 983.491 384.118 1008.31 413.417C1011.78 417.507 1015.36 421.735 1018.87 425.842C1077.41 494.444 1136.32 572.316 1193.98 657.294L1193.85 657.497Z" fill="#A1A1A1"/>
<path d="M1191.84 654.842C1134.69 568.928 1076.72 490.086 1019.54 420.509C1015.24 415.28 1010.84 409.843 1006.58 404.586C983.099 375.611 958.82 345.649 932.039 324.169C904.336 302.037 875.374 292.609 850.694 286.307C787.199 269.843 734.439 281.619 684.653 323.363C641.206 359.945 605.535 411.791 571.036 461.928C567.407 467.204 563.652 472.658 559.994 477.943C555.698 484.15 552.417 488.865 549.354 493.229C532.953 516.584 513.426 543.476 492.934 565.844C471.218 589.546 450.557 605.95 429.77 615.996C418.839 621.278 407.73 624.609 396.75 625.895C384.961 627.276 373.546 626.261 362.825 622.876C351.209 619.209 340.445 612.757 330.827 603.701C320.397 593.881 311.237 580.904 303.599 565.137C302.911 563.708 302.22 562.231 301.551 560.748C289.835 534.84 282.307 505.146 275.025 476.43C273.336 469.769 271.59 462.884 269.829 456.195C260.294 419.894 249.738 388.532 237.555 360.309C236.023 356.76 234.436 353.201 232.837 349.725C203.692 286.355 163.965 233.413 117.953 196.619C63.9384 153.573 7.0865 134.973 -42.1315 144.241C-70.1366 149.63 -106.714 174.456 -125.299 217.767C-136.349 243.517 -139.001 272.256 -132.966 300.873L-133.145 300.958C-136.302 285.994 -137.127 271.038 -135.599 256.506C-134.187 243.092 -130.777 230.008 -125.458 217.615C-117.238 198.459 -104.588 181.255 -88.8716 167.855C-74.3111 155.442 -57.721 146.958 -42.1542 143.962C-16.3223 139.097 11.4615 141.811 40.4275 152.031C66.596 161.265 92.7096 176.181 118.042 196.371C164.081 233.184 203.83 286.157 232.993 349.565C234.591 353.04 236.18 356.605 237.712 360.157C249.9 388.394 260.462 419.773 270.003 456.091C271.766 462.782 273.512 469.668 275.201 476.328C282.477 505.03 290.003 534.707 301.706 560.588C302.375 562.067 303.064 563.541 303.752 564.968C331.184 621.605 378.273 640.579 429.711 615.722C476.294 593.213 514.294 542.763 549.224 493.02C552.286 488.657 555.566 483.941 559.862 477.735C563.52 472.45 567.274 466.996 570.904 461.719C587.887 437.037 605.448 411.515 624.179 387.616C645.36 360.588 665.112 339.488 684.562 323.112C698.043 311.809 712.064 302.573 726.241 295.662C739.668 289.114 753.681 284.438 767.887 281.757C793.755 276.881 820.852 278.276 850.726 286.022C875.419 292.33 904.402 301.761 932.128 323.912C958.926 345.407 983.211 375.377 1006.7 404.361C1010.96 409.618 1015.36 415.055 1019.66 420.283C1076.84 489.869 1134.82 568.716 1191.98 654.636L1191.84 654.842Z" fill="#A1A1A1"/>
<path d="M1189.84 652.187C1133.18 565.323 1076.15 485.503 1020.33 414.951C1015.58 408.95 1010.7 402.65 1005.98 396.559C983.511 367.545 960.279 337.543 934.227 316.903C906.506 295.036 877.477 288.06 852.737 284.12C792.121 274.207 738.553 290.064 688.973 332.597C649.497 366.617 615.656 412.129 582.93 456.145C576.319 465.034 569.485 474.229 562.841 482.992C558.776 488.356 555.175 493.065 551.827 497.389C536.258 517.474 515.548 543.228 493.418 564.275C471.182 585.42 450.151 599.442 429.123 607.14C406.189 615.536 383.3 615.598 362.933 607.323C351.609 602.72 341.1 595.544 331.697 585.992C321.546 575.679 312.58 562.476 305.046 546.757C304.364 545.325 303.679 543.845 303.013 542.363C291.464 516.651 283.701 487.445 276.196 459.203C274.38 452.37 272.504 445.307 270.61 438.444C260.657 402.239 249.85 371.13 237.568 343.344C236.013 339.826 234.404 336.298 232.783 332.853C203.238 270.055 163.203 217.826 117.006 181.818C62.6185 139.582 5.60764 121.951 -43.5252 132.169C-76.8227 139.243 -110.069 168.952 -126.252 206.089C-137.514 231.933 -140.558 260.821 -135.054 289.63L-135.235 289.706C-138.112 274.652 -138.698 259.618 -136.979 245.023C-135.39 231.533 -131.834 218.381 -126.411 205.934C-118.104 186.869 -105.503 169.704 -89.9703 156.293C-75.563 143.855 -59.0769 135.185 -43.5517 131.887C-17.7502 126.52 10.0639 128.736 39.1188 138.468C65.3516 147.257 91.5863 161.756 117.093 181.565C163.317 217.595 203.374 269.852 232.938 332.69C234.559 336.134 236.168 339.666 237.725 343.186C250.012 370.989 260.826 402.112 270.784 438.334C272.678 445.197 274.554 452.263 276.37 459.096C283.871 487.324 291.63 516.516 303.168 542.202C303.834 543.685 304.517 545.159 305.2 546.591C332.161 602.861 378.47 625.393 429.078 606.866C475.214 589.975 515.28 544.164 551.702 497.178C555.048 492.854 558.651 488.147 562.714 482.783C569.357 474.02 576.193 464.829 582.801 455.939C615.535 411.915 649.381 366.392 688.877 332.357C702.238 320.894 716.056 311.246 729.945 303.675C743.228 296.437 757.015 290.865 770.921 287.113C796.783 280.137 823.552 279.069 852.754 283.843C877.511 287.787 906.564 294.765 934.314 316.658C960.384 337.312 983.627 367.325 1006.1 396.351C1010.82 402.442 1015.7 408.738 1020.45 414.739C1076.27 485.297 1133.31 565.123 1189.97 651.992L1189.84 652.187Z" fill="#A1A1A1"/>
<path d="M1187.83 649.532C1131.68 561.71 1075.59 480.917 1021.12 409.395C1016.11 402.822 1010.96 395.863 1005.98 389.132C984.332 359.873 961.946 329.615 936.419 309.639C908.58 287.959 879.529 283.469 854.781 281.935C796.456 278.057 743.633 297.649 693.297 341.833C657.996 372.968 626.528 412.372 596.094 450.476C585.631 463.58 575.746 475.957 565.693 488.04C561.603 492.958 557.879 497.378 554.304 501.547C531.237 528.422 512.047 547.854 493.907 562.696C471.151 581.319 449.751 592.96 428.483 598.281C420.233 600.344 412.012 601.373 403.942 601.373C389.634 601.373 375.791 598.149 363.046 591.762C339.981 580.203 320.957 558.874 306.5 528.369C305.82 526.923 305.141 525.443 304.482 523.966C293.109 498.477 285.129 469.79 277.412 442.043C275.456 435.014 273.436 427.747 271.399 420.681C261.02 384.561 249.959 353.711 237.588 326.368C236.011 322.881 234.379 319.383 232.735 315.97C202.791 253.744 162.446 202.231 116.063 167.004C61.3033 125.579 4.13553 108.916 -44.9122 120.083C-78.3478 127.854 -110.635 156.998 -127.165 194.333C-138.655 220.284 -142.102 249.344 -137.135 278.373L-137.318 278.443C-139.911 263.285 -140.256 248.16 -138.34 233.489C-136.565 219.909 -132.86 206.684 -127.322 194.178C-118.927 175.217 -106.381 158.109 -91.0376 144.698C-76.7854 132.239 -60.4147 123.4 -44.9406 119.804C-19.1693 113.935 8.67505 115.649 37.817 124.897C64.1141 133.243 90.4679 147.325 116.15 166.75C162.559 202 202.927 253.541 232.89 315.804C234.534 319.22 236.166 322.718 237.745 326.207C250.123 353.564 261.19 384.431 271.573 420.565C273.61 427.632 275.632 434.901 277.586 441.93C285.299 469.663 293.275 498.339 304.639 523.805C305.297 525.279 305.975 526.759 306.656 528.202C333.651 585.172 378.044 610.613 428.451 597.999C476.436 585.992 518.937 542.391 554.187 501.321C557.76 497.153 561.484 492.736 565.573 487.817C575.625 475.734 585.51 463.36 595.973 450.257C626.411 412.143 657.887 372.734 693.2 341.588C706.462 329.947 720.073 319.885 733.657 311.677C746.814 303.729 760.376 297.26 773.964 292.454C799.879 283.291 826.318 279.757 854.789 281.651C879.558 283.184 908.635 287.68 936.506 309.386C962.054 329.375 984.449 359.647 1006.11 388.918C1011.09 395.649 1016.24 402.608 1021.24 409.178C1075.71 480.706 1131.81 561.507 1187.97 649.334L1187.83 649.532Z" fill="#A1A1A1"/>
<path d="M1185.83 646.878C1129.39 556.84 1075.77 477.342 1021.9 403.838C1016.76 396.826 1011.7 389.664 1006.34 382.082C985.4 352.441 963.742 321.794 938.608 302.377C910.422 280.705 880.096 278.901 856.825 279.752C801.155 281.522 749.077 304.852 697.618 351.074C666.743 378.942 638.237 412.407 610.669 444.773C596.18 461.783 582.495 477.846 568.54 493.092C564.398 497.622 560.549 501.748 556.777 505.708C533.396 530.219 513.574 547.824 494.391 561.116C471.107 577.25 449.338 586.509 427.839 589.423C416.793 590.92 405.822 590.638 395.232 588.586C384.019 586.413 373.227 582.245 363.155 576.199C340.83 562.796 322.257 540.521 307.952 509.987C307.277 508.538 306.603 507.055 305.949 505.579C294.767 480.352 286.586 452.211 278.674 424.998C276.563 417.737 274.38 410.228 272.184 402.928C261.371 366.886 250.06 336.293 237.604 309.401C236.002 305.945 234.347 302.479 232.685 299.096C202.342 237.442 161.688 186.645 115.12 152.199C72.1385 120.538 27.8138 104.018 -12.8321 104.018C-24.3228 104.018 -35.5108 105.337 -46.3016 108.006C-79.3343 116.338 -111.419 145.587 -128.045 182.522C-139.78 208.594 -143.644 237.851 -139.22 267.128L-139.406 267.19C-141.715 251.913 -141.811 236.684 -139.693 221.929C-137.73 208.25 -133.864 194.938 -128.204 182.364C-119.723 163.522 -107.235 146.483 -92.0885 133.086C-77.7909 120.439 -61.9687 111.671 -46.3357 107.73C-20.5947 101.36 7.27995 102.575 36.5108 111.335C62.8703 119.233 89.3471 132.895 115.204 151.943C161.798 186.409 202.476 237.234 232.838 298.924C234.502 302.307 236.159 305.776 237.761 309.235C250.222 336.141 261.539 366.748 272.358 402.807C274.554 410.107 276.739 417.616 278.85 424.879C286.758 452.081 294.935 480.211 306.108 505.418C306.762 506.892 307.436 508.375 308.109 509.821C334.86 566.917 378.493 595.825 427.824 589.139C477.742 582.371 522.903 540.87 556.671 505.471C560.443 501.511 564.29 497.385 568.432 492.858C582.386 477.618 596.068 461.552 610.555 444.545C638.127 412.176 666.637 378.702 697.523 350.826C724.017 327.029 750.015 309.686 777.007 297.803C803.037 286.342 829.147 280.344 856.825 279.465C872.615 278.887 885.498 279.89 897.369 282.619C912.695 286.142 926.214 292.52 938.699 302.121C963.856 321.555 985.522 352.218 1006.48 381.873C1011.83 389.455 1016.9 396.614 1022.03 403.627C1075.91 477.133 1129.53 556.638 1185.97 646.681L1185.83 646.878Z" fill="#A1A1A1"/>
<path d="M1183.82 644.222C1127.9 553.198 1075.2 472.752 1022.69 398.279C1017.5 390.911 1012.37 383.32 1006.95 375.285C986.633 345.176 965.625 314.039 940.799 295.109C912.38 273.539 882.086 274.401 858.87 277.561C806.334 284.464 755.002 311.531 701.94 360.304C675.796 384.451 650.905 412.084 626.832 438.81C607.802 459.936 589.829 479.891 571.391 498.131C567.224 502.257 563.138 506.203 559.252 509.856C535.826 531.852 514.768 548.096 494.875 559.517C471.056 573.193 448.918 580.076 427.197 580.555C416.145 580.797 405.218 579.309 394.726 576.127C383.727 572.79 373.142 567.572 363.265 560.616C341.706 545.432 323.584 522.21 309.403 491.591C308.738 490.146 308.068 488.66 307.415 487.175C296.443 462.255 288.085 434.709 280 408.071C277.714 400.534 275.347 392.737 272.97 385.158C261.714 349.184 250.151 318.851 237.622 292.418C235.997 288.993 234.319 285.557 232.634 282.206C201.892 221.124 160.928 171.043 114.175 137.378C58.6718 97.579 1.1843 82.8547 -47.6932 95.9161C-80.2984 104.781 -112.17 134.105 -128.888 170.62C-140.888 196.83 -145.182 226.307 -141.308 255.869L-141.493 255.922C-143.513 240.513 -143.358 225.166 -141.03 210.309C-138.868 196.518 -134.837 183.11 -129.045 170.46C-120.481 151.753 -108.056 134.799 -93.1131 121.43C-78.98 108.786 -63.2865 99.8677 -47.7273 95.637C-22.0146 88.7681 5.88838 89.4784 35.2062 97.7538C61.63 105.212 88.226 118.456 114.256 137.121C161.038 170.804 202.025 220.915 232.784 282.034C234.471 285.385 236.15 288.824 237.775 292.251C250.312 318.698 261.878 349.046 273.14 385.034C275.519 392.613 277.884 400.41 280.173 407.949C288.253 434.577 296.607 462.112 307.572 487.014C308.225 488.497 308.895 489.982 309.558 491.425C336.591 549.793 378.368 581.35 427.193 580.267C466.81 579.394 508.74 556.941 559.149 509.611C563.034 505.958 567.118 502.015 571.285 497.888C589.717 479.652 607.69 459.702 626.716 438.576C650.793 411.848 675.689 384.208 701.84 360.056C728.593 335.463 754.173 316.849 780.043 303.143C806.251 289.258 832.03 280.794 858.853 277.271C882.094 274.105 912.423 273.246 940.886 294.85C965.738 313.802 986.758 344.954 1007.09 375.076C1012.51 383.112 1017.63 390.7 1022.82 398.065C1075.33 472.54 1128.04 552.992 1183.96 644.021L1183.82 644.222Z" fill="#A1A1A1"/>
<path d="M1181.81 641.567C1126.42 549.553 1074.63 468.155 1023.48 392.724C1018.29 385.066 1013.16 377.109 1007.73 368.684C987.991 338.037 967.574 306.348 942.993 287.846C914.305 266.354 884.06 269.892 860.916 275.374C811.486 286.86 762.346 316.782 706.264 369.541C685.231 389.417 664.676 411.222 644.798 432.308C620.656 457.918 597.852 482.11 574.241 503.179C569.987 506.978 565.776 510.626 561.727 514.014C537.881 533.953 516.173 548.316 495.361 557.922C483.704 563.303 472.196 567.201 461.157 569.509C449.383 571.97 437.741 572.705 426.555 571.696C403.859 569.647 382.603 560.678 363.378 545.041C342.615 528.152 324.945 503.985 310.859 473.206C310.197 471.749 309.533 470.261 308.884 468.784C298.147 444.231 289.639 417.339 281.413 391.334C278.922 383.462 276.347 375.322 273.758 367.401C262.048 331.487 250.234 301.409 237.64 275.447C235.993 272.051 234.29 268.646 232.584 265.329C201.443 204.816 160.171 155.451 113.233 122.572C57.3584 83.5879 -0.286041 69.8331 -49.0822 83.8388C-101.33 99.0677 -152.243 164.868 -143.391 244.62L-143.578 244.665C-145.793 224.715 -144.496 205.061 -139.723 186.244C-135.365 169.059 -128.214 152.886 -118.467 138.179C-109.405 124.503 -98.5329 112.696 -86.1551 103.084C-74.3826 93.9435 -61.5754 87.1901 -49.1201 83.5597C-23.4377 76.1891 4.49559 76.4005 33.9023 84.1911C60.3905 91.2066 87.1075 104.034 113.312 122.318C160.277 155.22 201.574 204.613 232.734 265.159C234.442 268.48 236.144 271.885 237.793 275.284C250.393 301.257 262.212 331.351 273.928 367.28C276.518 375.2 279.092 383.341 281.583 391.216C289.807 417.212 298.311 444.093 309.043 468.631C309.69 470.108 310.352 471.597 311.014 473.051C338.087 532.202 379.124 567.133 426.566 571.417C466.73 575.039 510.911 556.186 561.634 513.771C565.682 510.383 569.89 506.739 574.144 502.939C597.75 481.876 620.55 457.687 644.689 432.08C664.568 410.991 685.125 389.184 706.161 369.304C762.266 316.523 811.429 286.589 860.886 275.095C876.437 271.411 889.313 270.233 901.409 271.391C916.871 272.871 930.499 278.17 943.076 287.593C967.686 306.114 988.114 337.823 1007.87 368.487C1013.29 376.909 1018.42 384.865 1023.61 392.521C1074.76 467.958 1126.56 549.359 1181.95 641.378L1181.81 641.567Z" fill="#A1A1A1"/>
<path d="M1179.81 638.911C1124.94 545.895 1074.06 463.549 1024.27 387.165C1019.12 379.262 1014.02 370.983 1008.63 362.215C989.426 330.982 969.563 298.684 945.182 280.58C915.87 258.907 884.219 265.979 862.96 273.184C805.263 292.497 753.556 337.397 710.587 378.777C695.143 393.71 679.739 409.528 664.84 424.824C634.953 455.511 606.724 484.494 577.093 508.227C572.735 511.719 568.399 515.065 564.204 518.174C539.893 536.154 517.534 548.634 495.85 556.323C471.269 565.041 447.741 567.234 425.915 562.837C403.493 558.319 382.49 547.09 363.493 529.459C343.566 510.969 326.348 485.858 312.313 454.823C311.659 453.366 310.999 451.875 310.354 450.392C299.882 426.29 291.269 400.136 282.937 374.842C280.207 366.553 277.383 357.984 274.546 349.644C262.204 313.278 250.483 284.311 237.66 258.476C235.99 255.111 234.267 251.74 232.536 248.45C200.992 188.513 159.41 139.864 112.286 107.763C56.0414 69.596 -1.76193 56.808 -50.4749 71.7579C-102.91 88.0635 -152.783 152.97 -145.478 233.371L-145.665 233.408C-147.477 213.46 -145.909 193.826 -141.006 175.051C-136.512 157.849 -129.319 141.659 -119.623 126.935C-110.582 113.203 -99.7667 101.308 -87.4759 91.5755C-75.7733 82.3079 -62.9908 75.36 -50.5127 71.4788C-24.8587 63.6065 3.10292 63.319 32.5966 70.622C59.1491 77.195 85.9872 89.6053 112.366 107.506C159.518 139.624 201.123 188.301 232.682 248.276C234.413 251.568 236.138 254.942 237.81 258.307C250.64 284.154 262.365 313.137 274.713 349.517C277.55 357.857 280.374 366.429 283.103 374.718C291.433 400.004 300.045 426.149 310.509 450.24C311.154 451.722 311.812 453.211 312.466 454.668C339.749 514.997 380.047 553.313 425.938 562.558C467.096 570.851 512.295 556.247 564.119 517.92C568.312 514.814 572.648 511.471 577.002 507.979C606.626 484.252 634.851 455.274 664.732 424.59C679.631 409.294 695.037 393.473 710.483 378.537C739.377 350.715 763.414 330.159 786.123 313.848C812.857 294.647 837.976 281.256 862.917 272.907C878.12 267.755 891.372 265.421 903.43 265.776C918.955 266.233 932.64 270.991 945.266 280.326C969.679 298.452 989.552 330.771 1008.77 362.023C1014.16 370.789 1019.25 379.067 1024.4 386.965C1074.2 463.352 1125.08 545.703 1179.95 638.723L1179.81 638.911Z" fill="#A1A1A1"/>
<path d="M1177.8 636.254C1123.47 542.231 1073.5 458.936 1025.06 381.604C1019.98 373.495 1014.95 364.93 1009.63 355.859C990.927 323.998 971.591 291.051 947.376 273.314C917.742 251.692 886.176 261.634 865.008 270.994C812.732 293.912 766.103 337.55 714.912 388.011C705.68 397.146 696.342 406.574 687.31 415.695C652.575 450.77 616.66 487.037 579.945 513.273C575.484 516.463 571.021 519.51 566.68 522.329C542.204 538.203 518.538 549.1 496.338 554.717C471.189 561.082 447.281 560.831 425.271 553.976C403.164 547.09 382.416 533.598 363.604 513.873C344.566 493.912 327.796 467.859 313.762 436.44C313.113 434.98 312.458 433.486 311.817 432.004C301.662 408.466 292.993 383.163 284.61 358.695C281.59 349.878 278.467 340.763 275.329 331.893C262.505 295.564 250.539 266.845 237.673 241.512C235.984 238.186 234.237 234.843 232.481 231.579C200.544 172.205 158.655 124.272 111.342 92.9543C54.7283 55.605 -3.23206 43.7866 -51.8656 59.6779C-102.636 76.4486 -153.43 139.078 -147.565 222.12L-147.752 222.148C-149.161 202.2 -147.322 182.589 -142.289 163.856C-137.661 146.635 -130.424 130.43 -120.781 115.689C-102.99 88.4953 -77.8865 67.9787 -51.9072 59.3989C-26.2834 51.0276 1.70847 50.2384 31.2911 57.0538C57.9079 63.1871 84.8651 75.1774 111.418 92.695C158.757 124.029 200.67 171.994 232.629 231.396C234.386 234.662 236.134 238.005 237.825 241.334C250.696 266.682 262.667 295.412 275.495 331.755C278.633 340.628 281.758 349.743 284.779 358.56C293.16 383.022 301.826 408.319 311.976 431.846C312.615 433.329 313.27 434.82 313.919 436.28C341.997 499.14 380.515 539.742 425.307 553.697C466.784 566.617 514.32 555.977 566.6 522.069C570.939 519.251 575.399 516.207 579.858 513.019C616.56 486.792 652.471 450.531 687.199 415.461C696.23 406.341 705.568 396.912 714.803 387.777C737.211 365.688 763.285 340.351 789.162 319.198C816.231 297.072 841.021 281.217 864.95 270.726C880.013 264.066 893.263 260.61 905.452 260.165C920.824 259.601 934.953 263.942 947.454 273.063C958.301 281.009 969.219 292.866 980.831 309.316C991.084 323.84 1000.58 340.024 1009.77 355.673C1015.09 364.741 1020.11 373.307 1025.19 381.413C1073.64 458.747 1123.6 542.045 1177.94 636.071L1177.8 636.254Z" fill="#A1A1A1"/>
<path d="M1175.8 633.6C1121.99 538.562 1072.94 454.317 1025.85 376.05C1020.86 367.763 1015.92 358.938 1010.69 349.597C992.474 317.073 973.642 283.442 949.566 266.054C927.067 249.855 900.076 250.757 867.05 268.811C820.876 293.91 779.6 335.893 735.9 380.345C730.458 385.881 724.833 391.603 719.234 397.254C717.042 399.472 714.848 401.696 712.655 403.917C671.016 446.109 627.961 489.738 582.794 518.324C578.228 521.216 573.64 523.964 569.155 526.49C544.142 540.563 519.808 549.521 496.831 553.112C471.101 557.131 446.809 554.442 424.633 545.118C402.87 535.966 382.378 520.21 363.726 498.287C345.647 477.038 329.328 450.047 315.219 418.058C314.576 416.595 313.927 415.099 313.29 413.613C303.521 390.814 294.88 366.531 286.522 343.05C283.138 333.54 279.637 323.706 276.121 314.134C262.801 277.83 250.593 249.359 237.697 224.539C235.984 221.241 234.215 217.932 232.437 214.699C200.095 155.9 157.896 108.68 110.398 78.1462C53.417 41.6171 -4.70415 30.7655 -53.2563 47.5982C-103.095 65.02 -153.816 128.162 -149.649 210.871L-149.839 210.894C-150.843 190.944 -148.736 171.355 -143.572 152.67C-138.808 135.429 -131.529 119.205 -121.938 104.452C-104.222 77.202 -79.2054 56.381 -53.2998 47.3248C-27.7044 38.4518 0.315826 37.1609 29.9854 43.4915C56.6665 49.1794 83.7467 60.7526 110.473 77.8869C157.998 108.441 200.224 155.686 232.579 214.516C234.357 217.749 236.129 221.063 237.843 224.361C250.745 249.196 262.96 277.675 276.283 313.993C279.802 323.565 283.301 333.402 286.687 342.912C295.041 366.388 303.681 390.664 313.447 413.456C314.084 414.941 314.731 416.435 315.374 417.898C344.062 482.94 381.86 526.834 424.683 544.839C466.955 562.613 515.539 556.347 569.087 526.219C573.568 523.694 578.155 520.949 582.719 518.059C627.87 489.484 670.918 445.864 712.548 403.678C714.742 401.454 716.934 399.233 719.126 397.015C724.725 391.363 730.35 385.642 735.792 380.109C779.502 335.648 820.789 293.654 866.984 268.543C881.904 260.386 895.15 255.811 907.477 254.551C922.906 252.976 937.094 256.761 949.647 265.797C960.431 273.585 971.212 285.497 982.608 302.214C992.661 316.964 1001.9 333.461 1010.83 349.414C1016.06 358.752 1021 367.574 1025.99 375.858C1073.09 454.128 1122.14 538.376 1175.94 633.416L1175.8 633.6Z" fill="#A1A1A1"/>
<path d="M1173.79 630.944C1124.68 542.383 1075.17 454.753 1026.63 370.491C1021.69 361.962 1016.79 352.798 1011.61 343.099C994.747 311.548 975.634 275.788 951.756 258.789C928.994 242.619 901.956 245.181 869.093 266.62C830.019 292.026 795.441 329.384 758.832 368.935C747.367 381.32 735.512 394.13 723.554 406.487C702.681 428.103 680.103 450.976 656.435 471.808C631.087 494.12 607.93 510.984 585.639 523.369C580.956 525.97 576.242 528.42 571.625 530.644C546.083 542.941 521.087 549.94 497.332 551.445C471.035 553.108 446.359 548.001 423.986 536.253C382.673 514.29 346.565 468.338 316.666 399.672C316.029 398.206 315.386 396.706 314.752 395.221C305.478 373.428 296.989 350.436 288.78 328.2C284.916 317.735 280.921 306.911 276.902 296.378C263.075 260.083 250.622 231.863 237.71 207.57C235.972 204.3 234.181 201.022 232.382 197.823C199.647 139.591 157.138 93.0895 109.454 63.3364C52.1042 27.6247 -6.17397 17.7455 -54.6467 35.5168C-104.788 54.004 -154.238 116.309 -151.736 199.621L-151.925 199.633C-152.525 179.677 -150.145 160.11 -144.855 141.474C-139.952 124.21 -132.632 107.969 -123.095 93.2051C-114.111 79.2953 -103.462 67.1331 -91.4453 57.0537C-79.7787 47.2704 -67.4141 39.9307 -54.694 35.2406C-29.127 25.8687 -1.07643 24.0761 28.6802 29.9191C55.4256 35.1701 82.625 46.3233 109.525 63.0743C157.238 92.8443 199.771 139.374 232.526 197.634C234.325 200.836 236.12 204.117 237.858 207.387C250.775 231.694 263.234 259.925 277.066 296.232C281.086 306.768 285.08 317.591 288.945 328.059C297.154 350.293 305.641 373.281 314.911 395.066C315.543 396.554 316.188 398.051 316.823 399.517C346.699 468.13 382.775 514.045 424.049 535.985C466.563 558.308 517.574 556.369 571.566 530.373C576.18 528.149 580.893 525.703 585.573 523.104C635.411 495.417 681.011 450.198 723.444 406.253C735.402 393.896 747.256 381.089 758.72 368.704C795.337 329.145 829.923 291.778 869.016 266.36C901.929 244.888 929.021 242.326 951.835 258.533C962.53 266.146 973.149 278.08 984.299 295.011C994.131 309.941 1003.09 326.709 1011.76 342.922C1016.94 352.621 1021.84 361.781 1026.78 370.305C1075.32 454.57 1124.83 542.2 1173.94 630.763L1173.79 630.944Z" fill="#A1A1A1"/>
<path d="M1171.79 628.288C1123.43 539.237 1074.86 450.631 1027.42 364.932C1022.63 356.31 1017.89 346.986 1012.86 337.115C996.408 304.828 977.763 268.231 953.946 251.52C930.912 235.378 903.824 239.6 871.136 264.423C836.887 290.394 805.42 327.064 774.99 362.53C759.732 380.313 743.953 398.702 727.876 415.717C702.5 442.601 681.149 463.109 660.681 480.261C635.443 501.409 611.828 517.159 588.489 528.411C583.698 530.722 578.856 532.87 574.099 534.795C549.313 544.821 524.974 549.894 501.69 549.897C500.396 549.897 499.11 549.88 497.823 549.849C470.904 549.195 445.846 541.636 423.345 527.385C412.484 520.468 401.848 511.688 391.735 501.287C382.228 491.512 372.886 479.998 363.968 467.067C347.922 443.802 332.923 415.74 318.117 381.283C317.481 379.8 316.847 378.315 316.218 376.824C307.627 356.493 299.499 335.241 291.64 314.687C287.102 302.824 282.411 290.555 277.686 278.612C263.139 241.818 250.816 214.669 237.725 190.59C235.964 187.351 234.15 184.104 232.329 180.936C199.196 123.282 156.379 77.4965 108.51 48.5241C50.7932 13.6326 -7.64384 4.72302 -56.0371 23.4329C-105.238 42.5092 -154.624 105.288 -153.821 188.366L-154.01 188.369C-154.384 149.672 -144.093 112.876 -124.249 81.9583C-115.28 67.9837 -104.688 55.7341 -92.7638 45.542C-81.1615 35.6262 -68.8216 28.0949 -56.0844 23.1567C-30.5477 13.2831 -2.46689 10.9916 27.3767 16.3469C54.1865 21.1583 81.5069 31.8943 108.579 48.2591C156.479 77.2513 199.321 123.065 232.475 180.753C234.296 183.924 236.114 187.174 237.875 190.412C250.971 214.506 263.3 241.663 277.851 278.471C282.576 290.416 287.269 302.686 291.804 314.549C299.663 335.1 307.789 356.349 316.378 376.674C317.008 378.165 317.64 379.651 318.276 381.13C349.738 454.352 384.131 502.107 423.419 527.125C477.834 561.591 535.367 550.173 574.05 534.524C578.803 532.599 583.641 530.454 588.431 528.143C642.109 502.263 691.09 454.344 727.766 415.489C743.841 398.479 759.618 380.09 774.875 362.311C805.312 326.838 836.785 290.157 871.05 264.175C885.677 253.067 898.916 246.246 911.52 243.326C927.065 239.724 941.366 242.396 954.026 251.269C964.692 258.752 975.208 270.782 986.177 288.043C995.84 303.252 1004.57 320.381 1013.01 336.949C1018.03 346.817 1022.78 356.138 1027.57 364.754C1075 450.454 1123.58 539.059 1171.93 628.11L1171.79 628.288Z" fill="#A1A1A1"/>
<path d="M1169.78 625.633L1028.21 359.377C1023.59 350.681 1019 341.219 1014.14 331.205C998.095 298.154 979.912 260.695 956.141 244.259C933.152 228.368 905.241 234.417 873.182 262.239C842.363 288.985 814.254 324.553 787.069 358.951C769.35 381.373 751.027 404.556 732.202 424.96C675.618 486.287 626.168 522.509 576.579 538.955C556.007 545.776 535.714 549.209 516.033 549.209C510.067 549.209 504.162 548.894 498.319 548.262C470.764 545.286 445.324 535.28 422.708 518.526C401.747 502.996 382.571 481.073 364.091 451.5C349.334 427.886 335.188 399.733 319.573 362.903C311.332 343.466 303.352 323.27 295.635 303.74C278.169 259.545 260.109 213.844 237.75 173.622C203.454 111.932 158.437 63.5532 107.566 33.7155C49.4846 -0.352983 -9.1113 -8.2958 -57.4251 11.3527C-104.201 30.3754 -154.97 90.3609 -155.905 177.117L-156.094 177.112C-155.676 138.333 -145.063 101.542 -125.403 70.7152C-107.627 42.8421 -83.5029 21.6631 -57.4743 11.0793C-31.9659 0.706813 -3.8549 -2.08642 26.0739 2.7813C52.9479 7.15013 80.3893 17.4719 107.636 33.4533C132.808 48.2172 156.714 67.6514 178.693 91.2177C200.855 114.981 220.774 142.643 237.894 173.436C260.263 213.672 278.328 259.384 295.798 303.591C303.515 323.118 311.495 343.311 319.734 362.745C342.515 416.484 374.818 482.724 422.793 518.267C477.812 559.027 536.767 551.862 576.537 538.674C626.102 522.238 675.529 486.03 732.09 424.726C750.908 404.331 769.229 381.147 786.947 358.731C814.136 324.327 842.253 288.751 873.088 261.991C905.201 234.121 933.172 228.066 956.22 244C966.863 251.359 977.283 263.493 988.076 281.101C997.575 296.601 1006.07 314.107 1014.29 331.036C1019.15 341.05 1023.74 350.507 1028.36 359.199L1169.93 625.455L1169.78 625.633Z" fill="#A1A1A1"/>
<path d="M1168.64 605.165C1132.59 531.03 1101.66 470.873 1071.3 415.851C1056.57 389.122 1041.51 362.813 1026.57 337.654C1022.05 330.044 1017.57 321.949 1012.83 313.378C1000.91 291.835 988.588 269.56 974.407 253.029C966.794 244.136 959.465 237.769 952.001 233.563C929.089 220.527 902.208 229.147 872.105 259.184C856.525 274.706 842.339 292.371 830.517 307.602C818.002 323.728 805.656 341.51 793.715 358.706C776.554 383.426 758.808 408.985 739.73 430.936C728.122 444.333 716.356 456.303 704.755 466.518C681.547 486.953 656.636 503.791 630.716 516.565C614.701 524.37 598.608 530.269 582.888 534.097C569.339 537.383 555.766 539.28 542.543 539.734C522.752 540.416 503.471 537.814 485.233 531.994C465.842 525.804 447.491 515.925 430.691 502.627C415.71 490.769 401.56 475.839 387.433 456.98C361.107 421.866 340.11 381.264 324.759 349.814C317.217 334.292 309.854 318.462 302.733 303.155C282.227 259.069 262.858 217.43 238.621 180.34C218.853 150.288 196.299 124.354 171.58 103.254C152.584 87.0383 131.923 73.7768 110.173 63.8356C104.992 61.4708 99.7134 59.2667 94.4872 57.2908C71.9863 48.7984 46.6557 43.2683 19.201 40.8527C-8.47879 38.3611 -32.4267 40.5173 -54.0065 47.4511C-66.2065 51.3408 -78.0263 57.443 -89.1425 65.586C-128.387 94.3357 -153.587 142.599 -156.553 194.692L-156.789 194.661C-155.998 180.774 -153.678 167.095 -149.893 154C-146.297 141.561 -141.358 129.565 -135.215 118.345C-123.607 97.1487 -107.711 78.7939 -89.2465 65.2675C-78.1133 57.1104 -66.2746 50.9997 -54.0557 47.1044C-32.4532 40.165 -8.48636 38.006 19.2161 40.5004C46.686 42.916 72.0298 48.4517 94.5459 56.9498C99.7777 58.9284 105.059 61.1326 110.243 63.5002C132.01 73.4471 152.688 86.7199 171.699 102.949C196.436 124.064 219.008 150.02 238.786 180.092C263.038 217.204 282.411 258.855 302.924 302.952C310.043 318.26 317.407 334.086 324.946 349.605C340.29 381.041 361.277 421.623 387.588 456.715C401.7 475.554 415.835 490.47 430.798 502.314C463.678 528.338 501.271 540.811 542.535 539.382C555.747 538.928 569.311 537.031 582.848 533.747C598.557 529.92 614.638 524.026 630.64 516.227C656.545 503.461 681.441 486.634 704.634 466.211C716.227 456.005 727.986 444.04 739.585 430.654C758.651 408.714 776.393 383.161 793.549 358.45C805.491 341.251 817.839 323.463 830.36 307.332C842.188 292.092 856.381 274.422 871.973 258.888C885.376 245.514 898.353 236.275 910.547 231.424C925.526 225.466 939.502 226.074 952.084 233.234C959.571 237.453 966.921 243.837 974.553 252.75C988.754 269.306 1001.08 291.596 1013.01 313.152C1017.75 321.721 1022.23 329.816 1026.75 337.42C1041.7 362.582 1056.75 388.894 1071.49 415.628C1101.85 470.656 1132.78 530.819 1168.83 604.959L1168.64 605.165Z" fill="#A1A1A1"/>
<path d="M1167.5 584.691C1134.08 509.302 1102.71 446.216 1071.6 391.831C1056.43 365.265 1040.72 339.729 1024.93 315.931C1020.74 309.618 1016.6 303.056 1012.22 296.111C999.101 275.313 985.536 253.807 970.342 238.927C962.67 231.382 955.319 226.128 947.865 222.864C919.323 210.361 890.33 234.048 871.032 256.121C857.358 271.713 844.871 289.344 832.223 307.543C821.152 323.474 810.735 340.611 799.708 358.752C783.341 385.681 766.416 413.526 747.263 436.906C735.897 450.855 724.036 462.916 712.008 472.753C689.604 491.079 665.069 505.31 637.004 516.264C621.297 522.391 605.212 526.757 589.195 529.235C575.68 531.301 562.19 532.039 549.098 531.422C529.619 530.514 510.58 526.433 492.505 519.294C473.522 511.793 455.409 500.835 438.672 486.722C424.007 474.359 409.847 459.021 395.383 439.832C369.115 405.03 346.612 366.449 329.944 336.724C323.774 325.72 317.703 314.649 311.83 303.938C288.441 261.287 266.351 220.998 239.496 187.056C219.425 161.689 196.892 140.24 172.526 123.305C154.09 110.492 134.549 100.892 112.79 93.9552C107.768 92.3571 102.659 90.9168 97.6071 89.6738C75.4164 84.2423 51.7333 82.1876 23.0794 80.0624C2.42453 78.4529 -24.6141 77.3931 -50.5896 83.5433C-62.8918 86.4014 -74.7835 91.3649 -85.9375 98.2903C-125.208 122.68 -151.848 165.286 -157.201 212.266L-157.48 212.196C-156.062 199.737 -153.187 187.519 -148.94 175.875C-144.893 164.781 -139.574 154.144 -133.133 144.25C-120.894 125.456 -104.612 109.427 -86.0472 97.8985C-74.8724 90.9591 -62.958 85.9871 -50.635 83.1234C-24.6349 76.9647 2.42451 78.0273 23.0926 79.6367C51.756 81.762 75.4467 83.8167 97.6525 89.251C102.708 90.4968 107.821 91.9371 112.849 93.5353C134.629 100.48 154.189 110.089 172.646 122.916C197.036 139.867 219.588 161.334 239.679 186.727C266.553 220.694 288.653 260.994 312.049 303.662C317.92 314.37 323.992 325.441 330.162 336.442C346.826 366.156 369.319 404.723 395.573 439.507C410.02 458.677 424.164 473.999 438.812 486.347C471.723 514.096 508.834 529.116 549.107 530.994C562.188 531.608 575.665 530.872 589.167 528.806C605.168 526.332 621.24 521.971 636.932 515.846C664.975 504.905 689.488 490.685 711.874 472.375C723.887 462.549 735.733 450.506 747.085 436.57C766.221 413.21 783.139 385.376 799.5 358.461C810.531 340.312 820.949 323.172 832.028 307.233C844.682 289.022 857.175 271.386 870.861 255.777C883.372 241.467 895.712 231.173 907.539 225.175C921.88 217.903 935.476 216.987 947.948 222.45C955.429 225.728 962.806 230.998 970.5 238.566C985.721 253.474 999.298 275 1012.43 295.815C1016.81 302.757 1020.95 309.316 1025.13 315.627C1040.93 339.433 1056.64 364.978 1071.82 391.552C1102.93 445.951 1134.31 509.048 1167.74 584.454L1167.5 584.691Z" fill="#A1A1A1"/>
<path d="M1166.36 564.215C1135.08 486.549 1104.18 422.304 1071.89 367.812C1056.28 341.41 1039.93 316.649 1023.29 294.21C1019.73 289.413 1016.07 284.322 1012.53 279.401C997.909 259.068 982.788 238.044 966.279 224.827C958.53 218.581 951.155 214.438 943.735 212.163C915.253 203.429 887.895 229.58 869.96 253.053C857.803 268.899 846.691 286.859 835.944 304.23L833.931 307.483C824.173 323.242 815.02 340.525 805.328 358.827C789.896 387.968 773.939 418.099 754.796 442.875C743.657 457.396 731.701 469.547 719.259 478.989C697.566 495.453 673.423 507.201 643.286 515.961C627.702 520.49 611.625 523.32 595.498 524.369C582.018 525.212 568.611 524.789 555.647 523.106C516.399 518.035 479.727 500.442 446.649 470.815C432.349 458.008 418.18 442.266 403.334 422.682C378.21 389.611 355.864 355.619 335.131 323.636C332.351 319.349 329.601 315.09 326.871 310.865C298.554 267.039 271.809 225.642 240.376 193.781C219.856 172.979 197.345 156.017 173.473 143.361C155.947 134.071 136.953 127.763 115.409 124.076C110.553 123.251 105.615 122.571 100.729 122.058C88.4382 120.79 75.4021 120.584 61.6001 120.367C50.5142 120.192 39.0518 120.012 26.9559 119.276C3.59431 117.735 -22.8825 115.99 -47.1766 119.643C-59.7113 121.528 -71.6749 125.35 -82.7362 131.005C-121.992 151.073 -150.073 188.028 -157.852 229.859L-158.172 229.726C-156.122 218.697 -152.694 207.938 -147.986 197.749C-143.485 188.005 -137.787 178.721 -131.054 170.155C-118.175 153.773 -101.503 140.075 -82.8459 130.537C-71.76 124.869 -59.7719 121.038 -47.2125 119.15C-22.8938 115.494 3.59621 117.241 26.9672 118.783C39.0556 119.516 50.5179 119.699 61.6001 119.874C75.4078 120.091 88.4476 120.297 100.75 121.568C105.639 122.084 110.583 122.763 115.443 123.589C137.013 127.278 156.03 133.595 173.581 142.899C197.481 155.569 220.016 172.551 240.56 193.375C272.021 225.264 298.779 266.681 327.108 310.527C329.837 314.752 332.589 319.008 335.368 323.298C356.096 355.275 378.435 389.259 403.552 422.318C418.383 441.88 432.536 457.607 446.819 470.398C479.854 499.988 516.478 517.556 555.675 522.621C568.624 524.301 582.018 524.724 595.483 523.881C611.593 522.833 627.655 520.006 643.222 515.482C673.328 506.73 697.443 494.996 719.108 478.555C731.523 469.133 743.457 457.004 754.577 442.508C773.695 417.764 789.642 387.65 805.065 358.525C814.761 340.215 823.92 322.923 833.685 307.153L835.698 303.9C846.451 286.521 857.569 268.55 869.739 252.686C887.73 229.137 915.185 202.91 943.799 211.684C951.254 213.97 958.657 218.128 966.435 224.399C982.979 237.644 998.117 258.69 1012.75 279.046C1016.29 283.967 1019.96 289.058 1023.51 293.852C1040.16 316.302 1056.52 341.078 1072.14 367.494C1104.44 422.008 1135.35 486.275 1166.64 563.967L1166.36 564.215Z" fill="#A1A1A1"/>
<path d="M1165.22 543.738C1136.5 464.899 1105.2 397.627 1072.19 343.797C1056.14 317.562 1039.14 293.573 1021.66 272.495C1019.13 269.451 1016.54 266.291 1014.04 263.236C997.516 243.052 980.427 222.178 962.225 210.734C954.411 205.77 947.016 202.74 939.611 201.466C911.208 196.585 885.477 225.157 868.89 249.986C858.591 265.325 849.295 282.383 840.305 298.88C838.75 301.735 837.195 304.585 835.638 307.423C827.087 323.016 819.092 340.435 810.628 358.874C796.237 390.223 781.357 422.637 762.329 448.849C751.154 464.242 739.438 476.142 726.508 485.235C699.464 504.252 672.437 511.29 649.567 515.67C634.098 518.63 618.028 519.926 601.8 519.515C588.361 519.134 575.035 517.547 562.196 514.802C524.126 506.682 487.935 486.534 454.628 454.918C440.769 441.766 426.593 425.616 411.285 405.544C395.822 385.318 381.413 365.856 367.477 347.033C358.006 334.239 349.059 322.156 340.323 310.563C307.298 266.74 277.047 228.209 241.262 200.514C220.301 184.293 197.813 171.812 174.424 163.421C157.659 157.406 139.74 154.478 118.031 154.199C113.348 154.148 108.578 154.23 103.855 154.444C96.6803 154.79 89.2581 155.515 81.4029 156.284C66.3279 157.758 49.2384 159.43 30.8306 158.494C23.8208 158.136 16.6692 157.632 9.75204 157.141C-8.03912 155.881 -26.4356 154.579 -43.7671 155.743C-56.4948 156.6 -68.5322 159.283 -79.5405 163.72C-118.73 179.518 -148.25 210.824 -158.509 247.463L-158.859 247.246C-156.173 237.652 -152.194 228.356 -147.032 219.615C-142.074 211.222 -135.999 203.293 -128.978 196.052C-115.448 182.1 -98.389 170.732 -79.6427 163.176C-68.6078 158.728 -56.544 156.036 -43.7879 155.179C-26.4375 154.013 -8.03345 155.318 9.76718 156.577C16.6824 157.068 23.8341 157.572 30.8419 157.93C49.2327 158.866 66.3089 157.198 81.3764 155.723C89.2355 154.954 96.6595 154.23 103.841 153.883C108.57 153.669 113.344 153.587 118.033 153.638C139.772 153.914 157.718 156.851 174.511 162.874C197.929 171.276 220.447 183.771 241.435 200.015C257.599 212.524 273.979 228.373 291.511 248.464C307.207 266.449 322.475 286.129 340.572 310.143C349.309 321.739 358.256 333.822 367.728 346.616C381.663 365.436 396.072 384.898 411.531 405.122C426.823 425.173 440.985 441.307 454.827 454.444C488.088 486.018 524.228 506.138 562.245 514.247C575.069 516.989 588.378 518.573 601.802 518.954C618.011 519.365 634.064 518.072 649.514 515.112C672.355 510.74 699.346 503.711 726.343 484.727C739.238 475.66 750.923 463.791 762.068 448.438C781.064 422.27 795.933 389.882 810.312 358.558C818.782 340.108 826.781 322.68 835.341 307.071C836.898 304.233 838.451 301.383 840.006 298.531C849.002 282.022 858.304 264.953 868.616 249.594C879.407 233.441 890.478 221.013 901.52 212.659C914.6 202.763 927.428 198.811 939.647 200.914C947.088 202.194 954.519 205.238 962.365 210.221C980.616 221.696 997.726 242.595 1014.27 262.805C1016.78 265.86 1019.36 269.02 1021.88 272.061C1039.38 293.156 1056.4 317.167 1072.46 343.423C1089.98 372.006 1107.15 404.572 1123.47 440.216C1137.9 471.72 1152.05 506.462 1165.54 543.473L1165.22 543.738Z" fill="#A1A1A1"/>
<path d="M1164.07 523.256C1137.49 442.156 1106.68 373.698 1072.49 319.781C1056 293.712 1038.35 270.498 1020.02 250.779C1019.15 249.84 1018.28 248.901 1017.4 247.96C998.348 227.429 978.643 206.2 958.177 196.642C950.248 192.938 942.828 191.019 935.495 190.771C907.206 189.818 883.082 220.777 867.827 246.914C858.85 262.205 850.881 278.965 843.176 295.172C841.271 299.18 839.3 303.323 837.355 307.359C829.947 322.732 823.06 340.21 815.77 358.717C802.509 392.38 788.798 427.186 769.868 454.82C758.916 470.807 747.106 482.798 733.762 491.479C707.472 508.579 680.778 513.069 655.848 515.375C640.476 516.795 624.412 516.553 608.102 514.656C594.706 513.05 581.466 510.301 568.746 506.491C531.972 495.498 496.261 472.797 462.61 439.016C449.133 425.49 435.352 409.407 419.242 388.402C388.625 348.593 365.889 320.553 345.526 297.489C305.024 251.616 274.111 224.628 242.166 207.248C220.779 195.613 198.314 187.617 175.392 183.479C159.488 180.61 142.611 180.866 120.669 184.319C116.173 185.035 111.573 185.878 106.996 186.827C102.672 187.738 98.2801 188.781 93.629 189.883C76.4563 193.956 56.9912 198.573 34.7134 197.71C22.9712 197.256 10.9773 196.013 -0.62117 194.812C-13.8028 193.448 -27.4328 192.036 -40.3553 191.845C-53.3119 191.653 -65.423 193.197 -76.3424 196.439C-115.401 208.026 -146.365 233.689 -159.168 265.086L-159.531 264.756C-156.206 256.599 -151.674 248.766 -146.062 241.474C-140.645 234.434 -134.195 227.863 -126.89 221.942C-112.7 210.436 -95.2496 201.4 -76.4257 195.816C-65.4759 192.569 -53.3384 191.019 -40.3515 191.21C-27.4176 191.402 -13.7801 192.814 -0.592789 194.181C11.0019 195.382 22.9901 196.625 34.7229 197.079C56.9609 197.938 76.4052 193.327 93.559 189.26C98.212 188.155 102.608 187.115 106.934 186.202C111.517 185.252 116.12 184.409 120.62 183.69C142.595 180.235 159.501 179.975 175.439 182.853C198.394 186.997 220.891 195.004 242.308 206.656C274.297 224.058 305.241 251.075 345.779 296.987C366.15 320.06 388.893 348.108 419.518 387.929C435.616 408.916 449.383 424.982 462.844 438.495C496.45 472.228 532.108 494.898 568.827 505.873C581.53 509.678 594.755 512.421 608.132 514.028C624.423 515.922 640.467 516.164 655.82 514.746C680.711 512.444 707.36 507.965 733.589 490.904C746.885 482.256 758.653 470.305 769.567 454.375C788.455 426.8 802.153 392.03 815.399 358.404C822.695 339.886 829.585 322.394 837.006 306.998C838.95 302.965 840.921 298.822 842.826 294.814C850.537 278.593 858.512 261.822 867.504 246.506C877.459 229.447 887.896 215.955 898.524 206.4C910.974 195.207 923.417 189.742 935.502 190.145C942.877 190.393 950.335 192.324 958.302 196.044C978.836 205.636 998.569 226.894 1017.65 247.456C1018.53 248.397 1019.4 249.338 1020.27 250.274C1038.62 270.016 1056.29 293.258 1072.79 319.355C1107.02 373.32 1137.85 441.832 1164.45 522.988L1164.07 523.256Z" fill="#A1A1A1"/>
<path d="M665.26 515.082C664.199 515.082 663.153 515.079 662.124 515.071C646.831 514.975 630.773 513.199 614.398 509.789C601.052 506.956 587.895 503.047 575.292 498.173C557.285 491.223 539.214 481.233 521.576 468.485C504.543 456.173 487.39 440.908 470.59 423.108C454.128 405.67 438.752 386.238 427.195 371.257C400.155 336.301 374.427 307.083 350.727 284.413C312.341 247.698 278.134 225.316 243.072 213.976C221.92 207.136 199.226 203.528 177.376 203.528C177.037 203.528 176.7 203.528 176.362 203.531C157.591 203.627 139.769 208.824 123.31 214.427C119.026 215.896 114.594 217.5 110.138 219.199C107.696 220.141 105.25 221.11 102.662 222.136C84.4116 229.383 63.7246 237.594 38.5927 236.92C23.2869 236.508 7.65384 234.146 -7.46469 231.861C-17.2266 230.384 -27.3195 228.859 -36.947 227.937C-50.1817 226.671 -62.3608 227.077 -73.1498 229.149C-112.001 236.601 -144.407 256.625 -159.84 282.714L-160.195 282.249C-152.28 268.869 -140.373 257.284 -124.806 247.814C-109.939 238.772 -92.0967 232.075 -73.2103 228.453C-62.393 226.378 -50.1817 225.967 -36.9168 227.238C-27.2797 228.16 -17.1812 229.687 -7.41551 231.164C7.69356 233.45 23.3171 235.812 38.6021 236.221C63.6698 236.895 84.3208 228.695 102.541 221.463C105.131 220.434 107.577 219.464 110.02 218.523C114.48 216.823 118.916 215.217 123.204 213.748C139.692 208.136 157.543 202.93 176.36 202.832C198.558 202.716 221.659 206.335 243.172 213.294C261.268 219.149 278.811 227.765 296.801 239.637C314.127 251.072 331.85 265.526 350.98 283.827C374.7 306.514 400.446 335.754 427.504 370.733C439.051 385.705 454.416 405.123 470.86 422.542C504.95 458.659 540.126 483.877 575.409 497.5C587.995 502.367 601.135 506.271 614.462 509.101C630.816 512.506 646.852 514.282 662.124 514.375C686.02 514.521 713.768 513.32 740.832 497.071C754.53 488.847 766.38 476.82 777.061 460.305C795.818 431.302 808.253 394.077 820.281 358.075C826.468 339.556 832.311 322.064 838.664 306.923C840.699 302.072 842.753 297.075 844.74 292.241C851.45 275.91 858.388 259.026 866.382 243.42C875.518 225.465 885.321 210.901 895.518 200.134C907.342 187.651 919.394 180.666 931.342 179.375C938.717 178.578 946.202 179.392 954.225 181.867C975.677 188.479 996.939 207.691 1018.65 228.484C1037.57 246.613 1056.41 269.712 1073.12 295.285C1091.68 323.609 1109.12 356.837 1124.96 394.046C1139.06 427.195 1151.98 463.685 1163.36 502.503L1162.93 502.785C1138.49 419.422 1108.17 349.774 1072.78 295.778C1056.09 270.241 1037.29 247.177 1018.39 229.079C996.721 208.322 975.501 189.147 954.129 182.558C946.149 180.097 938.706 179.288 931.377 180.08C909.422 182.456 886.473 205.101 866.758 243.848C858.78 259.426 851.848 276.296 845.142 292.61C843.156 297.447 841.1 302.447 839.065 307.298C832.723 322.411 826.884 339.889 820.705 358.39C814.803 376.055 808.701 394.322 801.699 411.882C793.761 431.79 785.815 447.788 777.403 460.796C766.675 477.383 754.772 489.464 741.009 497.728C728.872 505.017 715.826 509.834 701.128 512.461C688.68 514.673 676.177 515.082 665.26 515.082Z" fill="#A1A1A1"/>
<path d="M695.592 516.494C685.947 516.494 676.683 515.638 668.394 514.769C653.155 513.174 637.104 509.862 620.689 504.924C607.4 500.868 594.326 495.8 581.831 489.856C547.616 473.612 513.836 446.573 478.562 407.2C463.179 390.032 448.677 371.559 435.145 354.112C408.43 319.767 381.779 291.919 355.929 271.338C317.91 241.069 282.339 224.978 243.984 220.699C222.13 218.261 199.084 219.256 177.336 223.574C159.132 227.187 141.971 235.908 125.95 244.528C121.942 246.695 117.679 249.063 113.281 251.563C112.182 252.191 111.074 252.831 109.95 253.477C91.4992 264.108 70.6211 276.138 43.8265 276.138C43.3744 276.138 42.9243 276.135 42.4684 276.127C24.3406 275.853 5.83252 271.998 -12.0684 268.266C-19.1652 266.786 -26.5041 265.258 -33.546 264.021C-47.3008 261.608 -59.2133 260.895 -69.9663 261.848C-109.076 265.315 -142.088 279.34 -160.534 300.336L-160.85 299.719C-151.731 289.34 -138.545 280.329 -122.723 273.661C-107.16 267.102 -88.9283 262.75 -69.9985 261.073C-59.2152 260.117 -47.2724 260.83 -33.4874 263.249C-26.4379 264.486 -19.0971 266.017 -11.9984 267.493C5.88548 271.22 24.3765 275.073 42.4703 275.346C69.8229 275.763 91.0414 263.533 109.759 252.747C110.881 252.101 111.991 251.461 113.09 250.83C117.492 248.327 121.757 245.959 125.769 243.792C141.816 235.156 159.01 226.424 177.262 222.799C199.044 218.475 222.128 217.477 244.018 219.918C263.025 222.038 281.148 227.044 299.419 235.218C318.237 243.637 336.8 255.224 356.169 270.648C382.052 291.257 408.737 319.139 435.48 353.517C449.006 370.959 463.499 389.421 478.869 406.572C514.095 445.891 547.824 472.891 581.984 489.109C594.46 495.042 607.517 500.104 620.788 504.155C637.179 509.087 653.208 512.396 668.424 513.986C694.031 516.664 721.272 518.039 748.07 503.222C762.171 495.423 774.105 483.319 784.549 466.219C803.158 435.758 814.739 394.209 824.959 357.551C830.1 339.106 834.957 321.684 840.316 306.833C842.249 301.475 844.195 295.936 846.077 290.581C851.963 273.824 858.05 256.498 865.255 240.317C873.59 221.466 882.76 205.831 892.509 193.846C903.706 180.083 915.371 171.582 927.176 168.586C934.554 166.712 942.067 166.413 950.14 167.664C972.696 171.168 995.611 188.48 1017.02 206.668C1036.78 223.461 1056.29 245.773 1073.44 271.191C1092.52 299.383 1110.1 332.944 1125.69 370.936C1139.63 404.912 1151.94 442.275 1162.26 481.995L1161.78 482.274C1139.82 397.845 1109.15 325.044 1073.08 271.738C1055.96 246.368 1036.48 224.098 1016.76 207.339C995.407 189.193 972.55 171.923 950.089 168.434C942.064 167.188 934.598 167.487 927.267 169.347C905.469 174.88 883.602 200.233 865.692 240.739C858.5 256.887 852.421 274.196 846.54 290.936C844.658 296.294 842.712 301.833 840.777 307.196C835.43 322.014 830.578 339.419 825.441 357.844C815.204 394.559 803.604 436.176 784.935 466.738C774.432 483.931 762.432 496.102 748.252 503.946C735.946 510.75 722.672 514.691 707.667 515.984C703.609 516.351 699.569 516.494 695.592 516.494Z" fill="#A1A1A1"/>
<path d="M714.63 519.545C714.492 519.545 714.356 519.545 714.218 519.545C700.588 519.495 687.206 517.009 674.665 514.466C659.448 511.383 643.407 506.532 626.983 500.055C613.754 494.781 600.763 488.549 588.374 481.536C555.527 462.97 523.17 434.297 486.541 391.293C473.35 375.811 460.369 359.139 447.813 343.019C446.244 341.001 444.672 338.986 443.1 336.97C416.247 302.634 388.671 276.153 361.141 258.267C323.442 233.776 285.421 223.685 244.906 227.42C222.691 229.469 199.666 235.069 178.32 243.615C161.479 250.36 146.472 261.181 128.601 274.626C124.979 277.363 121.111 280.316 116.431 283.924L116.17 284.127C107.142 291.134 96.9095 299.074 85.4321 305.112C72.2504 312.045 59.4622 315.383 46.3486 315.343C25.8999 315.267 5.03131 309.596 -15.1488 304.108C-20.0931 302.764 -25.2076 301.374 -30.1444 300.117C-44.302 296.518 -56.2864 294.7 -66.7822 294.562C-105.429 294.054 -139.857 302.589 -161.238 317.973L-161.484 317.212C-151.011 309.675 -136.884 303.559 -120.63 299.522C-104.347 295.478 -85.7234 293.471 -66.7765 293.719C-56.2505 293.857 -44.2358 295.678 -30.0479 299.286C-25.1074 300.543 -19.9928 301.932 -15.0466 303.277C5.10887 308.756 25.951 314.422 46.3505 314.498C46.4413 314.498 46.534 314.498 46.6248 314.498C75.8045 314.498 98.035 297.248 115.909 283.377L116.172 283.175C120.854 279.564 124.722 276.61 128.346 273.873C146.247 260.406 161.28 249.566 178.175 242.801C199.556 234.238 222.619 228.629 244.872 226.577C264.698 224.751 283.399 226.143 302.047 230.839C322.142 235.898 341.547 244.616 361.367 257.494C388.951 275.415 416.574 301.938 443.471 336.331C445.042 338.346 446.614 340.364 448.184 342.382C460.734 358.496 473.711 375.162 486.891 390.634C523.472 433.584 555.782 462.218 588.575 480.753C600.947 487.757 613.919 493.978 627.129 499.246C643.53 505.714 659.548 510.557 674.741 513.635C701.953 519.154 728.595 522.981 755.321 509.407C769.825 502.039 781.84 489.86 792.048 472.17C810.49 440.216 820.564 395.938 829.454 356.87C833.615 338.58 837.545 321.302 841.979 306.783C843.685 301.197 845.397 295.419 847.052 289.829C852.227 272.354 857.578 254.287 864.14 237.251C871.692 217.495 880.228 200.787 889.508 187.59C900.087 172.55 911.36 162.538 923.015 157.837C930.243 154.923 937.618 153.502 945.543 153.502C945.715 153.502 945.887 153.502 946.061 153.505C970.699 153.696 996.055 170.377 1015.39 184.887C1035.99 200.347 1056.18 221.87 1073.77 247.13C1093.37 275.192 1111.09 309.083 1126.43 347.864C1140.2 382.666 1151.89 420.906 1161.18 461.527L1160.64 461.801C1146.82 401.359 1120.47 315.16 1073.38 247.742C1055.83 222.538 1035.69 201.066 1015.14 185.642C995.856 171.172 970.578 154.539 946.059 154.35C937.984 154.28 930.5 155.695 923.165 158.654C901.57 167.367 880.783 195.429 864.631 237.671C858.085 254.667 852.74 272.715 847.57 290.17C845.915 295.762 844.202 301.543 842.495 307.133C838.073 321.615 834.146 338.87 829.991 357.14C821.086 396.279 810.993 440.641 792.479 472.72C782.203 490.528 770.107 502.789 755.505 510.204C743.129 516.487 729.752 519.545 714.63 519.545Z" fill="#A1A1A1"/>
<path d="M729.769 523.516C726.833 523.516 723.833 523.375 720.762 523.093C707.317 521.861 694.251 518.166 680.935 514.164C665.499 509.524 649.909 503.318 633.275 495.189C620.115 488.701 607.209 481.31 594.916 473.218C563.732 452.721 532.768 422.548 494.521 375.387C485.022 363.676 475.527 351.392 466.344 339.512C461.344 333.046 456.177 326.358 451.057 319.827C423.884 285.26 395.387 260.151 366.357 245.196C327.999 225.435 288.577 221.816 245.834 234.133C223.252 240.641 200.248 250.847 179.311 263.647C162.492 273.929 147.841 288.368 132.329 303.657L131.256 304.714C128.833 307.109 126.384 309.539 123.904 311.997C122.476 313.415 121.038 314.841 119.588 316.278C110.543 325.289 100.773 334.689 89.57 341.925C76.5623 350.324 63.6965 354.456 50.233 354.558C27.8191 354.721 4.95689 346.959 -17.1506 339.444C-20.3056 338.37 -23.5703 337.263 -26.7385 336.211C-41.5922 331.279 -53.3023 328.441 -63.5957 327.274C-101.58 322.97 -137.427 326.002 -161.948 335.597L-162.105 334.712C-137.52 325.092 -101.599 322.048 -63.5484 326.36C-53.2267 327.53 -41.4863 330.377 -26.6042 335.318C-23.4341 336.372 -20.1694 337.48 -17.0126 338.554C4.82448 345.975 27.3973 353.644 49.5143 353.644C49.7526 353.644 49.991 353.644 50.2312 353.642C78.8378 353.427 99.2014 335.484 119.249 315.517C120.7 314.08 122.137 312.654 123.565 311.236C126.045 308.775 128.493 306.348 130.918 303.95L131.99 302.893C147.528 287.579 162.204 273.114 179.078 262.798C200.053 249.973 223.097 239.75 245.719 233.231C288.57 220.883 328.098 224.513 366.559 244.328C395.661 259.323 424.224 284.487 451.458 319.131C456.578 325.664 461.747 332.35 466.746 338.819C475.926 350.696 485.419 362.977 494.912 374.68C533.114 421.787 564.034 451.918 595.164 472.381C607.44 480.459 620.326 487.841 633.468 494.318C650.077 502.436 665.644 508.634 681.058 513.265C704.455 520.297 733.574 529.052 762.573 515.568C777.481 508.637 789.575 496.381 799.545 478.1C817.809 444.615 826.277 397.519 833.751 355.97C836.996 337.919 840.062 320.87 843.641 306.72C845.035 301.207 846.433 295.505 847.783 289.989C852.315 271.491 857.003 252.364 863.021 234.172C869.81 213.498 877.71 195.715 886.504 181.318C896.468 165.004 907.352 153.484 918.852 147.078C926.232 142.965 933.796 140.431 941.977 139.329C952.932 137.852 964.593 139.431 977.625 144.143C988.653 148.135 1000.47 154.33 1013.77 163.087C1035.21 177.211 1056.07 197.948 1074.1 223.053C1094.22 250.983 1112.08 285.209 1127.17 324.776C1140.77 360.406 1151.84 399.523 1160.09 441.044L1159.5 441.303C1142.09 353.644 1111.61 276.372 1073.68 223.724C1055.7 198.686 1034.89 178.009 1013.52 163.927C984.877 145.059 962.165 137.531 942.032 140.243C933.906 141.336 926.395 143.853 919.066 147.934C891.705 163.175 873.786 203.464 863.572 234.575C857.568 252.722 852.887 271.826 848.36 290.302C847.008 295.821 845.61 301.526 844.216 307.042C840.649 321.149 837.587 338.179 834.345 356.207C826.856 397.846 818.369 445.04 800.022 478.678C789.973 497.103 777.782 509.457 762.754 516.444C752.569 521.179 741.706 523.516 729.769 523.516Z" fill="#A1A1A1"/>
<path d="M742.883 528.065C722.881 528.065 703.651 520.407 687.198 513.856C671.721 507.695 656.139 499.994 639.562 490.318C626.475 482.623 613.652 474.072 601.452 464.897C564.881 437.427 532.278 397.998 502.494 359.479C496.413 351.615 490.27 343.508 484.331 335.67C476.084 324.784 467.555 313.53 459.009 302.684C431.43 267.775 402.012 244.034 371.574 232.12C332.2 216.711 291.372 219.56 246.76 240.835C223.79 251.788 200.809 266.6 180.299 283.669C164.481 296.832 151.097 313.451 136.928 331.045C135.924 332.29 134.917 333.542 133.905 334.793L133.357 335.475C129.912 339.757 126.351 344.182 122.74 348.624C114.088 359.315 104.561 370.372 93.5413 378.82C80.7493 388.626 67.8532 393.516 54.1117 393.77C29.9917 394.218 5.4082 384.113 -18.3638 374.341C-20.0302 373.656 -21.689 372.974 -23.3403 372.3C-39.0168 365.891 -50.4526 362.091 -60.4169 359.977C-97.4481 352.125 -134.718 349.656 -162.67 353.204L-162.727 352.221C-134.729 348.664 -97.4046 351.136 -60.3242 358.999C-50.3316 361.119 -38.8711 364.927 -23.1662 371.348C-21.515 372.021 -19.8562 372.703 -18.1879 373.391C5.53871 383.144 30.0749 393.223 54.1022 392.783C83.944 392.231 104.96 369.307 122.316 347.863C125.927 343.421 129.489 338.996 132.933 334.717L133.482 334.035C134.494 332.781 135.5 331.532 136.504 330.286C150.698 312.662 164.105 296.015 179.976 282.807C200.523 265.707 223.548 250.869 246.558 239.897C267.708 229.812 287.574 223.988 307.289 222.094C329.281 219.983 350.965 223.036 371.741 231.167C402.275 243.118 431.78 266.927 459.437 301.931C467.988 312.783 476.519 324.04 484.768 334.929C490.707 342.767 496.846 350.871 502.926 358.732C532.679 397.208 565.242 436.595 601.747 464.015C613.93 473.175 626.734 481.716 639.802 489.399C656.354 499.061 671.912 506.75 687.367 512.903C711.097 522.351 740.631 534.111 769.812 521.737C785.126 515.243 797.299 502.912 807.031 484.038C825.106 448.978 831.87 398.984 837.837 354.873C840.236 337.15 842.5 320.41 845.292 306.664C846.324 301.579 847.361 296.325 848.363 291.243C852.286 271.366 856.343 250.81 861.891 231.1C867.927 209.49 875.192 190.627 883.484 175.043C892.839 157.458 903.333 144.431 914.674 136.321C922.04 131.056 929.628 127.406 937.879 125.16C948.993 122.135 961.326 122.237 974.534 125.461C986.1 128.286 998.748 133.61 1012.13 141.291C1034.4 154.079 1055.94 174.026 1074.42 198.976C1095.06 226.776 1113.06 261.332 1127.91 301.689C1141.32 338.147 1151.78 378.143 1158.99 420.563L1158.35 420.806C1143.07 330.921 1113.1 252.4 1073.98 199.709C1055.56 174.84 1034.09 154.958 1011.89 142.212C983.115 125.693 958.944 120.43 937.998 126.132C929.808 128.362 922.272 131.986 914.96 137.212C887.976 156.505 871.539 199.123 862.502 231.48C856.968 251.14 852.916 271.668 848.999 291.519C847.996 296.601 846.958 301.858 845.925 306.948C843.143 320.65 840.88 337.367 838.486 355.067C835.615 376.289 832.361 400.34 827.638 422.889C822.227 448.724 815.658 468.922 807.557 484.639C802.871 493.726 797.488 501.46 791.555 507.627C785.173 514.259 777.919 519.327 769.994 522.687C760.926 526.534 751.826 528.065 742.883 528.065Z" fill="#A1A1A1"/>
<path d="M754.705 533.056C748.093 533.056 741.164 532.097 733.846 530.184C719.433 526.415 705.637 519.577 693.463 513.548C678.12 505.947 662.099 496.49 645.849 485.444C632.845 476.554 620.106 466.841 607.99 456.57C573.211 427.124 543.248 387.971 510.469 343.567C507.556 339.621 504.598 335.596 501.738 331.701C490.474 316.37 478.828 300.518 466.963 285.54C438.926 250.223 408.589 227.852 376.793 219.047C336.686 207.939 293.247 217.522 247.687 247.534C224.308 262.935 201.348 282.35 181.289 303.684C166.185 319.747 153.753 338.685 140.59 358.737C139.253 360.774 137.91 362.818 136.559 364.87C133.198 369.983 129.578 375.471 125.895 380.964C118.172 392.523 108.76 405.694 97.5154 415.709C84.9277 426.921 71.9995 432.573 57.995 432.981C32.358 433.734 6.26135 421.084 -18.9765 408.851L-19.9374 408.386C-32.2944 402.4 -45.3663 396.351 -57.2334 392.678C-93.4059 381.486 -131.105 373.715 -163.383 370.797L-163.339 369.743C-131.027 372.663 -93.2943 380.44 -57.0897 391.644C-45.1886 395.328 -32.0939 401.385 -19.718 407.38L-18.7571 407.845C6.42592 420.05 32.4696 432.668 57.9818 431.922C87.4452 431.059 107.794 406.56 125.394 380.212C129.076 374.721 132.693 369.233 136.054 364.123C137.405 362.074 138.748 360.027 140.085 357.992C153.27 337.907 165.726 318.935 180.878 302.818C200.975 281.442 223.979 261.991 247.401 246.562C268.777 232.483 289.812 222.781 309.918 217.73C332.892 211.961 355.436 212.051 376.925 218.001C408.842 226.84 439.291 249.29 467.423 284.729C479.298 299.721 490.949 315.578 502.218 330.917C505.078 334.809 508.037 338.834 510.949 342.78C543.696 387.142 573.627 426.253 608.343 455.649C620.443 465.903 633.163 475.601 646.148 484.48C662.375 495.509 678.369 504.952 693.69 512.542C717.706 524.442 747.595 539.248 777.068 527.903C792.788 521.852 805.041 509.447 814.529 489.976C832.405 453.292 837.578 398 841.736 353.57C843.355 336.264 844.883 319.919 846.956 306.615C847.609 302.421 848.269 298.1 848.906 293.92C852.216 272.206 855.642 249.75 860.777 228.035C868.708 194.243 883.774 149.038 910.51 125.579C917.892 119.102 925.509 114.333 933.794 111.001C955.47 102.159 981.279 105.02 1010.5 119.499C1033.61 130.951 1055.83 150.109 1074.75 174.905C1095.92 202.572 1114.05 237.461 1128.65 278.609C1135.35 297.483 1141.27 317.641 1146.25 338.524C1151 358.472 1154.92 379.186 1157.91 400.091L1157.21 400.311C1144.07 308.193 1114.62 228.424 1074.28 175.697C1055.43 150.994 1033.3 131.91 1010.28 120.5C981.19 106.086 955.519 103.233 933.979 112.019C925.755 115.325 918.196 120.057 910.869 126.487C884.316 149.782 869.338 194.756 861.447 228.382C856.323 250.04 852.905 272.465 849.597 294.151C848.959 298.331 848.301 302.655 847.646 306.852C845.581 320.11 844.053 336.433 842.437 353.714C840.345 376.071 837.975 401.41 833.924 425.326C829.269 452.807 823.112 474.158 815.102 490.596C810.532 499.974 805.187 507.883 799.217 514.101C792.786 520.801 785.392 525.789 777.244 528.924C770.092 531.68 762.623 533.056 754.705 533.056Z" fill="#A1A1A1"/>
<path d="M765.598 538.327C757.673 538.327 749.314 536.796 740.387 533.727C725.921 528.757 712.003 520.51 699.724 513.232C684.265 504.072 668.254 493.082 652.134 480.565C639.216 470.488 626.562 459.614 614.524 448.241C581.401 416.969 552.991 376.663 522.913 333.995C521.424 331.884 519.936 329.77 518.443 327.656C504.456 307.835 489.994 287.338 474.917 268.397C446.392 232.632 415.135 211.628 382.015 205.968C340.414 198.857 295.532 215.095 248.612 254.225C225.142 273.798 201.584 298.469 182.276 323.693C167.697 342.738 156.003 364.168 143.624 386.858C142.158 389.544 140.688 392.238 139.207 394.939C136.249 400.342 132.729 406.749 129.044 413.302C122.22 425.47 112.921 440.932 101.486 452.565C89.0983 465.167 76.1417 471.59 61.8743 472.196C50.1472 472.633 37.2058 469.936 22.3085 463.946C9.5184 458.805 -2.85371 452.086 -16.5442 444.475C-29.0411 437.443 -42.2304 430.18 -54.0634 425.382C-89.1143 411.171 -126.138 398.727 -164.104 388.388L-163.967 387.28C-125.979 397.622 -88.9346 410.077 -53.8648 424.294C-41.9996 429.106 -28.7914 436.38 -16.2794 443.419C6.66797 456.178 35.2273 472.064 61.8535 471.069C92.2949 469.772 111.858 442.19 128.464 412.575C132.146 406.027 135.664 399.623 138.621 394.223C140.102 391.522 141.571 388.828 143.035 386.145C155.436 363.418 167.15 341.952 181.777 322.844C201.124 297.57 224.728 272.851 248.243 253.242C295.305 213.993 340.342 197.713 382.102 204.849C398.114 207.586 413.841 213.942 428.844 223.739C444.943 234.25 460.608 248.989 475.405 267.538C490.499 286.498 504.97 307.007 518.965 326.841C520.458 328.958 521.948 331.069 523.437 333.18C553.487 375.812 581.872 416.078 614.931 447.291C626.951 458.647 639.586 469.507 652.486 479.567C668.583 492.065 684.569 503.04 700.006 512.187C724.266 526.562 754.459 544.451 784.314 534.076C800.486 528.456 812.821 515.975 822.017 495.923C839.734 457.624 842.889 399.118 845.426 352.11C846.334 335.297 847.19 319.417 848.611 306.575C848.904 303.926 849.197 301.262 849.491 298.585C852.142 274.398 854.885 249.386 859.654 224.977C866.459 189.868 880.081 142.262 906.335 114.843C913.659 107.193 921.3 101.308 929.698 96.8489C941.371 90.5944 954.378 87.6546 968.358 88.1056C981.122 88.5171 994.75 91.75 1008.86 97.7114C1032.8 107.822 1055.7 126.191 1075.07 150.831C1096.76 178.363 1115.03 213.59 1129.38 255.528C1135.97 274.77 1141.67 295.343 1146.33 316.674C1150.8 337.104 1154.32 358.283 1156.81 379.622L1156.06 379.814C1145.23 286.825 1115.53 203.677 1074.58 151.688C1055.29 127.154 1032.49 108.862 1008.65 98.7909C979.259 86.3721 952.044 86.0677 929.95 97.9058C921.616 102.331 914.033 108.171 906.766 115.762C880.694 142.992 867.149 190.353 860.378 225.287C855.623 249.631 852.884 274.607 850.236 298.762C849.943 301.44 849.649 304.106 849.356 306.756C847.94 319.549 847.085 335.41 846.179 352.197C843.635 399.341 840.47 458.016 822.639 496.56C818.206 506.225 812.904 514.315 806.883 520.597C800.405 527.356 792.869 532.261 784.486 535.175C778.434 537.272 772.165 538.327 765.598 538.327Z" fill="#A1A1A1"/>
<path d="M775.837 543.814C766.807 543.814 757.24 541.638 746.929 537.269C732.342 531.088 718.338 521.435 705.985 512.92C690.372 502.158 674.369 489.629 658.418 475.689C645.592 464.442 633.023 452.404 621.058 439.915C591.594 409.17 566.413 371.505 539.753 331.627C535.395 325.108 530.887 318.368 526.416 311.742C510.698 288.46 497.276 269.263 482.869 251.255C453.835 215.016 421.661 195.379 387.238 192.887C343.984 189.756 297.652 212.643 249.533 260.911C225.629 284.892 202.091 314.29 183.258 343.694C169.07 365.845 157.978 389.958 146.236 415.486C144.781 418.649 143.321 421.822 141.852 424.999C139.234 430.667 135.769 438.136 132.192 445.625C117.139 477.216 97.4738 509.74 65.7519 511.403C64.7627 511.451 63.7697 511.474 62.7785 511.474C38.0078 511.474 12.7189 496.865 -13.1527 480.554L-14.768 479.528C-27.5827 471.376 -39.6881 463.679 -50.8932 458.075C-93.1203 436.958 -133.959 419.133 -164.82 405.965L-164.599 404.812C-133.73 417.986 -92.8801 435.814 -50.6379 456.939C-39.4025 462.557 -27.2839 470.266 -14.4521 478.425L-12.8387 479.451C13.9805 496.36 40.1717 511.443 65.7236 510.208C97.0936 508.562 116.595 476.289 131.535 444.935C135.11 437.451 138.572 429.988 141.189 424.322C142.659 421.143 144.117 417.972 145.572 414.81C157.333 389.242 168.442 365.09 182.675 342.868C201.546 313.402 225.131 283.945 249.083 259.916C271.313 237.615 293.551 220.492 315.178 209.018C339.993 195.852 364.251 190.023 387.276 191.689C421.876 194.192 454.213 213.925 483.383 250.333C497.811 268.369 511.246 287.586 526.98 310.888C531.453 317.514 535.96 324.256 540.32 330.776C566.954 370.614 592.111 408.242 621.517 438.926C633.466 451.401 646.016 463.419 658.823 474.649C674.751 488.572 690.73 501.081 706.32 511.826C730.791 528.695 761.248 549.688 791.561 540.237C808.13 535.071 820.542 522.517 829.503 501.859C846.998 461.815 848.049 400.018 848.895 350.362C849.171 334.161 849.432 318.856 850.266 306.525L850.285 306.243C852.156 278.629 854.091 250.076 858.526 221.905C862.368 197.332 867.719 175.24 874.428 156.237C881.994 134.813 891.323 117.27 902.157 104.093C909.405 95.2761 917.073 88.2718 925.598 82.6825C948.63 67.4931 976.855 65.148 1007.22 75.9066C1019.44 80.236 1031.5 86.7949 1043.05 95.3973C1054.68 104.05 1065.56 114.6 1075.39 126.749C1097.6 154.148 1116.02 189.708 1130.12 232.44C1142.8 270.85 1151.65 314.665 1155.72 359.145L1154.92 359.306C1146.22 264.105 1117.04 179.676 1074.88 127.67C1055.16 103.312 1031.7 85.814 1007.04 77.0792C976.844 66.3826 948.797 68.7023 925.925 83.7874C917.466 89.3344 909.861 96.2823 902.667 105.028C882.44 129.632 867.448 170.144 859.311 222.184C854.887 250.282 852.956 278.795 851.087 306.37L851.068 306.651C850.236 318.938 849.975 334.22 849.699 350.399C848.849 400.206 847.794 462.19 830.177 502.516C825.857 512.477 820.593 520.741 814.536 527.077C808.005 533.91 800.331 538.732 791.725 541.418C786.599 543.014 781.316 543.814 775.837 543.814Z" fill="#A1A1A1"/>
<path d="M66.3387 550.718C55.2622 550.718 43.2003 547.502 29.5874 540.935C16.0615 534.409 2.68498 525.401 -9.75713 516.641C-12.0099 515.046 -14.2456 513.453 -16.4662 511.872C-27.5199 504 -37.9609 496.564 -47.7189 490.772C-86.6284 467.685 -123.716 446.934 -159.584 426.871L-165.527 423.545L-165.228 422.359L-159.285 425.685C-123.416 445.753 -86.322 466.504 -47.405 489.596C-37.6204 495.403 -27.1662 502.847 -16.0992 510.73C-13.8805 512.312 -11.6448 513.904 -9.39397 515.497C16.1466 533.479 43.2816 550.907 69.5995 549.354C101.951 547.347 121.339 509.792 134.613 477.302C138.014 468.993 141.29 460.711 143.764 454.426C145.13 450.962 146.486 447.501 147.838 444.048C159.055 415.425 169.649 388.389 183.582 362.898C201.972 329.255 225.534 295.054 249.931 266.6C272.564 240.201 295.403 219.343 317.817 204.608C343.526 187.704 368.637 178.933 392.453 178.536C428.289 177.741 461.573 196.112 491.367 233.135C507.884 253.682 522.692 275.91 535.002 294.944C541.699 305.302 548.397 315.92 554.875 326.188C577.806 362.54 601.517 400.126 628.109 430.569C639.988 444.172 652.456 457.352 665.165 469.739C680.893 485.036 696.864 499.078 712.639 511.475C737.297 530.85 767.982 554.963 798.811 546.405C815.779 541.696 828.269 529.068 836.994 507.802C854.256 465.943 853.091 400.76 852.152 348.385C851.876 332.896 851.613 318.265 851.929 306.486C852.638 279.932 853.707 249.071 857.409 218.844C860.528 193.232 865.238 170.06 871.407 149.975C878.387 127.254 887.33 108.206 897.986 93.3574C905.047 83.5177 912.961 75.1662 921.505 68.5312C933.697 59.0325 947.378 53.0599 962.172 50.7824C976.025 48.6488 990.631 49.7706 1005.58 54.114C1018.19 57.7782 1030.62 63.8044 1042.53 72.0291C1054.5 80.3045 1065.67 90.6149 1075.71 102.673C1087.29 116.557 1097.94 132.953 1107.36 151.407C1116.28 168.89 1124.19 188.389 1130.86 209.36C1143.35 248.592 1151.57 293.312 1154.62 338.677L1153.78 338.804C1147.21 241.385 1118.56 155.68 1075.18 103.662C1055.31 79.8112 1030.54 62.6572 1005.42 55.3599C974.364 46.3375 945.483 51.2813 921.898 69.6558C913.423 76.2372 905.573 84.5239 898.567 94.2847C878.487 122.262 864.92 164.245 858.245 219.073C854.551 249.218 853.486 280.025 852.778 306.537C852.464 318.273 852.725 332.882 853.004 348.351C853.465 374.189 853.989 403.477 852.234 431.79C850.197 464.643 845.449 489.723 837.72 508.464C833.514 518.718 828.289 527.16 822.195 533.553C815.613 540.458 807.797 545.202 798.968 547.651C794.513 548.889 790.063 549.45 785.639 549.45C759.145 549.45 733.472 529.274 712.244 512.594C696.446 500.178 680.45 486.116 664.702 470.796C651.974 458.392 639.488 445.192 627.593 431.57C600.946 401.064 577.21 363.439 554.257 327.053C547.781 316.788 541.085 306.173 534.391 295.82C522.098 276.809 507.311 254.612 490.825 234.104C461.191 197.279 428.102 179.015 392.466 179.798C336.503 180.734 284.352 228.056 250.456 267.592C226.109 295.99 202.595 330.117 184.244 363.692C170.353 389.108 159.774 416.101 148.574 444.679C147.222 448.132 145.864 451.593 144.498 455.06C142.022 461.348 138.744 469.635 135.341 477.953C129.769 491.592 121.021 511.446 109.434 526.329C103.807 533.555 97.8184 539.235 91.6352 543.212C84.7408 547.646 77.3376 550.137 69.6355 550.614C68.5441 550.684 67.4452 550.718 66.3387 550.718Z" fill="#A1A1A1"/>
<path d="M69.8952 589.958C58.8055 589.958 46.7681 586.494 33.2271 579.425C19.2075 572.108 5.34679 561.82 -6.36142 552.719C-9.959 549.917 -13.549 547.076 -17.0217 544.328C-26.7288 536.647 -35.8986 529.389 -44.5445 523.465C-75.5931 502.184 -106.439 481.408 -136.271 461.315C-146.139 454.668 -156.342 447.797 -166.23 441.122L-165.86 439.902C-155.971 446.576 -145.769 453.448 -135.901 460.094C-106.068 480.188 -75.2185 500.967 -44.1682 522.25C-35.4995 528.192 -26.3183 535.455 -16.6 543.147C-13.1291 545.895 -9.53909 548.733 -5.9453 551.535C18.3374 570.403 46.5033 590.376 73.4738 588.496C106.588 586.134 125.187 545.126 137.693 509.665C140.899 500.58 143.999 491.46 146.341 484.529C147.544 480.971 148.739 477.417 149.933 473.871C160.661 441.979 170.794 411.857 184.492 382.929C202.308 345.307 225.851 306.368 250.78 273.286C285.498 227.413 339.157 171.458 397.63 165.39C434.817 161.427 469.043 178.434 499.354 215.944C512.972 232.805 526.44 252.253 543.024 279.01C551.405 292.531 559.722 306.545 567.764 320.094C588.69 355.346 610.325 391.799 634.704 422.226C646.514 436.97 658.897 451.309 671.51 464.843C686.782 481.217 702.747 496.792 718.961 511.139C743.866 533.042 774.862 560.307 806.062 552.589C823.168 548.446 836.094 535.382 844.485 513.763C861.508 470.01 857.856 398.429 855.187 346.163C854.438 331.495 853.73 317.642 853.592 306.466C853.282 281.629 853.309 248.879 856.291 215.803C861.44 158.487 874.066 113.682 893.818 82.6411C900.741 71.7049 908.681 62.2034 917.414 54.3987C929.838 43.2821 943.855 35.8044 959.08 32.1769C973.423 28.7607 988.517 28.8143 1003.95 32.3375C1016.96 35.376 1029.77 40.8835 1042 48.7023C1054.35 56.6 1065.8 66.6624 1076.04 78.6105C1087.88 92.416 1098.69 108.868 1108.18 127.513C1117.18 145.183 1125.06 164.958 1131.61 186.295C1143.9 226.353 1151.48 271.975 1153.54 318.228L1152.64 318.316C1148.22 218.672 1120.1 131.688 1075.49 79.6675C1055.26 56.0673 1029.8 39.7279 1003.81 33.6623C971.766 26.348 942.053 33.9159 917.88 55.5487C909.217 63.2886 901.343 72.714 894.475 83.5628C874.852 114.398 862.306 158.949 857.184 215.984C854.209 248.97 854.184 281.654 854.493 306.444C854.633 317.58 855.338 331.417 856.085 346.065C857.464 373.081 859.026 403.705 858.134 433.602C857.092 468.415 852.883 494.856 845.264 514.437C841.165 524.998 835.983 533.623 829.856 540.072C823.215 547.065 815.26 551.721 806.211 553.914C792.176 557.384 777.071 554.266 760.031 544.382C745.219 535.788 731.027 523.307 718.507 512.297C702.269 497.931 686.282 482.333 670.988 465.937C658.357 452.382 645.956 438.024 634.129 423.261C609.698 392.772 588.039 356.279 567.093 320.991C559.054 307.444 550.739 293.439 542.366 279.929C525.81 253.22 512.367 233.808 498.781 216.987C468.649 179.691 434.641 162.785 397.691 166.723C339.47 172.769 285.988 228.552 251.374 274.286C226.494 307.301 203 346.158 185.222 383.702C171.562 412.547 161.444 442.627 150.733 474.472C149.539 478.02 148.344 481.575 147.141 485.132C144.797 492.068 141.695 501.198 138.486 510.291C125.869 546.067 107.083 587.441 73.5135 589.834C72.32 589.916 71.1114 589.958 69.8952 589.958Z" fill="#A1A1A1"/>
<path d="M73.5235 629.2C43.2221 629.2 11.4284 601.468 -16.7564 576.881C-25.4175 569.327 -33.5981 562.191 -41.372 556.156L-166.934 458.697L-166.497 457.449L-40.9351 554.908C-33.1404 560.956 -24.9503 568.101 -16.2779 575.667C12.9964 601.203 46.1785 630.147 77.348 627.639C111.192 624.919 129.021 580.458 140.773 542.032C144.616 529.464 148.327 516.676 151.917 504.308C161.736 470.485 171.888 435.509 185.398 402.957C196.127 377.11 209.454 350.004 223.939 324.571C239.829 296.67 256.843 271.072 274.504 248.489C293.976 223.592 313.776 202.997 333.351 187.277C355.003 169.892 376.333 158.542 396.753 153.539C437.66 143.519 474.865 158.725 507.332 198.741C534.314 231.992 557.246 273.109 579.424 312.874C598.728 347.487 618.689 383.274 641.292 413.868C667.4 449.202 695.657 481.81 725.279 510.782C750.237 535.194 781.299 565.579 813.312 558.749C840.349 552.982 855.982 526.025 861.1 476.333C865.454 434.066 861.312 383.926 857.985 343.639C856.85 329.91 855.779 316.941 855.253 306.425C852.352 248.452 854.202 200.595 860.907 160.123C865.091 134.871 871.265 112.362 879.256 93.2206C888.182 71.8387 899.643 54.0139 913.318 40.2422C925.149 28.328 938.482 19.6749 952.95 14.5225C966.722 9.61809 981.222 7.97485 996.047 9.63782C1025.2 12.9074 1053.73 28.8494 1076.36 54.5241C1088.45 68.2478 1099.44 84.7592 1109 103.596C1118.06 121.449 1125.92 141.503 1132.34 163.206C1144.44 204.09 1151.39 250.617 1152.44 297.752L1151.49 297.8C1149.26 197.424 1120.96 106.899 1075.78 55.6487C1027.8 1.22147 959.701 -4.76805 913.844 41.4119C868.418 87.1578 849.56 173.81 856.194 306.321C856.717 316.803 857.788 329.755 858.921 343.467C862.256 383.841 866.407 434.088 862.032 476.548C859.649 499.674 854.86 518.26 847.799 531.792C843.827 539.4 839.04 545.617 833.568 550.268C827.744 555.218 820.974 558.541 813.444 560.147C810.367 560.804 807.237 561.134 804.053 561.134C792.453 561.134 780.096 556.762 766.557 547.906C751.304 537.928 736.584 523.531 724.757 511.963C695.095 482.949 666.799 450.298 640.653 414.913C617.999 384.255 598.017 348.425 578.692 313.776C556.543 274.062 533.639 232.995 506.725 199.829C474.476 160.086 437.526 144.979 396.901 154.931C314.724 175.062 230.073 297.998 186.197 403.701C172.722 436.163 162.583 471.091 152.778 504.869C149.186 517.243 145.473 530.039 141.626 542.618C133.824 568.13 126.118 586.397 117.375 600.101C111.918 608.653 105.998 615.395 99.779 620.138C92.8638 625.412 85.332 628.411 77.3916 629.051C76.1091 629.15 74.8172 629.2 73.5235 629.2Z" fill="#A1A1A1"/>
</g>
</svg>
