<svg width="489" height="32" viewBox="0 0 489 32" fill="none" xmlns="http://www.w3.org/2000/svg">
<path d="M459.705 16.8941C459.035 16.9204 458.359 16.9385 457.703 16.978C457.277 17.0027 457.095 16.9303 456.811 16.8924C456.716 16.8793 456.615 16.8529 456.527 16.8562C455.864 16.8825 455.201 16.9122 454.539 16.9418C454.336 17.006 454.207 17.0916 453.896 17.1229C453.592 17.1525 453.234 17.1525 452.895 17.1673C452.449 17.1854 452.003 17.2036 451.556 17.22C451.333 17.2282 451.151 17.2595 451.076 17.3188C451.063 17.3287 451.211 17.3533 451.293 17.3682C451.563 17.4175 451.827 17.4735 452.124 17.5114C452.408 17.5476 452.76 17.4883 453.064 17.5344C453.747 17.6381 453.754 17.6365 454.275 17.6167C454.721 17.5986 455.168 17.5789 455.614 17.5657C455.702 17.5624 455.803 17.5871 455.898 17.6003C456.182 17.6365 456.364 17.7188 456.784 17.6875C457.102 17.6628 457.453 17.6579 457.785 17.6447C458.062 17.6924 458.319 17.7468 458.616 17.7846C458.894 17.8208 458.975 17.8488 458.826 17.8966C458.691 17.941 458.501 17.9591 458.251 17.9624C458.028 17.9641 457.805 17.9789 457.582 17.9871C457.467 17.992 457.358 17.9953 457.25 18.0003C456.824 18.0184 456.824 18.0184 456.047 17.913C455.742 17.8719 455.397 17.9295 455.107 17.89C454.911 17.8636 454.741 17.8241 454.552 17.7962C454.471 17.7846 454.343 17.783 454.241 17.7863C453.903 17.7978 453.565 17.806 453.24 17.8274C453.01 17.8422 452.875 17.8883 452.902 17.9344C452.909 17.9525 453.071 17.9789 453.166 17.9805C453.382 17.9838 453.612 17.9608 453.822 17.9723C454.025 17.9838 454.234 18.0167 454.383 18.0529C454.687 18.1287 455.032 18.0612 455.323 18.0809C455.627 18.1023 455.877 18.1682 456.168 18.2077C456.243 18.2176 456.385 18.2011 456.5 18.1962C456.831 18.1846 457.162 18.1748 457.494 18.1632C457.771 18.211 458.069 18.2538 458.319 18.3081C458.772 18.4069 459.259 18.4447 459.847 18.397C460.178 18.3706 460.503 18.3805 460.767 18.4447C461.037 18.5106 461.348 18.504 461.693 18.4908C462.011 18.4777 462.336 18.4414 462.66 18.4875C463.363 18.5896 463.37 18.5945 464.202 18.555C464.452 18.5435 464.641 18.5402 464.831 18.5781C465.007 18.6126 465.196 18.6423 465.379 18.6752C465.71 18.6637 466.048 18.6521 466.379 18.639C466.805 18.6209 467.042 18.6439 467.143 18.7361C467.204 18.7921 467.231 18.8431 467.38 18.881C467.556 18.927 467.745 18.9254 468.002 18.9122C468.246 18.9007 468.422 18.8826 468.523 18.8233C468.564 18.7987 468.645 18.7756 468.719 18.7558C468.78 18.741 468.875 18.718 468.929 18.7213C469.03 18.7279 469.165 18.746 469.199 18.7674C469.531 18.9665 469.531 18.9682 469.869 19.0258C470.241 19.09 470.626 19.1476 470.964 19.2201C471.269 19.2842 471.573 19.2563 471.904 19.2563C472.154 19.2563 472.317 19.2991 472.296 19.3419C472.283 19.3666 472.188 19.4028 472.107 19.4061C471.444 19.439 470.775 19.467 470.105 19.49C470.024 19.4933 469.923 19.4637 469.828 19.4489C469.639 19.4192 469.47 19.3731 469.267 19.3633C469.064 19.3534 468.827 19.3781 468.604 19.3863C468.381 19.3945 468.144 19.416 467.942 19.4028C467.739 19.3896 467.576 19.3419 467.387 19.3106C467.299 19.2958 467.177 19.2744 467.103 19.2793C466.609 19.3188 466.244 19.2645 465.893 19.1921C465.818 19.1773 465.69 19.1674 465.595 19.1707C464.811 19.1987 464.033 19.2316 463.249 19.2629C462.931 19.276 462.674 19.2184 462.606 19.1213C462.572 19.067 462.505 19.0126 462.505 18.9583C462.505 18.8596 462.133 18.8052 461.862 18.8168C461.416 18.8332 460.963 18.8464 460.523 18.8711C460.165 18.8908 459.861 18.8711 459.617 18.8118C459.333 18.7443 459.009 18.7575 458.684 18.7756C458.441 18.7888 458.373 18.8431 458.386 18.9797C458.4 19.09 458.285 19.1246 457.845 19.1427C457.291 19.1657 456.73 19.1888 456.168 19.2069C456.08 19.2102 455.979 19.1822 455.891 19.1674C455.702 19.1378 455.533 19.09 455.33 19.0801C455.127 19.0686 454.89 19.0933 454.667 19.1032C454.444 19.1114 454.207 19.1345 454.004 19.1229C453.801 19.1114 453.632 19.062 453.45 19.0308C453.362 19.0159 453.254 18.9945 453.166 18.9978C452.72 19.011 452.273 19.0308 451.827 19.0489C451.326 19.0686 451.326 19.0686 450.616 18.9666C450.292 18.9205 449.967 18.9567 449.649 18.9699C449.311 18.983 448.993 18.9896 448.73 18.9238C448.554 18.881 448.358 18.8546 448.148 18.8629C447.587 18.8826 447.032 18.9073 446.471 18.9271C446.377 18.9303 446.248 18.9221 446.174 18.9073C445.815 18.8382 445.464 18.7838 444.963 18.8184C444.53 18.848 444.064 18.8497 443.631 18.8777C443.394 18.8925 443.286 18.9452 443.333 18.9863C443.36 19.0077 443.503 19.0324 443.597 19.0324C443.814 19.0341 444.05 19.0093 444.253 19.0192C444.672 19.039 444.882 19.1773 445.43 19.1394C445.754 19.1163 446.092 19.1081 446.431 19.1015C446.518 19.0999 446.613 19.1312 446.708 19.1476C446.978 19.1921 447.215 19.2497 447.607 19.2201C447.932 19.197 448.277 19.1904 448.608 19.1773C449.135 19.1559 449.135 19.1575 449.819 19.2579C450.143 19.3057 450.468 19.2678 450.785 19.2563C451.022 19.248 451.245 19.2316 451.435 19.2546C451.725 19.2892 451.935 19.3682 452.293 19.3633C452.632 19.3583 452.963 19.3353 453.301 19.3271C453.511 19.3221 453.707 19.3485 453.876 19.3929C454.052 19.4373 454.241 19.4571 454.471 19.4472C454.802 19.434 455.14 19.4176 455.478 19.4094C455.573 19.4077 455.681 19.4225 455.769 19.4357C455.959 19.4653 456.141 19.4999 456.324 19.5312C456.655 19.5213 456.993 19.518 457.318 19.4983C457.568 19.4834 457.744 19.49 457.947 19.523C458.204 19.5674 458.413 19.6464 458.833 19.6086C459.042 19.5904 459.286 19.5954 459.495 19.5789C459.752 19.5575 459.928 19.5657 460.111 19.6151C460.456 19.709 460.888 19.7106 461.335 19.6744C461.822 19.6349 462.187 19.681 462.552 19.7534C462.937 19.8291 462.937 19.8275 463.235 20.0102C463.323 20.0629 463.573 20.0876 463.783 20.0777C464.134 20.0612 464.439 20.0695 464.696 20.132C464.966 20.1995 465.291 20.1913 465.622 20.1732C466.062 20.1485 466.501 20.1271 466.86 20.2226C467.035 20.2687 467.225 20.2802 467.461 20.2686C468.131 20.239 468.807 20.2209 469.463 20.1847C469.862 20.1617 470.092 20.2143 470.362 20.2588C470.728 20.3197 471.127 20.374 471.127 20.504C471.127 20.5254 471.221 20.5501 471.302 20.5666C471.478 20.6012 471.668 20.6308 471.85 20.6637C472.121 20.7131 472.384 20.7543 472.756 20.7279C473.081 20.7065 473.426 20.6999 473.757 20.6851C474.088 20.6703 474.393 20.6621 474.69 20.7246C475.035 20.7954 475.4 20.8629 475.793 20.9156C476.07 20.9534 476.435 20.8892 476.733 20.9403C476.915 20.9715 477.091 21.0078 477.287 21.0341C477.368 21.0456 477.497 21.0374 477.605 21.0341C477.828 21.0275 478.058 21.0226 478.274 21.0061C478.525 20.988 478.714 20.9913 478.903 21.0292C479.079 21.0637 479.255 21.1115 479.458 21.1213C479.762 21.1362 480.1 21.0703 480.404 21.146C480.56 21.1839 480.756 21.2201 480.959 21.2316C481.162 21.2432 481.399 21.2185 481.615 21.2201C481.71 21.2201 481.825 21.2465 481.879 21.2678C481.912 21.2794 481.865 21.3106 481.818 21.3271C481.757 21.3469 481.669 21.3732 481.581 21.3765C480.912 21.4061 480.242 21.4308 479.573 21.4588C479.174 21.4753 479.174 21.4753 478.369 21.3716C478.18 21.3469 477.97 21.3518 477.733 21.3633C477.416 21.3781 477.091 21.4061 476.76 21.3765C476.327 21.2646 475.793 21.2547 475.225 21.2975C474.988 21.3156 474.771 21.3156 474.596 21.2843C474.224 21.2218 473.832 21.1642 473.5 21.0901C473.243 21.0325 473.121 21.0275 473.013 21.1065C472.979 21.1312 472.946 21.1576 472.952 21.1806C472.993 21.2629 473.067 21.3436 473.108 21.4259C473.121 21.4489 473.067 21.4753 473.034 21.5C472.925 21.5691 472.783 21.5641 472.547 21.5065C472.31 21.4489 472.026 21.4111 471.647 21.4374C471.323 21.4605 470.971 21.4572 470.646 21.4819C470.146 21.5181 469.794 21.4654 469.436 21.3946C469.362 21.3798 469.233 21.3716 469.139 21.3749C468.131 21.4127 467.13 21.4555 466.123 21.4934C465.906 21.5016 465.71 21.4769 465.541 21.4325C465.365 21.388 465.169 21.365 464.953 21.3732C464.06 21.4078 463.167 21.4391 462.275 21.4819C461.909 21.5 461.619 21.4785 461.369 21.4209C461.179 21.3781 461.003 21.365 460.767 21.3699C460.51 21.3748 460.327 21.3913 460.199 21.4391C460.077 21.4851 460.165 21.5131 460.435 21.5493C460.726 21.5888 460.997 21.6399 461.274 21.686C461.497 21.6794 461.72 21.6662 461.937 21.6678C462.031 21.6678 462.119 21.6975 462.214 21.7139C462.484 21.7617 462.734 21.8094 463.12 21.7831C463.445 21.76 463.789 21.7551 464.121 21.7403C464.581 21.7222 464.581 21.7222 465.324 21.8259C465.514 21.8522 465.717 21.8506 465.96 21.8358C466.17 21.8242 466.386 21.8473 466.535 21.8967C466.596 21.9164 466.576 21.9494 466.447 22.058C466.447 22.1387 466.589 22.1024 466.636 22.0498C466.711 21.974 466.569 21.9494 466.298 21.9905C466.109 22.0201 466.014 22.0629 466.062 22.0975C466.089 22.1156 466.217 22.1387 466.447 22.058C467.042 21.9592 467.495 21.9477 467.928 21.9214C468.185 21.9065 468.347 21.9131 468.55 21.9559C468.794 22.007 469.037 22.0613 469.436 22.035C469.869 22.0053 470.329 22.002 470.768 21.9773C471.174 21.9543 471.384 22.0267 471.641 22.0695C471.952 22.1205 472.296 22.0629 472.58 22.0926C472.878 22.1222 473.088 22.1946 473.432 22.2078C473.933 22.1633 474.251 22.2457 474.629 22.3C474.927 22.3411 475.279 22.3049 475.596 22.2868C475.955 22.267 476.252 22.2852 476.503 22.3444C476.787 22.4119 477.105 22.3971 477.429 22.3823C478.186 22.3494 478.213 22.3444 478.653 22.435C478.971 22.5008 479.275 22.4712 479.593 22.4629C479.87 22.5074 480.141 22.5551 480.432 22.5946C480.506 22.6045 480.648 22.588 480.763 22.5831C481.094 22.5699 481.432 22.5568 481.764 22.5436C481.987 22.5354 482.224 22.5107 482.426 22.5206C482.629 22.5321 482.798 22.5798 482.981 22.6111C483.164 22.6424 483.353 22.6736 483.529 22.7066C483.799 22.756 484.056 22.7971 484.435 22.7724C484.759 22.751 485.098 22.7444 485.436 22.7296C485.862 22.7115 485.848 22.7164 486.639 22.8152C487.065 22.8695 487.505 22.8037 487.938 22.7971C488.154 22.7938 488.364 22.8119 488.513 22.8597C488.573 22.8794 488.553 22.9123 488.573 22.9403C487.458 22.9848 486.335 23.0226 485.233 23.0769C484.807 23.0983 484.584 23.0391 484.354 22.9897C483.975 22.9107 483.475 23.0259 483.116 22.9238C482.9 22.8629 482.589 22.8284 482.217 22.858C482 22.8745 481.77 22.8728 481.547 22.8876C480.979 22.9239 480.459 22.9255 480.005 22.8119C479.85 22.7724 479.627 22.751 479.465 22.7132C479.275 22.672 479.093 22.6489 478.869 22.6572C477.862 22.6967 476.861 22.7362 475.86 22.779C475.772 22.7823 475.684 22.807 475.61 22.8251C475.421 22.8712 475.481 22.9074 475.786 22.937C475.887 22.9469 475.968 22.9683 476.063 22.9848C476.246 23.016 476.415 23.0654 476.618 23.0769C476.82 23.0885 477.057 23.0654 477.28 23.0572C477.504 23.049 477.74 23.0243 477.943 23.0341C478.146 23.0457 478.315 23.0934 478.504 23.123C478.592 23.1379 478.7 23.1625 478.788 23.1609C479.235 23.151 479.674 23.1329 480.121 23.1181C480.398 23.1625 480.634 23.2267 480.966 23.2416C481.175 23.2514 481.399 23.2333 481.615 23.2366C481.71 23.2383 481.831 23.263 481.879 23.2844C481.906 23.2975 481.818 23.3305 481.75 23.3469C481.493 23.4095 481.142 23.3979 480.824 23.4177C480.479 23.4391 480.168 23.4325 479.904 23.3683C479.728 23.3255 479.532 23.3025 479.316 23.3107C478.754 23.3321 478.2 23.3568 477.639 23.3749C477.544 23.3782 477.429 23.3634 477.341 23.3519C476.631 23.2514 476.631 23.2482 476.131 23.2696C475.394 23.3008 475.394 23.3008 474.9 23.2136C474.805 23.1971 474.704 23.1658 474.623 23.1675C473.838 23.1938 473.061 23.2202 472.283 23.258C472.026 23.2695 471.85 23.2696 471.661 23.2268C471.499 23.1905 471.309 23.1494 471.106 23.1395C470.897 23.1296 470.667 23.1543 470.444 23.1625C470.22 23.1708 469.984 23.1922 469.788 23.179C469.585 23.1658 469.409 23.1198 469.233 23.0868C469.051 23.0523 468.854 23.0539 468.604 23.0671C467.833 23.1049 467.827 23.1 467.062 22.9979C466.975 22.9864 466.86 22.9732 466.765 22.9765C466.204 22.9963 465.649 23.021 465.088 23.0407C464.871 23.049 464.662 23.0276 464.513 22.9798C464.452 22.9601 464.473 22.9271 464.432 22.8629C464.385 22.8481 464.439 22.8745 464.452 22.8992C464.554 22.8959 464.675 22.8992 464.75 22.886C464.939 22.8547 465.034 22.8136 464.986 22.779C464.959 22.7609 464.831 22.7378 464.75 22.7378C464.601 22.7378 464.473 22.7741 464.432 22.8629C464.006 22.9173 463.553 22.9288 463.113 22.9551C462.856 22.9716 462.694 22.9634 462.491 22.9206C462.248 22.8679 461.997 22.8169 461.598 22.8432C461.166 22.8728 460.706 22.8778 460.259 22.9008C459.746 22.9272 459.522 22.779 459.09 22.7823C458.643 22.7856 458.197 22.8136 457.751 22.8333C457.358 22.8498 457.358 22.8498 456.547 22.7428C456.249 22.7033 455.898 22.7609 455.607 22.7197C455.411 22.6934 455.242 22.6539 455.053 22.6259C454.971 22.6144 454.843 22.6144 454.741 22.6177C454.18 22.6374 453.612 22.6506 453.071 22.6868C452.456 22.7296 451.989 22.6835 451.55 22.5864C450.995 22.6045 450.434 22.6144 449.886 22.6457C449.487 22.6687 449.257 22.6144 448.987 22.5699C448.892 22.5551 448.811 22.5304 448.71 22.5238C448.608 22.5173 448.486 22.5304 448.378 22.5354C447.932 22.5535 447.472 22.5617 447.039 22.5913C446.505 22.6292 446.302 22.4942 445.89 22.4778C445.612 22.5584 445.464 22.6687 444.916 22.6769C444.47 22.6835 444.023 22.7099 443.577 22.728C443.354 22.7362 443.131 22.7461 442.907 22.7543C442.549 22.7691 442.38 22.8333 442.454 22.9321C442.495 22.9864 442.529 23.0407 442.563 23.0951C442.63 23.1922 442.461 23.2745 442.177 23.286C441.393 23.3173 440.615 23.3502 439.831 23.3782C439.621 23.3864 439.418 23.3584 439.249 23.314C439.073 23.2695 438.877 23.2498 438.661 23.258C437.876 23.2893 437.099 23.3222 436.314 23.3502C436.226 23.3535 436.111 23.337 436.023 23.3239C435.834 23.2942 435.651 23.2597 435.469 23.2284C435.023 23.2432 434.583 23.2531 434.143 23.2728C433.433 23.3025 433.433 23.3041 432.913 23.2136C432.818 23.1971 432.723 23.1658 432.635 23.1675C432.297 23.1741 431.966 23.1905 431.628 23.2054C430.634 23.2481 430.634 23.2481 430.343 23.1988C430.079 23.1527 429.843 23.0967 429.444 23.123C429.011 23.1527 428.551 23.1625 428.105 23.179C427.773 23.1905 427.442 23.2037 427.111 23.207C427.023 23.2086 426.928 23.1774 426.833 23.1609C426.563 23.1099 426.299 23.0687 425.927 23.0967C425.711 23.1132 425.481 23.1165 425.258 23.1247C424.676 23.1477 424.676 23.1477 423.723 23.049C423.628 23.0391 423.513 23.0276 423.418 23.0325C422.634 23.0621 421.856 23.0951 421.072 23.123C420.977 23.1263 420.862 23.1164 420.768 23.1082C419.699 23.0127 419.699 23.0128 418.563 23.0588C418.13 23.0753 418.117 23.0819 417.664 22.9946C417.461 22.9568 417.292 22.9387 417.055 22.9502C416.162 22.9897 415.263 23.016 414.377 23.0621C413.978 23.0819 413.748 23.0325 413.478 22.9881C413.383 22.9732 413.282 22.9403 413.201 22.942C412.308 22.9733 411.415 23.0111 410.523 23.0424C410.441 23.0457 410.34 23.0128 410.245 22.9979C410.063 22.9683 409.887 22.9239 409.684 22.914C409.474 22.9041 409.245 22.9288 409.015 22.937C408.453 22.9584 408.453 22.9568 407.804 22.8597C407.716 22.8465 407.601 22.8284 407.513 22.8317C406.621 22.8646 405.721 22.8926 404.836 22.9403C404.328 22.9667 403.983 22.9189 403.625 22.8498C403.551 22.835 403.422 22.8284 403.328 22.8317C402.32 22.8695 401.319 22.9123 400.312 22.9502C400.102 22.9584 399.899 22.9304 399.73 22.8876C399.459 22.8201 399.142 22.8284 398.804 22.8432C398.026 22.8778 398.019 22.8761 397.559 22.7971C397.465 22.7807 397.383 22.7592 397.282 22.751C397.187 22.7428 397.066 22.7477 396.964 22.751C396.518 22.7675 396.072 22.7856 395.625 22.8037C395.179 22.8218 394.726 22.8317 394.286 22.8597C393.745 22.8942 393.488 22.7872 393.11 22.7378C392.555 22.7592 391.987 22.7724 391.439 22.807C391.02 22.8333 390.824 22.7609 390.547 22.723C390.452 22.7099 390.351 22.6819 390.263 22.6852C389.255 22.7214 388.248 22.7609 387.247 22.8053C387.003 22.8152 386.841 22.802 386.638 22.7625C386.185 22.6736 386.165 22.6769 385.407 22.7099C385.076 22.7247 384.758 22.7379 384.474 22.6704C384.224 22.6095 383.92 22.5946 383.561 22.6144C383.122 22.6391 382.669 22.6522 382.222 22.6687C381.776 22.6868 381.33 22.7115 380.883 22.7197C380.525 22.728 380.309 22.6506 380.025 22.6111C379.937 22.5996 379.815 22.5979 379.714 22.6012C379.267 22.616 378.807 22.6275 378.375 22.6555C377.847 22.6901 377.556 22.5996 377.184 22.5469C377.103 22.5354 376.968 22.542 376.866 22.5469C376.082 22.5765 375.304 22.6094 374.52 22.6407C374.243 22.5963 373.959 22.5535 373.681 22.509C373.235 22.5255 372.789 22.5436 372.343 22.5601C372.004 22.5732 371.66 22.5782 371.342 22.6029C370.929 22.6358 370.726 22.5584 370.449 22.5206C370.354 22.5074 370.253 22.4794 370.165 22.4827C369.604 22.5008 369.043 22.5206 368.488 22.5485C367.961 22.5765 367.751 22.4284 367.318 22.43C366.872 22.4317 366.412 22.4531 365.979 22.4827C365.479 22.5173 365.127 22.4646 364.769 22.3938C364.694 22.379 364.566 22.3708 364.471 22.374C363.91 22.3938 363.355 22.4185 362.794 22.4382C362.7 22.4415 362.585 22.4333 362.49 22.4234C361.422 22.3263 361.421 22.3247 360.955 22.3444C360.624 22.3576 360.285 22.3741 359.947 22.3823C359.853 22.3856 359.738 22.3708 359.65 22.3576C358.946 22.2572 358.946 22.2555 358.439 22.2753C357.993 22.2934 357.547 22.3115 357.1 22.3296C356.823 22.2852 356.539 22.2424 356.262 22.1979C355.707 22.2193 355.139 22.2358 354.591 22.2654C354.334 22.2786 354.165 22.2736 353.969 22.2325C353.726 22.1831 353.482 22.1255 353.077 22.1535C352.644 22.1831 352.184 22.1864 351.745 22.2111C351.217 22.2407 351.001 22.0909 350.575 22.0926C350.128 22.0942 349.669 22.1156 349.236 22.1452C348.735 22.1798 348.384 22.1271 348.025 22.0564C347.951 22.0415 347.822 22.0333 347.728 22.0366C346.497 22.0843 345.273 22.1321 344.042 22.1831C343.285 22.2144 343.285 22.216 341.845 22.1255C341.743 22.1189 341.635 22.1123 341.533 22.1156C341.087 22.1304 340.627 22.1419 340.194 22.1699C339.667 22.2045 339.376 22.1156 339.004 22.0613C338.923 22.0498 338.795 22.0563 338.686 22.0596C338.348 22.0712 338.017 22.086 337.679 22.0992C337.233 22.1173 336.786 22.1354 336.34 22.1535C336.063 22.1107 335.779 22.0662 335.501 22.0234C334.947 22.0448 334.379 22.0563 333.831 22.0909C333.412 22.1173 333.216 22.0481 332.938 22.0086C332.844 21.9954 332.742 21.9675 332.655 21.9691C331.647 22.0053 330.639 22.0432 329.639 22.0893C329.226 22.109 329.037 22.0349 328.759 21.9971C328.665 21.9856 328.557 21.9642 328.469 21.9675C327.799 21.9905 327.13 22.0185 326.46 22.0465C326.082 22.0629 326.082 22.0629 325.257 21.9609C325.162 21.9493 325.054 21.9378 324.959 21.9411C322.836 22.0234 320.719 22.1107 318.596 22.193C318.379 22.2012 318.183 22.1765 318.014 22.1321C317.838 22.0876 317.642 22.0646 317.426 22.0728C316.533 22.1074 315.634 22.1387 314.748 22.1815C314.383 22.1996 314.092 22.1782 313.842 22.1205C313.652 22.0777 313.477 22.0613 313.24 22.0712C312.794 22.0909 312.347 22.1074 311.901 22.1255C311.455 22.1436 311.008 22.1617 310.562 22.1798C310.116 22.1979 309.663 22.2078 309.223 22.2358C308.682 22.2703 308.418 22.1683 308.046 22.1173C307.377 22.142 306.707 22.1666 306.045 22.193C305.152 22.2275 304.259 22.2654 303.367 22.2983C303.286 22.3016 303.184 22.272 303.09 22.2572C302.812 22.216 302.609 22.1584 302.197 22.1765C300.195 22.2638 298.18 22.3378 296.172 22.4234C295.753 22.4415 295.57 22.3708 295.286 22.3329C295.191 22.3214 295.083 22.2983 294.995 22.3016C293.879 22.3428 292.764 22.3889 291.648 22.4333C291.195 22.4514 291.195 22.4514 290.437 22.3493C290.349 22.3378 290.234 22.323 290.14 22.3263C288.686 22.3823 287.239 22.4415 285.785 22.4992C285.568 22.5074 285.372 22.4843 285.197 22.4399C285.027 22.3955 284.825 22.3708 284.615 22.379C283.276 22.4317 281.93 22.4827 280.598 22.5403C280.24 22.5568 279.942 22.542 279.685 22.4827C279.503 22.4399 279.32 22.4218 279.09 22.4317C277.082 22.5123 275.073 22.5897 273.065 22.6753C272.679 22.6918 272.409 22.6605 272.166 22.6062C271.969 22.5634 271.8 22.5551 271.557 22.5617C271.3 22.5699 271.144 22.588 271.002 22.6374C270.82 22.7016 270.705 22.7823 270.272 22.7872C269.826 22.7922 269.373 22.8119 268.933 22.8399C268.514 22.8679 268.318 22.7938 268.054 22.7494C267.858 22.7181 267.675 22.7132 267.425 22.728C267.195 22.7411 267.053 22.7691 266.918 22.8218C266.62 22.9337 266.593 22.9337 266.228 22.8629C266.032 22.8251 265.856 22.7955 265.64 22.802C264.747 22.835 263.855 22.8712 262.962 22.909C262.448 22.9304 262.441 22.9337 262.056 22.8514C261.867 22.8103 261.684 22.7905 261.461 22.8004C259.006 22.8992 256.551 22.9946 254.097 23.0983C253.718 23.1148 253.461 23.0802 253.19 23.0309C253.103 23.0144 253.015 22.9913 252.913 22.9848C252.812 22.9782 252.697 22.9848 252.589 22.9881C250.803 23.0588 249.011 23.1263 247.233 23.2054C246.827 23.2235 246.611 23.1708 246.334 23.128C246.239 23.1132 246.158 23.0901 246.056 23.0835C245.955 23.0786 245.833 23.0901 245.725 23.0951C243.94 23.1658 242.148 23.2333 240.369 23.3124C239.943 23.3305 239.76 23.2613 239.483 23.2251C239.389 23.2119 239.287 23.1872 239.199 23.1905C238.638 23.2086 238.083 23.2333 237.522 23.2547C236.183 23.309 234.844 23.3601 233.505 23.4161C232.991 23.4375 232.768 23.2909 232.335 23.2975C231.774 23.3058 231.22 23.3387 230.658 23.3617C230.212 23.3798 229.766 23.3963 229.319 23.4161C228.88 23.4342 228.88 23.4342 227.784 23.3387C227.69 23.3304 227.575 23.3189 227.48 23.3222C225.918 23.3831 224.349 23.444 222.794 23.5099C222.435 23.5247 222.138 23.5165 221.881 23.4556C221.698 23.4128 221.509 23.3914 221.286 23.4012C218.939 23.4951 216.599 23.5889 214.253 23.6811C214.165 23.6844 214.05 23.6679 213.962 23.6547C213.773 23.6251 213.59 23.5906 213.408 23.5593C213.272 23.5971 213.097 23.6317 213.009 23.6745C212.887 23.7321 212.725 23.7486 212.468 23.7584C212.211 23.7683 212.049 23.765 211.846 23.7222C211.602 23.6696 211.352 23.6284 210.953 23.6449C208.498 23.7486 206.043 23.8424 203.589 23.9445C203.183 23.9609 202.994 23.8885 202.71 23.8506C202.615 23.8391 202.507 23.821 202.419 23.8243C201.411 23.8622 200.41 23.9033 199.403 23.9428C196.61 24.0548 193.817 24.1618 191.031 24.2803C190.524 24.3017 190.179 24.2605 189.821 24.1897C189.746 24.1749 189.618 24.1667 189.523 24.17C185.615 24.3247 181.706 24.4811 177.804 24.6375C177.594 24.6457 177.391 24.6194 177.222 24.5766C177.047 24.5321 176.851 24.5107 176.634 24.519C174.849 24.5897 173.064 24.6605 171.279 24.733C170.832 24.7511 170.825 24.7527 170.366 24.6737C170.271 24.6572 170.169 24.626 170.095 24.6293C169.94 24.6375 169.791 24.6786 169.683 24.7346C169.574 24.7939 169.405 24.8103 169.155 24.8218C168.898 24.8334 168.729 24.8284 168.533 24.7889C168.283 24.7395 168.053 24.6918 167.647 24.7083C162.514 24.919 157.382 25.1214 152.249 25.3305C151.837 25.347 151.647 25.2778 151.363 25.24C151.269 25.2284 151.174 25.212 151.073 25.2087C150.964 25.2054 150.849 25.2153 150.741 25.2202C142.369 25.5544 133.998 25.8902 125.626 26.2244C125.126 26.2441 125.132 26.2441 124.585 26.3956C124.517 26.4137 124.429 26.4383 124.334 26.4416C121.771 26.547 119.202 26.649 116.632 26.7511C115.516 26.7956 114.401 26.8417 113.285 26.8845C112.886 26.8993 112.886 26.8993 111.932 27.0771C111.851 27.0919 111.756 27.1116 111.662 27.1149C107.199 27.2943 102.735 27.4738 98.2656 27.6499C97.9139 27.6631 97.6299 27.6927 97.4676 27.7717C97.3527 27.8277 97.2039 27.8606 96.9808 27.8705C93.8566 27.9956 90.7325 28.1223 87.6015 28.2442C87.2296 28.259 87.0063 28.3051 86.8238 28.3742C86.7629 28.3973 86.7088 28.4236 86.6208 28.44C86.5397 28.4549 86.418 28.4598 86.3166 28.4647C83.6387 28.5717 80.9609 28.682 78.2763 28.7841C77.8773 28.7989 77.7149 28.8598 77.5188 28.924C77.4512 28.9454 77.4038 28.975 77.3159 28.9899C77.228 29.003 77.0995 29.003 76.9913 29.0063C74.7597 29.0952 72.5282 29.1858 70.2967 29.2746C69.8639 29.2664 69.7692 29.3619 69.5595 29.4195C69.4851 29.4393 69.4312 29.4656 69.3433 29.4788C69.2486 29.4919 69.1267 29.4903 69.0117 29.4936C67.2265 29.5644 65.4413 29.6401 63.6493 29.7059C63.2368 29.7207 63.1556 29.8047 62.9324 29.8623C62.858 29.8804 62.7837 29.9084 62.6958 29.9133C61.5801 29.9611 60.4643 30.0055 59.3485 30.0483C58.9766 30.0631 58.9766 30.0615 58.3206 30.2245C58.2462 30.2426 58.1582 30.2623 58.0636 30.2673C56.3933 30.3364 54.7163 30.4022 53.0392 30.4697C52.8228 30.478 52.6741 30.5175 52.5659 30.5734C52.4577 30.6294 52.3022 30.6656 52.0858 30.6739C50.7468 30.7282 49.4078 30.7841 48.0688 30.8335C47.6969 30.8467 47.4535 30.8879 47.2912 30.9619C47.1695 31.0179 47.0208 31.0459 46.7841 31.0557C45.4451 31.1084 44.1062 31.1661 42.7605 31.2121C42.3683 31.2253 42.1654 31.2813 42.0031 31.3504C41.8746 31.4064 41.7258 31.4261 41.4756 31.436C39.0209 31.5315 36.5594 31.627 34.1115 31.7323C33.699 31.7504 33.4893 31.6928 33.2188 31.6516C32.8334 31.594 32.4751 31.5315 32.4751 31.4031C32.4751 31.3833 32.3601 31.3603 32.2789 31.3438C31.6771 31.2204 31.6771 31.2204 31.5824 31.0887C31.5283 31.008 31.4674 30.9257 31.4201 30.8434C31.3322 30.7084 31.1157 30.6739 30.4936 30.6986C30.2704 30.7068 30.0473 30.7183 29.8241 30.7249C29.4928 30.7364 29.2426 30.6821 29.1817 30.5833C29.1479 30.529 29.1074 30.4747 29.0736 30.4203C29.4117 30.4072 29.4049 30.4055 29.9999 30.2064C30.2501 30.1224 30.2502 30.1224 29.7701 30.0385C29.5875 30.0072 29.4117 29.9726 29.2156 29.943C29.1277 29.9298 29.0127 29.9216 28.9181 29.9249C28.3568 29.9446 27.8023 29.9677 27.2478 29.9907C26.3552 30.0269 26.3551 30.0269 25.4489 29.859C25.3745 29.8458 25.2596 29.8212 25.2731 29.808C25.3475 29.7471 25.53 29.7207 25.7599 29.7141C26.0981 29.7043 26.4294 29.6878 26.7608 29.6746C26.9839 29.6664 27.2071 29.6565 27.4302 29.6483C27.6399 29.5858 27.8564 29.5249 28.0525 29.4607C28.3635 29.3619 28.3634 29.3586 27.9374 29.2895C27.6669 29.2434 27.3761 29.2022 27.0989 29.1594C26.7675 29.1726 26.4294 29.1874 26.0981 29.1989C25.6788 29.2137 25.5097 29.1824 25.4015 29.0754C25.3069 28.9816 25.4218 28.901 25.7464 28.8812C26.0778 28.8615 26.389 28.8483 26.558 28.7643C26.7203 28.6837 27.0043 28.6524 27.3559 28.6458C27.5791 28.6409 27.8022 28.6294 28.0254 28.6195C28.3162 28.6063 28.4718 28.5224 28.4109 28.4285C28.3771 28.3676 28.3094 28.3166 28.0457 28.3034C26.8758 28.2458 26.8622 28.2474 26.2807 28.1355C26.2266 28.1256 26.1861 28.096 26.2064 28.0812C26.2402 28.0565 26.3146 28.0203 26.3957 28.0153C27.1734 27.9791 27.951 27.9462 28.7287 27.9215C28.9857 27.9133 29.175 27.9018 29.263 27.8408C29.3847 27.7569 29.3306 27.6795 29.0939 27.6219C29.0195 27.6038 28.8977 27.5808 28.8165 27.5824C27.9239 27.612 27.0381 27.6499 26.1454 27.6795C26.0643 27.6828 25.9156 27.6549 25.8818 27.6335C25.8142 27.5939 25.9155 27.5413 26.1522 27.5232C26.4633 27.4985 26.7811 27.4968 26.9907 27.4145C27.2815 27.2976 27.6399 27.1906 27.9645 27.0787C28.0186 27.059 28.1066 27.0211 28.0863 27.0178C27.9173 26.9816 27.7211 26.9536 27.5453 26.919C27.2478 26.8614 27.2477 26.7808 27.3153 26.7034C27.3694 26.6408 27.5723 26.6161 27.8225 26.6161C27.9307 26.6161 28.0659 26.6161 28.1538 26.6013C28.3838 26.5651 28.4582 26.519 28.3432 26.4844C28.2756 26.4647 28.1539 26.4367 28.0728 26.44C26.6256 26.4943 25.1716 26.547 23.7313 26.6145C23.3052 26.6342 23.1092 26.5717 22.8523 26.5272C22.6562 26.4927 22.4735 26.4795 22.23 26.5042C22.0001 26.5272 21.777 26.5141 21.635 26.4598C21.5201 26.4153 21.7229 26.3775 22.2706 26.3347C22.3721 26.3264 22.487 26.3215 22.5614 26.305C23.3458 26.1272 23.3458 26.1256 23.8868 26.1025C24.4142 26.0811 24.4144 26.0795 24.6916 25.984C24.8201 25.9396 24.962 25.8951 25.0837 25.849C25.1311 25.8309 25.2123 25.798 25.1852 25.7881C25.0365 25.7371 24.8335 25.7256 24.5968 25.7371C24.0694 25.7651 23.4473 25.742 23.1701 25.8984C23.0619 25.9577 22.8928 25.9741 22.6494 25.984C20.2014 26.0795 17.7534 26.1816 15.2987 26.2737C14.8997 26.2886 14.7172 26.3495 14.5617 26.417C14.4264 26.4729 14.2776 26.4894 14.0206 26.4993C13.7637 26.5091 13.5607 26.5141 13.4119 26.4598C13.324 26.4268 13.3984 26.3807 13.6013 26.3347C13.8921 26.2688 13.838 26.1865 13.7433 26.1091C13.6757 26.0581 13.466 26.0219 13.2429 26.0252C12.9115 26.0318 12.5938 26.0499 12.3165 25.984C12.1542 25.9462 11.9513 25.9198 11.7687 25.8869C11.4171 25.8194 11.0654 25.7503 10.5718 25.7947C10.2337 25.7783 9.997 25.719 9.72651 25.6729C9.27343 25.5972 9.23286 25.5857 9.55745 25.505C9.92262 25.4145 9.63854 25.2959 9.84141 25.207C10.0578 25.1116 10.3554 25.0276 10.6192 24.9387C10.6868 24.9157 10.7477 24.8943 10.8153 24.8712C10.6598 24.8383 10.5178 24.7972 10.3352 24.7741C10.0985 24.7445 9.97681 24.7083 9.99033 24.6062C9.94299 24.5914 9.96314 24.6292 10.0172 24.6391C10.0781 24.649 10.227 24.6408 10.3014 24.6293C10.4907 24.598 10.5853 24.5568 10.538 24.5223C10.5109 24.5042 10.3825 24.4811 10.3014 24.4811C10.1526 24.4811 10.0241 24.5173 9.98356 24.6062C9.22618 24.6737 8.44163 24.7066 7.6572 24.733C7.57605 24.7363 7.47467 24.7033 7.38 24.6869C7.06893 24.6309 7.06889 24.6325 6.15598 24.6161C6.06131 24.6144 5.93289 24.5914 5.88555 24.5684C5.68945 24.4679 5.69626 24.3576 5.60159 24.2506C5.77741 24.1815 5.95309 24.114 6.13567 24.0465C6.50084 23.9099 6.97431 23.7897 7.25833 23.6399C7.19746 23.5593 7.1163 23.4786 7.41385 23.4128C8.25914 23.3305 8.25243 23.3305 8.48235 23.2514C9.13829 23.0276 9.78743 22.802 10.4704 22.5815C10.653 22.5238 10.653 22.4926 10.3284 22.4679C10.227 22.4613 10.1187 22.4597 10.0105 22.4629C9.67236 22.4745 9.33425 22.5041 9.00289 22.4975C8.67154 22.4926 8.4281 22.4201 8.1576 22.3757C7.88035 22.3296 7.60311 22.2819 7.32585 22.2341C7.00802 22.2391 6.69025 22.2852 6.37242 22.2111C6.12898 22.1535 5.82469 22.1123 5.54744 22.0646C5.75707 21.9395 6.14934 21.844 6.45365 21.7337C6.7309 21.6333 6.73751 21.6349 7.48137 21.5576C7.83301 21.5214 7.95474 21.3353 7.6572 21.281C7.29879 21.2152 6.92018 21.1543 6.55502 21.0917C6.23719 21.0966 5.91266 21.1411 5.60836 21.067C5.37168 21.0111 5.10113 20.9732 4.70892 20.9946C4.04621 21.0308 3.37 21.0489 2.70053 21.0785C2.47061 21.0884 2.22033 21.0818 2.11889 21.0259C2.05127 20.9864 2.24739 20.932 2.47055 20.9205C2.80866 20.9041 3.11294 20.8843 3.28199 20.802C3.44429 20.7197 3.7418 20.695 4.09344 20.6835C4.18811 20.6802 4.29639 20.6604 4.34372 20.6407C4.58717 20.5452 4.85768 20.4629 5.37838 20.4662C5.59477 20.4333 5.70966 20.3921 5.64204 20.3526C5.60146 20.3312 5.45953 20.3032 5.37838 20.3065C4.81711 20.323 4.25585 20.3394 3.70811 20.3691C3.45114 20.3822 3.25492 20.3855 3.09263 20.3361C2.97767 20.3032 3.03852 20.2588 3.25492 20.211C3.44426 20.1699 3.49842 20.1221 3.4849 20.0662C3.45109 19.9361 3.24818 19.8983 2.59899 19.9065C2.13239 19.9131 2.01743 19.8917 1.91599 19.7797C1.88894 19.7534 1.82144 19.7172 1.86877 19.6991C2.15955 19.5871 2.34891 19.4489 2.89666 19.3962C3.11305 19.3764 3.34288 19.3764 3.47813 19.3336C3.61337 19.2908 3.73516 19.2415 3.87716 19.2003C4.05298 19.1509 4.17459 19.1048 4.09344 19.0736C3.95819 19.0176 3.74187 19.0127 3.49167 19.0324C3.27527 19.0489 3.04536 19.0505 2.8222 19.0604C2.42323 19.0785 2.09871 19.0357 2.05137 18.9633C1.92289 18.7723 1.7876 18.583 1.67264 18.3921C1.65912 18.369 1.69283 18.3394 1.74693 18.3196C1.93628 18.2505 2.13923 18.1846 2.33533 18.1171C2.56525 18.0398 2.93048 18.0546 3.24155 18.0398C3.6811 18.0184 3.68094 18.02 4.26927 17.862C4.49919 17.7994 4.89818 17.8241 5.13486 17.7682C5.20925 17.7501 5.32421 17.7204 5.30392 17.704C5.27687 17.6826 5.1417 17.6661 5.04026 17.6562C4.94559 17.6463 4.83066 17.6414 4.72922 17.6464C3.49848 17.6941 2.27453 17.7451 1.04379 17.7912C0.834159 17.7994 0.604233 17.7632 0.529847 17.7122C0.455462 17.6645 0.475683 17.6068 0.462158 17.5525C0.658266 17.485 0.881336 17.4225 1.05039 17.35C1.17888 17.2941 1.32768 17.2694 1.58464 17.2661C1.92276 17.2612 2.25415 17.2414 2.63284 17.2266C3.33612 16.9862 4.02583 16.7344 4.78321 16.4941C5.08751 16.3969 5.01325 16.2982 5.07411 16.1945C5.13497 16.099 5.58802 16.1138 5.89232 16.0858C6.13577 16.0628 6.21681 16.0101 6.12214 15.9739C6.06804 15.9525 5.94638 15.9278 5.85171 15.9278C5.62855 15.9278 5.4054 15.9426 5.18225 15.9508C4.95909 15.9591 4.70213 15.9541 4.51955 15.9821C4.34373 16.0085 4.22871 16.0644 4.11375 16.1122C3.98526 16.1648 3.81632 16.1829 3.55935 16.1862C3.228 16.1895 2.89667 16.2043 2.56531 16.2159C2.20015 16.1517 1.82138 16.0891 1.46974 16.0216C1.40211 16.0085 1.38852 15.9706 1.39528 15.9459C1.4088 15.8817 1.3074 15.8422 1.08424 15.8109C0.894894 15.7846 0.739347 15.7467 0.563527 15.7138C0.698773 15.6694 0.847597 15.6265 0.955795 15.5788C1.19248 15.4784 1.49005 15.406 2.00399 15.4093C2.20686 15.3451 2.36911 15.2661 2.63284 15.2216C2.88304 15.1788 3.30909 15.2216 3.49843 15.1245C3.59311 15.0767 3.7352 15.0224 3.91778 15.0027C4.20856 14.9714 4.58724 14.9879 4.7563 14.8957C4.85773 14.843 5.00645 14.7953 5.20255 14.7821C5.42571 14.7673 5.65557 14.764 5.81786 14.7327C5.90578 14.7162 6.00046 14.6899 6.00046 14.6669C6.00046 14.652 5.86532 14.629 5.77065 14.6191C5.68274 14.6076 5.56765 14.5994 5.46621 14.6027C5.12809 14.6125 4.79675 14.6306 4.45863 14.6405C4.36396 14.6438 4.25579 14.6323 4.15436 14.6224C3.85682 14.5961 3.87707 14.5632 4.11375 14.5039C4.35043 14.4463 4.51958 14.3722 4.71569 14.3047C4.93208 14.2932 5.20253 14.2981 5.3513 14.2668C5.60151 14.2158 5.77728 14.1417 5.98015 14.0775C6.20331 14.0677 6.43322 14.0644 6.64285 14.0463C6.73076 14.0397 6.77137 14.0035 6.84575 13.9821C6.981 13.9409 7.09605 13.8817 7.27863 13.8619C7.57617 13.8323 7.94133 13.8438 8.11715 13.7532C8.21859 13.7006 8.37406 13.6446 8.56341 13.6413C9.09087 13.6347 9.31403 13.5442 9.58453 13.4586C9.78739 13.3944 10.2202 13.4273 10.4434 13.3631C10.5921 13.322 10.7004 13.2709 10.8492 13.2314C10.91 13.215 11.0385 13.2067 11.1399 13.2018C11.6944 13.1771 12.2557 13.159 12.8102 13.1327C12.8981 13.1277 12.9793 13.103 13.0469 13.0833C13.1889 13.0405 13.2767 12.9812 13.4526 12.9532C13.6284 12.9252 13.8785 12.9253 14.0949 12.917C14.7915 12.8923 14.8456 12.8989 15.1634 12.759C15.4204 12.6454 16.0494 12.7261 16.259 12.601C16.3807 12.5285 16.6038 12.4693 17.0028 12.461C17.564 12.4495 18.1185 12.4182 18.6798 12.3968C19.1802 12.3771 19.1735 12.3771 19.7145 12.224C19.9579 12.1548 20.3164 12.1647 20.6342 12.1516C20.9723 12.1384 21.2834 12.1187 21.4457 12.0363C21.608 11.9557 21.9055 11.9293 22.2503 11.9178C22.5682 11.9063 22.9267 11.9145 23.1769 11.8487C23.7855 11.6907 23.7787 11.689 24.2047 11.6725C24.8742 11.6462 25.5437 11.6199 26.2131 11.5919C26.6594 11.5738 27.126 11.5705 27.5453 11.5343C27.8496 11.5079 27.9848 11.4157 28.1809 11.3515C28.7354 11.3269 29.2899 11.3022 29.8444 11.2791C30.6221 11.2462 31.4065 11.2166 32.1909 11.1853C32.529 11.1227 32.5765 10.9845 33.1445 10.9779C33.4826 10.9746 33.814 10.9532 34.1521 10.94C34.7134 10.917 35.2679 10.8873 35.8291 10.8758C36.2552 10.8676 36.3294 10.7787 36.5526 10.7227C36.627 10.703 36.6947 10.675 36.7826 10.67C37.6617 10.624 38.5678 10.6141 39.4266 10.5466C39.5145 10.54 39.5957 10.5054 39.6159 10.4807C39.6295 10.4676 39.5145 10.4429 39.4401 10.4314C39.3522 10.4182 39.2373 10.405 39.1426 10.4083C36.3498 10.5186 33.557 10.6305 30.7642 10.7408C30.372 10.7573 30.372 10.7556 29.4185 10.9367C29.3373 10.9515 29.2425 10.968 29.1411 10.9729C28.6948 10.9927 28.2417 11.0042 27.8022 11.0289C27.4438 11.0487 27.1463 11.0289 26.8894 10.9696C26.7068 10.9268 26.5173 10.9137 26.2874 10.917C26.0305 10.9219 25.8615 10.94 25.7127 10.9845C25.5166 11.0454 25.4152 11.1244 25.0027 11.1408C23.1024 11.2116 21.2021 11.2906 19.3087 11.3664C19.0449 11.3433 18.9165 11.3087 18.9841 11.2676C19.0247 11.2429 19.1058 11.21 19.187 11.2067C19.9647 11.1721 20.7491 11.1425 21.5267 11.1096C21.6349 11.1046 21.7837 11.1079 21.8445 11.0914C22.1421 11.0174 22.2504 10.8972 22.8117 10.889C23.1363 10.884 23.4676 10.8594 23.7786 10.8363C23.8665 10.8297 23.9477 10.7951 23.968 10.7705C23.9748 10.7573 23.8666 10.7326 23.7854 10.7211C23.4879 10.6733 23.1431 10.731 22.8455 10.698C22.7441 10.6865 22.602 10.67 22.5817 10.6503C22.5682 10.6322 22.6831 10.6026 22.7643 10.5844C22.8387 10.568 22.94 10.5532 23.0415 10.5482C23.9341 10.5104 24.8269 10.4709 25.7195 10.4412C26.0847 10.4297 26.3416 10.3885 26.5039 10.3128C26.6256 10.2569 26.7744 10.2272 27.0043 10.219C28.5664 10.1581 30.1284 10.0906 31.6973 10.0346C32.0895 10.0215 32.2925 9.96716 32.4547 9.89637C32.5832 9.8404 32.732 9.82065 32.9822 9.81077C35.2206 9.72517 37.4453 9.6297 39.6836 9.54739C40.0961 9.53258 40.2179 9.46179 40.4276 9.40088C40.5019 9.37948 40.5492 9.35315 40.6438 9.33998C40.7385 9.32681 40.8602 9.32844 40.9752 9.32515C42.7604 9.25436 44.5458 9.17866 46.3378 9.11281C46.7571 9.098 46.8381 9.01568 47.0545 8.95806C47.1289 8.93996 47.1966 8.91033 47.2845 8.9054C48.6234 8.84943 49.9623 8.79675 51.3013 8.74243C52.1939 8.70622 53.0865 8.67 53.9791 8.63543C54.4187 8.61897 54.4187 8.61731 55.0138 8.46093C55.0814 8.44282 55.1761 8.42142 55.264 8.41648C57.8337 8.31113 60.3966 8.21073 62.9663 8.10703C63.1827 8.09879 63.3382 8.06091 63.4464 8.00495C63.5546 7.94898 63.7102 7.91112 63.9199 7.90289C65.9283 7.82058 67.9366 7.73993 69.9518 7.66256C70.317 7.64939 70.5739 7.60988 70.7362 7.5358C70.8579 7.47983 71.0067 7.45021 71.2366 7.44198C73.245 7.36297 75.2535 7.279 77.2687 7.20328C77.6541 7.18847 77.8434 7.1325 78.0327 7.06666C78.1004 7.04361 78.1545 7.00575 78.2356 7.00246C79.2365 6.95637 80.2305 6.90863 81.2381 6.87735C81.6573 6.86418 81.7994 6.79504 81.9685 6.72919C82.1037 6.67652 82.2593 6.65841 82.5162 6.65183C83.0775 6.63701 83.632 6.60904 84.1797 6.58106C84.2609 6.57612 84.3624 6.5399 84.3691 6.51686C84.3826 6.47406 84.227 6.44442 83.9701 6.42961C81.2922 6.5366 78.6076 6.6436 75.9297 6.75059C75.4902 6.7687 75.4902 6.76871 74.8951 6.92509C74.8275 6.9432 74.7327 6.9646 74.638 6.96954C72.0684 7.07325 69.5055 7.17531 66.9358 7.27902C66.7194 7.28725 66.5639 7.32511 66.4557 7.38108C66.3475 7.43704 66.1919 7.4749 65.9822 7.48313C63.5275 7.5819 61.0728 7.68232 58.6114 7.77615C58.2462 7.78932 57.9893 7.82716 57.827 7.90289C57.7053 7.95886 57.5565 7.9885 57.3266 7.99673C54.9801 8.08891 52.6402 8.18602 50.2869 8.27491C50.0502 8.28314 49.8745 8.23541 49.888 8.19096C49.8948 8.16791 49.9961 8.13007 50.0772 8.12678C51.3012 8.07246 52.5186 8.01648 53.7493 7.97533C54.1618 7.96216 54.2834 7.88973 54.493 7.82882C54.5607 7.80742 54.6148 7.77944 54.7027 7.76791C54.7974 7.75474 54.9191 7.7564 55.0341 7.7531C57.9351 7.63623 60.8362 7.51771 63.744 7.40742C64.1633 7.39096 64.2443 7.31029 64.4607 7.25267C64.5351 7.23292 64.6028 7.2033 64.6907 7.20001C65.5833 7.1605 66.4759 7.12592 67.3685 7.09135C68.9306 7.0288 70.4927 6.96625 72.0616 6.90369C72.5146 6.88559 72.5146 6.88558 73.0962 6.73084C73.1638 6.71273 73.2586 6.6897 73.3465 6.68641C77.4783 6.52015 81.6101 6.35389 85.7419 6.18928C85.9583 6.18105 86.1138 6.14319 86.222 6.08722C86.3302 6.0329 86.4857 5.99339 86.6953 5.98351C92.281 5.75964 97.8599 5.53575 103.446 5.31517C103.811 5.30036 104.068 5.26578 104.23 5.18842C104.345 5.13245 104.5 5.10282 104.73 5.09295C110.871 4.84767 117.011 4.6024 123.158 4.35548C127.289 4.19087 131.421 4.02296 135.553 3.86164C135.932 3.84683 136.135 3.79579 136.324 3.7283C136.385 3.70525 136.446 3.66739 136.527 3.66409C137.413 3.62294 138.299 3.58509 139.184 3.54723C139.462 3.59167 139.739 3.63448 140.016 3.67892C140.226 3.61637 140.429 3.55217 140.638 3.48961C141.977 3.44188 143.296 3.3678 144.648 3.34475C144.736 3.34311 144.831 3.37439 144.926 3.39085C145.554 3.49456 145.913 3.48633 146.312 3.34805C146.454 3.29867 146.576 3.25422 146.792 3.24599C147.461 3.21636 148.138 3.1966 148.801 3.16204C149.159 3.14393 149.456 3.16039 149.713 3.21965C149.896 3.26245 150.085 3.28056 150.309 3.27069C151.539 3.2213 152.763 3.17356 153.994 3.12088C154.082 3.11759 154.163 3.0896 154.231 3.06984C154.373 3.02704 154.494 2.98096 154.63 2.93652C154.812 2.9645 155.015 2.9859 155.164 3.02212C155.353 3.06492 155.529 3.06491 155.786 3.05339C160.695 2.8542 165.612 2.65996 170.521 2.45913C170.94 2.44267 171.123 2.51182 171.407 2.54803C171.502 2.5612 171.596 2.57765 171.698 2.58095C171.806 2.58424 171.921 2.57437 172.029 2.56943C175.714 2.42128 179.4 2.27476 183.085 2.12661C183.572 2.10686 183.572 2.10686 184.296 2.20892C184.384 2.22209 184.499 2.23691 184.593 2.23197C186.271 2.16777 187.948 2.09864 189.618 2.03279C189.834 2.02456 190.017 2.05089 190.213 2.08875C190.598 2.16283 190.625 2.16284 190.909 2.05419C191.045 2.00316 191.187 1.97187 191.41 1.95706C191.653 1.94059 191.849 1.94555 192.039 1.97518C192.309 2.01633 192.505 2.08546 192.918 2.06735C194.703 1.98999 196.495 1.92579 198.274 1.84678C198.679 1.82867 198.896 1.88464 199.166 1.92579C199.261 1.9406 199.349 1.96365 199.45 1.96859C199.552 1.97353 199.673 1.96199 199.782 1.95706C202.013 1.86816 204.251 1.78094 206.476 1.68546C206.896 1.66735 207.078 1.73812 207.362 1.77434C207.457 1.78751 207.565 1.81056 207.653 1.80727C208.992 1.75624 210.338 1.7019 211.677 1.64758C212.157 1.62783 212.157 1.62947 212.887 1.72989C212.975 1.74306 213.09 1.75623 213.185 1.75294C214.747 1.69203 216.316 1.62948 217.878 1.56692C218.358 1.54717 218.358 1.54717 219.744 1.63277C219.845 1.63936 219.954 1.64925 220.055 1.64595C221.84 1.57517 223.632 1.50602 225.418 1.4303C225.776 1.41549 226.074 1.42865 226.331 1.48791C226.513 1.53071 226.702 1.54883 226.926 1.53895C228.934 1.45829 230.949 1.38093 232.951 1.29533C233.336 1.27887 233.586 1.31507 233.857 1.3628C233.945 1.37927 234.033 1.40232 234.134 1.4089C234.236 1.41548 234.351 1.4089 234.459 1.40396C236.467 1.3233 238.482 1.24758 240.484 1.16033C240.89 1.14223 241.106 1.19819 241.377 1.23934C241.471 1.25416 241.573 1.28379 241.654 1.28214C242.438 1.25416 243.223 1.22948 244 1.18832C244.42 1.16528 244.602 1.24099 244.886 1.2772C244.981 1.28872 245.089 1.31343 245.177 1.31014C246.854 1.24594 248.531 1.17845 250.202 1.10931C250.438 1.09944 250.614 1.11424 250.803 1.15704C251.054 1.21465 251.344 1.2377 251.71 1.21959C252.487 1.18173 253.272 1.1554 254.056 1.12412C254.516 1.10602 254.516 1.10602 255.922 1.19162C256.024 1.1982 256.132 1.20807 256.233 1.20478C257.572 1.15211 258.918 1.10108 260.25 1.04346C260.609 1.027 260.906 1.04181 261.163 1.10107C261.346 1.14387 261.528 1.16199 261.758 1.15211C262.989 1.10273 264.213 1.05334 265.444 1.00396C265.89 0.985851 266.336 0.954566 266.783 0.954566C267.107 0.956212 267.344 1.03522 267.635 1.07473C267.716 1.08625 267.851 1.0731 267.959 1.06981C269.522 1.00725 271.09 0.949634 272.646 0.87885C273.051 0.860743 273.268 0.916708 273.538 0.957862C273.633 0.972677 273.734 1.00231 273.816 1.00066C274.377 0.982555 274.931 0.957861 275.493 0.936461C276.162 0.910123 276.838 0.890369 277.501 0.854154C278.042 0.824524 278.245 0.967733 278.678 0.972671C279.009 0.97761 279.347 0.94963 279.678 0.936461C280.348 0.910123 281.017 0.880496 281.687 0.85745C281.923 0.849219 282.106 0.82287 282.181 0.763609C282.194 0.752086 282.079 0.727405 282.005 0.712589C281.105 0.544684 281.105 0.544676 280.199 0.580891C279.638 0.603937 279.083 0.626986 278.522 0.64674C278.427 0.650032 278.319 0.636864 278.225 0.626987C277.954 0.599003 277.981 0.566084 278.211 0.506823C278.441 0.447562 278.617 0.375139 278.813 0.307647C279.09 0.350447 279.361 0.393231 279.638 0.43603C279.861 0.4278 280.084 0.417937 280.307 0.409707C281.423 0.366907 282.539 0.322458 283.655 0.282951C283.736 0.279659 283.837 0.312586 283.932 0.329048C284.202 0.376785 284.446 0.417928 284.838 0.39982C285.839 0.352082 286.847 0.317513 287.847 0.27636C288.287 0.258253 288.287 0.258254 289.058 0.360315C289.146 0.371837 289.261 0.385007 289.355 0.381715C290.363 0.343854 291.364 0.302705 292.371 0.263198C292.588 0.254968 292.797 0.276367 292.953 0.324104C293.014 0.343858 293 0.376774 293.257 0.64674C294.055 0.865676 294.603 0.842641 295.157 0.822887C295.394 0.814657 295.604 0.806418 295.759 0.773495C295.84 0.755388 295.942 0.729046 295.942 0.707646C295.942 0.691185 295.793 0.664842 295.698 0.66155C295.029 0.628627 294.393 0.697774 293.737 0.712589C293.433 0.719174 293.169 0.661558 293.115 0.567729C293.102 0.541391 293.081 0.513408 293.061 0.48707C293.041 0.460732 293.027 0.432749 293.007 0.406411C292.743 0.39818 292.588 0.427806 292.473 0.483774C292.378 0.529866 292.243 0.582542 292.06 0.607234C291.878 0.633573 291.627 0.628643 291.404 0.636874C291.188 0.645104 290.951 0.666502 290.748 0.654979C290.546 0.64181 290.383 0.594064 290.194 0.564433C290.106 0.549618 289.998 0.528226 289.91 0.531519C289.132 0.559503 288.361 0.587477 287.59 0.623692C287.185 0.643445 286.982 0.574318 286.725 0.531519C286.522 0.498596 286.319 0.506816 286.285 0.582538C286.197 0.763613 286.508 0.839331 287.198 0.804762C287.766 0.775132 288.28 0.770209 288.726 0.882146C288.787 0.896961 288.929 0.903543 289.017 0.900251C289.572 0.880497 290.119 0.855803 290.674 0.836049C290.775 0.832757 290.884 0.839331 290.978 0.845916C292.358 0.934807 292.358 0.936462 292.824 0.916708C293.048 0.906831 293.264 0.8986 293.244 0.648388C293.67 0.380068 294.346 0.361964 295.002 0.322457C295.428 0.297765 295.61 0.370198 295.888 0.408059C295.982 0.421228 296.084 0.447561 296.172 0.444269C297.626 0.389947 299.073 0.332324 300.52 0.271417C300.763 0.26154 300.939 0.271419 301.128 0.314218C301.372 0.36854 301.642 0.403116 302.028 0.383363C302.799 0.343856 303.583 0.319169 304.368 0.286247C304.767 0.269785 304.767 0.269768 305.571 0.371829C305.659 0.383352 305.774 0.396521 305.869 0.393229C306.653 0.365245 307.431 0.330687 308.209 0.301056C308.425 0.292825 308.621 0.315869 308.79 0.360315C308.959 0.40476 309.162 0.427804 309.372 0.419573C310.156 0.389942 310.934 0.35703 311.712 0.3274C311.806 0.324108 311.921 0.33563 312.009 0.347153C312.834 0.449213 312.834 0.449196 313.213 0.432735C313.767 0.408043 314.335 0.396533 314.883 0.36361C315.417 0.330687 315.695 0.426155 316.06 0.478831C317.061 0.44097 318.068 0.409702 319.062 0.36361C319.468 0.343856 319.684 0.398174 319.955 0.440973C320.049 0.455789 320.144 0.487068 320.232 0.485422C320.57 0.478838 320.902 0.460733 321.233 0.447564C321.564 0.434395 321.902 0.421228 322.234 0.408059C322.613 0.455797 322.863 0.567732 323.404 0.529871C323.728 0.506825 324.073 0.501887 324.404 0.488718C324.736 0.475549 325.074 0.462381 325.405 0.449212C325.628 0.440981 325.858 0.436036 326.075 0.421221C326.474 0.396529 326.67 0.477199 326.954 0.513414C327.049 0.524937 327.157 0.544677 327.245 0.541385C327.914 0.518339 328.59 0.498587 329.246 0.460726C329.753 0.431096 330.098 0.480486 330.457 0.549624C330.531 0.564439 330.66 0.572669 330.754 0.569377C331.539 0.541392 332.316 0.506814 333.094 0.477184C333.304 0.468953 333.507 0.49529 333.676 0.53809C333.851 0.582535 334.047 0.603951 334.264 0.59572C335.042 0.56609 335.826 0.533158 336.604 0.503527C336.698 0.500235 336.813 0.513406 336.901 0.526576C337.659 0.628636 337.659 0.630284 338.105 0.61053C338.213 0.605592 338.328 0.602286 338.436 0.597348C338.991 0.574302 339.566 0.566083 340.107 0.526576C340.729 0.48213 341.182 0.538101 341.621 0.63193C342.176 0.612177 342.744 0.600652 343.285 0.567729C343.691 0.543037 343.907 0.605587 344.178 0.64674C344.272 0.661555 344.374 0.691186 344.455 0.687893C345.239 0.659909 346.024 0.635226 346.794 0.594073C347.214 0.571027 347.396 0.645089 347.68 0.68295C347.775 0.696119 347.876 0.719177 347.964 0.715885C348.411 0.702716 348.857 0.682953 349.303 0.664845C349.824 0.643445 349.824 0.64509 350.514 0.745504C350.838 0.793242 351.163 0.755379 351.481 0.743856C351.819 0.730687 352.137 0.720814 352.407 0.788305C352.576 0.831105 352.779 0.857443 352.989 0.850859C353.435 0.836044 353.888 0.821236 354.328 0.796544C354.679 0.77679 354.984 0.789952 355.241 0.850859C355.423 0.893658 355.613 0.915071 355.836 0.905194C356.837 0.865687 357.844 0.824518 358.845 0.786657C358.933 0.783365 359.055 0.798186 359.136 0.813001C359.325 0.842631 359.508 0.875547 359.69 0.90847C360.13 0.893654 360.583 0.887087 361.016 0.864041C361.475 0.840995 361.895 0.832762 362.253 0.923299C362.328 0.943053 362.436 0.971022 362.524 0.969376C362.862 0.962791 363.193 0.946335 363.524 0.933166C363.856 0.919997 364.194 0.906829 364.525 0.89366C364.911 0.934813 365.154 1.05333 365.695 1.01547C366.02 0.992426 366.365 0.987488 366.696 0.974319C367.027 0.96115 367.366 0.946336 367.697 0.934813C367.805 0.931521 367.927 0.923286 368.021 0.92987C368.123 0.936455 368.211 0.959505 368.299 0.975967C368.569 1.0237 368.819 1.07145 369.205 1.04346C369.529 1.02042 369.874 1.01548 370.206 1.00066C370.659 0.982555 370.659 0.982558 371.409 1.08626C371.714 1.12906 372.059 1.0731 372.349 1.10931C372.545 1.13401 372.715 1.17515 372.904 1.20313C372.985 1.21466 373.113 1.21959 373.208 1.2163C373.654 1.20148 374.108 1.18667 374.547 1.16198C374.905 1.14223 375.203 1.16198 375.453 1.22124C375.636 1.26404 375.818 1.28216 376.048 1.27228C377.164 1.22619 378.28 1.18667 379.389 1.13564C379.768 1.11753 380.072 1.14552 380.281 1.20478C380.64 1.30684 381.147 1.18668 381.519 1.26898C381.749 1.32001 381.979 1.37928 382.398 1.35459C383.169 1.31179 383.953 1.28873 384.731 1.2591C385.008 1.30354 385.286 1.348 385.57 1.39244C386.016 1.37434 386.462 1.35622 386.909 1.33976C387.24 1.32659 387.578 1.31177 387.909 1.30025C388.018 1.29696 388.133 1.29037 388.234 1.2986C388.335 1.30683 388.417 1.32824 388.511 1.3447C388.978 1.42536 388.978 1.42701 389.749 1.39409C390.08 1.37928 390.398 1.3694 390.675 1.43524C390.932 1.49615 391.236 1.50767 391.588 1.48956C392.251 1.45664 392.92 1.43195 393.597 1.4089C393.806 1.40067 394.002 1.42865 394.178 1.47145C394.442 1.53895 394.766 1.53236 395.098 1.51426C395.537 1.49121 395.97 1.46817 396.342 1.56035C396.416 1.58011 396.531 1.60807 396.613 1.60643C397.167 1.59326 397.728 1.58339 398.269 1.55211C398.81 1.52084 399.074 1.62289 399.446 1.67228C400 1.65088 400.562 1.62948 401.116 1.60808C401.224 1.60314 401.353 1.58833 401.448 1.59656C401.847 1.63113 402.076 1.75459 402.624 1.71673C402.942 1.69533 403.287 1.68875 403.618 1.68381C403.706 1.68217 403.821 1.71014 403.882 1.73154C403.916 1.74306 403.882 1.77433 403.841 1.79079C403.72 1.83689 403.571 1.8797 403.463 1.92744C403.449 1.93402 403.578 1.96364 403.652 1.97681C403.835 2.00644 404.044 2.00151 404.288 1.98834C404.497 1.97682 404.714 1.99986 404.863 2.04925C404.923 2.069 404.903 2.10192 404.775 2.21057C404.775 2.29123 404.917 2.255 404.964 2.20233C405.038 2.12661 404.896 2.10192 404.626 2.14307C404.436 2.1727 404.342 2.2155 404.389 2.25007C404.416 2.26818 404.545 2.29123 404.775 2.21057C405.37 2.1118 405.816 2.0937 406.262 2.07559C406.377 2.07065 406.513 2.05418 406.594 2.06406C406.885 2.10357 407.155 2.15131 407.439 2.19576C407.764 2.18588 408.068 2.16118 408.386 2.22538C408.832 2.31591 408.852 2.30768 409.285 2.28958C409.508 2.2797 409.731 2.27148 409.955 2.26325C410.178 2.25502 410.354 2.27971 410.55 2.31757C410.949 2.39494 410.982 2.39493 411.246 2.28958C411.402 2.22538 411.51 2.20398 411.706 2.23361C412.355 2.33403 412.362 2.34061 412.916 2.31098C413.376 2.28629 413.809 2.2797 414.147 2.37353C414.377 2.43938 414.452 2.42456 414.634 2.35543C415.121 2.17271 415.344 2.17599 416.257 2.30768C416.683 2.37024 417.123 2.30275 417.555 2.29452C417.921 2.28794 418.178 2.32744 418.205 2.43114C418.225 2.49534 418.286 2.54144 418.529 2.56284C418.624 2.57107 418.739 2.58259 418.833 2.5793C419.395 2.55954 419.949 2.53649 420.511 2.51345C420.795 2.50193 420.95 2.42457 420.896 2.32251C420.835 2.21387 420.943 2.17435 421.349 2.14307C421.592 2.12496 421.789 2.12827 421.985 2.1579C422.201 2.19082 422.14 2.22045 421.951 2.27971C421.498 2.42457 421.552 2.51345 422.134 2.61386C422.336 2.64843 422.499 2.67972 422.546 2.73075C422.573 2.75709 422.546 2.79166 422.607 2.81141C422.938 2.9217 423.398 2.99249 423.912 3.04517C424.406 3.00072 424.744 3.07478 425.122 3.13404C425.42 3.18014 425.772 3.14064 426.089 3.12418C426.448 3.10607 426.745 3.11923 427.002 3.18014C427.185 3.22294 427.374 3.24269 427.597 3.23446C428.044 3.21635 428.497 3.20483 428.936 3.17849C429.315 3.15545 429.599 3.18837 429.836 3.24434C430.133 3.31513 430.465 3.26738 430.776 3.27726C431.195 3.28878 431.405 3.43528 431.953 3.39577C432.277 3.37273 432.615 3.3645 432.953 3.35792C433.041 3.35627 433.149 3.38426 433.224 3.40401C433.582 3.49455 434.001 3.48961 434.461 3.46327C434.779 3.44516 435.09 3.42871 435.401 3.49126C435.915 3.59662 436.483 3.6888 437.024 3.78593C437.099 3.86165 437.044 3.95052 437.43 3.99497C437.633 4.01801 437.822 4.0526 437.978 4.09046C438.167 4.1349 438.343 4.14643 438.586 4.13491C439.026 4.11186 439.486 4.10691 439.919 4.07728C440.318 4.05094 440.568 4.10528 440.811 4.15631C441.007 4.19746 441.19 4.2172 441.427 4.18757C441.67 4.15959 441.846 4.17769 442.042 4.22214C442.319 4.28304 442.339 4.27647 443.259 4.29458C443.354 4.29622 443.469 4.3209 443.523 4.3423C443.55 4.35382 443.489 4.38677 443.442 4.40323C443.381 4.42298 443.286 4.44601 443.198 4.45095C442.197 4.49375 441.19 4.53161 440.189 4.57441C440.088 4.57935 439.979 4.59088 439.905 4.60735C439.824 4.62545 439.722 4.65013 439.722 4.67317C439.722 4.68964 439.858 4.7094 439.952 4.72092C440.25 4.75878 440.602 4.70117 440.892 4.74397C441.088 4.77195 441.251 4.81145 441.447 4.83779C441.528 4.84931 441.656 4.84767 441.758 4.84438C442.096 4.83286 442.427 4.8164 442.765 4.80652C442.86 4.80487 442.968 4.82134 443.056 4.83451C443.705 4.93328 443.705 4.93328 444.267 4.91188C444.49 4.90365 444.727 4.87895 444.936 4.88883C445.139 4.8987 445.315 4.94315 445.497 4.97113C445.876 5.0304 446.234 5.08801 446.262 5.21641C446.275 5.26579 446.498 5.30858 446.721 5.31188C446.938 5.31517 447.168 5.29708 447.391 5.2872C447.918 5.26745 447.918 5.26744 448.601 5.36786C448.791 5.39584 448.993 5.39913 449.237 5.38267C449.332 5.37608 449.447 5.38268 449.548 5.39091C449.879 5.4156 449.879 5.44687 449.663 5.50613C449.359 5.59337 449.386 5.60161 450.238 5.67568C450.562 5.70367 450.812 5.75635 451.083 5.80244C451.523 5.87652 451.516 5.8765 451.225 5.97362C451.158 5.99502 451.097 6.01807 451.029 6.04112C450.833 6.10532 450.677 6.17445 450.272 6.18104C449.825 6.18762 449.379 6.21397 448.933 6.23208C448.5 6.25019 448.385 6.28968 448.425 6.40161C448.473 6.5366 448.561 6.55142 449.338 6.54977C449.562 6.54977 449.758 6.56294 449.927 6.60738C449.845 6.66006 449.697 6.70121 449.48 6.71109C448.926 6.73578 448.365 6.75719 447.81 6.77858C447.364 6.79669 446.918 6.81479 446.471 6.8329C446.194 6.84442 446.018 6.93003 446.092 7.02551C446.133 7.07983 446.167 7.13415 446.201 7.18847C446.275 7.29712 446.417 7.32511 446.87 7.32017C446.985 7.31852 447.093 7.30534 447.201 7.30864C447.641 7.32016 447.851 7.45678 448.378 7.4288C448.818 7.40575 449.278 7.40082 449.71 7.37119C450.109 7.34485 450.332 7.40413 450.61 7.44857C450.704 7.46339 450.806 7.49465 450.887 7.493C451.448 7.47489 452.01 7.4568 452.557 7.42552C452.814 7.41236 452.97 7.42223 453.173 7.46173C453.659 7.55721 453.673 7.55227 454.397 7.52264C454.924 7.49959 454.931 7.50289 455.607 7.6033C455.796 7.63128 455.999 7.63128 456.243 7.61811C456.561 7.60165 456.892 7.57531 457.223 7.6C457.325 7.60659 457.453 7.62635 457.487 7.64775C457.507 7.66256 457.413 7.69878 457.332 7.7103C456.736 7.7959 456.04 7.78109 455.391 7.81566C455.188 7.82553 454.985 7.79425 454.816 7.74981C454.64 7.70536 454.451 7.68726 454.221 7.69549C453.774 7.7136 453.321 7.72512 452.882 7.75146C452.503 7.7745 452.239 7.73664 451.976 7.68561C451.888 7.66914 451.786 7.63786 451.698 7.63951C450.698 7.67243 449.69 7.70536 448.696 7.75146C448.297 7.77121 448.067 7.71854 447.797 7.67409C447.702 7.65928 447.607 7.628 447.519 7.62964C447.181 7.63623 446.85 7.65433 446.512 7.6675C445.281 7.71689 444.057 7.76627 442.826 7.81236C442.745 7.81565 442.644 7.78108 442.549 7.76626C442.366 7.73663 442.177 7.70865 441.988 7.68066C441.65 7.69383 441.318 7.71029 440.98 7.72017C440.737 7.72675 440.52 7.74981 440.486 7.81236C440.466 7.85351 440.689 7.89137 440.926 7.88808C441.156 7.88478 441.386 7.86503 441.575 7.88643C442.515 7.99178 442.515 7.99343 443.104 7.97203C443.617 7.95228 443.563 7.93581 444.016 8.02635C444.212 8.06585 444.388 8.08891 444.612 8.07903C445.166 8.05599 445.727 8.03294 446.289 8.01319C446.376 8.00989 446.491 8.02636 446.579 8.03953C447.242 8.1383 447.242 8.14158 447.79 8.11689C448.507 8.08726 448.534 8.07903 449.014 8.17945C449.345 8.24858 449.649 8.20084 449.967 8.19755C450.332 8.26175 450.731 8.31937 451.063 8.3918C451.455 8.4774 451.867 8.46257 452.314 8.43788C452.645 8.41977 452.97 8.41319 453.24 8.48068C453.497 8.54323 453.808 8.54983 454.16 8.53337C454.478 8.51855 454.802 8.48727 455.134 8.52348C455.222 8.53336 455.357 8.55806 455.35 8.57287C455.343 8.59592 455.255 8.62885 455.167 8.63872C454.545 8.70621 453.862 8.70456 453.206 8.73584C453.119 8.74078 453.004 8.72266 452.916 8.7095C452.726 8.67987 452.544 8.6453 452.361 8.61403C452.03 8.6239 451.692 8.62719 451.367 8.64694C451.117 8.66176 450.927 8.66013 450.745 8.62062C450.576 8.5844 450.393 8.53995 450.19 8.52843C449.988 8.5169 449.751 8.5416 449.528 8.55147C449.305 8.56135 449.048 8.5564 448.872 8.58274C448.696 8.60908 448.588 8.6667 448.473 8.71279C448.344 8.76382 448.168 8.78029 447.911 8.78523C447.675 8.79017 447.486 8.78358 447.31 8.73749C447.235 8.71773 447.134 8.70291 447.032 8.68974C446.938 8.67822 446.83 8.66011 446.742 8.6634C445.734 8.70126 444.733 8.74243 443.726 8.78194C443.225 8.80169 443.232 8.80167 442.191 8.70455C442.096 8.69632 441.981 8.6848 441.886 8.6881C441.325 8.70785 440.771 8.7309 440.209 8.75394C439.641 8.77699 439.648 8.7737 438.681 8.66999C438.505 8.65024 438.248 8.67658 438.039 8.67329C437.599 8.66506 437.383 8.52678 436.869 8.55312C436.429 8.57617 435.969 8.5811 435.53 8.61073C435.131 8.63707 434.901 8.57946 434.63 8.53502C434.536 8.5202 434.434 8.48728 434.353 8.49057C433.345 8.52678 432.345 8.56794 431.006 8.57287C430.674 8.57287 430.823 8.60745 431.04 8.61897C431.351 8.63708 431.452 8.60251 431.283 8.53666C431.161 8.49057 430.985 8.46751 430.843 8.47903C430.769 8.48562 430.674 8.51691 431.006 8.57287C431.357 8.63543 431.337 8.66999 431.398 8.68974C431.547 8.73748 431.756 8.75723 431.973 8.75065C432.311 8.73913 432.642 8.72267 432.98 8.71279C433.075 8.7095 433.19 8.72102 433.278 8.73419C434.022 8.83625 434.029 8.84284 434.82 8.80334C435.07 8.79181 435.252 8.79181 435.449 8.82309C435.719 8.86589 435.915 8.93831 436.328 8.91526C436.875 8.88399 437.437 8.86589 437.998 8.84779C438.086 8.84449 438.181 8.87412 438.282 8.88729C438.559 8.9268 438.762 9.00087 439.175 8.9696C439.492 8.94491 439.837 8.93831 440.175 8.93337C440.263 8.93172 440.398 8.95806 440.439 8.97946C440.52 9.01733 440.419 9.06178 440.189 9.09306C440.094 9.10623 439.966 9.10293 439.858 9.10787C439.411 9.12597 438.965 9.14572 438.519 9.16053C438.282 9.16877 438.059 9.19347 438.032 9.25438C438.012 9.29553 438.255 9.33174 438.485 9.32844C438.823 9.32351 439.161 9.31034 439.486 9.28894C440.06 9.25272 440.561 9.2626 441.027 9.3663C441.359 9.43873 441.339 9.41241 441.69 9.6264C441.778 9.68073 442.042 9.68566 442.272 9.68237C442.826 9.67414 443.083 9.69883 443.036 9.74986C442.975 9.81242 442.779 9.83216 442.529 9.84039C442.082 9.85356 441.636 9.87497 441.19 9.89308C441.082 9.89801 440.96 9.90788 440.858 9.90459C440.757 9.9013 440.662 9.88155 440.574 9.86673C440.385 9.83546 440.223 9.78771 440.02 9.77619C439.817 9.76466 439.58 9.78936 439.357 9.79924C439.134 9.80747 438.897 9.83216 438.695 9.82064C438.492 9.80911 438.323 9.75974 438.14 9.73011C438.052 9.71529 437.944 9.69223 437.856 9.69388C437.41 9.70705 436.963 9.72846 436.517 9.74492C435.969 9.76632 435.969 9.76632 435.307 9.66426C435.117 9.63463 434.921 9.63628 434.671 9.64945C434.13 9.67579 434.123 9.67084 433.136 9.57536C433.041 9.56549 432.926 9.55397 432.831 9.55891C431.824 9.59677 430.823 9.63792 429.822 9.67742C428.963 9.71199 428.963 9.71201 428.49 9.87662C428.138 9.99843 428.132 9.99843 428.477 10.0544C428.754 10.1005 429.004 10.168 429.308 10.1927C429.592 10.2157 429.944 10.1416 430.255 10.2174C430.411 10.2552 430.613 10.2964 430.81 10.303C431.121 10.3112 431.452 10.2634 431.75 10.3359C431.898 10.3721 432.122 10.41 432.311 10.4116C432.642 10.4149 432.98 10.3886 433.312 10.377C433.413 10.3737 433.528 10.3737 433.623 10.382C433.724 10.3918 433.812 10.4116 433.9 10.4281C434.17 10.484 434.461 10.5104 434.813 10.4824C435.388 10.4363 435.902 10.4593 436.348 10.5647C436.409 10.5795 436.558 10.5812 436.652 10.5746C436.896 10.5581 437.105 10.5565 437.288 10.5877C437.362 10.6009 437.47 10.6239 437.457 10.6388C437.437 10.6635 437.355 10.6964 437.268 10.7046C436.632 10.7606 435.949 10.7672 435.293 10.7968C435.205 10.8001 435.097 10.7787 435.009 10.7639C434.82 10.7342 434.657 10.6849 434.455 10.6733C434.252 10.6618 434.015 10.6832 433.792 10.6914C433.569 10.6997 433.332 10.7244 433.129 10.7145C432.926 10.703 432.737 10.6618 432.575 10.6256C432.385 10.5844 432.203 10.5795 431.953 10.596C431.628 10.6174 431.29 10.6207 430.958 10.6322C430.776 10.6009 430.593 10.5663 430.404 10.5367C430.316 10.5219 430.208 10.5038 430.113 10.5054C429.667 10.5186 429.22 10.5383 428.774 10.5565C428.328 10.5746 428.328 10.5746 427.571 10.4725C427.483 10.461 427.368 10.4478 427.273 10.4511C426.712 10.4709 426.157 10.4955 425.596 10.5153C425.379 10.5235 425.183 10.5005 425.008 10.456C424.839 10.4116 424.636 10.3869 424.426 10.3951C423.533 10.4297 422.641 10.4626 421.748 10.5038C421.39 10.5202 421.085 10.5054 420.842 10.4462C420.558 10.3787 420.24 10.3951 419.909 10.4083C419.158 10.4412 419.151 10.4396 418.671 10.3556C418.577 10.3392 418.482 10.3079 418.394 10.3095C417.616 10.3342 416.832 10.3573 416.061 10.3968C415.655 10.4182 415.439 10.3606 415.168 10.3178C415.074 10.303 414.972 10.2717 414.891 10.275C414.33 10.2931 413.768 10.3095 413.221 10.3425C412.673 10.3754 412.463 10.2223 412.051 10.224C411.49 10.2256 410.935 10.2635 410.381 10.2865C409.934 10.3046 409.488 10.3227 409.042 10.3408C408.595 10.3589 408.149 10.3737 407.703 10.3951C407.466 10.4067 407.29 10.3918 407.094 10.3507C406.844 10.2964 406.546 10.2536 406.276 10.2042C405.863 10.1334 405.863 10.1334 405.363 10.1532C405.255 10.1581 405.14 10.1614 405.032 10.1663C404.213 10.2025 404.213 10.1993 403.172 10.0955C403.125 10.0906 403.003 10.1087 402.956 10.1219C402.814 10.1647 402.685 10.2108 402.557 10.2552C402.374 10.2289 402.151 10.2141 402.029 10.1762C401.684 10.0692 401.143 10.2157 400.792 10.1104C400.663 10.0708 400.44 10.0363 400.237 10.0264C400.027 10.0165 399.791 10.0396 399.574 10.0495C399.013 10.0741 399.013 10.0725 398.533 10.219C398.29 10.2914 397.938 10.2783 397.62 10.2947C397.289 10.3128 396.971 10.3227 396.694 10.2552C396.443 10.1943 396.139 10.1795 395.781 10.1993C395.341 10.2239 394.888 10.2388 394.442 10.2536C394.347 10.2569 394.232 10.2486 394.137 10.2388C393.103 10.1416 393.103 10.14 392.602 10.1614C392.379 10.1713 392.149 10.1746 391.933 10.1894C391.568 10.2157 391.291 10.1811 391.027 10.1285C390.939 10.112 390.837 10.0807 390.75 10.0824C390.303 10.0906 389.864 10.1054 389.424 10.1202C389.086 10.1318 388.748 10.1384 388.423 10.1614C387.882 10.1993 387.619 10.0922 387.247 10.0429C386.692 10.0643 386.131 10.0791 385.576 10.1087C385.319 10.1219 385.15 10.1169 384.954 10.0774C384.704 10.0281 384.474 9.97209 384.068 9.99678C383.527 10.0297 382.959 10.0412 382.405 10.061C382.033 10.01 381.763 9.90623 381.228 9.9441C380.904 9.96714 380.559 9.97208 380.228 9.98525C379.781 10.0034 379.335 10.0198 378.889 10.0396C378.408 10.0593 378.415 10.0544 377.678 9.95728C377.252 9.89966 376.812 9.96386 376.38 9.97373C376.042 9.98197 375.873 10.0577 375.954 10.1548C376.035 10.2519 375.852 10.3277 375.541 10.3408C374.763 10.3721 373.979 10.405 373.201 10.433C373.107 10.4363 372.992 10.4248 372.904 10.4132C372.072 10.3095 372.072 10.3112 371.7 10.326C371.146 10.3507 370.578 10.3639 370.03 10.3951C369.651 10.4165 369.374 10.382 369.13 10.326C368.941 10.2832 368.765 10.2733 368.522 10.2832C365.844 10.3935 363.166 10.4956 360.495 10.6091C360.096 10.6256 359.866 10.5779 359.596 10.5334C359.501 10.5186 359.413 10.4873 359.318 10.4873C359.095 10.4873 358.872 10.5021 358.649 10.512C357.648 10.5515 356.647 10.5993 355.64 10.6289C355.214 10.6421 355.099 10.7178 354.916 10.7803C354.774 10.8281 354.612 10.8478 354.362 10.8544C354.118 10.861 353.942 10.8528 353.753 10.81C353.509 10.754 353.232 10.7194 352.854 10.7425C352.414 10.7688 351.968 10.7803 351.515 10.7984C351.285 10.8067 351.109 10.8363 351.034 10.8956C351.021 10.9054 351.163 10.9301 351.244 10.945C351.515 10.9943 351.772 11.052 352.076 11.0865C352.387 11.1211 352.725 11.0816 353.05 11.0717C353.165 11.0684 353.273 11.0585 353.381 11.0602C353.482 11.0618 353.604 11.0701 353.679 11.0849C354.03 11.1589 354.402 11.21 354.889 11.1655C355.308 11.1869 355.525 11.3236 356.059 11.2873C356.384 11.2659 356.722 11.2561 357.06 11.2478C357.148 11.2462 357.242 11.2758 357.337 11.2906C357.607 11.3318 357.824 11.3976 358.23 11.3697C358.662 11.34 359.122 11.3351 359.562 11.312C359.805 11.2989 359.981 11.3104 360.17 11.3532C360.414 11.4075 360.691 11.4487 361.07 11.4223C361.394 11.3993 361.739 11.3943 362.071 11.3795C362.503 11.3614 362.503 11.3631 363.274 11.4651C363.362 11.4766 363.477 11.4898 363.572 11.4865C364.133 11.4668 364.688 11.4421 365.249 11.4223C365.465 11.4141 365.675 11.4355 365.824 11.4832C365.885 11.503 365.864 11.5359 365.884 11.5639C364.769 11.6083 363.653 11.6462 362.544 11.7005C362.125 11.7219 361.935 11.6544 361.658 11.6166C361.563 11.6034 361.462 11.5754 361.374 11.5787C360.59 11.6067 359.812 11.6363 359.034 11.6725C358.791 11.6841 358.608 11.6775 358.426 11.6297C357.959 11.503 357.391 11.5721 356.864 11.5902C356.458 11.6034 356.329 11.6544 356.377 11.7631C356.438 11.8915 356.681 11.931 357.303 11.9079C357.526 11.8997 357.749 11.8882 357.973 11.8816C358.189 11.875 358.385 11.8964 358.561 11.9409C358.73 11.9853 358.933 12.0083 359.142 12.0018C359.589 11.9869 360.042 11.9721 360.475 11.9474C360.833 11.9277 361.131 11.9441 361.381 12.0051C361.658 12.0725 361.983 12.0577 362.307 12.0429C363.065 12.01 363.071 12.0116 363.545 12.094C363.639 12.1104 363.734 12.1417 363.822 12.1401C364.6 12.1154 365.384 12.094 366.148 12.0544C366.547 12.0347 366.777 12.0874 367.041 12.1302C367.136 12.145 367.23 12.1779 367.318 12.1746C367.879 12.1565 368.441 12.1384 368.988 12.1071C369.245 12.0923 369.401 12.1022 369.611 12.1417C370.111 12.2388 370.125 12.2355 370.835 12.2042C371.051 12.1944 371.288 12.1763 371.49 12.1894C371.693 12.2026 371.856 12.2503 372.045 12.28C372.133 12.2931 372.241 12.3112 372.336 12.3079C372.782 12.2948 373.228 12.275 373.675 12.2569C374.094 12.2388 374.094 12.2405 374.878 12.3425C375.196 12.3853 375.528 12.3491 375.846 12.3359C376.19 12.3211 376.501 12.3211 376.765 12.3853C377.029 12.4495 377.347 12.4462 377.685 12.433C378.003 12.4199 378.327 12.3837 378.652 12.4281C379.396 12.5302 379.396 12.5318 379.856 12.5121C380.525 12.4841 381.188 12.4577 381.864 12.433C381.952 12.4298 382.067 12.4495 382.155 12.4627C382.344 12.4923 382.506 12.5417 382.709 12.5532C382.912 12.5664 383.149 12.5466 383.365 12.5368C384.062 12.5055 384.109 12.494 384.576 12.6026C384.968 12.6915 385.455 12.5631 385.82 12.6652C386.03 12.7228 386.313 12.7689 386.706 12.7409C387.03 12.7178 387.368 12.7112 387.707 12.6981C388.241 12.6767 388.241 12.6783 388.917 12.7771C389.005 12.7903 389.12 12.8067 389.208 12.8034C389.654 12.7903 390.107 12.7787 390.54 12.7491C391.047 12.7145 391.372 12.7771 391.75 12.838C392.048 12.8857 392.4 12.8462 392.717 12.8298C393.062 12.8133 393.373 12.8182 393.63 12.8824C393.901 12.9483 394.219 12.9401 394.557 12.9269C394.875 12.9154 395.199 12.8775 395.524 12.9236C396.22 13.0257 396.22 13.0257 396.728 13.0059C397.174 12.9878 397.62 12.968 398.066 12.9549C398.154 12.9516 398.262 12.973 398.35 12.9878C398.54 13.0174 398.702 13.0668 398.905 13.0783C399.108 13.0899 399.344 13.0685 399.568 13.0602C399.791 13.052 400.027 13.0273 400.23 13.0372C400.433 13.0471 400.623 13.0882 400.785 13.1244C400.974 13.1672 401.15 13.1722 401.407 13.1557C401.732 13.1343 402.07 13.1294 402.401 13.1178C402.584 13.1491 402.773 13.1804 402.949 13.215C403.131 13.2512 403.327 13.2479 403.578 13.2364C404.409 13.1969 404.416 13.2018 405.113 13.3039C405.431 13.3499 405.762 13.3121 406.08 13.3006C406.418 13.2874 406.736 13.2808 406.999 13.3467C407.256 13.4092 407.574 13.4174 407.912 13.3977C408.129 13.3845 408.359 13.3763 408.582 13.3714C408.683 13.3697 408.805 13.3763 408.879 13.3895C409.238 13.4586 409.589 13.5212 410.083 13.4767C410.516 13.4899 410.732 13.6249 411.253 13.5985C411.693 13.5755 412.152 13.5705 412.585 13.5409C412.984 13.5146 413.268 13.5607 413.471 13.6183C413.836 13.7203 414.35 13.5821 414.715 13.6825C414.925 13.7401 415.195 13.7862 415.601 13.7615C416.047 13.7351 416.189 13.7697 416.318 13.8734C416.392 13.9327 416.379 13.9804 416.244 14.0265C416.108 14.0743 415.96 14.066 415.743 14.0117C415.493 13.9508 415.195 13.9393 414.837 13.9524C414.485 13.9656 414.269 13.88 413.978 13.8471C413.687 13.8125 413.343 13.8701 413.038 13.8257C412.322 13.722 412.321 13.722 411.835 13.7417C411.503 13.7549 411.158 13.7615 410.834 13.7845C410.448 13.8125 410.198 13.7615 409.934 13.7154C409.84 13.6989 409.745 13.6676 409.664 13.6693C408.886 13.694 408.102 13.717 407.331 13.7582C406.925 13.7796 406.709 13.7203 406.438 13.6792C406.344 13.6644 406.242 13.6347 406.161 13.638C405.491 13.6611 404.829 13.6907 404.159 13.7187C404.031 13.7631 403.889 13.8059 403.767 13.8537C403.639 13.903 403.463 13.9245 403.206 13.9228C402.78 13.9228 402.36 13.9919 401.934 13.9047C401.495 13.8158 401.461 13.8207 401.035 13.8421C400.494 13.8701 399.919 13.8635 399.412 13.9277C399.324 13.9393 399.23 13.9705 399.23 13.9936C399.223 14.0084 399.365 14.0298 399.453 14.043C399.75 14.0825 400.095 14.0249 400.393 14.066C400.589 14.0924 400.751 14.1319 400.947 14.1598C401.028 14.1714 401.15 14.1697 401.258 14.1681C401.373 14.1664 401.481 14.1549 401.59 14.1566C401.691 14.1582 401.799 14.1681 401.88 14.1829C402.252 14.2454 402.645 14.3031 402.976 14.3771C403.3 14.4496 403.605 14.4002 403.929 14.3969C405.228 14.5121 405.228 14.5138 406.1 14.4776C406.317 14.4693 406.54 14.4594 406.763 14.4611C406.858 14.4611 406.945 14.4907 407.04 14.5072C407.311 14.5566 407.568 14.601 407.946 14.5747C408.271 14.5516 408.616 14.5467 408.947 14.5319C409.393 14.5138 409.393 14.5138 410.151 14.6175C410.34 14.6438 410.543 14.6405 410.786 14.6274C410.996 14.6158 411.212 14.6405 411.361 14.6883C411.422 14.708 411.402 14.7409 411.422 14.7689C410.753 14.7953 410.076 14.8134 409.427 14.8529C409.008 14.8776 408.819 14.8068 408.541 14.7689C408.447 14.7558 408.345 14.7278 408.257 14.7311C407.595 14.7558 406.932 14.7837 406.269 14.8166C406.188 14.8199 406.087 14.8578 406.08 14.8808C406.066 14.9236 406.235 14.9648 406.479 14.9632C406.803 14.9615 407.121 14.9335 407.412 15.001C407.655 15.0603 407.96 15.0866 408.318 15.0603C408.534 15.0455 408.765 15.0455 408.981 15.0323C409.556 14.9928 410.076 15.001 410.509 15.113C410.84 15.1426 411.165 15.1146 411.483 15.0998C411.72 15.0883 411.949 15.0767 412.119 15.108C412.477 15.1739 412.829 15.2397 413.322 15.1953C413.857 15.2414 414.262 15.3385 414.709 15.4175C414.918 15.4553 415.08 15.4768 415.324 15.4521C415.425 15.4422 415.547 15.4422 415.655 15.4372C415.878 15.429 416.115 15.4043 416.318 15.4142C416.521 15.4257 416.69 15.4735 416.872 15.5031C416.96 15.5179 417.062 15.5426 417.15 15.5409C417.488 15.5327 417.819 15.5163 418.15 15.5031C418.482 15.4916 418.813 15.48 419.145 15.4685C419.422 15.5113 419.706 15.5541 419.983 15.5969C420.429 15.5788 420.876 15.5607 421.315 15.5442C421.809 15.5245 421.809 15.5261 422.519 15.6282C422.837 15.6743 423.175 15.6447 423.479 15.6233C423.986 15.5887 424.325 15.6512 424.683 15.7171C424.757 15.7303 424.893 15.7385 424.98 15.7319C425.332 15.7089 425.636 15.727 425.893 15.7879C426.076 15.8307 426.259 15.8504 426.482 15.8422C427.259 15.8109 428.037 15.778 428.815 15.75C428.909 15.7467 429.018 15.7615 429.105 15.7747C429.795 15.8751 429.802 15.8801 430.309 15.8537C430.762 15.8307 431.182 15.8208 431.54 15.9113C431.614 15.9311 431.729 15.9591 431.81 15.9574C432.365 15.941 432.926 15.9229 433.474 15.8949C433.724 15.8817 433.9 15.8866 434.096 15.9245C434.346 15.9722 434.57 16.0299 434.982 16.0085C436.125 15.9476 436.132 15.9574 437.484 16.071C437.579 16.0792 437.707 16.0661 437.815 16.0595C438.045 16.043 438.214 16.0661 438.417 16.1039C438.87 16.1895 438.884 16.1846 439.317 16.1665C439.648 16.1517 439.993 16.1484 440.317 16.1237C440.818 16.0875 441.149 16.1517 441.521 16.2126C441.819 16.2603 442.163 16.2208 442.481 16.206C442.826 16.1895 443.137 16.1945 443.394 16.257C443.57 16.2998 443.759 16.3229 443.983 16.3146C444.76 16.285 445.538 16.2521 446.316 16.2224C446.41 16.2192 446.525 16.2323 446.613 16.2438C447.384 16.3459 447.384 16.3509 448.148 16.313C448.392 16.3015 448.595 16.2982 448.777 16.3327C448.953 16.3657 449.142 16.3969 449.325 16.4282C449.656 16.4167 449.994 16.4134 450.319 16.3937C450.569 16.3788 450.745 16.3854 450.941 16.42C451.198 16.4644 451.414 16.5418 451.82 16.5039C452.03 16.4858 452.273 16.4908 452.483 16.4743C452.733 16.4529 452.902 16.4661 453.098 16.5089C453.342 16.5599 453.592 16.6126 453.984 16.5862C454.417 16.5566 454.877 16.5517 455.316 16.5286C455.56 16.5155 455.729 16.5286 455.925 16.5714C456.168 16.6257 456.446 16.6603 456.824 16.6389C457.595 16.5978 457.602 16.606 458.352 16.7097C458.542 16.736 458.745 16.7328 458.988 16.7196C459.198 16.7081 459.414 16.7328 459.563 16.7805C459.705 16.8332 459.691 16.8661 459.705 16.8941ZM399.446 2.0476C399.223 2.05583 399 2.06571 398.675 1.92249C398.655 1.8978 398.668 1.86818 398.621 1.84678C398.513 1.80233 398.344 1.77106 398.141 1.76612C397.776 1.75953 397.336 1.81549 397.343 1.85829C397.35 1.89451 397.465 1.92578 397.688 1.95541C397.782 1.96693 397.857 1.98669 397.945 1.99986C398.202 2.03772 398.405 2.11181 398.777 2.07394C398.709 1.97188 398.743 2.02291 398.777 2.07394C398.743 2.1365 398.844 2.18094 399.088 2.19905C399.155 2.20399 399.257 2.20069 399.311 2.19081C399.52 2.1546 399.554 2.10523 399.399 1.97518C399.372 1.99658 399.392 2.03443 399.453 2.04431C399.514 2.05418 399.662 2.04596 399.737 2.03444C399.926 2.00316 400.021 1.96201 399.973 1.92744C399.946 1.90933 399.818 1.88628 399.737 1.88628C399.595 1.88628 399.466 1.92249 399.446 2.0476ZM454.126 21.1378C453.632 21.1691 453.064 21.1576 452.571 21.2218C452.483 21.2333 452.395 21.2629 452.388 21.286C452.381 21.3008 452.517 21.3222 452.598 21.3337C452.78 21.36 452.983 21.3518 453.22 21.3436C453.578 21.332 453.788 21.4078 454.065 21.4456C454.153 21.4571 454.268 21.4654 454.363 21.4621C454.911 21.4423 455.451 21.4209 455.999 21.3979C456.094 21.393 456.195 21.3814 456.277 21.3666C456.547 21.3189 456.52 21.2876 456.256 21.2514C455.965 21.2119 455.736 21.146 455.438 21.1147C455.012 21.0703 454.579 21.1296 454.126 21.1378ZM415.723 22.3395C415.392 22.3527 415.067 22.3658 414.736 22.379C414.627 22.3839 414.512 22.3856 414.411 22.3922C414.201 22.4037 414.046 22.4382 413.944 22.4926C414.1 22.5354 414.289 22.5601 414.499 22.5551C414.83 22.5452 415.155 22.5238 415.486 22.5189C415.845 22.5123 416.054 22.5864 416.331 22.6243C416.419 22.6358 416.528 22.6374 416.629 22.6391C417.129 22.6457 417.434 22.5601 417.339 22.4399C417.271 22.3461 417.014 22.2901 416.703 22.3016C416.379 22.3131 416.048 22.3263 415.723 22.3395ZM456.439 18.7048C456.52 18.6768 456.608 18.6571 456.649 18.6324C456.77 18.5484 456.723 18.4859 456.5 18.42C456.229 18.3394 455.898 18.3937 455.594 18.4019C455.519 18.4036 455.438 18.4381 455.397 18.4595C455.37 18.4744 455.37 18.5056 455.411 18.5139C455.742 18.5797 456.094 18.6406 456.439 18.7048ZM397.776 13.8421C397.451 13.8553 397.12 13.8652 396.795 13.8833C396.714 13.8882 396.64 13.9195 396.592 13.9409C396.504 13.9804 396.599 14.0347 396.876 14.0397C397.194 14.0463 397.525 14.0183 397.857 14.0051C398.276 13.9887 398.526 13.9277 398.371 13.8751C398.222 13.824 398.019 13.8142 397.776 13.8421ZM41.8137 10.3244C42.0301 10.3161 42.2532 10.3095 42.4696 10.298C42.6725 10.2865 42.8281 10.2503 42.9296 10.196C42.7605 10.1532 42.5711 10.1301 42.3615 10.1351C42.0301 10.1449 41.7056 10.1581 41.381 10.1746C41.1781 10.1844 40.9821 10.2206 40.9347 10.2766C40.8874 10.3194 41.3403 10.3441 41.8137 10.3244ZM369.178 10.0709C369.266 10.0857 369.354 10.1153 369.441 10.1153C369.658 10.1153 369.881 10.1054 370.084 10.089C370.172 10.0824 370.239 10.0527 370.28 10.0297C370.307 10.0149 370.3 9.98855 370.26 9.97538C370.064 9.89637 369.279 9.92435 369.151 10.0149C369.137 10.0313 369.171 10.0527 369.178 10.0709ZM347.843 1.05663C347.863 1.08296 347.87 1.1093 347.897 1.13564C347.951 1.18502 348.1 1.22124 348.316 1.24593C348.485 1.20478 348.573 1.1587 348.566 1.10931C348.56 1.08297 348.539 1.05662 348.512 1.03028C348.458 0.980898 348.309 0.944696 348.093 0.920004C347.924 0.959511 347.843 1.0056 347.843 1.05663ZM472.066 22.6259C472.006 22.6473 471.945 22.6687 471.877 22.6885C472.06 22.7362 472.229 22.751 472.357 22.7247C472.439 22.7082 472.486 22.6835 472.547 22.6621C472.364 22.6144 472.202 22.6012 472.066 22.6259ZM467.86 22.8498C467.948 22.8646 468.029 22.8844 468.124 22.8942C468.28 22.9107 468.422 22.8827 468.53 22.8234C468.442 22.8086 468.361 22.7889 468.266 22.779C468.111 22.7625 467.969 22.7905 467.86 22.8498ZM470.525 22.5485C470.477 22.5881 470.572 22.621 470.822 22.649C470.883 22.6276 470.964 22.6078 471.005 22.5848C471.073 22.5469 470.957 22.5123 470.714 22.486C470.646 22.5057 470.586 22.5271 470.525 22.5485ZM456.249 20.774C456.202 20.8135 456.297 20.8464 456.547 20.8744C456.608 20.853 456.689 20.8333 456.73 20.8102C456.797 20.7724 456.682 20.7378 456.439 20.7115C456.371 20.7312 456.31 20.7526 456.249 20.774ZM436.801 9.12597C436.74 9.14737 436.679 9.16877 436.612 9.18853C436.794 9.23626 436.963 9.25107 437.092 9.22474C437.173 9.20827 437.22 9.18358 437.281 9.16218C437.099 9.11444 436.936 9.10128 436.801 9.12597ZM418.171 2.94638C418.333 2.95791 418.468 2.93487 418.583 2.87396C418.495 2.85915 418.414 2.83939 418.32 2.82951C418.164 2.81305 418.022 2.84105 417.914 2.90031C418.002 2.91677 418.09 2.93157 418.171 2.94638ZM408.278 2.55955C408.217 2.58095 408.156 2.60235 408.088 2.6221C408.271 2.66984 408.44 2.68465 408.568 2.65831C408.649 2.64185 408.697 2.61716 408.758 2.59576C408.575 2.54802 408.413 2.5365 408.278 2.55955ZM341.189 1.05498C341.128 1.07638 341.067 1.09778 340.999 1.11753C341.182 1.16527 341.351 1.18008 341.479 1.15374C341.561 1.13728 341.608 1.11259 341.669 1.09119C341.486 1.04345 341.324 1.03193 341.189 1.05498ZM7.13649 14.4479C7.04857 14.4331 6.96074 14.4183 6.8796 14.4018C6.68349 14.4463 6.62265 14.4874 6.73084 14.5187C6.79847 14.5385 6.89982 14.55 6.98773 14.5648C7.1906 14.5204 7.23792 14.4808 7.13649 14.4479Z" fill="#FFE492"/>
</svg>
